<?xml version="1.0" encoding="utf-8" standalone="no"?>
<!DOCTYPE svg PUBLIC "-//W3C//DTD SVG 1.1//EN"
  "http://www.w3.org/Graphics/SVG/1.1/DTD/svg11.dtd">
<svg xmlns:xlink="http://www.w3.org/1999/xlink" width="481.404687pt" height="373.59325pt" viewBox="0 0 481.404687 373.59325" xmlns="http://www.w3.org/2000/svg" version="1.1">
 <metadata>
  <rdf:RDF xmlns:dc="http://purl.org/dc/elements/1.1/" xmlns:cc="http://creativecommons.org/ns#" xmlns:rdf="http://www.w3.org/1999/02/22-rdf-syntax-ns#">
   <cc:Work>
    <dc:type rdf:resource="http://purl.org/dc/dcmitype/StillImage"/>
    <dc:date>2025-04-18T17:43:51.098642</dc:date>
    <dc:format>image/svg+xml</dc:format>
    <dc:creator>
     <cc:Agent>
      <dc:title>Matplotlib v3.9.1.post1, https://matplotlib.org/</dc:title>
     </cc:Agent>
    </dc:creator>
   </cc:Work>
  </rdf:RDF>
 </metadata>
 <defs>
  <style type="text/css">*{stroke-linejoin: round; stroke-linecap: butt}</style>
 </defs>
 <g id="figure_1">
  <g id="patch_1">
   <path d="M 0 373.59325
L 481.404687 373.59325
L 481.404687 0
L 0 0
z
" style="fill: #ffffff"/>
  </g>
  <g id="axes_1">
   <g id="patch_2">
    <path d="M 90.350938 298.99325
L 447.470937 298.99325
L 447.470937 32.88125
L 90.350938 32.88125
z
" style="fill: #ffffff"/>
   </g>
   <g id="matplotlib.axis_1">
    <g id="xtick_1">
     <g id="line2d_1">
      <path d="M 135.113644 298.99325
L 135.113644 32.88125
" clip-path="url(#pfea13c345c)" style="fill: none; stroke: #dad8d7; stroke-opacity: 0.5; stroke-width: 0.8; stroke-linecap: square"/>
     </g>
     <g id="line2d_2">
      <defs>
       <path id="me26f898771" d="M 0 0
L 0 3.5
" style="stroke: #000000; stroke-width: 0.8"/>
      </defs>
      <g>
       <use xlink:href="#me26f898771" x="135.113644" y="298.99325" style="stroke: #000000; stroke-width: 0.8"/>
      </g>
     </g>
     <g id="text_1">
      <!-- 40 -->
      <g transform="translate(128.828488 313.39325) scale(0.1 -0.1)">
       <defs>
        <path id="Poppins-Regular-34" d="M 256 1030
L 256 1472
L 2502 4582
L 3200 4582
L 3200 1536
L 3840 1536
L 3840 1030
L 3200 1030
L 3200 0
L 2624 0
L 2624 1030
L 256 1030
z
M 2650 3974
L 928 1536
L 2650 1536
L 2650 3974
z
" transform="scale(0.015625)"/>
        <path id="Poppins-Regular-30" d="M 397 2362
Q 397 3462 755 4080
Q 1114 4698 2010 4698
Q 2899 4698 3257 4080
Q 3616 3462 3616 2362
Q 3616 1242 3257 621
Q 2899 0 2010 0
Q 1114 0 755 621
Q 397 1242 397 2362
z
M 3040 2362
Q 3040 2918 2966 3305
Q 2893 3693 2665 3929
Q 2438 4166 2010 4166
Q 1574 4166 1347 3929
Q 1120 3693 1046 3305
Q 973 2918 973 2362
Q 973 1786 1046 1395
Q 1120 1005 1347 768
Q 1574 531 2010 531
Q 2438 531 2665 768
Q 2893 1005 2966 1395
Q 3040 1786 3040 2362
z
" transform="scale(0.015625)"/>
       </defs>
       <use xlink:href="#Poppins-Regular-34"/>
       <use xlink:href="#Poppins-Regular-30" x="62.899994"/>
      </g>
     </g>
    </g>
    <g id="xtick_2">
     <g id="line2d_3">
      <path d="M 180.936097 298.99325
L 180.936097 32.88125
" clip-path="url(#pfea13c345c)" style="fill: none; stroke: #dad8d7; stroke-opacity: 0.5; stroke-width: 0.8; stroke-linecap: square"/>
     </g>
     <g id="line2d_4">
      <g>
       <use xlink:href="#me26f898771" x="180.936097" y="298.99325" style="stroke: #000000; stroke-width: 0.8"/>
      </g>
     </g>
     <g id="text_2">
      <!-- 60 -->
      <g transform="translate(174.621253 313.39325) scale(0.1 -0.1)">
       <defs>
        <path id="Poppins-Regular-36" d="M 2976 3526
Q 2835 4237 2099 4237
Q 1530 4237 1248 3798
Q 966 3360 973 2355
Q 1120 2688 1462 2877
Q 1805 3066 2227 3066
Q 2886 3066 3280 2656
Q 3674 2246 3674 1523
Q 3674 1088 3504 742
Q 3334 397 2992 192
Q 2650 -13 2163 -13
Q 1504 -13 1133 281
Q 762 576 614 1094
Q 467 1613 467 2374
Q 467 4723 2106 4723
Q 2733 4723 3091 4384
Q 3450 4045 3514 3526
L 2976 3526
z
M 2106 2573
Q 1830 2573 1587 2461
Q 1344 2349 1193 2121
Q 1043 1894 1043 1568
Q 1043 1082 1324 778
Q 1606 474 2131 474
Q 2579 474 2844 752
Q 3110 1030 3110 1504
Q 3110 2003 2854 2288
Q 2598 2573 2106 2573
z
" transform="scale(0.015625)"/>
       </defs>
       <use xlink:href="#Poppins-Regular-36"/>
       <use xlink:href="#Poppins-Regular-30" x="63.499985"/>
      </g>
     </g>
    </g>
    <g id="xtick_3">
     <g id="line2d_5">
      <path d="M 226.75855 298.99325
L 226.75855 32.88125
" clip-path="url(#pfea13c345c)" style="fill: none; stroke: #dad8d7; stroke-opacity: 0.5; stroke-width: 0.8; stroke-linecap: square"/>
     </g>
     <g id="line2d_6">
      <g>
       <use xlink:href="#me26f898771" x="226.75855" y="298.99325" style="stroke: #000000; stroke-width: 0.8"/>
      </g>
     </g>
     <g id="text_3">
      <!-- 80 -->
      <g transform="translate(220.464019 313.39325) scale(0.1 -0.1)">
       <defs>
        <path id="Poppins-Regular-38" d="M 1242 2406
Q 883 2547 691 2816
Q 499 3085 499 3469
Q 499 3814 672 4092
Q 845 4371 1187 4534
Q 1530 4698 2016 4698
Q 2502 4698 2844 4534
Q 3187 4371 3363 4092
Q 3539 3814 3539 3469
Q 3539 3098 3340 2819
Q 3142 2541 2797 2406
Q 3194 2285 3427 1981
Q 3661 1677 3661 1248
Q 3661 832 3456 521
Q 3251 211 2876 41
Q 2502 -128 2016 -128
Q 1530 -128 1162 41
Q 794 211 589 521
Q 384 832 384 1248
Q 384 1677 614 1984
Q 845 2291 1242 2406
z
M 2976 3398
Q 2976 3789 2720 4000
Q 2464 4211 2016 4211
Q 1574 4211 1318 4000
Q 1062 3789 1062 3392
Q 1062 3034 1328 2816
Q 1594 2598 2016 2598
Q 2445 2598 2710 2819
Q 2976 3040 2976 3398
z
M 2016 2150
Q 1542 2150 1241 1929
Q 941 1709 941 1267
Q 941 858 1232 608
Q 1523 358 2016 358
Q 2509 358 2797 608
Q 3085 858 3085 1267
Q 3085 1696 2790 1923
Q 2496 2150 2016 2150
z
" transform="scale(0.015625)"/>
       </defs>
       <use xlink:href="#Poppins-Regular-38"/>
       <use xlink:href="#Poppins-Regular-30" x="63.099991"/>
      </g>
     </g>
    </g>
    <g id="xtick_4">
     <g id="line2d_7">
      <path d="M 272.581003 298.99325
L 272.581003 32.88125
" clip-path="url(#pfea13c345c)" style="fill: none; stroke: #dad8d7; stroke-opacity: 0.5; stroke-width: 0.8; stroke-linecap: square"/>
     </g>
     <g id="line2d_8">
      <g>
       <use xlink:href="#me26f898771" x="272.581003" y="298.99325" style="stroke: #000000; stroke-width: 0.8"/>
      </g>
     </g>
     <g id="text_4">
      <!-- 100 -->
      <g transform="translate(264.701316 313.39325) scale(0.1 -0.1)">
       <defs>
        <path id="Poppins-Regular-31" d="M 243 4096
L 243 4627
L 1446 4627
L 1446 0
L 858 0
L 858 4096
L 243 4096
z
" transform="scale(0.015625)"/>
       </defs>
       <use xlink:href="#Poppins-Regular-31"/>
       <use xlink:href="#Poppins-Regular-30" x="31.999985"/>
       <use xlink:href="#Poppins-Regular-30" x="94.799973"/>
      </g>
     </g>
    </g>
    <g id="xtick_5">
     <g id="line2d_9">
      <path d="M 318.403456 298.99325
L 318.403456 32.88125
" clip-path="url(#pfea13c345c)" style="fill: none; stroke: #dad8d7; stroke-opacity: 0.5; stroke-width: 0.8; stroke-linecap: square"/>
     </g>
     <g id="line2d_10">
      <g>
       <use xlink:href="#me26f898771" x="318.403456" y="298.99325" style="stroke: #000000; stroke-width: 0.8"/>
      </g>
     </g>
     <g id="text_5">
      <!-- 120 -->
      <g transform="translate(310.788612 313.39325) scale(0.1 -0.1)">
       <defs>
        <path id="Poppins-Regular-32" d="M 326 467
Q 1139 1120 1600 1539
Q 2061 1958 2377 2416
Q 2694 2874 2694 3315
Q 2694 3731 2492 3971
Q 2291 4211 1843 4211
Q 1408 4211 1168 3939
Q 928 3667 909 3213
L 346 3213
Q 371 3930 780 4320
Q 1190 4710 1837 4710
Q 2496 4710 2883 4345
Q 3270 3981 3270 3341
Q 3270 2810 2953 2307
Q 2637 1805 2233 1424
Q 1830 1043 1203 538
L 3405 538
L 3405 51
L 326 51
L 326 467
z
" transform="scale(0.015625)"/>
       </defs>
       <use xlink:href="#Poppins-Regular-31"/>
       <use xlink:href="#Poppins-Regular-32" x="31.999985"/>
       <use xlink:href="#Poppins-Regular-30" x="89.499969"/>
      </g>
     </g>
    </g>
    <g id="xtick_6">
     <g id="line2d_11">
      <path d="M 364.225909 298.99325
L 364.225909 32.88125
" clip-path="url(#pfea13c345c)" style="fill: none; stroke: #dad8d7; stroke-opacity: 0.5; stroke-width: 0.8; stroke-linecap: square"/>
     </g>
     <g id="line2d_12">
      <g>
       <use xlink:href="#me26f898771" x="364.225909" y="298.99325" style="stroke: #000000; stroke-width: 0.8"/>
      </g>
     </g>
     <g id="text_6">
      <!-- 140 -->
      <g transform="translate(356.340753 313.39325) scale(0.1 -0.1)">
       <use xlink:href="#Poppins-Regular-31"/>
       <use xlink:href="#Poppins-Regular-34" x="31.999985"/>
       <use xlink:href="#Poppins-Regular-30" x="94.899979"/>
      </g>
     </g>
    </g>
    <g id="xtick_7">
     <g id="line2d_13">
      <path d="M 410.048362 298.99325
L 410.048362 32.88125
" clip-path="url(#pfea13c345c)" style="fill: none; stroke: #dad8d7; stroke-opacity: 0.5; stroke-width: 0.8; stroke-linecap: square"/>
     </g>
     <g id="line2d_14">
      <g>
       <use xlink:href="#me26f898771" x="410.048362" y="298.99325" style="stroke: #000000; stroke-width: 0.8"/>
      </g>
     </g>
     <g id="text_7">
      <!-- 160 -->
      <g transform="translate(402.133518 313.39325) scale(0.1 -0.1)">
       <use xlink:href="#Poppins-Regular-31"/>
       <use xlink:href="#Poppins-Regular-36" x="31.999985"/>
       <use xlink:href="#Poppins-Regular-30" x="95.499969"/>
      </g>
     </g>
    </g>
    <g id="text_8">
     <!-- Indexed Spend -->
     <g transform="translate(224.374063 334.87325) scale(0.12 -0.12)">
      <defs>
       <path id="Poppins-Regular-49" d="M 1075 4461
L 1075 0
L 493 0
L 493 4461
L 1075 4461
z
" transform="scale(0.015625)"/>
       <path id="Poppins-Regular-6e" d="M 2202 3571
Q 2842 3571 3238 3184
Q 3635 2797 3635 2067
L 3635 0
L 3059 0
L 3059 1984
Q 3059 2509 2796 2787
Q 2534 3066 2080 3066
Q 1619 3066 1347 2778
Q 1075 2490 1075 1939
L 1075 0
L 493 0
L 493 3507
L 1075 3507
L 1075 3008
Q 1248 3277 1545 3424
Q 1843 3571 2202 3571
z
" transform="scale(0.015625)"/>
       <path id="Poppins-Regular-64" d="M 275 1766
Q 275 2304 492 2710
Q 710 3117 1091 3341
Q 1472 3565 1946 3565
Q 2355 3565 2707 3376
Q 3059 3187 3245 2880
L 3245 4736
L 3834 4736
L 3834 0
L 3245 0
L 3245 659
Q 3072 346 2733 144
Q 2394 -58 1939 -58
Q 1472 -58 1091 172
Q 710 403 492 819
Q 275 1235 275 1766
z
M 3245 1760
Q 3245 2157 3085 2451
Q 2925 2746 2653 2902
Q 2381 3059 2054 3059
Q 1728 3059 1459 2905
Q 1190 2752 1030 2457
Q 870 2163 870 1766
Q 870 1363 1030 1065
Q 1190 768 1459 611
Q 1728 454 2054 454
Q 2381 454 2653 611
Q 2925 768 3085 1065
Q 3245 1363 3245 1760
z
" transform="scale(0.015625)"/>
       <path id="Poppins-Regular-65" d="M 3693 1888
Q 3693 1722 3674 1536
L 870 1536
Q 902 1018 1225 726
Q 1549 435 2010 435
Q 2387 435 2640 611
Q 2893 787 2995 1082
L 3622 1082
Q 3482 576 3059 259
Q 2637 -58 2010 -58
Q 1510 -58 1116 166
Q 723 390 499 803
Q 275 1216 275 1760
Q 275 2304 492 2713
Q 710 3123 1104 3344
Q 1498 3565 2010 3565
Q 2509 3565 2893 3347
Q 3277 3130 3485 2749
Q 3693 2368 3693 1888
z
M 3091 2010
Q 3091 2342 2944 2582
Q 2797 2822 2544 2947
Q 2291 3072 1984 3072
Q 1542 3072 1232 2790
Q 922 2509 877 2010
L 3091 2010
z
" transform="scale(0.015625)"/>
       <path id="Poppins-Regular-78" d="M 2323 0
L 1491 1306
L 691 0
L 83 0
L 1216 1741
L 83 3507
L 742 3507
L 1574 2208
L 2368 3507
L 2976 3507
L 1850 1773
L 2982 0
L 2323 0
z
" transform="scale(0.015625)"/>
       <path id="Poppins-Regular-20" transform="scale(0.015625)"/>
       <path id="Poppins-Regular-53" d="M 1907 -45
Q 1466 -45 1117 112
Q 768 269 569 547
Q 371 826 365 1190
L 986 1190
Q 1018 877 1245 662
Q 1472 448 1907 448
Q 2323 448 2563 656
Q 2803 864 2803 1190
Q 2803 1446 2662 1606
Q 2522 1766 2310 1849
Q 2099 1933 1741 2029
Q 1299 2144 1033 2259
Q 768 2374 579 2620
Q 390 2867 390 3283
Q 390 3648 576 3929
Q 762 4211 1098 4364
Q 1434 4518 1869 4518
Q 2496 4518 2896 4204
Q 3296 3891 3347 3373
L 2707 3373
Q 2675 3629 2438 3824
Q 2202 4019 1811 4019
Q 1446 4019 1216 3830
Q 986 3642 986 3302
Q 986 3059 1123 2905
Q 1261 2752 1462 2672
Q 1664 2592 2029 2490
Q 2470 2368 2739 2249
Q 3008 2131 3200 1884
Q 3392 1638 3392 1216
Q 3392 890 3219 602
Q 3046 314 2707 134
Q 2368 -45 1907 -45
z
" transform="scale(0.015625)"/>
       <path id="Poppins-Regular-70" d="M 1075 2861
Q 1248 3162 1590 3363
Q 1933 3565 2387 3565
Q 2854 3565 3235 3341
Q 3616 3117 3833 2710
Q 4051 2304 4051 1766
Q 4051 1235 3833 819
Q 3616 403 3235 172
Q 2854 -58 2387 -58
Q 1939 -58 1596 144
Q 1254 346 1075 646
L 1075 -1664
L 493 -1664
L 493 3507
L 1075 3507
L 1075 2861
z
M 3456 1766
Q 3456 2163 3296 2457
Q 3136 2752 2864 2905
Q 2592 3059 2266 3059
Q 1946 3059 1674 2902
Q 1402 2746 1238 2448
Q 1075 2150 1075 1760
Q 1075 1363 1238 1065
Q 1402 768 1674 611
Q 1946 454 2266 454
Q 2592 454 2864 611
Q 3136 768 3296 1065
Q 3456 1363 3456 1766
z
" transform="scale(0.015625)"/>
      </defs>
      <use xlink:href="#Poppins-Regular-49"/>
      <use xlink:href="#Poppins-Regular-6e" x="24.599991"/>
      <use xlink:href="#Poppins-Regular-64" x="88.599976"/>
      <use xlink:href="#Poppins-Regular-65" x="156.199966"/>
      <use xlink:href="#Poppins-Regular-78" x="218.199951"/>
      <use xlink:href="#Poppins-Regular-65" x="266.099945"/>
      <use xlink:href="#Poppins-Regular-64" x="328.09993"/>
      <use xlink:href="#Poppins-Regular-20" x="395.699921"/>
      <use xlink:href="#Poppins-Regular-53" x="422.399918"/>
      <use xlink:href="#Poppins-Regular-70" x="481.099915"/>
      <use xlink:href="#Poppins-Regular-65" x="548.699905"/>
      <use xlink:href="#Poppins-Regular-6e" x="610.69989"/>
      <use xlink:href="#Poppins-Regular-64" x="674.699875"/>
     </g>
    </g>
   </g>
   <g id="matplotlib.axis_2">
    <g id="ytick_1">
     <g id="line2d_15">
      <path d="M 90.350938 278.153154
L 447.470937 278.153154
" clip-path="url(#pfea13c345c)" style="fill: none; stroke: #dad8d7; stroke-opacity: 0.5; stroke-width: 0.8; stroke-linecap: square"/>
     </g>
     <g id="line2d_16">
      <defs>
       <path id="m39b8eae01b" d="M 0 0
L -3.5 0
" style="stroke: #000000; stroke-width: 0.8"/>
      </defs>
      <g>
       <use xlink:href="#m39b8eae01b" x="90.350938" y="278.153154" style="stroke: #000000; stroke-width: 0.8"/>
      </g>
     </g>
     <g id="text_9">
      <!-- Food -->
      <g transform="translate(58.750938 281.853154) scale(0.1 -0.1)">
       <defs>
        <path id="Poppins-Regular-46" d="M 3014 4461
L 3014 3987
L 1075 3987
L 1075 2483
L 2650 2483
L 2650 2010
L 1075 2010
L 1075 0
L 493 0
L 493 4461
L 3014 4461
z
" transform="scale(0.015625)"/>
        <path id="Poppins-Regular-6f" d="M 2022 -58
Q 1530 -58 1130 166
Q 730 390 502 803
Q 275 1216 275 1760
Q 275 2298 508 2710
Q 742 3123 1145 3344
Q 1549 3565 2048 3565
Q 2547 3565 2950 3344
Q 3354 3123 3587 2713
Q 3821 2304 3821 1760
Q 3821 1216 3581 803
Q 3341 390 2931 166
Q 2522 -58 2022 -58
z
M 2022 454
Q 2336 454 2611 601
Q 2886 749 3056 1043
Q 3226 1338 3226 1760
Q 3226 2182 3059 2476
Q 2893 2771 2624 2915
Q 2355 3059 2042 3059
Q 1722 3059 1456 2915
Q 1190 2771 1030 2476
Q 870 2182 870 1760
Q 870 1331 1027 1036
Q 1184 742 1446 598
Q 1709 454 2022 454
z
" transform="scale(0.015625)"/>
       </defs>
       <use xlink:href="#Poppins-Regular-46"/>
       <use xlink:href="#Poppins-Regular-6f" x="50.399994"/>
       <use xlink:href="#Poppins-Regular-6f" x="114.399979"/>
       <use xlink:href="#Poppins-Regular-64" x="178.399963"/>
      </g>
     </g>
    </g>
    <g id="ytick_2">
     <g id="line2d_17">
      <path d="M 90.350938 246.091467
L 447.470937 246.091467
" clip-path="url(#pfea13c345c)" style="fill: none; stroke: #dad8d7; stroke-opacity: 0.5; stroke-width: 0.8; stroke-linecap: square"/>
     </g>
     <g id="line2d_18">
      <g>
       <use xlink:href="#m39b8eae01b" x="90.350938" y="246.091467" style="stroke: #000000; stroke-width: 0.8"/>
      </g>
     </g>
     <g id="text_10">
      <!-- Home -->
      <g transform="translate(53.530625 249.791467) scale(0.1 -0.1)">
       <defs>
        <path id="Poppins-Regular-48" d="M 3930 4461
L 3930 0
L 3347 0
L 3347 2022
L 1075 2022
L 1075 0
L 493 0
L 493 4461
L 1075 4461
L 1075 2502
L 3347 2502
L 3347 4461
L 3930 4461
z
" transform="scale(0.015625)"/>
        <path id="Poppins-Regular-6d" d="M 4710 3571
Q 5120 3571 5440 3401
Q 5760 3232 5945 2893
Q 6131 2554 6131 2067
L 6131 0
L 5555 0
L 5555 1984
Q 5555 2509 5296 2787
Q 5037 3066 4595 3066
Q 4141 3066 3872 2774
Q 3603 2483 3603 1933
L 3603 0
L 3027 0
L 3027 1984
Q 3027 2509 2768 2787
Q 2509 3066 2067 3066
Q 1613 3066 1344 2774
Q 1075 2483 1075 1933
L 1075 0
L 493 0
L 493 3507
L 1075 3507
L 1075 3002
Q 1248 3277 1539 3424
Q 1830 3571 2182 3571
Q 2624 3571 2963 3372
Q 3302 3174 3469 2790
Q 3616 3162 3955 3366
Q 4294 3571 4710 3571
z
" transform="scale(0.015625)"/>
       </defs>
       <use xlink:href="#Poppins-Regular-48"/>
       <use xlink:href="#Poppins-Regular-6f" x="69.199982"/>
       <use xlink:href="#Poppins-Regular-6d" x="133.199966"/>
       <use xlink:href="#Poppins-Regular-65" x="236.199951"/>
      </g>
     </g>
    </g>
    <g id="ytick_3">
     <g id="line2d_19">
      <path d="M 90.350938 214.02978
L 447.470937 214.02978
" clip-path="url(#pfea13c345c)" style="fill: none; stroke: #dad8d7; stroke-opacity: 0.5; stroke-width: 0.8; stroke-linecap: square"/>
     </g>
     <g id="line2d_20">
      <g>
       <use xlink:href="#m39b8eae01b" x="90.350938" y="214.02978" style="stroke: #000000; stroke-width: 0.8"/>
      </g>
     </g>
     <g id="text_11">
      <!-- Sports -->
      <g transform="translate(51.730625 217.72978) scale(0.1 -0.1)">
       <defs>
        <path id="Poppins-Regular-72" d="M 1075 2938
Q 1229 3238 1513 3404
Q 1798 3571 2208 3571
L 2208 2970
L 2054 2970
Q 1075 2970 1075 1907
L 1075 0
L 493 0
L 493 3507
L 1075 3507
L 1075 2938
z
" transform="scale(0.015625)"/>
        <path id="Poppins-Regular-74" d="M 1203 3027
L 1203 960
Q 1203 704 1312 598
Q 1421 493 1690 493
L 2118 493
L 2118 0
L 1594 0
Q 1107 0 864 224
Q 621 448 621 960
L 621 3027
L 166 3027
L 166 3507
L 621 3507
L 621 4390
L 1203 4390
L 1203 3507
L 2118 3507
L 2118 3027
L 1203 3027
z
" transform="scale(0.015625)"/>
        <path id="Poppins-Regular-73" d="M 1734 -58
Q 1331 -58 1011 80
Q 691 218 505 464
Q 320 710 301 1030
L 902 1030
Q 928 768 1149 601
Q 1370 435 1728 435
Q 2061 435 2253 582
Q 2445 730 2445 954
Q 2445 1184 2240 1296
Q 2035 1408 1606 1517
Q 1216 1619 969 1724
Q 723 1830 547 2038
Q 371 2246 371 2586
Q 371 2854 531 3078
Q 691 3302 985 3433
Q 1280 3565 1658 3565
Q 2240 3565 2598 3270
Q 2957 2976 2982 2464
L 2400 2464
Q 2381 2739 2179 2905
Q 1978 3072 1638 3072
Q 1325 3072 1139 2937
Q 954 2803 954 2586
Q 954 2413 1066 2301
Q 1178 2189 1347 2121
Q 1517 2054 1818 1971
Q 2195 1869 2432 1769
Q 2669 1670 2838 1472
Q 3008 1274 3014 954
Q 3014 666 2854 435
Q 2694 205 2403 73
Q 2112 -58 1734 -58
z
" transform="scale(0.015625)"/>
       </defs>
       <use xlink:href="#Poppins-Regular-53"/>
       <use xlink:href="#Poppins-Regular-70" x="58.699997"/>
       <use xlink:href="#Poppins-Regular-6f" x="126.299988"/>
       <use xlink:href="#Poppins-Regular-72" x="190.299973"/>
       <use xlink:href="#Poppins-Regular-74" x="227.59996"/>
       <use xlink:href="#Poppins-Regular-73" x="263.999954"/>
      </g>
     </g>
    </g>
    <g id="ytick_4">
     <g id="line2d_21">
      <path d="M 90.350938 181.968093
L 447.470937 181.968093
" clip-path="url(#pfea13c345c)" style="fill: none; stroke: #dad8d7; stroke-opacity: 0.5; stroke-width: 0.8; stroke-linecap: square"/>
     </g>
     <g id="line2d_22">
      <g>
       <use xlink:href="#m39b8eae01b" x="90.350938" y="181.968093" style="stroke: #000000; stroke-width: 0.8"/>
      </g>
     </g>
     <g id="text_12">
      <!-- Beauty -->
      <g transform="translate(48.591563 185.668093) scale(0.1 -0.1)">
       <defs>
        <path id="Poppins-Regular-42" d="M 2726 2298
Q 2970 2259 3171 2099
Q 3373 1939 3491 1702
Q 3610 1466 3610 1197
Q 3610 858 3437 586
Q 3264 314 2934 157
Q 2605 0 2157 0
L 493 0
L 493 4461
L 2093 4461
Q 2547 4461 2867 4310
Q 3187 4160 3347 3904
Q 3507 3648 3507 3328
Q 3507 2931 3292 2672
Q 3078 2413 2726 2298
z
M 1075 2534
L 2054 2534
Q 2464 2534 2688 2726
Q 2912 2918 2912 3258
Q 2912 3597 2688 3789
Q 2464 3981 2042 3981
L 1075 3981
L 1075 2534
z
M 2106 480
Q 2541 480 2784 685
Q 3027 890 3027 1254
Q 3027 1626 2771 1840
Q 2515 2054 2086 2054
L 1075 2054
L 1075 480
L 2106 480
z
" transform="scale(0.015625)"/>
        <path id="Poppins-Regular-61" d="M 275 1766
Q 275 2304 492 2710
Q 710 3117 1091 3341
Q 1472 3565 1939 3565
Q 2400 3565 2739 3366
Q 3078 3168 3245 2867
L 3245 3507
L 3834 3507
L 3834 0
L 3245 0
L 3245 653
Q 3072 346 2729 144
Q 2387 -58 1933 -58
Q 1466 -58 1088 172
Q 710 403 492 819
Q 275 1235 275 1766
z
M 3245 1760
Q 3245 2157 3085 2451
Q 2925 2746 2653 2902
Q 2381 3059 2054 3059
Q 1728 3059 1459 2905
Q 1190 2752 1030 2457
Q 870 2163 870 1766
Q 870 1363 1030 1065
Q 1190 768 1459 611
Q 1728 454 2054 454
Q 2381 454 2653 611
Q 2925 768 3085 1065
Q 3245 1363 3245 1760
z
" transform="scale(0.015625)"/>
        <path id="Poppins-Regular-75" d="M 3603 3507
L 3603 0
L 3021 0
L 3021 518
Q 2854 250 2556 99
Q 2259 -51 1901 -51
Q 1491 -51 1164 118
Q 838 288 649 627
Q 461 966 461 1453
L 461 3507
L 1037 3507
L 1037 1530
Q 1037 1011 1299 732
Q 1562 454 2016 454
Q 2483 454 2752 742
Q 3021 1030 3021 1581
L 3021 3507
L 3603 3507
z
" transform="scale(0.015625)"/>
        <path id="Poppins-Regular-79" d="M 3514 3507
L 1402 -1651
L 800 -1651
L 1491 38
L 77 3507
L 723 3507
L 1824 666
L 2912 3507
L 3514 3507
z
" transform="scale(0.015625)"/>
       </defs>
       <use xlink:href="#Poppins-Regular-42"/>
       <use xlink:href="#Poppins-Regular-65" x="61.299988"/>
       <use xlink:href="#Poppins-Regular-61" x="123.299973"/>
       <use xlink:href="#Poppins-Regular-75" x="190.899963"/>
       <use xlink:href="#Poppins-Regular-74" x="254.899948"/>
       <use xlink:href="#Poppins-Regular-79" x="291.299942"/>
      </g>
     </g>
    </g>
    <g id="ytick_5">
     <g id="line2d_23">
      <path d="M 90.350938 149.906407
L 447.470937 149.906407
" clip-path="url(#pfea13c345c)" style="fill: none; stroke: #dad8d7; stroke-opacity: 0.5; stroke-width: 0.8; stroke-linecap: square"/>
     </g>
     <g id="line2d_24">
      <g>
       <use xlink:href="#m39b8eae01b" x="90.350938" y="149.906407" style="stroke: #000000; stroke-width: 0.8"/>
      </g>
     </g>
     <g id="text_13">
      <!-- Music -->
      <g transform="translate(54.591563 153.606407) scale(0.1 -0.1)">
       <defs>
        <path id="Poppins-Regular-4d" d="M 5018 4429
L 5018 0
L 4435 0
L 4435 3302
L 2963 0
L 2554 0
L 1075 3309
L 1075 0
L 493 0
L 493 4429
L 1120 4429
L 2758 768
L 4397 4429
L 5018 4429
z
" transform="scale(0.015625)"/>
        <path id="Poppins-Regular-69" d="M 794 4077
Q 627 4077 512 4192
Q 397 4307 397 4474
Q 397 4640 512 4755
Q 627 4870 794 4870
Q 954 4870 1066 4755
Q 1178 4640 1178 4474
Q 1178 4307 1066 4192
Q 954 4077 794 4077
z
M 1075 3507
L 1075 0
L 493 0
L 493 3507
L 1075 3507
z
" transform="scale(0.015625)"/>
        <path id="Poppins-Regular-63" d="M 275 1760
Q 275 2304 492 2710
Q 710 3117 1097 3341
Q 1485 3565 1984 3565
Q 2630 3565 3049 3251
Q 3469 2938 3603 2381
L 2976 2381
Q 2886 2701 2627 2886
Q 2368 3072 1984 3072
Q 1485 3072 1177 2729
Q 870 2387 870 1760
Q 870 1126 1177 780
Q 1485 435 1984 435
Q 2368 435 2624 614
Q 2880 794 2976 1126
L 3603 1126
Q 3462 589 3040 265
Q 2618 -58 1984 -58
Q 1485 -58 1097 166
Q 710 390 492 800
Q 275 1210 275 1760
z
" transform="scale(0.015625)"/>
       </defs>
       <use xlink:href="#Poppins-Regular-4d"/>
       <use xlink:href="#Poppins-Regular-75" x="86.099991"/>
       <use xlink:href="#Poppins-Regular-73" x="150.099976"/>
       <use xlink:href="#Poppins-Regular-69" x="202.299973"/>
       <use xlink:href="#Poppins-Regular-63" x="226.899963"/>
      </g>
     </g>
    </g>
    <g id="ytick_6">
     <g id="line2d_25">
      <path d="M 90.350938 117.84472
L 447.470937 117.84472
" clip-path="url(#pfea13c345c)" style="fill: none; stroke: #dad8d7; stroke-opacity: 0.5; stroke-width: 0.8; stroke-linecap: square"/>
     </g>
     <g id="line2d_26">
      <g>
       <use xlink:href="#m39b8eae01b" x="90.350938" y="117.84472" style="stroke: #000000; stroke-width: 0.8"/>
      </g>
     </g>
     <g id="text_14">
      <!-- Electronics -->
      <g transform="translate(29.57125 121.54472) scale(0.1 -0.1)">
       <defs>
        <path id="Poppins-Regular-45" d="M 1075 3987
L 1075 2496
L 2701 2496
L 2701 2016
L 1075 2016
L 1075 480
L 2893 480
L 2893 0
L 493 0
L 493 4467
L 2893 4467
L 2893 3987
L 1075 3987
z
" transform="scale(0.015625)"/>
        <path id="Poppins-Regular-6c" d="M 1075 4736
L 1075 0
L 493 0
L 493 4736
L 1075 4736
z
" transform="scale(0.015625)"/>
       </defs>
       <use xlink:href="#Poppins-Regular-45"/>
       <use xlink:href="#Poppins-Regular-6c" x="51.299988"/>
       <use xlink:href="#Poppins-Regular-65" x="75.899979"/>
       <use xlink:href="#Poppins-Regular-63" x="137.899963"/>
       <use xlink:href="#Poppins-Regular-74" x="198.59996"/>
       <use xlink:href="#Poppins-Regular-72" x="234.999954"/>
       <use xlink:href="#Poppins-Regular-6f" x="272.299942"/>
       <use xlink:href="#Poppins-Regular-6e" x="336.299927"/>
       <use xlink:href="#Poppins-Regular-69" x="400.299911"/>
       <use xlink:href="#Poppins-Regular-63" x="424.899902"/>
       <use xlink:href="#Poppins-Regular-73" x="485.599899"/>
      </g>
     </g>
    </g>
    <g id="ytick_7">
     <g id="line2d_27">
      <path d="M 90.350938 85.783033
L 447.470937 85.783033
" clip-path="url(#pfea13c345c)" style="fill: none; stroke: #dad8d7; stroke-opacity: 0.5; stroke-width: 0.8; stroke-linecap: square"/>
     </g>
     <g id="line2d_28">
      <g>
       <use xlink:href="#m39b8eae01b" x="90.350938" y="85.783033" style="stroke: #000000; stroke-width: 0.8"/>
      </g>
     </g>
     <g id="text_15">
      <!-- Clothing -->
      <g transform="translate(41.111875 89.587721) scale(0.1 -0.1)">
       <defs>
        <path id="Poppins-Regular-43" d="M 275 2234
Q 275 2886 569 3408
Q 864 3930 1373 4224
Q 1882 4518 2502 4518
Q 3232 4518 3776 4166
Q 4320 3814 4570 3168
L 3872 3168
Q 3686 3571 3337 3788
Q 2989 4006 2502 4006
Q 2035 4006 1664 3788
Q 1293 3571 1081 3171
Q 870 2771 870 2234
Q 870 1702 1081 1302
Q 1293 902 1664 684
Q 2035 467 2502 467
Q 2989 467 3337 681
Q 3686 896 3872 1299
L 4570 1299
Q 4320 659 3776 310
Q 3232 -38 2502 -38
Q 1882 -38 1373 253
Q 864 544 569 1062
Q 275 1581 275 2234
z
" transform="scale(0.015625)"/>
        <path id="Poppins-Regular-68" d="M 2234 3571
Q 2630 3571 2950 3401
Q 3270 3232 3452 2893
Q 3635 2554 3635 2067
L 3635 0
L 3059 0
L 3059 1984
Q 3059 2509 2796 2787
Q 2534 3066 2080 3066
Q 1619 3066 1347 2778
Q 1075 2490 1075 1939
L 1075 0
L 493 0
L 493 4736
L 1075 4736
L 1075 3008
Q 1248 3277 1552 3424
Q 1856 3571 2234 3571
z
" transform="scale(0.015625)"/>
        <path id="Poppins-Regular-67" d="M 1939 3565
Q 2394 3565 2736 3366
Q 3078 3168 3245 2867
L 3245 3507
L 3834 3507
L 3834 -77
Q 3834 -557 3629 -931
Q 3424 -1306 3043 -1517
Q 2662 -1728 2157 -1728
Q 1466 -1728 1005 -1401
Q 544 -1075 461 -512
L 1037 -512
Q 1133 -832 1433 -1027
Q 1734 -1222 2157 -1222
Q 2637 -1222 2941 -921
Q 3245 -621 3245 -77
L 3245 659
Q 3072 352 2733 147
Q 2394 -58 1939 -58
Q 1472 -58 1091 172
Q 710 403 492 819
Q 275 1235 275 1766
Q 275 2304 492 2710
Q 710 3117 1091 3341
Q 1472 3565 1939 3565
z
M 3245 1760
Q 3245 2157 3085 2451
Q 2925 2746 2653 2902
Q 2381 3059 2054 3059
Q 1728 3059 1459 2905
Q 1190 2752 1030 2457
Q 870 2163 870 1766
Q 870 1363 1030 1065
Q 1190 768 1459 611
Q 1728 454 2054 454
Q 2381 454 2653 611
Q 2925 768 3085 1065
Q 3245 1363 3245 1760
z
" transform="scale(0.015625)"/>
       </defs>
       <use xlink:href="#Poppins-Regular-43"/>
       <use xlink:href="#Poppins-Regular-6c" x="77.199982"/>
       <use xlink:href="#Poppins-Regular-6f" x="101.799973"/>
       <use xlink:href="#Poppins-Regular-74" x="165.799957"/>
       <use xlink:href="#Poppins-Regular-68" x="202.199951"/>
       <use xlink:href="#Poppins-Regular-69" x="266.199936"/>
       <use xlink:href="#Poppins-Regular-6e" x="290.799927"/>
       <use xlink:href="#Poppins-Regular-67" x="354.799911"/>
      </g>
     </g>
    </g>
    <g id="ytick_8">
     <g id="line2d_29">
      <path d="M 90.350938 53.721346
L 447.470937 53.721346
" clip-path="url(#pfea13c345c)" style="fill: none; stroke: #dad8d7; stroke-opacity: 0.5; stroke-width: 0.8; stroke-linecap: square"/>
     </g>
     <g id="line2d_30">
      <g>
       <use xlink:href="#m39b8eae01b" x="90.350938" y="53.721346" style="stroke: #000000; stroke-width: 0.8"/>
      </g>
     </g>
     <g id="text_16">
      <!-- Books -->
      <g transform="translate(54.050938 57.421346) scale(0.1 -0.1)">
       <defs>
        <path id="Poppins-Regular-6b" d="M 2451 0
L 1075 1549
L 1075 0
L 493 0
L 493 4736
L 1075 4736
L 1075 1952
L 2426 3507
L 3238 3507
L 1587 1760
L 3245 0
L 2451 0
z
" transform="scale(0.015625)"/>
       </defs>
       <use xlink:href="#Poppins-Regular-42"/>
       <use xlink:href="#Poppins-Regular-6f" x="61.299988"/>
       <use xlink:href="#Poppins-Regular-6f" x="125.299973"/>
       <use xlink:href="#Poppins-Regular-6b" x="189.299957"/>
       <use xlink:href="#Poppins-Regular-73" x="240.799942"/>
      </g>
     </g>
    </g>
    <g id="text_17">
     <!-- Categories -->
     <g transform="translate(16.33125 198.990687) rotate(-90) scale(0.12 -0.12)">
      <use xlink:href="#Poppins-Regular-43"/>
      <use xlink:href="#Poppins-Regular-61" x="77.199982"/>
      <use xlink:href="#Poppins-Regular-74" x="144.799973"/>
      <use xlink:href="#Poppins-Regular-65" x="181.199966"/>
      <use xlink:href="#Poppins-Regular-67" x="243.199951"/>
      <use xlink:href="#Poppins-Regular-6f" x="310.799942"/>
      <use xlink:href="#Poppins-Regular-72" x="374.799927"/>
      <use xlink:href="#Poppins-Regular-69" x="412.099915"/>
      <use xlink:href="#Poppins-Regular-65" x="436.699905"/>
      <use xlink:href="#Poppins-Regular-73" x="498.69989"/>
     </g>
    </g>
   </g>
   <g id="patch_3">
    <path d="M 272.581003 290.977828
L 431.23821 290.977828
L 431.23821 265.328479
L 272.581003 265.328479
z
" clip-path="url(#pfea13c345c)" style="fill: #22c55e"/>
   </g>
   <g id="patch_4">
    <path d="M 272.581003 258.916142
L 389.227382 258.916142
L 389.227382 233.266792
L 272.581003 233.266792
z
" clip-path="url(#pfea13c345c)" style="fill: #22c55e"/>
   </g>
   <g id="patch_5">
    <path d="M 272.581003 226.854455
L 319.854725 226.854455
L 319.854725 201.205105
L 272.581003 201.205105
z
" clip-path="url(#pfea13c345c)" style="fill: #22c55e"/>
   </g>
   <g id="patch_6">
    <path d="M 272.581003 194.792768
L 290.40642 194.792768
L 290.40642 169.143419
L 272.581003 169.143419
z
" clip-path="url(#pfea13c345c)" style="fill: #22c55e"/>
   </g>
   <g id="patch_7">
    <path d="M 272.581003 162.731081
L 281.505493 162.731081
L 281.505493 137.081732
L 272.581003 137.081732
z
" clip-path="url(#pfea13c345c)" style="fill: #22c55e"/>
   </g>
   <g id="patch_8">
    <path d="M 272.581003 130.669395
L 184.318683 130.669395
L 184.318683 105.020045
L 272.581003 105.020045
z
" clip-path="url(#pfea13c345c)" style="fill: #22c55e"/>
   </g>
   <g id="patch_9">
    <path d="M 272.581003 98.607708
L 169.258274 98.607708
L 169.258274 72.958358
L 272.581003 72.958358
z
" clip-path="url(#pfea13c345c)" style="fill: #22c55e"/>
   </g>
   <g id="patch_10">
    <path d="M 272.581003 66.546021
L 106.583665 66.546021
L 106.583665 40.896672
L 272.581003 40.896672
z
" clip-path="url(#pfea13c345c)" style="fill: #22c55e"/>
   </g>
   <g id="line2d_31">
    <path d="M 272.581003 298.99325
L 272.581003 32.88125
" clip-path="url(#pfea13c345c)" style="fill: none; stroke: #000000; stroke-opacity: 0.5; stroke-linecap: square"/>
   </g>
   <g id="patch_11">
    <path d="M 90.350938 298.99325
L 90.350938 32.88125
" style="fill: none; stroke: #000000; stroke-width: 0.8; stroke-linejoin: miter; stroke-linecap: square"/>
   </g>
   <g id="patch_12">
    <path d="M 90.350938 298.99325
L 447.470937 298.99325
" style="fill: none; stroke: #000000; stroke-width: 0.8; stroke-linejoin: miter; stroke-linecap: square"/>
   </g>
   <g id="text_18">
    <!-- Music an opportunity category for Light? -->
    <g transform="translate(63.617188 22.88125) scale(0.2 -0.2)">
     <defs>
      <path id="Poppins-SemiBold-4d" d="M 5312 4467
L 5312 0
L 4416 0
L 4416 2906
L 3219 0
L 2541 0
L 1338 2906
L 1338 0
L 442 0
L 442 4467
L 1459 4467
L 2880 1146
L 4301 4467
L 5312 4467
z
" transform="scale(0.015625)"/>
      <path id="Poppins-SemiBold-75" d="M 3789 3546
L 3789 0
L 2886 0
L 2886 448
Q 2714 218 2435 86
Q 2157 -45 1830 -45
Q 1414 -45 1094 131
Q 774 307 592 649
Q 410 992 410 1466
L 410 3546
L 1306 3546
L 1306 1594
Q 1306 1171 1517 944
Q 1728 717 2093 717
Q 2464 717 2675 944
Q 2886 1171 2886 1594
L 2886 3546
L 3789 3546
z
" transform="scale(0.015625)"/>
      <path id="Poppins-SemiBold-73" d="M 1798 -58
Q 1363 -58 1017 99
Q 672 256 470 525
Q 269 794 250 1120
L 1152 1120
Q 1178 915 1354 780
Q 1530 646 1792 646
Q 2048 646 2192 748
Q 2336 851 2336 1011
Q 2336 1184 2160 1270
Q 1984 1357 1600 1459
Q 1203 1555 950 1657
Q 698 1760 515 1971
Q 333 2182 333 2541
Q 333 2835 502 3078
Q 672 3322 989 3462
Q 1306 3603 1734 3603
Q 2368 3603 2745 3286
Q 3123 2970 3162 2432
L 2304 2432
Q 2285 2643 2128 2768
Q 1971 2893 1709 2893
Q 1466 2893 1334 2803
Q 1203 2714 1203 2554
Q 1203 2374 1382 2281
Q 1562 2189 1939 2093
Q 2323 1997 2572 1894
Q 2822 1792 3004 1577
Q 3187 1363 3194 1011
Q 3194 704 3024 461
Q 2854 218 2537 80
Q 2221 -58 1798 -58
z
" transform="scale(0.015625)"/>
      <path id="Poppins-SemiBold-69" d="M 896 3968
Q 659 3968 502 4118
Q 346 4269 346 4493
Q 346 4717 502 4867
Q 659 5018 896 5018
Q 1133 5018 1289 4867
Q 1446 4717 1446 4493
Q 1446 4269 1289 4118
Q 1133 3968 896 3968
z
M 1338 3546
L 1338 0
L 442 0
L 442 3546
L 1338 3546
z
" transform="scale(0.015625)"/>
      <path id="Poppins-SemiBold-63" d="M 211 1773
Q 211 2323 435 2736
Q 659 3149 1056 3376
Q 1453 3603 1965 3603
Q 2624 3603 3056 3273
Q 3488 2944 3635 2349
L 2669 2349
Q 2592 2579 2409 2710
Q 2227 2842 1958 2842
Q 1574 2842 1350 2563
Q 1126 2285 1126 1773
Q 1126 1267 1350 988
Q 1574 710 1958 710
Q 2502 710 2669 1197
L 3635 1197
Q 3488 621 3053 281
Q 2618 -58 1965 -58
Q 1453 -58 1056 169
Q 659 397 435 809
Q 211 1222 211 1773
z
" transform="scale(0.015625)"/>
      <path id="Poppins-SemiBold-20" transform="scale(0.015625)"/>
      <path id="Poppins-SemiBold-61" d="M 211 1786
Q 211 2323 425 2739
Q 640 3155 1008 3379
Q 1376 3603 1830 3603
Q 2227 3603 2524 3443
Q 2822 3283 3002 3040
L 3002 3546
L 3904 3546
L 3904 0
L 3002 0
L 3002 518
Q 2829 269 2525 105
Q 2221 -58 1824 -58
Q 1376 -58 1008 172
Q 640 403 425 822
Q 211 1242 211 1786
z
M 3002 1773
Q 3002 2099 2874 2332
Q 2746 2566 2528 2691
Q 2310 2816 2061 2816
Q 1811 2816 1600 2694
Q 1389 2573 1257 2339
Q 1126 2106 1126 1786
Q 1126 1466 1257 1226
Q 1389 986 1603 858
Q 1818 730 2061 730
Q 2310 730 2528 854
Q 2746 979 2874 1212
Q 3002 1446 3002 1773
z
" transform="scale(0.015625)"/>
      <path id="Poppins-SemiBold-6e" d="M 2406 3597
Q 3040 3597 3430 3197
Q 3821 2797 3821 2080
L 3821 0
L 2925 0
L 2925 1958
Q 2925 2381 2713 2608
Q 2502 2835 2138 2835
Q 1766 2835 1552 2608
Q 1338 2381 1338 1958
L 1338 0
L 442 0
L 442 3546
L 1338 3546
L 1338 3104
Q 1517 3334 1795 3465
Q 2074 3597 2406 3597
z
" transform="scale(0.015625)"/>
      <path id="Poppins-SemiBold-6f" d="M 2016 -58
Q 1504 -58 1094 169
Q 685 397 451 813
Q 218 1229 218 1773
Q 218 2317 458 2733
Q 698 3149 1114 3376
Q 1530 3603 2042 3603
Q 2554 3603 2970 3376
Q 3386 3149 3626 2733
Q 3866 2317 3866 1773
Q 3866 1229 3619 813
Q 3373 397 2953 169
Q 2534 -58 2016 -58
z
M 2016 723
Q 2259 723 2473 841
Q 2688 960 2816 1197
Q 2944 1434 2944 1773
Q 2944 2278 2678 2550
Q 2413 2822 2029 2822
Q 1645 2822 1385 2550
Q 1126 2278 1126 1773
Q 1126 1267 1379 995
Q 1632 723 2016 723
z
" transform="scale(0.015625)"/>
      <path id="Poppins-SemiBold-70" d="M 1338 3034
Q 1510 3277 1814 3440
Q 2118 3603 2509 3603
Q 2963 3603 3331 3379
Q 3699 3155 3913 2742
Q 4128 2330 4128 1786
Q 4128 1242 3913 822
Q 3699 403 3331 172
Q 2963 -58 2509 -58
Q 2118 -58 1820 102
Q 1523 262 1338 506
L 1338 -1690
L 442 -1690
L 442 3546
L 1338 3546
L 1338 3034
z
M 3213 1786
Q 3213 2106 3081 2339
Q 2950 2573 2736 2694
Q 2522 2816 2272 2816
Q 2029 2816 1814 2691
Q 1600 2566 1469 2329
Q 1338 2093 1338 1773
Q 1338 1453 1469 1216
Q 1600 979 1814 854
Q 2029 730 2272 730
Q 2522 730 2736 858
Q 2950 986 3081 1222
Q 3213 1459 3213 1786
z
" transform="scale(0.015625)"/>
      <path id="Poppins-SemiBold-72" d="M 1338 2995
Q 1510 3277 1788 3437
Q 2067 3597 2426 3597
L 2426 2656
L 2189 2656
Q 1766 2656 1552 2457
Q 1338 2259 1338 1766
L 1338 0
L 442 0
L 442 3546
L 1338 3546
L 1338 2995
z
" transform="scale(0.015625)"/>
      <path id="Poppins-SemiBold-74" d="M 1485 2810
L 1485 1094
Q 1485 915 1571 835
Q 1658 755 1862 755
L 2278 755
L 2278 0
L 1715 0
Q 582 0 582 1101
L 582 2810
L 160 2810
L 160 3546
L 582 3546
L 582 4422
L 1485 4422
L 1485 3546
L 2278 3546
L 2278 2810
L 1485 2810
z
" transform="scale(0.015625)"/>
      <path id="Poppins-SemiBold-79" d="M 3834 3546
L 1638 -1677
L 685 -1677
L 1453 90
L 32 3546
L 1037 3546
L 1952 1069
L 2880 3546
L 3834 3546
z
" transform="scale(0.015625)"/>
      <path id="Poppins-SemiBold-65" d="M 3738 1850
Q 3738 1658 3712 1504
L 1120 1504
Q 1152 1120 1389 902
Q 1626 685 1971 685
Q 2470 685 2682 1114
L 3648 1114
Q 3494 602 3059 272
Q 2624 -58 1990 -58
Q 1478 -58 1072 169
Q 666 397 438 813
Q 211 1229 211 1773
Q 211 2323 435 2739
Q 659 3155 1062 3379
Q 1466 3603 1990 3603
Q 2496 3603 2896 3385
Q 3296 3168 3517 2768
Q 3738 2368 3738 1850
z
M 2810 2106
Q 2803 2451 2560 2659
Q 2317 2867 1965 2867
Q 1632 2867 1405 2665
Q 1178 2464 1126 2106
L 2810 2106
z
" transform="scale(0.015625)"/>
      <path id="Poppins-SemiBold-67" d="M 1830 3603
Q 2227 3603 2528 3446
Q 2829 3290 3002 3040
L 3002 3546
L 3904 3546
L 3904 -26
Q 3904 -518 3705 -905
Q 3507 -1293 3110 -1520
Q 2714 -1747 2150 -1747
Q 1395 -1747 912 -1395
Q 429 -1043 365 -435
L 1254 -435
Q 1325 -678 1558 -822
Q 1792 -966 2125 -966
Q 2515 -966 2758 -732
Q 3002 -499 3002 -26
L 3002 525
Q 2829 275 2525 108
Q 2221 -58 1830 -58
Q 1382 -58 1011 172
Q 640 403 425 822
Q 211 1242 211 1786
Q 211 2323 425 2739
Q 640 3155 1008 3379
Q 1376 3603 1830 3603
z
M 3002 1773
Q 3002 2099 2874 2332
Q 2746 2566 2528 2691
Q 2310 2816 2061 2816
Q 1811 2816 1600 2694
Q 1389 2573 1257 2339
Q 1126 2106 1126 1786
Q 1126 1466 1257 1226
Q 1389 986 1603 858
Q 1818 730 2061 730
Q 2310 730 2528 854
Q 2746 979 2874 1212
Q 3002 1446 3002 1773
z
" transform="scale(0.015625)"/>
      <path id="Poppins-SemiBold-66" d="M 2067 2810
L 1446 2810
L 1446 0
L 538 0
L 538 2810
L 134 2810
L 134 3546
L 538 3546
L 538 3725
Q 538 4378 909 4685
Q 1280 4992 2029 4973
L 2029 4218
Q 1702 4224 1574 4109
Q 1446 3994 1446 3693
L 1446 3546
L 2067 3546
L 2067 2810
z
" transform="scale(0.015625)"/>
      <path id="Poppins-SemiBold-4c" d="M 1338 710
L 2810 710
L 2810 0
L 442 0
L 442 4467
L 1338 4467
L 1338 710
z
" transform="scale(0.015625)"/>
      <path id="Poppins-SemiBold-68" d="M 2438 3597
Q 2842 3597 3155 3421
Q 3469 3245 3645 2902
Q 3821 2560 3821 2080
L 3821 0
L 2925 0
L 2925 1958
Q 2925 2381 2713 2608
Q 2502 2835 2138 2835
Q 1766 2835 1552 2608
Q 1338 2381 1338 1958
L 1338 0
L 442 0
L 442 4736
L 1338 4736
L 1338 3104
Q 1510 3334 1798 3465
Q 2086 3597 2438 3597
z
" transform="scale(0.015625)"/>
      <path id="Poppins-SemiBold-3f" d="M 1690 4621
Q 2355 4621 2761 4259
Q 3168 3898 3168 3264
Q 3168 2637 2765 2307
Q 2362 1978 1696 1978
L 1670 1485
L 883 1485
L 851 2573
L 1139 2573
Q 1696 2573 1997 2720
Q 2298 2867 2298 3258
Q 2298 3539 2134 3705
Q 1971 3872 1690 3872
Q 1395 3872 1232 3712
Q 1069 3552 1069 3270
L 224 3270
Q 218 3661 390 3968
Q 563 4275 899 4448
Q 1235 4621 1690 4621
z
M 1274 -45
Q 1030 -45 873 105
Q 717 256 717 480
Q 717 704 873 854
Q 1030 1005 1274 1005
Q 1510 1005 1664 854
Q 1818 704 1818 480
Q 1818 256 1664 105
Q 1510 -45 1274 -45
z
" transform="scale(0.015625)"/>
     </defs>
     <use xlink:href="#Poppins-SemiBold-4d"/>
     <use xlink:href="#Poppins-SemiBold-75" x="89.899994"/>
     <use xlink:href="#Poppins-SemiBold-73" x="155.999985"/>
     <use xlink:href="#Poppins-SemiBold-69" x="210.499969"/>
     <use xlink:href="#Poppins-SemiBold-63" x="238.299957"/>
     <use xlink:href="#Poppins-SemiBold-20" x="298.499954"/>
     <use xlink:href="#Poppins-SemiBold-61" x="322.299942"/>
     <use xlink:href="#Poppins-SemiBold-6e" x="390.09993"/>
     <use xlink:href="#Poppins-SemiBold-20" x="456.199921"/>
     <use xlink:href="#Poppins-SemiBold-6f" x="479.999908"/>
     <use xlink:href="#Poppins-SemiBold-70" x="543.799896"/>
     <use xlink:href="#Poppins-SemiBold-70" x="611.599884"/>
     <use xlink:href="#Poppins-SemiBold-6f" x="679.399872"/>
     <use xlink:href="#Poppins-SemiBold-72" x="743.19986"/>
     <use xlink:href="#Poppins-SemiBold-74" x="783.599854"/>
     <use xlink:href="#Poppins-SemiBold-75" x="822.399841"/>
     <use xlink:href="#Poppins-SemiBold-6e" x="888.499832"/>
     <use xlink:href="#Poppins-SemiBold-69" x="954.599823"/>
     <use xlink:href="#Poppins-SemiBold-74" x="982.399811"/>
     <use xlink:href="#Poppins-SemiBold-79" x="1021.199799"/>
     <use xlink:href="#Poppins-SemiBold-20" x="1081.699783"/>
     <use xlink:href="#Poppins-SemiBold-63" x="1105.499771"/>
     <use xlink:href="#Poppins-SemiBold-61" x="1165.699768"/>
     <use xlink:href="#Poppins-SemiBold-74" x="1233.499756"/>
     <use xlink:href="#Poppins-SemiBold-65" x="1272.299744"/>
     <use xlink:href="#Poppins-SemiBold-67" x="1333.999741"/>
     <use xlink:href="#Poppins-SemiBold-6f" x="1401.799728"/>
     <use xlink:href="#Poppins-SemiBold-72" x="1465.599716"/>
     <use xlink:href="#Poppins-SemiBold-79" x="1505.99971"/>
     <use xlink:href="#Poppins-SemiBold-20" x="1566.499695"/>
     <use xlink:href="#Poppins-SemiBold-66" x="1590.299683"/>
     <use xlink:href="#Poppins-SemiBold-6f" x="1624.799667"/>
     <use xlink:href="#Poppins-SemiBold-72" x="1688.599655"/>
     <use xlink:href="#Poppins-SemiBold-20" x="1728.999649"/>
     <use xlink:href="#Poppins-SemiBold-4c" x="1752.799637"/>
     <use xlink:href="#Poppins-SemiBold-69" x="1798.699631"/>
     <use xlink:href="#Poppins-SemiBold-67" x="1826.499619"/>
     <use xlink:href="#Poppins-SemiBold-68" x="1894.299606"/>
     <use xlink:href="#Poppins-SemiBold-74" x="1960.399597"/>
     <use xlink:href="#Poppins-SemiBold-3f" x="1999.199585"/>
    </g>
   </g>
  </g>
  <g id="text_19">
   <!-- Source: Transaction data financial year 2023 -->
   <g style="fill: #696969" transform="translate(7.380937 363.813562) scale(0.1 -0.1)">
    <defs>
     <path id="Poppins-LightItalic-53" d="M 1619 -45
Q 1216 -45 912 89
Q 608 224 441 467
Q 275 710 275 1024
Q 275 1107 282 1152
L 723 1152
Q 710 947 796 758
Q 883 570 1097 445
Q 1312 320 1651 320
Q 2125 320 2406 557
Q 2688 794 2688 1197
Q 2688 1440 2557 1603
Q 2426 1766 2234 1872
Q 2042 1978 1709 2112
Q 1318 2266 1088 2397
Q 858 2528 707 2758
Q 557 2989 582 3347
Q 595 3693 790 3958
Q 986 4224 1322 4374
Q 1658 4525 2086 4525
Q 2509 4525 2813 4381
Q 3117 4237 3267 3987
Q 3418 3738 3398 3437
L 2931 3437
Q 2944 3610 2851 3776
Q 2758 3942 2556 4048
Q 2355 4154 2061 4154
Q 1606 4154 1318 3933
Q 1030 3712 1030 3334
Q 1030 3110 1158 2956
Q 1286 2803 1472 2700
Q 1658 2598 1984 2464
Q 2362 2310 2595 2176
Q 2829 2042 2992 1818
Q 3155 1594 3155 1254
Q 3155 1171 3149 1126
Q 3123 800 2931 531
Q 2739 262 2403 108
Q 2067 -45 1619 -45
z
" transform="scale(0.015625)"/>
     <path id="Poppins-LightItalic-6f" d="M 1728 -51
Q 1293 -51 960 125
Q 627 301 444 624
Q 262 947 262 1382
Q 262 1971 531 2467
Q 800 2963 1280 3254
Q 1760 3546 2349 3546
Q 2784 3546 3117 3370
Q 3450 3194 3635 2870
Q 3821 2547 3821 2112
Q 3821 1517 3545 1024
Q 3270 531 2793 240
Q 2317 -51 1728 -51
z
M 1779 326
Q 2234 326 2595 569
Q 2957 813 3158 1216
Q 3360 1619 3360 2086
Q 3360 2611 3056 2886
Q 2752 3162 2285 3162
Q 1830 3162 1475 2918
Q 1120 2675 921 2272
Q 723 1869 723 1402
Q 723 883 1024 604
Q 1325 326 1779 326
z
" transform="scale(0.015625)"/>
     <path id="Poppins-LightItalic-75" d="M 3834 3494
L 3219 0
L 2771 0
L 2880 614
Q 2662 288 2316 115
Q 1971 -58 1574 -58
Q 1037 -58 710 233
Q 384 525 384 1082
Q 384 1286 416 1453
L 774 3494
L 1216 3494
L 864 1504
Q 838 1357 838 1197
Q 838 774 1072 553
Q 1306 333 1722 333
Q 2208 333 2560 630
Q 2912 928 3034 1504
L 3386 3494
L 3834 3494
z
" transform="scale(0.015625)"/>
     <path id="Poppins-LightItalic-72" d="M 1133 2797
Q 1344 3162 1683 3360
Q 2022 3558 2470 3558
L 2387 3091
L 2259 3091
Q 1798 3091 1465 2854
Q 1133 2618 1005 2074
L 640 0
L 192 0
L 806 3494
L 1254 3494
L 1133 2797
z
" transform="scale(0.015625)"/>
     <path id="Poppins-LightItalic-63" d="M 294 1747
Q 390 2291 681 2697
Q 973 3104 1395 3325
Q 1818 3546 2310 3546
Q 2957 3546 3318 3226
Q 3680 2906 3706 2355
L 3226 2355
Q 3206 2733 2947 2947
Q 2688 3162 2246 3162
Q 1702 3162 1289 2794
Q 877 2426 755 1747
Q 723 1587 723 1382
Q 723 870 1001 598
Q 1280 326 1741 326
Q 2189 326 2521 540
Q 2854 755 3014 1139
L 3494 1139
Q 3277 602 2797 275
Q 2317 -51 1677 -51
Q 1030 -51 643 320
Q 256 691 256 1338
Q 256 1536 294 1747
z
" transform="scale(0.015625)"/>
     <path id="Poppins-LightItalic-65" d="M 2330 3546
Q 2771 3546 3084 3376
Q 3398 3206 3561 2912
Q 3725 2618 3725 2240
Q 3725 2067 3699 1933
Q 3661 1741 3622 1587
L 723 1587
Q 704 1466 704 1357
Q 704 864 1001 595
Q 1299 326 1760 326
Q 2202 326 2534 537
Q 2867 749 3021 1107
L 3501 1107
Q 3283 595 2806 272
Q 2330 -51 1696 -51
Q 1043 -51 649 323
Q 256 698 256 1344
Q 256 1536 294 1747
Q 390 2291 681 2700
Q 973 3110 1401 3328
Q 1830 3546 2330 3546
z
M 3238 1920
Q 3270 2099 3270 2221
Q 3270 2675 2982 2918
Q 2694 3162 2246 3162
Q 1920 3162 1619 3021
Q 1318 2880 1094 2598
Q 870 2317 787 1920
L 3238 1920
z
" transform="scale(0.015625)"/>
     <path id="Poppins-LightItalic-3a" d="M 262 -32
Q 141 -32 64 45
Q -13 122 -13 243
Q -13 397 105 512
Q 224 627 378 627
Q 499 627 576 553
Q 653 480 653 358
Q 653 205 534 86
Q 416 -32 262 -32
z
M 262 2784
Q 141 2784 64 2861
Q -13 2938 -13 3059
Q -13 3213 105 3328
Q 224 3443 378 3443
Q 499 3443 576 3369
Q 653 3296 653 3174
Q 653 3021 534 2902
Q 416 2784 262 2784
z
" transform="scale(0.015625)"/>
     <path id="Poppins-LightItalic-20" transform="scale(0.015625)"/>
     <path id="Poppins-LightItalic-54" d="M 3603 4474
L 3539 4115
L 2291 4115
L 1568 0
L 1120 0
L 1843 4115
L 602 4115
L 666 4474
L 3603 4474
z
" transform="scale(0.015625)"/>
     <path id="Poppins-LightItalic-61" d="M 294 1754
Q 390 2291 678 2697
Q 966 3104 1385 3325
Q 1805 3546 2285 3546
Q 2784 3546 3104 3315
Q 3424 3085 3520 2726
L 3654 3494
L 4102 3494
L 3488 0
L 3040 0
L 3174 774
Q 2957 416 2550 182
Q 2144 -51 1645 -51
Q 1229 -51 915 121
Q 602 294 429 611
Q 256 928 256 1357
Q 256 1542 294 1754
z
M 3347 1747
Q 3379 1926 3379 2067
Q 3379 2566 3078 2860
Q 2778 3155 2298 3155
Q 1926 3155 1603 2988
Q 1280 2822 1056 2505
Q 832 2189 755 1754
Q 723 1562 723 1427
Q 723 922 1020 630
Q 1318 339 1798 339
Q 2157 339 2486 512
Q 2816 685 3043 1005
Q 3270 1325 3347 1747
z
" transform="scale(0.015625)"/>
     <path id="Poppins-LightItalic-6e" d="M 2464 3558
Q 3002 3558 3325 3267
Q 3648 2976 3648 2419
Q 3648 2214 3616 2048
L 3251 0
L 2810 0
L 3162 1997
Q 3187 2144 3187 2310
Q 3187 2733 2956 2950
Q 2726 3168 2310 3168
Q 1805 3168 1446 2848
Q 1088 2528 979 1907
L 979 1926
L 640 0
L 192 0
L 806 3494
L 1254 3494
L 1146 2893
Q 1370 3213 1715 3385
Q 2061 3558 2464 3558
z
" transform="scale(0.015625)"/>
     <path id="Poppins-LightItalic-73" d="M 1357 -51
Q 826 -51 493 195
Q 160 442 160 870
Q 160 947 166 986
L 602 986
Q 576 678 781 492
Q 986 307 1382 307
Q 1786 307 2029 476
Q 2272 646 2272 928
Q 2272 1094 2169 1209
Q 2067 1325 1916 1398
Q 1766 1472 1498 1568
Q 1165 1690 963 1795
Q 762 1901 618 2089
Q 474 2278 474 2566
Q 474 2854 640 3078
Q 806 3302 1097 3424
Q 1389 3546 1760 3546
Q 2278 3546 2608 3290
Q 2938 3034 2938 2611
Q 2938 2522 2931 2477
L 2509 2477
Q 2515 2502 2515 2560
Q 2515 2842 2294 3014
Q 2074 3187 1728 3187
Q 1382 3187 1155 3024
Q 928 2861 928 2586
Q 928 2400 1037 2275
Q 1146 2150 1306 2073
Q 1466 1997 1734 1894
Q 2054 1773 2249 1670
Q 2445 1568 2579 1389
Q 2714 1210 2714 941
Q 2714 486 2336 217
Q 1958 -51 1357 -51
z
" transform="scale(0.015625)"/>
     <path id="Poppins-LightItalic-74" d="M 934 947
Q 915 832 915 749
Q 915 544 1027 464
Q 1139 384 1395 384
L 1805 384
L 1734 0
L 1254 0
Q 858 0 659 153
Q 461 307 461 659
Q 461 800 486 947
L 870 3117
L 384 3117
L 454 3494
L 941 3494
L 1094 4371
L 1542 4371
L 1389 3494
L 2355 3494
L 2285 3117
L 1318 3117
L 934 947
z
" transform="scale(0.015625)"/>
     <path id="Poppins-LightItalic-69" d="M 1152 4154
Q 1030 4154 953 4227
Q 877 4301 877 4422
Q 877 4589 992 4701
Q 1107 4813 1267 4813
Q 1389 4813 1462 4742
Q 1536 4672 1536 4557
Q 1536 4390 1421 4272
Q 1306 4154 1152 4154
z
M 1254 3494
L 640 0
L 192 0
L 806 3494
L 1254 3494
z
" transform="scale(0.015625)"/>
     <path id="Poppins-LightItalic-64" d="M 294 1754
Q 390 2291 678 2697
Q 966 3104 1388 3325
Q 1811 3546 2291 3546
Q 2752 3546 3081 3322
Q 3411 3098 3526 2739
L 3878 4736
L 4326 4736
L 3488 0
L 3040 0
L 3181 781
Q 2950 416 2547 182
Q 2144 -51 1651 -51
Q 1018 -51 637 329
Q 256 710 256 1357
Q 256 1542 294 1754
z
M 3347 1747
Q 3379 1926 3379 2067
Q 3379 2566 3078 2860
Q 2778 3155 2298 3155
Q 1926 3155 1603 2988
Q 1280 2822 1056 2505
Q 832 2189 755 1754
Q 723 1562 723 1427
Q 723 922 1020 630
Q 1318 339 1798 339
Q 2157 339 2486 512
Q 2816 685 3043 1005
Q 3270 1325 3347 1747
z
" transform="scale(0.015625)"/>
     <path id="Poppins-LightItalic-66" d="M 2330 4461
Q 1894 4461 1689 4294
Q 1485 4128 1414 3738
L 1370 3494
L 2189 3494
L 2118 3117
L 1306 3117
L 755 0
L 307 0
L 858 3117
L 371 3117
L 442 3494
L 922 3494
L 966 3738
Q 1069 4307 1408 4576
Q 1747 4845 2400 4845
L 2330 4461
z
" transform="scale(0.015625)"/>
     <path id="Poppins-LightItalic-6c" d="M 1478 4736
L 640 0
L 192 0
L 1030 4736
L 1478 4736
z
" transform="scale(0.015625)"/>
     <path id="Poppins-LightItalic-79" d="M 890 3494
L 1549 531
L 3219 3494
L 3686 3494
L 710 -1645
L 237 -1645
L 1210 26
L 390 3494
L 890 3494
z
" transform="scale(0.015625)"/>
     <path id="Poppins-LightItalic-32" d="M 64 352
Q 1402 1229 2170 1929
Q 2938 2630 3053 3290
Q 3078 3456 3078 3539
Q 3078 3859 2889 4051
Q 2701 4243 2278 4243
Q 1792 4243 1472 3939
Q 1152 3635 1037 3136
L 602 3136
Q 762 3846 1232 4236
Q 1702 4627 2349 4627
Q 2893 4627 3209 4361
Q 3526 4096 3526 3603
Q 3526 3443 3501 3309
Q 3366 2547 2598 1827
Q 1830 1107 768 410
L 3130 410
L 3066 32
L 6 32
L 64 352
z
" transform="scale(0.015625)"/>
     <path id="Poppins-LightItalic-30" d="M 506 2304
Q 698 3398 1142 4006
Q 1587 4614 2464 4614
Q 3130 4614 3421 4249
Q 3712 3885 3712 3226
Q 3712 2848 3616 2304
Q 3424 1210 2976 598
Q 2528 -13 1651 -13
Q 986 -13 698 348
Q 410 710 410 1370
Q 410 1747 506 2304
z
M 3174 2304
Q 3270 2835 3270 3187
Q 3270 3674 3068 3939
Q 2867 4205 2394 4205
Q 1933 4205 1645 3958
Q 1357 3712 1203 3302
Q 1050 2893 947 2304
Q 845 1722 845 1402
Q 845 922 1043 659
Q 1242 397 1722 397
Q 2182 397 2470 643
Q 2758 890 2912 1299
Q 3066 1709 3174 2304
z
" transform="scale(0.015625)"/>
     <path id="Poppins-LightItalic-33" d="M 678 3418
Q 832 4000 1296 4336
Q 1760 4672 2406 4672
Q 2970 4672 3270 4409
Q 3571 4147 3571 3725
Q 3571 3616 3552 3501
Q 3482 3098 3197 2803
Q 2912 2509 2464 2438
L 2458 2406
Q 2835 2330 3049 2090
Q 3264 1850 3264 1466
Q 3264 1395 3238 1216
Q 3136 666 2707 317
Q 2278 -32 1587 -32
Q 954 -32 592 278
Q 230 589 230 1171
Q 230 1261 237 1306
L 672 1306
Q 653 883 905 614
Q 1158 346 1645 346
Q 2138 346 2442 598
Q 2746 851 2816 1254
Q 2835 1363 2835 1453
Q 2835 2227 1581 2227
L 1446 2227
L 1517 2605
L 1658 2605
Q 2963 2605 3117 3456
Q 3130 3514 3130 3622
Q 3130 3930 2925 4106
Q 2720 4282 2323 4282
Q 1894 4282 1568 4054
Q 1242 3827 1114 3418
L 678 3418
z
" transform="scale(0.015625)"/>
    </defs>
    <use xlink:href="#Poppins-LightItalic-53"/>
    <use xlink:href="#Poppins-LightItalic-6f" x="56.599991"/>
    <use xlink:href="#Poppins-LightItalic-75" x="120.799988"/>
    <use xlink:href="#Poppins-LightItalic-72" x="184.099976"/>
    <use xlink:href="#Poppins-LightItalic-63" x="220.299973"/>
    <use xlink:href="#Poppins-LightItalic-65" x="281.59996"/>
    <use xlink:href="#Poppins-LightItalic-3a" x="343.799957"/>
    <use xlink:href="#Poppins-LightItalic-20" x="362.299942"/>
    <use xlink:href="#Poppins-LightItalic-54" x="391.799927"/>
    <use xlink:href="#Poppins-LightItalic-72" x="443.799911"/>
    <use xlink:href="#Poppins-LightItalic-61" x="479.999908"/>
    <use xlink:href="#Poppins-LightItalic-6e" x="547.499893"/>
    <use xlink:href="#Poppins-LightItalic-73" x="610.799881"/>
    <use xlink:href="#Poppins-LightItalic-61" x="661.799866"/>
    <use xlink:href="#Poppins-LightItalic-63" x="729.29985"/>
    <use xlink:href="#Poppins-LightItalic-74" x="790.599838"/>
    <use xlink:href="#Poppins-LightItalic-69" x="826.199829"/>
    <use xlink:href="#Poppins-LightItalic-6f" x="849.099823"/>
    <use xlink:href="#Poppins-LightItalic-6e" x="913.29982"/>
    <use xlink:href="#Poppins-LightItalic-20" x="976.599808"/>
    <use xlink:href="#Poppins-LightItalic-64" x="1006.099792"/>
    <use xlink:href="#Poppins-LightItalic-61" x="1073.599777"/>
    <use xlink:href="#Poppins-LightItalic-74" x="1141.099762"/>
    <use xlink:href="#Poppins-LightItalic-61" x="1176.699753"/>
    <use xlink:href="#Poppins-LightItalic-20" x="1244.199738"/>
    <use xlink:href="#Poppins-LightItalic-66" x="1273.699722"/>
    <use xlink:href="#Poppins-LightItalic-69" x="1306.199707"/>
    <use xlink:href="#Poppins-LightItalic-6e" x="1329.099701"/>
    <use xlink:href="#Poppins-LightItalic-61" x="1392.399689"/>
    <use xlink:href="#Poppins-LightItalic-6e" x="1459.899673"/>
    <use xlink:href="#Poppins-LightItalic-63" x="1523.199661"/>
    <use xlink:href="#Poppins-LightItalic-69" x="1584.499649"/>
    <use xlink:href="#Poppins-LightItalic-61" x="1607.399643"/>
    <use xlink:href="#Poppins-LightItalic-6c" x="1674.899628"/>
    <use xlink:href="#Poppins-LightItalic-20" x="1697.799622"/>
    <use xlink:href="#Poppins-LightItalic-79" x="1727.299606"/>
    <use xlink:href="#Poppins-LightItalic-65" x="1781.799591"/>
    <use xlink:href="#Poppins-LightItalic-61" x="1843.999588"/>
    <use xlink:href="#Poppins-LightItalic-72" x="1911.499573"/>
    <use xlink:href="#Poppins-LightItalic-20" x="1947.69957"/>
    <use xlink:href="#Poppins-LightItalic-32" x="1977.199554"/>
    <use xlink:href="#Poppins-LightItalic-30" x="2034.399551"/>
    <use xlink:href="#Poppins-LightItalic-32" x="2095.999542"/>
    <use xlink:href="#Poppins-LightItalic-33" x="2153.199539"/>
   </g>
  </g>
 </g>
 <defs>
  <clipPath id="pfea13c345c">
   <rect x="90.350938" y="32.88125" width="357.12" height="266.112"/>
  </clipPath>
 </defs>
</svg>
