<svg xmlns="http://www.w3.org/2000/svg" xmlns:xlink="http://www.w3.org/1999/xlink"
  viewBox="0 0 375 374.999991" style="background-color: #22c55e;"
  preserveAspectRatio="xMidYMid meet" version="1.0">
  <defs>
    <clipPath id="bec7650176">
      <path d="M 46 5.535156 L 329 5.535156 L 329 369.285156 L 46 369.285156 Z M 46 5.535156 "
        clip-rule="nonzero" />
    </clipPath>
    <clipPath id="d985a27ffa">
      <path
        d="M 107.496094 273.308594 L 159.566406 273.308594 L 159.566406 325.378906 L 107.496094 325.378906 Z M 107.496094 273.308594 "
        clip-rule="nonzero" />
    </clipPath>
    <clipPath id="e672948e3f">
      <path
        d="M 133.53125 273.308594 C 119.152344 273.308594 107.496094 284.964844 107.496094 299.34375 C 107.496094 313.722656 119.152344 325.378906 133.53125 325.378906 C 147.910156 325.378906 159.566406 313.722656 159.566406 299.34375 C 159.566406 284.964844 147.910156 273.308594 133.53125 273.308594 Z M 133.53125 273.308594 "
        clip-rule="nonzero" />
    </clipPath>
    <clipPath id="123bed80e8">
      <path
        d="M 210.855469 264.351562 L 269.449219 264.351562 L 269.449219 322.945312 L 210.855469 322.945312 Z M 210.855469 264.351562 "
        clip-rule="nonzero" />
    </clipPath>
    <clipPath id="7a9e97e06d">
      <path
        d="M 240.152344 264.351562 C 223.96875 264.351562 210.855469 277.464844 210.855469 293.648438 C 210.855469 309.828125 223.96875 322.945312 240.152344 322.945312 C 256.332031 322.945312 269.449219 309.828125 269.449219 293.648438 C 269.449219 277.464844 256.332031 264.351562 240.152344 264.351562 Z M 240.152344 264.351562 "
        clip-rule="nonzero" />
    </clipPath>
    <clipPath id="7336fa3696">
      <path
        d="M 187.5 214.777344 L 224.566406 214.777344 L 224.566406 251.839844 L 187.5 251.839844 Z M 187.5 214.777344 "
        clip-rule="nonzero" />
    </clipPath>
    <clipPath id="fad37e00d9">
      <path
        d="M 206.03125 214.777344 C 195.796875 214.777344 187.5 223.074219 187.5 233.308594 C 187.5 243.542969 195.796875 251.839844 206.03125 251.839844 C 216.269531 251.839844 224.566406 243.542969 224.566406 233.308594 C 224.566406 223.074219 216.269531 214.777344 206.03125 214.777344 Z M 206.03125 214.777344 "
        clip-rule="nonzero" />
    </clipPath>
  </defs>
  <g clip-path="url(#bec7650176)">
    <path fill="#ffffff"
      d="M 323.132812 287.214844 L 244.160156 116.386719 L 244.160156 5.535156 L 130.835938 5.535156 L 130.835938 116.3125 L 51.863281 287.214844 C 43.492188 305.265625 44.949219 326.007812 55.648438 342.75 C 66.347656 359.488281 84.617188 369.460938 104.484375 369.460938 L 270.582031 369.460938 C 290.453125 369.460938 308.722656 359.488281 319.421875 342.75 C 330.121094 326.007812 331.503906 305.191406 323.132812 287.214844 Z M 300.207031 330.449219 C 293.726562 340.636719 282.589844 346.679688 270.582031 346.679688 L 104.484375 346.679688 C 92.402344 346.679688 81.339844 340.636719 74.863281 330.449219 C 68.386719 320.257812 67.511719 307.664062 72.535156 296.675781 L 152.523438 123.59375 C 153.179688 122.0625 153.542969 120.460938 153.542969 118.789062 L 153.542969 28.316406 L 221.378906 28.316406 L 221.378906 118.933594 C 221.378906 120.609375 221.742188 122.210938 222.398438 123.738281 L 302.390625 296.820312 C 307.558594 307.664062 306.757812 320.332031 300.207031 330.449219 Z M 300.207031 330.449219 "
      fill-opacity="1" fill-rule="nonzero" />
  </g>
  <g clip-path="url(#d985a27ffa)">
    <g clip-path="url(#e672948e3f)">
      <path fill="#ffffff"
        d="M 107.496094 273.308594 L 159.566406 273.308594 L 159.566406 325.378906 L 107.496094 325.378906 Z M 107.496094 273.308594 "
        fill-opacity="1" fill-rule="nonzero" />
    </g>
  </g>
  <g clip-path="url(#123bed80e8)">
    <g clip-path="url(#7a9e97e06d)">
      <path fill="#ffffff"
        d="M 210.855469 264.351562 L 269.449219 264.351562 L 269.449219 322.945312 L 210.855469 322.945312 Z M 210.855469 264.351562 "
        fill-opacity="1" fill-rule="nonzero" />
    </g>
  </g>
  <g clip-path="url(#7336fa3696)">
    <g clip-path="url(#fad37e00d9)">
      <path fill="#ffffff"
        d="M 187.5 214.777344 L 224.566406 214.777344 L 224.566406 251.839844 L 187.5 251.839844 Z M 187.5 214.777344 "
        fill-opacity="1" fill-rule="nonzero" />
    </g>
  </g>
</svg>
