<?xml version="1.0" encoding="utf-8" standalone="no"?>
<!DOCTYPE svg PUBLIC "-//W3C//DTD SVG 1.1//EN"
  "http://www.w3.org/Graphics/SVG/1.1/DTD/svg11.dtd">
<svg xmlns:xlink="http://www.w3.org/1999/xlink" width="441.248125pt" height="373.552625pt" viewBox="0 0 441.248125 373.552625" xmlns="http://www.w3.org/2000/svg" version="1.1">
 <metadata>
  <rdf:RDF xmlns:dc="http://purl.org/dc/elements/1.1/" xmlns:cc="http://creativecommons.org/ns#" xmlns:rdf="http://www.w3.org/1999/02/22-rdf-syntax-ns#">
   <cc:Work>
    <dc:type rdf:resource="http://purl.org/dc/dcmitype/StillImage"/>
    <dc:date>2025-06-03T10:44:50.635088</dc:date>
    <dc:format>image/svg+xml</dc:format>
    <dc:creator>
     <cc:Agent>
      <dc:title>Matplotlib v3.9.1.post1, https://matplotlib.org/</dc:title>
     </cc:Agent>
    </dc:creator>
   </cc:Work>
  </rdf:RDF>
 </metadata>
 <defs>
  <style type="text/css">*{stroke-linejoin: round; stroke-linecap: butt}</style>
 </defs>
 <g id="figure_1">
  <g id="patch_1">
   <path d="M 0 373.552625
L 441.248125 373.552625
L 441.248125 -0
L 0 -0
z
" style="fill: #ffffff"/>
  </g>
  <g id="axes_1">
   <g id="patch_2">
    <path d="M 76.928125 298.952625
L 434.048125 298.952625
L 434.048125 32.840625
L 76.928125 32.840625
z
" style="fill: #ffffff"/>
   </g>
   <g id="matplotlib.axis_1">
    <g id="xtick_1">
     <g id="line2d_1">
      <path d="M 93.160852 298.952625
L 93.160852 32.840625
" clip-path="url(#p39f9a6fc0a)" style="fill: none; stroke: #dad8d7; stroke-opacity: 0.5; stroke-width: 0.8; stroke-linecap: square"/>
     </g>
     <g id="line2d_2">
      <defs>
       <path id="mde24da1fcf" d="M 0 0
L 0 3.5
" style="stroke: #000000; stroke-width: 0.8"/>
      </defs>
      <g>
       <use xlink:href="#mde24da1fcf" x="93.160852" y="298.952625" style="stroke: #000000; stroke-width: 0.8"/>
      </g>
     </g>
     <g id="text_1">
      <!-- Apr -->
      <g transform="translate(84.546009 313.352625) scale(0.1 -0.1)">
       <defs>
        <path id="Poppins-Regular-41" d="M 3130 992
L 1184 992
L 826 0
L 211 0
L 1824 4435
L 2496 4435
L 4102 0
L 3488 0
L 3130 992
z
M 2963 1466
L 2157 3718
L 1350 1466
L 2963 1466
z
" transform="scale(0.015625)"/>
        <path id="Poppins-Regular-70" d="M 1075 2861
Q 1248 3162 1590 3363
Q 1933 3565 2387 3565
Q 2854 3565 3235 3341
Q 3616 3117 3833 2710
Q 4051 2304 4051 1766
Q 4051 1235 3833 819
Q 3616 403 3235 172
Q 2854 -58 2387 -58
Q 1939 -58 1596 144
Q 1254 346 1075 646
L 1075 -1664
L 493 -1664
L 493 3507
L 1075 3507
L 1075 2861
z
M 3456 1766
Q 3456 2163 3296 2457
Q 3136 2752 2864 2905
Q 2592 3059 2266 3059
Q 1946 3059 1674 2902
Q 1402 2746 1238 2448
Q 1075 2150 1075 1760
Q 1075 1363 1238 1065
Q 1402 768 1674 611
Q 1946 454 2266 454
Q 2592 454 2864 611
Q 3136 768 3296 1065
Q 3456 1363 3456 1766
z
" transform="scale(0.015625)"/>
        <path id="Poppins-Regular-72" d="M 1075 2938
Q 1229 3238 1513 3404
Q 1798 3571 2208 3571
L 2208 2970
L 2054 2970
Q 1075 2970 1075 1907
L 1075 0
L 493 0
L 493 3507
L 1075 3507
L 1075 2938
z
" transform="scale(0.015625)"/>
       </defs>
       <use xlink:href="#Poppins-Regular-41"/>
       <use xlink:href="#Poppins-Regular-70" x="67.399994"/>
       <use xlink:href="#Poppins-Regular-72" x="134.999985"/>
      </g>
     </g>
    </g>
    <g id="xtick_2">
     <g id="line2d_3">
      <path d="M 143.66267 298.952625
L 143.66267 32.840625
" clip-path="url(#p39f9a6fc0a)" style="fill: none; stroke: #dad8d7; stroke-opacity: 0.5; stroke-width: 0.8; stroke-linecap: square"/>
     </g>
     <g id="line2d_4">
      <g>
       <use xlink:href="#mde24da1fcf" x="143.66267" y="298.952625" style="stroke: #000000; stroke-width: 0.8"/>
      </g>
     </g>
     <g id="text_2">
      <!-- 08 -->
      <g transform="translate(137.368139 313.352625) scale(0.1 -0.1)">
       <defs>
        <path id="Poppins-Regular-30" d="M 397 2362
Q 397 3462 755 4080
Q 1114 4698 2010 4698
Q 2899 4698 3257 4080
Q 3616 3462 3616 2362
Q 3616 1242 3257 621
Q 2899 0 2010 0
Q 1114 0 755 621
Q 397 1242 397 2362
z
M 3040 2362
Q 3040 2918 2966 3305
Q 2893 3693 2665 3929
Q 2438 4166 2010 4166
Q 1574 4166 1347 3929
Q 1120 3693 1046 3305
Q 973 2918 973 2362
Q 973 1786 1046 1395
Q 1120 1005 1347 768
Q 1574 531 2010 531
Q 2438 531 2665 768
Q 2893 1005 2966 1395
Q 3040 1786 3040 2362
z
" transform="scale(0.015625)"/>
        <path id="Poppins-Regular-38" d="M 1242 2406
Q 883 2547 691 2816
Q 499 3085 499 3469
Q 499 3814 672 4092
Q 845 4371 1187 4534
Q 1530 4698 2016 4698
Q 2502 4698 2844 4534
Q 3187 4371 3363 4092
Q 3539 3814 3539 3469
Q 3539 3098 3340 2819
Q 3142 2541 2797 2406
Q 3194 2285 3427 1981
Q 3661 1677 3661 1248
Q 3661 832 3456 521
Q 3251 211 2876 41
Q 2502 -128 2016 -128
Q 1530 -128 1162 41
Q 794 211 589 521
Q 384 832 384 1248
Q 384 1677 614 1984
Q 845 2291 1242 2406
z
M 2976 3398
Q 2976 3789 2720 4000
Q 2464 4211 2016 4211
Q 1574 4211 1318 4000
Q 1062 3789 1062 3392
Q 1062 3034 1328 2816
Q 1594 2598 2016 2598
Q 2445 2598 2710 2819
Q 2976 3040 2976 3398
z
M 2016 2150
Q 1542 2150 1241 1929
Q 941 1709 941 1267
Q 941 858 1232 608
Q 1523 358 2016 358
Q 2509 358 2797 608
Q 3085 858 3085 1267
Q 3085 1696 2790 1923
Q 2496 2150 2016 2150
z
" transform="scale(0.015625)"/>
       </defs>
       <use xlink:href="#Poppins-Regular-30"/>
       <use xlink:href="#Poppins-Regular-38" x="62.799988"/>
      </g>
     </g>
    </g>
    <g id="xtick_3">
     <g id="line2d_5">
      <path d="M 194.164489 298.952625
L 194.164489 32.840625
" clip-path="url(#p39f9a6fc0a)" style="fill: none; stroke: #dad8d7; stroke-opacity: 0.5; stroke-width: 0.8; stroke-linecap: square"/>
     </g>
     <g id="line2d_6">
      <g>
       <use xlink:href="#mde24da1fcf" x="194.164489" y="298.952625" style="stroke: #000000; stroke-width: 0.8"/>
      </g>
     </g>
     <g id="text_3">
      <!-- 15 -->
      <g transform="translate(189.424645 313.352625) scale(0.1 -0.1)">
       <defs>
        <path id="Poppins-Regular-31" d="M 243 4096
L 243 4627
L 1446 4627
L 1446 0
L 858 0
L 858 4096
L 243 4096
z
" transform="scale(0.015625)"/>
        <path id="Poppins-Regular-35" d="M 3347 4122
L 1101 4122
L 1101 2662
Q 1248 2867 1536 2998
Q 1824 3130 2157 3130
Q 2688 3130 3021 2909
Q 3354 2688 3498 2339
Q 3642 1990 3642 1600
Q 3642 1139 3469 774
Q 3296 410 2941 198
Q 2586 -13 2061 -13
Q 1389 -13 973 332
Q 557 678 467 1254
L 1037 1254
Q 1120 890 1389 685
Q 1658 480 2067 480
Q 2573 480 2829 784
Q 3085 1088 3085 1587
Q 3085 2086 2829 2358
Q 2573 2630 2074 2630
Q 1734 2630 1481 2467
Q 1229 2304 1114 2022
L 563 2022
L 563 4634
L 3347 4634
L 3347 4122
z
" transform="scale(0.015625)"/>
       </defs>
       <use xlink:href="#Poppins-Regular-31"/>
       <use xlink:href="#Poppins-Regular-35" x="31.999985"/>
      </g>
     </g>
    </g>
    <g id="xtick_4">
     <g id="line2d_7">
      <path d="M 244.666307 298.952625
L 244.666307 32.840625
" clip-path="url(#p39f9a6fc0a)" style="fill: none; stroke: #dad8d7; stroke-opacity: 0.5; stroke-width: 0.8; stroke-linecap: square"/>
     </g>
     <g id="line2d_8">
      <g>
       <use xlink:href="#mde24da1fcf" x="244.666307" y="298.952625" style="stroke: #000000; stroke-width: 0.8"/>
      </g>
     </g>
     <g id="text_4">
      <!-- 22 -->
      <g transform="translate(238.916307 313.352625) scale(0.1 -0.1)">
       <defs>
        <path id="Poppins-Regular-32" d="M 326 467
Q 1139 1120 1600 1539
Q 2061 1958 2377 2416
Q 2694 2874 2694 3315
Q 2694 3731 2492 3971
Q 2291 4211 1843 4211
Q 1408 4211 1168 3939
Q 928 3667 909 3213
L 346 3213
Q 371 3930 780 4320
Q 1190 4710 1837 4710
Q 2496 4710 2883 4345
Q 3270 3981 3270 3341
Q 3270 2810 2953 2307
Q 2637 1805 2233 1424
Q 1830 1043 1203 538
L 3405 538
L 3405 51
L 326 51
L 326 467
z
" transform="scale(0.015625)"/>
       </defs>
       <use xlink:href="#Poppins-Regular-32"/>
       <use xlink:href="#Poppins-Regular-32" x="57.499985"/>
      </g>
     </g>
    </g>
    <g id="xtick_5">
     <g id="line2d_9">
      <path d="M 309.597216 298.952625
L 309.597216 32.840625
" clip-path="url(#p39f9a6fc0a)" style="fill: none; stroke: #dad8d7; stroke-opacity: 0.5; stroke-width: 0.8; stroke-linecap: square"/>
     </g>
     <g id="line2d_10">
      <g>
       <use xlink:href="#mde24da1fcf" x="309.597216" y="298.952625" style="stroke: #000000; stroke-width: 0.8"/>
      </g>
     </g>
     <g id="text_5">
      <!-- May -->
      <g transform="translate(299.097997 313.352625) scale(0.1 -0.1)">
       <defs>
        <path id="Poppins-Regular-4d" d="M 5018 4429
L 5018 0
L 4435 0
L 4435 3302
L 2963 0
L 2554 0
L 1075 3309
L 1075 0
L 493 0
L 493 4429
L 1120 4429
L 2758 768
L 4397 4429
L 5018 4429
z
" transform="scale(0.015625)"/>
        <path id="Poppins-Regular-61" d="M 275 1766
Q 275 2304 492 2710
Q 710 3117 1091 3341
Q 1472 3565 1939 3565
Q 2400 3565 2739 3366
Q 3078 3168 3245 2867
L 3245 3507
L 3834 3507
L 3834 0
L 3245 0
L 3245 653
Q 3072 346 2729 144
Q 2387 -58 1933 -58
Q 1466 -58 1088 172
Q 710 403 492 819
Q 275 1235 275 1766
z
M 3245 1760
Q 3245 2157 3085 2451
Q 2925 2746 2653 2902
Q 2381 3059 2054 3059
Q 1728 3059 1459 2905
Q 1190 2752 1030 2457
Q 870 2163 870 1766
Q 870 1363 1030 1065
Q 1190 768 1459 611
Q 1728 454 2054 454
Q 2381 454 2653 611
Q 2925 768 3085 1065
Q 3245 1363 3245 1760
z
" transform="scale(0.015625)"/>
        <path id="Poppins-Regular-79" d="M 3514 3507
L 1402 -1651
L 800 -1651
L 1491 38
L 77 3507
L 723 3507
L 1824 666
L 2912 3507
L 3514 3507
z
" transform="scale(0.015625)"/>
       </defs>
       <use xlink:href="#Poppins-Regular-4d"/>
       <use xlink:href="#Poppins-Regular-61" x="86.099991"/>
       <use xlink:href="#Poppins-Regular-79" x="153.699982"/>
      </g>
     </g>
    </g>
    <g id="xtick_6">
     <g id="line2d_11">
      <path d="M 360.099034 298.952625
L 360.099034 32.840625
" clip-path="url(#p39f9a6fc0a)" style="fill: none; stroke: #dad8d7; stroke-opacity: 0.5; stroke-width: 0.8; stroke-linecap: square"/>
     </g>
     <g id="line2d_12">
      <g>
       <use xlink:href="#mde24da1fcf" x="360.099034" y="298.952625" style="stroke: #000000; stroke-width: 0.8"/>
      </g>
     </g>
     <g id="text_6">
      <!-- 08 -->
      <g transform="translate(353.804503 313.352625) scale(0.1 -0.1)">
       <use xlink:href="#Poppins-Regular-30"/>
       <use xlink:href="#Poppins-Regular-38" x="62.799988"/>
      </g>
     </g>
    </g>
    <g id="xtick_7">
     <g id="line2d_13">
      <path d="M 410.600852 298.952625
L 410.600852 32.840625
" clip-path="url(#p39f9a6fc0a)" style="fill: none; stroke: #dad8d7; stroke-opacity: 0.5; stroke-width: 0.8; stroke-linecap: square"/>
     </g>
     <g id="line2d_14">
      <g>
       <use xlink:href="#mde24da1fcf" x="410.600852" y="298.952625" style="stroke: #000000; stroke-width: 0.8"/>
      </g>
     </g>
     <g id="text_7">
      <!-- 15 -->
      <g transform="translate(405.861009 313.352625) scale(0.1 -0.1)">
       <use xlink:href="#Poppins-Regular-31"/>
       <use xlink:href="#Poppins-Regular-35" x="31.999985"/>
      </g>
     </g>
    </g>
    <g id="text_8">
     <!-- Time Period -->
     <g transform="translate(220.46125 334.832625) scale(0.12 -0.12)">
      <defs>
       <path id="Poppins-Regular-54" d="M 3238 4461
L 3238 3987
L 2022 3987
L 2022 0
L 1440 0
L 1440 3987
L 218 3987
L 218 4461
L 3238 4461
z
" transform="scale(0.015625)"/>
       <path id="Poppins-Regular-69" d="M 794 4077
Q 627 4077 512 4192
Q 397 4307 397 4474
Q 397 4640 512 4755
Q 627 4870 794 4870
Q 954 4870 1066 4755
Q 1178 4640 1178 4474
Q 1178 4307 1066 4192
Q 954 4077 794 4077
z
M 1075 3507
L 1075 0
L 493 0
L 493 3507
L 1075 3507
z
" transform="scale(0.015625)"/>
       <path id="Poppins-Regular-6d" d="M 4710 3571
Q 5120 3571 5440 3401
Q 5760 3232 5945 2893
Q 6131 2554 6131 2067
L 6131 0
L 5555 0
L 5555 1984
Q 5555 2509 5296 2787
Q 5037 3066 4595 3066
Q 4141 3066 3872 2774
Q 3603 2483 3603 1933
L 3603 0
L 3027 0
L 3027 1984
Q 3027 2509 2768 2787
Q 2509 3066 2067 3066
Q 1613 3066 1344 2774
Q 1075 2483 1075 1933
L 1075 0
L 493 0
L 493 3507
L 1075 3507
L 1075 3002
Q 1248 3277 1539 3424
Q 1830 3571 2182 3571
Q 2624 3571 2963 3372
Q 3302 3174 3469 2790
Q 3616 3162 3955 3366
Q 4294 3571 4710 3571
z
" transform="scale(0.015625)"/>
       <path id="Poppins-Regular-65" d="M 3693 1888
Q 3693 1722 3674 1536
L 870 1536
Q 902 1018 1225 726
Q 1549 435 2010 435
Q 2387 435 2640 611
Q 2893 787 2995 1082
L 3622 1082
Q 3482 576 3059 259
Q 2637 -58 2010 -58
Q 1510 -58 1116 166
Q 723 390 499 803
Q 275 1216 275 1760
Q 275 2304 492 2713
Q 710 3123 1104 3344
Q 1498 3565 2010 3565
Q 2509 3565 2893 3347
Q 3277 3130 3485 2749
Q 3693 2368 3693 1888
z
M 3091 2010
Q 3091 2342 2944 2582
Q 2797 2822 2544 2947
Q 2291 3072 1984 3072
Q 1542 3072 1232 2790
Q 922 2509 877 2010
L 3091 2010
z
" transform="scale(0.015625)"/>
       <path id="Poppins-Regular-20" transform="scale(0.015625)"/>
       <path id="Poppins-Regular-50" d="M 3475 3155
Q 3475 2598 3094 2230
Q 2714 1862 1933 1862
L 1075 1862
L 1075 0
L 493 0
L 493 4461
L 1933 4461
Q 2688 4461 3081 4096
Q 3475 3731 3475 3155
z
M 1933 2342
Q 2419 2342 2649 2553
Q 2880 2765 2880 3155
Q 2880 3981 1933 3981
L 1075 3981
L 1075 2342
L 1933 2342
z
" transform="scale(0.015625)"/>
       <path id="Poppins-Regular-6f" d="M 2022 -58
Q 1530 -58 1130 166
Q 730 390 502 803
Q 275 1216 275 1760
Q 275 2298 508 2710
Q 742 3123 1145 3344
Q 1549 3565 2048 3565
Q 2547 3565 2950 3344
Q 3354 3123 3587 2713
Q 3821 2304 3821 1760
Q 3821 1216 3581 803
Q 3341 390 2931 166
Q 2522 -58 2022 -58
z
M 2022 454
Q 2336 454 2611 601
Q 2886 749 3056 1043
Q 3226 1338 3226 1760
Q 3226 2182 3059 2476
Q 2893 2771 2624 2915
Q 2355 3059 2042 3059
Q 1722 3059 1456 2915
Q 1190 2771 1030 2476
Q 870 2182 870 1760
Q 870 1331 1027 1036
Q 1184 742 1446 598
Q 1709 454 2022 454
z
" transform="scale(0.015625)"/>
       <path id="Poppins-Regular-64" d="M 275 1766
Q 275 2304 492 2710
Q 710 3117 1091 3341
Q 1472 3565 1946 3565
Q 2355 3565 2707 3376
Q 3059 3187 3245 2880
L 3245 4736
L 3834 4736
L 3834 0
L 3245 0
L 3245 659
Q 3072 346 2733 144
Q 2394 -58 1939 -58
Q 1472 -58 1091 172
Q 710 403 492 819
Q 275 1235 275 1766
z
M 3245 1760
Q 3245 2157 3085 2451
Q 2925 2746 2653 2902
Q 2381 3059 2054 3059
Q 1728 3059 1459 2905
Q 1190 2752 1030 2457
Q 870 2163 870 1766
Q 870 1363 1030 1065
Q 1190 768 1459 611
Q 1728 454 2054 454
Q 2381 454 2653 611
Q 2925 768 3085 1065
Q 3245 1363 3245 1760
z
" transform="scale(0.015625)"/>
      </defs>
      <use xlink:href="#Poppins-Regular-54"/>
      <use xlink:href="#Poppins-Regular-69" x="54.099991"/>
      <use xlink:href="#Poppins-Regular-6d" x="78.699982"/>
      <use xlink:href="#Poppins-Regular-65" x="181.699966"/>
      <use xlink:href="#Poppins-Regular-20" x="243.699951"/>
      <use xlink:href="#Poppins-Regular-50" x="270.399948"/>
      <use xlink:href="#Poppins-Regular-65" x="328.299942"/>
      <use xlink:href="#Poppins-Regular-72" x="390.299927"/>
      <use xlink:href="#Poppins-Regular-69" x="427.599915"/>
      <use xlink:href="#Poppins-Regular-6f" x="452.199905"/>
      <use xlink:href="#Poppins-Regular-64" x="516.19989"/>
     </g>
    </g>
    <g id="text_9">
     <!-- 2025-May -->
     <g transform="translate(384.315313 326.551062) scale(0.1 -0.1)">
      <defs>
       <path id="DejaVuSans-32" d="M 1228 531
L 3431 531
L 3431 0
L 469 0
L 469 531
Q 828 903 1448 1529
Q 2069 2156 2228 2338
Q 2531 2678 2651 2914
Q 2772 3150 2772 3378
Q 2772 3750 2511 3984
Q 2250 4219 1831 4219
Q 1534 4219 1204 4116
Q 875 4013 500 3803
L 500 4441
Q 881 4594 1212 4672
Q 1544 4750 1819 4750
Q 2544 4750 2975 4387
Q 3406 4025 3406 3419
Q 3406 3131 3298 2873
Q 3191 2616 2906 2266
Q 2828 2175 2409 1742
Q 1991 1309 1228 531
z
" transform="scale(0.015625)"/>
       <path id="DejaVuSans-30" d="M 2034 4250
Q 1547 4250 1301 3770
Q 1056 3291 1056 2328
Q 1056 1369 1301 889
Q 1547 409 2034 409
Q 2525 409 2770 889
Q 3016 1369 3016 2328
Q 3016 3291 2770 3770
Q 2525 4250 2034 4250
z
M 2034 4750
Q 2819 4750 3233 4129
Q 3647 3509 3647 2328
Q 3647 1150 3233 529
Q 2819 -91 2034 -91
Q 1250 -91 836 529
Q 422 1150 422 2328
Q 422 3509 836 4129
Q 1250 4750 2034 4750
z
" transform="scale(0.015625)"/>
       <path id="DejaVuSans-35" d="M 691 4666
L 3169 4666
L 3169 4134
L 1269 4134
L 1269 2991
Q 1406 3038 1543 3061
Q 1681 3084 1819 3084
Q 2600 3084 3056 2656
Q 3513 2228 3513 1497
Q 3513 744 3044 326
Q 2575 -91 1722 -91
Q 1428 -91 1123 -41
Q 819 9 494 109
L 494 744
Q 775 591 1075 516
Q 1375 441 1709 441
Q 2250 441 2565 725
Q 2881 1009 2881 1497
Q 2881 1984 2565 2268
Q 2250 2553 1709 2553
Q 1456 2553 1204 2497
Q 953 2441 691 2322
L 691 4666
z
" transform="scale(0.015625)"/>
       <path id="DejaVuSans-2d" d="M 313 2009
L 1997 2009
L 1997 1497
L 313 1497
L 313 2009
z
" transform="scale(0.015625)"/>
       <path id="DejaVuSans-4d" d="M 628 4666
L 1569 4666
L 2759 1491
L 3956 4666
L 4897 4666
L 4897 0
L 4281 0
L 4281 4097
L 3078 897
L 2444 897
L 1241 4097
L 1241 0
L 628 0
L 628 4666
z
" transform="scale(0.015625)"/>
       <path id="DejaVuSans-61" d="M 2194 1759
Q 1497 1759 1228 1600
Q 959 1441 959 1056
Q 959 750 1161 570
Q 1363 391 1709 391
Q 2188 391 2477 730
Q 2766 1069 2766 1631
L 2766 1759
L 2194 1759
z
M 3341 1997
L 3341 0
L 2766 0
L 2766 531
Q 2569 213 2275 61
Q 1981 -91 1556 -91
Q 1019 -91 701 211
Q 384 513 384 1019
Q 384 1609 779 1909
Q 1175 2209 1959 2209
L 2766 2209
L 2766 2266
Q 2766 2663 2505 2880
Q 2244 3097 1772 3097
Q 1472 3097 1187 3025
Q 903 2953 641 2809
L 641 3341
Q 956 3463 1253 3523
Q 1550 3584 1831 3584
Q 2591 3584 2966 3190
Q 3341 2797 3341 1997
z
" transform="scale(0.015625)"/>
       <path id="DejaVuSans-79" d="M 2059 -325
Q 1816 -950 1584 -1140
Q 1353 -1331 966 -1331
L 506 -1331
L 506 -850
L 844 -850
Q 1081 -850 1212 -737
Q 1344 -625 1503 -206
L 1606 56
L 191 3500
L 800 3500
L 1894 763
L 2988 3500
L 3597 3500
L 2059 -325
z
" transform="scale(0.015625)"/>
      </defs>
      <use xlink:href="#DejaVuSans-32"/>
      <use xlink:href="#DejaVuSans-30" x="63.623047"/>
      <use xlink:href="#DejaVuSans-32" x="127.246094"/>
      <use xlink:href="#DejaVuSans-35" x="190.869141"/>
      <use xlink:href="#DejaVuSans-2d" x="254.492188"/>
      <use xlink:href="#DejaVuSans-4d" x="290.576172"/>
      <use xlink:href="#DejaVuSans-61" x="376.855469"/>
      <use xlink:href="#DejaVuSans-79" x="438.134766"/>
     </g>
    </g>
   </g>
   <g id="matplotlib.axis_2">
    <g id="ytick_1">
     <g id="line2d_15">
      <path d="M 76.928125 79.496625
L 434.048125 79.496625
" clip-path="url(#p39f9a6fc0a)" style="fill: none; stroke: #dad8d7; stroke-opacity: 0.5; stroke-width: 0.8; stroke-linecap: square"/>
     </g>
     <g id="line2d_16">
      <defs>
       <path id="me0707f43eb" d="M 0 0
L -3.5 0
" style="stroke: #000000; stroke-width: 0.8"/>
      </defs>
      <g>
       <use xlink:href="#me0707f43eb" x="76.928125" y="79.496625" style="stroke: #000000; stroke-width: 0.8"/>
      </g>
     </g>
     <g id="text_10">
      <!-- Large -->
      <g transform="translate(42.159375 83.146625) scale(0.1 -0.1)">
       <defs>
        <path id="Poppins-Regular-4c" d="M 1075 474
L 2637 474
L 2637 0
L 493 0
L 493 4461
L 1075 4461
L 1075 474
z
" transform="scale(0.015625)"/>
        <path id="Poppins-Regular-67" d="M 1939 3565
Q 2394 3565 2736 3366
Q 3078 3168 3245 2867
L 3245 3507
L 3834 3507
L 3834 -77
Q 3834 -557 3629 -931
Q 3424 -1306 3043 -1517
Q 2662 -1728 2157 -1728
Q 1466 -1728 1005 -1401
Q 544 -1075 461 -512
L 1037 -512
Q 1133 -832 1433 -1027
Q 1734 -1222 2157 -1222
Q 2637 -1222 2941 -921
Q 3245 -621 3245 -77
L 3245 659
Q 3072 352 2733 147
Q 2394 -58 1939 -58
Q 1472 -58 1091 172
Q 710 403 492 819
Q 275 1235 275 1766
Q 275 2304 492 2710
Q 710 3117 1091 3341
Q 1472 3565 1939 3565
z
M 3245 1760
Q 3245 2157 3085 2451
Q 2925 2746 2653 2902
Q 2381 3059 2054 3059
Q 1728 3059 1459 2905
Q 1190 2752 1030 2457
Q 870 2163 870 1766
Q 870 1363 1030 1065
Q 1190 768 1459 611
Q 1728 454 2054 454
Q 2381 454 2653 611
Q 2925 768 3085 1065
Q 3245 1363 3245 1760
z
" transform="scale(0.015625)"/>
       </defs>
       <use xlink:href="#Poppins-Regular-4c"/>
       <use xlink:href="#Poppins-Regular-61" x="43.199997"/>
       <use xlink:href="#Poppins-Regular-72" x="110.799988"/>
       <use xlink:href="#Poppins-Regular-67" x="148.099976"/>
       <use xlink:href="#Poppins-Regular-65" x="215.699966"/>
      </g>
     </g>
    </g>
    <g id="ytick_2">
     <g id="line2d_17">
      <path d="M 76.928125 165.896625
L 434.048125 165.896625
" clip-path="url(#p39f9a6fc0a)" style="fill: none; stroke: #dad8d7; stroke-opacity: 0.5; stroke-width: 0.8; stroke-linecap: square"/>
     </g>
     <g id="line2d_18">
      <g>
       <use xlink:href="#me0707f43eb" x="76.928125" y="165.896625" style="stroke: #000000; stroke-width: 0.8"/>
      </g>
     </g>
     <g id="text_11">
      <!-- Medium -->
      <g transform="translate(29.2 169.596625) scale(0.1 -0.1)">
       <defs>
        <path id="Poppins-Regular-75" d="M 3603 3507
L 3603 0
L 3021 0
L 3021 518
Q 2854 250 2556 99
Q 2259 -51 1901 -51
Q 1491 -51 1164 118
Q 838 288 649 627
Q 461 966 461 1453
L 461 3507
L 1037 3507
L 1037 1530
Q 1037 1011 1299 732
Q 1562 454 2016 454
Q 2483 454 2752 742
Q 3021 1030 3021 1581
L 3021 3507
L 3603 3507
z
" transform="scale(0.015625)"/>
       </defs>
       <use xlink:href="#Poppins-Regular-4d"/>
       <use xlink:href="#Poppins-Regular-65" x="86.099991"/>
       <use xlink:href="#Poppins-Regular-64" x="148.099976"/>
       <use xlink:href="#Poppins-Regular-69" x="215.699966"/>
       <use xlink:href="#Poppins-Regular-75" x="240.299957"/>
       <use xlink:href="#Poppins-Regular-6d" x="304.299942"/>
      </g>
     </g>
    </g>
    <g id="ytick_3">
     <g id="line2d_19">
      <path d="M 76.928125 252.296625
L 434.048125 252.296625
" clip-path="url(#p39f9a6fc0a)" style="fill: none; stroke: #dad8d7; stroke-opacity: 0.5; stroke-width: 0.8; stroke-linecap: square"/>
     </g>
     <g id="line2d_20">
      <g>
       <use xlink:href="#me0707f43eb" x="76.928125" y="252.296625" style="stroke: #000000; stroke-width: 0.8"/>
      </g>
     </g>
     <g id="text_12">
      <!-- Small -->
      <g transform="translate(42.079688 255.996625) scale(0.1 -0.1)">
       <defs>
        <path id="Poppins-Regular-53" d="M 1907 -45
Q 1466 -45 1117 112
Q 768 269 569 547
Q 371 826 365 1190
L 986 1190
Q 1018 877 1245 662
Q 1472 448 1907 448
Q 2323 448 2563 656
Q 2803 864 2803 1190
Q 2803 1446 2662 1606
Q 2522 1766 2310 1849
Q 2099 1933 1741 2029
Q 1299 2144 1033 2259
Q 768 2374 579 2620
Q 390 2867 390 3283
Q 390 3648 576 3929
Q 762 4211 1098 4364
Q 1434 4518 1869 4518
Q 2496 4518 2896 4204
Q 3296 3891 3347 3373
L 2707 3373
Q 2675 3629 2438 3824
Q 2202 4019 1811 4019
Q 1446 4019 1216 3830
Q 986 3642 986 3302
Q 986 3059 1123 2905
Q 1261 2752 1462 2672
Q 1664 2592 2029 2490
Q 2470 2368 2739 2249
Q 3008 2131 3200 1884
Q 3392 1638 3392 1216
Q 3392 890 3219 602
Q 3046 314 2707 134
Q 2368 -45 1907 -45
z
" transform="scale(0.015625)"/>
        <path id="Poppins-Regular-6c" d="M 1075 4736
L 1075 0
L 493 0
L 493 4736
L 1075 4736
z
" transform="scale(0.015625)"/>
       </defs>
       <use xlink:href="#Poppins-Regular-53"/>
       <use xlink:href="#Poppins-Regular-6d" x="58.699997"/>
       <use xlink:href="#Poppins-Regular-61" x="161.699982"/>
       <use xlink:href="#Poppins-Regular-6c" x="229.299973"/>
       <use xlink:href="#Poppins-Regular-6c" x="253.899963"/>
      </g>
     </g>
    </g>
    <g id="text_13">
     <!-- Product Size -->
     <g transform="translate(16.08 202.221) rotate(-90) scale(0.12 -0.12)">
      <defs>
       <path id="Poppins-Regular-63" d="M 275 1760
Q 275 2304 492 2710
Q 710 3117 1097 3341
Q 1485 3565 1984 3565
Q 2630 3565 3049 3251
Q 3469 2938 3603 2381
L 2976 2381
Q 2886 2701 2627 2886
Q 2368 3072 1984 3072
Q 1485 3072 1177 2729
Q 870 2387 870 1760
Q 870 1126 1177 780
Q 1485 435 1984 435
Q 2368 435 2624 614
Q 2880 794 2976 1126
L 3603 1126
Q 3462 589 3040 265
Q 2618 -58 1984 -58
Q 1485 -58 1097 166
Q 710 390 492 800
Q 275 1210 275 1760
z
" transform="scale(0.015625)"/>
       <path id="Poppins-Regular-74" d="M 1203 3027
L 1203 960
Q 1203 704 1312 598
Q 1421 493 1690 493
L 2118 493
L 2118 0
L 1594 0
Q 1107 0 864 224
Q 621 448 621 960
L 621 3027
L 166 3027
L 166 3507
L 621 3507
L 621 4390
L 1203 4390
L 1203 3507
L 2118 3507
L 2118 3027
L 1203 3027
z
" transform="scale(0.015625)"/>
       <path id="Poppins-Regular-7a" d="M 928 480
L 2650 480
L 2650 0
L 262 0
L 262 480
L 1965 3034
L 275 3034
L 275 3507
L 2637 3507
L 2637 3034
L 928 480
z
" transform="scale(0.015625)"/>
      </defs>
      <use xlink:href="#Poppins-Regular-50"/>
      <use xlink:href="#Poppins-Regular-72" x="57.899994"/>
      <use xlink:href="#Poppins-Regular-6f" x="95.199982"/>
      <use xlink:href="#Poppins-Regular-64" x="159.199966"/>
      <use xlink:href="#Poppins-Regular-75" x="226.799957"/>
      <use xlink:href="#Poppins-Regular-63" x="290.799942"/>
      <use xlink:href="#Poppins-Regular-74" x="351.499939"/>
      <use xlink:href="#Poppins-Regular-20" x="387.899933"/>
      <use xlink:href="#Poppins-Regular-53" x="414.59993"/>
      <use xlink:href="#Poppins-Regular-69" x="473.299927"/>
      <use xlink:href="#Poppins-Regular-7a" x="497.899918"/>
      <use xlink:href="#Poppins-Regular-65" x="543.399902"/>
     </g>
    </g>
   </g>
   <g id="PolyCollection_1">
    <path d="M 93.160852 44.936625
L 93.160852 114.056625
L 107.589943 114.056625
L 107.589943 44.936625
z
" clip-path="url(#p39f9a6fc0a)" style="fill: #22c55e"/>
    <path d="M 114.804489 44.936625
L 114.804489 114.056625
L 122.019034 114.056625
L 122.019034 44.936625
z
" clip-path="url(#p39f9a6fc0a)" style="fill: #22c55e"/>
    <path d="M 129.23358 44.936625
L 129.23358 114.056625
L 136.448125 114.056625
L 136.448125 44.936625
z
" clip-path="url(#p39f9a6fc0a)" style="fill: #22c55e"/>
    <path d="M 143.66267 44.936625
L 143.66267 114.056625
L 158.091761 114.056625
L 158.091761 44.936625
z
" clip-path="url(#p39f9a6fc0a)" style="fill: #22c55e"/>
    <path d="M 165.306307 44.936625
L 165.306307 114.056625
L 194.164489 114.056625
L 194.164489 44.936625
z
" clip-path="url(#p39f9a6fc0a)" style="fill: #22c55e"/>
    <path d="M 201.379034 44.936625
L 201.379034 114.056625
L 215.808125 114.056625
L 215.808125 44.936625
z
" clip-path="url(#p39f9a6fc0a)" style="fill: #22c55e"/>
    <path d="M 223.02267 44.936625
L 223.02267 114.056625
L 295.168125 114.056625
L 295.168125 44.936625
z
" clip-path="url(#p39f9a6fc0a)" style="fill: #22c55e"/>
    <path d="M 309.597216 44.936625
L 309.597216 114.056625
L 331.240852 114.056625
L 331.240852 44.936625
z
" clip-path="url(#p39f9a6fc0a)" style="fill: #22c55e"/>
    <path d="M 338.455398 44.936625
L 338.455398 114.056625
L 360.099034 114.056625
L 360.099034 44.936625
z
" clip-path="url(#p39f9a6fc0a)" style="fill: #22c55e"/>
    <path d="M 381.74267 44.936625
L 381.74267 114.056625
L 396.171761 114.056625
L 396.171761 44.936625
z
" clip-path="url(#p39f9a6fc0a)" style="fill: #22c55e"/>
    <path d="M 403.386307 44.936625
L 403.386307 114.056625
L 417.815398 114.056625
L 417.815398 44.936625
z
" clip-path="url(#p39f9a6fc0a)" style="fill: #22c55e"/>
   </g>
   <g id="PolyCollection_2">
    <path d="M 100.375398 131.336625
L 100.375398 200.456625
L 136.448125 200.456625
L 136.448125 131.336625
z
" clip-path="url(#p39f9a6fc0a)" style="fill: #22c55e"/>
    <path d="M 143.66267 131.336625
L 143.66267 200.456625
L 158.091761 200.456625
L 158.091761 131.336625
z
" clip-path="url(#p39f9a6fc0a)" style="fill: #22c55e"/>
    <path d="M 165.306307 131.336625
L 165.306307 200.456625
L 179.735398 200.456625
L 179.735398 131.336625
z
" clip-path="url(#p39f9a6fc0a)" style="fill: #22c55e"/>
    <path d="M 194.164489 131.336625
L 194.164489 200.456625
L 237.451761 200.456625
L 237.451761 131.336625
z
" clip-path="url(#p39f9a6fc0a)" style="fill: #22c55e"/>
    <path d="M 244.666307 131.336625
L 244.666307 200.456625
L 287.95358 200.456625
L 287.95358 131.336625
z
" clip-path="url(#p39f9a6fc0a)" style="fill: #22c55e"/>
    <path d="M 295.168125 131.336625
L 295.168125 200.456625
L 352.884489 200.456625
L 352.884489 131.336625
z
" clip-path="url(#p39f9a6fc0a)" style="fill: #22c55e"/>
    <path d="M 367.31358 131.336625
L 367.31358 200.456625
L 381.74267 200.456625
L 381.74267 131.336625
z
" clip-path="url(#p39f9a6fc0a)" style="fill: #22c55e"/>
    <path d="M 388.957216 131.336625
L 388.957216 200.456625
L 396.171761 200.456625
L 396.171761 131.336625
z
" clip-path="url(#p39f9a6fc0a)" style="fill: #22c55e"/>
    <path d="M 410.600852 131.336625
L 410.600852 200.456625
L 417.815398 200.456625
L 417.815398 131.336625
z
" clip-path="url(#p39f9a6fc0a)" style="fill: #22c55e"/>
   </g>
   <g id="PolyCollection_3">
    <path d="M 100.375398 217.736625
L 100.375398 286.856625
L 114.804489 286.856625
L 114.804489 217.736625
z
" clip-path="url(#p39f9a6fc0a)" style="fill: #22c55e"/>
    <path d="M 129.23358 217.736625
L 129.23358 286.856625
L 143.66267 286.856625
L 143.66267 217.736625
z
" clip-path="url(#p39f9a6fc0a)" style="fill: #22c55e"/>
    <path d="M 172.520852 217.736625
L 172.520852 286.856625
L 186.949943 286.856625
L 186.949943 217.736625
z
" clip-path="url(#p39f9a6fc0a)" style="fill: #22c55e"/>
    <path d="M 194.164489 217.736625
L 194.164489 286.856625
L 215.808125 286.856625
L 215.808125 217.736625
z
" clip-path="url(#p39f9a6fc0a)" style="fill: #22c55e"/>
    <path d="M 244.666307 217.736625
L 244.666307 286.856625
L 280.739034 286.856625
L 280.739034 217.736625
z
" clip-path="url(#p39f9a6fc0a)" style="fill: #22c55e"/>
    <path d="M 295.168125 217.736625
L 295.168125 286.856625
L 302.38267 286.856625
L 302.38267 217.736625
z
" clip-path="url(#p39f9a6fc0a)" style="fill: #22c55e"/>
    <path d="M 316.811761 217.736625
L 316.811761 286.856625
L 360.099034 286.856625
L 360.099034 217.736625
z
" clip-path="url(#p39f9a6fc0a)" style="fill: #22c55e"/>
    <path d="M 367.31358 217.736625
L 367.31358 286.856625
L 388.957216 286.856625
L 388.957216 217.736625
z
" clip-path="url(#p39f9a6fc0a)" style="fill: #22c55e"/>
    <path d="M 396.171761 217.736625
L 396.171761 286.856625
L 417.815398 286.856625
L 417.815398 217.736625
z
" clip-path="url(#p39f9a6fc0a)" style="fill: #22c55e"/>
   </g>
   <g id="patch_3">
    <path d="M 76.928125 298.952625
L 76.928125 32.840625
" style="fill: none; stroke: #000000; stroke-width: 0.8; stroke-linejoin: miter; stroke-linecap: square"/>
   </g>
   <g id="patch_4">
    <path d="M 76.928125 298.952625
L 434.048125 298.952625
" style="fill: none; stroke: #000000; stroke-width: 0.8; stroke-linejoin: miter; stroke-linecap: square"/>
   </g>
   <g id="text_14">
    <!-- Availability by Product Size -->
    <g transform="translate(118.542813 22.840625) scale(0.2 -0.2)">
     <defs>
      <path id="Poppins-SemiBold-41" d="M 3181 851
L 1402 851
L 1107 0
L 166 0
L 1773 4474
L 2816 4474
L 4422 0
L 3475 0
L 3181 851
z
M 2938 1568
L 2291 3437
L 1645 1568
L 2938 1568
z
" transform="scale(0.015625)"/>
      <path id="Poppins-SemiBold-76" d="M 1920 826
L 2816 3546
L 3770 3546
L 2458 0
L 1370 0
L 64 3546
L 1024 3546
L 1920 826
z
" transform="scale(0.015625)"/>
      <path id="Poppins-SemiBold-61" d="M 211 1786
Q 211 2323 425 2739
Q 640 3155 1008 3379
Q 1376 3603 1830 3603
Q 2227 3603 2524 3443
Q 2822 3283 3002 3040
L 3002 3546
L 3904 3546
L 3904 0
L 3002 0
L 3002 518
Q 2829 269 2525 105
Q 2221 -58 1824 -58
Q 1376 -58 1008 172
Q 640 403 425 822
Q 211 1242 211 1786
z
M 3002 1773
Q 3002 2099 2874 2332
Q 2746 2566 2528 2691
Q 2310 2816 2061 2816
Q 1811 2816 1600 2694
Q 1389 2573 1257 2339
Q 1126 2106 1126 1786
Q 1126 1466 1257 1226
Q 1389 986 1603 858
Q 1818 730 2061 730
Q 2310 730 2528 854
Q 2746 979 2874 1212
Q 3002 1446 3002 1773
z
" transform="scale(0.015625)"/>
      <path id="Poppins-SemiBold-69" d="M 896 3968
Q 659 3968 502 4118
Q 346 4269 346 4493
Q 346 4717 502 4867
Q 659 5018 896 5018
Q 1133 5018 1289 4867
Q 1446 4717 1446 4493
Q 1446 4269 1289 4118
Q 1133 3968 896 3968
z
M 1338 3546
L 1338 0
L 442 0
L 442 3546
L 1338 3546
z
" transform="scale(0.015625)"/>
      <path id="Poppins-SemiBold-6c" d="M 1338 4736
L 1338 0
L 442 0
L 442 4736
L 1338 4736
z
" transform="scale(0.015625)"/>
      <path id="Poppins-SemiBold-62" d="M 1338 3027
Q 1510 3283 1814 3443
Q 2118 3603 2509 3603
Q 2963 3603 3331 3379
Q 3699 3155 3913 2742
Q 4128 2330 4128 1786
Q 4128 1242 3913 822
Q 3699 403 3331 172
Q 2963 -58 2509 -58
Q 2112 -58 1814 99
Q 1517 256 1338 506
L 1338 0
L 442 0
L 442 4736
L 1338 4736
L 1338 3027
z
M 3213 1786
Q 3213 2106 3081 2339
Q 2950 2573 2736 2694
Q 2522 2816 2272 2816
Q 2029 2816 1814 2691
Q 1600 2566 1469 2329
Q 1338 2093 1338 1773
Q 1338 1453 1469 1216
Q 1600 979 1814 854
Q 2029 730 2272 730
Q 2522 730 2736 858
Q 2950 986 3081 1222
Q 3213 1459 3213 1786
z
" transform="scale(0.015625)"/>
      <path id="Poppins-SemiBold-74" d="M 1485 2810
L 1485 1094
Q 1485 915 1571 835
Q 1658 755 1862 755
L 2278 755
L 2278 0
L 1715 0
Q 582 0 582 1101
L 582 2810
L 160 2810
L 160 3546
L 582 3546
L 582 4422
L 1485 4422
L 1485 3546
L 2278 3546
L 2278 2810
L 1485 2810
z
" transform="scale(0.015625)"/>
      <path id="Poppins-SemiBold-79" d="M 3834 3546
L 1638 -1677
L 685 -1677
L 1453 90
L 32 3546
L 1037 3546
L 1952 1069
L 2880 3546
L 3834 3546
z
" transform="scale(0.015625)"/>
      <path id="Poppins-SemiBold-20" transform="scale(0.015625)"/>
      <path id="Poppins-SemiBold-50" d="M 3699 3085
Q 3699 2726 3529 2412
Q 3360 2099 2998 1907
Q 2637 1715 2086 1715
L 1338 1715
L 1338 0
L 442 0
L 442 4467
L 2086 4467
Q 2605 4467 2969 4288
Q 3334 4109 3516 3795
Q 3699 3482 3699 3085
z
M 2048 2438
Q 2419 2438 2598 2608
Q 2778 2778 2778 3085
Q 2778 3738 2048 3738
L 1338 3738
L 1338 2438
L 2048 2438
z
" transform="scale(0.015625)"/>
      <path id="Poppins-SemiBold-72" d="M 1338 2995
Q 1510 3277 1788 3437
Q 2067 3597 2426 3597
L 2426 2656
L 2189 2656
Q 1766 2656 1552 2457
Q 1338 2259 1338 1766
L 1338 0
L 442 0
L 442 3546
L 1338 3546
L 1338 2995
z
" transform="scale(0.015625)"/>
      <path id="Poppins-SemiBold-6f" d="M 2016 -58
Q 1504 -58 1094 169
Q 685 397 451 813
Q 218 1229 218 1773
Q 218 2317 458 2733
Q 698 3149 1114 3376
Q 1530 3603 2042 3603
Q 2554 3603 2970 3376
Q 3386 3149 3626 2733
Q 3866 2317 3866 1773
Q 3866 1229 3619 813
Q 3373 397 2953 169
Q 2534 -58 2016 -58
z
M 2016 723
Q 2259 723 2473 841
Q 2688 960 2816 1197
Q 2944 1434 2944 1773
Q 2944 2278 2678 2550
Q 2413 2822 2029 2822
Q 1645 2822 1385 2550
Q 1126 2278 1126 1773
Q 1126 1267 1379 995
Q 1632 723 2016 723
z
" transform="scale(0.015625)"/>
      <path id="Poppins-SemiBold-64" d="M 211 1786
Q 211 2323 425 2739
Q 640 3155 1011 3379
Q 1382 3603 1837 3603
Q 2182 3603 2496 3452
Q 2810 3302 2995 3053
L 2995 4736
L 3904 4736
L 3904 0
L 2995 0
L 2995 525
Q 2829 262 2528 102
Q 2227 -58 1830 -58
Q 1382 -58 1011 172
Q 640 403 425 822
Q 211 1242 211 1786
z
M 3002 1773
Q 3002 2099 2874 2332
Q 2746 2566 2528 2691
Q 2310 2816 2061 2816
Q 1811 2816 1600 2694
Q 1389 2573 1257 2339
Q 1126 2106 1126 1786
Q 1126 1466 1257 1226
Q 1389 986 1603 858
Q 1818 730 2061 730
Q 2310 730 2528 854
Q 2746 979 2874 1212
Q 3002 1446 3002 1773
z
" transform="scale(0.015625)"/>
      <path id="Poppins-SemiBold-75" d="M 3789 3546
L 3789 0
L 2886 0
L 2886 448
Q 2714 218 2435 86
Q 2157 -45 1830 -45
Q 1414 -45 1094 131
Q 774 307 592 649
Q 410 992 410 1466
L 410 3546
L 1306 3546
L 1306 1594
Q 1306 1171 1517 944
Q 1728 717 2093 717
Q 2464 717 2675 944
Q 2886 1171 2886 1594
L 2886 3546
L 3789 3546
z
" transform="scale(0.015625)"/>
      <path id="Poppins-SemiBold-63" d="M 211 1773
Q 211 2323 435 2736
Q 659 3149 1056 3376
Q 1453 3603 1965 3603
Q 2624 3603 3056 3273
Q 3488 2944 3635 2349
L 2669 2349
Q 2592 2579 2409 2710
Q 2227 2842 1958 2842
Q 1574 2842 1350 2563
Q 1126 2285 1126 1773
Q 1126 1267 1350 988
Q 1574 710 1958 710
Q 2502 710 2669 1197
L 3635 1197
Q 3488 621 3053 281
Q 2618 -58 1965 -58
Q 1453 -58 1056 169
Q 659 397 435 809
Q 211 1222 211 1773
z
" transform="scale(0.015625)"/>
      <path id="Poppins-SemiBold-53" d="M 1984 -45
Q 1517 -45 1142 115
Q 768 275 550 576
Q 333 877 326 1286
L 1286 1286
Q 1306 1011 1482 851
Q 1658 691 1965 691
Q 2278 691 2457 841
Q 2637 992 2637 1235
Q 2637 1434 2515 1562
Q 2394 1690 2211 1763
Q 2029 1837 1709 1926
Q 1274 2054 1002 2179
Q 730 2304 534 2557
Q 339 2810 339 3232
Q 339 3629 537 3923
Q 736 4218 1094 4374
Q 1453 4531 1914 4531
Q 2605 4531 3037 4195
Q 3469 3859 3514 3258
L 2528 3258
Q 2515 3488 2332 3638
Q 2150 3789 1850 3789
Q 1587 3789 1430 3654
Q 1274 3520 1274 3264
Q 1274 3085 1392 2966
Q 1510 2848 1686 2774
Q 1862 2701 2182 2605
Q 2618 2477 2893 2349
Q 3168 2221 3366 1965
Q 3565 1709 3565 1293
Q 3565 934 3379 627
Q 3194 320 2835 137
Q 2477 -45 1984 -45
z
" transform="scale(0.015625)"/>
      <path id="Poppins-SemiBold-7a" d="M 1261 736
L 2842 736
L 2842 0
L 243 0
L 243 723
L 1792 2810
L 250 2810
L 250 3546
L 2822 3546
L 2822 2822
L 1261 736
z
" transform="scale(0.015625)"/>
      <path id="Poppins-SemiBold-65" d="M 3738 1850
Q 3738 1658 3712 1504
L 1120 1504
Q 1152 1120 1389 902
Q 1626 685 1971 685
Q 2470 685 2682 1114
L 3648 1114
Q 3494 602 3059 272
Q 2624 -58 1990 -58
Q 1478 -58 1072 169
Q 666 397 438 813
Q 211 1229 211 1773
Q 211 2323 435 2739
Q 659 3155 1062 3379
Q 1466 3603 1990 3603
Q 2496 3603 2896 3385
Q 3296 3168 3517 2768
Q 3738 2368 3738 1850
z
M 2810 2106
Q 2803 2451 2560 2659
Q 2317 2867 1965 2867
Q 1632 2867 1405 2665
Q 1178 2464 1126 2106
L 2810 2106
z
" transform="scale(0.015625)"/>
     </defs>
     <use xlink:href="#Poppins-SemiBold-41"/>
     <use xlink:href="#Poppins-SemiBold-76" x="71.599991"/>
     <use xlink:href="#Poppins-SemiBold-61" x="131.499985"/>
     <use xlink:href="#Poppins-SemiBold-69" x="199.299973"/>
     <use xlink:href="#Poppins-SemiBold-6c" x="227.09996"/>
     <use xlink:href="#Poppins-SemiBold-61" x="254.899948"/>
     <use xlink:href="#Poppins-SemiBold-62" x="322.699936"/>
     <use xlink:href="#Poppins-SemiBold-69" x="390.499924"/>
     <use xlink:href="#Poppins-SemiBold-6c" x="418.299911"/>
     <use xlink:href="#Poppins-SemiBold-69" x="446.099899"/>
     <use xlink:href="#Poppins-SemiBold-74" x="473.899887"/>
     <use xlink:href="#Poppins-SemiBold-79" x="512.699875"/>
     <use xlink:href="#Poppins-SemiBold-20" x="573.19986"/>
     <use xlink:href="#Poppins-SemiBold-62" x="596.999847"/>
     <use xlink:href="#Poppins-SemiBold-79" x="664.799835"/>
     <use xlink:href="#Poppins-SemiBold-20" x="725.29982"/>
     <use xlink:href="#Poppins-SemiBold-50" x="749.099808"/>
     <use xlink:href="#Poppins-SemiBold-72" x="809.899796"/>
     <use xlink:href="#Poppins-SemiBold-6f" x="850.299789"/>
     <use xlink:href="#Poppins-SemiBold-64" x="914.099777"/>
     <use xlink:href="#Poppins-SemiBold-75" x="981.899765"/>
     <use xlink:href="#Poppins-SemiBold-63" x="1047.999756"/>
     <use xlink:href="#Poppins-SemiBold-74" x="1108.199753"/>
     <use xlink:href="#Poppins-SemiBold-20" x="1146.999741"/>
     <use xlink:href="#Poppins-SemiBold-53" x="1170.799728"/>
     <use xlink:href="#Poppins-SemiBold-69" x="1231.699722"/>
     <use xlink:href="#Poppins-SemiBold-7a" x="1259.49971"/>
     <use xlink:href="#Poppins-SemiBold-65" x="1307.799698"/>
    </g>
   </g>
  </g>
  <g id="text_15">
   <!-- Source: PyRetailScience -->
   <g style="fill: #696969" transform="translate(8.448125 363.772937) scale(0.1 -0.1)">
    <defs>
     <path id="Poppins-LightItalic-53" d="M 1619 -45
Q 1216 -45 912 89
Q 608 224 441 467
Q 275 710 275 1024
Q 275 1107 282 1152
L 723 1152
Q 710 947 796 758
Q 883 570 1097 445
Q 1312 320 1651 320
Q 2125 320 2406 557
Q 2688 794 2688 1197
Q 2688 1440 2557 1603
Q 2426 1766 2234 1872
Q 2042 1978 1709 2112
Q 1318 2266 1088 2397
Q 858 2528 707 2758
Q 557 2989 582 3347
Q 595 3693 790 3958
Q 986 4224 1322 4374
Q 1658 4525 2086 4525
Q 2509 4525 2813 4381
Q 3117 4237 3267 3987
Q 3418 3738 3398 3437
L 2931 3437
Q 2944 3610 2851 3776
Q 2758 3942 2556 4048
Q 2355 4154 2061 4154
Q 1606 4154 1318 3933
Q 1030 3712 1030 3334
Q 1030 3110 1158 2956
Q 1286 2803 1472 2700
Q 1658 2598 1984 2464
Q 2362 2310 2595 2176
Q 2829 2042 2992 1818
Q 3155 1594 3155 1254
Q 3155 1171 3149 1126
Q 3123 800 2931 531
Q 2739 262 2403 108
Q 2067 -45 1619 -45
z
" transform="scale(0.015625)"/>
     <path id="Poppins-LightItalic-6f" d="M 1728 -51
Q 1293 -51 960 125
Q 627 301 444 624
Q 262 947 262 1382
Q 262 1971 531 2467
Q 800 2963 1280 3254
Q 1760 3546 2349 3546
Q 2784 3546 3117 3370
Q 3450 3194 3635 2870
Q 3821 2547 3821 2112
Q 3821 1517 3545 1024
Q 3270 531 2793 240
Q 2317 -51 1728 -51
z
M 1779 326
Q 2234 326 2595 569
Q 2957 813 3158 1216
Q 3360 1619 3360 2086
Q 3360 2611 3056 2886
Q 2752 3162 2285 3162
Q 1830 3162 1475 2918
Q 1120 2675 921 2272
Q 723 1869 723 1402
Q 723 883 1024 604
Q 1325 326 1779 326
z
" transform="scale(0.015625)"/>
     <path id="Poppins-LightItalic-75" d="M 3834 3494
L 3219 0
L 2771 0
L 2880 614
Q 2662 288 2316 115
Q 1971 -58 1574 -58
Q 1037 -58 710 233
Q 384 525 384 1082
Q 384 1286 416 1453
L 774 3494
L 1216 3494
L 864 1504
Q 838 1357 838 1197
Q 838 774 1072 553
Q 1306 333 1722 333
Q 2208 333 2560 630
Q 2912 928 3034 1504
L 3386 3494
L 3834 3494
z
" transform="scale(0.015625)"/>
     <path id="Poppins-LightItalic-72" d="M 1133 2797
Q 1344 3162 1683 3360
Q 2022 3558 2470 3558
L 2387 3091
L 2259 3091
Q 1798 3091 1465 2854
Q 1133 2618 1005 2074
L 640 0
L 192 0
L 806 3494
L 1254 3494
L 1133 2797
z
" transform="scale(0.015625)"/>
     <path id="Poppins-LightItalic-63" d="M 294 1747
Q 390 2291 681 2697
Q 973 3104 1395 3325
Q 1818 3546 2310 3546
Q 2957 3546 3318 3226
Q 3680 2906 3706 2355
L 3226 2355
Q 3206 2733 2947 2947
Q 2688 3162 2246 3162
Q 1702 3162 1289 2794
Q 877 2426 755 1747
Q 723 1587 723 1382
Q 723 870 1001 598
Q 1280 326 1741 326
Q 2189 326 2521 540
Q 2854 755 3014 1139
L 3494 1139
Q 3277 602 2797 275
Q 2317 -51 1677 -51
Q 1030 -51 643 320
Q 256 691 256 1338
Q 256 1536 294 1747
z
" transform="scale(0.015625)"/>
     <path id="Poppins-LightItalic-65" d="M 2330 3546
Q 2771 3546 3084 3376
Q 3398 3206 3561 2912
Q 3725 2618 3725 2240
Q 3725 2067 3699 1933
Q 3661 1741 3622 1587
L 723 1587
Q 704 1466 704 1357
Q 704 864 1001 595
Q 1299 326 1760 326
Q 2202 326 2534 537
Q 2867 749 3021 1107
L 3501 1107
Q 3283 595 2806 272
Q 2330 -51 1696 -51
Q 1043 -51 649 323
Q 256 698 256 1344
Q 256 1536 294 1747
Q 390 2291 681 2700
Q 973 3110 1401 3328
Q 1830 3546 2330 3546
z
M 3238 1920
Q 3270 2099 3270 2221
Q 3270 2675 2982 2918
Q 2694 3162 2246 3162
Q 1920 3162 1619 3021
Q 1318 2880 1094 2598
Q 870 2317 787 1920
L 3238 1920
z
" transform="scale(0.015625)"/>
     <path id="Poppins-LightItalic-3a" d="M 262 -32
Q 141 -32 64 45
Q -13 122 -13 243
Q -13 397 105 512
Q 224 627 378 627
Q 499 627 576 553
Q 653 480 653 358
Q 653 205 534 86
Q 416 -32 262 -32
z
M 262 2784
Q 141 2784 64 2861
Q -13 2938 -13 3059
Q -13 3213 105 3328
Q 224 3443 378 3443
Q 499 3443 576 3369
Q 653 3296 653 3174
Q 653 3021 534 2902
Q 416 2784 262 2784
z
" transform="scale(0.015625)"/>
     <path id="Poppins-LightItalic-20" transform="scale(0.015625)"/>
     <path id="Poppins-LightItalic-50" d="M 3616 3187
Q 3514 2611 3072 2259
Q 2630 1907 1875 1907
L 973 1907
L 640 0
L 192 0
L 979 4474
L 2330 4474
Q 2989 4474 3315 4198
Q 3642 3923 3642 3456
Q 3642 3309 3616 3187
z
M 1946 2278
Q 2995 2278 3155 3187
Q 3181 3354 3181 3424
Q 3181 4115 2266 4115
L 1363 4115
L 1043 2278
L 1946 2278
z
" transform="scale(0.015625)"/>
     <path id="Poppins-LightItalic-79" d="M 890 3494
L 1549 531
L 3219 3494
L 3686 3494
L 710 -1645
L 237 -1645
L 1210 26
L 390 3494
L 890 3494
z
" transform="scale(0.015625)"/>
     <path id="Poppins-LightItalic-52" d="M 2330 4474
Q 2989 4474 3318 4192
Q 3648 3910 3648 3437
Q 3648 3354 3622 3174
Q 3539 2688 3200 2345
Q 2861 2003 2298 1901
L 3110 0
L 2573 0
L 1798 1869
L 966 1869
L 640 0
L 192 0
L 979 4474
L 2330 4474
z
M 3155 3174
Q 3174 3302 3174 3405
Q 3174 3744 2950 3929
Q 2726 4115 2259 4115
L 1363 4115
L 1030 2227
L 1933 2227
Q 2464 2227 2771 2483
Q 3078 2739 3155 3174
z
" transform="scale(0.015625)"/>
     <path id="Poppins-LightItalic-74" d="M 934 947
Q 915 832 915 749
Q 915 544 1027 464
Q 1139 384 1395 384
L 1805 384
L 1734 0
L 1254 0
Q 858 0 659 153
Q 461 307 461 659
Q 461 800 486 947
L 870 3117
L 384 3117
L 454 3494
L 941 3494
L 1094 4371
L 1542 4371
L 1389 3494
L 2355 3494
L 2285 3117
L 1318 3117
L 934 947
z
" transform="scale(0.015625)"/>
     <path id="Poppins-LightItalic-61" d="M 294 1754
Q 390 2291 678 2697
Q 966 3104 1385 3325
Q 1805 3546 2285 3546
Q 2784 3546 3104 3315
Q 3424 3085 3520 2726
L 3654 3494
L 4102 3494
L 3488 0
L 3040 0
L 3174 774
Q 2957 416 2550 182
Q 2144 -51 1645 -51
Q 1229 -51 915 121
Q 602 294 429 611
Q 256 928 256 1357
Q 256 1542 294 1754
z
M 3347 1747
Q 3379 1926 3379 2067
Q 3379 2566 3078 2860
Q 2778 3155 2298 3155
Q 1926 3155 1603 2988
Q 1280 2822 1056 2505
Q 832 2189 755 1754
Q 723 1562 723 1427
Q 723 922 1020 630
Q 1318 339 1798 339
Q 2157 339 2486 512
Q 2816 685 3043 1005
Q 3270 1325 3347 1747
z
" transform="scale(0.015625)"/>
     <path id="Poppins-LightItalic-69" d="M 1152 4154
Q 1030 4154 953 4227
Q 877 4301 877 4422
Q 877 4589 992 4701
Q 1107 4813 1267 4813
Q 1389 4813 1462 4742
Q 1536 4672 1536 4557
Q 1536 4390 1421 4272
Q 1306 4154 1152 4154
z
M 1254 3494
L 640 0
L 192 0
L 806 3494
L 1254 3494
z
" transform="scale(0.015625)"/>
     <path id="Poppins-LightItalic-6c" d="M 1478 4736
L 640 0
L 192 0
L 1030 4736
L 1478 4736
z
" transform="scale(0.015625)"/>
     <path id="Poppins-LightItalic-6e" d="M 2464 3558
Q 3002 3558 3325 3267
Q 3648 2976 3648 2419
Q 3648 2214 3616 2048
L 3251 0
L 2810 0
L 3162 1997
Q 3187 2144 3187 2310
Q 3187 2733 2956 2950
Q 2726 3168 2310 3168
Q 1805 3168 1446 2848
Q 1088 2528 979 1907
L 979 1926
L 640 0
L 192 0
L 806 3494
L 1254 3494
L 1146 2893
Q 1370 3213 1715 3385
Q 2061 3558 2464 3558
z
" transform="scale(0.015625)"/>
    </defs>
    <use xlink:href="#Poppins-LightItalic-53"/>
    <use xlink:href="#Poppins-LightItalic-6f" x="56.599991"/>
    <use xlink:href="#Poppins-LightItalic-75" x="120.799988"/>
    <use xlink:href="#Poppins-LightItalic-72" x="184.099976"/>
    <use xlink:href="#Poppins-LightItalic-63" x="220.299973"/>
    <use xlink:href="#Poppins-LightItalic-65" x="281.59996"/>
    <use xlink:href="#Poppins-LightItalic-3a" x="343.799957"/>
    <use xlink:href="#Poppins-LightItalic-20" x="362.299942"/>
    <use xlink:href="#Poppins-LightItalic-50" x="391.799927"/>
    <use xlink:href="#Poppins-LightItalic-79" x="448.199921"/>
    <use xlink:href="#Poppins-LightItalic-52" x="502.699905"/>
    <use xlink:href="#Poppins-LightItalic-65" x="561.399902"/>
    <use xlink:href="#Poppins-LightItalic-74" x="623.599899"/>
    <use xlink:href="#Poppins-LightItalic-61" x="659.19989"/>
    <use xlink:href="#Poppins-LightItalic-69" x="726.699875"/>
    <use xlink:href="#Poppins-LightItalic-6c" x="749.599869"/>
    <use xlink:href="#Poppins-LightItalic-53" x="772.499863"/>
    <use xlink:href="#Poppins-LightItalic-63" x="829.099854"/>
    <use xlink:href="#Poppins-LightItalic-69" x="890.399841"/>
    <use xlink:href="#Poppins-LightItalic-65" x="913.299835"/>
    <use xlink:href="#Poppins-LightItalic-6e" x="975.499832"/>
    <use xlink:href="#Poppins-LightItalic-63" x="1038.79982"/>
    <use xlink:href="#Poppins-LightItalic-65" x="1100.099808"/>
   </g>
  </g>
 </g>
 <defs>
  <clipPath id="p39f9a6fc0a">
   <rect x="76.928125" y="32.840625" width="357.12" height="266.112"/>
  </clipPath>
 </defs>
</svg>
