<?xml version="1.0" encoding="utf-8" standalone="no"?>
<!DOCTYPE svg PUBLIC "-//W3C//DTD SVG 1.1//EN"
  "http://www.w3.org/Graphics/SVG/1.1/DTD/svg11.dtd">
<svg xmlns:xlink="http://www.w3.org/1999/xlink" width="548.870137pt" height="361.392625pt" viewBox="0 0 548.870137 361.392625" xmlns="http://www.w3.org/2000/svg" version="1.1">
 <metadata>
  <rdf:RDF xmlns:dc="http://purl.org/dc/elements/1.1/" xmlns:cc="http://creativecommons.org/ns#" xmlns:rdf="http://www.w3.org/1999/02/22-rdf-syntax-ns#">
   <cc:Work>
    <dc:type rdf:resource="http://purl.org/dc/dcmitype/StillImage"/>
    <dc:date>2025-09-17T11:54:30.073010</dc:date>
    <dc:format>image/svg+xml</dc:format>
    <dc:creator>
     <cc:Agent>
      <dc:title>Matplotlib v3.10.1, https://matplotlib.org/</dc:title>
     </cc:Agent>
    </dc:creator>
   </cc:Work>
  </rdf:RDF>
 </metadata>
 <defs>
  <style type="text/css">*{stroke-linejoin: round; stroke-linecap: butt}</style>
 </defs>
 <g id="figure_1">
  <g id="patch_1">
   <path d="M -0 361.392625
L 548.870137 361.392625
L 548.870137 0
L -0 0
z
" style="fill: #ffffff"/>
  </g>
  <g id="axes_1">
   <g id="patch_2">
    <path d="M 73.450387 294.952625
L 430.570387 294.952625
L 430.570387 28.840625
L 73.450387 28.840625
z
" style="fill: #ffffff"/>
   </g>
   <g id="matplotlib.axis_1">
    <g id="xtick_1">
     <g id="line2d_1">
      <path d="M 89.683114 294.952625
L 89.683114 28.840625
" clip-path="url(#p6563ffe064)" style="fill: none; stroke: #dad8d7; stroke-opacity: 0.5; stroke-width: 0.8; stroke-linecap: square"/>
     </g>
     <g id="line2d_2">
      <defs>
       <path id="m6e2cbde6e0" d="M 0 0
L 0 3.5
" style="stroke: #000000; stroke-width: 0.8"/>
      </defs>
      <g>
       <use xlink:href="#m6e2cbde6e0" x="89.683114" y="294.952625" style="stroke: #000000; stroke-width: 0.8"/>
      </g>
     </g>
     <g id="text_1">
      <!-- CVS -->
      <g transform="translate(79.508114 309.352625) scale(0.1 -0.1)">
       <defs>
        <path id="Poppins-Regular-43" d="M 275 2234
Q 275 2886 569 3408
Q 864 3930 1373 4224
Q 1882 4518 2502 4518
Q 3232 4518 3776 4166
Q 4320 3814 4570 3168
L 3872 3168
Q 3686 3571 3337 3788
Q 2989 4006 2502 4006
Q 2035 4006 1664 3788
Q 1293 3571 1081 3171
Q 870 2771 870 2234
Q 870 1702 1081 1302
Q 1293 902 1664 684
Q 2035 467 2502 467
Q 2989 467 3337 681
Q 3686 896 3872 1299
L 4570 1299
Q 4320 659 3776 310
Q 3232 -38 2502 -38
Q 1882 -38 1373 253
Q 864 544 569 1062
Q 275 1581 275 2234
z
" transform="scale(0.015625)"/>
        <path id="Poppins-Regular-56" d="M 4179 4461
L 2496 0
L 1824 0
L 141 4461
L 762 4461
L 2163 614
L 3565 4461
L 4179 4461
z
" transform="scale(0.015625)"/>
        <path id="Poppins-Regular-53" d="M 1907 -45
Q 1466 -45 1117 112
Q 768 269 569 547
Q 371 826 365 1190
L 986 1190
Q 1018 877 1245 662
Q 1472 448 1907 448
Q 2323 448 2563 656
Q 2803 864 2803 1190
Q 2803 1446 2662 1606
Q 2522 1766 2310 1849
Q 2099 1933 1741 2029
Q 1299 2144 1033 2259
Q 768 2374 579 2620
Q 390 2867 390 3283
Q 390 3648 576 3929
Q 762 4211 1098 4364
Q 1434 4518 1869 4518
Q 2496 4518 2896 4204
Q 3296 3891 3347 3373
L 2707 3373
Q 2675 3629 2438 3824
Q 2202 4019 1811 4019
Q 1446 4019 1216 3830
Q 986 3642 986 3302
Q 986 3059 1123 2905
Q 1261 2752 1462 2672
Q 1664 2592 2029 2490
Q 2470 2368 2739 2249
Q 3008 2131 3200 1884
Q 3392 1638 3392 1216
Q 3392 890 3219 602
Q 3046 314 2707 134
Q 2368 -45 1907 -45
z
" transform="scale(0.015625)"/>
       </defs>
       <use xlink:href="#Poppins-Regular-43"/>
       <use xlink:href="#Poppins-Regular-56" transform="translate(77.199982 0)"/>
       <use xlink:href="#Poppins-Regular-53" transform="translate(144.799973 0)"/>
      </g>
     </g>
    </g>
    <g id="xtick_2">
     <g id="line2d_3">
      <path d="M 197.901296 294.952625
L 197.901296 28.840625
" clip-path="url(#p6563ffe064)" style="fill: none; stroke: #dad8d7; stroke-opacity: 0.5; stroke-width: 0.8; stroke-linecap: square"/>
     </g>
     <g id="line2d_4">
      <g>
       <use xlink:href="#m6e2cbde6e0" x="197.901296" y="294.952625" style="stroke: #000000; stroke-width: 0.8"/>
      </g>
     </g>
     <g id="text_2">
      <!-- Target -->
      <g transform="translate(181.652077 309.252625) scale(0.1 -0.1)">
       <defs>
        <path id="Poppins-Regular-54" d="M 3238 4461
L 3238 3987
L 2022 3987
L 2022 0
L 1440 0
L 1440 3987
L 218 3987
L 218 4461
L 3238 4461
z
" transform="scale(0.015625)"/>
        <path id="Poppins-Regular-61" d="M 275 1766
Q 275 2304 492 2710
Q 710 3117 1091 3341
Q 1472 3565 1939 3565
Q 2400 3565 2739 3366
Q 3078 3168 3245 2867
L 3245 3507
L 3834 3507
L 3834 0
L 3245 0
L 3245 653
Q 3072 346 2729 144
Q 2387 -58 1933 -58
Q 1466 -58 1088 172
Q 710 403 492 819
Q 275 1235 275 1766
z
M 3245 1760
Q 3245 2157 3085 2451
Q 2925 2746 2653 2902
Q 2381 3059 2054 3059
Q 1728 3059 1459 2905
Q 1190 2752 1030 2457
Q 870 2163 870 1766
Q 870 1363 1030 1065
Q 1190 768 1459 611
Q 1728 454 2054 454
Q 2381 454 2653 611
Q 2925 768 3085 1065
Q 3245 1363 3245 1760
z
" transform="scale(0.015625)"/>
        <path id="Poppins-Regular-72" d="M 1075 2938
Q 1229 3238 1513 3404
Q 1798 3571 2208 3571
L 2208 2970
L 2054 2970
Q 1075 2970 1075 1907
L 1075 0
L 493 0
L 493 3507
L 1075 3507
L 1075 2938
z
" transform="scale(0.015625)"/>
        <path id="Poppins-Regular-67" d="M 1939 3565
Q 2394 3565 2736 3366
Q 3078 3168 3245 2867
L 3245 3507
L 3834 3507
L 3834 -77
Q 3834 -557 3629 -931
Q 3424 -1306 3043 -1517
Q 2662 -1728 2157 -1728
Q 1466 -1728 1005 -1401
Q 544 -1075 461 -512
L 1037 -512
Q 1133 -832 1433 -1027
Q 1734 -1222 2157 -1222
Q 2637 -1222 2941 -921
Q 3245 -621 3245 -77
L 3245 659
Q 3072 352 2733 147
Q 2394 -58 1939 -58
Q 1472 -58 1091 172
Q 710 403 492 819
Q 275 1235 275 1766
Q 275 2304 492 2710
Q 710 3117 1091 3341
Q 1472 3565 1939 3565
z
M 3245 1760
Q 3245 2157 3085 2451
Q 2925 2746 2653 2902
Q 2381 3059 2054 3059
Q 1728 3059 1459 2905
Q 1190 2752 1030 2457
Q 870 2163 870 1766
Q 870 1363 1030 1065
Q 1190 768 1459 611
Q 1728 454 2054 454
Q 2381 454 2653 611
Q 2925 768 3085 1065
Q 3245 1363 3245 1760
z
" transform="scale(0.015625)"/>
        <path id="Poppins-Regular-65" d="M 3693 1888
Q 3693 1722 3674 1536
L 870 1536
Q 902 1018 1225 726
Q 1549 435 2010 435
Q 2387 435 2640 611
Q 2893 787 2995 1082
L 3622 1082
Q 3482 576 3059 259
Q 2637 -58 2010 -58
Q 1510 -58 1116 166
Q 723 390 499 803
Q 275 1216 275 1760
Q 275 2304 492 2713
Q 710 3123 1104 3344
Q 1498 3565 2010 3565
Q 2509 3565 2893 3347
Q 3277 3130 3485 2749
Q 3693 2368 3693 1888
z
M 3091 2010
Q 3091 2342 2944 2582
Q 2797 2822 2544 2947
Q 2291 3072 1984 3072
Q 1542 3072 1232 2790
Q 922 2509 877 2010
L 3091 2010
z
" transform="scale(0.015625)"/>
        <path id="Poppins-Regular-74" d="M 1203 3027
L 1203 960
Q 1203 704 1312 598
Q 1421 493 1690 493
L 2118 493
L 2118 0
L 1594 0
Q 1107 0 864 224
Q 621 448 621 960
L 621 3027
L 166 3027
L 166 3507
L 621 3507
L 621 4390
L 1203 4390
L 1203 3507
L 2118 3507
L 2118 3027
L 1203 3027
z
" transform="scale(0.015625)"/>
       </defs>
       <use xlink:href="#Poppins-Regular-54"/>
       <use xlink:href="#Poppins-Regular-61" transform="translate(54.099991 0)"/>
       <use xlink:href="#Poppins-Regular-72" transform="translate(121.699982 0)"/>
       <use xlink:href="#Poppins-Regular-67" transform="translate(158.999969 0)"/>
       <use xlink:href="#Poppins-Regular-65" transform="translate(226.59996 0)"/>
       <use xlink:href="#Poppins-Regular-74" transform="translate(288.599945 0)"/>
      </g>
     </g>
    </g>
    <g id="xtick_3">
     <g id="line2d_5">
      <path d="M 306.119478 294.952625
L 306.119478 28.840625
" clip-path="url(#p6563ffe064)" style="fill: none; stroke: #dad8d7; stroke-opacity: 0.5; stroke-width: 0.8; stroke-linecap: square"/>
     </g>
     <g id="line2d_6">
      <g>
       <use xlink:href="#m6e2cbde6e0" x="306.119478" y="294.952625" style="stroke: #000000; stroke-width: 0.8"/>
      </g>
     </g>
     <g id="text_3">
      <!-- Walgreens -->
      <g transform="translate(279.375728 309.352625) scale(0.1 -0.1)">
       <defs>
        <path id="Poppins-Regular-57" d="M 6099 4461
L 4806 0
L 4154 0
L 3117 3590
L 2042 0
L 1395 -6
L 147 4461
L 768 4461
L 1741 678
L 2816 4461
L 3469 4461
L 4493 691
L 5472 4461
L 6099 4461
z
" transform="scale(0.015625)"/>
        <path id="Poppins-Regular-6c" d="M 1075 4736
L 1075 0
L 493 0
L 493 4736
L 1075 4736
z
" transform="scale(0.015625)"/>
        <path id="Poppins-Regular-6e" d="M 2202 3571
Q 2842 3571 3238 3184
Q 3635 2797 3635 2067
L 3635 0
L 3059 0
L 3059 1984
Q 3059 2509 2796 2787
Q 2534 3066 2080 3066
Q 1619 3066 1347 2778
Q 1075 2490 1075 1939
L 1075 0
L 493 0
L 493 3507
L 1075 3507
L 1075 3008
Q 1248 3277 1545 3424
Q 1843 3571 2202 3571
z
" transform="scale(0.015625)"/>
        <path id="Poppins-Regular-73" d="M 1734 -58
Q 1331 -58 1011 80
Q 691 218 505 464
Q 320 710 301 1030
L 902 1030
Q 928 768 1149 601
Q 1370 435 1728 435
Q 2061 435 2253 582
Q 2445 730 2445 954
Q 2445 1184 2240 1296
Q 2035 1408 1606 1517
Q 1216 1619 969 1724
Q 723 1830 547 2038
Q 371 2246 371 2586
Q 371 2854 531 3078
Q 691 3302 985 3433
Q 1280 3565 1658 3565
Q 2240 3565 2598 3270
Q 2957 2976 2982 2464
L 2400 2464
Q 2381 2739 2179 2905
Q 1978 3072 1638 3072
Q 1325 3072 1139 2937
Q 954 2803 954 2586
Q 954 2413 1066 2301
Q 1178 2189 1347 2121
Q 1517 2054 1818 1971
Q 2195 1869 2432 1769
Q 2669 1670 2838 1472
Q 3008 1274 3014 954
Q 3014 666 2854 435
Q 2694 205 2403 73
Q 2112 -58 1734 -58
z
" transform="scale(0.015625)"/>
       </defs>
       <use xlink:href="#Poppins-Regular-57"/>
       <use xlink:href="#Poppins-Regular-61" transform="translate(97.599991 0)"/>
       <use xlink:href="#Poppins-Regular-6c" transform="translate(165.199982 0)"/>
       <use xlink:href="#Poppins-Regular-67" transform="translate(189.799973 0)"/>
       <use xlink:href="#Poppins-Regular-72" transform="translate(257.399963 0)"/>
       <use xlink:href="#Poppins-Regular-65" transform="translate(294.699951 0)"/>
       <use xlink:href="#Poppins-Regular-65" transform="translate(356.699936 0)"/>
       <use xlink:href="#Poppins-Regular-6e" transform="translate(418.699921 0)"/>
       <use xlink:href="#Poppins-Regular-73" transform="translate(482.699905 0)"/>
      </g>
     </g>
    </g>
    <g id="xtick_4">
     <g id="line2d_7">
      <path d="M 414.33766 294.952625
L 414.33766 28.840625
" clip-path="url(#p6563ffe064)" style="fill: none; stroke: #dad8d7; stroke-opacity: 0.5; stroke-width: 0.8; stroke-linecap: square"/>
     </g>
     <g id="line2d_8">
      <g>
       <use xlink:href="#m6e2cbde6e0" x="414.33766" y="294.952625" style="stroke: #000000; stroke-width: 0.8"/>
      </g>
     </g>
     <g id="text_4">
      <!-- Walmart -->
      <g transform="translate(392.633753 309.352625) scale(0.1 -0.1)">
       <defs>
        <path id="Poppins-Regular-6d" d="M 4710 3571
Q 5120 3571 5440 3401
Q 5760 3232 5945 2893
Q 6131 2554 6131 2067
L 6131 0
L 5555 0
L 5555 1984
Q 5555 2509 5296 2787
Q 5037 3066 4595 3066
Q 4141 3066 3872 2774
Q 3603 2483 3603 1933
L 3603 0
L 3027 0
L 3027 1984
Q 3027 2509 2768 2787
Q 2509 3066 2067 3066
Q 1613 3066 1344 2774
Q 1075 2483 1075 1933
L 1075 0
L 493 0
L 493 3507
L 1075 3507
L 1075 3002
Q 1248 3277 1539 3424
Q 1830 3571 2182 3571
Q 2624 3571 2963 3372
Q 3302 3174 3469 2790
Q 3616 3162 3955 3366
Q 4294 3571 4710 3571
z
" transform="scale(0.015625)"/>
       </defs>
       <use xlink:href="#Poppins-Regular-57"/>
       <use xlink:href="#Poppins-Regular-61" transform="translate(97.599991 0)"/>
       <use xlink:href="#Poppins-Regular-6c" transform="translate(165.199982 0)"/>
       <use xlink:href="#Poppins-Regular-6d" transform="translate(189.799973 0)"/>
       <use xlink:href="#Poppins-Regular-61" transform="translate(292.799957 0)"/>
       <use xlink:href="#Poppins-Regular-72" transform="translate(360.399948 0)"/>
       <use xlink:href="#Poppins-Regular-74" transform="translate(397.699936 0)"/>
      </g>
     </g>
    </g>
    <g id="text_5">
     <!-- Retailers -->
     <g transform="translate(226.361324 324.932625) scale(0.12 -0.12)">
      <defs>
       <path id="Poppins-Regular-52" d="M 2842 0
L 1779 1824
L 1075 1824
L 1075 0
L 493 0
L 493 4461
L 1933 4461
Q 2438 4461 2787 4288
Q 3136 4115 3309 3820
Q 3482 3526 3482 3149
Q 3482 2688 3216 2336
Q 2950 1984 2419 1869
L 3539 0
L 2842 0
z
M 1075 2291
L 1933 2291
Q 2406 2291 2643 2524
Q 2880 2758 2880 3149
Q 2880 3546 2646 3763
Q 2413 3981 1933 3981
L 1075 3981
L 1075 2291
z
" transform="scale(0.015625)"/>
       <path id="Poppins-Regular-69" d="M 794 4077
Q 627 4077 512 4192
Q 397 4307 397 4474
Q 397 4640 512 4755
Q 627 4870 794 4870
Q 954 4870 1066 4755
Q 1178 4640 1178 4474
Q 1178 4307 1066 4192
Q 954 4077 794 4077
z
M 1075 3507
L 1075 0
L 493 0
L 493 3507
L 1075 3507
z
" transform="scale(0.015625)"/>
      </defs>
      <use xlink:href="#Poppins-Regular-52"/>
      <use xlink:href="#Poppins-Regular-65" transform="translate(60.799988 0)"/>
      <use xlink:href="#Poppins-Regular-74" transform="translate(122.799973 0)"/>
      <use xlink:href="#Poppins-Regular-61" transform="translate(159.199966 0)"/>
      <use xlink:href="#Poppins-Regular-69" transform="translate(226.799957 0)"/>
      <use xlink:href="#Poppins-Regular-6c" transform="translate(251.399948 0)"/>
      <use xlink:href="#Poppins-Regular-65" transform="translate(275.999939 0)"/>
      <use xlink:href="#Poppins-Regular-72" transform="translate(337.999924 0)"/>
      <use xlink:href="#Poppins-Regular-73" transform="translate(375.299911 0)"/>
     </g>
    </g>
   </g>
   <g id="matplotlib.axis_2">
    <g id="ytick_1">
     <g id="line2d_9">
      <path d="M 73.450387 282.856625
L 430.570387 282.856625
" clip-path="url(#p6563ffe064)" style="fill: none; stroke: #dad8d7; stroke-opacity: 0.5; stroke-width: 0.8; stroke-linecap: square"/>
     </g>
     <g id="line2d_10">
      <defs>
       <path id="m493d5baca2" d="M 0 0
L -3.5 0
" style="stroke: #000000; stroke-width: 0.8"/>
      </defs>
      <g>
       <use xlink:href="#m493d5baca2" x="73.450387" y="282.856625" style="stroke: #000000; stroke-width: 0.8"/>
      </g>
     </g>
     <g id="text_6">
      <!-- $1.0 - $1.8 -->
      <g transform="translate(26.650387 286.556625) scale(0.1 -0.1)">
       <defs>
        <path id="DejaVuSans-31" d="M 794 531
L 1825 531
L 1825 4091
L 703 3866
L 703 4441
L 1819 4666
L 2450 4666
L 2450 531
L 3481 531
L 3481 0
L 794 0
L 794 531
z
" transform="scale(0.015625)"/>
        <path id="DejaVuSans-2e" d="M 684 794
L 1344 794
L 1344 0
L 684 0
L 684 794
z
" transform="scale(0.015625)"/>
        <path id="DejaVuSans-30" d="M 2034 4250
Q 1547 4250 1301 3770
Q 1056 3291 1056 2328
Q 1056 1369 1301 889
Q 1547 409 2034 409
Q 2525 409 2770 889
Q 3016 1369 3016 2328
Q 3016 3291 2770 3770
Q 2525 4250 2034 4250
z
M 2034 4750
Q 2819 4750 3233 4129
Q 3647 3509 3647 2328
Q 3647 1150 3233 529
Q 2819 -91 2034 -91
Q 1250 -91 836 529
Q 422 1150 422 2328
Q 422 3509 836 4129
Q 1250 4750 2034 4750
z
" transform="scale(0.015625)"/>
        <path id="DejaVuSans-2212" d="M 678 2272
L 4684 2272
L 4684 1741
L 678 1741
L 678 2272
z
" transform="scale(0.015625)"/>
        <path id="Poppins-Regular-31" d="M 243 4096
L 243 4627
L 1446 4627
L 1446 0
L 858 0
L 858 4096
L 243 4096
z
" transform="scale(0.015625)"/>
        <path id="Poppins-Regular-2e" d="M 678 -38
Q 512 -38 397 77
Q 282 192 282 358
Q 282 525 397 640
Q 512 755 678 755
Q 838 755 950 640
Q 1062 525 1062 358
Q 1062 192 950 77
Q 838 -38 678 -38
z
" transform="scale(0.015625)"/>
        <path id="Poppins-Regular-38" d="M 1242 2406
Q 883 2547 691 2816
Q 499 3085 499 3469
Q 499 3814 672 4092
Q 845 4371 1187 4534
Q 1530 4698 2016 4698
Q 2502 4698 2844 4534
Q 3187 4371 3363 4092
Q 3539 3814 3539 3469
Q 3539 3098 3340 2819
Q 3142 2541 2797 2406
Q 3194 2285 3427 1981
Q 3661 1677 3661 1248
Q 3661 832 3456 521
Q 3251 211 2876 41
Q 2502 -128 2016 -128
Q 1530 -128 1162 41
Q 794 211 589 521
Q 384 832 384 1248
Q 384 1677 614 1984
Q 845 2291 1242 2406
z
M 2976 3398
Q 2976 3789 2720 4000
Q 2464 4211 2016 4211
Q 1574 4211 1318 4000
Q 1062 3789 1062 3392
Q 1062 3034 1328 2816
Q 1594 2598 2016 2598
Q 2445 2598 2710 2819
Q 2976 3040 2976 3398
z
M 2016 2150
Q 1542 2150 1241 1929
Q 941 1709 941 1267
Q 941 858 1232 608
Q 1523 358 2016 358
Q 2509 358 2797 608
Q 3085 858 3085 1267
Q 3085 1696 2790 1923
Q 2496 2150 2016 2150
z
" transform="scale(0.015625)"/>
       </defs>
       <use xlink:href="#DejaVuSans-31" transform="translate(0 0.78125)"/>
       <use xlink:href="#DejaVuSans-2e" transform="translate(63.623047 0.78125)"/>
       <use xlink:href="#DejaVuSans-30" transform="translate(95.410156 0.78125)"/>
       <use xlink:href="#DejaVuSans-2212" transform="translate(178.515625 0.78125)"/>
       <use xlink:href="#Poppins-Regular-31" transform="translate(281.787109 0.78125)"/>
       <use xlink:href="#Poppins-Regular-2e" transform="translate(313.787094 0.78125)"/>
       <use xlink:href="#Poppins-Regular-38" transform="translate(334.787079 0.78125)"/>
      </g>
     </g>
    </g>
    <g id="ytick_2">
     <g id="line2d_11">
      <path d="M 73.450387 255.976625
L 430.570387 255.976625
" clip-path="url(#p6563ffe064)" style="fill: none; stroke: #dad8d7; stroke-opacity: 0.5; stroke-width: 0.8; stroke-linecap: square"/>
     </g>
     <g id="line2d_12">
      <g>
       <use xlink:href="#m493d5baca2" x="73.450387" y="255.976625" style="stroke: #000000; stroke-width: 0.8"/>
      </g>
     </g>
     <g id="text_7">
      <!-- $1.8 - $2.6 -->
      <g transform="translate(24.250387 259.676625) scale(0.1 -0.1)">
       <defs>
        <path id="DejaVuSans-38" d="M 2034 2216
Q 1584 2216 1326 1975
Q 1069 1734 1069 1313
Q 1069 891 1326 650
Q 1584 409 2034 409
Q 2484 409 2743 651
Q 3003 894 3003 1313
Q 3003 1734 2745 1975
Q 2488 2216 2034 2216
z
M 1403 2484
Q 997 2584 770 2862
Q 544 3141 544 3541
Q 544 4100 942 4425
Q 1341 4750 2034 4750
Q 2731 4750 3128 4425
Q 3525 4100 3525 3541
Q 3525 3141 3298 2862
Q 3072 2584 2669 2484
Q 3125 2378 3379 2068
Q 3634 1759 3634 1313
Q 3634 634 3220 271
Q 2806 -91 2034 -91
Q 1263 -91 848 271
Q 434 634 434 1313
Q 434 1759 690 2068
Q 947 2378 1403 2484
z
M 1172 3481
Q 1172 3119 1398 2916
Q 1625 2713 2034 2713
Q 2441 2713 2670 2916
Q 2900 3119 2900 3481
Q 2900 3844 2670 4047
Q 2441 4250 2034 4250
Q 1625 4250 1398 4047
Q 1172 3844 1172 3481
z
" transform="scale(0.015625)"/>
        <path id="Poppins-Regular-32" d="M 326 467
Q 1139 1120 1600 1539
Q 2061 1958 2377 2416
Q 2694 2874 2694 3315
Q 2694 3731 2492 3971
Q 2291 4211 1843 4211
Q 1408 4211 1168 3939
Q 928 3667 909 3213
L 346 3213
Q 371 3930 780 4320
Q 1190 4710 1837 4710
Q 2496 4710 2883 4345
Q 3270 3981 3270 3341
Q 3270 2810 2953 2307
Q 2637 1805 2233 1424
Q 1830 1043 1203 538
L 3405 538
L 3405 51
L 326 51
L 326 467
z
" transform="scale(0.015625)"/>
        <path id="Poppins-Regular-36" d="M 2976 3526
Q 2835 4237 2099 4237
Q 1530 4237 1248 3798
Q 966 3360 973 2355
Q 1120 2688 1462 2877
Q 1805 3066 2227 3066
Q 2886 3066 3280 2656
Q 3674 2246 3674 1523
Q 3674 1088 3504 742
Q 3334 397 2992 192
Q 2650 -13 2163 -13
Q 1504 -13 1133 281
Q 762 576 614 1094
Q 467 1613 467 2374
Q 467 4723 2106 4723
Q 2733 4723 3091 4384
Q 3450 4045 3514 3526
L 2976 3526
z
M 2106 2573
Q 1830 2573 1587 2461
Q 1344 2349 1193 2121
Q 1043 1894 1043 1568
Q 1043 1082 1324 778
Q 1606 474 2131 474
Q 2579 474 2844 752
Q 3110 1030 3110 1504
Q 3110 2003 2854 2288
Q 2598 2573 2106 2573
z
" transform="scale(0.015625)"/>
       </defs>
       <use xlink:href="#DejaVuSans-31" transform="translate(0 0.78125)"/>
       <use xlink:href="#DejaVuSans-2e" transform="translate(63.623047 0.78125)"/>
       <use xlink:href="#DejaVuSans-38" transform="translate(92.785156 0.78125)"/>
       <use xlink:href="#DejaVuSans-2212" transform="translate(175.890625 0.78125)"/>
       <use xlink:href="#Poppins-Regular-32" transform="translate(279.162109 0.78125)"/>
       <use xlink:href="#Poppins-Regular-2e" transform="translate(336.662094 0.78125)"/>
       <use xlink:href="#Poppins-Regular-36" transform="translate(357.662079 0.78125)"/>
      </g>
     </g>
    </g>
    <g id="ytick_3">
     <g id="line2d_13">
      <path d="M 73.450387 229.096625
L 430.570387 229.096625
" clip-path="url(#p6563ffe064)" style="fill: none; stroke: #dad8d7; stroke-opacity: 0.5; stroke-width: 0.8; stroke-linecap: square"/>
     </g>
     <g id="line2d_14">
      <g>
       <use xlink:href="#m493d5baca2" x="73.450387" y="229.096625" style="stroke: #000000; stroke-width: 0.8"/>
      </g>
     </g>
     <g id="text_8">
      <!-- $2.6 - $3.4 -->
      <g transform="translate(23.950387 232.796625) scale(0.1 -0.1)">
       <defs>
        <path id="DejaVuSans-32" d="M 1228 531
L 3431 531
L 3431 0
L 469 0
L 469 531
Q 828 903 1448 1529
Q 2069 2156 2228 2338
Q 2531 2678 2651 2914
Q 2772 3150 2772 3378
Q 2772 3750 2511 3984
Q 2250 4219 1831 4219
Q 1534 4219 1204 4116
Q 875 4013 500 3803
L 500 4441
Q 881 4594 1212 4672
Q 1544 4750 1819 4750
Q 2544 4750 2975 4387
Q 3406 4025 3406 3419
Q 3406 3131 3298 2873
Q 3191 2616 2906 2266
Q 2828 2175 2409 1742
Q 1991 1309 1228 531
z
" transform="scale(0.015625)"/>
        <path id="DejaVuSans-36" d="M 2113 2584
Q 1688 2584 1439 2293
Q 1191 2003 1191 1497
Q 1191 994 1439 701
Q 1688 409 2113 409
Q 2538 409 2786 701
Q 3034 994 3034 1497
Q 3034 2003 2786 2293
Q 2538 2584 2113 2584
z
M 3366 4563
L 3366 3988
Q 3128 4100 2886 4159
Q 2644 4219 2406 4219
Q 1781 4219 1451 3797
Q 1122 3375 1075 2522
Q 1259 2794 1537 2939
Q 1816 3084 2150 3084
Q 2853 3084 3261 2657
Q 3669 2231 3669 1497
Q 3669 778 3244 343
Q 2819 -91 2113 -91
Q 1303 -91 875 529
Q 447 1150 447 2328
Q 447 3434 972 4092
Q 1497 4750 2381 4750
Q 2619 4750 2861 4703
Q 3103 4656 3366 4563
z
" transform="scale(0.015625)"/>
        <path id="Poppins-Regular-33" d="M 384 3462
Q 429 4051 838 4384
Q 1248 4717 1901 4717
Q 2336 4717 2653 4560
Q 2970 4403 3133 4134
Q 3296 3866 3296 3526
Q 3296 3130 3069 2842
Q 2842 2554 2477 2470
L 2477 2438
Q 2893 2336 3136 2035
Q 3379 1734 3379 1248
Q 3379 883 3212 592
Q 3046 301 2713 134
Q 2381 -32 1914 -32
Q 1235 -32 800 323
Q 365 678 314 1331
L 877 1331
Q 922 947 1190 704
Q 1459 461 1907 461
Q 2355 461 2588 694
Q 2822 928 2822 1299
Q 2822 1779 2502 1990
Q 2182 2202 1536 2202
L 1389 2202
L 1389 2688
L 1542 2688
Q 2131 2694 2432 2883
Q 2733 3072 2733 3469
Q 2733 3808 2512 4013
Q 2291 4218 1882 4218
Q 1485 4218 1241 4013
Q 998 3808 954 3462
L 384 3462
z
" transform="scale(0.015625)"/>
        <path id="Poppins-Regular-34" d="M 256 1030
L 256 1472
L 2502 4582
L 3200 4582
L 3200 1536
L 3840 1536
L 3840 1030
L 3200 1030
L 3200 0
L 2624 0
L 2624 1030
L 256 1030
z
M 2650 3974
L 928 1536
L 2650 1536
L 2650 3974
z
" transform="scale(0.015625)"/>
       </defs>
       <use xlink:href="#DejaVuSans-32" transform="translate(0 0.78125)"/>
       <use xlink:href="#DejaVuSans-2e" transform="translate(63.623047 0.78125)"/>
       <use xlink:href="#DejaVuSans-36" transform="translate(95.410156 0.78125)"/>
       <use xlink:href="#DejaVuSans-2212" transform="translate(178.515625 0.78125)"/>
       <use xlink:href="#Poppins-Regular-33" transform="translate(281.787109 0.78125)"/>
       <use xlink:href="#Poppins-Regular-2e" transform="translate(340.687103 0.78125)"/>
       <use xlink:href="#Poppins-Regular-34" transform="translate(361.687088 0.78125)"/>
      </g>
     </g>
    </g>
    <g id="ytick_4">
     <g id="line2d_15">
      <path d="M 73.450387 202.216625
L 430.570387 202.216625
" clip-path="url(#p6563ffe064)" style="fill: none; stroke: #dad8d7; stroke-opacity: 0.5; stroke-width: 0.8; stroke-linecap: square"/>
     </g>
     <g id="line2d_16">
      <g>
       <use xlink:href="#m493d5baca2" x="73.450387" y="202.216625" style="stroke: #000000; stroke-width: 0.8"/>
      </g>
     </g>
     <g id="text_9">
      <!-- $3.4 - $4.2 -->
      <g transform="translate(24.050387 205.916625) scale(0.1 -0.1)">
       <defs>
        <path id="DejaVuSans-33" d="M 2597 2516
Q 3050 2419 3304 2112
Q 3559 1806 3559 1356
Q 3559 666 3084 287
Q 2609 -91 1734 -91
Q 1441 -91 1130 -33
Q 819 25 488 141
L 488 750
Q 750 597 1062 519
Q 1375 441 1716 441
Q 2309 441 2620 675
Q 2931 909 2931 1356
Q 2931 1769 2642 2001
Q 2353 2234 1838 2234
L 1294 2234
L 1294 2753
L 1863 2753
Q 2328 2753 2575 2939
Q 2822 3125 2822 3475
Q 2822 3834 2567 4026
Q 2313 4219 1838 4219
Q 1578 4219 1281 4162
Q 984 4106 628 3988
L 628 4550
Q 988 4650 1302 4700
Q 1616 4750 1894 4750
Q 2613 4750 3031 4423
Q 3450 4097 3450 3541
Q 3450 3153 3228 2886
Q 3006 2619 2597 2516
z
" transform="scale(0.015625)"/>
        <path id="DejaVuSans-34" d="M 2419 4116
L 825 1625
L 2419 1625
L 2419 4116
z
M 2253 4666
L 3047 4666
L 3047 1625
L 3713 1625
L 3713 1100
L 3047 1100
L 3047 0
L 2419 0
L 2419 1100
L 313 1100
L 313 1709
L 2253 4666
z
" transform="scale(0.015625)"/>
       </defs>
       <use xlink:href="#DejaVuSans-33" transform="translate(0 0.78125)"/>
       <use xlink:href="#DejaVuSans-2e" transform="translate(63.623047 0.78125)"/>
       <use xlink:href="#DejaVuSans-34" transform="translate(95.410156 0.78125)"/>
       <use xlink:href="#DejaVuSans-2212" transform="translate(178.515625 0.78125)"/>
       <use xlink:href="#Poppins-Regular-34" transform="translate(281.787109 0.78125)"/>
       <use xlink:href="#Poppins-Regular-2e" transform="translate(344.687103 0.78125)"/>
       <use xlink:href="#Poppins-Regular-32" transform="translate(365.687088 0.78125)"/>
      </g>
     </g>
    </g>
    <g id="ytick_5">
     <g id="line2d_17">
      <path d="M 73.450387 175.336625
L 430.570387 175.336625
" clip-path="url(#p6563ffe064)" style="fill: none; stroke: #dad8d7; stroke-opacity: 0.5; stroke-width: 0.8; stroke-linecap: square"/>
     </g>
     <g id="line2d_18">
      <g>
       <use xlink:href="#m493d5baca2" x="73.450387" y="175.336625" style="stroke: #000000; stroke-width: 0.8"/>
      </g>
     </g>
     <g id="text_10">
      <!-- $4.2 - $5.0 -->
      <g transform="translate(24.150387 179.036625) scale(0.1 -0.1)">
       <defs>
        <path id="Poppins-Regular-35" d="M 3347 4122
L 1101 4122
L 1101 2662
Q 1248 2867 1536 2998
Q 1824 3130 2157 3130
Q 2688 3130 3021 2909
Q 3354 2688 3498 2339
Q 3642 1990 3642 1600
Q 3642 1139 3469 774
Q 3296 410 2941 198
Q 2586 -13 2061 -13
Q 1389 -13 973 332
Q 557 678 467 1254
L 1037 1254
Q 1120 890 1389 685
Q 1658 480 2067 480
Q 2573 480 2829 784
Q 3085 1088 3085 1587
Q 3085 2086 2829 2358
Q 2573 2630 2074 2630
Q 1734 2630 1481 2467
Q 1229 2304 1114 2022
L 563 2022
L 563 4634
L 3347 4634
L 3347 4122
z
" transform="scale(0.015625)"/>
        <path id="Poppins-Regular-30" d="M 397 2362
Q 397 3462 755 4080
Q 1114 4698 2010 4698
Q 2899 4698 3257 4080
Q 3616 3462 3616 2362
Q 3616 1242 3257 621
Q 2899 0 2010 0
Q 1114 0 755 621
Q 397 1242 397 2362
z
M 3040 2362
Q 3040 2918 2966 3305
Q 2893 3693 2665 3929
Q 2438 4166 2010 4166
Q 1574 4166 1347 3929
Q 1120 3693 1046 3305
Q 973 2918 973 2362
Q 973 1786 1046 1395
Q 1120 1005 1347 768
Q 1574 531 2010 531
Q 2438 531 2665 768
Q 2893 1005 2966 1395
Q 3040 1786 3040 2362
z
" transform="scale(0.015625)"/>
       </defs>
       <use xlink:href="#DejaVuSans-34" transform="translate(0 0.78125)"/>
       <use xlink:href="#DejaVuSans-2e" transform="translate(63.623047 0.78125)"/>
       <use xlink:href="#DejaVuSans-32" transform="translate(89.910156 0.78125)"/>
       <use xlink:href="#DejaVuSans-2212" transform="translate(173.015625 0.78125)"/>
       <use xlink:href="#Poppins-Regular-35" transform="translate(276.287109 0.78125)"/>
       <use xlink:href="#Poppins-Regular-2e" transform="translate(339.087097 0.78125)"/>
       <use xlink:href="#Poppins-Regular-30" transform="translate(360.087082 0.78125)"/>
      </g>
     </g>
    </g>
    <g id="ytick_6">
     <g id="line2d_19">
      <path d="M 73.450387 148.456625
L 430.570387 148.456625
" clip-path="url(#p6563ffe064)" style="fill: none; stroke: #dad8d7; stroke-opacity: 0.5; stroke-width: 0.8; stroke-linecap: square"/>
     </g>
     <g id="line2d_20">
      <g>
       <use xlink:href="#m493d5baca2" x="73.450387" y="148.456625" style="stroke: #000000; stroke-width: 0.8"/>
      </g>
     </g>
     <g id="text_11">
      <!-- $5.0 - $5.8 -->
      <g transform="translate(23.550387 152.156625) scale(0.1 -0.1)">
       <defs>
        <path id="DejaVuSans-35" d="M 691 4666
L 3169 4666
L 3169 4134
L 1269 4134
L 1269 2991
Q 1406 3038 1543 3061
Q 1681 3084 1819 3084
Q 2600 3084 3056 2656
Q 3513 2228 3513 1497
Q 3513 744 3044 326
Q 2575 -91 1722 -91
Q 1428 -91 1123 -41
Q 819 9 494 109
L 494 744
Q 775 591 1075 516
Q 1375 441 1709 441
Q 2250 441 2565 725
Q 2881 1009 2881 1497
Q 2881 1984 2565 2268
Q 2250 2553 1709 2553
Q 1456 2553 1204 2497
Q 953 2441 691 2322
L 691 4666
z
" transform="scale(0.015625)"/>
       </defs>
       <use xlink:href="#DejaVuSans-35" transform="translate(0 0.78125)"/>
       <use xlink:href="#DejaVuSans-2e" transform="translate(63.623047 0.78125)"/>
       <use xlink:href="#DejaVuSans-30" transform="translate(95.410156 0.78125)"/>
       <use xlink:href="#DejaVuSans-2212" transform="translate(178.515625 0.78125)"/>
       <use xlink:href="#Poppins-Regular-35" transform="translate(281.787109 0.78125)"/>
       <use xlink:href="#Poppins-Regular-2e" transform="translate(344.587097 0.78125)"/>
       <use xlink:href="#Poppins-Regular-38" transform="translate(365.587082 0.78125)"/>
      </g>
     </g>
    </g>
    <g id="ytick_7">
     <g id="line2d_21">
      <path d="M 73.450387 121.576625
L 430.570387 121.576625
" clip-path="url(#p6563ffe064)" style="fill: none; stroke: #dad8d7; stroke-opacity: 0.5; stroke-width: 0.8; stroke-linecap: square"/>
     </g>
     <g id="line2d_22">
      <g>
       <use xlink:href="#m493d5baca2" x="73.450387" y="121.576625" style="stroke: #000000; stroke-width: 0.8"/>
      </g>
     </g>
     <g id="text_12">
      <!-- $5.8 - $6.6 -->
      <g transform="translate(23.650387 125.276625) scale(0.1 -0.1)">
       <use xlink:href="#DejaVuSans-35" transform="translate(0 0.78125)"/>
       <use xlink:href="#DejaVuSans-2e" transform="translate(63.623047 0.78125)"/>
       <use xlink:href="#DejaVuSans-38" transform="translate(92.785156 0.78125)"/>
       <use xlink:href="#DejaVuSans-2212" transform="translate(175.890625 0.78125)"/>
       <use xlink:href="#Poppins-Regular-36" transform="translate(279.162109 0.78125)"/>
       <use xlink:href="#Poppins-Regular-2e" transform="translate(342.662094 0.78125)"/>
       <use xlink:href="#Poppins-Regular-36" transform="translate(363.662079 0.78125)"/>
      </g>
     </g>
    </g>
    <g id="ytick_8">
     <g id="line2d_23">
      <path d="M 73.450387 94.696625
L 430.570387 94.696625
" clip-path="url(#p6563ffe064)" style="fill: none; stroke: #dad8d7; stroke-opacity: 0.5; stroke-width: 0.8; stroke-linecap: square"/>
     </g>
     <g id="line2d_24">
      <g>
       <use xlink:href="#m493d5baca2" x="73.450387" y="94.696625" style="stroke: #000000; stroke-width: 0.8"/>
      </g>
     </g>
     <g id="text_13">
      <!-- $6.6 - $7.4 -->
      <g transform="translate(24.350387 98.396625) scale(0.1 -0.1)">
       <defs>
        <path id="Poppins-Regular-37" d="M 3245 4173
L 1466 0
L 877 0
L 2682 4115
L 211 4115
L 211 4614
L 3245 4614
L 3245 4173
z
" transform="scale(0.015625)"/>
       </defs>
       <use xlink:href="#DejaVuSans-36" transform="translate(0 0.78125)"/>
       <use xlink:href="#DejaVuSans-2e" transform="translate(63.623047 0.78125)"/>
       <use xlink:href="#DejaVuSans-36" transform="translate(95.410156 0.78125)"/>
       <use xlink:href="#DejaVuSans-2212" transform="translate(178.515625 0.78125)"/>
       <use xlink:href="#Poppins-Regular-37" transform="translate(281.787109 0.78125)"/>
       <use xlink:href="#Poppins-Regular-2e" transform="translate(336.3871 0.78125)"/>
       <use xlink:href="#Poppins-Regular-34" transform="translate(357.387085 0.78125)"/>
      </g>
     </g>
    </g>
    <g id="ytick_9">
     <g id="line2d_25">
      <path d="M 73.450387 67.816625
L 430.570387 67.816625
" clip-path="url(#p6563ffe064)" style="fill: none; stroke: #dad8d7; stroke-opacity: 0.5; stroke-width: 0.8; stroke-linecap: square"/>
     </g>
     <g id="line2d_26">
      <g>
       <use xlink:href="#m493d5baca2" x="73.450387" y="67.816625" style="stroke: #000000; stroke-width: 0.8"/>
      </g>
     </g>
     <g id="text_14">
      <!-- $7.4 - $8.2 -->
      <g transform="translate(24.050387 71.516625) scale(0.1 -0.1)">
       <defs>
        <path id="DejaVuSans-37" d="M 525 4666
L 3525 4666
L 3525 4397
L 1831 0
L 1172 0
L 2766 4134
L 525 4134
L 525 4666
z
" transform="scale(0.015625)"/>
       </defs>
       <use xlink:href="#DejaVuSans-37" transform="translate(0 0.40625)"/>
       <use xlink:href="#DejaVuSans-2e" transform="translate(63.623047 0.40625)"/>
       <use xlink:href="#DejaVuSans-34" transform="translate(95.410156 0.40625)"/>
       <use xlink:href="#DejaVuSans-2212" transform="translate(178.515625 0.40625)"/>
       <use xlink:href="#Poppins-Regular-38" transform="translate(281.787109 0.40625)"/>
       <use xlink:href="#Poppins-Regular-2e" transform="translate(344.8871 0.40625)"/>
       <use xlink:href="#Poppins-Regular-32" transform="translate(365.887085 0.40625)"/>
      </g>
     </g>
    </g>
    <g id="ytick_10">
     <g id="line2d_27">
      <path d="M 73.450387 40.936625
L 430.570387 40.936625
" clip-path="url(#p6563ffe064)" style="fill: none; stroke: #dad8d7; stroke-opacity: 0.5; stroke-width: 0.8; stroke-linecap: square"/>
     </g>
     <g id="line2d_28">
      <g>
       <use xlink:href="#m493d5baca2" x="73.450387" y="40.936625" style="stroke: #000000; stroke-width: 0.8"/>
      </g>
     </g>
     <g id="text_15">
      <!-- $8.2 - $9.0 -->
      <g transform="translate(24.050387 44.636625) scale(0.1 -0.1)">
       <defs>
        <path id="Poppins-Regular-39" d="M 1146 1242
Q 1210 877 1443 678
Q 1677 480 2074 480
Q 2605 480 2857 896
Q 3110 1312 3098 2298
Q 2963 2010 2649 1846
Q 2336 1683 1952 1683
Q 1523 1683 1187 1859
Q 851 2035 659 2374
Q 467 2714 467 3194
Q 467 3878 864 4297
Q 1261 4717 1990 4717
Q 2886 4717 3248 4134
Q 3610 3552 3610 2400
Q 3610 1594 3466 1069
Q 3322 544 2979 269
Q 2637 -6 2042 -6
Q 1389 -6 1024 346
Q 659 698 608 1242
L 1146 1242
z
M 2048 2176
Q 2477 2176 2752 2441
Q 3027 2707 3027 3162
Q 3027 3642 2758 3936
Q 2490 4230 2003 4230
Q 1555 4230 1289 3948
Q 1024 3667 1024 3206
Q 1024 2739 1286 2457
Q 1549 2176 2048 2176
z
" transform="scale(0.015625)"/>
       </defs>
       <use xlink:href="#DejaVuSans-38" transform="translate(0 0.78125)"/>
       <use xlink:href="#DejaVuSans-2e" transform="translate(63.623047 0.78125)"/>
       <use xlink:href="#DejaVuSans-32" transform="translate(89.910156 0.78125)"/>
       <use xlink:href="#DejaVuSans-2212" transform="translate(173.015625 0.78125)"/>
       <use xlink:href="#Poppins-Regular-39" transform="translate(276.287109 0.78125)"/>
       <use xlink:href="#Poppins-Regular-2e" transform="translate(339.287094 0.78125)"/>
       <use xlink:href="#Poppins-Regular-30" transform="translate(360.287079 0.78125)"/>
      </g>
     </g>
    </g>
    <g id="text_16">
     <!-- Price Bands -->
     <g transform="translate(16.430387 196.810062) rotate(-90) scale(0.12 -0.12)">
      <defs>
       <path id="Poppins-Regular-50" d="M 3475 3155
Q 3475 2598 3094 2230
Q 2714 1862 1933 1862
L 1075 1862
L 1075 0
L 493 0
L 493 4461
L 1933 4461
Q 2688 4461 3081 4096
Q 3475 3731 3475 3155
z
M 1933 2342
Q 2419 2342 2649 2553
Q 2880 2765 2880 3155
Q 2880 3981 1933 3981
L 1075 3981
L 1075 2342
L 1933 2342
z
" transform="scale(0.015625)"/>
       <path id="Poppins-Regular-63" d="M 275 1760
Q 275 2304 492 2710
Q 710 3117 1097 3341
Q 1485 3565 1984 3565
Q 2630 3565 3049 3251
Q 3469 2938 3603 2381
L 2976 2381
Q 2886 2701 2627 2886
Q 2368 3072 1984 3072
Q 1485 3072 1177 2729
Q 870 2387 870 1760
Q 870 1126 1177 780
Q 1485 435 1984 435
Q 2368 435 2624 614
Q 2880 794 2976 1126
L 3603 1126
Q 3462 589 3040 265
Q 2618 -58 1984 -58
Q 1485 -58 1097 166
Q 710 390 492 800
Q 275 1210 275 1760
z
" transform="scale(0.015625)"/>
       <path id="Poppins-Regular-20" transform="scale(0.015625)"/>
       <path id="Poppins-Regular-42" d="M 2726 2298
Q 2970 2259 3171 2099
Q 3373 1939 3491 1702
Q 3610 1466 3610 1197
Q 3610 858 3437 586
Q 3264 314 2934 157
Q 2605 0 2157 0
L 493 0
L 493 4461
L 2093 4461
Q 2547 4461 2867 4310
Q 3187 4160 3347 3904
Q 3507 3648 3507 3328
Q 3507 2931 3292 2672
Q 3078 2413 2726 2298
z
M 1075 2534
L 2054 2534
Q 2464 2534 2688 2726
Q 2912 2918 2912 3258
Q 2912 3597 2688 3789
Q 2464 3981 2042 3981
L 1075 3981
L 1075 2534
z
M 2106 480
Q 2541 480 2784 685
Q 3027 890 3027 1254
Q 3027 1626 2771 1840
Q 2515 2054 2086 2054
L 1075 2054
L 1075 480
L 2106 480
z
" transform="scale(0.015625)"/>
       <path id="Poppins-Regular-64" d="M 275 1766
Q 275 2304 492 2710
Q 710 3117 1091 3341
Q 1472 3565 1946 3565
Q 2355 3565 2707 3376
Q 3059 3187 3245 2880
L 3245 4736
L 3834 4736
L 3834 0
L 3245 0
L 3245 659
Q 3072 346 2733 144
Q 2394 -58 1939 -58
Q 1472 -58 1091 172
Q 710 403 492 819
Q 275 1235 275 1766
z
M 3245 1760
Q 3245 2157 3085 2451
Q 2925 2746 2653 2902
Q 2381 3059 2054 3059
Q 1728 3059 1459 2905
Q 1190 2752 1030 2457
Q 870 2163 870 1766
Q 870 1363 1030 1065
Q 1190 768 1459 611
Q 1728 454 2054 454
Q 2381 454 2653 611
Q 2925 768 3085 1065
Q 3245 1363 3245 1760
z
" transform="scale(0.015625)"/>
      </defs>
      <use xlink:href="#Poppins-Regular-50"/>
      <use xlink:href="#Poppins-Regular-72" transform="translate(57.899994 0)"/>
      <use xlink:href="#Poppins-Regular-69" transform="translate(95.199982 0)"/>
      <use xlink:href="#Poppins-Regular-63" transform="translate(119.799973 0)"/>
      <use xlink:href="#Poppins-Regular-65" transform="translate(180.499969 0)"/>
      <use xlink:href="#Poppins-Regular-20" transform="translate(242.499954 0)"/>
      <use xlink:href="#Poppins-Regular-42" transform="translate(269.199951 0)"/>
      <use xlink:href="#Poppins-Regular-61" transform="translate(330.499939 0)"/>
      <use xlink:href="#Poppins-Regular-6e" transform="translate(398.09993 0)"/>
      <use xlink:href="#Poppins-Regular-64" transform="translate(462.099915 0)"/>
      <use xlink:href="#Poppins-Regular-73" transform="translate(529.699905 0)"/>
     </g>
    </g>
   </g>
   <g id="PathCollection_1">
    <path d="M 89.683114 289.650287
C 91.484815 289.650287 93.212964 288.934464 94.486959 287.66047
C 95.760953 286.386475 96.476776 284.658325 96.476776 282.856625
C 96.476776 281.054925 95.760953 279.326775 94.486959 278.05278
C 93.212964 276.778786 91.484815 276.062963 89.683114 276.062963
C 87.881414 276.062963 86.153264 276.778786 84.87927 278.05278
C 83.605275 279.326775 82.889452 281.054925 82.889452 282.856625
C 82.889452 284.658325 83.605275 286.386475 84.87927 287.66047
C 86.153264 288.934464 87.881414 289.650287 89.683114 289.650287
z
" clip-path="url(#p6563ffe064)" style="fill: #22c55e; fill-opacity: 0.7; stroke: #000000; stroke-opacity: 0.7; stroke-width: 1.5"/>
    <path d="M 89.683114 262.770287
C 91.484815 262.770287 93.212964 262.054464 94.486959 260.78047
C 95.760953 259.506475 96.476776 257.778325 96.476776 255.976625
C 96.476776 254.174925 95.760953 252.446775 94.486959 251.17278
C 93.212964 249.898786 91.484815 249.182963 89.683114 249.182963
C 87.881414 249.182963 86.153264 249.898786 84.87927 251.17278
C 83.605275 252.446775 82.889452 254.174925 82.889452 255.976625
C 82.889452 257.778325 83.605275 259.506475 84.87927 260.78047
C 86.153264 262.054464 87.881414 262.770287 89.683114 262.770287
z
" clip-path="url(#p6563ffe064)" style="fill: #22c55e; fill-opacity: 0.7; stroke: #000000; stroke-opacity: 0.7; stroke-width: 1.5"/>
    <path d="M 89.683114 209.010287
C 91.484815 209.010287 93.212964 208.294464 94.486959 207.02047
C 95.760953 205.746475 96.476776 204.018325 96.476776 202.216625
C 96.476776 200.414925 95.760953 198.686775 94.486959 197.41278
C 93.212964 196.138786 91.484815 195.422963 89.683114 195.422963
C 87.881414 195.422963 86.153264 196.138786 84.87927 197.41278
C 83.605275 198.686775 82.889452 200.414925 82.889452 202.216625
C 82.889452 204.018325 83.605275 205.746475 84.87927 207.02047
C 86.153264 208.294464 87.881414 209.010287 89.683114 209.010287
z
" clip-path="url(#p6563ffe064)" style="fill: #22c55e; fill-opacity: 0.7; stroke: #000000; stroke-opacity: 0.7; stroke-width: 1.5"/>
    <path d="M 89.683114 180.883627
C 91.154196 180.883627 92.565225 180.29916 93.605437 179.258948
C 94.645649 178.218736 95.230116 176.807707 95.230116 175.336625
C 95.230116 173.865543 94.645649 172.454514 93.605437 171.414302
C 92.565225 170.37409 91.154196 169.789623 89.683114 169.789623
C 88.212032 169.789623 86.801004 170.37409 85.760792 171.414302
C 84.720579 172.454514 84.136112 173.865543 84.136112 175.336625
C 84.136112 176.807707 84.720579 178.218736 85.760792 179.258948
C 86.801004 180.29916 88.212032 180.883627 89.683114 180.883627
z
" clip-path="url(#p6563ffe064)" style="fill: #22c55e; fill-opacity: 0.7; stroke: #000000; stroke-opacity: 0.7; stroke-width: 1.5"/>
    <path d="M 89.683114 155.250287
C 91.484815 155.250287 93.212964 154.534464 94.486959 153.26047
C 95.760953 151.986475 96.476776 150.258325 96.476776 148.456625
C 96.476776 146.654925 95.760953 144.926775 94.486959 143.65278
C 93.212964 142.378786 91.484815 141.662963 89.683114 141.662963
C 87.881414 141.662963 86.153264 142.378786 84.87927 143.65278
C 83.605275 144.926775 82.889452 146.654925 82.889452 148.456625
C 82.889452 150.258325 83.605275 151.986475 84.87927 153.26047
C 86.153264 154.534464 87.881414 155.250287 89.683114 155.250287
z
" clip-path="url(#p6563ffe064)" style="fill: #22c55e; fill-opacity: 0.7; stroke: #000000; stroke-opacity: 0.7; stroke-width: 1.5"/>
    <path d="M 89.683114 125.498948
C 90.723326 125.498948 91.721074 125.085667 92.456615 124.350126
C 93.192156 123.614585 93.605437 122.616837 93.605437 121.576625
C 93.605437 120.536413 93.192156 119.538665 92.456615 118.803124
C 91.721074 118.067583 90.723326 117.654302 89.683114 117.654302
C 88.642902 117.654302 87.645154 118.067583 86.909613 118.803124
C 86.174072 119.538665 85.760792 120.536413 85.760792 121.576625
C 85.760792 122.616837 86.174072 123.614585 86.909613 124.350126
C 87.645154 125.085667 88.642902 125.498948 89.683114 125.498948
z
" clip-path="url(#p6563ffe064)" style="fill: #22c55e; fill-opacity: 0.7; stroke: #000000; stroke-opacity: 0.7; stroke-width: 1.5"/>
    <path d="M 89.683114 100.243627
C 91.154196 100.243627 92.565225 99.65916 93.605437 98.618948
C 94.645649 97.578736 95.230116 96.167707 95.230116 94.696625
C 95.230116 93.225543 94.645649 91.814514 93.605437 90.774302
C 92.565225 89.73409 91.154196 89.149623 89.683114 89.149623
C 88.212032 89.149623 86.801004 89.73409 85.760792 90.774302
C 84.720579 91.814514 84.136112 93.225543 84.136112 94.696625
C 84.136112 96.167707 84.720579 97.578736 85.760792 98.618948
C 86.801004 99.65916 88.212032 100.243627 89.683114 100.243627
z
" clip-path="url(#p6563ffe064)" style="fill: #22c55e; fill-opacity: 0.7; stroke: #000000; stroke-opacity: 0.7; stroke-width: 1.5"/>
    <path d="M 89.683114 77.424314
C 92.231103 77.424314 94.675076 76.411987 96.476776 74.610287
C 98.278477 72.808587 99.290803 70.364614 99.290803 67.816625
C 99.290803 65.268636 98.278477 62.824663 96.476776 61.022963
C 94.675076 59.221263 92.231103 58.208936 89.683114 58.208936
C 87.135125 58.208936 84.691152 59.221263 82.889452 61.022963
C 81.087752 62.824663 80.075425 65.268636 80.075425 67.816625
C 80.075425 70.364614 81.087752 72.808587 82.889452 74.610287
C 84.691152 76.411987 87.135125 77.424314 89.683114 77.424314
z
" clip-path="url(#p6563ffe064)" style="fill: #22c55e; fill-opacity: 0.7; stroke: #000000; stroke-opacity: 0.7; stroke-width: 1.5"/>
    <path d="M 89.683114 46.483627
C 91.154196 46.483627 92.565225 45.89916 93.605437 44.858948
C 94.645649 43.818736 95.230116 42.407707 95.230116 40.936625
C 95.230116 39.465543 94.645649 38.054514 93.605437 37.014302
C 92.565225 35.97409 91.154196 35.389623 89.683114 35.389623
C 88.212032 35.389623 86.801004 35.97409 85.760792 37.014302
C 84.720579 38.054514 84.136112 39.465543 84.136112 40.936625
C 84.136112 42.407707 84.720579 43.818736 85.760792 44.858948
C 86.801004 45.89916 88.212032 46.483627 89.683114 46.483627
z
" clip-path="url(#p6563ffe064)" style="fill: #22c55e; fill-opacity: 0.7; stroke: #000000; stroke-opacity: 0.7; stroke-width: 1.5"/>
    <path d="M 197.901296 267.070629
C 200.84346 267.070629 203.665517 265.901695 205.745941 263.82127
C 207.826366 261.740846 208.9953 258.918789 208.9953 255.976625
C 208.9953 253.034461 207.826366 250.212404 205.745941 248.13198
C 203.665517 246.051555 200.84346 244.882621 197.901296 244.882621
C 194.959132 244.882621 192.137075 246.051555 190.056651 248.13198
C 187.976226 250.212404 186.807292 253.034461 186.807292 255.976625
C 186.807292 258.918789 187.976226 261.740846 190.056651 263.82127
C 192.137075 265.901695 194.959132 267.070629 197.901296 267.070629
z
" clip-path="url(#p6563ffe064)" style="fill: #3b82f6; fill-opacity: 0.7; stroke: #000000; stroke-opacity: 0.7; stroke-width: 1.5"/>
    <path d="M 197.901296 236.94127
C 199.98172 236.94127 201.977216 236.114709 203.448298 234.643627
C 204.91938 233.172545 205.745941 231.177049 205.745941 229.096625
C 205.745941 227.016201 204.91938 225.020705 203.448298 223.549623
C 201.977216 222.078541 199.98172 221.25198 197.901296 221.25198
C 195.820872 221.25198 193.825376 222.078541 192.354294 223.549623
C 190.883212 225.020705 190.056651 227.016201 190.056651 229.096625
C 190.056651 231.177049 190.883212 233.172545 192.354294 234.643627
C 193.825376 236.114709 195.820872 236.94127 197.901296 236.94127
z
" clip-path="url(#p6563ffe064)" style="fill: #3b82f6; fill-opacity: 0.7; stroke: #000000; stroke-opacity: 0.7; stroke-width: 1.5"/>
    <path d="M 197.901296 213.310629
C 200.84346 213.310629 203.665517 212.141695 205.745941 210.06127
C 207.826366 207.980846 208.9953 205.158789 208.9953 202.216625
C 208.9953 199.274461 207.826366 196.452404 205.745941 194.37198
C 203.665517 192.291555 200.84346 191.122621 197.901296 191.122621
C 194.959132 191.122621 192.137075 192.291555 190.056651 194.37198
C 187.976226 196.452404 186.807292 199.274461 186.807292 202.216625
C 186.807292 205.158789 187.976226 207.980846 190.056651 210.06127
C 192.137075 212.141695 194.959132 213.310629 197.901296 213.310629
z
" clip-path="url(#p6563ffe064)" style="fill: #3b82f6; fill-opacity: 0.7; stroke: #000000; stroke-opacity: 0.7; stroke-width: 1.5"/>
    <path d="M 197.901296 184.107205
C 200.227281 184.107205 202.458313 183.183082 204.103033 181.538362
C 205.747753 179.893642 206.671876 177.66261 206.671876 175.336625
C 206.671876 173.01064 205.747753 170.779608 204.103033 169.134888
C 202.458313 167.490168 200.227281 166.566045 197.901296 166.566045
C 195.575311 166.566045 193.344279 167.490168 191.699559 169.134888
C 190.05484 170.779608 189.130716 173.01064 189.130716 175.336625
C 189.130716 177.66261 190.05484 179.893642 191.699559 181.538362
C 193.344279 183.183082 195.575311 184.107205 197.901296 184.107205
z
" clip-path="url(#p6563ffe064)" style="fill: #3b82f6; fill-opacity: 0.7; stroke: #000000; stroke-opacity: 0.7; stroke-width: 1.5"/>
    <path d="M 306.119478 207.763627
C 307.59056 207.763627 309.001588 207.17916 310.041801 206.138948
C 311.082013 205.098736 311.66648 203.687707 311.66648 202.216625
C 311.66648 200.745543 311.082013 199.334514 310.041801 198.294302
C 309.001588 197.25409 307.59056 196.669623 306.119478 196.669623
C 304.648396 196.669623 303.237367 197.25409 302.197155 198.294302
C 301.156943 199.334514 300.572476 200.745543 300.572476 202.216625
C 300.572476 203.687707 301.156943 205.098736 302.197155 206.138948
C 303.237367 207.17916 304.648396 207.763627 306.119478 207.763627
z
" clip-path="url(#p6563ffe064)" style="fill: #ef4444; fill-opacity: 0.7; stroke: #000000; stroke-opacity: 0.7; stroke-width: 1.5"/>
    <path d="M 306.119478 184.107205
C 308.445463 184.107205 310.676495 183.183082 312.321215 181.538362
C 313.965934 179.893642 314.890058 177.66261 314.890058 175.336625
C 314.890058 173.01064 313.965934 170.779608 312.321215 169.134888
C 310.676495 167.490168 308.445463 166.566045 306.119478 166.566045
C 303.793493 166.566045 301.562461 167.490168 299.917741 169.134888
C 298.273021 170.779608 297.348898 173.01064 297.348898 175.336625
C 297.348898 177.66261 298.273021 179.893642 299.917741 181.538362
C 301.562461 183.183082 303.793493 184.107205 306.119478 184.107205
z
" clip-path="url(#p6563ffe064)" style="fill: #ef4444; fill-opacity: 0.7; stroke: #000000; stroke-opacity: 0.7; stroke-width: 1.5"/>
    <path d="M 306.119478 157.227205
C 308.445463 157.227205 310.676495 156.303082 312.321215 154.658362
C 313.965934 153.013642 314.890058 150.78261 314.890058 148.456625
C 314.890058 146.13064 313.965934 143.899608 312.321215 142.254888
C 310.676495 140.610168 308.445463 139.686045 306.119478 139.686045
C 303.793493 139.686045 301.562461 140.610168 299.917741 142.254888
C 298.273021 143.899608 297.348898 146.13064 297.348898 148.456625
C 297.348898 150.78261 298.273021 153.013642 299.917741 154.658362
C 301.562461 156.303082 303.793493 157.227205 306.119478 157.227205
z
" clip-path="url(#p6563ffe064)" style="fill: #ef4444; fill-opacity: 0.7; stroke: #000000; stroke-opacity: 0.7; stroke-width: 1.5"/>
    <path d="M 306.119478 127.123627
C 307.59056 127.123627 309.001588 126.53916 310.041801 125.498948
C 311.082013 124.458736 311.66648 123.047707 311.66648 121.576625
C 311.66648 120.105543 311.082013 118.694514 310.041801 117.654302
C 309.001588 116.61409 307.59056 116.029623 306.119478 116.029623
C 304.648396 116.029623 303.237367 116.61409 302.197155 117.654302
C 301.156943 118.694514 300.572476 120.105543 300.572476 121.576625
C 300.572476 123.047707 301.156943 124.458736 302.197155 125.498948
C 303.237367 126.53916 304.648396 127.123627 306.119478 127.123627
z
" clip-path="url(#p6563ffe064)" style="fill: #ef4444; fill-opacity: 0.7; stroke: #000000; stroke-opacity: 0.7; stroke-width: 1.5"/>
    <path d="M 306.119478 104.304314
C 308.667467 104.304314 311.11144 103.291987 312.91314 101.490287
C 314.71484 99.688587 315.727167 97.244614 315.727167 94.696625
C 315.727167 92.148636 314.71484 89.704663 312.91314 87.902963
C 311.11144 86.101263 308.667467 85.088936 306.119478 85.088936
C 303.571489 85.088936 301.127516 86.101263 299.325816 87.902963
C 297.524115 89.704663 296.511789 92.148636 296.511789 94.696625
C 296.511789 97.244614 297.524115 99.688587 299.325816 101.490287
C 301.127516 103.291987 303.571489 104.304314 306.119478 104.304314
z
" clip-path="url(#p6563ffe064)" style="fill: #ef4444; fill-opacity: 0.7; stroke: #000000; stroke-opacity: 0.7; stroke-width: 1.5"/>
    <path d="M 306.119478 76.587205
C 308.445463 76.587205 310.676495 75.663082 312.321215 74.018362
C 313.965934 72.373642 314.890058 70.14261 314.890058 67.816625
C 314.890058 65.49064 313.965934 63.259608 312.321215 61.614888
C 310.676495 59.970168 308.445463 59.046045 306.119478 59.046045
C 303.793493 59.046045 301.562461 59.970168 299.917741 61.614888
C 298.273021 63.259608 297.348898 65.49064 297.348898 67.816625
C 297.348898 70.14261 298.273021 72.373642 299.917741 74.018362
C 301.562461 75.663082 303.793493 76.587205 306.119478 76.587205
z
" clip-path="url(#p6563ffe064)" style="fill: #ef4444; fill-opacity: 0.7; stroke: #000000; stroke-opacity: 0.7; stroke-width: 1.5"/>
    <path d="M 414.33766 296.998761
C 418.088198 296.998761 421.685629 295.508656 424.33766 292.856625
C 426.989691 290.204594 428.479795 286.607163 428.479795 282.856625
C 428.479795 279.106087 426.989691 275.508656 424.33766 272.856625
C 421.685629 270.204594 418.088198 268.714489 414.33766 268.714489
C 410.587121 268.714489 406.989691 270.204594 404.33766 272.856625
C 401.685629 275.508656 400.195524 279.106087 400.195524 282.856625
C 400.195524 286.607163 401.685629 290.204594 404.33766 292.856625
C 406.989691 295.508656 410.587121 296.998761 414.33766 296.998761
z
" clip-path="url(#p6563ffe064)" style="fill: #f97316; fill-opacity: 0.7; stroke: #000000; stroke-opacity: 0.7; stroke-width: 1.5"/>
    <path d="M 414.33766 267.070629
C 417.279824 267.070629 420.101881 265.901695 422.182305 263.82127
C 424.262729 261.740846 425.431664 258.918789 425.431664 255.976625
C 425.431664 253.034461 424.262729 250.212404 422.182305 248.13198
C 420.101881 246.051555 417.279824 244.882621 414.33766 244.882621
C 411.395495 244.882621 408.573439 246.051555 406.493014 248.13198
C 404.41259 250.212404 403.243656 253.034461 403.243656 255.976625
C 403.243656 258.918789 404.41259 261.740846 406.493014 263.82127
C 408.573439 265.901695 411.395495 267.070629 414.33766 267.070629
z
" clip-path="url(#p6563ffe064)" style="fill: #f97316; fill-opacity: 0.7; stroke: #000000; stroke-opacity: 0.7; stroke-width: 1.5"/>
    <path d="M 414.33766 236.94127
C 416.418084 236.94127 418.41358 236.114709 419.884662 234.643627
C 421.355744 233.172545 422.182305 231.177049 422.182305 229.096625
C 422.182305 227.016201 421.355744 225.020705 419.884662 223.549623
C 418.41358 222.078541 416.418084 221.25198 414.33766 221.25198
C 412.257235 221.25198 410.26174 222.078541 408.790658 223.549623
C 407.319576 225.020705 406.493014 227.016201 406.493014 229.096625
C 406.493014 231.177049 407.319576 233.172545 408.790658 234.643627
C 410.26174 236.114709 412.257235 236.94127 414.33766 236.94127
z
" clip-path="url(#p6563ffe064)" style="fill: #f97316; fill-opacity: 0.7; stroke: #000000; stroke-opacity: 0.7; stroke-width: 1.5"/>
   </g>
   <g id="patch_3">
    <path d="M 73.450387 294.952625
L 73.450387 28.840625
" style="fill: none; stroke: #000000; stroke-width: 0.8; stroke-linejoin: miter; stroke-linecap: square"/>
   </g>
   <g id="patch_4">
    <path d="M 73.450387 294.952625
L 430.570387 294.952625
" style="fill: none; stroke: #000000; stroke-width: 0.8; stroke-linejoin: miter; stroke-linecap: square"/>
   </g>
   <g id="text_17">
    <!-- Price Distribution Analysis by Retailer -->
    <g transform="translate(63.366637 22.840625) scale(0.2 -0.2)">
     <defs>
      <path id="Poppins-SemiBold-50" d="M 3699 3085
Q 3699 2726 3529 2412
Q 3360 2099 2998 1907
Q 2637 1715 2086 1715
L 1338 1715
L 1338 0
L 442 0
L 442 4467
L 2086 4467
Q 2605 4467 2969 4288
Q 3334 4109 3516 3795
Q 3699 3482 3699 3085
z
M 2048 2438
Q 2419 2438 2598 2608
Q 2778 2778 2778 3085
Q 2778 3738 2048 3738
L 1338 3738
L 1338 2438
L 2048 2438
z
" transform="scale(0.015625)"/>
      <path id="Poppins-SemiBold-72" d="M 1338 2995
Q 1510 3277 1788 3437
Q 2067 3597 2426 3597
L 2426 2656
L 2189 2656
Q 1766 2656 1552 2457
Q 1338 2259 1338 1766
L 1338 0
L 442 0
L 442 3546
L 1338 3546
L 1338 2995
z
" transform="scale(0.015625)"/>
      <path id="Poppins-SemiBold-69" d="M 896 3968
Q 659 3968 502 4118
Q 346 4269 346 4493
Q 346 4717 502 4867
Q 659 5018 896 5018
Q 1133 5018 1289 4867
Q 1446 4717 1446 4493
Q 1446 4269 1289 4118
Q 1133 3968 896 3968
z
M 1338 3546
L 1338 0
L 442 0
L 442 3546
L 1338 3546
z
" transform="scale(0.015625)"/>
      <path id="Poppins-SemiBold-63" d="M 211 1773
Q 211 2323 435 2736
Q 659 3149 1056 3376
Q 1453 3603 1965 3603
Q 2624 3603 3056 3273
Q 3488 2944 3635 2349
L 2669 2349
Q 2592 2579 2409 2710
Q 2227 2842 1958 2842
Q 1574 2842 1350 2563
Q 1126 2285 1126 1773
Q 1126 1267 1350 988
Q 1574 710 1958 710
Q 2502 710 2669 1197
L 3635 1197
Q 3488 621 3053 281
Q 2618 -58 1965 -58
Q 1453 -58 1056 169
Q 659 397 435 809
Q 211 1222 211 1773
z
" transform="scale(0.015625)"/>
      <path id="Poppins-SemiBold-65" d="M 3738 1850
Q 3738 1658 3712 1504
L 1120 1504
Q 1152 1120 1389 902
Q 1626 685 1971 685
Q 2470 685 2682 1114
L 3648 1114
Q 3494 602 3059 272
Q 2624 -58 1990 -58
Q 1478 -58 1072 169
Q 666 397 438 813
Q 211 1229 211 1773
Q 211 2323 435 2739
Q 659 3155 1062 3379
Q 1466 3603 1990 3603
Q 2496 3603 2896 3385
Q 3296 3168 3517 2768
Q 3738 2368 3738 1850
z
M 2810 2106
Q 2803 2451 2560 2659
Q 2317 2867 1965 2867
Q 1632 2867 1405 2665
Q 1178 2464 1126 2106
L 2810 2106
z
" transform="scale(0.015625)"/>
      <path id="Poppins-SemiBold-20" transform="scale(0.015625)"/>
      <path id="Poppins-SemiBold-44" d="M 2003 4467
Q 2707 4467 3241 4192
Q 3776 3917 4067 3408
Q 4358 2899 4358 2227
Q 4358 1555 4067 1052
Q 3776 550 3241 275
Q 2707 0 2003 0
L 442 0
L 442 4467
L 2003 4467
z
M 1971 762
Q 2675 762 3059 1146
Q 3443 1530 3443 2227
Q 3443 2925 3059 3318
Q 2675 3712 1971 3712
L 1338 3712
L 1338 762
L 1971 762
z
" transform="scale(0.015625)"/>
      <path id="Poppins-SemiBold-73" d="M 1798 -58
Q 1363 -58 1017 99
Q 672 256 470 525
Q 269 794 250 1120
L 1152 1120
Q 1178 915 1354 780
Q 1530 646 1792 646
Q 2048 646 2192 748
Q 2336 851 2336 1011
Q 2336 1184 2160 1270
Q 1984 1357 1600 1459
Q 1203 1555 950 1657
Q 698 1760 515 1971
Q 333 2182 333 2541
Q 333 2835 502 3078
Q 672 3322 989 3462
Q 1306 3603 1734 3603
Q 2368 3603 2745 3286
Q 3123 2970 3162 2432
L 2304 2432
Q 2285 2643 2128 2768
Q 1971 2893 1709 2893
Q 1466 2893 1334 2803
Q 1203 2714 1203 2554
Q 1203 2374 1382 2281
Q 1562 2189 1939 2093
Q 2323 1997 2572 1894
Q 2822 1792 3004 1577
Q 3187 1363 3194 1011
Q 3194 704 3024 461
Q 2854 218 2537 80
Q 2221 -58 1798 -58
z
" transform="scale(0.015625)"/>
      <path id="Poppins-SemiBold-74" d="M 1485 2810
L 1485 1094
Q 1485 915 1571 835
Q 1658 755 1862 755
L 2278 755
L 2278 0
L 1715 0
Q 582 0 582 1101
L 582 2810
L 160 2810
L 160 3546
L 582 3546
L 582 4422
L 1485 4422
L 1485 3546
L 2278 3546
L 2278 2810
L 1485 2810
z
" transform="scale(0.015625)"/>
      <path id="Poppins-SemiBold-62" d="M 1338 3027
Q 1510 3283 1814 3443
Q 2118 3603 2509 3603
Q 2963 3603 3331 3379
Q 3699 3155 3913 2742
Q 4128 2330 4128 1786
Q 4128 1242 3913 822
Q 3699 403 3331 172
Q 2963 -58 2509 -58
Q 2112 -58 1814 99
Q 1517 256 1338 506
L 1338 0
L 442 0
L 442 4736
L 1338 4736
L 1338 3027
z
M 3213 1786
Q 3213 2106 3081 2339
Q 2950 2573 2736 2694
Q 2522 2816 2272 2816
Q 2029 2816 1814 2691
Q 1600 2566 1469 2329
Q 1338 2093 1338 1773
Q 1338 1453 1469 1216
Q 1600 979 1814 854
Q 2029 730 2272 730
Q 2522 730 2736 858
Q 2950 986 3081 1222
Q 3213 1459 3213 1786
z
" transform="scale(0.015625)"/>
      <path id="Poppins-SemiBold-75" d="M 3789 3546
L 3789 0
L 2886 0
L 2886 448
Q 2714 218 2435 86
Q 2157 -45 1830 -45
Q 1414 -45 1094 131
Q 774 307 592 649
Q 410 992 410 1466
L 410 3546
L 1306 3546
L 1306 1594
Q 1306 1171 1517 944
Q 1728 717 2093 717
Q 2464 717 2675 944
Q 2886 1171 2886 1594
L 2886 3546
L 3789 3546
z
" transform="scale(0.015625)"/>
      <path id="Poppins-SemiBold-6f" d="M 2016 -58
Q 1504 -58 1094 169
Q 685 397 451 813
Q 218 1229 218 1773
Q 218 2317 458 2733
Q 698 3149 1114 3376
Q 1530 3603 2042 3603
Q 2554 3603 2970 3376
Q 3386 3149 3626 2733
Q 3866 2317 3866 1773
Q 3866 1229 3619 813
Q 3373 397 2953 169
Q 2534 -58 2016 -58
z
M 2016 723
Q 2259 723 2473 841
Q 2688 960 2816 1197
Q 2944 1434 2944 1773
Q 2944 2278 2678 2550
Q 2413 2822 2029 2822
Q 1645 2822 1385 2550
Q 1126 2278 1126 1773
Q 1126 1267 1379 995
Q 1632 723 2016 723
z
" transform="scale(0.015625)"/>
      <path id="Poppins-SemiBold-6e" d="M 2406 3597
Q 3040 3597 3430 3197
Q 3821 2797 3821 2080
L 3821 0
L 2925 0
L 2925 1958
Q 2925 2381 2713 2608
Q 2502 2835 2138 2835
Q 1766 2835 1552 2608
Q 1338 2381 1338 1958
L 1338 0
L 442 0
L 442 3546
L 1338 3546
L 1338 3104
Q 1517 3334 1795 3465
Q 2074 3597 2406 3597
z
" transform="scale(0.015625)"/>
      <path id="Poppins-SemiBold-41" d="M 3181 851
L 1402 851
L 1107 0
L 166 0
L 1773 4474
L 2816 4474
L 4422 0
L 3475 0
L 3181 851
z
M 2938 1568
L 2291 3437
L 1645 1568
L 2938 1568
z
" transform="scale(0.015625)"/>
      <path id="Poppins-SemiBold-61" d="M 211 1786
Q 211 2323 425 2739
Q 640 3155 1008 3379
Q 1376 3603 1830 3603
Q 2227 3603 2524 3443
Q 2822 3283 3002 3040
L 3002 3546
L 3904 3546
L 3904 0
L 3002 0
L 3002 518
Q 2829 269 2525 105
Q 2221 -58 1824 -58
Q 1376 -58 1008 172
Q 640 403 425 822
Q 211 1242 211 1786
z
M 3002 1773
Q 3002 2099 2874 2332
Q 2746 2566 2528 2691
Q 2310 2816 2061 2816
Q 1811 2816 1600 2694
Q 1389 2573 1257 2339
Q 1126 2106 1126 1786
Q 1126 1466 1257 1226
Q 1389 986 1603 858
Q 1818 730 2061 730
Q 2310 730 2528 854
Q 2746 979 2874 1212
Q 3002 1446 3002 1773
z
" transform="scale(0.015625)"/>
      <path id="Poppins-SemiBold-6c" d="M 1338 4736
L 1338 0
L 442 0
L 442 4736
L 1338 4736
z
" transform="scale(0.015625)"/>
      <path id="Poppins-SemiBold-79" d="M 3834 3546
L 1638 -1677
L 685 -1677
L 1453 90
L 32 3546
L 1037 3546
L 1952 1069
L 2880 3546
L 3834 3546
z
" transform="scale(0.015625)"/>
      <path id="Poppins-SemiBold-52" d="M 2746 0
L 1760 1741
L 1338 1741
L 1338 0
L 442 0
L 442 4467
L 2118 4467
Q 2637 4467 3001 4284
Q 3366 4102 3548 3792
Q 3731 3482 3731 3098
Q 3731 2656 3475 2301
Q 3219 1946 2714 1811
L 3782 0
L 2746 0
z
M 1338 2413
L 2086 2413
Q 2451 2413 2630 2589
Q 2810 2765 2810 3078
Q 2810 3386 2630 3555
Q 2451 3725 2086 3725
L 1338 3725
L 1338 2413
z
" transform="scale(0.015625)"/>
     </defs>
     <use xlink:href="#Poppins-SemiBold-50"/>
     <use xlink:href="#Poppins-SemiBold-72" transform="translate(60.799988 0)"/>
     <use xlink:href="#Poppins-SemiBold-69" transform="translate(101.199982 0)"/>
     <use xlink:href="#Poppins-SemiBold-63" transform="translate(128.999969 0)"/>
     <use xlink:href="#Poppins-SemiBold-65" transform="translate(189.199966 0)"/>
     <use xlink:href="#Poppins-SemiBold-20" transform="translate(250.899963 0)"/>
     <use xlink:href="#Poppins-SemiBold-44" transform="translate(274.699951 0)"/>
     <use xlink:href="#Poppins-SemiBold-69" transform="translate(346.399933 0)"/>
     <use xlink:href="#Poppins-SemiBold-73" transform="translate(374.199921 0)"/>
     <use xlink:href="#Poppins-SemiBold-74" transform="translate(428.699905 0)"/>
     <use xlink:href="#Poppins-SemiBold-72" transform="translate(467.499893 0)"/>
     <use xlink:href="#Poppins-SemiBold-69" transform="translate(507.899887 0)"/>
     <use xlink:href="#Poppins-SemiBold-62" transform="translate(535.699875 0)"/>
     <use xlink:href="#Poppins-SemiBold-75" transform="translate(603.499863 0)"/>
     <use xlink:href="#Poppins-SemiBold-74" transform="translate(669.599854 0)"/>
     <use xlink:href="#Poppins-SemiBold-69" transform="translate(708.399841 0)"/>
     <use xlink:href="#Poppins-SemiBold-6f" transform="translate(736.199829 0)"/>
     <use xlink:href="#Poppins-SemiBold-6e" transform="translate(799.999817 0)"/>
     <use xlink:href="#Poppins-SemiBold-20" transform="translate(866.099808 0)"/>
     <use xlink:href="#Poppins-SemiBold-41" transform="translate(889.899796 0)"/>
     <use xlink:href="#Poppins-SemiBold-6e" transform="translate(961.499786 0)"/>
     <use xlink:href="#Poppins-SemiBold-61" transform="translate(1027.599777 0)"/>
     <use xlink:href="#Poppins-SemiBold-6c" transform="translate(1095.399765 0)"/>
     <use xlink:href="#Poppins-SemiBold-79" transform="translate(1123.199753 0)"/>
     <use xlink:href="#Poppins-SemiBold-73" transform="translate(1183.699738 0)"/>
     <use xlink:href="#Poppins-SemiBold-69" transform="translate(1238.199722 0)"/>
     <use xlink:href="#Poppins-SemiBold-73" transform="translate(1265.99971 0)"/>
     <use xlink:href="#Poppins-SemiBold-20" transform="translate(1320.499695 0)"/>
     <use xlink:href="#Poppins-SemiBold-62" transform="translate(1344.299683 0)"/>
     <use xlink:href="#Poppins-SemiBold-79" transform="translate(1412.09967 0)"/>
     <use xlink:href="#Poppins-SemiBold-20" transform="translate(1472.599655 0)"/>
     <use xlink:href="#Poppins-SemiBold-52" transform="translate(1496.399643 0)"/>
     <use xlink:href="#Poppins-SemiBold-65" transform="translate(1560.499634 0)"/>
     <use xlink:href="#Poppins-SemiBold-74" transform="translate(1622.199631 0)"/>
     <use xlink:href="#Poppins-SemiBold-61" transform="translate(1660.999619 0)"/>
     <use xlink:href="#Poppins-SemiBold-69" transform="translate(1728.799606 0)"/>
     <use xlink:href="#Poppins-SemiBold-6c" transform="translate(1756.599594 0)"/>
     <use xlink:href="#Poppins-SemiBold-65" transform="translate(1784.399582 0)"/>
     <use xlink:href="#Poppins-SemiBold-72" transform="translate(1846.099579 0)"/>
    </g>
   </g>
   <g id="legend_1">
    <g id="text_18">
     <!-- Retailers -->
     <g transform="translate(475.683418 45.439062) scale(0.1 -0.1)">
      <defs>
       <path id="DejaVuSans-52" d="M 2841 2188
Q 3044 2119 3236 1894
Q 3428 1669 3622 1275
L 4263 0
L 3584 0
L 2988 1197
Q 2756 1666 2539 1819
Q 2322 1972 1947 1972
L 1259 1972
L 1259 0
L 628 0
L 628 4666
L 2053 4666
Q 2853 4666 3247 4331
Q 3641 3997 3641 3322
Q 3641 2881 3436 2590
Q 3231 2300 2841 2188
z
M 1259 4147
L 1259 2491
L 2053 2491
Q 2509 2491 2742 2702
Q 2975 2913 2975 3322
Q 2975 3731 2742 3939
Q 2509 4147 2053 4147
L 1259 4147
z
" transform="scale(0.015625)"/>
       <path id="DejaVuSans-65" d="M 3597 1894
L 3597 1613
L 953 1613
Q 991 1019 1311 708
Q 1631 397 2203 397
Q 2534 397 2845 478
Q 3156 559 3463 722
L 3463 178
Q 3153 47 2828 -22
Q 2503 -91 2169 -91
Q 1331 -91 842 396
Q 353 884 353 1716
Q 353 2575 817 3079
Q 1281 3584 2069 3584
Q 2775 3584 3186 3129
Q 3597 2675 3597 1894
z
M 3022 2063
Q 3016 2534 2758 2815
Q 2500 3097 2075 3097
Q 1594 3097 1305 2825
Q 1016 2553 972 2059
L 3022 2063
z
" transform="scale(0.015625)"/>
       <path id="DejaVuSans-74" d="M 1172 4494
L 1172 3500
L 2356 3500
L 2356 3053
L 1172 3053
L 1172 1153
Q 1172 725 1289 603
Q 1406 481 1766 481
L 2356 481
L 2356 0
L 1766 0
Q 1100 0 847 248
Q 594 497 594 1153
L 594 3053
L 172 3053
L 172 3500
L 594 3500
L 594 4494
L 1172 4494
z
" transform="scale(0.015625)"/>
       <path id="DejaVuSans-61" d="M 2194 1759
Q 1497 1759 1228 1600
Q 959 1441 959 1056
Q 959 750 1161 570
Q 1363 391 1709 391
Q 2188 391 2477 730
Q 2766 1069 2766 1631
L 2766 1759
L 2194 1759
z
M 3341 1997
L 3341 0
L 2766 0
L 2766 531
Q 2569 213 2275 61
Q 1981 -91 1556 -91
Q 1019 -91 701 211
Q 384 513 384 1019
Q 384 1609 779 1909
Q 1175 2209 1959 2209
L 2766 2209
L 2766 2266
Q 2766 2663 2505 2880
Q 2244 3097 1772 3097
Q 1472 3097 1187 3025
Q 903 2953 641 2809
L 641 3341
Q 956 3463 1253 3523
Q 1550 3584 1831 3584
Q 2591 3584 2966 3190
Q 3341 2797 3341 1997
z
" transform="scale(0.015625)"/>
       <path id="DejaVuSans-69" d="M 603 3500
L 1178 3500
L 1178 0
L 603 0
L 603 3500
z
M 603 4863
L 1178 4863
L 1178 4134
L 603 4134
L 603 4863
z
" transform="scale(0.015625)"/>
       <path id="DejaVuSans-6c" d="M 603 4863
L 1178 4863
L 1178 0
L 603 0
L 603 4863
z
" transform="scale(0.015625)"/>
       <path id="DejaVuSans-72" d="M 2631 2963
Q 2534 3019 2420 3045
Q 2306 3072 2169 3072
Q 1681 3072 1420 2755
Q 1159 2438 1159 1844
L 1159 0
L 581 0
L 581 3500
L 1159 3500
L 1159 2956
Q 1341 3275 1631 3429
Q 1922 3584 2338 3584
Q 2397 3584 2469 3576
Q 2541 3569 2628 3553
L 2631 2963
z
" transform="scale(0.015625)"/>
       <path id="DejaVuSans-73" d="M 2834 3397
L 2834 2853
Q 2591 2978 2328 3040
Q 2066 3103 1784 3103
Q 1356 3103 1142 2972
Q 928 2841 928 2578
Q 928 2378 1081 2264
Q 1234 2150 1697 2047
L 1894 2003
Q 2506 1872 2764 1633
Q 3022 1394 3022 966
Q 3022 478 2636 193
Q 2250 -91 1575 -91
Q 1294 -91 989 -36
Q 684 19 347 128
L 347 722
Q 666 556 975 473
Q 1284 391 1588 391
Q 1994 391 2212 530
Q 2431 669 2431 922
Q 2431 1156 2273 1281
Q 2116 1406 1581 1522
L 1381 1569
Q 847 1681 609 1914
Q 372 2147 372 2553
Q 372 3047 722 3315
Q 1072 3584 1716 3584
Q 2034 3584 2315 3537
Q 2597 3491 2834 3397
z
" transform="scale(0.015625)"/>
      </defs>
      <use xlink:href="#DejaVuSans-52"/>
      <use xlink:href="#DejaVuSans-65" transform="translate(64.982422 0)"/>
      <use xlink:href="#DejaVuSans-74" transform="translate(126.505859 0)"/>
      <use xlink:href="#DejaVuSans-61" transform="translate(165.714844 0)"/>
      <use xlink:href="#DejaVuSans-69" transform="translate(226.994141 0)"/>
      <use xlink:href="#DejaVuSans-6c" transform="translate(254.777344 0)"/>
      <use xlink:href="#DejaVuSans-65" transform="translate(282.560547 0)"/>
      <use xlink:href="#DejaVuSans-72" transform="translate(344.083984 0)"/>
      <use xlink:href="#DejaVuSans-73" transform="translate(385.197266 0)"/>
     </g>
    </g>
    <g id="line2d_29">
     <defs>
      <path id="mfc7faa3e49" d="M 0 4
C 1.060812 4 2.078319 3.578535 2.828427 2.828427
C 3.578535 2.078319 4 1.060812 4 0
C 4 -1.060812 3.578535 -2.078319 2.828427 -2.828427
C 2.078319 -3.578535 1.060812 -4 0 -4
C -1.060812 -4 -2.078319 -3.578535 -2.828427 -2.828427
C -3.578535 -2.078319 -4 -1.060812 -4 0
C -4 1.060812 -3.578535 2.078319 -2.828427 2.828427
C -2.078319 3.578535 -1.060812 4 0 4
z
" style="stroke: #ffffff; stroke-opacity: 0.8"/>
     </defs>
     <g>
      <use xlink:href="#mfc7faa3e49" x="467.426387" y="56.617187" style="fill: #22c55e; fill-opacity: 0.8; stroke: #ffffff; stroke-opacity: 0.8"/>
     </g>
    </g>
    <g id="text_19">
     <!-- CVS -->
     <g transform="translate(485.426387 60.117187) scale(0.1 -0.1)">
      <defs>
       <path id="DejaVuSans-43" d="M 4122 4306
L 4122 3641
Q 3803 3938 3442 4084
Q 3081 4231 2675 4231
Q 1875 4231 1450 3742
Q 1025 3253 1025 2328
Q 1025 1406 1450 917
Q 1875 428 2675 428
Q 3081 428 3442 575
Q 3803 722 4122 1019
L 4122 359
Q 3791 134 3420 21
Q 3050 -91 2638 -91
Q 1578 -91 968 557
Q 359 1206 359 2328
Q 359 3453 968 4101
Q 1578 4750 2638 4750
Q 3056 4750 3426 4639
Q 3797 4528 4122 4306
z
" transform="scale(0.015625)"/>
       <path id="DejaVuSans-56" d="M 1831 0
L 50 4666
L 709 4666
L 2188 738
L 3669 4666
L 4325 4666
L 2547 0
L 1831 0
z
" transform="scale(0.015625)"/>
       <path id="DejaVuSans-53" d="M 3425 4513
L 3425 3897
Q 3066 4069 2747 4153
Q 2428 4238 2131 4238
Q 1616 4238 1336 4038
Q 1056 3838 1056 3469
Q 1056 3159 1242 3001
Q 1428 2844 1947 2747
L 2328 2669
Q 3034 2534 3370 2195
Q 3706 1856 3706 1288
Q 3706 609 3251 259
Q 2797 -91 1919 -91
Q 1588 -91 1214 -16
Q 841 59 441 206
L 441 856
Q 825 641 1194 531
Q 1563 422 1919 422
Q 2459 422 2753 634
Q 3047 847 3047 1241
Q 3047 1584 2836 1778
Q 2625 1972 2144 2069
L 1759 2144
Q 1053 2284 737 2584
Q 422 2884 422 3419
Q 422 4038 858 4394
Q 1294 4750 2059 4750
Q 2388 4750 2728 4690
Q 3069 4631 3425 4513
z
" transform="scale(0.015625)"/>
      </defs>
      <use xlink:href="#DejaVuSans-43"/>
      <use xlink:href="#DejaVuSans-56" transform="translate(69.824219 0)"/>
      <use xlink:href="#DejaVuSans-53" transform="translate(138.232422 0)"/>
     </g>
    </g>
    <g id="line2d_30">
     <defs>
      <path id="m1bfc618c48" d="M 0 4
C 1.060812 4 2.078319 3.578535 2.828427 2.828427
C 3.578535 2.078319 4 1.060812 4 0
C 4 -1.060812 3.578535 -2.078319 2.828427 -2.828427
C 2.078319 -3.578535 1.060812 -4 0 -4
C -1.060812 -4 -2.078319 -3.578535 -2.828427 -2.828427
C -3.578535 -2.078319 -4 -1.060812 -4 0
C -4 1.060812 -3.578535 2.078319 -2.828427 2.828427
C -2.078319 3.578535 -1.060812 4 0 4
z
" style="stroke: #ffffff; stroke-opacity: 0.8"/>
     </defs>
     <g>
      <use xlink:href="#m1bfc618c48" x="467.426387" y="71.295312" style="fill: #3b82f6; fill-opacity: 0.8; stroke: #ffffff; stroke-opacity: 0.8"/>
     </g>
    </g>
    <g id="text_20">
     <!-- Target -->
     <g transform="translate(485.426387 74.795312) scale(0.1 -0.1)">
      <defs>
       <path id="DejaVuSans-54" d="M -19 4666
L 3928 4666
L 3928 4134
L 2272 4134
L 2272 0
L 1638 0
L 1638 4134
L -19 4134
L -19 4666
z
" transform="scale(0.015625)"/>
       <path id="DejaVuSans-67" d="M 2906 1791
Q 2906 2416 2648 2759
Q 2391 3103 1925 3103
Q 1463 3103 1205 2759
Q 947 2416 947 1791
Q 947 1169 1205 825
Q 1463 481 1925 481
Q 2391 481 2648 825
Q 2906 1169 2906 1791
z
M 3481 434
Q 3481 -459 3084 -895
Q 2688 -1331 1869 -1331
Q 1566 -1331 1297 -1286
Q 1028 -1241 775 -1147
L 775 -588
Q 1028 -725 1275 -790
Q 1522 -856 1778 -856
Q 2344 -856 2625 -561
Q 2906 -266 2906 331
L 2906 616
Q 2728 306 2450 153
Q 2172 0 1784 0
Q 1141 0 747 490
Q 353 981 353 1791
Q 353 2603 747 3093
Q 1141 3584 1784 3584
Q 2172 3584 2450 3431
Q 2728 3278 2906 2969
L 2906 3500
L 3481 3500
L 3481 434
z
" transform="scale(0.015625)"/>
      </defs>
      <use xlink:href="#DejaVuSans-54"/>
      <use xlink:href="#DejaVuSans-61" transform="translate(44.583984 0)"/>
      <use xlink:href="#DejaVuSans-72" transform="translate(105.863281 0)"/>
      <use xlink:href="#DejaVuSans-67" transform="translate(145.226562 0)"/>
      <use xlink:href="#DejaVuSans-65" transform="translate(208.703125 0)"/>
      <use xlink:href="#DejaVuSans-74" transform="translate(270.226562 0)"/>
     </g>
    </g>
    <g id="line2d_31">
     <defs>
      <path id="mc7cfb607fb" d="M 0 4
C 1.060812 4 2.078319 3.578535 2.828427 2.828427
C 3.578535 2.078319 4 1.060812 4 0
C 4 -1.060812 3.578535 -2.078319 2.828427 -2.828427
C 2.078319 -3.578535 1.060812 -4 0 -4
C -1.060812 -4 -2.078319 -3.578535 -2.828427 -2.828427
C -3.578535 -2.078319 -4 -1.060812 -4 0
C -4 1.060812 -3.578535 2.078319 -2.828427 2.828427
C -2.078319 3.578535 -1.060812 4 0 4
z
" style="stroke: #ffffff; stroke-opacity: 0.8"/>
     </defs>
     <g>
      <use xlink:href="#mc7cfb607fb" x="467.426387" y="85.973437" style="fill: #ef4444; fill-opacity: 0.8; stroke: #ffffff; stroke-opacity: 0.8"/>
     </g>
    </g>
    <g id="text_21">
     <!-- Walgreens -->
     <g transform="translate(485.426387 89.473437) scale(0.1 -0.1)">
      <defs>
       <path id="DejaVuSans-57" d="M 213 4666
L 850 4666
L 1831 722
L 2809 4666
L 3519 4666
L 4500 722
L 5478 4666
L 6119 4666
L 4947 0
L 4153 0
L 3169 4050
L 2175 0
L 1381 0
L 213 4666
z
" transform="scale(0.015625)"/>
       <path id="DejaVuSans-6e" d="M 3513 2113
L 3513 0
L 2938 0
L 2938 2094
Q 2938 2591 2744 2837
Q 2550 3084 2163 3084
Q 1697 3084 1428 2787
Q 1159 2491 1159 1978
L 1159 0
L 581 0
L 581 3500
L 1159 3500
L 1159 2956
Q 1366 3272 1645 3428
Q 1925 3584 2291 3584
Q 2894 3584 3203 3211
Q 3513 2838 3513 2113
z
" transform="scale(0.015625)"/>
      </defs>
      <use xlink:href="#DejaVuSans-57"/>
      <use xlink:href="#DejaVuSans-61" transform="translate(92.501953 0)"/>
      <use xlink:href="#DejaVuSans-6c" transform="translate(153.78125 0)"/>
      <use xlink:href="#DejaVuSans-67" transform="translate(181.564453 0)"/>
      <use xlink:href="#DejaVuSans-72" transform="translate(245.041016 0)"/>
      <use xlink:href="#DejaVuSans-65" transform="translate(283.904297 0)"/>
      <use xlink:href="#DejaVuSans-65" transform="translate(345.427734 0)"/>
      <use xlink:href="#DejaVuSans-6e" transform="translate(406.951172 0)"/>
      <use xlink:href="#DejaVuSans-73" transform="translate(470.330078 0)"/>
     </g>
    </g>
    <g id="line2d_32">
     <defs>
      <path id="m632083de74" d="M 0 4
C 1.060812 4 2.078319 3.578535 2.828427 2.828427
C 3.578535 2.078319 4 1.060812 4 0
C 4 -1.060812 3.578535 -2.078319 2.828427 -2.828427
C 2.078319 -3.578535 1.060812 -4 0 -4
C -1.060812 -4 -2.078319 -3.578535 -2.828427 -2.828427
C -3.578535 -2.078319 -4 -1.060812 -4 0
C -4 1.060812 -3.578535 2.078319 -2.828427 2.828427
C -2.078319 3.578535 -1.060812 4 0 4
z
" style="stroke: #ffffff; stroke-opacity: 0.8"/>
     </defs>
     <g>
      <use xlink:href="#m632083de74" x="467.426387" y="100.651562" style="fill: #f97316; fill-opacity: 0.8; stroke: #ffffff; stroke-opacity: 0.8"/>
     </g>
    </g>
    <g id="text_22">
     <!-- Walmart -->
     <g transform="translate(485.426387 104.151562) scale(0.1 -0.1)">
      <defs>
       <path id="DejaVuSans-6d" d="M 3328 2828
Q 3544 3216 3844 3400
Q 4144 3584 4550 3584
Q 5097 3584 5394 3201
Q 5691 2819 5691 2113
L 5691 0
L 5113 0
L 5113 2094
Q 5113 2597 4934 2840
Q 4756 3084 4391 3084
Q 3944 3084 3684 2787
Q 3425 2491 3425 1978
L 3425 0
L 2847 0
L 2847 2094
Q 2847 2600 2669 2842
Q 2491 3084 2119 3084
Q 1678 3084 1418 2786
Q 1159 2488 1159 1978
L 1159 0
L 581 0
L 581 3500
L 1159 3500
L 1159 2956
Q 1356 3278 1631 3431
Q 1906 3584 2284 3584
Q 2666 3584 2933 3390
Q 3200 3197 3328 2828
z
" transform="scale(0.015625)"/>
      </defs>
      <use xlink:href="#DejaVuSans-57"/>
      <use xlink:href="#DejaVuSans-61" transform="translate(92.501953 0)"/>
      <use xlink:href="#DejaVuSans-6c" transform="translate(153.78125 0)"/>
      <use xlink:href="#DejaVuSans-6d" transform="translate(181.564453 0)"/>
      <use xlink:href="#DejaVuSans-61" transform="translate(278.976562 0)"/>
      <use xlink:href="#DejaVuSans-72" transform="translate(340.255859 0)"/>
      <use xlink:href="#DejaVuSans-74" transform="translate(381.369141 0)"/>
     </g>
    </g>
   </g>
  </g>
  <g id="text_23">
   <!-- Source: PyRetailScience -->
   <g style="fill: #696969" transform="translate(7.2 351.612937) scale(0.1 -0.1)">
    <defs>
     <path id="Poppins-LightItalic-53" d="M 1619 -45
Q 1216 -45 912 89
Q 608 224 441 467
Q 275 710 275 1024
Q 275 1107 282 1152
L 723 1152
Q 710 947 796 758
Q 883 570 1097 445
Q 1312 320 1651 320
Q 2125 320 2406 557
Q 2688 794 2688 1197
Q 2688 1440 2557 1603
Q 2426 1766 2234 1872
Q 2042 1978 1709 2112
Q 1318 2266 1088 2397
Q 858 2528 707 2758
Q 557 2989 582 3347
Q 595 3693 790 3958
Q 986 4224 1322 4374
Q 1658 4525 2086 4525
Q 2509 4525 2813 4381
Q 3117 4237 3267 3987
Q 3418 3738 3398 3437
L 2931 3437
Q 2944 3610 2851 3776
Q 2758 3942 2556 4048
Q 2355 4154 2061 4154
Q 1606 4154 1318 3933
Q 1030 3712 1030 3334
Q 1030 3110 1158 2956
Q 1286 2803 1472 2700
Q 1658 2598 1984 2464
Q 2362 2310 2595 2176
Q 2829 2042 2992 1818
Q 3155 1594 3155 1254
Q 3155 1171 3149 1126
Q 3123 800 2931 531
Q 2739 262 2403 108
Q 2067 -45 1619 -45
z
" transform="scale(0.015625)"/>
     <path id="Poppins-LightItalic-6f" d="M 1728 -51
Q 1293 -51 960 125
Q 627 301 444 624
Q 262 947 262 1382
Q 262 1971 531 2467
Q 800 2963 1280 3254
Q 1760 3546 2349 3546
Q 2784 3546 3117 3370
Q 3450 3194 3635 2870
Q 3821 2547 3821 2112
Q 3821 1517 3545 1024
Q 3270 531 2793 240
Q 2317 -51 1728 -51
z
M 1779 326
Q 2234 326 2595 569
Q 2957 813 3158 1216
Q 3360 1619 3360 2086
Q 3360 2611 3056 2886
Q 2752 3162 2285 3162
Q 1830 3162 1475 2918
Q 1120 2675 921 2272
Q 723 1869 723 1402
Q 723 883 1024 604
Q 1325 326 1779 326
z
" transform="scale(0.015625)"/>
     <path id="Poppins-LightItalic-75" d="M 3834 3494
L 3219 0
L 2771 0
L 2880 614
Q 2662 288 2316 115
Q 1971 -58 1574 -58
Q 1037 -58 710 233
Q 384 525 384 1082
Q 384 1286 416 1453
L 774 3494
L 1216 3494
L 864 1504
Q 838 1357 838 1197
Q 838 774 1072 553
Q 1306 333 1722 333
Q 2208 333 2560 630
Q 2912 928 3034 1504
L 3386 3494
L 3834 3494
z
" transform="scale(0.015625)"/>
     <path id="Poppins-LightItalic-72" d="M 1133 2797
Q 1344 3162 1683 3360
Q 2022 3558 2470 3558
L 2387 3091
L 2259 3091
Q 1798 3091 1465 2854
Q 1133 2618 1005 2074
L 640 0
L 192 0
L 806 3494
L 1254 3494
L 1133 2797
z
" transform="scale(0.015625)"/>
     <path id="Poppins-LightItalic-63" d="M 294 1747
Q 390 2291 681 2697
Q 973 3104 1395 3325
Q 1818 3546 2310 3546
Q 2957 3546 3318 3226
Q 3680 2906 3706 2355
L 3226 2355
Q 3206 2733 2947 2947
Q 2688 3162 2246 3162
Q 1702 3162 1289 2794
Q 877 2426 755 1747
Q 723 1587 723 1382
Q 723 870 1001 598
Q 1280 326 1741 326
Q 2189 326 2521 540
Q 2854 755 3014 1139
L 3494 1139
Q 3277 602 2797 275
Q 2317 -51 1677 -51
Q 1030 -51 643 320
Q 256 691 256 1338
Q 256 1536 294 1747
z
" transform="scale(0.015625)"/>
     <path id="Poppins-LightItalic-65" d="M 2330 3546
Q 2771 3546 3084 3376
Q 3398 3206 3561 2912
Q 3725 2618 3725 2240
Q 3725 2067 3699 1933
Q 3661 1741 3622 1587
L 723 1587
Q 704 1466 704 1357
Q 704 864 1001 595
Q 1299 326 1760 326
Q 2202 326 2534 537
Q 2867 749 3021 1107
L 3501 1107
Q 3283 595 2806 272
Q 2330 -51 1696 -51
Q 1043 -51 649 323
Q 256 698 256 1344
Q 256 1536 294 1747
Q 390 2291 681 2700
Q 973 3110 1401 3328
Q 1830 3546 2330 3546
z
M 3238 1920
Q 3270 2099 3270 2221
Q 3270 2675 2982 2918
Q 2694 3162 2246 3162
Q 1920 3162 1619 3021
Q 1318 2880 1094 2598
Q 870 2317 787 1920
L 3238 1920
z
" transform="scale(0.015625)"/>
     <path id="Poppins-LightItalic-3a" d="M 262 -32
Q 141 -32 64 45
Q -13 122 -13 243
Q -13 397 105 512
Q 224 627 378 627
Q 499 627 576 553
Q 653 480 653 358
Q 653 205 534 86
Q 416 -32 262 -32
z
M 262 2784
Q 141 2784 64 2861
Q -13 2938 -13 3059
Q -13 3213 105 3328
Q 224 3443 378 3443
Q 499 3443 576 3369
Q 653 3296 653 3174
Q 653 3021 534 2902
Q 416 2784 262 2784
z
" transform="scale(0.015625)"/>
     <path id="Poppins-LightItalic-20" transform="scale(0.015625)"/>
     <path id="Poppins-LightItalic-50" d="M 3616 3187
Q 3514 2611 3072 2259
Q 2630 1907 1875 1907
L 973 1907
L 640 0
L 192 0
L 979 4474
L 2330 4474
Q 2989 4474 3315 4198
Q 3642 3923 3642 3456
Q 3642 3309 3616 3187
z
M 1946 2278
Q 2995 2278 3155 3187
Q 3181 3354 3181 3424
Q 3181 4115 2266 4115
L 1363 4115
L 1043 2278
L 1946 2278
z
" transform="scale(0.015625)"/>
     <path id="Poppins-LightItalic-79" d="M 890 3494
L 1549 531
L 3219 3494
L 3686 3494
L 710 -1645
L 237 -1645
L 1210 26
L 390 3494
L 890 3494
z
" transform="scale(0.015625)"/>
     <path id="Poppins-LightItalic-52" d="M 2330 4474
Q 2989 4474 3318 4192
Q 3648 3910 3648 3437
Q 3648 3354 3622 3174
Q 3539 2688 3200 2345
Q 2861 2003 2298 1901
L 3110 0
L 2573 0
L 1798 1869
L 966 1869
L 640 0
L 192 0
L 979 4474
L 2330 4474
z
M 3155 3174
Q 3174 3302 3174 3405
Q 3174 3744 2950 3929
Q 2726 4115 2259 4115
L 1363 4115
L 1030 2227
L 1933 2227
Q 2464 2227 2771 2483
Q 3078 2739 3155 3174
z
" transform="scale(0.015625)"/>
     <path id="Poppins-LightItalic-74" d="M 934 947
Q 915 832 915 749
Q 915 544 1027 464
Q 1139 384 1395 384
L 1805 384
L 1734 0
L 1254 0
Q 858 0 659 153
Q 461 307 461 659
Q 461 800 486 947
L 870 3117
L 384 3117
L 454 3494
L 941 3494
L 1094 4371
L 1542 4371
L 1389 3494
L 2355 3494
L 2285 3117
L 1318 3117
L 934 947
z
" transform="scale(0.015625)"/>
     <path id="Poppins-LightItalic-61" d="M 294 1754
Q 390 2291 678 2697
Q 966 3104 1385 3325
Q 1805 3546 2285 3546
Q 2784 3546 3104 3315
Q 3424 3085 3520 2726
L 3654 3494
L 4102 3494
L 3488 0
L 3040 0
L 3174 774
Q 2957 416 2550 182
Q 2144 -51 1645 -51
Q 1229 -51 915 121
Q 602 294 429 611
Q 256 928 256 1357
Q 256 1542 294 1754
z
M 3347 1747
Q 3379 1926 3379 2067
Q 3379 2566 3078 2860
Q 2778 3155 2298 3155
Q 1926 3155 1603 2988
Q 1280 2822 1056 2505
Q 832 2189 755 1754
Q 723 1562 723 1427
Q 723 922 1020 630
Q 1318 339 1798 339
Q 2157 339 2486 512
Q 2816 685 3043 1005
Q 3270 1325 3347 1747
z
" transform="scale(0.015625)"/>
     <path id="Poppins-LightItalic-69" d="M 1152 4154
Q 1030 4154 953 4227
Q 877 4301 877 4422
Q 877 4589 992 4701
Q 1107 4813 1267 4813
Q 1389 4813 1462 4742
Q 1536 4672 1536 4557
Q 1536 4390 1421 4272
Q 1306 4154 1152 4154
z
M 1254 3494
L 640 0
L 192 0
L 806 3494
L 1254 3494
z
" transform="scale(0.015625)"/>
     <path id="Poppins-LightItalic-6c" d="M 1478 4736
L 640 0
L 192 0
L 1030 4736
L 1478 4736
z
" transform="scale(0.015625)"/>
     <path id="Poppins-LightItalic-6e" d="M 2464 3558
Q 3002 3558 3325 3267
Q 3648 2976 3648 2419
Q 3648 2214 3616 2048
L 3251 0
L 2810 0
L 3162 1997
Q 3187 2144 3187 2310
Q 3187 2733 2956 2950
Q 2726 3168 2310 3168
Q 1805 3168 1446 2848
Q 1088 2528 979 1907
L 979 1926
L 640 0
L 192 0
L 806 3494
L 1254 3494
L 1146 2893
Q 1370 3213 1715 3385
Q 2061 3558 2464 3558
z
" transform="scale(0.015625)"/>
    </defs>
    <use xlink:href="#Poppins-LightItalic-53"/>
    <use xlink:href="#Poppins-LightItalic-6f" transform="translate(56.599991 0)"/>
    <use xlink:href="#Poppins-LightItalic-75" transform="translate(120.799988 0)"/>
    <use xlink:href="#Poppins-LightItalic-72" transform="translate(184.099976 0)"/>
    <use xlink:href="#Poppins-LightItalic-63" transform="translate(220.299973 0)"/>
    <use xlink:href="#Poppins-LightItalic-65" transform="translate(281.59996 0)"/>
    <use xlink:href="#Poppins-LightItalic-3a" transform="translate(343.799957 0)"/>
    <use xlink:href="#Poppins-LightItalic-20" transform="translate(362.299942 0)"/>
    <use xlink:href="#Poppins-LightItalic-50" transform="translate(391.799927 0)"/>
    <use xlink:href="#Poppins-LightItalic-79" transform="translate(448.199921 0)"/>
    <use xlink:href="#Poppins-LightItalic-52" transform="translate(502.699905 0)"/>
    <use xlink:href="#Poppins-LightItalic-65" transform="translate(561.399902 0)"/>
    <use xlink:href="#Poppins-LightItalic-74" transform="translate(623.599899 0)"/>
    <use xlink:href="#Poppins-LightItalic-61" transform="translate(659.19989 0)"/>
    <use xlink:href="#Poppins-LightItalic-69" transform="translate(726.699875 0)"/>
    <use xlink:href="#Poppins-LightItalic-6c" transform="translate(749.599869 0)"/>
    <use xlink:href="#Poppins-LightItalic-53" transform="translate(772.499863 0)"/>
    <use xlink:href="#Poppins-LightItalic-63" transform="translate(829.099854 0)"/>
    <use xlink:href="#Poppins-LightItalic-69" transform="translate(890.399841 0)"/>
    <use xlink:href="#Poppins-LightItalic-65" transform="translate(913.299835 0)"/>
    <use xlink:href="#Poppins-LightItalic-6e" transform="translate(975.499832 0)"/>
    <use xlink:href="#Poppins-LightItalic-63" transform="translate(1038.79982 0)"/>
    <use xlink:href="#Poppins-LightItalic-65" transform="translate(1100.099808 0)"/>
   </g>
  </g>
 </g>
 <defs>
  <clipPath id="p6563ffe064">
   <rect x="73.450387" y="28.840625" width="357.12" height="266.112"/>
  </clipPath>
 </defs>
</svg>
