<?xml version="1.0" encoding="utf-8" standalone="no"?>
<!DOCTYPE svg PUBLIC "-//W3C//DTD SVG 1.1//EN"
  "http://www.w3.org/Graphics/SVG/1.1/DTD/svg11.dtd">
<svg xmlns:xlink="http://www.w3.org/1999/xlink" width="547.776695pt" height="395.713109pt" viewBox="0 0 547.776695 395.713109" xmlns="http://www.w3.org/2000/svg" version="1.1">
 <metadata>
  <rdf:RDF xmlns:dc="http://purl.org/dc/elements/1.1/" xmlns:cc="http://creativecommons.org/ns#" xmlns:rdf="http://www.w3.org/1999/02/22-rdf-syntax-ns#">
   <cc:Work>
    <dc:type rdf:resource="http://purl.org/dc/dcmitype/StillImage"/>
    <dc:date>2025-09-16T18:25:20.294574</dc:date>
    <dc:format>image/svg+xml</dc:format>
    <dc:creator>
     <cc:Agent>
      <dc:title>Matplotlib v3.9.1.post1, https://matplotlib.org/</dc:title>
     </cc:Agent>
    </dc:creator>
   </cc:Work>
  </rdf:RDF>
 </metadata>
 <defs>
  <style type="text/css">*{stroke-linejoin: round; stroke-linecap: butt}</style>
 </defs>
 <g id="figure_1">
  <g id="patch_1">
   <path d="M -0 395.713109
L 547.776695 395.713109
L 547.776695 0
L -0 0
z
" style="fill: #ffffff"/>
  </g>
  <g id="axes_1">
   <g id="patch_2">
    <path d="M 73.380382 294.952625
L 430.500382 294.952625
L 430.500382 28.840625
L 73.380382 28.840625
z
" style="fill: #ffffff"/>
   </g>
   <g id="matplotlib.axis_1">
    <g id="xtick_1">
     <g id="line2d_1">
      <path d="M 89.613109 294.952625
L 89.613109 28.840625
" clip-path="url(#pa287b7f1fe)" style="fill: none; stroke: #dad8d7; stroke-opacity: 0.5; stroke-width: 0.8; stroke-linecap: square"/>
     </g>
     <g id="line2d_2">
      <defs>
       <path id="m518e4b4ecb" d="M 0 0
L 0 3.5
" style="stroke: #000000; stroke-width: 0.8"/>
      </defs>
      <g>
       <use xlink:href="#m518e4b4ecb" x="89.613109" y="294.952625" style="stroke: #000000; stroke-width: 0.8"/>
      </g>
     </g>
     <g id="text_1">
      <!-- Retailer_A -->
      <g transform="translate(51.289027 343.67082) rotate(-45) scale(0.1 -0.1)">
       <defs>
        <path id="Poppins-Regular-52" d="M 2842 0
L 1779 1824
L 1075 1824
L 1075 0
L 493 0
L 493 4461
L 1933 4461
Q 2438 4461 2787 4288
Q 3136 4115 3309 3820
Q 3482 3526 3482 3149
Q 3482 2688 3216 2336
Q 2950 1984 2419 1869
L 3539 0
L 2842 0
z
M 1075 2291
L 1933 2291
Q 2406 2291 2643 2524
Q 2880 2758 2880 3149
Q 2880 3546 2646 3763
Q 2413 3981 1933 3981
L 1075 3981
L 1075 2291
z
" transform="scale(0.015625)"/>
        <path id="Poppins-Regular-65" d="M 3693 1888
Q 3693 1722 3674 1536
L 870 1536
Q 902 1018 1225 726
Q 1549 435 2010 435
Q 2387 435 2640 611
Q 2893 787 2995 1082
L 3622 1082
Q 3482 576 3059 259
Q 2637 -58 2010 -58
Q 1510 -58 1116 166
Q 723 390 499 803
Q 275 1216 275 1760
Q 275 2304 492 2713
Q 710 3123 1104 3344
Q 1498 3565 2010 3565
Q 2509 3565 2893 3347
Q 3277 3130 3485 2749
Q 3693 2368 3693 1888
z
M 3091 2010
Q 3091 2342 2944 2582
Q 2797 2822 2544 2947
Q 2291 3072 1984 3072
Q 1542 3072 1232 2790
Q 922 2509 877 2010
L 3091 2010
z
" transform="scale(0.015625)"/>
        <path id="Poppins-Regular-74" d="M 1203 3027
L 1203 960
Q 1203 704 1312 598
Q 1421 493 1690 493
L 2118 493
L 2118 0
L 1594 0
Q 1107 0 864 224
Q 621 448 621 960
L 621 3027
L 166 3027
L 166 3507
L 621 3507
L 621 4390
L 1203 4390
L 1203 3507
L 2118 3507
L 2118 3027
L 1203 3027
z
" transform="scale(0.015625)"/>
        <path id="Poppins-Regular-61" d="M 275 1766
Q 275 2304 492 2710
Q 710 3117 1091 3341
Q 1472 3565 1939 3565
Q 2400 3565 2739 3366
Q 3078 3168 3245 2867
L 3245 3507
L 3834 3507
L 3834 0
L 3245 0
L 3245 653
Q 3072 346 2729 144
Q 2387 -58 1933 -58
Q 1466 -58 1088 172
Q 710 403 492 819
Q 275 1235 275 1766
z
M 3245 1760
Q 3245 2157 3085 2451
Q 2925 2746 2653 2902
Q 2381 3059 2054 3059
Q 1728 3059 1459 2905
Q 1190 2752 1030 2457
Q 870 2163 870 1766
Q 870 1363 1030 1065
Q 1190 768 1459 611
Q 1728 454 2054 454
Q 2381 454 2653 611
Q 2925 768 3085 1065
Q 3245 1363 3245 1760
z
" transform="scale(0.015625)"/>
        <path id="Poppins-Regular-69" d="M 794 4077
Q 627 4077 512 4192
Q 397 4307 397 4474
Q 397 4640 512 4755
Q 627 4870 794 4870
Q 954 4870 1066 4755
Q 1178 4640 1178 4474
Q 1178 4307 1066 4192
Q 954 4077 794 4077
z
M 1075 3507
L 1075 0
L 493 0
L 493 3507
L 1075 3507
z
" transform="scale(0.015625)"/>
        <path id="Poppins-Regular-6c" d="M 1075 4736
L 1075 0
L 493 0
L 493 4736
L 1075 4736
z
" transform="scale(0.015625)"/>
        <path id="Poppins-Regular-72" d="M 1075 2938
Q 1229 3238 1513 3404
Q 1798 3571 2208 3571
L 2208 2970
L 2054 2970
Q 1075 2970 1075 1907
L 1075 0
L 493 0
L 493 3507
L 1075 3507
L 1075 2938
z
" transform="scale(0.015625)"/>
        <path id="Poppins-Regular-5f" d="M 4077 -243
L 4077 -781
L 672 -781
L 672 -243
L 4077 -243
z
" transform="scale(0.015625)"/>
        <path id="Poppins-Regular-41" d="M 3130 992
L 1184 992
L 826 0
L 211 0
L 1824 4435
L 2496 4435
L 4102 0
L 3488 0
L 3130 992
z
M 2963 1466
L 2157 3718
L 1350 1466
L 2963 1466
z
" transform="scale(0.015625)"/>
       </defs>
       <use xlink:href="#Poppins-Regular-52"/>
       <use xlink:href="#Poppins-Regular-65" x="60.799988"/>
       <use xlink:href="#Poppins-Regular-74" x="122.799973"/>
       <use xlink:href="#Poppins-Regular-61" x="159.199966"/>
       <use xlink:href="#Poppins-Regular-69" x="226.799957"/>
       <use xlink:href="#Poppins-Regular-6c" x="251.399948"/>
       <use xlink:href="#Poppins-Regular-65" x="275.999939"/>
       <use xlink:href="#Poppins-Regular-72" x="337.999924"/>
       <use xlink:href="#Poppins-Regular-5f" x="375.299911"/>
       <use xlink:href="#Poppins-Regular-41" x="448.599899"/>
      </g>
     </g>
    </g>
    <g id="xtick_2">
     <g id="line2d_3">
      <path d="M 197.831291 294.952625
L 197.831291 28.840625
" clip-path="url(#pa287b7f1fe)" style="fill: none; stroke: #dad8d7; stroke-opacity: 0.5; stroke-width: 0.8; stroke-linecap: square"/>
     </g>
     <g id="line2d_4">
      <g>
       <use xlink:href="#m518e4b4ecb" x="197.831291" y="294.952625" style="stroke: #000000; stroke-width: 0.8"/>
      </g>
     </g>
     <g id="text_2">
      <!-- Retailer_B -->
      <g transform="translate(159.939207 343.238822) rotate(-45) scale(0.1 -0.1)">
       <defs>
        <path id="Poppins-Regular-42" d="M 2726 2298
Q 2970 2259 3171 2099
Q 3373 1939 3491 1702
Q 3610 1466 3610 1197
Q 3610 858 3437 586
Q 3264 314 2934 157
Q 2605 0 2157 0
L 493 0
L 493 4461
L 2093 4461
Q 2547 4461 2867 4310
Q 3187 4160 3347 3904
Q 3507 3648 3507 3328
Q 3507 2931 3292 2672
Q 3078 2413 2726 2298
z
M 1075 2534
L 2054 2534
Q 2464 2534 2688 2726
Q 2912 2918 2912 3258
Q 2912 3597 2688 3789
Q 2464 3981 2042 3981
L 1075 3981
L 1075 2534
z
M 2106 480
Q 2541 480 2784 685
Q 3027 890 3027 1254
Q 3027 1626 2771 1840
Q 2515 2054 2086 2054
L 1075 2054
L 1075 480
L 2106 480
z
" transform="scale(0.015625)"/>
       </defs>
       <use xlink:href="#Poppins-Regular-52"/>
       <use xlink:href="#Poppins-Regular-65" x="60.799988"/>
       <use xlink:href="#Poppins-Regular-74" x="122.799973"/>
       <use xlink:href="#Poppins-Regular-61" x="159.199966"/>
       <use xlink:href="#Poppins-Regular-69" x="226.799957"/>
       <use xlink:href="#Poppins-Regular-6c" x="251.399948"/>
       <use xlink:href="#Poppins-Regular-65" x="275.999939"/>
       <use xlink:href="#Poppins-Regular-72" x="337.999924"/>
       <use xlink:href="#Poppins-Regular-5f" x="375.299911"/>
       <use xlink:href="#Poppins-Regular-42" x="448.599899"/>
      </g>
     </g>
    </g>
    <g id="xtick_3">
     <g id="line2d_5">
      <path d="M 306.049473 294.952625
L 306.049473 28.840625
" clip-path="url(#pa287b7f1fe)" style="fill: none; stroke: #dad8d7; stroke-opacity: 0.5; stroke-width: 0.8; stroke-linecap: square"/>
     </g>
     <g id="line2d_6">
      <g>
       <use xlink:href="#m518e4b4ecb" x="306.049473" y="294.952625" style="stroke: #000000; stroke-width: 0.8"/>
      </g>
     </g>
     <g id="text_3">
      <!-- Retailer_C -->
      <g transform="translate(267.032647 344.363564) rotate(-45) scale(0.1 -0.1)">
       <defs>
        <path id="Poppins-Regular-43" d="M 275 2234
Q 275 2886 569 3408
Q 864 3930 1373 4224
Q 1882 4518 2502 4518
Q 3232 4518 3776 4166
Q 4320 3814 4570 3168
L 3872 3168
Q 3686 3571 3337 3788
Q 2989 4006 2502 4006
Q 2035 4006 1664 3788
Q 1293 3571 1081 3171
Q 870 2771 870 2234
Q 870 1702 1081 1302
Q 1293 902 1664 684
Q 2035 467 2502 467
Q 2989 467 3337 681
Q 3686 896 3872 1299
L 4570 1299
Q 4320 659 3776 310
Q 3232 -38 2502 -38
Q 1882 -38 1373 253
Q 864 544 569 1062
Q 275 1581 275 2234
z
" transform="scale(0.015625)"/>
       </defs>
       <use xlink:href="#Poppins-Regular-52"/>
       <use xlink:href="#Poppins-Regular-65" x="60.799988"/>
       <use xlink:href="#Poppins-Regular-74" x="122.799973"/>
       <use xlink:href="#Poppins-Regular-61" x="159.199966"/>
       <use xlink:href="#Poppins-Regular-69" x="226.799957"/>
       <use xlink:href="#Poppins-Regular-6c" x="251.399948"/>
       <use xlink:href="#Poppins-Regular-65" x="275.999939"/>
       <use xlink:href="#Poppins-Regular-72" x="337.999924"/>
       <use xlink:href="#Poppins-Regular-5f" x="375.299911"/>
       <use xlink:href="#Poppins-Regular-43" x="448.599899"/>
      </g>
     </g>
    </g>
    <g id="xtick_4">
     <g id="line2d_7">
      <path d="M 414.267655 294.952625
L 414.267655 28.840625
" clip-path="url(#pa287b7f1fe)" style="fill: none; stroke: #dad8d7; stroke-opacity: 0.5; stroke-width: 0.8; stroke-linecap: square"/>
     </g>
     <g id="line2d_8">
      <g>
       <use xlink:href="#m518e4b4ecb" x="414.267655" y="294.952625" style="stroke: #000000; stroke-width: 0.8"/>
      </g>
     </g>
     <g id="text_4">
      <!-- Retailer_D -->
      <g transform="translate(375.710448 343.903945) rotate(-45) scale(0.1 -0.1)">
       <defs>
        <path id="Poppins-Regular-44" d="M 1882 4461
Q 2611 4461 3145 4189
Q 3680 3917 3965 3411
Q 4250 2906 4250 2221
Q 4250 1536 3965 1033
Q 3680 531 3145 265
Q 2611 0 1882 0
L 493 0
L 493 4461
L 1882 4461
z
M 1882 480
Q 2746 480 3200 937
Q 3654 1395 3654 2221
Q 3654 3053 3196 3520
Q 2739 3987 1882 3987
L 1075 3987
L 1075 480
L 1882 480
z
" transform="scale(0.015625)"/>
       </defs>
       <use xlink:href="#Poppins-Regular-52"/>
       <use xlink:href="#Poppins-Regular-65" x="60.799988"/>
       <use xlink:href="#Poppins-Regular-74" x="122.799973"/>
       <use xlink:href="#Poppins-Regular-61" x="159.199966"/>
       <use xlink:href="#Poppins-Regular-69" x="226.799957"/>
       <use xlink:href="#Poppins-Regular-6c" x="251.399948"/>
       <use xlink:href="#Poppins-Regular-65" x="275.999939"/>
       <use xlink:href="#Poppins-Regular-72" x="337.999924"/>
       <use xlink:href="#Poppins-Regular-5f" x="375.299911"/>
       <use xlink:href="#Poppins-Regular-44" x="448.599899"/>
      </g>
     </g>
    </g>
    <g id="text_5">
     <!-- Retailers -->
     <g transform="translate(226.29132 359.082042) scale(0.12 -0.12)">
      <defs>
       <path id="Poppins-Regular-73" d="M 1734 -58
Q 1331 -58 1011 80
Q 691 218 505 464
Q 320 710 301 1030
L 902 1030
Q 928 768 1149 601
Q 1370 435 1728 435
Q 2061 435 2253 582
Q 2445 730 2445 954
Q 2445 1184 2240 1296
Q 2035 1408 1606 1517
Q 1216 1619 969 1724
Q 723 1830 547 2038
Q 371 2246 371 2586
Q 371 2854 531 3078
Q 691 3302 985 3433
Q 1280 3565 1658 3565
Q 2240 3565 2598 3270
Q 2957 2976 2982 2464
L 2400 2464
Q 2381 2739 2179 2905
Q 1978 3072 1638 3072
Q 1325 3072 1139 2937
Q 954 2803 954 2586
Q 954 2413 1066 2301
Q 1178 2189 1347 2121
Q 1517 2054 1818 1971
Q 2195 1869 2432 1769
Q 2669 1670 2838 1472
Q 3008 1274 3014 954
Q 3014 666 2854 435
Q 2694 205 2403 73
Q 2112 -58 1734 -58
z
" transform="scale(0.015625)"/>
      </defs>
      <use xlink:href="#Poppins-Regular-52"/>
      <use xlink:href="#Poppins-Regular-65" x="60.799988"/>
      <use xlink:href="#Poppins-Regular-74" x="122.799973"/>
      <use xlink:href="#Poppins-Regular-61" x="159.199966"/>
      <use xlink:href="#Poppins-Regular-69" x="226.799957"/>
      <use xlink:href="#Poppins-Regular-6c" x="251.399948"/>
      <use xlink:href="#Poppins-Regular-65" x="275.999939"/>
      <use xlink:href="#Poppins-Regular-72" x="337.999924"/>
      <use xlink:href="#Poppins-Regular-73" x="375.299911"/>
     </g>
    </g>
   </g>
   <g id="matplotlib.axis_2">
    <g id="ytick_1">
     <g id="line2d_9">
      <path d="M 73.380382 282.856625
L 430.500382 282.856625
" clip-path="url(#pa287b7f1fe)" style="fill: none; stroke: #dad8d7; stroke-opacity: 0.5; stroke-width: 0.8; stroke-linecap: square"/>
     </g>
     <g id="line2d_10">
      <defs>
       <path id="m28a4c9ce19" d="M 0 0
L -3.5 0
" style="stroke: #000000; stroke-width: 0.8"/>
      </defs>
      <g>
       <use xlink:href="#m28a4c9ce19" x="73.380382" y="282.856625" style="stroke: #000000; stroke-width: 0.8"/>
      </g>
     </g>
     <g id="text_6">
      <!-- $1.0 - $2.6 -->
      <g transform="translate(23.980382 286.556625) scale(0.1 -0.1)">
       <defs>
        <path id="DejaVuSans-31" d="M 794 531
L 1825 531
L 1825 4091
L 703 3866
L 703 4441
L 1819 4666
L 2450 4666
L 2450 531
L 3481 531
L 3481 0
L 794 0
L 794 531
z
" transform="scale(0.015625)"/>
        <path id="DejaVuSans-2e" d="M 684 794
L 1344 794
L 1344 0
L 684 0
L 684 794
z
" transform="scale(0.015625)"/>
        <path id="DejaVuSans-30" d="M 2034 4250
Q 1547 4250 1301 3770
Q 1056 3291 1056 2328
Q 1056 1369 1301 889
Q 1547 409 2034 409
Q 2525 409 2770 889
Q 3016 1369 3016 2328
Q 3016 3291 2770 3770
Q 2525 4250 2034 4250
z
M 2034 4750
Q 2819 4750 3233 4129
Q 3647 3509 3647 2328
Q 3647 1150 3233 529
Q 2819 -91 2034 -91
Q 1250 -91 836 529
Q 422 1150 422 2328
Q 422 3509 836 4129
Q 1250 4750 2034 4750
z
" transform="scale(0.015625)"/>
        <path id="DejaVuSans-2212" d="M 678 2272
L 4684 2272
L 4684 1741
L 678 1741
L 678 2272
z
" transform="scale(0.015625)"/>
        <path id="Poppins-Regular-32" d="M 326 467
Q 1139 1120 1600 1539
Q 2061 1958 2377 2416
Q 2694 2874 2694 3315
Q 2694 3731 2492 3971
Q 2291 4211 1843 4211
Q 1408 4211 1168 3939
Q 928 3667 909 3213
L 346 3213
Q 371 3930 780 4320
Q 1190 4710 1837 4710
Q 2496 4710 2883 4345
Q 3270 3981 3270 3341
Q 3270 2810 2953 2307
Q 2637 1805 2233 1424
Q 1830 1043 1203 538
L 3405 538
L 3405 51
L 326 51
L 326 467
z
" transform="scale(0.015625)"/>
        <path id="Poppins-Regular-2e" d="M 678 -38
Q 512 -38 397 77
Q 282 192 282 358
Q 282 525 397 640
Q 512 755 678 755
Q 838 755 950 640
Q 1062 525 1062 358
Q 1062 192 950 77
Q 838 -38 678 -38
z
" transform="scale(0.015625)"/>
        <path id="Poppins-Regular-36" d="M 2976 3526
Q 2835 4237 2099 4237
Q 1530 4237 1248 3798
Q 966 3360 973 2355
Q 1120 2688 1462 2877
Q 1805 3066 2227 3066
Q 2886 3066 3280 2656
Q 3674 2246 3674 1523
Q 3674 1088 3504 742
Q 3334 397 2992 192
Q 2650 -13 2163 -13
Q 1504 -13 1133 281
Q 762 576 614 1094
Q 467 1613 467 2374
Q 467 4723 2106 4723
Q 2733 4723 3091 4384
Q 3450 4045 3514 3526
L 2976 3526
z
M 2106 2573
Q 1830 2573 1587 2461
Q 1344 2349 1193 2121
Q 1043 1894 1043 1568
Q 1043 1082 1324 778
Q 1606 474 2131 474
Q 2579 474 2844 752
Q 3110 1030 3110 1504
Q 3110 2003 2854 2288
Q 2598 2573 2106 2573
z
" transform="scale(0.015625)"/>
       </defs>
       <use xlink:href="#DejaVuSans-31" transform="translate(0 0.78125)"/>
       <use xlink:href="#DejaVuSans-2e" transform="translate(63.623047 0.78125)"/>
       <use xlink:href="#DejaVuSans-30" transform="translate(95.410156 0.78125)"/>
       <use xlink:href="#DejaVuSans-2212" transform="translate(178.515625 0.78125)"/>
       <use xlink:href="#Poppins-Regular-32" transform="translate(281.787109 0.78125)"/>
       <use xlink:href="#Poppins-Regular-2e" transform="translate(339.287094 0.78125)"/>
       <use xlink:href="#Poppins-Regular-36" transform="translate(360.287079 0.78125)"/>
      </g>
     </g>
    </g>
    <g id="ytick_2">
     <g id="line2d_11">
      <path d="M 73.380382 222.376625
L 430.500382 222.376625
" clip-path="url(#pa287b7f1fe)" style="fill: none; stroke: #dad8d7; stroke-opacity: 0.5; stroke-width: 0.8; stroke-linecap: square"/>
     </g>
     <g id="line2d_12">
      <g>
       <use xlink:href="#m28a4c9ce19" x="73.380382" y="222.376625" style="stroke: #000000; stroke-width: 0.8"/>
      </g>
     </g>
     <g id="text_7">
      <!-- $2.6 - $4.2 -->
      <g transform="translate(23.980382 226.076625) scale(0.1 -0.1)">
       <defs>
        <path id="DejaVuSans-32" d="M 1228 531
L 3431 531
L 3431 0
L 469 0
L 469 531
Q 828 903 1448 1529
Q 2069 2156 2228 2338
Q 2531 2678 2651 2914
Q 2772 3150 2772 3378
Q 2772 3750 2511 3984
Q 2250 4219 1831 4219
Q 1534 4219 1204 4116
Q 875 4013 500 3803
L 500 4441
Q 881 4594 1212 4672
Q 1544 4750 1819 4750
Q 2544 4750 2975 4387
Q 3406 4025 3406 3419
Q 3406 3131 3298 2873
Q 3191 2616 2906 2266
Q 2828 2175 2409 1742
Q 1991 1309 1228 531
z
" transform="scale(0.015625)"/>
        <path id="DejaVuSans-36" d="M 2113 2584
Q 1688 2584 1439 2293
Q 1191 2003 1191 1497
Q 1191 994 1439 701
Q 1688 409 2113 409
Q 2538 409 2786 701
Q 3034 994 3034 1497
Q 3034 2003 2786 2293
Q 2538 2584 2113 2584
z
M 3366 4563
L 3366 3988
Q 3128 4100 2886 4159
Q 2644 4219 2406 4219
Q 1781 4219 1451 3797
Q 1122 3375 1075 2522
Q 1259 2794 1537 2939
Q 1816 3084 2150 3084
Q 2853 3084 3261 2657
Q 3669 2231 3669 1497
Q 3669 778 3244 343
Q 2819 -91 2113 -91
Q 1303 -91 875 529
Q 447 1150 447 2328
Q 447 3434 972 4092
Q 1497 4750 2381 4750
Q 2619 4750 2861 4703
Q 3103 4656 3366 4563
z
" transform="scale(0.015625)"/>
        <path id="Poppins-Regular-34" d="M 256 1030
L 256 1472
L 2502 4582
L 3200 4582
L 3200 1536
L 3840 1536
L 3840 1030
L 3200 1030
L 3200 0
L 2624 0
L 2624 1030
L 256 1030
z
M 2650 3974
L 928 1536
L 2650 1536
L 2650 3974
z
" transform="scale(0.015625)"/>
       </defs>
       <use xlink:href="#DejaVuSans-32" transform="translate(0 0.78125)"/>
       <use xlink:href="#DejaVuSans-2e" transform="translate(63.623047 0.78125)"/>
       <use xlink:href="#DejaVuSans-36" transform="translate(95.410156 0.78125)"/>
       <use xlink:href="#DejaVuSans-2212" transform="translate(178.515625 0.78125)"/>
       <use xlink:href="#Poppins-Regular-34" transform="translate(281.787109 0.78125)"/>
       <use xlink:href="#Poppins-Regular-2e" transform="translate(344.687103 0.78125)"/>
       <use xlink:href="#Poppins-Regular-32" transform="translate(365.687088 0.78125)"/>
      </g>
     </g>
    </g>
    <g id="ytick_3">
     <g id="line2d_13">
      <path d="M 73.380382 161.896625
L 430.500382 161.896625
" clip-path="url(#pa287b7f1fe)" style="fill: none; stroke: #dad8d7; stroke-opacity: 0.5; stroke-width: 0.8; stroke-linecap: square"/>
     </g>
     <g id="line2d_14">
      <g>
       <use xlink:href="#m28a4c9ce19" x="73.380382" y="161.896625" style="stroke: #000000; stroke-width: 0.8"/>
      </g>
     </g>
     <g id="text_8">
      <!-- $4.2 - $5.8 -->
      <g transform="translate(23.980382 165.596625) scale(0.1 -0.1)">
       <defs>
        <path id="DejaVuSans-34" d="M 2419 4116
L 825 1625
L 2419 1625
L 2419 4116
z
M 2253 4666
L 3047 4666
L 3047 1625
L 3713 1625
L 3713 1100
L 3047 1100
L 3047 0
L 2419 0
L 2419 1100
L 313 1100
L 313 1709
L 2253 4666
z
" transform="scale(0.015625)"/>
        <path id="Poppins-Regular-35" d="M 3347 4122
L 1101 4122
L 1101 2662
Q 1248 2867 1536 2998
Q 1824 3130 2157 3130
Q 2688 3130 3021 2909
Q 3354 2688 3498 2339
Q 3642 1990 3642 1600
Q 3642 1139 3469 774
Q 3296 410 2941 198
Q 2586 -13 2061 -13
Q 1389 -13 973 332
Q 557 678 467 1254
L 1037 1254
Q 1120 890 1389 685
Q 1658 480 2067 480
Q 2573 480 2829 784
Q 3085 1088 3085 1587
Q 3085 2086 2829 2358
Q 2573 2630 2074 2630
Q 1734 2630 1481 2467
Q 1229 2304 1114 2022
L 563 2022
L 563 4634
L 3347 4634
L 3347 4122
z
" transform="scale(0.015625)"/>
        <path id="Poppins-Regular-38" d="M 1242 2406
Q 883 2547 691 2816
Q 499 3085 499 3469
Q 499 3814 672 4092
Q 845 4371 1187 4534
Q 1530 4698 2016 4698
Q 2502 4698 2844 4534
Q 3187 4371 3363 4092
Q 3539 3814 3539 3469
Q 3539 3098 3340 2819
Q 3142 2541 2797 2406
Q 3194 2285 3427 1981
Q 3661 1677 3661 1248
Q 3661 832 3456 521
Q 3251 211 2876 41
Q 2502 -128 2016 -128
Q 1530 -128 1162 41
Q 794 211 589 521
Q 384 832 384 1248
Q 384 1677 614 1984
Q 845 2291 1242 2406
z
M 2976 3398
Q 2976 3789 2720 4000
Q 2464 4211 2016 4211
Q 1574 4211 1318 4000
Q 1062 3789 1062 3392
Q 1062 3034 1328 2816
Q 1594 2598 2016 2598
Q 2445 2598 2710 2819
Q 2976 3040 2976 3398
z
M 2016 2150
Q 1542 2150 1241 1929
Q 941 1709 941 1267
Q 941 858 1232 608
Q 1523 358 2016 358
Q 2509 358 2797 608
Q 3085 858 3085 1267
Q 3085 1696 2790 1923
Q 2496 2150 2016 2150
z
" transform="scale(0.015625)"/>
       </defs>
       <use xlink:href="#DejaVuSans-34" transform="translate(0 0.78125)"/>
       <use xlink:href="#DejaVuSans-2e" transform="translate(63.623047 0.78125)"/>
       <use xlink:href="#DejaVuSans-32" transform="translate(89.910156 0.78125)"/>
       <use xlink:href="#DejaVuSans-2212" transform="translate(173.015625 0.78125)"/>
       <use xlink:href="#Poppins-Regular-35" transform="translate(276.287109 0.78125)"/>
       <use xlink:href="#Poppins-Regular-2e" transform="translate(339.087097 0.78125)"/>
       <use xlink:href="#Poppins-Regular-38" transform="translate(360.087082 0.78125)"/>
      </g>
     </g>
    </g>
    <g id="ytick_4">
     <g id="line2d_15">
      <path d="M 73.380382 101.416625
L 430.500382 101.416625
" clip-path="url(#pa287b7f1fe)" style="fill: none; stroke: #dad8d7; stroke-opacity: 0.5; stroke-width: 0.8; stroke-linecap: square"/>
     </g>
     <g id="line2d_16">
      <g>
       <use xlink:href="#m28a4c9ce19" x="73.380382" y="101.416625" style="stroke: #000000; stroke-width: 0.8"/>
      </g>
     </g>
     <g id="text_9">
      <!-- $5.8 - $7.4 -->
      <g transform="translate(24.580382 105.116625) scale(0.1 -0.1)">
       <defs>
        <path id="DejaVuSans-35" d="M 691 4666
L 3169 4666
L 3169 4134
L 1269 4134
L 1269 2991
Q 1406 3038 1543 3061
Q 1681 3084 1819 3084
Q 2600 3084 3056 2656
Q 3513 2228 3513 1497
Q 3513 744 3044 326
Q 2575 -91 1722 -91
Q 1428 -91 1123 -41
Q 819 9 494 109
L 494 744
Q 775 591 1075 516
Q 1375 441 1709 441
Q 2250 441 2565 725
Q 2881 1009 2881 1497
Q 2881 1984 2565 2268
Q 2250 2553 1709 2553
Q 1456 2553 1204 2497
Q 953 2441 691 2322
L 691 4666
z
" transform="scale(0.015625)"/>
        <path id="DejaVuSans-38" d="M 2034 2216
Q 1584 2216 1326 1975
Q 1069 1734 1069 1313
Q 1069 891 1326 650
Q 1584 409 2034 409
Q 2484 409 2743 651
Q 3003 894 3003 1313
Q 3003 1734 2745 1975
Q 2488 2216 2034 2216
z
M 1403 2484
Q 997 2584 770 2862
Q 544 3141 544 3541
Q 544 4100 942 4425
Q 1341 4750 2034 4750
Q 2731 4750 3128 4425
Q 3525 4100 3525 3541
Q 3525 3141 3298 2862
Q 3072 2584 2669 2484
Q 3125 2378 3379 2068
Q 3634 1759 3634 1313
Q 3634 634 3220 271
Q 2806 -91 2034 -91
Q 1263 -91 848 271
Q 434 634 434 1313
Q 434 1759 690 2068
Q 947 2378 1403 2484
z
M 1172 3481
Q 1172 3119 1398 2916
Q 1625 2713 2034 2713
Q 2441 2713 2670 2916
Q 2900 3119 2900 3481
Q 2900 3844 2670 4047
Q 2441 4250 2034 4250
Q 1625 4250 1398 4047
Q 1172 3844 1172 3481
z
" transform="scale(0.015625)"/>
        <path id="Poppins-Regular-37" d="M 3245 4173
L 1466 0
L 877 0
L 2682 4115
L 211 4115
L 211 4614
L 3245 4614
L 3245 4173
z
" transform="scale(0.015625)"/>
       </defs>
       <use xlink:href="#DejaVuSans-35" transform="translate(0 0.78125)"/>
       <use xlink:href="#DejaVuSans-2e" transform="translate(63.623047 0.78125)"/>
       <use xlink:href="#DejaVuSans-38" transform="translate(92.785156 0.78125)"/>
       <use xlink:href="#DejaVuSans-2212" transform="translate(175.890625 0.78125)"/>
       <use xlink:href="#Poppins-Regular-37" transform="translate(279.162109 0.78125)"/>
       <use xlink:href="#Poppins-Regular-2e" transform="translate(333.7621 0.78125)"/>
       <use xlink:href="#Poppins-Regular-34" transform="translate(354.762085 0.78125)"/>
      </g>
     </g>
    </g>
    <g id="ytick_5">
     <g id="line2d_17">
      <path d="M 73.380382 40.936625
L 430.500382 40.936625
" clip-path="url(#pa287b7f1fe)" style="fill: none; stroke: #dad8d7; stroke-opacity: 0.5; stroke-width: 0.8; stroke-linecap: square"/>
     </g>
     <g id="line2d_18">
      <g>
       <use xlink:href="#m28a4c9ce19" x="73.380382" y="40.936625" style="stroke: #000000; stroke-width: 0.8"/>
      </g>
     </g>
     <g id="text_10">
      <!-- $7.4 - $9.0 -->
      <g transform="translate(23.480382 44.636625) scale(0.1 -0.1)">
       <defs>
        <path id="DejaVuSans-37" d="M 525 4666
L 3525 4666
L 3525 4397
L 1831 0
L 1172 0
L 2766 4134
L 525 4134
L 525 4666
z
" transform="scale(0.015625)"/>
        <path id="Poppins-Regular-39" d="M 1146 1242
Q 1210 877 1443 678
Q 1677 480 2074 480
Q 2605 480 2857 896
Q 3110 1312 3098 2298
Q 2963 2010 2649 1846
Q 2336 1683 1952 1683
Q 1523 1683 1187 1859
Q 851 2035 659 2374
Q 467 2714 467 3194
Q 467 3878 864 4297
Q 1261 4717 1990 4717
Q 2886 4717 3248 4134
Q 3610 3552 3610 2400
Q 3610 1594 3466 1069
Q 3322 544 2979 269
Q 2637 -6 2042 -6
Q 1389 -6 1024 346
Q 659 698 608 1242
L 1146 1242
z
M 2048 2176
Q 2477 2176 2752 2441
Q 3027 2707 3027 3162
Q 3027 3642 2758 3936
Q 2490 4230 2003 4230
Q 1555 4230 1289 3948
Q 1024 3667 1024 3206
Q 1024 2739 1286 2457
Q 1549 2176 2048 2176
z
" transform="scale(0.015625)"/>
        <path id="Poppins-Regular-30" d="M 397 2362
Q 397 3462 755 4080
Q 1114 4698 2010 4698
Q 2899 4698 3257 4080
Q 3616 3462 3616 2362
Q 3616 1242 3257 621
Q 2899 0 2010 0
Q 1114 0 755 621
Q 397 1242 397 2362
z
M 3040 2362
Q 3040 2918 2966 3305
Q 2893 3693 2665 3929
Q 2438 4166 2010 4166
Q 1574 4166 1347 3929
Q 1120 3693 1046 3305
Q 973 2918 973 2362
Q 973 1786 1046 1395
Q 1120 1005 1347 768
Q 1574 531 2010 531
Q 2438 531 2665 768
Q 2893 1005 2966 1395
Q 3040 1786 3040 2362
z
" transform="scale(0.015625)"/>
       </defs>
       <use xlink:href="#DejaVuSans-37" transform="translate(0 0.296875)"/>
       <use xlink:href="#DejaVuSans-2e" transform="translate(63.623047 0.296875)"/>
       <use xlink:href="#DejaVuSans-34" transform="translate(95.410156 0.296875)"/>
       <use xlink:href="#DejaVuSans-2212" transform="translate(178.515625 0.296875)"/>
       <use xlink:href="#Poppins-Regular-39" transform="translate(281.787109 0.296875)"/>
       <use xlink:href="#Poppins-Regular-2e" transform="translate(344.787094 0.296875)"/>
       <use xlink:href="#Poppins-Regular-30" transform="translate(365.787079 0.296875)"/>
      </g>
     </g>
    </g>
    <g id="text_11">
     <!-- Price Bands -->
     <g transform="translate(16.360382 196.810062) rotate(-90) scale(0.12 -0.12)">
      <defs>
       <path id="Poppins-Regular-50" d="M 3475 3155
Q 3475 2598 3094 2230
Q 2714 1862 1933 1862
L 1075 1862
L 1075 0
L 493 0
L 493 4461
L 1933 4461
Q 2688 4461 3081 4096
Q 3475 3731 3475 3155
z
M 1933 2342
Q 2419 2342 2649 2553
Q 2880 2765 2880 3155
Q 2880 3981 1933 3981
L 1075 3981
L 1075 2342
L 1933 2342
z
" transform="scale(0.015625)"/>
       <path id="Poppins-Regular-63" d="M 275 1760
Q 275 2304 492 2710
Q 710 3117 1097 3341
Q 1485 3565 1984 3565
Q 2630 3565 3049 3251
Q 3469 2938 3603 2381
L 2976 2381
Q 2886 2701 2627 2886
Q 2368 3072 1984 3072
Q 1485 3072 1177 2729
Q 870 2387 870 1760
Q 870 1126 1177 780
Q 1485 435 1984 435
Q 2368 435 2624 614
Q 2880 794 2976 1126
L 3603 1126
Q 3462 589 3040 265
Q 2618 -58 1984 -58
Q 1485 -58 1097 166
Q 710 390 492 800
Q 275 1210 275 1760
z
" transform="scale(0.015625)"/>
       <path id="Poppins-Regular-20" transform="scale(0.015625)"/>
       <path id="Poppins-Regular-6e" d="M 2202 3571
Q 2842 3571 3238 3184
Q 3635 2797 3635 2067
L 3635 0
L 3059 0
L 3059 1984
Q 3059 2509 2796 2787
Q 2534 3066 2080 3066
Q 1619 3066 1347 2778
Q 1075 2490 1075 1939
L 1075 0
L 493 0
L 493 3507
L 1075 3507
L 1075 3008
Q 1248 3277 1545 3424
Q 1843 3571 2202 3571
z
" transform="scale(0.015625)"/>
       <path id="Poppins-Regular-64" d="M 275 1766
Q 275 2304 492 2710
Q 710 3117 1091 3341
Q 1472 3565 1946 3565
Q 2355 3565 2707 3376
Q 3059 3187 3245 2880
L 3245 4736
L 3834 4736
L 3834 0
L 3245 0
L 3245 659
Q 3072 346 2733 144
Q 2394 -58 1939 -58
Q 1472 -58 1091 172
Q 710 403 492 819
Q 275 1235 275 1766
z
M 3245 1760
Q 3245 2157 3085 2451
Q 2925 2746 2653 2902
Q 2381 3059 2054 3059
Q 1728 3059 1459 2905
Q 1190 2752 1030 2457
Q 870 2163 870 1766
Q 870 1363 1030 1065
Q 1190 768 1459 611
Q 1728 454 2054 454
Q 2381 454 2653 611
Q 2925 768 3085 1065
Q 3245 1363 3245 1760
z
" transform="scale(0.015625)"/>
      </defs>
      <use xlink:href="#Poppins-Regular-50"/>
      <use xlink:href="#Poppins-Regular-72" x="57.899994"/>
      <use xlink:href="#Poppins-Regular-69" x="95.199982"/>
      <use xlink:href="#Poppins-Regular-63" x="119.799973"/>
      <use xlink:href="#Poppins-Regular-65" x="180.499969"/>
      <use xlink:href="#Poppins-Regular-20" x="242.499954"/>
      <use xlink:href="#Poppins-Regular-42" x="269.199951"/>
      <use xlink:href="#Poppins-Regular-61" x="330.499939"/>
      <use xlink:href="#Poppins-Regular-6e" x="398.09993"/>
      <use xlink:href="#Poppins-Regular-64" x="462.099915"/>
      <use xlink:href="#Poppins-Regular-73" x="529.699905"/>
     </g>
    </g>
   </g>
   <g id="PathCollection_1">
    <defs>
     <path id="m376fa59638" d="M 0 14.142136
C 3.750538 14.142136 7.347969 12.652031 10 10
C 12.652031 7.347969 14.142136 3.750538 14.142136 0
C 14.142136 -3.750538 12.652031 -7.347969 10 -10
C 7.347969 -12.652031 3.750538 -14.142136 0 -14.142136
C -3.750538 -14.142136 -7.347969 -12.652031 -10 -10
C -12.652031 -7.347969 -14.142136 -3.750538 -14.142136 0
C -14.142136 3.750538 -12.652031 7.347969 -10 10
C -7.347969 12.652031 -3.750538 14.142136 0 14.142136
z
" style="stroke: #ffffff; stroke-opacity: 0.7; stroke-width: 1.5"/>
    </defs>
    <g clip-path="url(#pa287b7f1fe)">
     <use xlink:href="#m376fa59638" x="89.613109" y="282.856625" style="fill: #22c55e; fill-opacity: 0.7; stroke: #ffffff; stroke-opacity: 0.7; stroke-width: 1.5"/>
    </g>
   </g>
   <g id="PathCollection_2">
    <defs>
     <path id="md5426b05bb" d="M 0 6.172134
C 1.636869 6.172134 3.206917 5.521799 4.364358 4.364358
C 5.521799 3.206917 6.172134 1.636869 6.172134 0
C 6.172134 -1.636869 5.521799 -3.206917 4.364358 -4.364358
C 3.206917 -5.521799 1.636869 -6.172134 0 -6.172134
C -1.636869 -6.172134 -3.206917 -5.521799 -4.364358 -4.364358
C -5.521799 -3.206917 -6.172134 -1.636869 -6.172134 0
C -6.172134 1.636869 -5.521799 3.206917 -4.364358 4.364358
C -3.206917 5.521799 -1.636869 6.172134 0 6.172134
z
" style="stroke: #ffffff; stroke-opacity: 0.7; stroke-width: 1.5"/>
    </defs>
    <g clip-path="url(#pa287b7f1fe)">
     <use xlink:href="#md5426b05bb" x="89.613109" y="222.376625" style="fill: #22c55e; fill-opacity: 0.7; stroke: #ffffff; stroke-opacity: 0.7; stroke-width: 1.5"/>
    </g>
   </g>
   <g id="PathCollection_3">
    <defs>
     <path id="me4567cb8ad" d="M 0 8.728716
C 2.314882 8.728716 4.535265 7.809003 6.172134 6.172134
C 7.809003 4.535265 8.728716 2.314882 8.728716 0
C 8.728716 -2.314882 7.809003 -4.535265 6.172134 -6.172134
C 4.535265 -7.809003 2.314882 -8.728716 0 -8.728716
C -2.314882 -8.728716 -4.535265 -7.809003 -6.172134 -6.172134
C -7.809003 -4.535265 -8.728716 -2.314882 -8.728716 0
C -8.728716 2.314882 -7.809003 4.535265 -6.172134 6.172134
C -4.535265 7.809003 -2.314882 8.728716 0 8.728716
z
" style="stroke: #ffffff; stroke-opacity: 0.7; stroke-width: 1.5"/>
    </defs>
    <g clip-path="url(#pa287b7f1fe)">
     <use xlink:href="#me4567cb8ad" x="197.831291" y="282.856625" style="fill: #3b82f6; fill-opacity: 0.7; stroke: #ffffff; stroke-opacity: 0.7; stroke-width: 1.5"/>
    </g>
   </g>
   <g id="PathCollection_4">
    <defs>
     <path id="ma9b9b8bab8" d="M 0 10.69045
C 2.83514 10.69045 5.554542 9.564036 7.559289 7.559289
C 9.564036 5.554542 10.69045 2.83514 10.69045 0
C 10.69045 -2.83514 9.564036 -5.554542 7.559289 -7.559289
C 5.554542 -9.564036 2.83514 -10.69045 0 -10.69045
C -2.83514 -10.69045 -5.554542 -9.564036 -7.559289 -7.559289
C -9.564036 -5.554542 -10.69045 -2.83514 -10.69045 0
C -10.69045 2.83514 -9.564036 5.554542 -7.559289 7.559289
C -5.554542 9.564036 -2.83514 10.69045 0 10.69045
z
" style="stroke: #ffffff; stroke-opacity: 0.7; stroke-width: 1.5"/>
    </defs>
    <g clip-path="url(#pa287b7f1fe)">
     <use xlink:href="#ma9b9b8bab8" x="197.831291" y="222.376625" style="fill: #3b82f6; fill-opacity: 0.7; stroke: #ffffff; stroke-opacity: 0.7; stroke-width: 1.5"/>
    </g>
   </g>
   <g id="PathCollection_5">
    <defs>
     <path id="ma873744436" d="M 0 6.900656
C 1.830075 6.900656 3.585442 6.173559 4.8795 4.8795
C 6.173559 3.585442 6.900656 1.830075 6.900656 0
C 6.900656 -1.830075 6.173559 -3.585442 4.8795 -4.8795
C 3.585442 -6.173559 1.830075 -6.900656 0 -6.900656
C -1.830075 -6.900656 -3.585442 -6.173559 -4.8795 -4.8795
C -6.173559 -3.585442 -6.900656 -1.830075 -6.900656 0
C -6.900656 1.830075 -6.173559 3.585442 -4.8795 4.8795
C -3.585442 6.173559 -1.830075 6.900656 0 6.900656
z
" style="stroke: #ffffff; stroke-opacity: 0.7; stroke-width: 1.5"/>
    </defs>
    <g clip-path="url(#pa287b7f1fe)">
     <use xlink:href="#ma873744436" x="197.831291" y="161.896625" style="fill: #3b82f6; fill-opacity: 0.7; stroke: #ffffff; stroke-opacity: 0.7; stroke-width: 1.5"/>
    </g>
   </g>
   <g id="PathCollection_6">
    <defs>
     <path id="m758949b12a" d="M 0 4.364358
C 1.157441 4.364358 2.267632 3.904502 3.086067 3.086067
C 3.904502 2.267632 4.364358 1.157441 4.364358 0
C 4.364358 -1.157441 3.904502 -2.267632 3.086067 -3.086067
C 2.267632 -3.904502 1.157441 -4.364358 0 -4.364358
C -1.157441 -4.364358 -2.267632 -3.904502 -3.086067 -3.086067
C -3.904502 -2.267632 -4.364358 -1.157441 -4.364358 0
C -4.364358 1.157441 -3.904502 2.267632 -3.086067 3.086067
C -2.267632 3.904502 -1.157441 4.364358 0 4.364358
z
" style="stroke: #ffffff; stroke-opacity: 0.7; stroke-width: 1.5"/>
    </defs>
    <g clip-path="url(#pa287b7f1fe)">
     <use xlink:href="#m758949b12a" x="306.049473" y="222.376625" style="fill: #ef4444; fill-opacity: 0.7; stroke: #ffffff; stroke-opacity: 0.7; stroke-width: 1.5"/>
    </g>
   </g>
   <g id="PathCollection_7">
    <defs>
     <path id="m8d6f5d6b70" d="M 0 9.759001
C 2.588117 9.759001 5.07058 8.730731 6.900656 6.900656
C 8.730731 5.07058 9.759001 2.588117 9.759001 0
C 9.759001 -2.588117 8.730731 -5.07058 6.900656 -6.900656
C 5.07058 -8.730731 2.588117 -9.759001 0 -9.759001
C -2.588117 -9.759001 -5.07058 -8.730731 -6.900656 -6.900656
C -8.730731 -5.07058 -9.759001 -2.588117 -9.759001 0
C -9.759001 2.588117 -8.730731 5.07058 -6.900656 6.900656
C -5.07058 8.730731 -2.588117 9.759001 0 9.759001
z
" style="stroke: #ffffff; stroke-opacity: 0.7; stroke-width: 1.5"/>
    </defs>
    <g clip-path="url(#pa287b7f1fe)">
     <use xlink:href="#m8d6f5d6b70" x="306.049473" y="161.896625" style="fill: #ef4444; fill-opacity: 0.7; stroke: #ffffff; stroke-opacity: 0.7; stroke-width: 1.5"/>
    </g>
   </g>
   <g id="PathCollection_8">
    <defs>
     <path id="m9291c38124" d="M 0 8.728716
C 2.314882 8.728716 4.535265 7.809003 6.172134 6.172134
C 7.809003 4.535265 8.728716 2.314882 8.728716 0
C 8.728716 -2.314882 7.809003 -4.535265 6.172134 -6.172134
C 4.535265 -7.809003 2.314882 -8.728716 0 -8.728716
C -2.314882 -8.728716 -4.535265 -7.809003 -6.172134 -6.172134
C -7.809003 -4.535265 -8.728716 -2.314882 -8.728716 0
C -8.728716 2.314882 -7.809003 4.535265 -6.172134 6.172134
C -4.535265 7.809003 -2.314882 8.728716 0 8.728716
z
" style="stroke: #ffffff; stroke-opacity: 0.7; stroke-width: 1.5"/>
    </defs>
    <g clip-path="url(#pa287b7f1fe)">
     <use xlink:href="#m9291c38124" x="306.049473" y="101.416625" style="fill: #ef4444; fill-opacity: 0.7; stroke: #ffffff; stroke-opacity: 0.7; stroke-width: 1.5"/>
    </g>
   </g>
   <g id="PathCollection_9">
    <defs>
     <path id="mb2d0a40eda" d="M 0 6.900656
C 1.830075 6.900656 3.585442 6.173559 4.8795 4.8795
C 6.173559 3.585442 6.900656 1.830075 6.900656 0
C 6.900656 -1.830075 6.173559 -3.585442 4.8795 -4.8795
C 3.585442 -6.173559 1.830075 -6.900656 0 -6.900656
C -1.830075 -6.900656 -3.585442 -6.173559 -4.8795 -4.8795
C -6.173559 -3.585442 -6.900656 -1.830075 -6.900656 0
C -6.900656 1.830075 -6.173559 3.585442 -4.8795 4.8795
C -3.585442 6.173559 -1.830075 6.900656 0 6.900656
z
" style="stroke: #ffffff; stroke-opacity: 0.7; stroke-width: 1.5"/>
    </defs>
    <g clip-path="url(#pa287b7f1fe)">
     <use xlink:href="#mb2d0a40eda" x="306.049473" y="40.936625" style="fill: #ef4444; fill-opacity: 0.7; stroke: #ffffff; stroke-opacity: 0.7; stroke-width: 1.5"/>
    </g>
   </g>
   <g id="PathCollection_10">
    <defs>
     <path id="mc8f4d54a85" d="M 0 7.559289
C 2.004747 7.559289 3.927655 6.762795 5.345225 5.345225
C 6.762795 3.927655 7.559289 2.004747 7.559289 0
C 7.559289 -2.004747 6.762795 -3.927655 5.345225 -5.345225
C 3.927655 -6.762795 2.004747 -7.559289 0 -7.559289
C -2.004747 -7.559289 -3.927655 -6.762795 -5.345225 -5.345225
C -6.762795 -3.927655 -7.559289 -2.004747 -7.559289 0
C -7.559289 2.004747 -6.762795 3.927655 -5.345225 5.345225
C -3.927655 6.762795 -2.004747 7.559289 0 7.559289
z
" style="stroke: #ffffff; stroke-opacity: 0.7; stroke-width: 1.5"/>
    </defs>
    <g clip-path="url(#pa287b7f1fe)">
     <use xlink:href="#mc8f4d54a85" x="414.267655" y="282.856625" style="fill: #f97316; fill-opacity: 0.7; stroke: #ffffff; stroke-opacity: 0.7; stroke-width: 1.5"/>
    </g>
   </g>
   <g id="PathCollection_11">
    <defs>
     <path id="mfe08248019" d="M 0 5.345225
C 1.41757 5.345225 2.777271 4.782018 3.779645 3.779645
C 4.782018 2.777271 5.345225 1.41757 5.345225 0
C 5.345225 -1.41757 4.782018 -2.777271 3.779645 -3.779645
C 2.777271 -4.782018 1.41757 -5.345225 0 -5.345225
C -1.41757 -5.345225 -2.777271 -4.782018 -3.779645 -3.779645
C -4.782018 -2.777271 -5.345225 -1.41757 -5.345225 0
C -5.345225 1.41757 -4.782018 2.777271 -3.779645 3.779645
C -2.777271 4.782018 -1.41757 5.345225 0 5.345225
z
" style="stroke: #ffffff; stroke-opacity: 0.7; stroke-width: 1.5"/>
    </defs>
    <g clip-path="url(#pa287b7f1fe)">
     <use xlink:href="#mfe08248019" x="414.267655" y="222.376625" style="fill: #f97316; fill-opacity: 0.7; stroke: #ffffff; stroke-opacity: 0.7; stroke-width: 1.5"/>
    </g>
   </g>
   <g id="PathCollection_12">
    <defs>
     <path id="m29b27ce688" d="M 0 6.900656
C 1.830075 6.900656 3.585442 6.173559 4.8795 4.8795
C 6.173559 3.585442 6.900656 1.830075 6.900656 0
C 6.900656 -1.830075 6.173559 -3.585442 4.8795 -4.8795
C 3.585442 -6.173559 1.830075 -6.900656 0 -6.900656
C -1.830075 -6.900656 -3.585442 -6.173559 -4.8795 -4.8795
C -6.173559 -3.585442 -6.900656 -1.830075 -6.900656 0
C -6.900656 1.830075 -6.173559 3.585442 -4.8795 4.8795
C -3.585442 6.173559 -1.830075 6.900656 0 6.900656
z
" style="stroke: #ffffff; stroke-opacity: 0.7; stroke-width: 1.5"/>
    </defs>
    <g clip-path="url(#pa287b7f1fe)">
     <use xlink:href="#m29b27ce688" x="414.267655" y="161.896625" style="fill: #f97316; fill-opacity: 0.7; stroke: #ffffff; stroke-opacity: 0.7; stroke-width: 1.5"/>
    </g>
   </g>
   <g id="PathCollection_13">
    <g clip-path="url(#pa287b7f1fe)">
     <use xlink:href="#mfe08248019" x="414.267655" y="101.416625" style="fill: #f97316; fill-opacity: 0.7; stroke: #ffffff; stroke-opacity: 0.7; stroke-width: 1.5"/>
    </g>
   </g>
   <g id="PathCollection_14">
    <defs>
     <path id="m29748bff9a" d="M 0 8.728716
C 2.314882 8.728716 4.535265 7.809003 6.172134 6.172134
C 7.809003 4.535265 8.728716 2.314882 8.728716 0
C 8.728716 -2.314882 7.809003 -4.535265 6.172134 -6.172134
C 4.535265 -7.809003 2.314882 -8.728716 0 -8.728716
C -2.314882 -8.728716 -4.535265 -7.809003 -6.172134 -6.172134
C -7.809003 -4.535265 -8.728716 -2.314882 -8.728716 0
C -8.728716 2.314882 -7.809003 4.535265 -6.172134 6.172134
C -4.535265 7.809003 -2.314882 8.728716 0 8.728716
z
" style="stroke: #ffffff; stroke-opacity: 0.7; stroke-width: 1.5"/>
    </defs>
    <g clip-path="url(#pa287b7f1fe)">
     <use xlink:href="#m29748bff9a" x="414.267655" y="40.936625" style="fill: #f97316; fill-opacity: 0.7; stroke: #ffffff; stroke-opacity: 0.7; stroke-width: 1.5"/>
    </g>
   </g>
   <g id="patch_3">
    <path d="M 73.380382 294.952625
L 73.380382 28.840625
" style="fill: none; stroke: #000000; stroke-width: 0.8; stroke-linejoin: miter; stroke-linecap: square"/>
   </g>
   <g id="patch_4">
    <path d="M 73.380382 294.952625
L 430.500382 294.952625
" style="fill: none; stroke: #000000; stroke-width: 0.8; stroke-linejoin: miter; stroke-linecap: square"/>
   </g>
   <g id="text_12">
    <!-- Price Distribution Analysis by Retailer -->
    <g transform="translate(63.296632 22.840625) scale(0.2 -0.2)">
     <defs>
      <path id="Poppins-SemiBold-50" d="M 3699 3085
Q 3699 2726 3529 2412
Q 3360 2099 2998 1907
Q 2637 1715 2086 1715
L 1338 1715
L 1338 0
L 442 0
L 442 4467
L 2086 4467
Q 2605 4467 2969 4288
Q 3334 4109 3516 3795
Q 3699 3482 3699 3085
z
M 2048 2438
Q 2419 2438 2598 2608
Q 2778 2778 2778 3085
Q 2778 3738 2048 3738
L 1338 3738
L 1338 2438
L 2048 2438
z
" transform="scale(0.015625)"/>
      <path id="Poppins-SemiBold-72" d="M 1338 2995
Q 1510 3277 1788 3437
Q 2067 3597 2426 3597
L 2426 2656
L 2189 2656
Q 1766 2656 1552 2457
Q 1338 2259 1338 1766
L 1338 0
L 442 0
L 442 3546
L 1338 3546
L 1338 2995
z
" transform="scale(0.015625)"/>
      <path id="Poppins-SemiBold-69" d="M 896 3968
Q 659 3968 502 4118
Q 346 4269 346 4493
Q 346 4717 502 4867
Q 659 5018 896 5018
Q 1133 5018 1289 4867
Q 1446 4717 1446 4493
Q 1446 4269 1289 4118
Q 1133 3968 896 3968
z
M 1338 3546
L 1338 0
L 442 0
L 442 3546
L 1338 3546
z
" transform="scale(0.015625)"/>
      <path id="Poppins-SemiBold-63" d="M 211 1773
Q 211 2323 435 2736
Q 659 3149 1056 3376
Q 1453 3603 1965 3603
Q 2624 3603 3056 3273
Q 3488 2944 3635 2349
L 2669 2349
Q 2592 2579 2409 2710
Q 2227 2842 1958 2842
Q 1574 2842 1350 2563
Q 1126 2285 1126 1773
Q 1126 1267 1350 988
Q 1574 710 1958 710
Q 2502 710 2669 1197
L 3635 1197
Q 3488 621 3053 281
Q 2618 -58 1965 -58
Q 1453 -58 1056 169
Q 659 397 435 809
Q 211 1222 211 1773
z
" transform="scale(0.015625)"/>
      <path id="Poppins-SemiBold-65" d="M 3738 1850
Q 3738 1658 3712 1504
L 1120 1504
Q 1152 1120 1389 902
Q 1626 685 1971 685
Q 2470 685 2682 1114
L 3648 1114
Q 3494 602 3059 272
Q 2624 -58 1990 -58
Q 1478 -58 1072 169
Q 666 397 438 813
Q 211 1229 211 1773
Q 211 2323 435 2739
Q 659 3155 1062 3379
Q 1466 3603 1990 3603
Q 2496 3603 2896 3385
Q 3296 3168 3517 2768
Q 3738 2368 3738 1850
z
M 2810 2106
Q 2803 2451 2560 2659
Q 2317 2867 1965 2867
Q 1632 2867 1405 2665
Q 1178 2464 1126 2106
L 2810 2106
z
" transform="scale(0.015625)"/>
      <path id="Poppins-SemiBold-20" transform="scale(0.015625)"/>
      <path id="Poppins-SemiBold-44" d="M 2003 4467
Q 2707 4467 3241 4192
Q 3776 3917 4067 3408
Q 4358 2899 4358 2227
Q 4358 1555 4067 1052
Q 3776 550 3241 275
Q 2707 0 2003 0
L 442 0
L 442 4467
L 2003 4467
z
M 1971 762
Q 2675 762 3059 1146
Q 3443 1530 3443 2227
Q 3443 2925 3059 3318
Q 2675 3712 1971 3712
L 1338 3712
L 1338 762
L 1971 762
z
" transform="scale(0.015625)"/>
      <path id="Poppins-SemiBold-73" d="M 1798 -58
Q 1363 -58 1017 99
Q 672 256 470 525
Q 269 794 250 1120
L 1152 1120
Q 1178 915 1354 780
Q 1530 646 1792 646
Q 2048 646 2192 748
Q 2336 851 2336 1011
Q 2336 1184 2160 1270
Q 1984 1357 1600 1459
Q 1203 1555 950 1657
Q 698 1760 515 1971
Q 333 2182 333 2541
Q 333 2835 502 3078
Q 672 3322 989 3462
Q 1306 3603 1734 3603
Q 2368 3603 2745 3286
Q 3123 2970 3162 2432
L 2304 2432
Q 2285 2643 2128 2768
Q 1971 2893 1709 2893
Q 1466 2893 1334 2803
Q 1203 2714 1203 2554
Q 1203 2374 1382 2281
Q 1562 2189 1939 2093
Q 2323 1997 2572 1894
Q 2822 1792 3004 1577
Q 3187 1363 3194 1011
Q 3194 704 3024 461
Q 2854 218 2537 80
Q 2221 -58 1798 -58
z
" transform="scale(0.015625)"/>
      <path id="Poppins-SemiBold-74" d="M 1485 2810
L 1485 1094
Q 1485 915 1571 835
Q 1658 755 1862 755
L 2278 755
L 2278 0
L 1715 0
Q 582 0 582 1101
L 582 2810
L 160 2810
L 160 3546
L 582 3546
L 582 4422
L 1485 4422
L 1485 3546
L 2278 3546
L 2278 2810
L 1485 2810
z
" transform="scale(0.015625)"/>
      <path id="Poppins-SemiBold-62" d="M 1338 3027
Q 1510 3283 1814 3443
Q 2118 3603 2509 3603
Q 2963 3603 3331 3379
Q 3699 3155 3913 2742
Q 4128 2330 4128 1786
Q 4128 1242 3913 822
Q 3699 403 3331 172
Q 2963 -58 2509 -58
Q 2112 -58 1814 99
Q 1517 256 1338 506
L 1338 0
L 442 0
L 442 4736
L 1338 4736
L 1338 3027
z
M 3213 1786
Q 3213 2106 3081 2339
Q 2950 2573 2736 2694
Q 2522 2816 2272 2816
Q 2029 2816 1814 2691
Q 1600 2566 1469 2329
Q 1338 2093 1338 1773
Q 1338 1453 1469 1216
Q 1600 979 1814 854
Q 2029 730 2272 730
Q 2522 730 2736 858
Q 2950 986 3081 1222
Q 3213 1459 3213 1786
z
" transform="scale(0.015625)"/>
      <path id="Poppins-SemiBold-75" d="M 3789 3546
L 3789 0
L 2886 0
L 2886 448
Q 2714 218 2435 86
Q 2157 -45 1830 -45
Q 1414 -45 1094 131
Q 774 307 592 649
Q 410 992 410 1466
L 410 3546
L 1306 3546
L 1306 1594
Q 1306 1171 1517 944
Q 1728 717 2093 717
Q 2464 717 2675 944
Q 2886 1171 2886 1594
L 2886 3546
L 3789 3546
z
" transform="scale(0.015625)"/>
      <path id="Poppins-SemiBold-6f" d="M 2016 -58
Q 1504 -58 1094 169
Q 685 397 451 813
Q 218 1229 218 1773
Q 218 2317 458 2733
Q 698 3149 1114 3376
Q 1530 3603 2042 3603
Q 2554 3603 2970 3376
Q 3386 3149 3626 2733
Q 3866 2317 3866 1773
Q 3866 1229 3619 813
Q 3373 397 2953 169
Q 2534 -58 2016 -58
z
M 2016 723
Q 2259 723 2473 841
Q 2688 960 2816 1197
Q 2944 1434 2944 1773
Q 2944 2278 2678 2550
Q 2413 2822 2029 2822
Q 1645 2822 1385 2550
Q 1126 2278 1126 1773
Q 1126 1267 1379 995
Q 1632 723 2016 723
z
" transform="scale(0.015625)"/>
      <path id="Poppins-SemiBold-6e" d="M 2406 3597
Q 3040 3597 3430 3197
Q 3821 2797 3821 2080
L 3821 0
L 2925 0
L 2925 1958
Q 2925 2381 2713 2608
Q 2502 2835 2138 2835
Q 1766 2835 1552 2608
Q 1338 2381 1338 1958
L 1338 0
L 442 0
L 442 3546
L 1338 3546
L 1338 3104
Q 1517 3334 1795 3465
Q 2074 3597 2406 3597
z
" transform="scale(0.015625)"/>
      <path id="Poppins-SemiBold-41" d="M 3181 851
L 1402 851
L 1107 0
L 166 0
L 1773 4474
L 2816 4474
L 4422 0
L 3475 0
L 3181 851
z
M 2938 1568
L 2291 3437
L 1645 1568
L 2938 1568
z
" transform="scale(0.015625)"/>
      <path id="Poppins-SemiBold-61" d="M 211 1786
Q 211 2323 425 2739
Q 640 3155 1008 3379
Q 1376 3603 1830 3603
Q 2227 3603 2524 3443
Q 2822 3283 3002 3040
L 3002 3546
L 3904 3546
L 3904 0
L 3002 0
L 3002 518
Q 2829 269 2525 105
Q 2221 -58 1824 -58
Q 1376 -58 1008 172
Q 640 403 425 822
Q 211 1242 211 1786
z
M 3002 1773
Q 3002 2099 2874 2332
Q 2746 2566 2528 2691
Q 2310 2816 2061 2816
Q 1811 2816 1600 2694
Q 1389 2573 1257 2339
Q 1126 2106 1126 1786
Q 1126 1466 1257 1226
Q 1389 986 1603 858
Q 1818 730 2061 730
Q 2310 730 2528 854
Q 2746 979 2874 1212
Q 3002 1446 3002 1773
z
" transform="scale(0.015625)"/>
      <path id="Poppins-SemiBold-6c" d="M 1338 4736
L 1338 0
L 442 0
L 442 4736
L 1338 4736
z
" transform="scale(0.015625)"/>
      <path id="Poppins-SemiBold-79" d="M 3834 3546
L 1638 -1677
L 685 -1677
L 1453 90
L 32 3546
L 1037 3546
L 1952 1069
L 2880 3546
L 3834 3546
z
" transform="scale(0.015625)"/>
      <path id="Poppins-SemiBold-52" d="M 2746 0
L 1760 1741
L 1338 1741
L 1338 0
L 442 0
L 442 4467
L 2118 4467
Q 2637 4467 3001 4284
Q 3366 4102 3548 3792
Q 3731 3482 3731 3098
Q 3731 2656 3475 2301
Q 3219 1946 2714 1811
L 3782 0
L 2746 0
z
M 1338 2413
L 2086 2413
Q 2451 2413 2630 2589
Q 2810 2765 2810 3078
Q 2810 3386 2630 3555
Q 2451 3725 2086 3725
L 1338 3725
L 1338 2413
z
" transform="scale(0.015625)"/>
     </defs>
     <use xlink:href="#Poppins-SemiBold-50"/>
     <use xlink:href="#Poppins-SemiBold-72" x="60.799988"/>
     <use xlink:href="#Poppins-SemiBold-69" x="101.199982"/>
     <use xlink:href="#Poppins-SemiBold-63" x="128.999969"/>
     <use xlink:href="#Poppins-SemiBold-65" x="189.199966"/>
     <use xlink:href="#Poppins-SemiBold-20" x="250.899963"/>
     <use xlink:href="#Poppins-SemiBold-44" x="274.699951"/>
     <use xlink:href="#Poppins-SemiBold-69" x="346.399933"/>
     <use xlink:href="#Poppins-SemiBold-73" x="374.199921"/>
     <use xlink:href="#Poppins-SemiBold-74" x="428.699905"/>
     <use xlink:href="#Poppins-SemiBold-72" x="467.499893"/>
     <use xlink:href="#Poppins-SemiBold-69" x="507.899887"/>
     <use xlink:href="#Poppins-SemiBold-62" x="535.699875"/>
     <use xlink:href="#Poppins-SemiBold-75" x="603.499863"/>
     <use xlink:href="#Poppins-SemiBold-74" x="669.599854"/>
     <use xlink:href="#Poppins-SemiBold-69" x="708.399841"/>
     <use xlink:href="#Poppins-SemiBold-6f" x="736.199829"/>
     <use xlink:href="#Poppins-SemiBold-6e" x="799.999817"/>
     <use xlink:href="#Poppins-SemiBold-20" x="866.099808"/>
     <use xlink:href="#Poppins-SemiBold-41" x="889.899796"/>
     <use xlink:href="#Poppins-SemiBold-6e" x="961.499786"/>
     <use xlink:href="#Poppins-SemiBold-61" x="1027.599777"/>
     <use xlink:href="#Poppins-SemiBold-6c" x="1095.399765"/>
     <use xlink:href="#Poppins-SemiBold-79" x="1123.199753"/>
     <use xlink:href="#Poppins-SemiBold-73" x="1183.699738"/>
     <use xlink:href="#Poppins-SemiBold-69" x="1238.199722"/>
     <use xlink:href="#Poppins-SemiBold-73" x="1265.99971"/>
     <use xlink:href="#Poppins-SemiBold-20" x="1320.499695"/>
     <use xlink:href="#Poppins-SemiBold-62" x="1344.299683"/>
     <use xlink:href="#Poppins-SemiBold-79" x="1412.09967"/>
     <use xlink:href="#Poppins-SemiBold-20" x="1472.599655"/>
     <use xlink:href="#Poppins-SemiBold-52" x="1496.399643"/>
     <use xlink:href="#Poppins-SemiBold-65" x="1560.499634"/>
     <use xlink:href="#Poppins-SemiBold-74" x="1622.199631"/>
     <use xlink:href="#Poppins-SemiBold-61" x="1660.999619"/>
     <use xlink:href="#Poppins-SemiBold-69" x="1728.799606"/>
     <use xlink:href="#Poppins-SemiBold-6c" x="1756.599594"/>
     <use xlink:href="#Poppins-SemiBold-65" x="1784.399582"/>
     <use xlink:href="#Poppins-SemiBold-72" x="1846.099579"/>
    </g>
   </g>
   <g id="legend_1">
    <g id="text_13">
     <!-- Retailers -->
     <g transform="translate(475.101695 45.439062) scale(0.1 -0.1)">
      <defs>
       <path id="DejaVuSans-52" d="M 2841 2188
Q 3044 2119 3236 1894
Q 3428 1669 3622 1275
L 4263 0
L 3584 0
L 2988 1197
Q 2756 1666 2539 1819
Q 2322 1972 1947 1972
L 1259 1972
L 1259 0
L 628 0
L 628 4666
L 2053 4666
Q 2853 4666 3247 4331
Q 3641 3997 3641 3322
Q 3641 2881 3436 2590
Q 3231 2300 2841 2188
z
M 1259 4147
L 1259 2491
L 2053 2491
Q 2509 2491 2742 2702
Q 2975 2913 2975 3322
Q 2975 3731 2742 3939
Q 2509 4147 2053 4147
L 1259 4147
z
" transform="scale(0.015625)"/>
       <path id="DejaVuSans-65" d="M 3597 1894
L 3597 1613
L 953 1613
Q 991 1019 1311 708
Q 1631 397 2203 397
Q 2534 397 2845 478
Q 3156 559 3463 722
L 3463 178
Q 3153 47 2828 -22
Q 2503 -91 2169 -91
Q 1331 -91 842 396
Q 353 884 353 1716
Q 353 2575 817 3079
Q 1281 3584 2069 3584
Q 2775 3584 3186 3129
Q 3597 2675 3597 1894
z
M 3022 2063
Q 3016 2534 2758 2815
Q 2500 3097 2075 3097
Q 1594 3097 1305 2825
Q 1016 2553 972 2059
L 3022 2063
z
" transform="scale(0.015625)"/>
       <path id="DejaVuSans-74" d="M 1172 4494
L 1172 3500
L 2356 3500
L 2356 3053
L 1172 3053
L 1172 1153
Q 1172 725 1289 603
Q 1406 481 1766 481
L 2356 481
L 2356 0
L 1766 0
Q 1100 0 847 248
Q 594 497 594 1153
L 594 3053
L 172 3053
L 172 3500
L 594 3500
L 594 4494
L 1172 4494
z
" transform="scale(0.015625)"/>
       <path id="DejaVuSans-61" d="M 2194 1759
Q 1497 1759 1228 1600
Q 959 1441 959 1056
Q 959 750 1161 570
Q 1363 391 1709 391
Q 2188 391 2477 730
Q 2766 1069 2766 1631
L 2766 1759
L 2194 1759
z
M 3341 1997
L 3341 0
L 2766 0
L 2766 531
Q 2569 213 2275 61
Q 1981 -91 1556 -91
Q 1019 -91 701 211
Q 384 513 384 1019
Q 384 1609 779 1909
Q 1175 2209 1959 2209
L 2766 2209
L 2766 2266
Q 2766 2663 2505 2880
Q 2244 3097 1772 3097
Q 1472 3097 1187 3025
Q 903 2953 641 2809
L 641 3341
Q 956 3463 1253 3523
Q 1550 3584 1831 3584
Q 2591 3584 2966 3190
Q 3341 2797 3341 1997
z
" transform="scale(0.015625)"/>
       <path id="DejaVuSans-69" d="M 603 3500
L 1178 3500
L 1178 0
L 603 0
L 603 3500
z
M 603 4863
L 1178 4863
L 1178 4134
L 603 4134
L 603 4863
z
" transform="scale(0.015625)"/>
       <path id="DejaVuSans-6c" d="M 603 4863
L 1178 4863
L 1178 0
L 603 0
L 603 4863
z
" transform="scale(0.015625)"/>
       <path id="DejaVuSans-72" d="M 2631 2963
Q 2534 3019 2420 3045
Q 2306 3072 2169 3072
Q 1681 3072 1420 2755
Q 1159 2438 1159 1844
L 1159 0
L 581 0
L 581 3500
L 1159 3500
L 1159 2956
Q 1341 3275 1631 3429
Q 1922 3584 2338 3584
Q 2397 3584 2469 3576
Q 2541 3569 2628 3553
L 2631 2963
z
" transform="scale(0.015625)"/>
       <path id="DejaVuSans-73" d="M 2834 3397
L 2834 2853
Q 2591 2978 2328 3040
Q 2066 3103 1784 3103
Q 1356 3103 1142 2972
Q 928 2841 928 2578
Q 928 2378 1081 2264
Q 1234 2150 1697 2047
L 1894 2003
Q 2506 1872 2764 1633
Q 3022 1394 3022 966
Q 3022 478 2636 193
Q 2250 -91 1575 -91
Q 1294 -91 989 -36
Q 684 19 347 128
L 347 722
Q 666 556 975 473
Q 1284 391 1588 391
Q 1994 391 2212 530
Q 2431 669 2431 922
Q 2431 1156 2273 1281
Q 2116 1406 1581 1522
L 1381 1569
Q 847 1681 609 1914
Q 372 2147 372 2553
Q 372 3047 722 3315
Q 1072 3584 1716 3584
Q 2034 3584 2315 3537
Q 2597 3491 2834 3397
z
" transform="scale(0.015625)"/>
      </defs>
      <use xlink:href="#DejaVuSans-52"/>
      <use xlink:href="#DejaVuSans-65" x="64.982422"/>
      <use xlink:href="#DejaVuSans-74" x="126.505859"/>
      <use xlink:href="#DejaVuSans-61" x="165.714844"/>
      <use xlink:href="#DejaVuSans-69" x="226.994141"/>
      <use xlink:href="#DejaVuSans-6c" x="254.777344"/>
      <use xlink:href="#DejaVuSans-65" x="282.560547"/>
      <use xlink:href="#DejaVuSans-72" x="344.083984"/>
      <use xlink:href="#DejaVuSans-73" x="385.197266"/>
     </g>
    </g>
    <g id="line2d_19">
     <defs>
      <path id="m8f854cd563" d="M 0 4
C 1.060812 4 2.078319 3.578535 2.828427 2.828427
C 3.578535 2.078319 4 1.060812 4 0
C 4 -1.060812 3.578535 -2.078319 2.828427 -2.828427
C 2.078319 -3.578535 1.060812 -4 0 -4
C -1.060812 -4 -2.078319 -3.578535 -2.828427 -2.828427
C -3.578535 -2.078319 -4 -1.060812 -4 0
C -4 1.060812 -3.578535 2.078319 -2.828427 2.828427
C -2.078319 3.578535 -1.060812 4 0 4
z
" style="stroke: #ffffff; stroke-opacity: 0.8"/>
     </defs>
     <g>
      <use xlink:href="#m8f854cd563" x="467.356382" y="56.617187" style="fill: #22c55e; fill-opacity: 0.8; stroke: #ffffff; stroke-opacity: 0.8"/>
     </g>
    </g>
    <g id="text_14">
     <!-- Retailer_A -->
     <g transform="translate(485.356382 60.117187) scale(0.1 -0.1)">
      <defs>
       <path id="DejaVuSans-5f" d="M 3263 -1063
L 3263 -1509
L -63 -1509
L -63 -1063
L 3263 -1063
z
" transform="scale(0.015625)"/>
       <path id="DejaVuSans-41" d="M 2188 4044
L 1331 1722
L 3047 1722
L 2188 4044
z
M 1831 4666
L 2547 4666
L 4325 0
L 3669 0
L 3244 1197
L 1141 1197
L 716 0
L 50 0
L 1831 4666
z
" transform="scale(0.015625)"/>
      </defs>
      <use xlink:href="#DejaVuSans-52"/>
      <use xlink:href="#DejaVuSans-65" x="64.982422"/>
      <use xlink:href="#DejaVuSans-74" x="126.505859"/>
      <use xlink:href="#DejaVuSans-61" x="165.714844"/>
      <use xlink:href="#DejaVuSans-69" x="226.994141"/>
      <use xlink:href="#DejaVuSans-6c" x="254.777344"/>
      <use xlink:href="#DejaVuSans-65" x="282.560547"/>
      <use xlink:href="#DejaVuSans-72" x="344.083984"/>
      <use xlink:href="#DejaVuSans-5f" x="385.197266"/>
      <use xlink:href="#DejaVuSans-41" x="435.197266"/>
     </g>
    </g>
    <g id="line2d_20">
     <defs>
      <path id="m415167603f" d="M 0 4
C 1.060812 4 2.078319 3.578535 2.828427 2.828427
C 3.578535 2.078319 4 1.060812 4 0
C 4 -1.060812 3.578535 -2.078319 2.828427 -2.828427
C 2.078319 -3.578535 1.060812 -4 0 -4
C -1.060812 -4 -2.078319 -3.578535 -2.828427 -2.828427
C -3.578535 -2.078319 -4 -1.060812 -4 0
C -4 1.060812 -3.578535 2.078319 -2.828427 2.828427
C -2.078319 3.578535 -1.060812 4 0 4
z
" style="stroke: #ffffff; stroke-opacity: 0.8"/>
     </defs>
     <g>
      <use xlink:href="#m415167603f" x="467.356382" y="71.573437" style="fill: #3b82f6; fill-opacity: 0.8; stroke: #ffffff; stroke-opacity: 0.8"/>
     </g>
    </g>
    <g id="text_15">
     <!-- Retailer_B -->
     <g transform="translate(485.356382 75.073437) scale(0.1 -0.1)">
      <defs>
       <path id="DejaVuSans-42" d="M 1259 2228
L 1259 519
L 2272 519
Q 2781 519 3026 730
Q 3272 941 3272 1375
Q 3272 1813 3026 2020
Q 2781 2228 2272 2228
L 1259 2228
z
M 1259 4147
L 1259 2741
L 2194 2741
Q 2656 2741 2882 2914
Q 3109 3088 3109 3444
Q 3109 3797 2882 3972
Q 2656 4147 2194 4147
L 1259 4147
z
M 628 4666
L 2241 4666
Q 2963 4666 3353 4366
Q 3744 4066 3744 3513
Q 3744 3084 3544 2831
Q 3344 2578 2956 2516
Q 3422 2416 3680 2098
Q 3938 1781 3938 1306
Q 3938 681 3513 340
Q 3088 0 2303 0
L 628 0
L 628 4666
z
" transform="scale(0.015625)"/>
      </defs>
      <use xlink:href="#DejaVuSans-52"/>
      <use xlink:href="#DejaVuSans-65" x="64.982422"/>
      <use xlink:href="#DejaVuSans-74" x="126.505859"/>
      <use xlink:href="#DejaVuSans-61" x="165.714844"/>
      <use xlink:href="#DejaVuSans-69" x="226.994141"/>
      <use xlink:href="#DejaVuSans-6c" x="254.777344"/>
      <use xlink:href="#DejaVuSans-65" x="282.560547"/>
      <use xlink:href="#DejaVuSans-72" x="344.083984"/>
      <use xlink:href="#DejaVuSans-5f" x="385.197266"/>
      <use xlink:href="#DejaVuSans-42" x="435.197266"/>
     </g>
    </g>
    <g id="line2d_21">
     <defs>
      <path id="md61f1d085d" d="M 0 4
C 1.060812 4 2.078319 3.578535 2.828427 2.828427
C 3.578535 2.078319 4 1.060812 4 0
C 4 -1.060812 3.578535 -2.078319 2.828427 -2.828427
C 2.078319 -3.578535 1.060812 -4 0 -4
C -1.060812 -4 -2.078319 -3.578535 -2.828427 -2.828427
C -3.578535 -2.078319 -4 -1.060812 -4 0
C -4 1.060812 -3.578535 2.078319 -2.828427 2.828427
C -2.078319 3.578535 -1.060812 4 0 4
z
" style="stroke: #ffffff; stroke-opacity: 0.8"/>
     </defs>
     <g>
      <use xlink:href="#md61f1d085d" x="467.356382" y="86.529687" style="fill: #ef4444; fill-opacity: 0.8; stroke: #ffffff; stroke-opacity: 0.8"/>
     </g>
    </g>
    <g id="text_16">
     <!-- Retailer_C -->
     <g transform="translate(485.356382 90.029687) scale(0.1 -0.1)">
      <defs>
       <path id="DejaVuSans-43" d="M 4122 4306
L 4122 3641
Q 3803 3938 3442 4084
Q 3081 4231 2675 4231
Q 1875 4231 1450 3742
Q 1025 3253 1025 2328
Q 1025 1406 1450 917
Q 1875 428 2675 428
Q 3081 428 3442 575
Q 3803 722 4122 1019
L 4122 359
Q 3791 134 3420 21
Q 3050 -91 2638 -91
Q 1578 -91 968 557
Q 359 1206 359 2328
Q 359 3453 968 4101
Q 1578 4750 2638 4750
Q 3056 4750 3426 4639
Q 3797 4528 4122 4306
z
" transform="scale(0.015625)"/>
      </defs>
      <use xlink:href="#DejaVuSans-52"/>
      <use xlink:href="#DejaVuSans-65" x="64.982422"/>
      <use xlink:href="#DejaVuSans-74" x="126.505859"/>
      <use xlink:href="#DejaVuSans-61" x="165.714844"/>
      <use xlink:href="#DejaVuSans-69" x="226.994141"/>
      <use xlink:href="#DejaVuSans-6c" x="254.777344"/>
      <use xlink:href="#DejaVuSans-65" x="282.560547"/>
      <use xlink:href="#DejaVuSans-72" x="344.083984"/>
      <use xlink:href="#DejaVuSans-5f" x="385.197266"/>
      <use xlink:href="#DejaVuSans-43" x="435.197266"/>
     </g>
    </g>
    <g id="line2d_22">
     <defs>
      <path id="m42a404fd1f" d="M 0 4
C 1.060812 4 2.078319 3.578535 2.828427 2.828427
C 3.578535 2.078319 4 1.060812 4 0
C 4 -1.060812 3.578535 -2.078319 2.828427 -2.828427
C 2.078319 -3.578535 1.060812 -4 0 -4
C -1.060812 -4 -2.078319 -3.578535 -2.828427 -2.828427
C -3.578535 -2.078319 -4 -1.060812 -4 0
C -4 1.060812 -3.578535 2.078319 -2.828427 2.828427
C -2.078319 3.578535 -1.060812 4 0 4
z
" style="stroke: #ffffff; stroke-opacity: 0.8"/>
     </defs>
     <g>
      <use xlink:href="#m42a404fd1f" x="467.356382" y="101.485937" style="fill: #f97316; fill-opacity: 0.8; stroke: #ffffff; stroke-opacity: 0.8"/>
     </g>
    </g>
    <g id="text_17">
     <!-- Retailer_D -->
     <g transform="translate(485.356382 104.985937) scale(0.1 -0.1)">
      <defs>
       <path id="DejaVuSans-44" d="M 1259 4147
L 1259 519
L 2022 519
Q 2988 519 3436 956
Q 3884 1394 3884 2338
Q 3884 3275 3436 3711
Q 2988 4147 2022 4147
L 1259 4147
z
M 628 4666
L 1925 4666
Q 3281 4666 3915 4102
Q 4550 3538 4550 2338
Q 4550 1131 3912 565
Q 3275 0 1925 0
L 628 0
L 628 4666
z
" transform="scale(0.015625)"/>
      </defs>
      <use xlink:href="#DejaVuSans-52"/>
      <use xlink:href="#DejaVuSans-65" x="64.982422"/>
      <use xlink:href="#DejaVuSans-74" x="126.505859"/>
      <use xlink:href="#DejaVuSans-61" x="165.714844"/>
      <use xlink:href="#DejaVuSans-69" x="226.994141"/>
      <use xlink:href="#DejaVuSans-6c" x="254.777344"/>
      <use xlink:href="#DejaVuSans-65" x="282.560547"/>
      <use xlink:href="#DejaVuSans-72" x="344.083984"/>
      <use xlink:href="#DejaVuSans-5f" x="385.197266"/>
      <use xlink:href="#DejaVuSans-44" x="435.197266"/>
     </g>
    </g>
   </g>
  </g>
  <g id="text_18">
   <!-- Source: PyRetailScience - 2024 -->
   <g style="fill: #696969" transform="translate(7.2 385.933421) scale(0.1 -0.1)">
    <defs>
     <path id="Poppins-LightItalic-53" d="M 1619 -45
Q 1216 -45 912 89
Q 608 224 441 467
Q 275 710 275 1024
Q 275 1107 282 1152
L 723 1152
Q 710 947 796 758
Q 883 570 1097 445
Q 1312 320 1651 320
Q 2125 320 2406 557
Q 2688 794 2688 1197
Q 2688 1440 2557 1603
Q 2426 1766 2234 1872
Q 2042 1978 1709 2112
Q 1318 2266 1088 2397
Q 858 2528 707 2758
Q 557 2989 582 3347
Q 595 3693 790 3958
Q 986 4224 1322 4374
Q 1658 4525 2086 4525
Q 2509 4525 2813 4381
Q 3117 4237 3267 3987
Q 3418 3738 3398 3437
L 2931 3437
Q 2944 3610 2851 3776
Q 2758 3942 2556 4048
Q 2355 4154 2061 4154
Q 1606 4154 1318 3933
Q 1030 3712 1030 3334
Q 1030 3110 1158 2956
Q 1286 2803 1472 2700
Q 1658 2598 1984 2464
Q 2362 2310 2595 2176
Q 2829 2042 2992 1818
Q 3155 1594 3155 1254
Q 3155 1171 3149 1126
Q 3123 800 2931 531
Q 2739 262 2403 108
Q 2067 -45 1619 -45
z
" transform="scale(0.015625)"/>
     <path id="Poppins-LightItalic-6f" d="M 1728 -51
Q 1293 -51 960 125
Q 627 301 444 624
Q 262 947 262 1382
Q 262 1971 531 2467
Q 800 2963 1280 3254
Q 1760 3546 2349 3546
Q 2784 3546 3117 3370
Q 3450 3194 3635 2870
Q 3821 2547 3821 2112
Q 3821 1517 3545 1024
Q 3270 531 2793 240
Q 2317 -51 1728 -51
z
M 1779 326
Q 2234 326 2595 569
Q 2957 813 3158 1216
Q 3360 1619 3360 2086
Q 3360 2611 3056 2886
Q 2752 3162 2285 3162
Q 1830 3162 1475 2918
Q 1120 2675 921 2272
Q 723 1869 723 1402
Q 723 883 1024 604
Q 1325 326 1779 326
z
" transform="scale(0.015625)"/>
     <path id="Poppins-LightItalic-75" d="M 3834 3494
L 3219 0
L 2771 0
L 2880 614
Q 2662 288 2316 115
Q 1971 -58 1574 -58
Q 1037 -58 710 233
Q 384 525 384 1082
Q 384 1286 416 1453
L 774 3494
L 1216 3494
L 864 1504
Q 838 1357 838 1197
Q 838 774 1072 553
Q 1306 333 1722 333
Q 2208 333 2560 630
Q 2912 928 3034 1504
L 3386 3494
L 3834 3494
z
" transform="scale(0.015625)"/>
     <path id="Poppins-LightItalic-72" d="M 1133 2797
Q 1344 3162 1683 3360
Q 2022 3558 2470 3558
L 2387 3091
L 2259 3091
Q 1798 3091 1465 2854
Q 1133 2618 1005 2074
L 640 0
L 192 0
L 806 3494
L 1254 3494
L 1133 2797
z
" transform="scale(0.015625)"/>
     <path id="Poppins-LightItalic-63" d="M 294 1747
Q 390 2291 681 2697
Q 973 3104 1395 3325
Q 1818 3546 2310 3546
Q 2957 3546 3318 3226
Q 3680 2906 3706 2355
L 3226 2355
Q 3206 2733 2947 2947
Q 2688 3162 2246 3162
Q 1702 3162 1289 2794
Q 877 2426 755 1747
Q 723 1587 723 1382
Q 723 870 1001 598
Q 1280 326 1741 326
Q 2189 326 2521 540
Q 2854 755 3014 1139
L 3494 1139
Q 3277 602 2797 275
Q 2317 -51 1677 -51
Q 1030 -51 643 320
Q 256 691 256 1338
Q 256 1536 294 1747
z
" transform="scale(0.015625)"/>
     <path id="Poppins-LightItalic-65" d="M 2330 3546
Q 2771 3546 3084 3376
Q 3398 3206 3561 2912
Q 3725 2618 3725 2240
Q 3725 2067 3699 1933
Q 3661 1741 3622 1587
L 723 1587
Q 704 1466 704 1357
Q 704 864 1001 595
Q 1299 326 1760 326
Q 2202 326 2534 537
Q 2867 749 3021 1107
L 3501 1107
Q 3283 595 2806 272
Q 2330 -51 1696 -51
Q 1043 -51 649 323
Q 256 698 256 1344
Q 256 1536 294 1747
Q 390 2291 681 2700
Q 973 3110 1401 3328
Q 1830 3546 2330 3546
z
M 3238 1920
Q 3270 2099 3270 2221
Q 3270 2675 2982 2918
Q 2694 3162 2246 3162
Q 1920 3162 1619 3021
Q 1318 2880 1094 2598
Q 870 2317 787 1920
L 3238 1920
z
" transform="scale(0.015625)"/>
     <path id="Poppins-LightItalic-3a" d="M 262 -32
Q 141 -32 64 45
Q -13 122 -13 243
Q -13 397 105 512
Q 224 627 378 627
Q 499 627 576 553
Q 653 480 653 358
Q 653 205 534 86
Q 416 -32 262 -32
z
M 262 2784
Q 141 2784 64 2861
Q -13 2938 -13 3059
Q -13 3213 105 3328
Q 224 3443 378 3443
Q 499 3443 576 3369
Q 653 3296 653 3174
Q 653 3021 534 2902
Q 416 2784 262 2784
z
" transform="scale(0.015625)"/>
     <path id="Poppins-LightItalic-20" transform="scale(0.015625)"/>
     <path id="Poppins-LightItalic-50" d="M 3616 3187
Q 3514 2611 3072 2259
Q 2630 1907 1875 1907
L 973 1907
L 640 0
L 192 0
L 979 4474
L 2330 4474
Q 2989 4474 3315 4198
Q 3642 3923 3642 3456
Q 3642 3309 3616 3187
z
M 1946 2278
Q 2995 2278 3155 3187
Q 3181 3354 3181 3424
Q 3181 4115 2266 4115
L 1363 4115
L 1043 2278
L 1946 2278
z
" transform="scale(0.015625)"/>
     <path id="Poppins-LightItalic-79" d="M 890 3494
L 1549 531
L 3219 3494
L 3686 3494
L 710 -1645
L 237 -1645
L 1210 26
L 390 3494
L 890 3494
z
" transform="scale(0.015625)"/>
     <path id="Poppins-LightItalic-52" d="M 2330 4474
Q 2989 4474 3318 4192
Q 3648 3910 3648 3437
Q 3648 3354 3622 3174
Q 3539 2688 3200 2345
Q 2861 2003 2298 1901
L 3110 0
L 2573 0
L 1798 1869
L 966 1869
L 640 0
L 192 0
L 979 4474
L 2330 4474
z
M 3155 3174
Q 3174 3302 3174 3405
Q 3174 3744 2950 3929
Q 2726 4115 2259 4115
L 1363 4115
L 1030 2227
L 1933 2227
Q 2464 2227 2771 2483
Q 3078 2739 3155 3174
z
" transform="scale(0.015625)"/>
     <path id="Poppins-LightItalic-74" d="M 934 947
Q 915 832 915 749
Q 915 544 1027 464
Q 1139 384 1395 384
L 1805 384
L 1734 0
L 1254 0
Q 858 0 659 153
Q 461 307 461 659
Q 461 800 486 947
L 870 3117
L 384 3117
L 454 3494
L 941 3494
L 1094 4371
L 1542 4371
L 1389 3494
L 2355 3494
L 2285 3117
L 1318 3117
L 934 947
z
" transform="scale(0.015625)"/>
     <path id="Poppins-LightItalic-61" d="M 294 1754
Q 390 2291 678 2697
Q 966 3104 1385 3325
Q 1805 3546 2285 3546
Q 2784 3546 3104 3315
Q 3424 3085 3520 2726
L 3654 3494
L 4102 3494
L 3488 0
L 3040 0
L 3174 774
Q 2957 416 2550 182
Q 2144 -51 1645 -51
Q 1229 -51 915 121
Q 602 294 429 611
Q 256 928 256 1357
Q 256 1542 294 1754
z
M 3347 1747
Q 3379 1926 3379 2067
Q 3379 2566 3078 2860
Q 2778 3155 2298 3155
Q 1926 3155 1603 2988
Q 1280 2822 1056 2505
Q 832 2189 755 1754
Q 723 1562 723 1427
Q 723 922 1020 630
Q 1318 339 1798 339
Q 2157 339 2486 512
Q 2816 685 3043 1005
Q 3270 1325 3347 1747
z
" transform="scale(0.015625)"/>
     <path id="Poppins-LightItalic-69" d="M 1152 4154
Q 1030 4154 953 4227
Q 877 4301 877 4422
Q 877 4589 992 4701
Q 1107 4813 1267 4813
Q 1389 4813 1462 4742
Q 1536 4672 1536 4557
Q 1536 4390 1421 4272
Q 1306 4154 1152 4154
z
M 1254 3494
L 640 0
L 192 0
L 806 3494
L 1254 3494
z
" transform="scale(0.015625)"/>
     <path id="Poppins-LightItalic-6c" d="M 1478 4736
L 640 0
L 192 0
L 1030 4736
L 1478 4736
z
" transform="scale(0.015625)"/>
     <path id="Poppins-LightItalic-6e" d="M 2464 3558
Q 3002 3558 3325 3267
Q 3648 2976 3648 2419
Q 3648 2214 3616 2048
L 3251 0
L 2810 0
L 3162 1997
Q 3187 2144 3187 2310
Q 3187 2733 2956 2950
Q 2726 3168 2310 3168
Q 1805 3168 1446 2848
Q 1088 2528 979 1907
L 979 1926
L 640 0
L 192 0
L 806 3494
L 1254 3494
L 1146 2893
Q 1370 3213 1715 3385
Q 2061 3558 2464 3558
z
" transform="scale(0.015625)"/>
     <path id="Poppins-LightItalic-2d" d="M 2816 2560
L 2752 2182
L 262 2182
L 326 2560
L 2816 2560
z
" transform="scale(0.015625)"/>
     <path id="Poppins-LightItalic-32" d="M 64 352
Q 1402 1229 2170 1929
Q 2938 2630 3053 3290
Q 3078 3456 3078 3539
Q 3078 3859 2889 4051
Q 2701 4243 2278 4243
Q 1792 4243 1472 3939
Q 1152 3635 1037 3136
L 602 3136
Q 762 3846 1232 4236
Q 1702 4627 2349 4627
Q 2893 4627 3209 4361
Q 3526 4096 3526 3603
Q 3526 3443 3501 3309
Q 3366 2547 2598 1827
Q 1830 1107 768 410
L 3130 410
L 3066 32
L 6 32
L 64 352
z
" transform="scale(0.015625)"/>
     <path id="Poppins-LightItalic-30" d="M 506 2304
Q 698 3398 1142 4006
Q 1587 4614 2464 4614
Q 3130 4614 3421 4249
Q 3712 3885 3712 3226
Q 3712 2848 3616 2304
Q 3424 1210 2976 598
Q 2528 -13 1651 -13
Q 986 -13 698 348
Q 410 710 410 1370
Q 410 1747 506 2304
z
M 3174 2304
Q 3270 2835 3270 3187
Q 3270 3674 3068 3939
Q 2867 4205 2394 4205
Q 1933 4205 1645 3958
Q 1357 3712 1203 3302
Q 1050 2893 947 2304
Q 845 1722 845 1402
Q 845 922 1043 659
Q 1242 397 1722 397
Q 2182 397 2470 643
Q 2758 890 2912 1299
Q 3066 1709 3174 2304
z
" transform="scale(0.015625)"/>
     <path id="Poppins-LightItalic-34" d="M 90 1088
L 147 1427
L 3034 4563
L 3565 4563
L 3021 1478
L 3706 1478
L 3635 1088
L 2950 1088
L 2758 0
L 2317 0
L 2509 1088
L 90 1088
z
M 3053 4070
L 678 1478
L 2598 1478
L 3053 4070
z
" transform="scale(0.015625)"/>
    </defs>
    <use xlink:href="#Poppins-LightItalic-53"/>
    <use xlink:href="#Poppins-LightItalic-6f" x="56.599991"/>
    <use xlink:href="#Poppins-LightItalic-75" x="120.799988"/>
    <use xlink:href="#Poppins-LightItalic-72" x="184.099976"/>
    <use xlink:href="#Poppins-LightItalic-63" x="220.299973"/>
    <use xlink:href="#Poppins-LightItalic-65" x="281.59996"/>
    <use xlink:href="#Poppins-LightItalic-3a" x="343.799957"/>
    <use xlink:href="#Poppins-LightItalic-20" x="362.299942"/>
    <use xlink:href="#Poppins-LightItalic-50" x="391.799927"/>
    <use xlink:href="#Poppins-LightItalic-79" x="448.199921"/>
    <use xlink:href="#Poppins-LightItalic-52" x="502.699905"/>
    <use xlink:href="#Poppins-LightItalic-65" x="561.399902"/>
    <use xlink:href="#Poppins-LightItalic-74" x="623.599899"/>
    <use xlink:href="#Poppins-LightItalic-61" x="659.19989"/>
    <use xlink:href="#Poppins-LightItalic-69" x="726.699875"/>
    <use xlink:href="#Poppins-LightItalic-6c" x="749.599869"/>
    <use xlink:href="#Poppins-LightItalic-53" x="772.499863"/>
    <use xlink:href="#Poppins-LightItalic-63" x="829.099854"/>
    <use xlink:href="#Poppins-LightItalic-69" x="890.399841"/>
    <use xlink:href="#Poppins-LightItalic-65" x="913.299835"/>
    <use xlink:href="#Poppins-LightItalic-6e" x="975.499832"/>
    <use xlink:href="#Poppins-LightItalic-63" x="1038.79982"/>
    <use xlink:href="#Poppins-LightItalic-65" x="1100.099808"/>
    <use xlink:href="#Poppins-LightItalic-20" x="1162.299805"/>
    <use xlink:href="#Poppins-LightItalic-2d" x="1191.799789"/>
    <use xlink:href="#Poppins-LightItalic-20" x="1243.699783"/>
    <use xlink:href="#Poppins-LightItalic-32" x="1273.199768"/>
    <use xlink:href="#Poppins-LightItalic-30" x="1330.399765"/>
    <use xlink:href="#Poppins-LightItalic-32" x="1391.999756"/>
    <use xlink:href="#Poppins-LightItalic-34" x="1449.199753"/>
   </g>
  </g>
 </g>
 <defs>
  <clipPath id="pa287b7f1fe">
   <rect x="73.380382" y="28.840625" width="357.12" height="266.112"/>
  </clipPath>
 </defs>
</svg>
