<?xml version="1.0" encoding="utf-8" standalone="no"?>
<!DOCTYPE svg PUBLIC "-//W3C//DTD SVG 1.1//EN"
  "http://www.w3.org/Graphics/SVG/1.1/DTD/svg11.dtd">
<svg xmlns:xlink="http://www.w3.org/1999/xlink" width="545.958812pt" height="361.392625pt" viewBox="0 0 545.958812 361.392625" xmlns="http://www.w3.org/2000/svg" version="1.1">
 <metadata>
  <rdf:RDF xmlns:dc="http://purl.org/dc/elements/1.1/" xmlns:cc="http://creativecommons.org/ns#" xmlns:rdf="http://www.w3.org/1999/02/22-rdf-syntax-ns#">
   <cc:Work>
    <dc:type rdf:resource="http://purl.org/dc/dcmitype/StillImage"/>
    <dc:date>2025-10-06T12:35:20.785021</dc:date>
    <dc:format>image/svg+xml</dc:format>
    <dc:creator>
     <cc:Agent>
      <dc:title>Matplotlib v3.10.1, https://matplotlib.org/</dc:title>
     </cc:Agent>
    </dc:creator>
   </cc:Work>
  </rdf:RDF>
 </metadata>
 <defs>
  <style type="text/css">*{stroke-linejoin: round; stroke-linecap: butt}</style>
 </defs>
 <g id="figure_1">
  <g id="patch_1">
   <path d="M -0 361.392625
L 545.958813 361.392625
L 545.958813 0
L -0 0
z
" style="fill: #ffffff"/>
  </g>
  <g id="axes_1">
   <g id="patch_2">
    <path d="M 70.539063 294.952625
L 427.659063 294.952625
L 427.659063 28.840625
L 70.539063 28.840625
z
" style="fill: #ffffff"/>
   </g>
   <g id="matplotlib.axis_1">
    <g id="xtick_1">
     <g id="line2d_1">
      <path d="M 86.77179 294.952625
L 86.77179 28.840625
" clip-path="url(#p0208a4e016)" style="fill: none; stroke: #dad8d7; stroke-opacity: 0.5; stroke-width: 0.8; stroke-linecap: square"/>
     </g>
     <g id="line2d_2">
      <defs>
       <path id="m3777647d6f" d="M 0 0
L 0 3.5
" style="stroke: #000000; stroke-width: 0.8"/>
      </defs>
      <g>
       <use xlink:href="#m3777647d6f" x="86.77179" y="294.952625" style="stroke: #000000; stroke-width: 0.8"/>
      </g>
     </g>
     <g id="text_1">
      <!-- CVS -->
      <g transform="translate(76.59679 309.352625) scale(0.1 -0.1)">
       <defs>
        <path id="Poppins-Regular-43" d="M 275 2234
Q 275 2886 569 3408
Q 864 3930 1373 4224
Q 1882 4518 2502 4518
Q 3232 4518 3776 4166
Q 4320 3814 4570 3168
L 3872 3168
Q 3686 3571 3337 3788
Q 2989 4006 2502 4006
Q 2035 4006 1664 3788
Q 1293 3571 1081 3171
Q 870 2771 870 2234
Q 870 1702 1081 1302
Q 1293 902 1664 684
Q 2035 467 2502 467
Q 2989 467 3337 681
Q 3686 896 3872 1299
L 4570 1299
Q 4320 659 3776 310
Q 3232 -38 2502 -38
Q 1882 -38 1373 253
Q 864 544 569 1062
Q 275 1581 275 2234
z
" transform="scale(0.015625)"/>
        <path id="Poppins-Regular-56" d="M 4179 4461
L 2496 0
L 1824 0
L 141 4461
L 762 4461
L 2163 614
L 3565 4461
L 4179 4461
z
" transform="scale(0.015625)"/>
        <path id="Poppins-Regular-53" d="M 1907 -45
Q 1466 -45 1117 112
Q 768 269 569 547
Q 371 826 365 1190
L 986 1190
Q 1018 877 1245 662
Q 1472 448 1907 448
Q 2323 448 2563 656
Q 2803 864 2803 1190
Q 2803 1446 2662 1606
Q 2522 1766 2310 1849
Q 2099 1933 1741 2029
Q 1299 2144 1033 2259
Q 768 2374 579 2620
Q 390 2867 390 3283
Q 390 3648 576 3929
Q 762 4211 1098 4364
Q 1434 4518 1869 4518
Q 2496 4518 2896 4204
Q 3296 3891 3347 3373
L 2707 3373
Q 2675 3629 2438 3824
Q 2202 4019 1811 4019
Q 1446 4019 1216 3830
Q 986 3642 986 3302
Q 986 3059 1123 2905
Q 1261 2752 1462 2672
Q 1664 2592 2029 2490
Q 2470 2368 2739 2249
Q 3008 2131 3200 1884
Q 3392 1638 3392 1216
Q 3392 890 3219 602
Q 3046 314 2707 134
Q 2368 -45 1907 -45
z
" transform="scale(0.015625)"/>
       </defs>
       <use xlink:href="#Poppins-Regular-43"/>
       <use xlink:href="#Poppins-Regular-56" transform="translate(77.199982 0)"/>
       <use xlink:href="#Poppins-Regular-53" transform="translate(144.799973 0)"/>
      </g>
     </g>
    </g>
    <g id="xtick_2">
     <g id="line2d_3">
      <path d="M 194.989972 294.952625
L 194.989972 28.840625
" clip-path="url(#p0208a4e016)" style="fill: none; stroke: #dad8d7; stroke-opacity: 0.5; stroke-width: 0.8; stroke-linecap: square"/>
     </g>
     <g id="line2d_4">
      <g>
       <use xlink:href="#m3777647d6f" x="194.989972" y="294.952625" style="stroke: #000000; stroke-width: 0.8"/>
      </g>
     </g>
     <g id="text_2">
      <!-- Target -->
      <g transform="translate(178.740753 309.252625) scale(0.1 -0.1)">
       <defs>
        <path id="Poppins-Regular-54" d="M 3238 4461
L 3238 3987
L 2022 3987
L 2022 0
L 1440 0
L 1440 3987
L 218 3987
L 218 4461
L 3238 4461
z
" transform="scale(0.015625)"/>
        <path id="Poppins-Regular-61" d="M 275 1766
Q 275 2304 492 2710
Q 710 3117 1091 3341
Q 1472 3565 1939 3565
Q 2400 3565 2739 3366
Q 3078 3168 3245 2867
L 3245 3507
L 3834 3507
L 3834 0
L 3245 0
L 3245 653
Q 3072 346 2729 144
Q 2387 -58 1933 -58
Q 1466 -58 1088 172
Q 710 403 492 819
Q 275 1235 275 1766
z
M 3245 1760
Q 3245 2157 3085 2451
Q 2925 2746 2653 2902
Q 2381 3059 2054 3059
Q 1728 3059 1459 2905
Q 1190 2752 1030 2457
Q 870 2163 870 1766
Q 870 1363 1030 1065
Q 1190 768 1459 611
Q 1728 454 2054 454
Q 2381 454 2653 611
Q 2925 768 3085 1065
Q 3245 1363 3245 1760
z
" transform="scale(0.015625)"/>
        <path id="Poppins-Regular-72" d="M 1075 2938
Q 1229 3238 1513 3404
Q 1798 3571 2208 3571
L 2208 2970
L 2054 2970
Q 1075 2970 1075 1907
L 1075 0
L 493 0
L 493 3507
L 1075 3507
L 1075 2938
z
" transform="scale(0.015625)"/>
        <path id="Poppins-Regular-67" d="M 1939 3565
Q 2394 3565 2736 3366
Q 3078 3168 3245 2867
L 3245 3507
L 3834 3507
L 3834 -77
Q 3834 -557 3629 -931
Q 3424 -1306 3043 -1517
Q 2662 -1728 2157 -1728
Q 1466 -1728 1005 -1401
Q 544 -1075 461 -512
L 1037 -512
Q 1133 -832 1433 -1027
Q 1734 -1222 2157 -1222
Q 2637 -1222 2941 -921
Q 3245 -621 3245 -77
L 3245 659
Q 3072 352 2733 147
Q 2394 -58 1939 -58
Q 1472 -58 1091 172
Q 710 403 492 819
Q 275 1235 275 1766
Q 275 2304 492 2710
Q 710 3117 1091 3341
Q 1472 3565 1939 3565
z
M 3245 1760
Q 3245 2157 3085 2451
Q 2925 2746 2653 2902
Q 2381 3059 2054 3059
Q 1728 3059 1459 2905
Q 1190 2752 1030 2457
Q 870 2163 870 1766
Q 870 1363 1030 1065
Q 1190 768 1459 611
Q 1728 454 2054 454
Q 2381 454 2653 611
Q 2925 768 3085 1065
Q 3245 1363 3245 1760
z
" transform="scale(0.015625)"/>
        <path id="Poppins-Regular-65" d="M 3693 1888
Q 3693 1722 3674 1536
L 870 1536
Q 902 1018 1225 726
Q 1549 435 2010 435
Q 2387 435 2640 611
Q 2893 787 2995 1082
L 3622 1082
Q 3482 576 3059 259
Q 2637 -58 2010 -58
Q 1510 -58 1116 166
Q 723 390 499 803
Q 275 1216 275 1760
Q 275 2304 492 2713
Q 710 3123 1104 3344
Q 1498 3565 2010 3565
Q 2509 3565 2893 3347
Q 3277 3130 3485 2749
Q 3693 2368 3693 1888
z
M 3091 2010
Q 3091 2342 2944 2582
Q 2797 2822 2544 2947
Q 2291 3072 1984 3072
Q 1542 3072 1232 2790
Q 922 2509 877 2010
L 3091 2010
z
" transform="scale(0.015625)"/>
        <path id="Poppins-Regular-74" d="M 1203 3027
L 1203 960
Q 1203 704 1312 598
Q 1421 493 1690 493
L 2118 493
L 2118 0
L 1594 0
Q 1107 0 864 224
Q 621 448 621 960
L 621 3027
L 166 3027
L 166 3507
L 621 3507
L 621 4390
L 1203 4390
L 1203 3507
L 2118 3507
L 2118 3027
L 1203 3027
z
" transform="scale(0.015625)"/>
       </defs>
       <use xlink:href="#Poppins-Regular-54"/>
       <use xlink:href="#Poppins-Regular-61" transform="translate(54.099991 0)"/>
       <use xlink:href="#Poppins-Regular-72" transform="translate(121.699982 0)"/>
       <use xlink:href="#Poppins-Regular-67" transform="translate(158.999969 0)"/>
       <use xlink:href="#Poppins-Regular-65" transform="translate(226.59996 0)"/>
       <use xlink:href="#Poppins-Regular-74" transform="translate(288.599945 0)"/>
      </g>
     </g>
    </g>
    <g id="xtick_3">
     <g id="line2d_5">
      <path d="M 303.208153 294.952625
L 303.208153 28.840625
" clip-path="url(#p0208a4e016)" style="fill: none; stroke: #dad8d7; stroke-opacity: 0.5; stroke-width: 0.8; stroke-linecap: square"/>
     </g>
     <g id="line2d_6">
      <g>
       <use xlink:href="#m3777647d6f" x="303.208153" y="294.952625" style="stroke: #000000; stroke-width: 0.8"/>
      </g>
     </g>
     <g id="text_3">
      <!-- Walgreens -->
      <g transform="translate(276.464403 309.352625) scale(0.1 -0.1)">
       <defs>
        <path id="Poppins-Regular-57" d="M 6099 4461
L 4806 0
L 4154 0
L 3117 3590
L 2042 0
L 1395 -6
L 147 4461
L 768 4461
L 1741 678
L 2816 4461
L 3469 4461
L 4493 691
L 5472 4461
L 6099 4461
z
" transform="scale(0.015625)"/>
        <path id="Poppins-Regular-6c" d="M 1075 4736
L 1075 0
L 493 0
L 493 4736
L 1075 4736
z
" transform="scale(0.015625)"/>
        <path id="Poppins-Regular-6e" d="M 2202 3571
Q 2842 3571 3238 3184
Q 3635 2797 3635 2067
L 3635 0
L 3059 0
L 3059 1984
Q 3059 2509 2796 2787
Q 2534 3066 2080 3066
Q 1619 3066 1347 2778
Q 1075 2490 1075 1939
L 1075 0
L 493 0
L 493 3507
L 1075 3507
L 1075 3008
Q 1248 3277 1545 3424
Q 1843 3571 2202 3571
z
" transform="scale(0.015625)"/>
        <path id="Poppins-Regular-73" d="M 1734 -58
Q 1331 -58 1011 80
Q 691 218 505 464
Q 320 710 301 1030
L 902 1030
Q 928 768 1149 601
Q 1370 435 1728 435
Q 2061 435 2253 582
Q 2445 730 2445 954
Q 2445 1184 2240 1296
Q 2035 1408 1606 1517
Q 1216 1619 969 1724
Q 723 1830 547 2038
Q 371 2246 371 2586
Q 371 2854 531 3078
Q 691 3302 985 3433
Q 1280 3565 1658 3565
Q 2240 3565 2598 3270
Q 2957 2976 2982 2464
L 2400 2464
Q 2381 2739 2179 2905
Q 1978 3072 1638 3072
Q 1325 3072 1139 2937
Q 954 2803 954 2586
Q 954 2413 1066 2301
Q 1178 2189 1347 2121
Q 1517 2054 1818 1971
Q 2195 1869 2432 1769
Q 2669 1670 2838 1472
Q 3008 1274 3014 954
Q 3014 666 2854 435
Q 2694 205 2403 73
Q 2112 -58 1734 -58
z
" transform="scale(0.015625)"/>
       </defs>
       <use xlink:href="#Poppins-Regular-57"/>
       <use xlink:href="#Poppins-Regular-61" transform="translate(97.599991 0)"/>
       <use xlink:href="#Poppins-Regular-6c" transform="translate(165.199982 0)"/>
       <use xlink:href="#Poppins-Regular-67" transform="translate(189.799973 0)"/>
       <use xlink:href="#Poppins-Regular-72" transform="translate(257.399963 0)"/>
       <use xlink:href="#Poppins-Regular-65" transform="translate(294.699951 0)"/>
       <use xlink:href="#Poppins-Regular-65" transform="translate(356.699936 0)"/>
       <use xlink:href="#Poppins-Regular-6e" transform="translate(418.699921 0)"/>
       <use xlink:href="#Poppins-Regular-73" transform="translate(482.699905 0)"/>
      </g>
     </g>
    </g>
    <g id="xtick_4">
     <g id="line2d_7">
      <path d="M 411.426335 294.952625
L 411.426335 28.840625
" clip-path="url(#p0208a4e016)" style="fill: none; stroke: #dad8d7; stroke-opacity: 0.5; stroke-width: 0.8; stroke-linecap: square"/>
     </g>
     <g id="line2d_8">
      <g>
       <use xlink:href="#m3777647d6f" x="411.426335" y="294.952625" style="stroke: #000000; stroke-width: 0.8"/>
      </g>
     </g>
     <g id="text_4">
      <!-- Walmart -->
      <g transform="translate(389.722429 309.352625) scale(0.1 -0.1)">
       <defs>
        <path id="Poppins-Regular-6d" d="M 4710 3571
Q 5120 3571 5440 3401
Q 5760 3232 5945 2893
Q 6131 2554 6131 2067
L 6131 0
L 5555 0
L 5555 1984
Q 5555 2509 5296 2787
Q 5037 3066 4595 3066
Q 4141 3066 3872 2774
Q 3603 2483 3603 1933
L 3603 0
L 3027 0
L 3027 1984
Q 3027 2509 2768 2787
Q 2509 3066 2067 3066
Q 1613 3066 1344 2774
Q 1075 2483 1075 1933
L 1075 0
L 493 0
L 493 3507
L 1075 3507
L 1075 3002
Q 1248 3277 1539 3424
Q 1830 3571 2182 3571
Q 2624 3571 2963 3372
Q 3302 3174 3469 2790
Q 3616 3162 3955 3366
Q 4294 3571 4710 3571
z
" transform="scale(0.015625)"/>
       </defs>
       <use xlink:href="#Poppins-Regular-57"/>
       <use xlink:href="#Poppins-Regular-61" transform="translate(97.599991 0)"/>
       <use xlink:href="#Poppins-Regular-6c" transform="translate(165.199982 0)"/>
       <use xlink:href="#Poppins-Regular-6d" transform="translate(189.799973 0)"/>
       <use xlink:href="#Poppins-Regular-61" transform="translate(292.799957 0)"/>
       <use xlink:href="#Poppins-Regular-72" transform="translate(360.399948 0)"/>
       <use xlink:href="#Poppins-Regular-74" transform="translate(397.699936 0)"/>
      </g>
     </g>
    </g>
    <g id="text_5">
     <!-- Retailers -->
     <g transform="translate(223.45 324.932625) scale(0.12 -0.12)">
      <defs>
       <path id="Poppins-Regular-52" d="M 2842 0
L 1779 1824
L 1075 1824
L 1075 0
L 493 0
L 493 4461
L 1933 4461
Q 2438 4461 2787 4288
Q 3136 4115 3309 3820
Q 3482 3526 3482 3149
Q 3482 2688 3216 2336
Q 2950 1984 2419 1869
L 3539 0
L 2842 0
z
M 1075 2291
L 1933 2291
Q 2406 2291 2643 2524
Q 2880 2758 2880 3149
Q 2880 3546 2646 3763
Q 2413 3981 1933 3981
L 1075 3981
L 1075 2291
z
" transform="scale(0.015625)"/>
       <path id="Poppins-Regular-69" d="M 794 4077
Q 627 4077 512 4192
Q 397 4307 397 4474
Q 397 4640 512 4755
Q 627 4870 794 4870
Q 954 4870 1066 4755
Q 1178 4640 1178 4474
Q 1178 4307 1066 4192
Q 954 4077 794 4077
z
M 1075 3507
L 1075 0
L 493 0
L 493 3507
L 1075 3507
z
" transform="scale(0.015625)"/>
      </defs>
      <use xlink:href="#Poppins-Regular-52"/>
      <use xlink:href="#Poppins-Regular-65" transform="translate(60.799988 0)"/>
      <use xlink:href="#Poppins-Regular-74" transform="translate(122.799973 0)"/>
      <use xlink:href="#Poppins-Regular-61" transform="translate(159.199966 0)"/>
      <use xlink:href="#Poppins-Regular-69" transform="translate(226.799957 0)"/>
      <use xlink:href="#Poppins-Regular-6c" transform="translate(251.399948 0)"/>
      <use xlink:href="#Poppins-Regular-65" transform="translate(275.999939 0)"/>
      <use xlink:href="#Poppins-Regular-72" transform="translate(337.999924 0)"/>
      <use xlink:href="#Poppins-Regular-73" transform="translate(375.299911 0)"/>
     </g>
    </g>
   </g>
   <g id="matplotlib.axis_2">
    <g id="ytick_1">
     <g id="line2d_9">
      <path d="M 70.539063 282.856625
L 427.659063 282.856625
" clip-path="url(#p0208a4e016)" style="fill: none; stroke: #dad8d7; stroke-opacity: 0.5; stroke-width: 0.8; stroke-linecap: square"/>
     </g>
     <g id="line2d_10">
      <defs>
       <path id="m159e8b5100" d="M 0 0
L -3.5 0
" style="stroke: #000000; stroke-width: 0.8"/>
      </defs>
      <g>
       <use xlink:href="#m159e8b5100" x="70.539063" y="282.856625" style="stroke: #000000; stroke-width: 0.8"/>
      </g>
     </g>
     <g id="text_6">
      <!-- 1.0 - 1.8 -->
      <g transform="translate(29.5 286.556625) scale(0.1 -0.1)">
       <defs>
        <path id="Poppins-Regular-31" d="M 243 4096
L 243 4627
L 1446 4627
L 1446 0
L 858 0
L 858 4096
L 243 4096
z
" transform="scale(0.015625)"/>
        <path id="Poppins-Regular-2e" d="M 678 -38
Q 512 -38 397 77
Q 282 192 282 358
Q 282 525 397 640
Q 512 755 678 755
Q 838 755 950 640
Q 1062 525 1062 358
Q 1062 192 950 77
Q 838 -38 678 -38
z
" transform="scale(0.015625)"/>
        <path id="Poppins-Regular-30" d="M 397 2362
Q 397 3462 755 4080
Q 1114 4698 2010 4698
Q 2899 4698 3257 4080
Q 3616 3462 3616 2362
Q 3616 1242 3257 621
Q 2899 0 2010 0
Q 1114 0 755 621
Q 397 1242 397 2362
z
M 3040 2362
Q 3040 2918 2966 3305
Q 2893 3693 2665 3929
Q 2438 4166 2010 4166
Q 1574 4166 1347 3929
Q 1120 3693 1046 3305
Q 973 2918 973 2362
Q 973 1786 1046 1395
Q 1120 1005 1347 768
Q 1574 531 2010 531
Q 2438 531 2665 768
Q 2893 1005 2966 1395
Q 3040 1786 3040 2362
z
" transform="scale(0.015625)"/>
        <path id="Poppins-Regular-20" transform="scale(0.015625)"/>
        <path id="Poppins-Regular-2d" d="M 2925 2592
L 2925 2099
L 371 2099
L 371 2592
L 2925 2592
z
" transform="scale(0.015625)"/>
        <path id="Poppins-Regular-38" d="M 1242 2406
Q 883 2547 691 2816
Q 499 3085 499 3469
Q 499 3814 672 4092
Q 845 4371 1187 4534
Q 1530 4698 2016 4698
Q 2502 4698 2844 4534
Q 3187 4371 3363 4092
Q 3539 3814 3539 3469
Q 3539 3098 3340 2819
Q 3142 2541 2797 2406
Q 3194 2285 3427 1981
Q 3661 1677 3661 1248
Q 3661 832 3456 521
Q 3251 211 2876 41
Q 2502 -128 2016 -128
Q 1530 -128 1162 41
Q 794 211 589 521
Q 384 832 384 1248
Q 384 1677 614 1984
Q 845 2291 1242 2406
z
M 2976 3398
Q 2976 3789 2720 4000
Q 2464 4211 2016 4211
Q 1574 4211 1318 4000
Q 1062 3789 1062 3392
Q 1062 3034 1328 2816
Q 1594 2598 2016 2598
Q 2445 2598 2710 2819
Q 2976 3040 2976 3398
z
M 2016 2150
Q 1542 2150 1241 1929
Q 941 1709 941 1267
Q 941 858 1232 608
Q 1523 358 2016 358
Q 2509 358 2797 608
Q 3085 858 3085 1267
Q 3085 1696 2790 1923
Q 2496 2150 2016 2150
z
" transform="scale(0.015625)"/>
       </defs>
       <use xlink:href="#Poppins-Regular-31"/>
       <use xlink:href="#Poppins-Regular-2e" transform="translate(31.999985 0)"/>
       <use xlink:href="#Poppins-Regular-30" transform="translate(52.999969 0)"/>
       <use xlink:href="#Poppins-Regular-20" transform="translate(115.799957 0)"/>
       <use xlink:href="#Poppins-Regular-2d" transform="translate(142.499954 0)"/>
       <use xlink:href="#Poppins-Regular-20" transform="translate(197.599945 0)"/>
       <use xlink:href="#Poppins-Regular-31" transform="translate(224.299942 0)"/>
       <use xlink:href="#Poppins-Regular-2e" transform="translate(256.299927 0)"/>
       <use xlink:href="#Poppins-Regular-38" transform="translate(277.299911 0)"/>
      </g>
     </g>
    </g>
    <g id="ytick_2">
     <g id="line2d_11">
      <path d="M 70.539063 255.976625
L 427.659063 255.976625
" clip-path="url(#p0208a4e016)" style="fill: none; stroke: #dad8d7; stroke-opacity: 0.5; stroke-width: 0.8; stroke-linecap: square"/>
     </g>
     <g id="line2d_12">
      <g>
       <use xlink:href="#m159e8b5100" x="70.539063" y="255.976625" style="stroke: #000000; stroke-width: 0.8"/>
      </g>
     </g>
     <g id="text_7">
      <!-- 1.8 - 2.6 -->
      <g transform="translate(26.879688 259.676625) scale(0.1 -0.1)">
       <defs>
        <path id="Poppins-Regular-32" d="M 326 467
Q 1139 1120 1600 1539
Q 2061 1958 2377 2416
Q 2694 2874 2694 3315
Q 2694 3731 2492 3971
Q 2291 4211 1843 4211
Q 1408 4211 1168 3939
Q 928 3667 909 3213
L 346 3213
Q 371 3930 780 4320
Q 1190 4710 1837 4710
Q 2496 4710 2883 4345
Q 3270 3981 3270 3341
Q 3270 2810 2953 2307
Q 2637 1805 2233 1424
Q 1830 1043 1203 538
L 3405 538
L 3405 51
L 326 51
L 326 467
z
" transform="scale(0.015625)"/>
        <path id="Poppins-Regular-36" d="M 2976 3526
Q 2835 4237 2099 4237
Q 1530 4237 1248 3798
Q 966 3360 973 2355
Q 1120 2688 1462 2877
Q 1805 3066 2227 3066
Q 2886 3066 3280 2656
Q 3674 2246 3674 1523
Q 3674 1088 3504 742
Q 3334 397 2992 192
Q 2650 -13 2163 -13
Q 1504 -13 1133 281
Q 762 576 614 1094
Q 467 1613 467 2374
Q 467 4723 2106 4723
Q 2733 4723 3091 4384
Q 3450 4045 3514 3526
L 2976 3526
z
M 2106 2573
Q 1830 2573 1587 2461
Q 1344 2349 1193 2121
Q 1043 1894 1043 1568
Q 1043 1082 1324 778
Q 1606 474 2131 474
Q 2579 474 2844 752
Q 3110 1030 3110 1504
Q 3110 2003 2854 2288
Q 2598 2573 2106 2573
z
" transform="scale(0.015625)"/>
       </defs>
       <use xlink:href="#Poppins-Regular-31"/>
       <use xlink:href="#Poppins-Regular-2e" transform="translate(31.999985 0)"/>
       <use xlink:href="#Poppins-Regular-38" transform="translate(52.999969 0)"/>
       <use xlink:href="#Poppins-Regular-20" transform="translate(116.09996 0)"/>
       <use xlink:href="#Poppins-Regular-2d" transform="translate(142.799957 0)"/>
       <use xlink:href="#Poppins-Regular-20" transform="translate(197.899948 0)"/>
       <use xlink:href="#Poppins-Regular-32" transform="translate(224.599945 0)"/>
       <use xlink:href="#Poppins-Regular-2e" transform="translate(282.09993 0)"/>
       <use xlink:href="#Poppins-Regular-36" transform="translate(303.099915 0)"/>
      </g>
     </g>
    </g>
    <g id="ytick_3">
     <g id="line2d_13">
      <path d="M 70.539063 229.096625
L 427.659063 229.096625
" clip-path="url(#p0208a4e016)" style="fill: none; stroke: #dad8d7; stroke-opacity: 0.5; stroke-width: 0.8; stroke-linecap: square"/>
     </g>
     <g id="line2d_14">
      <g>
       <use xlink:href="#m159e8b5100" x="70.539063" y="229.096625" style="stroke: #000000; stroke-width: 0.8"/>
      </g>
     </g>
     <g id="text_8">
      <!-- 2.6 - 3.4 -->
      <g transform="translate(24.207813 232.796625) scale(0.1 -0.1)">
       <defs>
        <path id="Poppins-Regular-33" d="M 384 3462
Q 429 4051 838 4384
Q 1248 4717 1901 4717
Q 2336 4717 2653 4560
Q 2970 4403 3133 4134
Q 3296 3866 3296 3526
Q 3296 3130 3069 2842
Q 2842 2554 2477 2470
L 2477 2438
Q 2893 2336 3136 2035
Q 3379 1734 3379 1248
Q 3379 883 3212 592
Q 3046 301 2713 134
Q 2381 -32 1914 -32
Q 1235 -32 800 323
Q 365 678 314 1331
L 877 1331
Q 922 947 1190 704
Q 1459 461 1907 461
Q 2355 461 2588 694
Q 2822 928 2822 1299
Q 2822 1779 2502 1990
Q 2182 2202 1536 2202
L 1389 2202
L 1389 2688
L 1542 2688
Q 2131 2694 2432 2883
Q 2733 3072 2733 3469
Q 2733 3808 2512 4013
Q 2291 4218 1882 4218
Q 1485 4218 1241 4013
Q 998 3808 954 3462
L 384 3462
z
" transform="scale(0.015625)"/>
        <path id="Poppins-Regular-34" d="M 256 1030
L 256 1472
L 2502 4582
L 3200 4582
L 3200 1536
L 3840 1536
L 3840 1030
L 3200 1030
L 3200 0
L 2624 0
L 2624 1030
L 256 1030
z
M 2650 3974
L 928 1536
L 2650 1536
L 2650 3974
z
" transform="scale(0.015625)"/>
       </defs>
       <use xlink:href="#Poppins-Regular-32"/>
       <use xlink:href="#Poppins-Regular-2e" transform="translate(57.499985 0)"/>
       <use xlink:href="#Poppins-Regular-36" transform="translate(78.499969 0)"/>
       <use xlink:href="#Poppins-Regular-20" transform="translate(141.999954 0)"/>
       <use xlink:href="#Poppins-Regular-2d" transform="translate(168.699951 0)"/>
       <use xlink:href="#Poppins-Regular-20" transform="translate(223.799942 0)"/>
       <use xlink:href="#Poppins-Regular-33" transform="translate(250.499939 0)"/>
       <use xlink:href="#Poppins-Regular-2e" transform="translate(309.399933 0)"/>
       <use xlink:href="#Poppins-Regular-34" transform="translate(330.399918 0)"/>
      </g>
     </g>
    </g>
    <g id="ytick_4">
     <g id="line2d_15">
      <path d="M 70.539063 202.216625
L 427.659063 202.216625
" clip-path="url(#p0208a4e016)" style="fill: none; stroke: #dad8d7; stroke-opacity: 0.5; stroke-width: 0.8; stroke-linecap: square"/>
     </g>
     <g id="line2d_16">
      <g>
       <use xlink:href="#m159e8b5100" x="70.539063" y="202.216625" style="stroke: #000000; stroke-width: 0.8"/>
      </g>
     </g>
     <g id="text_9">
      <!-- 3.4 - 4.2 -->
      <g transform="translate(24.267188 205.916625) scale(0.1 -0.1)">
       <use xlink:href="#Poppins-Regular-33"/>
       <use xlink:href="#Poppins-Regular-2e" transform="translate(58.899994 0)"/>
       <use xlink:href="#Poppins-Regular-34" transform="translate(79.899979 0)"/>
       <use xlink:href="#Poppins-Regular-20" transform="translate(142.799973 0)"/>
       <use xlink:href="#Poppins-Regular-2d" transform="translate(169.499969 0)"/>
       <use xlink:href="#Poppins-Regular-20" transform="translate(224.59996 0)"/>
       <use xlink:href="#Poppins-Regular-34" transform="translate(251.299957 0)"/>
       <use xlink:href="#Poppins-Regular-2e" transform="translate(314.199951 0)"/>
       <use xlink:href="#Poppins-Regular-32" transform="translate(335.199936 0)"/>
      </g>
     </g>
    </g>
    <g id="ytick_5">
     <g id="line2d_17">
      <path d="M 70.539063 175.336625
L 427.659063 175.336625
" clip-path="url(#p0208a4e016)" style="fill: none; stroke: #dad8d7; stroke-opacity: 0.5; stroke-width: 0.8; stroke-linecap: square"/>
     </g>
     <g id="line2d_18">
      <g>
       <use xlink:href="#m159e8b5100" x="70.539063" y="175.336625" style="stroke: #000000; stroke-width: 0.8"/>
      </g>
     </g>
     <g id="text_10">
      <!-- 4.2 - 5.0 -->
      <g transform="translate(23.889063 179.036625) scale(0.1 -0.1)">
       <defs>
        <path id="Poppins-Regular-35" d="M 3347 4122
L 1101 4122
L 1101 2662
Q 1248 2867 1536 2998
Q 1824 3130 2157 3130
Q 2688 3130 3021 2909
Q 3354 2688 3498 2339
Q 3642 1990 3642 1600
Q 3642 1139 3469 774
Q 3296 410 2941 198
Q 2586 -13 2061 -13
Q 1389 -13 973 332
Q 557 678 467 1254
L 1037 1254
Q 1120 890 1389 685
Q 1658 480 2067 480
Q 2573 480 2829 784
Q 3085 1088 3085 1587
Q 3085 2086 2829 2358
Q 2573 2630 2074 2630
Q 1734 2630 1481 2467
Q 1229 2304 1114 2022
L 563 2022
L 563 4634
L 3347 4634
L 3347 4122
z
" transform="scale(0.015625)"/>
       </defs>
       <use xlink:href="#Poppins-Regular-34"/>
       <use xlink:href="#Poppins-Regular-2e" transform="translate(62.899994 0)"/>
       <use xlink:href="#Poppins-Regular-32" transform="translate(83.899979 0)"/>
       <use xlink:href="#Poppins-Regular-20" transform="translate(141.399963 0)"/>
       <use xlink:href="#Poppins-Regular-2d" transform="translate(168.09996 0)"/>
       <use xlink:href="#Poppins-Regular-20" transform="translate(223.199951 0)"/>
       <use xlink:href="#Poppins-Regular-35" transform="translate(249.899948 0)"/>
       <use xlink:href="#Poppins-Regular-2e" transform="translate(312.699936 0)"/>
       <use xlink:href="#Poppins-Regular-30" transform="translate(333.699921 0)"/>
      </g>
     </g>
    </g>
    <g id="ytick_6">
     <g id="line2d_19">
      <path d="M 70.539063 148.456625
L 427.659063 148.456625
" clip-path="url(#p0208a4e016)" style="fill: none; stroke: #dad8d7; stroke-opacity: 0.5; stroke-width: 0.8; stroke-linecap: square"/>
     </g>
     <g id="line2d_20">
      <g>
       <use xlink:href="#m159e8b5100" x="70.539063" y="148.456625" style="stroke: #000000; stroke-width: 0.8"/>
      </g>
     </g>
     <g id="text_11">
      <!-- 5.0 - 5.8 -->
      <g transform="translate(23.340625 152.156625) scale(0.1 -0.1)">
       <use xlink:href="#Poppins-Regular-35"/>
       <use xlink:href="#Poppins-Regular-2e" transform="translate(62.799988 0)"/>
       <use xlink:href="#Poppins-Regular-30" transform="translate(83.799973 0)"/>
       <use xlink:href="#Poppins-Regular-20" transform="translate(146.59996 0)"/>
       <use xlink:href="#Poppins-Regular-2d" transform="translate(173.299957 0)"/>
       <use xlink:href="#Poppins-Regular-20" transform="translate(228.399948 0)"/>
       <use xlink:href="#Poppins-Regular-35" transform="translate(255.099945 0)"/>
       <use xlink:href="#Poppins-Regular-2e" transform="translate(317.899933 0)"/>
       <use xlink:href="#Poppins-Regular-38" transform="translate(338.899918 0)"/>
      </g>
     </g>
    </g>
    <g id="ytick_7">
     <g id="line2d_21">
      <path d="M 70.539063 121.576625
L 427.659063 121.576625
" clip-path="url(#p0208a4e016)" style="fill: none; stroke: #dad8d7; stroke-opacity: 0.5; stroke-width: 0.8; stroke-linecap: square"/>
     </g>
     <g id="line2d_22">
      <g>
       <use xlink:href="#m159e8b5100" x="70.539063" y="121.576625" style="stroke: #000000; stroke-width: 0.8"/>
      </g>
     </g>
     <g id="text_12">
      <!-- 5.8 - 6.6 -->
      <g transform="translate(23.2 125.276625) scale(0.1 -0.1)">
       <use xlink:href="#Poppins-Regular-35"/>
       <use xlink:href="#Poppins-Regular-2e" transform="translate(62.799988 0)"/>
       <use xlink:href="#Poppins-Regular-38" transform="translate(83.799973 0)"/>
       <use xlink:href="#Poppins-Regular-20" transform="translate(146.899963 0)"/>
       <use xlink:href="#Poppins-Regular-2d" transform="translate(173.59996 0)"/>
       <use xlink:href="#Poppins-Regular-20" transform="translate(228.699951 0)"/>
       <use xlink:href="#Poppins-Regular-36" transform="translate(255.399948 0)"/>
       <use xlink:href="#Poppins-Regular-2e" transform="translate(318.899933 0)"/>
       <use xlink:href="#Poppins-Regular-36" transform="translate(339.899918 0)"/>
      </g>
     </g>
    </g>
    <g id="ytick_8">
     <g id="line2d_23">
      <path d="M 70.539063 94.696625
L 427.659063 94.696625
" clip-path="url(#p0208a4e016)" style="fill: none; stroke: #dad8d7; stroke-opacity: 0.5; stroke-width: 0.8; stroke-linecap: square"/>
     </g>
     <g id="line2d_24">
      <g>
       <use xlink:href="#m159e8b5100" x="70.539063" y="94.696625" style="stroke: #000000; stroke-width: 0.8"/>
      </g>
     </g>
     <g id="text_13">
      <!-- 6.6 - 7.4 -->
      <g transform="translate(24.039063 98.396625) scale(0.1 -0.1)">
       <defs>
        <path id="Poppins-Regular-37" d="M 3245 4173
L 1466 0
L 877 0
L 2682 4115
L 211 4115
L 211 4614
L 3245 4614
L 3245 4173
z
" transform="scale(0.015625)"/>
       </defs>
       <use xlink:href="#Poppins-Regular-36"/>
       <use xlink:href="#Poppins-Regular-2e" transform="translate(63.499985 0)"/>
       <use xlink:href="#Poppins-Regular-36" transform="translate(84.499969 0)"/>
       <use xlink:href="#Poppins-Regular-20" transform="translate(147.999954 0)"/>
       <use xlink:href="#Poppins-Regular-2d" transform="translate(174.699951 0)"/>
       <use xlink:href="#Poppins-Regular-20" transform="translate(229.799942 0)"/>
       <use xlink:href="#Poppins-Regular-37" transform="translate(256.499939 0)"/>
       <use xlink:href="#Poppins-Regular-2e" transform="translate(311.09993 0)"/>
       <use xlink:href="#Poppins-Regular-34" transform="translate(332.099915 0)"/>
      </g>
     </g>
    </g>
    <g id="ytick_9">
     <g id="line2d_25">
      <path d="M 70.539063 67.816625
L 427.659063 67.816625
" clip-path="url(#p0208a4e016)" style="fill: none; stroke: #dad8d7; stroke-opacity: 0.5; stroke-width: 0.8; stroke-linecap: square"/>
     </g>
     <g id="line2d_26">
      <g>
       <use xlink:href="#m159e8b5100" x="70.539063" y="67.816625" style="stroke: #000000; stroke-width: 0.8"/>
      </g>
     </g>
     <g id="text_14">
      <!-- 7.4 - 8.2 -->
      <g transform="translate(24.679688 71.516625) scale(0.1 -0.1)">
       <use xlink:href="#Poppins-Regular-37"/>
       <use xlink:href="#Poppins-Regular-2e" transform="translate(54.599991 0)"/>
       <use xlink:href="#Poppins-Regular-34" transform="translate(75.599976 0)"/>
       <use xlink:href="#Poppins-Regular-20" transform="translate(138.499969 0)"/>
       <use xlink:href="#Poppins-Regular-2d" transform="translate(165.199966 0)"/>
       <use xlink:href="#Poppins-Regular-20" transform="translate(220.299957 0)"/>
       <use xlink:href="#Poppins-Regular-38" transform="translate(246.999954 0)"/>
       <use xlink:href="#Poppins-Regular-2e" transform="translate(310.099945 0)"/>
       <use xlink:href="#Poppins-Regular-32" transform="translate(331.09993 0)"/>
      </g>
     </g>
    </g>
    <g id="ytick_10">
     <g id="line2d_27">
      <path d="M 70.539063 40.936625
L 427.659063 40.936625
" clip-path="url(#p0208a4e016)" style="fill: none; stroke: #dad8d7; stroke-opacity: 0.5; stroke-width: 0.8; stroke-linecap: square"/>
     </g>
     <g id="line2d_28">
      <g>
       <use xlink:href="#m159e8b5100" x="70.539063" y="40.936625" style="stroke: #000000; stroke-width: 0.8"/>
      </g>
     </g>
     <g id="text_15">
      <!-- 8.2 - 9.0 -->
      <g transform="translate(23.85 44.636625) scale(0.1 -0.1)">
       <defs>
        <path id="Poppins-Regular-39" d="M 1146 1242
Q 1210 877 1443 678
Q 1677 480 2074 480
Q 2605 480 2857 896
Q 3110 1312 3098 2298
Q 2963 2010 2649 1846
Q 2336 1683 1952 1683
Q 1523 1683 1187 1859
Q 851 2035 659 2374
Q 467 2714 467 3194
Q 467 3878 864 4297
Q 1261 4717 1990 4717
Q 2886 4717 3248 4134
Q 3610 3552 3610 2400
Q 3610 1594 3466 1069
Q 3322 544 2979 269
Q 2637 -6 2042 -6
Q 1389 -6 1024 346
Q 659 698 608 1242
L 1146 1242
z
M 2048 2176
Q 2477 2176 2752 2441
Q 3027 2707 3027 3162
Q 3027 3642 2758 3936
Q 2490 4230 2003 4230
Q 1555 4230 1289 3948
Q 1024 3667 1024 3206
Q 1024 2739 1286 2457
Q 1549 2176 2048 2176
z
" transform="scale(0.015625)"/>
       </defs>
       <use xlink:href="#Poppins-Regular-38"/>
       <use xlink:href="#Poppins-Regular-2e" transform="translate(63.099991 0)"/>
       <use xlink:href="#Poppins-Regular-32" transform="translate(84.099976 0)"/>
       <use xlink:href="#Poppins-Regular-20" transform="translate(141.59996 0)"/>
       <use xlink:href="#Poppins-Regular-2d" transform="translate(168.299957 0)"/>
       <use xlink:href="#Poppins-Regular-20" transform="translate(223.399948 0)"/>
       <use xlink:href="#Poppins-Regular-39" transform="translate(250.099945 0)"/>
       <use xlink:href="#Poppins-Regular-2e" transform="translate(313.09993 0)"/>
       <use xlink:href="#Poppins-Regular-30" transform="translate(334.099915 0)"/>
      </g>
     </g>
    </g>
    <g id="text_16">
     <!-- Price Bands -->
     <g transform="translate(16.08 196.810062) rotate(-90) scale(0.12 -0.12)">
      <defs>
       <path id="Poppins-Regular-50" d="M 3475 3155
Q 3475 2598 3094 2230
Q 2714 1862 1933 1862
L 1075 1862
L 1075 0
L 493 0
L 493 4461
L 1933 4461
Q 2688 4461 3081 4096
Q 3475 3731 3475 3155
z
M 1933 2342
Q 2419 2342 2649 2553
Q 2880 2765 2880 3155
Q 2880 3981 1933 3981
L 1075 3981
L 1075 2342
L 1933 2342
z
" transform="scale(0.015625)"/>
       <path id="Poppins-Regular-63" d="M 275 1760
Q 275 2304 492 2710
Q 710 3117 1097 3341
Q 1485 3565 1984 3565
Q 2630 3565 3049 3251
Q 3469 2938 3603 2381
L 2976 2381
Q 2886 2701 2627 2886
Q 2368 3072 1984 3072
Q 1485 3072 1177 2729
Q 870 2387 870 1760
Q 870 1126 1177 780
Q 1485 435 1984 435
Q 2368 435 2624 614
Q 2880 794 2976 1126
L 3603 1126
Q 3462 589 3040 265
Q 2618 -58 1984 -58
Q 1485 -58 1097 166
Q 710 390 492 800
Q 275 1210 275 1760
z
" transform="scale(0.015625)"/>
       <path id="Poppins-Regular-42" d="M 2726 2298
Q 2970 2259 3171 2099
Q 3373 1939 3491 1702
Q 3610 1466 3610 1197
Q 3610 858 3437 586
Q 3264 314 2934 157
Q 2605 0 2157 0
L 493 0
L 493 4461
L 2093 4461
Q 2547 4461 2867 4310
Q 3187 4160 3347 3904
Q 3507 3648 3507 3328
Q 3507 2931 3292 2672
Q 3078 2413 2726 2298
z
M 1075 2534
L 2054 2534
Q 2464 2534 2688 2726
Q 2912 2918 2912 3258
Q 2912 3597 2688 3789
Q 2464 3981 2042 3981
L 1075 3981
L 1075 2534
z
M 2106 480
Q 2541 480 2784 685
Q 3027 890 3027 1254
Q 3027 1626 2771 1840
Q 2515 2054 2086 2054
L 1075 2054
L 1075 480
L 2106 480
z
" transform="scale(0.015625)"/>
       <path id="Poppins-Regular-64" d="M 275 1766
Q 275 2304 492 2710
Q 710 3117 1091 3341
Q 1472 3565 1946 3565
Q 2355 3565 2707 3376
Q 3059 3187 3245 2880
L 3245 4736
L 3834 4736
L 3834 0
L 3245 0
L 3245 659
Q 3072 346 2733 144
Q 2394 -58 1939 -58
Q 1472 -58 1091 172
Q 710 403 492 819
Q 275 1235 275 1766
z
M 3245 1760
Q 3245 2157 3085 2451
Q 2925 2746 2653 2902
Q 2381 3059 2054 3059
Q 1728 3059 1459 2905
Q 1190 2752 1030 2457
Q 870 2163 870 1766
Q 870 1363 1030 1065
Q 1190 768 1459 611
Q 1728 454 2054 454
Q 2381 454 2653 611
Q 2925 768 3085 1065
Q 3245 1363 3245 1760
z
" transform="scale(0.015625)"/>
      </defs>
      <use xlink:href="#Poppins-Regular-50"/>
      <use xlink:href="#Poppins-Regular-72" transform="translate(57.899994 0)"/>
      <use xlink:href="#Poppins-Regular-69" transform="translate(95.199982 0)"/>
      <use xlink:href="#Poppins-Regular-63" transform="translate(119.799973 0)"/>
      <use xlink:href="#Poppins-Regular-65" transform="translate(180.499969 0)"/>
      <use xlink:href="#Poppins-Regular-20" transform="translate(242.499954 0)"/>
      <use xlink:href="#Poppins-Regular-42" transform="translate(269.199951 0)"/>
      <use xlink:href="#Poppins-Regular-61" transform="translate(330.499939 0)"/>
      <use xlink:href="#Poppins-Regular-6e" transform="translate(398.09993 0)"/>
      <use xlink:href="#Poppins-Regular-64" transform="translate(462.099915 0)"/>
      <use xlink:href="#Poppins-Regular-73" transform="translate(529.699905 0)"/>
     </g>
    </g>
   </g>
   <g id="PathCollection_1">
    <path d="M 86.77179 287.755604
C 88.071014 287.755604 89.317201 287.239417 90.235891 286.320727
C 91.154582 285.402036 91.670769 284.15585 91.670769 282.856625
C 91.670769 281.5574 91.154582 280.311214 90.235891 279.392523
C 89.317201 278.473833 88.071014 277.957646 86.77179 277.957646
C 85.472565 277.957646 84.226379 278.473833 83.307688 279.392523
C 82.388998 280.311214 81.87281 281.5574 81.87281 282.856625
C 81.87281 284.15585 82.388998 285.402036 83.307688 286.320727
C 84.226379 287.239417 85.472565 287.755604 86.77179 287.755604
z
" clip-path="url(#p0208a4e016)" style="fill: #22c55e; fill-opacity: 0.7; stroke: #000000; stroke-opacity: 0.7; stroke-width: 1.5"/>
    <path d="M 86.77179 260.875604
C 88.071014 260.875604 89.317201 260.359417 90.235891 259.440727
C 91.154582 258.522036 91.670769 257.27585 91.670769 255.976625
C 91.670769 254.6774 91.154582 253.431214 90.235891 252.512523
C 89.317201 251.593833 88.071014 251.077646 86.77179 251.077646
C 85.472565 251.077646 84.226379 251.593833 83.307688 252.512523
C 82.388998 253.431214 81.87281 254.6774 81.87281 255.976625
C 81.87281 257.27585 82.388998 258.522036 83.307688 259.440727
C 84.226379 260.359417 85.472565 260.875604 86.77179 260.875604
z
" clip-path="url(#p0208a4e016)" style="fill: #22c55e; fill-opacity: 0.7; stroke: #000000; stroke-opacity: 0.7; stroke-width: 1.5"/>
    <path d="M 86.77179 207.115604
C 88.071014 207.115604 89.317201 206.599417 90.235891 205.680727
C 91.154582 204.762036 91.670769 203.51585 91.670769 202.216625
C 91.670769 200.9174 91.154582 199.671214 90.235891 198.752523
C 89.317201 197.833833 88.071014 197.317646 86.77179 197.317646
C 85.472565 197.317646 84.226379 197.833833 83.307688 198.752523
C 82.388998 199.671214 81.87281 200.9174 81.87281 202.216625
C 81.87281 203.51585 82.388998 204.762036 83.307688 205.680727
C 84.226379 206.599417 85.472565 207.115604 86.77179 207.115604
z
" clip-path="url(#p0208a4e016)" style="fill: #22c55e; fill-opacity: 0.7; stroke: #000000; stroke-opacity: 0.7; stroke-width: 1.5"/>
    <path d="M 86.77179 179.336625
C 87.832602 179.336625 88.850109 178.91516 89.600217 178.165052
C 90.350325 177.414944 90.77179 176.397437 90.77179 175.336625
C 90.77179 174.275813 90.350325 173.258306 89.600217 172.508198
C 88.850109 171.75809 87.832602 171.336625 86.77179 171.336625
C 85.710977 171.336625 84.69347 171.75809 83.943363 172.508198
C 83.193255 173.258306 82.77179 174.275813 82.77179 175.336625
C 82.77179 176.397437 83.193255 177.414944 83.943363 178.165052
C 84.69347 178.91516 85.710977 179.336625 86.77179 179.336625
z
" clip-path="url(#p0208a4e016)" style="fill: #22c55e; fill-opacity: 0.7; stroke: #000000; stroke-opacity: 0.7; stroke-width: 1.5"/>
    <path d="M 86.77179 153.355604
C 88.071014 153.355604 89.317201 152.839417 90.235891 151.920727
C 91.154582 151.002036 91.670769 149.75585 91.670769 148.456625
C 91.670769 147.1574 91.154582 145.911214 90.235891 144.992523
C 89.317201 144.073833 88.071014 143.557646 86.77179 143.557646
C 85.472565 143.557646 84.226379 144.073833 83.307688 144.992523
C 82.388998 145.911214 81.87281 147.1574 81.87281 148.456625
C 81.87281 149.75585 82.388998 151.002036 83.307688 151.920727
C 84.226379 152.839417 85.472565 153.355604 86.77179 153.355604
z
" clip-path="url(#p0208a4e016)" style="fill: #22c55e; fill-opacity: 0.7; stroke: #000000; stroke-opacity: 0.7; stroke-width: 1.5"/>
    <path d="M 86.77179 124.405052
C 87.521897 124.405052 88.241384 124.107031 88.77179 123.576625
C 89.302196 123.046219 89.600217 122.326733 89.600217 121.576625
C 89.600217 120.826517 89.302196 120.107031 88.77179 119.576625
C 88.241384 119.046219 87.521897 118.748198 86.77179 118.748198
C 86.021682 118.748198 85.302196 119.046219 84.77179 119.576625
C 84.241384 120.107031 83.943363 120.826517 83.943363 121.576625
C 83.943363 122.326733 84.241384 123.046219 84.77179 123.576625
C 85.302196 124.107031 86.021682 124.405052 86.77179 124.405052
z
" clip-path="url(#p0208a4e016)" style="fill: #22c55e; fill-opacity: 0.7; stroke: #000000; stroke-opacity: 0.7; stroke-width: 1.5"/>
    <path d="M 86.77179 98.696625
C 87.832602 98.696625 88.850109 98.27516 89.600217 97.525052
C 90.350325 96.774944 90.77179 95.757437 90.77179 94.696625
C 90.77179 93.635813 90.350325 92.618306 89.600217 91.868198
C 88.850109 91.11809 87.832602 90.696625 86.77179 90.696625
C 85.710977 90.696625 84.69347 91.11809 83.943363 91.868198
C 83.193255 92.618306 82.77179 93.635813 82.77179 94.696625
C 82.77179 95.757437 83.193255 96.774944 83.943363 97.525052
C 84.69347 98.27516 85.710977 98.696625 86.77179 98.696625
z
" clip-path="url(#p0208a4e016)" style="fill: #22c55e; fill-opacity: 0.7; stroke: #000000; stroke-opacity: 0.7; stroke-width: 1.5"/>
    <path d="M 86.77179 74.744828
C 88.609171 74.744828 90.371545 74.014829 91.670769 72.715604
C 92.969994 71.41638 93.699993 69.654006 93.699993 67.816625
C 93.699993 65.979244 92.969994 64.21687 91.670769 62.917646
C 90.371545 61.618421 88.609171 60.888422 86.77179 60.888422
C 84.934409 60.888422 83.172035 61.618421 81.87281 62.917646
C 80.573586 64.21687 79.843587 65.979244 79.843587 67.816625
C 79.843587 69.654006 80.573586 71.41638 81.87281 72.715604
C 83.172035 74.014829 84.934409 74.744828 86.77179 74.744828
z
" clip-path="url(#p0208a4e016)" style="fill: #22c55e; fill-opacity: 0.7; stroke: #000000; stroke-opacity: 0.7; stroke-width: 1.5"/>
    <path d="M 86.77179 44.936625
C 87.832602 44.936625 88.850109 44.51516 89.600217 43.765052
C 90.350325 43.014944 90.77179 41.997437 90.77179 40.936625
C 90.77179 39.875813 90.350325 38.858306 89.600217 38.108198
C 88.850109 37.35809 87.832602 36.936625 86.77179 36.936625
C 85.710977 36.936625 84.69347 37.35809 83.943363 38.108198
C 83.193255 38.858306 82.77179 39.875813 82.77179 40.936625
C 82.77179 41.997437 83.193255 43.014944 83.943363 43.765052
C 84.69347 44.51516 85.710977 44.936625 86.77179 44.936625
z
" clip-path="url(#p0208a4e016)" style="fill: #22c55e; fill-opacity: 0.7; stroke: #000000; stroke-opacity: 0.7; stroke-width: 1.5"/>
    <path d="M 194.989972 263.976625
C 197.111596 263.976625 199.146611 263.133695 200.646826 261.633479
C 202.147041 260.133264 202.989972 258.09825 202.989972 255.976625
C 202.989972 253.855 202.147041 251.819986 200.646826 250.319771
C 199.146611 248.819555 197.111596 247.976625 194.989972 247.976625
C 192.868347 247.976625 190.833333 248.819555 189.333117 250.319771
C 187.832902 251.819986 186.989972 253.855 186.989972 255.976625
C 186.989972 258.09825 187.832902 260.133264 189.333117 261.633479
C 190.833333 263.133695 192.868347 263.976625 194.989972 263.976625
z
" clip-path="url(#p0208a4e016)" style="fill: #3b82f6; fill-opacity: 0.7; stroke: #000000; stroke-opacity: 0.7; stroke-width: 1.5"/>
    <path d="M 194.989972 234.753479
C 196.490187 234.753479 197.929159 234.157437 198.989972 233.096625
C 200.050784 232.035813 200.646826 230.59684 200.646826 229.096625
C 200.646826 227.59641 200.050784 226.157437 198.989972 225.096625
C 197.929159 224.035813 196.490187 223.439771 194.989972 223.439771
C 193.489756 223.439771 192.050784 224.035813 190.989972 225.096625
C 189.929159 226.157437 189.333117 227.59641 189.333117 229.096625
C 189.333117 230.59684 189.929159 232.035813 190.989972 233.096625
C 192.050784 234.157437 193.489756 234.753479 194.989972 234.753479
z
" clip-path="url(#p0208a4e016)" style="fill: #3b82f6; fill-opacity: 0.7; stroke: #000000; stroke-opacity: 0.7; stroke-width: 1.5"/>
    <path d="M 194.989972 210.216625
C 197.111596 210.216625 199.146611 209.373695 200.646826 207.873479
C 202.147041 206.373264 202.989972 204.33825 202.989972 202.216625
C 202.989972 200.095 202.147041 198.059986 200.646826 196.559771
C 199.146611 195.059555 197.111596 194.216625 194.989972 194.216625
C 192.868347 194.216625 190.833333 195.059555 189.333117 196.559771
C 187.832902 198.059986 186.989972 200.095 186.989972 202.216625
C 186.989972 204.33825 187.832902 206.373264 189.333117 207.873479
C 190.833333 209.373695 192.868347 210.216625 194.989972 210.216625
z
" clip-path="url(#p0208a4e016)" style="fill: #3b82f6; fill-opacity: 0.7; stroke: #000000; stroke-opacity: 0.7; stroke-width: 1.5"/>
    <path d="M 194.989972 181.66118
C 196.667263 181.66118 198.276083 180.994785 199.462108 179.808761
C 200.648132 178.622737 201.314527 177.013917 201.314527 175.336625
C 201.314527 173.659333 200.648132 172.050513 199.462108 170.864489
C 198.276083 169.678465 196.667263 169.01207 194.989972 169.01207
C 193.31268 169.01207 191.70386 169.678465 190.517836 170.864489
C 189.331811 172.050513 188.665416 173.659333 188.665416 175.336625
C 188.665416 177.013917 189.331811 178.622737 190.517836 179.808761
C 191.70386 180.994785 193.31268 181.66118 194.989972 181.66118
z
" clip-path="url(#p0208a4e016)" style="fill: #3b82f6; fill-opacity: 0.7; stroke: #000000; stroke-opacity: 0.7; stroke-width: 1.5"/>
    <path d="M 303.208153 206.216625
C 304.268966 206.216625 305.286473 205.79516 306.036581 205.045052
C 306.786688 204.294944 307.208153 203.277437 307.208153 202.216625
C 307.208153 201.155813 306.786688 200.138306 306.036581 199.388198
C 305.286473 198.63809 304.268966 198.216625 303.208153 198.216625
C 302.147341 198.216625 301.129834 198.63809 300.379726 199.388198
C 299.629619 200.138306 299.208153 201.155813 299.208153 202.216625
C 299.208153 203.277437 299.629619 204.294944 300.379726 205.045052
C 301.129834 205.79516 302.147341 206.216625 303.208153 206.216625
z
" clip-path="url(#p0208a4e016)" style="fill: #ef4444; fill-opacity: 0.7; stroke: #000000; stroke-opacity: 0.7; stroke-width: 1.5"/>
    <path d="M 303.208153 181.66118
C 304.885445 181.66118 306.494265 180.994785 307.680289 179.808761
C 308.866314 178.622737 309.532709 177.013917 309.532709 175.336625
C 309.532709 173.659333 308.866314 172.050513 307.680289 170.864489
C 306.494265 169.678465 304.885445 169.01207 303.208153 169.01207
C 301.530862 169.01207 299.922042 169.678465 298.736017 170.864489
C 297.549993 172.050513 296.883598 173.659333 296.883598 175.336625
C 296.883598 177.013917 297.549993 178.622737 298.736017 179.808761
C 299.922042 180.994785 301.530862 181.66118 303.208153 181.66118
z
" clip-path="url(#p0208a4e016)" style="fill: #ef4444; fill-opacity: 0.7; stroke: #000000; stroke-opacity: 0.7; stroke-width: 1.5"/>
    <path d="M 303.208153 154.78118
C 304.885445 154.78118 306.494265 154.114785 307.680289 152.928761
C 308.866314 151.742737 309.532709 150.133917 309.532709 148.456625
C 309.532709 146.779333 308.866314 145.170513 307.680289 143.984489
C 306.494265 142.798465 304.885445 142.13207 303.208153 142.13207
C 301.530862 142.13207 299.922042 142.798465 298.736017 143.984489
C 297.549993 145.170513 296.883598 146.779333 296.883598 148.456625
C 296.883598 150.133917 297.549993 151.742737 298.736017 152.928761
C 299.922042 154.114785 301.530862 154.78118 303.208153 154.78118
z
" clip-path="url(#p0208a4e016)" style="fill: #ef4444; fill-opacity: 0.7; stroke: #000000; stroke-opacity: 0.7; stroke-width: 1.5"/>
    <path d="M 303.208153 125.576625
C 304.268966 125.576625 305.286473 125.15516 306.036581 124.405052
C 306.786688 123.654944 307.208153 122.637437 307.208153 121.576625
C 307.208153 120.515813 306.786688 119.498306 306.036581 118.748198
C 305.286473 117.99809 304.268966 117.576625 303.208153 117.576625
C 302.147341 117.576625 301.129834 117.99809 300.379726 118.748198
C 299.629619 119.498306 299.208153 120.515813 299.208153 121.576625
C 299.208153 122.637437 299.629619 123.654944 300.379726 124.405052
C 301.129834 125.15516 302.147341 125.576625 303.208153 125.576625
z
" clip-path="url(#p0208a4e016)" style="fill: #ef4444; fill-opacity: 0.7; stroke: #000000; stroke-opacity: 0.7; stroke-width: 1.5"/>
    <path d="M 303.208153 101.624828
C 305.045534 101.624828 306.807908 100.894829 308.107133 99.595604
C 309.406357 98.29638 310.136357 96.534006 310.136357 94.696625
C 310.136357 92.859244 309.406357 91.09687 308.107133 89.797646
C 306.807908 88.498421 305.045534 87.768422 303.208153 87.768422
C 301.370772 87.768422 299.608398 88.498421 298.309174 89.797646
C 297.009949 91.09687 296.27995 92.859244 296.27995 94.696625
C 296.27995 96.534006 297.009949 98.29638 298.309174 99.595604
C 299.608398 100.894829 301.370772 101.624828 303.208153 101.624828
z
" clip-path="url(#p0208a4e016)" style="fill: #ef4444; fill-opacity: 0.7; stroke: #000000; stroke-opacity: 0.7; stroke-width: 1.5"/>
    <path d="M 303.208153 74.14118
C 304.885445 74.14118 306.494265 73.474785 307.680289 72.288761
C 308.866314 71.102737 309.532709 69.493917 309.532709 67.816625
C 309.532709 66.139333 308.866314 64.530513 307.680289 63.344489
C 306.494265 62.158465 304.885445 61.49207 303.208153 61.49207
C 301.530862 61.49207 299.922042 62.158465 298.736017 63.344489
C 297.549993 64.530513 296.883598 66.139333 296.883598 67.816625
C 296.883598 69.493917 297.549993 71.102737 298.736017 72.288761
C 299.922042 73.474785 301.530862 74.14118 303.208153 74.14118
z
" clip-path="url(#p0208a4e016)" style="fill: #ef4444; fill-opacity: 0.7; stroke: #000000; stroke-opacity: 0.7; stroke-width: 1.5"/>
    <path d="M 411.426335 293.054664
C 414.130887 293.054664 416.725031 291.980134 418.637438 290.067728
C 420.549845 288.155321 421.624374 285.561177 421.624374 282.856625
C 421.624374 280.152073 420.549845 277.557929 418.637438 275.645522
C 416.725031 273.733116 414.130887 272.658586 411.426335 272.658586
C 408.721784 272.658586 406.127639 273.733116 404.215233 275.645522
C 402.302826 277.557929 401.228296 280.152073 401.228296 282.856625
C 401.228296 285.561177 402.302826 288.155321 404.215233 290.067728
C 406.127639 291.980134 408.721784 293.054664 411.426335 293.054664
z
" clip-path="url(#p0208a4e016)" style="fill: #f97316; fill-opacity: 0.7; stroke: #000000; stroke-opacity: 0.7; stroke-width: 1.5"/>
    <path d="M 411.426335 263.976625
C 413.54796 263.976625 415.582974 263.133695 417.083189 261.633479
C 418.583405 260.133264 419.426335 258.09825 419.426335 255.976625
C 419.426335 253.855 418.583405 251.819986 417.083189 250.319771
C 415.582974 248.819555 413.54796 247.976625 411.426335 247.976625
C 409.30471 247.976625 407.269696 248.819555 405.769481 250.319771
C 404.269266 251.819986 403.426335 253.855 403.426335 255.976625
C 403.426335 258.09825 404.269266 260.133264 405.769481 261.633479
C 407.269696 263.133695 409.30471 263.976625 411.426335 263.976625
z
" clip-path="url(#p0208a4e016)" style="fill: #f97316; fill-opacity: 0.7; stroke: #000000; stroke-opacity: 0.7; stroke-width: 1.5"/>
    <path d="M 411.426335 234.753479
C 412.926551 234.753479 414.365523 234.157437 415.426335 233.096625
C 416.487148 232.035813 417.083189 230.59684 417.083189 229.096625
C 417.083189 227.59641 416.487148 226.157437 415.426335 225.096625
C 414.365523 224.035813 412.926551 223.439771 411.426335 223.439771
C 409.92612 223.439771 408.487148 224.035813 407.426335 225.096625
C 406.365523 226.157437 405.769481 227.59641 405.769481 229.096625
C 405.769481 230.59684 406.365523 232.035813 407.426335 233.096625
C 408.487148 234.157437 409.92612 234.753479 411.426335 234.753479
z
" clip-path="url(#p0208a4e016)" style="fill: #f97316; fill-opacity: 0.7; stroke: #000000; stroke-opacity: 0.7; stroke-width: 1.5"/>
   </g>
   <g id="patch_3">
    <path d="M 70.539063 294.952625
L 70.539063 28.840625
" style="fill: none; stroke: #000000; stroke-width: 0.8; stroke-linejoin: miter; stroke-linecap: square"/>
   </g>
   <g id="patch_4">
    <path d="M 70.539062 294.952625
L 427.659063 294.952625
" style="fill: none; stroke: #000000; stroke-width: 0.8; stroke-linejoin: miter; stroke-linecap: square"/>
   </g>
   <g id="text_17">
    <!-- Price Distribution Analysis by Retailer -->
    <g transform="translate(60.455313 22.840625) scale(0.2 -0.2)">
     <defs>
      <path id="Poppins-SemiBold-50" d="M 3699 3085
Q 3699 2726 3529 2412
Q 3360 2099 2998 1907
Q 2637 1715 2086 1715
L 1338 1715
L 1338 0
L 442 0
L 442 4467
L 2086 4467
Q 2605 4467 2969 4288
Q 3334 4109 3516 3795
Q 3699 3482 3699 3085
z
M 2048 2438
Q 2419 2438 2598 2608
Q 2778 2778 2778 3085
Q 2778 3738 2048 3738
L 1338 3738
L 1338 2438
L 2048 2438
z
" transform="scale(0.015625)"/>
      <path id="Poppins-SemiBold-72" d="M 1338 2995
Q 1510 3277 1788 3437
Q 2067 3597 2426 3597
L 2426 2656
L 2189 2656
Q 1766 2656 1552 2457
Q 1338 2259 1338 1766
L 1338 0
L 442 0
L 442 3546
L 1338 3546
L 1338 2995
z
" transform="scale(0.015625)"/>
      <path id="Poppins-SemiBold-69" d="M 896 3968
Q 659 3968 502 4118
Q 346 4269 346 4493
Q 346 4717 502 4867
Q 659 5018 896 5018
Q 1133 5018 1289 4867
Q 1446 4717 1446 4493
Q 1446 4269 1289 4118
Q 1133 3968 896 3968
z
M 1338 3546
L 1338 0
L 442 0
L 442 3546
L 1338 3546
z
" transform="scale(0.015625)"/>
      <path id="Poppins-SemiBold-63" d="M 211 1773
Q 211 2323 435 2736
Q 659 3149 1056 3376
Q 1453 3603 1965 3603
Q 2624 3603 3056 3273
Q 3488 2944 3635 2349
L 2669 2349
Q 2592 2579 2409 2710
Q 2227 2842 1958 2842
Q 1574 2842 1350 2563
Q 1126 2285 1126 1773
Q 1126 1267 1350 988
Q 1574 710 1958 710
Q 2502 710 2669 1197
L 3635 1197
Q 3488 621 3053 281
Q 2618 -58 1965 -58
Q 1453 -58 1056 169
Q 659 397 435 809
Q 211 1222 211 1773
z
" transform="scale(0.015625)"/>
      <path id="Poppins-SemiBold-65" d="M 3738 1850
Q 3738 1658 3712 1504
L 1120 1504
Q 1152 1120 1389 902
Q 1626 685 1971 685
Q 2470 685 2682 1114
L 3648 1114
Q 3494 602 3059 272
Q 2624 -58 1990 -58
Q 1478 -58 1072 169
Q 666 397 438 813
Q 211 1229 211 1773
Q 211 2323 435 2739
Q 659 3155 1062 3379
Q 1466 3603 1990 3603
Q 2496 3603 2896 3385
Q 3296 3168 3517 2768
Q 3738 2368 3738 1850
z
M 2810 2106
Q 2803 2451 2560 2659
Q 2317 2867 1965 2867
Q 1632 2867 1405 2665
Q 1178 2464 1126 2106
L 2810 2106
z
" transform="scale(0.015625)"/>
      <path id="Poppins-SemiBold-20" transform="scale(0.015625)"/>
      <path id="Poppins-SemiBold-44" d="M 2003 4467
Q 2707 4467 3241 4192
Q 3776 3917 4067 3408
Q 4358 2899 4358 2227
Q 4358 1555 4067 1052
Q 3776 550 3241 275
Q 2707 0 2003 0
L 442 0
L 442 4467
L 2003 4467
z
M 1971 762
Q 2675 762 3059 1146
Q 3443 1530 3443 2227
Q 3443 2925 3059 3318
Q 2675 3712 1971 3712
L 1338 3712
L 1338 762
L 1971 762
z
" transform="scale(0.015625)"/>
      <path id="Poppins-SemiBold-73" d="M 1798 -58
Q 1363 -58 1017 99
Q 672 256 470 525
Q 269 794 250 1120
L 1152 1120
Q 1178 915 1354 780
Q 1530 646 1792 646
Q 2048 646 2192 748
Q 2336 851 2336 1011
Q 2336 1184 2160 1270
Q 1984 1357 1600 1459
Q 1203 1555 950 1657
Q 698 1760 515 1971
Q 333 2182 333 2541
Q 333 2835 502 3078
Q 672 3322 989 3462
Q 1306 3603 1734 3603
Q 2368 3603 2745 3286
Q 3123 2970 3162 2432
L 2304 2432
Q 2285 2643 2128 2768
Q 1971 2893 1709 2893
Q 1466 2893 1334 2803
Q 1203 2714 1203 2554
Q 1203 2374 1382 2281
Q 1562 2189 1939 2093
Q 2323 1997 2572 1894
Q 2822 1792 3004 1577
Q 3187 1363 3194 1011
Q 3194 704 3024 461
Q 2854 218 2537 80
Q 2221 -58 1798 -58
z
" transform="scale(0.015625)"/>
      <path id="Poppins-SemiBold-74" d="M 1485 2810
L 1485 1094
Q 1485 915 1571 835
Q 1658 755 1862 755
L 2278 755
L 2278 0
L 1715 0
Q 582 0 582 1101
L 582 2810
L 160 2810
L 160 3546
L 582 3546
L 582 4422
L 1485 4422
L 1485 3546
L 2278 3546
L 2278 2810
L 1485 2810
z
" transform="scale(0.015625)"/>
      <path id="Poppins-SemiBold-62" d="M 1338 3027
Q 1510 3283 1814 3443
Q 2118 3603 2509 3603
Q 2963 3603 3331 3379
Q 3699 3155 3913 2742
Q 4128 2330 4128 1786
Q 4128 1242 3913 822
Q 3699 403 3331 172
Q 2963 -58 2509 -58
Q 2112 -58 1814 99
Q 1517 256 1338 506
L 1338 0
L 442 0
L 442 4736
L 1338 4736
L 1338 3027
z
M 3213 1786
Q 3213 2106 3081 2339
Q 2950 2573 2736 2694
Q 2522 2816 2272 2816
Q 2029 2816 1814 2691
Q 1600 2566 1469 2329
Q 1338 2093 1338 1773
Q 1338 1453 1469 1216
Q 1600 979 1814 854
Q 2029 730 2272 730
Q 2522 730 2736 858
Q 2950 986 3081 1222
Q 3213 1459 3213 1786
z
" transform="scale(0.015625)"/>
      <path id="Poppins-SemiBold-75" d="M 3789 3546
L 3789 0
L 2886 0
L 2886 448
Q 2714 218 2435 86
Q 2157 -45 1830 -45
Q 1414 -45 1094 131
Q 774 307 592 649
Q 410 992 410 1466
L 410 3546
L 1306 3546
L 1306 1594
Q 1306 1171 1517 944
Q 1728 717 2093 717
Q 2464 717 2675 944
Q 2886 1171 2886 1594
L 2886 3546
L 3789 3546
z
" transform="scale(0.015625)"/>
      <path id="Poppins-SemiBold-6f" d="M 2016 -58
Q 1504 -58 1094 169
Q 685 397 451 813
Q 218 1229 218 1773
Q 218 2317 458 2733
Q 698 3149 1114 3376
Q 1530 3603 2042 3603
Q 2554 3603 2970 3376
Q 3386 3149 3626 2733
Q 3866 2317 3866 1773
Q 3866 1229 3619 813
Q 3373 397 2953 169
Q 2534 -58 2016 -58
z
M 2016 723
Q 2259 723 2473 841
Q 2688 960 2816 1197
Q 2944 1434 2944 1773
Q 2944 2278 2678 2550
Q 2413 2822 2029 2822
Q 1645 2822 1385 2550
Q 1126 2278 1126 1773
Q 1126 1267 1379 995
Q 1632 723 2016 723
z
" transform="scale(0.015625)"/>
      <path id="Poppins-SemiBold-6e" d="M 2406 3597
Q 3040 3597 3430 3197
Q 3821 2797 3821 2080
L 3821 0
L 2925 0
L 2925 1958
Q 2925 2381 2713 2608
Q 2502 2835 2138 2835
Q 1766 2835 1552 2608
Q 1338 2381 1338 1958
L 1338 0
L 442 0
L 442 3546
L 1338 3546
L 1338 3104
Q 1517 3334 1795 3465
Q 2074 3597 2406 3597
z
" transform="scale(0.015625)"/>
      <path id="Poppins-SemiBold-41" d="M 3181 851
L 1402 851
L 1107 0
L 166 0
L 1773 4474
L 2816 4474
L 4422 0
L 3475 0
L 3181 851
z
M 2938 1568
L 2291 3437
L 1645 1568
L 2938 1568
z
" transform="scale(0.015625)"/>
      <path id="Poppins-SemiBold-61" d="M 211 1786
Q 211 2323 425 2739
Q 640 3155 1008 3379
Q 1376 3603 1830 3603
Q 2227 3603 2524 3443
Q 2822 3283 3002 3040
L 3002 3546
L 3904 3546
L 3904 0
L 3002 0
L 3002 518
Q 2829 269 2525 105
Q 2221 -58 1824 -58
Q 1376 -58 1008 172
Q 640 403 425 822
Q 211 1242 211 1786
z
M 3002 1773
Q 3002 2099 2874 2332
Q 2746 2566 2528 2691
Q 2310 2816 2061 2816
Q 1811 2816 1600 2694
Q 1389 2573 1257 2339
Q 1126 2106 1126 1786
Q 1126 1466 1257 1226
Q 1389 986 1603 858
Q 1818 730 2061 730
Q 2310 730 2528 854
Q 2746 979 2874 1212
Q 3002 1446 3002 1773
z
" transform="scale(0.015625)"/>
      <path id="Poppins-SemiBold-6c" d="M 1338 4736
L 1338 0
L 442 0
L 442 4736
L 1338 4736
z
" transform="scale(0.015625)"/>
      <path id="Poppins-SemiBold-79" d="M 3834 3546
L 1638 -1677
L 685 -1677
L 1453 90
L 32 3546
L 1037 3546
L 1952 1069
L 2880 3546
L 3834 3546
z
" transform="scale(0.015625)"/>
      <path id="Poppins-SemiBold-52" d="M 2746 0
L 1760 1741
L 1338 1741
L 1338 0
L 442 0
L 442 4467
L 2118 4467
Q 2637 4467 3001 4284
Q 3366 4102 3548 3792
Q 3731 3482 3731 3098
Q 3731 2656 3475 2301
Q 3219 1946 2714 1811
L 3782 0
L 2746 0
z
M 1338 2413
L 2086 2413
Q 2451 2413 2630 2589
Q 2810 2765 2810 3078
Q 2810 3386 2630 3555
Q 2451 3725 2086 3725
L 1338 3725
L 1338 2413
z
" transform="scale(0.015625)"/>
     </defs>
     <use xlink:href="#Poppins-SemiBold-50"/>
     <use xlink:href="#Poppins-SemiBold-72" transform="translate(60.799988 0)"/>
     <use xlink:href="#Poppins-SemiBold-69" transform="translate(101.199982 0)"/>
     <use xlink:href="#Poppins-SemiBold-63" transform="translate(128.999969 0)"/>
     <use xlink:href="#Poppins-SemiBold-65" transform="translate(189.199966 0)"/>
     <use xlink:href="#Poppins-SemiBold-20" transform="translate(250.899963 0)"/>
     <use xlink:href="#Poppins-SemiBold-44" transform="translate(274.699951 0)"/>
     <use xlink:href="#Poppins-SemiBold-69" transform="translate(346.399933 0)"/>
     <use xlink:href="#Poppins-SemiBold-73" transform="translate(374.199921 0)"/>
     <use xlink:href="#Poppins-SemiBold-74" transform="translate(428.699905 0)"/>
     <use xlink:href="#Poppins-SemiBold-72" transform="translate(467.499893 0)"/>
     <use xlink:href="#Poppins-SemiBold-69" transform="translate(507.899887 0)"/>
     <use xlink:href="#Poppins-SemiBold-62" transform="translate(535.699875 0)"/>
     <use xlink:href="#Poppins-SemiBold-75" transform="translate(603.499863 0)"/>
     <use xlink:href="#Poppins-SemiBold-74" transform="translate(669.599854 0)"/>
     <use xlink:href="#Poppins-SemiBold-69" transform="translate(708.399841 0)"/>
     <use xlink:href="#Poppins-SemiBold-6f" transform="translate(736.199829 0)"/>
     <use xlink:href="#Poppins-SemiBold-6e" transform="translate(799.999817 0)"/>
     <use xlink:href="#Poppins-SemiBold-20" transform="translate(866.099808 0)"/>
     <use xlink:href="#Poppins-SemiBold-41" transform="translate(889.899796 0)"/>
     <use xlink:href="#Poppins-SemiBold-6e" transform="translate(961.499786 0)"/>
     <use xlink:href="#Poppins-SemiBold-61" transform="translate(1027.599777 0)"/>
     <use xlink:href="#Poppins-SemiBold-6c" transform="translate(1095.399765 0)"/>
     <use xlink:href="#Poppins-SemiBold-79" transform="translate(1123.199753 0)"/>
     <use xlink:href="#Poppins-SemiBold-73" transform="translate(1183.699738 0)"/>
     <use xlink:href="#Poppins-SemiBold-69" transform="translate(1238.199722 0)"/>
     <use xlink:href="#Poppins-SemiBold-73" transform="translate(1265.99971 0)"/>
     <use xlink:href="#Poppins-SemiBold-20" transform="translate(1320.499695 0)"/>
     <use xlink:href="#Poppins-SemiBold-62" transform="translate(1344.299683 0)"/>
     <use xlink:href="#Poppins-SemiBold-79" transform="translate(1412.09967 0)"/>
     <use xlink:href="#Poppins-SemiBold-20" transform="translate(1472.599655 0)"/>
     <use xlink:href="#Poppins-SemiBold-52" transform="translate(1496.399643 0)"/>
     <use xlink:href="#Poppins-SemiBold-65" transform="translate(1560.499634 0)"/>
     <use xlink:href="#Poppins-SemiBold-74" transform="translate(1622.199631 0)"/>
     <use xlink:href="#Poppins-SemiBold-61" transform="translate(1660.999619 0)"/>
     <use xlink:href="#Poppins-SemiBold-69" transform="translate(1728.799606 0)"/>
     <use xlink:href="#Poppins-SemiBold-6c" transform="translate(1756.599594 0)"/>
     <use xlink:href="#Poppins-SemiBold-65" transform="translate(1784.399582 0)"/>
     <use xlink:href="#Poppins-SemiBold-72" transform="translate(1846.099579 0)"/>
    </g>
   </g>
   <g id="legend_1">
    <g id="text_18">
     <!-- Retailers -->
     <g transform="translate(472.772094 45.439062) scale(0.1 -0.1)">
      <defs>
       <path id="DejaVuSans-52" d="M 2841 2188
Q 3044 2119 3236 1894
Q 3428 1669 3622 1275
L 4263 0
L 3584 0
L 2988 1197
Q 2756 1666 2539 1819
Q 2322 1972 1947 1972
L 1259 1972
L 1259 0
L 628 0
L 628 4666
L 2053 4666
Q 2853 4666 3247 4331
Q 3641 3997 3641 3322
Q 3641 2881 3436 2590
Q 3231 2300 2841 2188
z
M 1259 4147
L 1259 2491
L 2053 2491
Q 2509 2491 2742 2702
Q 2975 2913 2975 3322
Q 2975 3731 2742 3939
Q 2509 4147 2053 4147
L 1259 4147
z
" transform="scale(0.015625)"/>
       <path id="DejaVuSans-65" d="M 3597 1894
L 3597 1613
L 953 1613
Q 991 1019 1311 708
Q 1631 397 2203 397
Q 2534 397 2845 478
Q 3156 559 3463 722
L 3463 178
Q 3153 47 2828 -22
Q 2503 -91 2169 -91
Q 1331 -91 842 396
Q 353 884 353 1716
Q 353 2575 817 3079
Q 1281 3584 2069 3584
Q 2775 3584 3186 3129
Q 3597 2675 3597 1894
z
M 3022 2063
Q 3016 2534 2758 2815
Q 2500 3097 2075 3097
Q 1594 3097 1305 2825
Q 1016 2553 972 2059
L 3022 2063
z
" transform="scale(0.015625)"/>
       <path id="DejaVuSans-74" d="M 1172 4494
L 1172 3500
L 2356 3500
L 2356 3053
L 1172 3053
L 1172 1153
Q 1172 725 1289 603
Q 1406 481 1766 481
L 2356 481
L 2356 0
L 1766 0
Q 1100 0 847 248
Q 594 497 594 1153
L 594 3053
L 172 3053
L 172 3500
L 594 3500
L 594 4494
L 1172 4494
z
" transform="scale(0.015625)"/>
       <path id="DejaVuSans-61" d="M 2194 1759
Q 1497 1759 1228 1600
Q 959 1441 959 1056
Q 959 750 1161 570
Q 1363 391 1709 391
Q 2188 391 2477 730
Q 2766 1069 2766 1631
L 2766 1759
L 2194 1759
z
M 3341 1997
L 3341 0
L 2766 0
L 2766 531
Q 2569 213 2275 61
Q 1981 -91 1556 -91
Q 1019 -91 701 211
Q 384 513 384 1019
Q 384 1609 779 1909
Q 1175 2209 1959 2209
L 2766 2209
L 2766 2266
Q 2766 2663 2505 2880
Q 2244 3097 1772 3097
Q 1472 3097 1187 3025
Q 903 2953 641 2809
L 641 3341
Q 956 3463 1253 3523
Q 1550 3584 1831 3584
Q 2591 3584 2966 3190
Q 3341 2797 3341 1997
z
" transform="scale(0.015625)"/>
       <path id="DejaVuSans-69" d="M 603 3500
L 1178 3500
L 1178 0
L 603 0
L 603 3500
z
M 603 4863
L 1178 4863
L 1178 4134
L 603 4134
L 603 4863
z
" transform="scale(0.015625)"/>
       <path id="DejaVuSans-6c" d="M 603 4863
L 1178 4863
L 1178 0
L 603 0
L 603 4863
z
" transform="scale(0.015625)"/>
       <path id="DejaVuSans-72" d="M 2631 2963
Q 2534 3019 2420 3045
Q 2306 3072 2169 3072
Q 1681 3072 1420 2755
Q 1159 2438 1159 1844
L 1159 0
L 581 0
L 581 3500
L 1159 3500
L 1159 2956
Q 1341 3275 1631 3429
Q 1922 3584 2338 3584
Q 2397 3584 2469 3576
Q 2541 3569 2628 3553
L 2631 2963
z
" transform="scale(0.015625)"/>
       <path id="DejaVuSans-73" d="M 2834 3397
L 2834 2853
Q 2591 2978 2328 3040
Q 2066 3103 1784 3103
Q 1356 3103 1142 2972
Q 928 2841 928 2578
Q 928 2378 1081 2264
Q 1234 2150 1697 2047
L 1894 2003
Q 2506 1872 2764 1633
Q 3022 1394 3022 966
Q 3022 478 2636 193
Q 2250 -91 1575 -91
Q 1294 -91 989 -36
Q 684 19 347 128
L 347 722
Q 666 556 975 473
Q 1284 391 1588 391
Q 1994 391 2212 530
Q 2431 669 2431 922
Q 2431 1156 2273 1281
Q 2116 1406 1581 1522
L 1381 1569
Q 847 1681 609 1914
Q 372 2147 372 2553
Q 372 3047 722 3315
Q 1072 3584 1716 3584
Q 2034 3584 2315 3537
Q 2597 3491 2834 3397
z
" transform="scale(0.015625)"/>
      </defs>
      <use xlink:href="#DejaVuSans-52"/>
      <use xlink:href="#DejaVuSans-65" transform="translate(64.982422 0)"/>
      <use xlink:href="#DejaVuSans-74" transform="translate(126.505859 0)"/>
      <use xlink:href="#DejaVuSans-61" transform="translate(165.714844 0)"/>
      <use xlink:href="#DejaVuSans-69" transform="translate(226.994141 0)"/>
      <use xlink:href="#DejaVuSans-6c" transform="translate(254.777344 0)"/>
      <use xlink:href="#DejaVuSans-65" transform="translate(282.560547 0)"/>
      <use xlink:href="#DejaVuSans-72" transform="translate(344.083984 0)"/>
      <use xlink:href="#DejaVuSans-73" transform="translate(385.197266 0)"/>
     </g>
    </g>
    <g id="line2d_29">
     <defs>
      <path id="mc070e48ea3" d="M 0 4
C 1.060812 4 2.078319 3.578535 2.828427 2.828427
C 3.578535 2.078319 4 1.060812 4 0
C 4 -1.060812 3.578535 -2.078319 2.828427 -2.828427
C 2.078319 -3.578535 1.060812 -4 0 -4
C -1.060812 -4 -2.078319 -3.578535 -2.828427 -2.828427
C -3.578535 -2.078319 -4 -1.060812 -4 0
C -4 1.060812 -3.578535 2.078319 -2.828427 2.828427
C -2.078319 3.578535 -1.060812 4 0 4
z
" style="stroke: #ffffff; stroke-opacity: 0.8"/>
     </defs>
     <g>
      <use xlink:href="#mc070e48ea3" x="464.515063" y="56.617187" style="fill: #22c55e; fill-opacity: 0.8; stroke: #ffffff; stroke-opacity: 0.8"/>
     </g>
    </g>
    <g id="text_19">
     <!-- CVS -->
     <g transform="translate(482.515063 60.117187) scale(0.1 -0.1)">
      <defs>
       <path id="DejaVuSans-43" d="M 4122 4306
L 4122 3641
Q 3803 3938 3442 4084
Q 3081 4231 2675 4231
Q 1875 4231 1450 3742
Q 1025 3253 1025 2328
Q 1025 1406 1450 917
Q 1875 428 2675 428
Q 3081 428 3442 575
Q 3803 722 4122 1019
L 4122 359
Q 3791 134 3420 21
Q 3050 -91 2638 -91
Q 1578 -91 968 557
Q 359 1206 359 2328
Q 359 3453 968 4101
Q 1578 4750 2638 4750
Q 3056 4750 3426 4639
Q 3797 4528 4122 4306
z
" transform="scale(0.015625)"/>
       <path id="DejaVuSans-56" d="M 1831 0
L 50 4666
L 709 4666
L 2188 738
L 3669 4666
L 4325 4666
L 2547 0
L 1831 0
z
" transform="scale(0.015625)"/>
       <path id="DejaVuSans-53" d="M 3425 4513
L 3425 3897
Q 3066 4069 2747 4153
Q 2428 4238 2131 4238
Q 1616 4238 1336 4038
Q 1056 3838 1056 3469
Q 1056 3159 1242 3001
Q 1428 2844 1947 2747
L 2328 2669
Q 3034 2534 3370 2195
Q 3706 1856 3706 1288
Q 3706 609 3251 259
Q 2797 -91 1919 -91
Q 1588 -91 1214 -16
Q 841 59 441 206
L 441 856
Q 825 641 1194 531
Q 1563 422 1919 422
Q 2459 422 2753 634
Q 3047 847 3047 1241
Q 3047 1584 2836 1778
Q 2625 1972 2144 2069
L 1759 2144
Q 1053 2284 737 2584
Q 422 2884 422 3419
Q 422 4038 858 4394
Q 1294 4750 2059 4750
Q 2388 4750 2728 4690
Q 3069 4631 3425 4513
z
" transform="scale(0.015625)"/>
      </defs>
      <use xlink:href="#DejaVuSans-43"/>
      <use xlink:href="#DejaVuSans-56" transform="translate(69.824219 0)"/>
      <use xlink:href="#DejaVuSans-53" transform="translate(138.232422 0)"/>
     </g>
    </g>
    <g id="line2d_30">
     <defs>
      <path id="m51e749e5f8" d="M 0 4
C 1.060812 4 2.078319 3.578535 2.828427 2.828427
C 3.578535 2.078319 4 1.060812 4 0
C 4 -1.060812 3.578535 -2.078319 2.828427 -2.828427
C 2.078319 -3.578535 1.060812 -4 0 -4
C -1.060812 -4 -2.078319 -3.578535 -2.828427 -2.828427
C -3.578535 -2.078319 -4 -1.060812 -4 0
C -4 1.060812 -3.578535 2.078319 -2.828427 2.828427
C -2.078319 3.578535 -1.060812 4 0 4
z
" style="stroke: #ffffff; stroke-opacity: 0.8"/>
     </defs>
     <g>
      <use xlink:href="#m51e749e5f8" x="464.515063" y="71.295312" style="fill: #3b82f6; fill-opacity: 0.8; stroke: #ffffff; stroke-opacity: 0.8"/>
     </g>
    </g>
    <g id="text_20">
     <!-- Target -->
     <g transform="translate(482.515063 74.795312) scale(0.1 -0.1)">
      <defs>
       <path id="DejaVuSans-54" d="M -19 4666
L 3928 4666
L 3928 4134
L 2272 4134
L 2272 0
L 1638 0
L 1638 4134
L -19 4134
L -19 4666
z
" transform="scale(0.015625)"/>
       <path id="DejaVuSans-67" d="M 2906 1791
Q 2906 2416 2648 2759
Q 2391 3103 1925 3103
Q 1463 3103 1205 2759
Q 947 2416 947 1791
Q 947 1169 1205 825
Q 1463 481 1925 481
Q 2391 481 2648 825
Q 2906 1169 2906 1791
z
M 3481 434
Q 3481 -459 3084 -895
Q 2688 -1331 1869 -1331
Q 1566 -1331 1297 -1286
Q 1028 -1241 775 -1147
L 775 -588
Q 1028 -725 1275 -790
Q 1522 -856 1778 -856
Q 2344 -856 2625 -561
Q 2906 -266 2906 331
L 2906 616
Q 2728 306 2450 153
Q 2172 0 1784 0
Q 1141 0 747 490
Q 353 981 353 1791
Q 353 2603 747 3093
Q 1141 3584 1784 3584
Q 2172 3584 2450 3431
Q 2728 3278 2906 2969
L 2906 3500
L 3481 3500
L 3481 434
z
" transform="scale(0.015625)"/>
      </defs>
      <use xlink:href="#DejaVuSans-54"/>
      <use xlink:href="#DejaVuSans-61" transform="translate(44.583984 0)"/>
      <use xlink:href="#DejaVuSans-72" transform="translate(105.863281 0)"/>
      <use xlink:href="#DejaVuSans-67" transform="translate(145.226562 0)"/>
      <use xlink:href="#DejaVuSans-65" transform="translate(208.703125 0)"/>
      <use xlink:href="#DejaVuSans-74" transform="translate(270.226562 0)"/>
     </g>
    </g>
    <g id="line2d_31">
     <defs>
      <path id="mc35dacad83" d="M 0 4
C 1.060812 4 2.078319 3.578535 2.828427 2.828427
C 3.578535 2.078319 4 1.060812 4 0
C 4 -1.060812 3.578535 -2.078319 2.828427 -2.828427
C 2.078319 -3.578535 1.060812 -4 0 -4
C -1.060812 -4 -2.078319 -3.578535 -2.828427 -2.828427
C -3.578535 -2.078319 -4 -1.060812 -4 0
C -4 1.060812 -3.578535 2.078319 -2.828427 2.828427
C -2.078319 3.578535 -1.060812 4 0 4
z
" style="stroke: #ffffff; stroke-opacity: 0.8"/>
     </defs>
     <g>
      <use xlink:href="#mc35dacad83" x="464.515063" y="85.973437" style="fill: #ef4444; fill-opacity: 0.8; stroke: #ffffff; stroke-opacity: 0.8"/>
     </g>
    </g>
    <g id="text_21">
     <!-- Walgreens -->
     <g transform="translate(482.515063 89.473437) scale(0.1 -0.1)">
      <defs>
       <path id="DejaVuSans-57" d="M 213 4666
L 850 4666
L 1831 722
L 2809 4666
L 3519 4666
L 4500 722
L 5478 4666
L 6119 4666
L 4947 0
L 4153 0
L 3169 4050
L 2175 0
L 1381 0
L 213 4666
z
" transform="scale(0.015625)"/>
       <path id="DejaVuSans-6e" d="M 3513 2113
L 3513 0
L 2938 0
L 2938 2094
Q 2938 2591 2744 2837
Q 2550 3084 2163 3084
Q 1697 3084 1428 2787
Q 1159 2491 1159 1978
L 1159 0
L 581 0
L 581 3500
L 1159 3500
L 1159 2956
Q 1366 3272 1645 3428
Q 1925 3584 2291 3584
Q 2894 3584 3203 3211
Q 3513 2838 3513 2113
z
" transform="scale(0.015625)"/>
      </defs>
      <use xlink:href="#DejaVuSans-57"/>
      <use xlink:href="#DejaVuSans-61" transform="translate(92.501953 0)"/>
      <use xlink:href="#DejaVuSans-6c" transform="translate(153.78125 0)"/>
      <use xlink:href="#DejaVuSans-67" transform="translate(181.564453 0)"/>
      <use xlink:href="#DejaVuSans-72" transform="translate(245.041016 0)"/>
      <use xlink:href="#DejaVuSans-65" transform="translate(283.904297 0)"/>
      <use xlink:href="#DejaVuSans-65" transform="translate(345.427734 0)"/>
      <use xlink:href="#DejaVuSans-6e" transform="translate(406.951172 0)"/>
      <use xlink:href="#DejaVuSans-73" transform="translate(470.330078 0)"/>
     </g>
    </g>
    <g id="line2d_32">
     <defs>
      <path id="mc226a89c24" d="M 0 4
C 1.060812 4 2.078319 3.578535 2.828427 2.828427
C 3.578535 2.078319 4 1.060812 4 0
C 4 -1.060812 3.578535 -2.078319 2.828427 -2.828427
C 2.078319 -3.578535 1.060812 -4 0 -4
C -1.060812 -4 -2.078319 -3.578535 -2.828427 -2.828427
C -3.578535 -2.078319 -4 -1.060812 -4 0
C -4 1.060812 -3.578535 2.078319 -2.828427 2.828427
C -2.078319 3.578535 -1.060812 4 0 4
z
" style="stroke: #ffffff; stroke-opacity: 0.8"/>
     </defs>
     <g>
      <use xlink:href="#mc226a89c24" x="464.515063" y="100.651562" style="fill: #f97316; fill-opacity: 0.8; stroke: #ffffff; stroke-opacity: 0.8"/>
     </g>
    </g>
    <g id="text_22">
     <!-- Walmart -->
     <g transform="translate(482.515063 104.151562) scale(0.1 -0.1)">
      <defs>
       <path id="DejaVuSans-6d" d="M 3328 2828
Q 3544 3216 3844 3400
Q 4144 3584 4550 3584
Q 5097 3584 5394 3201
Q 5691 2819 5691 2113
L 5691 0
L 5113 0
L 5113 2094
Q 5113 2597 4934 2840
Q 4756 3084 4391 3084
Q 3944 3084 3684 2787
Q 3425 2491 3425 1978
L 3425 0
L 2847 0
L 2847 2094
Q 2847 2600 2669 2842
Q 2491 3084 2119 3084
Q 1678 3084 1418 2786
Q 1159 2488 1159 1978
L 1159 0
L 581 0
L 581 3500
L 1159 3500
L 1159 2956
Q 1356 3278 1631 3431
Q 1906 3584 2284 3584
Q 2666 3584 2933 3390
Q 3200 3197 3328 2828
z
" transform="scale(0.015625)"/>
      </defs>
      <use xlink:href="#DejaVuSans-57"/>
      <use xlink:href="#DejaVuSans-61" transform="translate(92.501953 0)"/>
      <use xlink:href="#DejaVuSans-6c" transform="translate(153.78125 0)"/>
      <use xlink:href="#DejaVuSans-6d" transform="translate(181.564453 0)"/>
      <use xlink:href="#DejaVuSans-61" transform="translate(278.976562 0)"/>
      <use xlink:href="#DejaVuSans-72" transform="translate(340.255859 0)"/>
      <use xlink:href="#DejaVuSans-74" transform="translate(381.369141 0)"/>
     </g>
    </g>
   </g>
  </g>
  <g id="text_23">
   <!-- Source: PyRetailScience -->
   <g style="fill: #696969" transform="translate(7.339062 351.612937) scale(0.1 -0.1)">
    <defs>
     <path id="Poppins-LightItalic-53" d="M 1619 -45
Q 1216 -45 912 89
Q 608 224 441 467
Q 275 710 275 1024
Q 275 1107 282 1152
L 723 1152
Q 710 947 796 758
Q 883 570 1097 445
Q 1312 320 1651 320
Q 2125 320 2406 557
Q 2688 794 2688 1197
Q 2688 1440 2557 1603
Q 2426 1766 2234 1872
Q 2042 1978 1709 2112
Q 1318 2266 1088 2397
Q 858 2528 707 2758
Q 557 2989 582 3347
Q 595 3693 790 3958
Q 986 4224 1322 4374
Q 1658 4525 2086 4525
Q 2509 4525 2813 4381
Q 3117 4237 3267 3987
Q 3418 3738 3398 3437
L 2931 3437
Q 2944 3610 2851 3776
Q 2758 3942 2556 4048
Q 2355 4154 2061 4154
Q 1606 4154 1318 3933
Q 1030 3712 1030 3334
Q 1030 3110 1158 2956
Q 1286 2803 1472 2700
Q 1658 2598 1984 2464
Q 2362 2310 2595 2176
Q 2829 2042 2992 1818
Q 3155 1594 3155 1254
Q 3155 1171 3149 1126
Q 3123 800 2931 531
Q 2739 262 2403 108
Q 2067 -45 1619 -45
z
" transform="scale(0.015625)"/>
     <path id="Poppins-LightItalic-6f" d="M 1728 -51
Q 1293 -51 960 125
Q 627 301 444 624
Q 262 947 262 1382
Q 262 1971 531 2467
Q 800 2963 1280 3254
Q 1760 3546 2349 3546
Q 2784 3546 3117 3370
Q 3450 3194 3635 2870
Q 3821 2547 3821 2112
Q 3821 1517 3545 1024
Q 3270 531 2793 240
Q 2317 -51 1728 -51
z
M 1779 326
Q 2234 326 2595 569
Q 2957 813 3158 1216
Q 3360 1619 3360 2086
Q 3360 2611 3056 2886
Q 2752 3162 2285 3162
Q 1830 3162 1475 2918
Q 1120 2675 921 2272
Q 723 1869 723 1402
Q 723 883 1024 604
Q 1325 326 1779 326
z
" transform="scale(0.015625)"/>
     <path id="Poppins-LightItalic-75" d="M 3834 3494
L 3219 0
L 2771 0
L 2880 614
Q 2662 288 2316 115
Q 1971 -58 1574 -58
Q 1037 -58 710 233
Q 384 525 384 1082
Q 384 1286 416 1453
L 774 3494
L 1216 3494
L 864 1504
Q 838 1357 838 1197
Q 838 774 1072 553
Q 1306 333 1722 333
Q 2208 333 2560 630
Q 2912 928 3034 1504
L 3386 3494
L 3834 3494
z
" transform="scale(0.015625)"/>
     <path id="Poppins-LightItalic-72" d="M 1133 2797
Q 1344 3162 1683 3360
Q 2022 3558 2470 3558
L 2387 3091
L 2259 3091
Q 1798 3091 1465 2854
Q 1133 2618 1005 2074
L 640 0
L 192 0
L 806 3494
L 1254 3494
L 1133 2797
z
" transform="scale(0.015625)"/>
     <path id="Poppins-LightItalic-63" d="M 294 1747
Q 390 2291 681 2697
Q 973 3104 1395 3325
Q 1818 3546 2310 3546
Q 2957 3546 3318 3226
Q 3680 2906 3706 2355
L 3226 2355
Q 3206 2733 2947 2947
Q 2688 3162 2246 3162
Q 1702 3162 1289 2794
Q 877 2426 755 1747
Q 723 1587 723 1382
Q 723 870 1001 598
Q 1280 326 1741 326
Q 2189 326 2521 540
Q 2854 755 3014 1139
L 3494 1139
Q 3277 602 2797 275
Q 2317 -51 1677 -51
Q 1030 -51 643 320
Q 256 691 256 1338
Q 256 1536 294 1747
z
" transform="scale(0.015625)"/>
     <path id="Poppins-LightItalic-65" d="M 2330 3546
Q 2771 3546 3084 3376
Q 3398 3206 3561 2912
Q 3725 2618 3725 2240
Q 3725 2067 3699 1933
Q 3661 1741 3622 1587
L 723 1587
Q 704 1466 704 1357
Q 704 864 1001 595
Q 1299 326 1760 326
Q 2202 326 2534 537
Q 2867 749 3021 1107
L 3501 1107
Q 3283 595 2806 272
Q 2330 -51 1696 -51
Q 1043 -51 649 323
Q 256 698 256 1344
Q 256 1536 294 1747
Q 390 2291 681 2700
Q 973 3110 1401 3328
Q 1830 3546 2330 3546
z
M 3238 1920
Q 3270 2099 3270 2221
Q 3270 2675 2982 2918
Q 2694 3162 2246 3162
Q 1920 3162 1619 3021
Q 1318 2880 1094 2598
Q 870 2317 787 1920
L 3238 1920
z
" transform="scale(0.015625)"/>
     <path id="Poppins-LightItalic-3a" d="M 262 -32
Q 141 -32 64 45
Q -13 122 -13 243
Q -13 397 105 512
Q 224 627 378 627
Q 499 627 576 553
Q 653 480 653 358
Q 653 205 534 86
Q 416 -32 262 -32
z
M 262 2784
Q 141 2784 64 2861
Q -13 2938 -13 3059
Q -13 3213 105 3328
Q 224 3443 378 3443
Q 499 3443 576 3369
Q 653 3296 653 3174
Q 653 3021 534 2902
Q 416 2784 262 2784
z
" transform="scale(0.015625)"/>
     <path id="Poppins-LightItalic-20" transform="scale(0.015625)"/>
     <path id="Poppins-LightItalic-50" d="M 3616 3187
Q 3514 2611 3072 2259
Q 2630 1907 1875 1907
L 973 1907
L 640 0
L 192 0
L 979 4474
L 2330 4474
Q 2989 4474 3315 4198
Q 3642 3923 3642 3456
Q 3642 3309 3616 3187
z
M 1946 2278
Q 2995 2278 3155 3187
Q 3181 3354 3181 3424
Q 3181 4115 2266 4115
L 1363 4115
L 1043 2278
L 1946 2278
z
" transform="scale(0.015625)"/>
     <path id="Poppins-LightItalic-79" d="M 890 3494
L 1549 531
L 3219 3494
L 3686 3494
L 710 -1645
L 237 -1645
L 1210 26
L 390 3494
L 890 3494
z
" transform="scale(0.015625)"/>
     <path id="Poppins-LightItalic-52" d="M 2330 4474
Q 2989 4474 3318 4192
Q 3648 3910 3648 3437
Q 3648 3354 3622 3174
Q 3539 2688 3200 2345
Q 2861 2003 2298 1901
L 3110 0
L 2573 0
L 1798 1869
L 966 1869
L 640 0
L 192 0
L 979 4474
L 2330 4474
z
M 3155 3174
Q 3174 3302 3174 3405
Q 3174 3744 2950 3929
Q 2726 4115 2259 4115
L 1363 4115
L 1030 2227
L 1933 2227
Q 2464 2227 2771 2483
Q 3078 2739 3155 3174
z
" transform="scale(0.015625)"/>
     <path id="Poppins-LightItalic-74" d="M 934 947
Q 915 832 915 749
Q 915 544 1027 464
Q 1139 384 1395 384
L 1805 384
L 1734 0
L 1254 0
Q 858 0 659 153
Q 461 307 461 659
Q 461 800 486 947
L 870 3117
L 384 3117
L 454 3494
L 941 3494
L 1094 4371
L 1542 4371
L 1389 3494
L 2355 3494
L 2285 3117
L 1318 3117
L 934 947
z
" transform="scale(0.015625)"/>
     <path id="Poppins-LightItalic-61" d="M 294 1754
Q 390 2291 678 2697
Q 966 3104 1385 3325
Q 1805 3546 2285 3546
Q 2784 3546 3104 3315
Q 3424 3085 3520 2726
L 3654 3494
L 4102 3494
L 3488 0
L 3040 0
L 3174 774
Q 2957 416 2550 182
Q 2144 -51 1645 -51
Q 1229 -51 915 121
Q 602 294 429 611
Q 256 928 256 1357
Q 256 1542 294 1754
z
M 3347 1747
Q 3379 1926 3379 2067
Q 3379 2566 3078 2860
Q 2778 3155 2298 3155
Q 1926 3155 1603 2988
Q 1280 2822 1056 2505
Q 832 2189 755 1754
Q 723 1562 723 1427
Q 723 922 1020 630
Q 1318 339 1798 339
Q 2157 339 2486 512
Q 2816 685 3043 1005
Q 3270 1325 3347 1747
z
" transform="scale(0.015625)"/>
     <path id="Poppins-LightItalic-69" d="M 1152 4154
Q 1030 4154 953 4227
Q 877 4301 877 4422
Q 877 4589 992 4701
Q 1107 4813 1267 4813
Q 1389 4813 1462 4742
Q 1536 4672 1536 4557
Q 1536 4390 1421 4272
Q 1306 4154 1152 4154
z
M 1254 3494
L 640 0
L 192 0
L 806 3494
L 1254 3494
z
" transform="scale(0.015625)"/>
     <path id="Poppins-LightItalic-6c" d="M 1478 4736
L 640 0
L 192 0
L 1030 4736
L 1478 4736
z
" transform="scale(0.015625)"/>
     <path id="Poppins-LightItalic-6e" d="M 2464 3558
Q 3002 3558 3325 3267
Q 3648 2976 3648 2419
Q 3648 2214 3616 2048
L 3251 0
L 2810 0
L 3162 1997
Q 3187 2144 3187 2310
Q 3187 2733 2956 2950
Q 2726 3168 2310 3168
Q 1805 3168 1446 2848
Q 1088 2528 979 1907
L 979 1926
L 640 0
L 192 0
L 806 3494
L 1254 3494
L 1146 2893
Q 1370 3213 1715 3385
Q 2061 3558 2464 3558
z
" transform="scale(0.015625)"/>
    </defs>
    <use xlink:href="#Poppins-LightItalic-53"/>
    <use xlink:href="#Poppins-LightItalic-6f" transform="translate(56.599991 0)"/>
    <use xlink:href="#Poppins-LightItalic-75" transform="translate(120.799988 0)"/>
    <use xlink:href="#Poppins-LightItalic-72" transform="translate(184.099976 0)"/>
    <use xlink:href="#Poppins-LightItalic-63" transform="translate(220.299973 0)"/>
    <use xlink:href="#Poppins-LightItalic-65" transform="translate(281.59996 0)"/>
    <use xlink:href="#Poppins-LightItalic-3a" transform="translate(343.799957 0)"/>
    <use xlink:href="#Poppins-LightItalic-20" transform="translate(362.299942 0)"/>
    <use xlink:href="#Poppins-LightItalic-50" transform="translate(391.799927 0)"/>
    <use xlink:href="#Poppins-LightItalic-79" transform="translate(448.199921 0)"/>
    <use xlink:href="#Poppins-LightItalic-52" transform="translate(502.699905 0)"/>
    <use xlink:href="#Poppins-LightItalic-65" transform="translate(561.399902 0)"/>
    <use xlink:href="#Poppins-LightItalic-74" transform="translate(623.599899 0)"/>
    <use xlink:href="#Poppins-LightItalic-61" transform="translate(659.19989 0)"/>
    <use xlink:href="#Poppins-LightItalic-69" transform="translate(726.699875 0)"/>
    <use xlink:href="#Poppins-LightItalic-6c" transform="translate(749.599869 0)"/>
    <use xlink:href="#Poppins-LightItalic-53" transform="translate(772.499863 0)"/>
    <use xlink:href="#Poppins-LightItalic-63" transform="translate(829.099854 0)"/>
    <use xlink:href="#Poppins-LightItalic-69" transform="translate(890.399841 0)"/>
    <use xlink:href="#Poppins-LightItalic-65" transform="translate(913.299835 0)"/>
    <use xlink:href="#Poppins-LightItalic-6e" transform="translate(975.499832 0)"/>
    <use xlink:href="#Poppins-LightItalic-63" transform="translate(1038.79982 0)"/>
    <use xlink:href="#Poppins-LightItalic-65" transform="translate(1100.099808 0)"/>
   </g>
  </g>
 </g>
 <defs>
  <clipPath id="p0208a4e016">
   <rect x="70.539063" y="28.840625" width="357.12" height="266.112"/>
  </clipPath>
 </defs>
</svg>
