<?xml version="1.0" encoding="utf-8" standalone="no"?>
<!DOCTYPE svg PUBLIC "-//W3C//DTD SVG 1.1//EN"
  "http://www.w3.org/Graphics/SVG/1.1/DTD/svg11.dtd">
<svg xmlns:xlink="http://www.w3.org/1999/xlink" width="469.5895pt" height="357.29725pt" viewBox="0 0 469.5895 357.29725" xmlns="http://www.w3.org/2000/svg" version="1.1">
 <metadata>
  <rdf:RDF xmlns:dc="http://purl.org/dc/elements/1.1/" xmlns:cc="http://creativecommons.org/ns#" xmlns:rdf="http://www.w3.org/1999/02/22-rdf-syntax-ns#">
   <cc:Work>
    <dc:type rdf:resource="http://purl.org/dc/dcmitype/StillImage"/>
    <dc:date>2025-04-18T15:57:42.207567</dc:date>
    <dc:format>image/svg+xml</dc:format>
    <dc:creator>
     <cc:Agent>
      <dc:title>Matplotlib v3.9.1.post1, https://matplotlib.org/</dc:title>
     </cc:Agent>
    </dc:creator>
   </cc:Work>
  </rdf:RDF>
 </metadata>
 <defs>
  <style type="text/css">*{stroke-linejoin: round; stroke-linecap: butt}</style>
 </defs>
 <g id="figure_1">
  <g id="patch_1">
   <path d="M 0 357.29725
L 469.5895 357.29725
L 469.5895 0
L 0 0
z
" style="fill: #ffffff"/>
  </g>
  <g id="axes_1">
   <g id="patch_2">
    <path d="M 354.027011 153.416517
L 352.867215 161.23523
L 350.946635 168.902614
L 348.283768 176.344828
L 344.90426 183.490199
L 343.452784 185.911839
L 340.871117 181.604587
L 336.162552 175.255822
L 330.854372 169.399148
L 324.997698 164.090968
L 318.648933 159.382403
L 311.869219 155.318799
L 304.723848 151.93929
L 297.281634 149.276423
L 289.61425 147.355844
L 281.795537 146.196047
L 273.900793 145.808203
L 273.42235 145.831708
L 270.57353 141.07874
L 265.864965 134.729975
L 260.556785 128.873301
L 254.700112 123.565121
L 248.351346 118.856556
L 241.571632 114.792952
L 234.426262 111.413443
L 226.984048 108.750577
L 219.316664 106.829997
L 211.497951 105.6702
L 204.180583 105.310721
L 206.900008 100.773634
L 211.608573 94.424869
L 216.916753 88.568195
L 222.773427 83.260015
L 229.122192 78.55145
L 235.901906 74.487845
L 243.047277 71.108337
L 250.489491 68.44547
L 258.156875 66.52489
L 265.975588 65.365094
L 273.870332 64.97725
L 281.765076 65.365094
L 289.583789 66.52489
L 297.251173 68.44547
L 304.693386 71.108337
L 311.838757 74.487845
L 318.618471 78.55145
L 324.967236 83.260015
L 330.82391 88.568195
L 336.13209 94.424869
L 340.840655 100.773634
L 344.90426 107.553348
L 348.283768 114.698719
L 350.946635 122.140932
L 352.867215 129.808316
L 354.027011 137.627029
L 354.414855 145.521773
z
" clip-path="url(#p7775b8070a)" style="fill: #bbf7d0; stroke: #bbf7d0; stroke-linejoin: miter"/>
   </g>
   <g id="patch_3">
    <path d="M 354.057473 234.247471
L 352.897676 242.066184
L 350.977096 249.733568
L 348.31423 257.175781
L 344.934721 264.321152
L 340.871117 271.100866
L 336.162552 277.449631
L 330.854372 283.306305
L 324.997698 288.614485
L 318.648933 293.32305
L 311.869219 297.386655
L 304.723848 300.766163
L 297.281634 303.42903
L 289.61425 305.34961
L 281.795537 306.509406
L 273.900793 306.89725
L 266.006049 306.509406
L 258.187336 305.34961
L 250.519952 303.42903
L 243.077738 300.766163
L 235.932368 297.386655
L 229.152654 293.32305
L 222.803888 288.614485
L 216.947215 283.306305
L 211.639035 277.449631
L 206.93047 271.100866
L 204.08165 266.347899
L 211.497951 265.983559
L 219.316664 264.823763
L 226.984048 262.903183
L 234.426262 260.240316
L 241.571632 256.860808
L 248.351346 252.797203
L 254.700112 248.088638
L 260.556785 242.780458
L 265.864965 236.923784
L 270.57353 230.575019
L 273.292956 226.037932
L 273.870332 226.066297
L 281.765076 225.678453
L 289.583789 224.518656
L 297.251173 222.598077
L 304.693386 219.93521
L 311.838757 216.555701
L 318.618471 212.492097
L 324.967236 207.783532
L 330.82391 202.475352
L 336.13209 196.618678
L 340.840655 190.269913
L 343.452784 185.911839
L 344.934721 188.384301
L 348.31423 195.529672
L 350.977096 202.971886
L 352.897676 210.63927
L 354.057473 218.457983
L 354.445316 226.352727
z
" clip-path="url(#p7775b8070a)" style="fill: #166534; stroke: #166534; stroke-linejoin: miter"/>
   </g>
   <g id="patch_4">
    <path d="M 273.900793 145.808203
L 281.795537 146.196047
L 289.61425 147.355844
L 297.281634 149.276423
L 304.723848 151.93929
L 311.869219 155.318799
L 318.648933 159.382403
L 324.997698 164.090968
L 330.854372 169.399148
L 336.162552 175.255822
L 340.871117 181.604587
L 343.452784 185.911839
L 340.840655 190.269913
L 336.13209 196.618678
L 330.82391 202.475352
L 324.967236 207.783532
L 318.618471 212.492097
L 311.838757 216.555701
L 304.693386 219.93521
L 297.251173 222.598077
L 289.583789 224.518656
L 281.765076 225.678453
L 273.870332 226.066297
L 273.292956 226.037932
L 274.637135 223.795305
L 278.016643 216.649934
L 280.67951 209.207721
L 282.60009 201.540337
L 283.759886 193.721624
L 284.14773 185.82688
L 283.759886 177.932136
L 282.60009 170.113423
L 280.67951 162.446039
L 278.016643 155.003825
L 274.637135 147.858454
L 273.42235 145.831708
z
" clip-path="url(#p7775b8070a)" style="fill: #89bf9b; stroke: #89bf9b; stroke-linejoin: miter"/>
   </g>
   <g id="patch_5">
    <path d="M 203.603207 266.371403
L 195.708463 265.983559
L 187.88975 264.823763
L 180.222366 262.903183
L 172.780152 260.240316
L 165.634781 256.860808
L 158.855067 252.797203
L 152.506302 248.088638
L 146.649628 242.780458
L 141.341448 236.923784
L 136.632883 230.575019
L 132.569279 223.795305
L 129.18977 216.649934
L 126.526904 209.207721
L 124.606324 201.540337
L 123.446527 193.721624
L 123.058684 185.82688
L 123.446527 177.932136
L 124.606324 170.113423
L 126.526904 162.446039
L 129.18977 155.003825
L 132.569279 147.858454
L 136.632883 141.07874
L 141.341448 134.729975
L 146.649628 128.873301
L 152.506302 123.565121
L 158.855067 118.856556
L 165.634781 114.792952
L 172.780152 111.413443
L 180.222366 108.750577
L 187.88975 106.829997
L 195.708463 105.6702
L 203.603207 105.282356
L 204.180583 105.310721
L 202.836404 107.553348
L 199.456895 114.698719
L 196.794029 122.140932
L 194.873449 129.808316
L 193.713652 137.627029
L 193.325808 145.521773
L 193.713652 153.416517
L 194.873449 161.23523
L 196.794029 168.902614
L 199.456895 176.344828
L 202.836404 183.490199
L 204.318341 185.962661
L 202.866865 188.384301
L 199.487357 195.529672
L 196.82449 202.971886
L 194.90391 210.63927
L 193.744114 218.457983
L 193.35627 226.352727
L 193.744114 234.247471
L 194.90391 242.066184
L 196.82449 249.733568
L 199.487357 257.175781
L 202.866865 264.321152
L 204.08165 266.347899
z
" clip-path="url(#p7775b8070a)" style="fill: #22c55e; stroke: #22c55e; stroke-linejoin: miter"/>
   </g>
   <g id="patch_6">
    <path d="M 202.836404 183.490199
L 199.456895 176.344828
L 196.794029 168.902614
L 194.873449 161.23523
L 193.713652 153.416517
L 193.325808 145.521773
L 193.713652 137.627029
L 194.873449 129.808316
L 196.794029 122.140932
L 199.456895 114.698719
L 202.836404 107.553348
L 204.180583 105.310721
L 211.497951 105.6702
L 219.316664 106.829997
L 226.984048 108.750577
L 234.426262 111.413443
L 241.571632 114.792952
L 248.351346 118.856556
L 254.700112 123.565121
L 260.556785 128.873301
L 265.864965 134.729975
L 270.57353 141.07874
L 273.42235 145.831708
L 266.006049 146.196047
L 258.187336 147.355844
L 250.519952 149.276423
L 243.077738 151.93929
L 235.932368 155.318799
L 229.152654 159.382403
L 222.803888 164.090968
L 216.947215 169.399148
L 211.639035 175.255822
L 206.93047 181.604587
L 204.318341 185.962661
z
" clip-path="url(#p7775b8070a)" style="fill: #8ae0a3; stroke: #8ae0a3; stroke-linejoin: miter"/>
   </g>
   <g id="patch_7">
    <path d="M 270.57353 230.575019
L 265.864965 236.923784
L 260.556785 242.780458
L 254.700112 248.088638
L 248.351346 252.797203
L 241.571632 256.860808
L 234.426262 260.240316
L 226.984048 262.903183
L 219.316664 264.823763
L 211.497951 265.983559
L 204.08165 266.347899
L 202.866865 264.321152
L 199.487357 257.175781
L 196.82449 249.733568
L 194.90391 242.066184
L 193.744114 234.247471
L 193.35627 226.352727
L 193.744114 218.457983
L 194.90391 210.63927
L 196.82449 202.971886
L 199.487357 195.529672
L 202.866865 188.384301
L 204.318341 185.962661
L 206.900008 190.269913
L 211.608573 196.618678
L 216.916753 202.475352
L 222.773427 207.783532
L 229.122192 212.492097
L 235.901906 216.555701
L 243.047277 219.93521
L 250.489491 222.598077
L 258.156875 224.518656
L 265.975588 225.678453
L 273.292956 226.037932
z
" clip-path="url(#p7775b8070a)" style="fill: #1d9e4d; stroke: #1d9e4d; stroke-linejoin: miter"/>
   </g>
   <g id="patch_8">
    <path d="M 282.60009 201.540337
L 280.67951 209.207721
L 278.016643 216.649934
L 274.637135 223.795305
L 273.292956 226.037932
L 265.975588 225.678453
L 258.156875 224.518656
L 250.489491 222.598077
L 243.047277 219.93521
L 235.901906 216.555701
L 229.122192 212.492097
L 222.773427 207.783532
L 216.916753 202.475352
L 211.608573 196.618678
L 206.900008 190.269913
L 204.318341 185.962661
L 206.93047 181.604587
L 211.639035 175.255822
L 216.947215 169.399148
L 222.803888 164.090968
L 229.152654 159.382403
L 235.932368 155.318799
L 243.077738 151.93929
L 250.519952 149.276423
L 258.187336 147.355844
L 266.006049 146.196047
L 273.42235 145.831708
L 274.637135 147.858454
L 278.016643 155.003825
L 280.67951 162.446039
L 282.60009 170.113423
L 283.759886 177.932136
L 284.14773 185.82688
L 283.759886 193.721624
z
" clip-path="url(#p7775b8070a)" style="fill: #73c18a; stroke: #73c18a; stroke-linejoin: miter"/>
   </g>
   <g id="text_1">
    <!-- 7.2% -->
    <g transform="translate(282.353946 115.124358) scale(0.1 -0.1)">
     <defs>
      <path id="Poppins-Regular-37" d="M 3245 4173
L 1466 0
L 877 0
L 2682 4115
L 211 4115
L 211 4614
L 3245 4614
L 3245 4173
z
" transform="scale(0.015625)"/>
      <path id="Poppins-Regular-2e" d="M 678 -38
Q 512 -38 397 77
Q 282 192 282 358
Q 282 525 397 640
Q 512 755 678 755
Q 838 755 950 640
Q 1062 525 1062 358
Q 1062 192 950 77
Q 838 -38 678 -38
z
" transform="scale(0.015625)"/>
      <path id="Poppins-Regular-32" d="M 326 467
Q 1139 1120 1600 1539
Q 2061 1958 2377 2416
Q 2694 2874 2694 3315
Q 2694 3731 2492 3971
Q 2291 4211 1843 4211
Q 1408 4211 1168 3939
Q 928 3667 909 3213
L 346 3213
Q 371 3930 780 4320
Q 1190 4710 1837 4710
Q 2496 4710 2883 4345
Q 3270 3981 3270 3341
Q 3270 2810 2953 2307
Q 2637 1805 2233 1424
Q 1830 1043 1203 538
L 3405 538
L 3405 51
L 326 51
L 326 467
z
" transform="scale(0.015625)"/>
      <path id="Poppins-Regular-25" d="M 269 3584
Q 269 4019 531 4278
Q 794 4538 1203 4538
Q 1613 4538 1875 4278
Q 2138 4019 2138 3584
Q 2138 3142 1875 2883
Q 1613 2624 1203 2624
Q 794 2624 531 2883
Q 269 3142 269 3584
z
M 4006 4467
L 1414 0
L 838 0
L 3430 4467
L 4006 4467
z
M 1203 4179
Q 986 4179 861 4028
Q 736 3878 736 3584
Q 736 3290 861 3136
Q 986 2982 1203 2982
Q 1421 2982 1549 3139
Q 1677 3296 1677 3584
Q 1677 3878 1549 4028
Q 1421 4179 1203 4179
z
M 2720 883
Q 2720 1325 2982 1584
Q 3245 1843 3654 1843
Q 4064 1843 4323 1584
Q 4582 1325 4582 883
Q 4582 448 4323 185
Q 4064 -77 3654 -77
Q 3245 -77 2982 182
Q 2720 442 2720 883
z
M 3648 1478
Q 3430 1478 3302 1328
Q 3174 1178 3174 883
Q 3174 595 3302 444
Q 3430 294 3648 294
Q 3866 294 3994 444
Q 4122 595 4122 883
Q 4122 1178 3994 1328
Q 3866 1478 3648 1478
z
" transform="scale(0.015625)"/>
     </defs>
     <use xlink:href="#Poppins-Regular-37"/>
     <use xlink:href="#Poppins-Regular-2e" x="54.599991"/>
     <use xlink:href="#Poppins-Regular-32" x="75.599976"/>
     <use xlink:href="#Poppins-Regular-25" x="133.09996"/>
    </g>
   </g>
   <g id="text_2">
    <!-- 4.8% -->
    <g style="fill: #ffffff" transform="translate(281.600775 261.526408) scale(0.1 -0.1)">
     <defs>
      <path id="Poppins-Regular-34" d="M 256 1030
L 256 1472
L 2502 4582
L 3200 4582
L 3200 1536
L 3840 1536
L 3840 1030
L 3200 1030
L 3200 0
L 2624 0
L 2624 1030
L 256 1030
z
M 2650 3974
L 928 1536
L 2650 1536
L 2650 3974
z
" transform="scale(0.015625)"/>
      <path id="Poppins-Regular-38" d="M 1242 2406
Q 883 2547 691 2816
Q 499 3085 499 3469
Q 499 3814 672 4092
Q 845 4371 1187 4534
Q 1530 4698 2016 4698
Q 2502 4698 2844 4534
Q 3187 4371 3363 4092
Q 3539 3814 3539 3469
Q 3539 3098 3340 2819
Q 3142 2541 2797 2406
Q 3194 2285 3427 1981
Q 3661 1677 3661 1248
Q 3661 832 3456 521
Q 3251 211 2876 41
Q 2502 -128 2016 -128
Q 1530 -128 1162 41
Q 794 211 589 521
Q 384 832 384 1248
Q 384 1677 614 1984
Q 845 2291 1242 2406
z
M 2976 3398
Q 2976 3789 2720 4000
Q 2464 4211 2016 4211
Q 1574 4211 1318 4000
Q 1062 3789 1062 3392
Q 1062 3034 1328 2816
Q 1594 2598 2016 2598
Q 2445 2598 2710 2819
Q 2976 3040 2976 3398
z
M 2016 2150
Q 1542 2150 1241 1929
Q 941 1709 941 1267
Q 941 858 1232 608
Q 1523 358 2016 358
Q 2509 358 2797 608
Q 3085 858 3085 1267
Q 3085 1696 2790 1923
Q 2496 2150 2016 2150
z
" transform="scale(0.015625)"/>
     </defs>
     <use xlink:href="#Poppins-Regular-34"/>
     <use xlink:href="#Poppins-Regular-2e" x="62.899994"/>
     <use xlink:href="#Poppins-Regular-38" x="83.899979"/>
     <use xlink:href="#Poppins-Regular-25" x="146.999969"/>
    </g>
   </g>
   <g id="text_3">
    <!-- 18.3% -->
    <g transform="translate(295.827558 188.33725) scale(0.1 -0.1)">
     <defs>
      <path id="Poppins-Regular-31" d="M 243 4096
L 243 4627
L 1446 4627
L 1446 0
L 858 0
L 858 4096
L 243 4096
z
" transform="scale(0.015625)"/>
      <path id="Poppins-Regular-33" d="M 384 3462
Q 429 4051 838 4384
Q 1248 4717 1901 4717
Q 2336 4717 2653 4560
Q 2970 4403 3133 4134
Q 3296 3866 3296 3526
Q 3296 3130 3069 2842
Q 2842 2554 2477 2470
L 2477 2438
Q 2893 2336 3136 2035
Q 3379 1734 3379 1248
Q 3379 883 3212 592
Q 3046 301 2713 134
Q 2381 -32 1914 -32
Q 1235 -32 800 323
Q 365 678 314 1331
L 877 1331
Q 922 947 1190 704
Q 1459 461 1907 461
Q 2355 461 2588 694
Q 2822 928 2822 1299
Q 2822 1779 2502 1990
Q 2182 2202 1536 2202
L 1389 2202
L 1389 2688
L 1542 2688
Q 2131 2694 2432 2883
Q 2733 3072 2733 3469
Q 2733 3808 2512 4013
Q 2291 4218 1882 4218
Q 1485 4218 1241 4013
Q 998 3808 954 3462
L 384 3462
z
" transform="scale(0.015625)"/>
     </defs>
     <use xlink:href="#Poppins-Regular-31"/>
     <use xlink:href="#Poppins-Regular-38" x="31.999985"/>
     <use xlink:href="#Poppins-Regular-2e" x="95.099976"/>
     <use xlink:href="#Poppins-Regular-33" x="116.09996"/>
     <use xlink:href="#Poppins-Regular-25" x="174.999954"/>
    </g>
   </g>
   <g id="text_4">
    <!-- 4.8% -->
    <g transform="translate(152.5432 188.22688) scale(0.1 -0.1)">
     <use xlink:href="#Poppins-Regular-34"/>
     <use xlink:href="#Poppins-Regular-2e" x="62.899994"/>
     <use xlink:href="#Poppins-Regular-38" x="83.899979"/>
     <use xlink:href="#Poppins-Regular-25" x="146.999969"/>
    </g>
   </g>
   <g id="text_5">
    <!-- 15.6% -->
    <g transform="translate(210.512972 141.223526) scale(0.1 -0.1)">
     <defs>
      <path id="Poppins-Regular-35" d="M 3347 4122
L 1101 4122
L 1101 2662
Q 1248 2867 1536 2998
Q 1824 3130 2157 3130
Q 2688 3130 3021 2909
Q 3354 2688 3498 2339
Q 3642 1990 3642 1600
Q 3642 1139 3469 774
Q 3296 410 2941 198
Q 2586 -13 2061 -13
Q 1389 -13 973 332
Q 557 678 467 1254
L 1037 1254
Q 1120 890 1389 685
Q 1658 480 2067 480
Q 2573 480 2829 784
Q 3085 1088 3085 1587
Q 3085 2086 2829 2358
Q 2573 2630 2074 2630
Q 1734 2630 1481 2467
Q 1229 2304 1114 2022
L 563 2022
L 563 4634
L 3347 4634
L 3347 4122
z
" transform="scale(0.015625)"/>
      <path id="Poppins-Regular-36" d="M 2976 3526
Q 2835 4237 2099 4237
Q 1530 4237 1248 3798
Q 966 3360 973 2355
Q 1120 2688 1462 2877
Q 1805 3066 2227 3066
Q 2886 3066 3280 2656
Q 3674 2246 3674 1523
Q 3674 1088 3504 742
Q 3334 397 2992 192
Q 2650 -13 2163 -13
Q 1504 -13 1133 281
Q 762 576 614 1094
Q 467 1613 467 2374
Q 467 4723 2106 4723
Q 2733 4723 3091 4384
Q 3450 4045 3514 3526
L 2976 3526
z
M 2106 2573
Q 1830 2573 1587 2461
Q 1344 2349 1193 2121
Q 1043 1894 1043 1568
Q 1043 1082 1324 778
Q 1606 474 2131 474
Q 2579 474 2844 752
Q 3110 1030 3110 1504
Q 3110 2003 2854 2288
Q 2598 2573 2106 2573
z
" transform="scale(0.015625)"/>
     </defs>
     <use xlink:href="#Poppins-Regular-31"/>
     <use xlink:href="#Poppins-Regular-35" x="31.999985"/>
     <use xlink:href="#Poppins-Regular-2e" x="94.799973"/>
     <use xlink:href="#Poppins-Regular-36" x="115.799957"/>
     <use xlink:href="#Poppins-Regular-25" x="179.299942"/>
    </g>
   </g>
   <g id="text_6">
    <!-- 16.8% -->
    <g style="fill: #ffffff" transform="translate(210.446698 235.368065) scale(0.1 -0.1)">
     <use xlink:href="#Poppins-Regular-31"/>
     <use xlink:href="#Poppins-Regular-36" x="31.999985"/>
     <use xlink:href="#Poppins-Regular-2e" x="95.499969"/>
     <use xlink:href="#Poppins-Regular-38" x="116.499954"/>
     <use xlink:href="#Poppins-Regular-25" x="179.599945"/>
    </g>
   </g>
   <g id="text_7">
    <!-- 22.8% -->
    <g transform="translate(236.65129 188.3284) scale(0.1 -0.1)">
     <use xlink:href="#Poppins-Regular-32"/>
     <use xlink:href="#Poppins-Regular-32" x="57.499985"/>
     <use xlink:href="#Poppins-Regular-2e" x="114.999969"/>
     <use xlink:href="#Poppins-Regular-38" x="135.999954"/>
     <use xlink:href="#Poppins-Regular-25" x="199.099945"/>
    </g>
   </g>
   <g id="text_8">
    <!-- Electronics -->
    <g transform="translate(41.264522 190.989376) scale(0.12 -0.12)">
     <defs>
      <path id="Poppins-Regular-45" d="M 1075 3987
L 1075 2496
L 2701 2496
L 2701 2016
L 1075 2016
L 1075 480
L 2893 480
L 2893 0
L 493 0
L 493 4467
L 2893 4467
L 2893 3987
L 1075 3987
z
" transform="scale(0.015625)"/>
      <path id="Poppins-Regular-6c" d="M 1075 4736
L 1075 0
L 493 0
L 493 4736
L 1075 4736
z
" transform="scale(0.015625)"/>
      <path id="Poppins-Regular-65" d="M 3693 1888
Q 3693 1722 3674 1536
L 870 1536
Q 902 1018 1225 726
Q 1549 435 2010 435
Q 2387 435 2640 611
Q 2893 787 2995 1082
L 3622 1082
Q 3482 576 3059 259
Q 2637 -58 2010 -58
Q 1510 -58 1116 166
Q 723 390 499 803
Q 275 1216 275 1760
Q 275 2304 492 2713
Q 710 3123 1104 3344
Q 1498 3565 2010 3565
Q 2509 3565 2893 3347
Q 3277 3130 3485 2749
Q 3693 2368 3693 1888
z
M 3091 2010
Q 3091 2342 2944 2582
Q 2797 2822 2544 2947
Q 2291 3072 1984 3072
Q 1542 3072 1232 2790
Q 922 2509 877 2010
L 3091 2010
z
" transform="scale(0.015625)"/>
      <path id="Poppins-Regular-63" d="M 275 1760
Q 275 2304 492 2710
Q 710 3117 1097 3341
Q 1485 3565 1984 3565
Q 2630 3565 3049 3251
Q 3469 2938 3603 2381
L 2976 2381
Q 2886 2701 2627 2886
Q 2368 3072 1984 3072
Q 1485 3072 1177 2729
Q 870 2387 870 1760
Q 870 1126 1177 780
Q 1485 435 1984 435
Q 2368 435 2624 614
Q 2880 794 2976 1126
L 3603 1126
Q 3462 589 3040 265
Q 2618 -58 1984 -58
Q 1485 -58 1097 166
Q 710 390 492 800
Q 275 1210 275 1760
z
" transform="scale(0.015625)"/>
      <path id="Poppins-Regular-74" d="M 1203 3027
L 1203 960
Q 1203 704 1312 598
Q 1421 493 1690 493
L 2118 493
L 2118 0
L 1594 0
Q 1107 0 864 224
Q 621 448 621 960
L 621 3027
L 166 3027
L 166 3507
L 621 3507
L 621 4390
L 1203 4390
L 1203 3507
L 2118 3507
L 2118 3027
L 1203 3027
z
" transform="scale(0.015625)"/>
      <path id="Poppins-Regular-72" d="M 1075 2938
Q 1229 3238 1513 3404
Q 1798 3571 2208 3571
L 2208 2970
L 2054 2970
Q 1075 2970 1075 1907
L 1075 0
L 493 0
L 493 3507
L 1075 3507
L 1075 2938
z
" transform="scale(0.015625)"/>
      <path id="Poppins-Regular-6f" d="M 2022 -58
Q 1530 -58 1130 166
Q 730 390 502 803
Q 275 1216 275 1760
Q 275 2298 508 2710
Q 742 3123 1145 3344
Q 1549 3565 2048 3565
Q 2547 3565 2950 3344
Q 3354 3123 3587 2713
Q 3821 2304 3821 1760
Q 3821 1216 3581 803
Q 3341 390 2931 166
Q 2522 -58 2022 -58
z
M 2022 454
Q 2336 454 2611 601
Q 2886 749 3056 1043
Q 3226 1338 3226 1760
Q 3226 2182 3059 2476
Q 2893 2771 2624 2915
Q 2355 3059 2042 3059
Q 1722 3059 1456 2915
Q 1190 2771 1030 2476
Q 870 2182 870 1760
Q 870 1331 1027 1036
Q 1184 742 1446 598
Q 1709 454 2022 454
z
" transform="scale(0.015625)"/>
      <path id="Poppins-Regular-6e" d="M 2202 3571
Q 2842 3571 3238 3184
Q 3635 2797 3635 2067
L 3635 0
L 3059 0
L 3059 1984
Q 3059 2509 2796 2787
Q 2534 3066 2080 3066
Q 1619 3066 1347 2778
Q 1075 2490 1075 1939
L 1075 0
L 493 0
L 493 3507
L 1075 3507
L 1075 3008
Q 1248 3277 1545 3424
Q 1843 3571 2202 3571
z
" transform="scale(0.015625)"/>
      <path id="Poppins-Regular-69" d="M 794 4077
Q 627 4077 512 4192
Q 397 4307 397 4474
Q 397 4640 512 4755
Q 627 4870 794 4870
Q 954 4870 1066 4755
Q 1178 4640 1178 4474
Q 1178 4307 1066 4192
Q 954 4077 794 4077
z
M 1075 3507
L 1075 0
L 493 0
L 493 3507
L 1075 3507
z
" transform="scale(0.015625)"/>
      <path id="Poppins-Regular-73" d="M 1734 -58
Q 1331 -58 1011 80
Q 691 218 505 464
Q 320 710 301 1030
L 902 1030
Q 928 768 1149 601
Q 1370 435 1728 435
Q 2061 435 2253 582
Q 2445 730 2445 954
Q 2445 1184 2240 1296
Q 2035 1408 1606 1517
Q 1216 1619 969 1724
Q 723 1830 547 2038
Q 371 2246 371 2586
Q 371 2854 531 3078
Q 691 3302 985 3433
Q 1280 3565 1658 3565
Q 2240 3565 2598 3270
Q 2957 2976 2982 2464
L 2400 2464
Q 2381 2739 2179 2905
Q 1978 3072 1638 3072
Q 1325 3072 1139 2937
Q 954 2803 954 2586
Q 954 2413 1066 2301
Q 1178 2189 1347 2121
Q 1517 2054 1818 1971
Q 2195 1869 2432 1769
Q 2669 1670 2838 1472
Q 3008 1274 3014 954
Q 3014 666 2854 435
Q 2694 205 2403 73
Q 2112 -58 1734 -58
z
" transform="scale(0.015625)"/>
     </defs>
     <use xlink:href="#Poppins-Regular-45"/>
     <use xlink:href="#Poppins-Regular-6c" x="51.299988"/>
     <use xlink:href="#Poppins-Regular-65" x="75.899979"/>
     <use xlink:href="#Poppins-Regular-63" x="137.899963"/>
     <use xlink:href="#Poppins-Regular-74" x="198.59996"/>
     <use xlink:href="#Poppins-Regular-72" x="234.999954"/>
     <use xlink:href="#Poppins-Regular-6f" x="272.299942"/>
     <use xlink:href="#Poppins-Regular-6e" x="336.299927"/>
     <use xlink:href="#Poppins-Regular-69" x="400.299911"/>
     <use xlink:href="#Poppins-Regular-63" x="424.899902"/>
     <use xlink:href="#Poppins-Regular-73" x="485.599899"/>
    </g>
   </g>
   <g id="text_9">
    <!-- Clothing -->
    <g transform="translate(294.119932 321.590059) scale(0.12 -0.12)">
     <defs>
      <path id="Poppins-Regular-43" d="M 275 2234
Q 275 2886 569 3408
Q 864 3930 1373 4224
Q 1882 4518 2502 4518
Q 3232 4518 3776 4166
Q 4320 3814 4570 3168
L 3872 3168
Q 3686 3571 3337 3788
Q 2989 4006 2502 4006
Q 2035 4006 1664 3788
Q 1293 3571 1081 3171
Q 870 2771 870 2234
Q 870 1702 1081 1302
Q 1293 902 1664 684
Q 2035 467 2502 467
Q 2989 467 3337 681
Q 3686 896 3872 1299
L 4570 1299
Q 4320 659 3776 310
Q 3232 -38 2502 -38
Q 1882 -38 1373 253
Q 864 544 569 1062
Q 275 1581 275 2234
z
" transform="scale(0.015625)"/>
      <path id="Poppins-Regular-68" d="M 2234 3571
Q 2630 3571 2950 3401
Q 3270 3232 3452 2893
Q 3635 2554 3635 2067
L 3635 0
L 3059 0
L 3059 1984
Q 3059 2509 2796 2787
Q 2534 3066 2080 3066
Q 1619 3066 1347 2778
Q 1075 2490 1075 1939
L 1075 0
L 493 0
L 493 4736
L 1075 4736
L 1075 3008
Q 1248 3277 1552 3424
Q 1856 3571 2234 3571
z
" transform="scale(0.015625)"/>
      <path id="Poppins-Regular-67" d="M 1939 3565
Q 2394 3565 2736 3366
Q 3078 3168 3245 2867
L 3245 3507
L 3834 3507
L 3834 -77
Q 3834 -557 3629 -931
Q 3424 -1306 3043 -1517
Q 2662 -1728 2157 -1728
Q 1466 -1728 1005 -1401
Q 544 -1075 461 -512
L 1037 -512
Q 1133 -832 1433 -1027
Q 1734 -1222 2157 -1222
Q 2637 -1222 2941 -921
Q 3245 -621 3245 -77
L 3245 659
Q 3072 352 2733 147
Q 2394 -58 1939 -58
Q 1472 -58 1091 172
Q 710 403 492 819
Q 275 1235 275 1766
Q 275 2304 492 2710
Q 710 3117 1091 3341
Q 1472 3565 1939 3565
z
M 3245 1760
Q 3245 2157 3085 2451
Q 2925 2746 2653 2902
Q 2381 3059 2054 3059
Q 1728 3059 1459 2905
Q 1190 2752 1030 2457
Q 870 2163 870 1766
Q 870 1363 1030 1065
Q 1190 768 1459 611
Q 1728 454 2054 454
Q 2381 454 2653 611
Q 2925 768 3085 1065
Q 3245 1363 3245 1760
z
" transform="scale(0.015625)"/>
     </defs>
     <use xlink:href="#Poppins-Regular-43"/>
     <use xlink:href="#Poppins-Regular-6c" x="77.199982"/>
     <use xlink:href="#Poppins-Regular-6f" x="101.799973"/>
     <use xlink:href="#Poppins-Regular-74" x="165.799957"/>
     <use xlink:href="#Poppins-Regular-68" x="202.199951"/>
     <use xlink:href="#Poppins-Regular-69" x="266.199936"/>
     <use xlink:href="#Poppins-Regular-6e" x="290.799927"/>
     <use xlink:href="#Poppins-Regular-67" x="354.799911"/>
    </g>
   </g>
   <g id="text_10">
    <!-- Home -->
    <g transform="translate(303.076834 56.615909) scale(0.12 -0.12)">
     <defs>
      <path id="Poppins-Regular-48" d="M 3930 4461
L 3930 0
L 3347 0
L 3347 2022
L 1075 2022
L 1075 0
L 493 0
L 493 4461
L 1075 4461
L 1075 2502
L 3347 2502
L 3347 4461
L 3930 4461
z
" transform="scale(0.015625)"/>
      <path id="Poppins-Regular-6d" d="M 4710 3571
Q 5120 3571 5440 3401
Q 5760 3232 5945 2893
Q 6131 2554 6131 2067
L 6131 0
L 5555 0
L 5555 1984
Q 5555 2509 5296 2787
Q 5037 3066 4595 3066
Q 4141 3066 3872 2774
Q 3603 2483 3603 1933
L 3603 0
L 3027 0
L 3027 1984
Q 3027 2509 2768 2787
Q 2509 3066 2067 3066
Q 1613 3066 1344 2774
Q 1075 2483 1075 1933
L 1075 0
L 493 0
L 493 3507
L 1075 3507
L 1075 3002
Q 1248 3277 1539 3424
Q 1830 3571 2182 3571
Q 2624 3571 2963 3372
Q 3302 3174 3469 2790
Q 3616 3162 3955 3366
Q 4294 3571 4710 3571
z
" transform="scale(0.015625)"/>
     </defs>
     <use xlink:href="#Poppins-Regular-48"/>
     <use xlink:href="#Poppins-Regular-6f" x="69.199982"/>
     <use xlink:href="#Poppins-Regular-6d" x="133.199966"/>
     <use xlink:href="#Poppins-Regular-65" x="236.199951"/>
    </g>
   </g>
   <g id="text_11">
    <!-- Customer Spend Overlap Across Categories -->
    <g transform="translate(15.1145 22.88125) scale(0.2 -0.2)">
     <defs>
      <path id="Poppins-SemiBold-43" d="M 224 2240
Q 224 2899 521 3420
Q 819 3942 1334 4233
Q 1850 4525 2490 4525
Q 3238 4525 3801 4141
Q 4365 3757 4589 3078
L 3558 3078
Q 3405 3398 3126 3558
Q 2848 3718 2483 3718
Q 2093 3718 1789 3536
Q 1485 3354 1315 3021
Q 1146 2688 1146 2240
Q 1146 1798 1315 1462
Q 1485 1126 1789 944
Q 2093 762 2483 762
Q 2848 762 3126 925
Q 3405 1088 3558 1408
L 4589 1408
Q 4365 723 3805 342
Q 3245 -38 2490 -38
Q 1850 -38 1334 253
Q 819 544 521 1062
Q 224 1581 224 2240
z
" transform="scale(0.015625)"/>
      <path id="Poppins-SemiBold-75" d="M 3789 3546
L 3789 0
L 2886 0
L 2886 448
Q 2714 218 2435 86
Q 2157 -45 1830 -45
Q 1414 -45 1094 131
Q 774 307 592 649
Q 410 992 410 1466
L 410 3546
L 1306 3546
L 1306 1594
Q 1306 1171 1517 944
Q 1728 717 2093 717
Q 2464 717 2675 944
Q 2886 1171 2886 1594
L 2886 3546
L 3789 3546
z
" transform="scale(0.015625)"/>
      <path id="Poppins-SemiBold-73" d="M 1798 -58
Q 1363 -58 1017 99
Q 672 256 470 525
Q 269 794 250 1120
L 1152 1120
Q 1178 915 1354 780
Q 1530 646 1792 646
Q 2048 646 2192 748
Q 2336 851 2336 1011
Q 2336 1184 2160 1270
Q 1984 1357 1600 1459
Q 1203 1555 950 1657
Q 698 1760 515 1971
Q 333 2182 333 2541
Q 333 2835 502 3078
Q 672 3322 989 3462
Q 1306 3603 1734 3603
Q 2368 3603 2745 3286
Q 3123 2970 3162 2432
L 2304 2432
Q 2285 2643 2128 2768
Q 1971 2893 1709 2893
Q 1466 2893 1334 2803
Q 1203 2714 1203 2554
Q 1203 2374 1382 2281
Q 1562 2189 1939 2093
Q 2323 1997 2572 1894
Q 2822 1792 3004 1577
Q 3187 1363 3194 1011
Q 3194 704 3024 461
Q 2854 218 2537 80
Q 2221 -58 1798 -58
z
" transform="scale(0.015625)"/>
      <path id="Poppins-SemiBold-74" d="M 1485 2810
L 1485 1094
Q 1485 915 1571 835
Q 1658 755 1862 755
L 2278 755
L 2278 0
L 1715 0
Q 582 0 582 1101
L 582 2810
L 160 2810
L 160 3546
L 582 3546
L 582 4422
L 1485 4422
L 1485 3546
L 2278 3546
L 2278 2810
L 1485 2810
z
" transform="scale(0.015625)"/>
      <path id="Poppins-SemiBold-6f" d="M 2016 -58
Q 1504 -58 1094 169
Q 685 397 451 813
Q 218 1229 218 1773
Q 218 2317 458 2733
Q 698 3149 1114 3376
Q 1530 3603 2042 3603
Q 2554 3603 2970 3376
Q 3386 3149 3626 2733
Q 3866 2317 3866 1773
Q 3866 1229 3619 813
Q 3373 397 2953 169
Q 2534 -58 2016 -58
z
M 2016 723
Q 2259 723 2473 841
Q 2688 960 2816 1197
Q 2944 1434 2944 1773
Q 2944 2278 2678 2550
Q 2413 2822 2029 2822
Q 1645 2822 1385 2550
Q 1126 2278 1126 1773
Q 1126 1267 1379 995
Q 1632 723 2016 723
z
" transform="scale(0.015625)"/>
      <path id="Poppins-SemiBold-6d" d="M 4845 3597
Q 5498 3597 5898 3197
Q 6298 2797 6298 2080
L 6298 0
L 5402 0
L 5402 1958
Q 5402 2374 5190 2595
Q 4979 2816 4614 2816
Q 4250 2816 4035 2595
Q 3821 2374 3821 1958
L 3821 0
L 2925 0
L 2925 1958
Q 2925 2374 2713 2595
Q 2502 2816 2138 2816
Q 1766 2816 1552 2595
Q 1338 2374 1338 1958
L 1338 0
L 442 0
L 442 3546
L 1338 3546
L 1338 3117
Q 1510 3341 1782 3469
Q 2054 3597 2381 3597
Q 2797 3597 3123 3421
Q 3450 3245 3629 2918
Q 3802 3226 4131 3411
Q 4461 3597 4845 3597
z
" transform="scale(0.015625)"/>
      <path id="Poppins-SemiBold-65" d="M 3738 1850
Q 3738 1658 3712 1504
L 1120 1504
Q 1152 1120 1389 902
Q 1626 685 1971 685
Q 2470 685 2682 1114
L 3648 1114
Q 3494 602 3059 272
Q 2624 -58 1990 -58
Q 1478 -58 1072 169
Q 666 397 438 813
Q 211 1229 211 1773
Q 211 2323 435 2739
Q 659 3155 1062 3379
Q 1466 3603 1990 3603
Q 2496 3603 2896 3385
Q 3296 3168 3517 2768
Q 3738 2368 3738 1850
z
M 2810 2106
Q 2803 2451 2560 2659
Q 2317 2867 1965 2867
Q 1632 2867 1405 2665
Q 1178 2464 1126 2106
L 2810 2106
z
" transform="scale(0.015625)"/>
      <path id="Poppins-SemiBold-72" d="M 1338 2995
Q 1510 3277 1788 3437
Q 2067 3597 2426 3597
L 2426 2656
L 2189 2656
Q 1766 2656 1552 2457
Q 1338 2259 1338 1766
L 1338 0
L 442 0
L 442 3546
L 1338 3546
L 1338 2995
z
" transform="scale(0.015625)"/>
      <path id="Poppins-SemiBold-20" transform="scale(0.015625)"/>
      <path id="Poppins-SemiBold-53" d="M 1984 -45
Q 1517 -45 1142 115
Q 768 275 550 576
Q 333 877 326 1286
L 1286 1286
Q 1306 1011 1482 851
Q 1658 691 1965 691
Q 2278 691 2457 841
Q 2637 992 2637 1235
Q 2637 1434 2515 1562
Q 2394 1690 2211 1763
Q 2029 1837 1709 1926
Q 1274 2054 1002 2179
Q 730 2304 534 2557
Q 339 2810 339 3232
Q 339 3629 537 3923
Q 736 4218 1094 4374
Q 1453 4531 1914 4531
Q 2605 4531 3037 4195
Q 3469 3859 3514 3258
L 2528 3258
Q 2515 3488 2332 3638
Q 2150 3789 1850 3789
Q 1587 3789 1430 3654
Q 1274 3520 1274 3264
Q 1274 3085 1392 2966
Q 1510 2848 1686 2774
Q 1862 2701 2182 2605
Q 2618 2477 2893 2349
Q 3168 2221 3366 1965
Q 3565 1709 3565 1293
Q 3565 934 3379 627
Q 3194 320 2835 137
Q 2477 -45 1984 -45
z
" transform="scale(0.015625)"/>
      <path id="Poppins-SemiBold-70" d="M 1338 3034
Q 1510 3277 1814 3440
Q 2118 3603 2509 3603
Q 2963 3603 3331 3379
Q 3699 3155 3913 2742
Q 4128 2330 4128 1786
Q 4128 1242 3913 822
Q 3699 403 3331 172
Q 2963 -58 2509 -58
Q 2118 -58 1820 102
Q 1523 262 1338 506
L 1338 -1690
L 442 -1690
L 442 3546
L 1338 3546
L 1338 3034
z
M 3213 1786
Q 3213 2106 3081 2339
Q 2950 2573 2736 2694
Q 2522 2816 2272 2816
Q 2029 2816 1814 2691
Q 1600 2566 1469 2329
Q 1338 2093 1338 1773
Q 1338 1453 1469 1216
Q 1600 979 1814 854
Q 2029 730 2272 730
Q 2522 730 2736 858
Q 2950 986 3081 1222
Q 3213 1459 3213 1786
z
" transform="scale(0.015625)"/>
      <path id="Poppins-SemiBold-6e" d="M 2406 3597
Q 3040 3597 3430 3197
Q 3821 2797 3821 2080
L 3821 0
L 2925 0
L 2925 1958
Q 2925 2381 2713 2608
Q 2502 2835 2138 2835
Q 1766 2835 1552 2608
Q 1338 2381 1338 1958
L 1338 0
L 442 0
L 442 3546
L 1338 3546
L 1338 3104
Q 1517 3334 1795 3465
Q 2074 3597 2406 3597
z
" transform="scale(0.015625)"/>
      <path id="Poppins-SemiBold-64" d="M 211 1786
Q 211 2323 425 2739
Q 640 3155 1011 3379
Q 1382 3603 1837 3603
Q 2182 3603 2496 3452
Q 2810 3302 2995 3053
L 2995 4736
L 3904 4736
L 3904 0
L 2995 0
L 2995 525
Q 2829 262 2528 102
Q 2227 -58 1830 -58
Q 1382 -58 1011 172
Q 640 403 425 822
Q 211 1242 211 1786
z
M 3002 1773
Q 3002 2099 2874 2332
Q 2746 2566 2528 2691
Q 2310 2816 2061 2816
Q 1811 2816 1600 2694
Q 1389 2573 1257 2339
Q 1126 2106 1126 1786
Q 1126 1466 1257 1226
Q 1389 986 1603 858
Q 1818 730 2061 730
Q 2310 730 2528 854
Q 2746 979 2874 1212
Q 3002 1446 3002 1773
z
" transform="scale(0.015625)"/>
      <path id="Poppins-SemiBold-4f" d="M 2515 -45
Q 1888 -45 1363 249
Q 838 544 531 1065
Q 224 1587 224 2246
Q 224 2899 531 3420
Q 838 3942 1363 4236
Q 1888 4531 2515 4531
Q 3149 4531 3670 4236
Q 4192 3942 4496 3420
Q 4800 2899 4800 2246
Q 4800 1587 4496 1065
Q 4192 544 3667 249
Q 3142 -45 2515 -45
z
M 2515 755
Q 2918 755 3225 937
Q 3533 1120 3705 1459
Q 3878 1798 3878 2246
Q 3878 2694 3705 3030
Q 3533 3366 3225 3545
Q 2918 3725 2515 3725
Q 2112 3725 1801 3545
Q 1491 3366 1318 3030
Q 1146 2694 1146 2246
Q 1146 1798 1318 1459
Q 1491 1120 1801 937
Q 2112 755 2515 755
z
" transform="scale(0.015625)"/>
      <path id="Poppins-SemiBold-76" d="M 1920 826
L 2816 3546
L 3770 3546
L 2458 0
L 1370 0
L 64 3546
L 1024 3546
L 1920 826
z
" transform="scale(0.015625)"/>
      <path id="Poppins-SemiBold-6c" d="M 1338 4736
L 1338 0
L 442 0
L 442 4736
L 1338 4736
z
" transform="scale(0.015625)"/>
      <path id="Poppins-SemiBold-61" d="M 211 1786
Q 211 2323 425 2739
Q 640 3155 1008 3379
Q 1376 3603 1830 3603
Q 2227 3603 2524 3443
Q 2822 3283 3002 3040
L 3002 3546
L 3904 3546
L 3904 0
L 3002 0
L 3002 518
Q 2829 269 2525 105
Q 2221 -58 1824 -58
Q 1376 -58 1008 172
Q 640 403 425 822
Q 211 1242 211 1786
z
M 3002 1773
Q 3002 2099 2874 2332
Q 2746 2566 2528 2691
Q 2310 2816 2061 2816
Q 1811 2816 1600 2694
Q 1389 2573 1257 2339
Q 1126 2106 1126 1786
Q 1126 1466 1257 1226
Q 1389 986 1603 858
Q 1818 730 2061 730
Q 2310 730 2528 854
Q 2746 979 2874 1212
Q 3002 1446 3002 1773
z
" transform="scale(0.015625)"/>
      <path id="Poppins-SemiBold-41" d="M 3181 851
L 1402 851
L 1107 0
L 166 0
L 1773 4474
L 2816 4474
L 4422 0
L 3475 0
L 3181 851
z
M 2938 1568
L 2291 3437
L 1645 1568
L 2938 1568
z
" transform="scale(0.015625)"/>
      <path id="Poppins-SemiBold-63" d="M 211 1773
Q 211 2323 435 2736
Q 659 3149 1056 3376
Q 1453 3603 1965 3603
Q 2624 3603 3056 3273
Q 3488 2944 3635 2349
L 2669 2349
Q 2592 2579 2409 2710
Q 2227 2842 1958 2842
Q 1574 2842 1350 2563
Q 1126 2285 1126 1773
Q 1126 1267 1350 988
Q 1574 710 1958 710
Q 2502 710 2669 1197
L 3635 1197
Q 3488 621 3053 281
Q 2618 -58 1965 -58
Q 1453 -58 1056 169
Q 659 397 435 809
Q 211 1222 211 1773
z
" transform="scale(0.015625)"/>
      <path id="Poppins-SemiBold-67" d="M 1830 3603
Q 2227 3603 2528 3446
Q 2829 3290 3002 3040
L 3002 3546
L 3904 3546
L 3904 -26
Q 3904 -518 3705 -905
Q 3507 -1293 3110 -1520
Q 2714 -1747 2150 -1747
Q 1395 -1747 912 -1395
Q 429 -1043 365 -435
L 1254 -435
Q 1325 -678 1558 -822
Q 1792 -966 2125 -966
Q 2515 -966 2758 -732
Q 3002 -499 3002 -26
L 3002 525
Q 2829 275 2525 108
Q 2221 -58 1830 -58
Q 1382 -58 1011 172
Q 640 403 425 822
Q 211 1242 211 1786
Q 211 2323 425 2739
Q 640 3155 1008 3379
Q 1376 3603 1830 3603
z
M 3002 1773
Q 3002 2099 2874 2332
Q 2746 2566 2528 2691
Q 2310 2816 2061 2816
Q 1811 2816 1600 2694
Q 1389 2573 1257 2339
Q 1126 2106 1126 1786
Q 1126 1466 1257 1226
Q 1389 986 1603 858
Q 1818 730 2061 730
Q 2310 730 2528 854
Q 2746 979 2874 1212
Q 3002 1446 3002 1773
z
" transform="scale(0.015625)"/>
      <path id="Poppins-SemiBold-69" d="M 896 3968
Q 659 3968 502 4118
Q 346 4269 346 4493
Q 346 4717 502 4867
Q 659 5018 896 5018
Q 1133 5018 1289 4867
Q 1446 4717 1446 4493
Q 1446 4269 1289 4118
Q 1133 3968 896 3968
z
M 1338 3546
L 1338 0
L 442 0
L 442 3546
L 1338 3546
z
" transform="scale(0.015625)"/>
     </defs>
     <use xlink:href="#Poppins-SemiBold-43"/>
     <use xlink:href="#Poppins-SemiBold-75" x="76.799988"/>
     <use xlink:href="#Poppins-SemiBold-73" x="142.899979"/>
     <use xlink:href="#Poppins-SemiBold-74" x="197.399963"/>
     <use xlink:href="#Poppins-SemiBold-6f" x="236.199951"/>
     <use xlink:href="#Poppins-SemiBold-6d" x="299.999939"/>
     <use xlink:href="#Poppins-SemiBold-65" x="404.799927"/>
     <use xlink:href="#Poppins-SemiBold-72" x="466.499924"/>
     <use xlink:href="#Poppins-SemiBold-20" x="506.899918"/>
     <use xlink:href="#Poppins-SemiBold-53" x="530.699905"/>
     <use xlink:href="#Poppins-SemiBold-70" x="591.599899"/>
     <use xlink:href="#Poppins-SemiBold-65" x="659.399887"/>
     <use xlink:href="#Poppins-SemiBold-6e" x="721.099884"/>
     <use xlink:href="#Poppins-SemiBold-64" x="787.199875"/>
     <use xlink:href="#Poppins-SemiBold-20" x="854.999863"/>
     <use xlink:href="#Poppins-SemiBold-4f" x="878.79985"/>
     <use xlink:href="#Poppins-SemiBold-76" x="957.299835"/>
     <use xlink:href="#Poppins-SemiBold-65" x="1017.199829"/>
     <use xlink:href="#Poppins-SemiBold-72" x="1078.899826"/>
     <use xlink:href="#Poppins-SemiBold-6c" x="1119.29982"/>
     <use xlink:href="#Poppins-SemiBold-61" x="1147.099808"/>
     <use xlink:href="#Poppins-SemiBold-70" x="1214.899796"/>
     <use xlink:href="#Poppins-SemiBold-20" x="1282.699783"/>
     <use xlink:href="#Poppins-SemiBold-41" x="1306.499771"/>
     <use xlink:href="#Poppins-SemiBold-63" x="1378.099762"/>
     <use xlink:href="#Poppins-SemiBold-72" x="1438.299759"/>
     <use xlink:href="#Poppins-SemiBold-6f" x="1478.699753"/>
     <use xlink:href="#Poppins-SemiBold-73" x="1542.499741"/>
     <use xlink:href="#Poppins-SemiBold-73" x="1596.999725"/>
     <use xlink:href="#Poppins-SemiBold-20" x="1651.49971"/>
     <use xlink:href="#Poppins-SemiBold-43" x="1675.299698"/>
     <use xlink:href="#Poppins-SemiBold-61" x="1752.099686"/>
     <use xlink:href="#Poppins-SemiBold-74" x="1819.899673"/>
     <use xlink:href="#Poppins-SemiBold-65" x="1858.699661"/>
     <use xlink:href="#Poppins-SemiBold-67" x="1920.399658"/>
     <use xlink:href="#Poppins-SemiBold-6f" x="1988.199646"/>
     <use xlink:href="#Poppins-SemiBold-72" x="2051.999634"/>
     <use xlink:href="#Poppins-SemiBold-69" x="2092.399628"/>
     <use xlink:href="#Poppins-SemiBold-65" x="2120.199615"/>
     <use xlink:href="#Poppins-SemiBold-73" x="2181.899612"/>
    </g>
   </g>
  </g>
  <g id="text_12">
   <!-- Source: PyRetailScience -->
   <g style="fill: #696969" transform="translate(7.2 347.517562) scale(0.1 -0.1)">
    <defs>
     <path id="Poppins-LightItalic-53" d="M 1619 -45
Q 1216 -45 912 89
Q 608 224 441 467
Q 275 710 275 1024
Q 275 1107 282 1152
L 723 1152
Q 710 947 796 758
Q 883 570 1097 445
Q 1312 320 1651 320
Q 2125 320 2406 557
Q 2688 794 2688 1197
Q 2688 1440 2557 1603
Q 2426 1766 2234 1872
Q 2042 1978 1709 2112
Q 1318 2266 1088 2397
Q 858 2528 707 2758
Q 557 2989 582 3347
Q 595 3693 790 3958
Q 986 4224 1322 4374
Q 1658 4525 2086 4525
Q 2509 4525 2813 4381
Q 3117 4237 3267 3987
Q 3418 3738 3398 3437
L 2931 3437
Q 2944 3610 2851 3776
Q 2758 3942 2556 4048
Q 2355 4154 2061 4154
Q 1606 4154 1318 3933
Q 1030 3712 1030 3334
Q 1030 3110 1158 2956
Q 1286 2803 1472 2700
Q 1658 2598 1984 2464
Q 2362 2310 2595 2176
Q 2829 2042 2992 1818
Q 3155 1594 3155 1254
Q 3155 1171 3149 1126
Q 3123 800 2931 531
Q 2739 262 2403 108
Q 2067 -45 1619 -45
z
" transform="scale(0.015625)"/>
     <path id="Poppins-LightItalic-6f" d="M 1728 -51
Q 1293 -51 960 125
Q 627 301 444 624
Q 262 947 262 1382
Q 262 1971 531 2467
Q 800 2963 1280 3254
Q 1760 3546 2349 3546
Q 2784 3546 3117 3370
Q 3450 3194 3635 2870
Q 3821 2547 3821 2112
Q 3821 1517 3545 1024
Q 3270 531 2793 240
Q 2317 -51 1728 -51
z
M 1779 326
Q 2234 326 2595 569
Q 2957 813 3158 1216
Q 3360 1619 3360 2086
Q 3360 2611 3056 2886
Q 2752 3162 2285 3162
Q 1830 3162 1475 2918
Q 1120 2675 921 2272
Q 723 1869 723 1402
Q 723 883 1024 604
Q 1325 326 1779 326
z
" transform="scale(0.015625)"/>
     <path id="Poppins-LightItalic-75" d="M 3834 3494
L 3219 0
L 2771 0
L 2880 614
Q 2662 288 2316 115
Q 1971 -58 1574 -58
Q 1037 -58 710 233
Q 384 525 384 1082
Q 384 1286 416 1453
L 774 3494
L 1216 3494
L 864 1504
Q 838 1357 838 1197
Q 838 774 1072 553
Q 1306 333 1722 333
Q 2208 333 2560 630
Q 2912 928 3034 1504
L 3386 3494
L 3834 3494
z
" transform="scale(0.015625)"/>
     <path id="Poppins-LightItalic-72" d="M 1133 2797
Q 1344 3162 1683 3360
Q 2022 3558 2470 3558
L 2387 3091
L 2259 3091
Q 1798 3091 1465 2854
Q 1133 2618 1005 2074
L 640 0
L 192 0
L 806 3494
L 1254 3494
L 1133 2797
z
" transform="scale(0.015625)"/>
     <path id="Poppins-LightItalic-63" d="M 294 1747
Q 390 2291 681 2697
Q 973 3104 1395 3325
Q 1818 3546 2310 3546
Q 2957 3546 3318 3226
Q 3680 2906 3706 2355
L 3226 2355
Q 3206 2733 2947 2947
Q 2688 3162 2246 3162
Q 1702 3162 1289 2794
Q 877 2426 755 1747
Q 723 1587 723 1382
Q 723 870 1001 598
Q 1280 326 1741 326
Q 2189 326 2521 540
Q 2854 755 3014 1139
L 3494 1139
Q 3277 602 2797 275
Q 2317 -51 1677 -51
Q 1030 -51 643 320
Q 256 691 256 1338
Q 256 1536 294 1747
z
" transform="scale(0.015625)"/>
     <path id="Poppins-LightItalic-65" d="M 2330 3546
Q 2771 3546 3084 3376
Q 3398 3206 3561 2912
Q 3725 2618 3725 2240
Q 3725 2067 3699 1933
Q 3661 1741 3622 1587
L 723 1587
Q 704 1466 704 1357
Q 704 864 1001 595
Q 1299 326 1760 326
Q 2202 326 2534 537
Q 2867 749 3021 1107
L 3501 1107
Q 3283 595 2806 272
Q 2330 -51 1696 -51
Q 1043 -51 649 323
Q 256 698 256 1344
Q 256 1536 294 1747
Q 390 2291 681 2700
Q 973 3110 1401 3328
Q 1830 3546 2330 3546
z
M 3238 1920
Q 3270 2099 3270 2221
Q 3270 2675 2982 2918
Q 2694 3162 2246 3162
Q 1920 3162 1619 3021
Q 1318 2880 1094 2598
Q 870 2317 787 1920
L 3238 1920
z
" transform="scale(0.015625)"/>
     <path id="Poppins-LightItalic-3a" d="M 262 -32
Q 141 -32 64 45
Q -13 122 -13 243
Q -13 397 105 512
Q 224 627 378 627
Q 499 627 576 553
Q 653 480 653 358
Q 653 205 534 86
Q 416 -32 262 -32
z
M 262 2784
Q 141 2784 64 2861
Q -13 2938 -13 3059
Q -13 3213 105 3328
Q 224 3443 378 3443
Q 499 3443 576 3369
Q 653 3296 653 3174
Q 653 3021 534 2902
Q 416 2784 262 2784
z
" transform="scale(0.015625)"/>
     <path id="Poppins-LightItalic-20" transform="scale(0.015625)"/>
     <path id="Poppins-LightItalic-50" d="M 3616 3187
Q 3514 2611 3072 2259
Q 2630 1907 1875 1907
L 973 1907
L 640 0
L 192 0
L 979 4474
L 2330 4474
Q 2989 4474 3315 4198
Q 3642 3923 3642 3456
Q 3642 3309 3616 3187
z
M 1946 2278
Q 2995 2278 3155 3187
Q 3181 3354 3181 3424
Q 3181 4115 2266 4115
L 1363 4115
L 1043 2278
L 1946 2278
z
" transform="scale(0.015625)"/>
     <path id="Poppins-LightItalic-79" d="M 890 3494
L 1549 531
L 3219 3494
L 3686 3494
L 710 -1645
L 237 -1645
L 1210 26
L 390 3494
L 890 3494
z
" transform="scale(0.015625)"/>
     <path id="Poppins-LightItalic-52" d="M 2330 4474
Q 2989 4474 3318 4192
Q 3648 3910 3648 3437
Q 3648 3354 3622 3174
Q 3539 2688 3200 2345
Q 2861 2003 2298 1901
L 3110 0
L 2573 0
L 1798 1869
L 966 1869
L 640 0
L 192 0
L 979 4474
L 2330 4474
z
M 3155 3174
Q 3174 3302 3174 3405
Q 3174 3744 2950 3929
Q 2726 4115 2259 4115
L 1363 4115
L 1030 2227
L 1933 2227
Q 2464 2227 2771 2483
Q 3078 2739 3155 3174
z
" transform="scale(0.015625)"/>
     <path id="Poppins-LightItalic-74" d="M 934 947
Q 915 832 915 749
Q 915 544 1027 464
Q 1139 384 1395 384
L 1805 384
L 1734 0
L 1254 0
Q 858 0 659 153
Q 461 307 461 659
Q 461 800 486 947
L 870 3117
L 384 3117
L 454 3494
L 941 3494
L 1094 4371
L 1542 4371
L 1389 3494
L 2355 3494
L 2285 3117
L 1318 3117
L 934 947
z
" transform="scale(0.015625)"/>
     <path id="Poppins-LightItalic-61" d="M 294 1754
Q 390 2291 678 2697
Q 966 3104 1385 3325
Q 1805 3546 2285 3546
Q 2784 3546 3104 3315
Q 3424 3085 3520 2726
L 3654 3494
L 4102 3494
L 3488 0
L 3040 0
L 3174 774
Q 2957 416 2550 182
Q 2144 -51 1645 -51
Q 1229 -51 915 121
Q 602 294 429 611
Q 256 928 256 1357
Q 256 1542 294 1754
z
M 3347 1747
Q 3379 1926 3379 2067
Q 3379 2566 3078 2860
Q 2778 3155 2298 3155
Q 1926 3155 1603 2988
Q 1280 2822 1056 2505
Q 832 2189 755 1754
Q 723 1562 723 1427
Q 723 922 1020 630
Q 1318 339 1798 339
Q 2157 339 2486 512
Q 2816 685 3043 1005
Q 3270 1325 3347 1747
z
" transform="scale(0.015625)"/>
     <path id="Poppins-LightItalic-69" d="M 1152 4154
Q 1030 4154 953 4227
Q 877 4301 877 4422
Q 877 4589 992 4701
Q 1107 4813 1267 4813
Q 1389 4813 1462 4742
Q 1536 4672 1536 4557
Q 1536 4390 1421 4272
Q 1306 4154 1152 4154
z
M 1254 3494
L 640 0
L 192 0
L 806 3494
L 1254 3494
z
" transform="scale(0.015625)"/>
     <path id="Poppins-LightItalic-6c" d="M 1478 4736
L 640 0
L 192 0
L 1030 4736
L 1478 4736
z
" transform="scale(0.015625)"/>
     <path id="Poppins-LightItalic-6e" d="M 2464 3558
Q 3002 3558 3325 3267
Q 3648 2976 3648 2419
Q 3648 2214 3616 2048
L 3251 0
L 2810 0
L 3162 1997
Q 3187 2144 3187 2310
Q 3187 2733 2956 2950
Q 2726 3168 2310 3168
Q 1805 3168 1446 2848
Q 1088 2528 979 1907
L 979 1926
L 640 0
L 192 0
L 806 3494
L 1254 3494
L 1146 2893
Q 1370 3213 1715 3385
Q 2061 3558 2464 3558
z
" transform="scale(0.015625)"/>
    </defs>
    <use xlink:href="#Poppins-LightItalic-53"/>
    <use xlink:href="#Poppins-LightItalic-6f" x="56.599991"/>
    <use xlink:href="#Poppins-LightItalic-75" x="120.799988"/>
    <use xlink:href="#Poppins-LightItalic-72" x="184.099976"/>
    <use xlink:href="#Poppins-LightItalic-63" x="220.299973"/>
    <use xlink:href="#Poppins-LightItalic-65" x="281.59996"/>
    <use xlink:href="#Poppins-LightItalic-3a" x="343.799957"/>
    <use xlink:href="#Poppins-LightItalic-20" x="362.299942"/>
    <use xlink:href="#Poppins-LightItalic-50" x="391.799927"/>
    <use xlink:href="#Poppins-LightItalic-79" x="448.199921"/>
    <use xlink:href="#Poppins-LightItalic-52" x="502.699905"/>
    <use xlink:href="#Poppins-LightItalic-65" x="561.399902"/>
    <use xlink:href="#Poppins-LightItalic-74" x="623.599899"/>
    <use xlink:href="#Poppins-LightItalic-61" x="659.19989"/>
    <use xlink:href="#Poppins-LightItalic-69" x="726.699875"/>
    <use xlink:href="#Poppins-LightItalic-6c" x="749.599869"/>
    <use xlink:href="#Poppins-LightItalic-53" x="772.499863"/>
    <use xlink:href="#Poppins-LightItalic-63" x="829.099854"/>
    <use xlink:href="#Poppins-LightItalic-69" x="890.399841"/>
    <use xlink:href="#Poppins-LightItalic-65" x="913.299835"/>
    <use xlink:href="#Poppins-LightItalic-6e" x="975.499832"/>
    <use xlink:href="#Poppins-LightItalic-63" x="1038.79982"/>
    <use xlink:href="#Poppins-LightItalic-65" x="1100.099808"/>
   </g>
  </g>
 </g>
 <defs>
  <clipPath id="p7775b8070a">
   <rect x="111.489352" y="52.88125" width="254.525296" height="266.112"/>
  </clipPath>
 </defs>
</svg>
