<?xml version="1.0" encoding="utf-8" standalone="no"?>
<!DOCTYPE svg PUBLIC "-//W3C//DTD SVG 1.1//EN"
  "http://www.w3.org/Graphics/SVG/1.1/DTD/svg11.dtd">
<svg xmlns:xlink="http://www.w3.org/1999/xlink" width="623.439062pt" height="355.80875pt" viewBox="0 0 623.439062 355.80875" xmlns="http://www.w3.org/2000/svg" version="1.1">
 <metadata>
  <rdf:RDF xmlns:dc="http://purl.org/dc/elements/1.1/" xmlns:cc="http://creativecommons.org/ns#" xmlns:rdf="http://www.w3.org/1999/02/22-rdf-syntax-ns#">
   <cc:Work>
    <dc:type rdf:resource="http://purl.org/dc/dcmitype/StillImage"/>
    <dc:date>2026-05-05T16:54:54.117193</dc:date>
    <dc:format>image/svg+xml</dc:format>
    <dc:creator>
     <cc:Agent>
      <dc:title>Matplotlib v3.10.8, https://matplotlib.org/</dc:title>
     </cc:Agent>
    </dc:creator>
   </cc:Work>
  </rdf:RDF>
 </metadata>
 <defs>
  <style type="text/css">*{stroke-linejoin: round; stroke-linecap: butt}</style>
 </defs>
 <g id="figure_1">
  <g id="patch_1">
   <path d="M -0 355.80875 
L 623.439062 355.80875 
L 623.439062 0 
L -0 0 
z
" style="fill: #ffffff"/>
  </g>
  <g id="axes_1">
   <g id="patch_2">
    <path d="M 58.239063 309.2 
L 616.239063 309.2 
L 616.239063 32 
L 58.239063 32 
z
" style="fill: #ffffff"/>
   </g>
   <g id="matplotlib.axis_1">
    <g id="xtick_1">
     <g id="line2d_1">
      <path d="M 83.602699 309.2 
L 83.602699 32 
" clip-path="url(#p9b0e32e367)" style="fill: none; stroke: #dad8d7; stroke-opacity: 0.5; stroke-width: 0.8; stroke-linecap: square"/>
     </g>
     <g id="line2d_2">
      <defs>
       <path id="m75ec803b9d" d="M 0 0 
L 0 3.5 
" style="stroke: #000000; stroke-width: 0.8"/>
      </defs>
      <g>
       <use xlink:href="#m75ec803b9d" x="83.602699" y="309.2" style="stroke: #000000; stroke-width: 0.8"/>
      </g>
     </g>
     <g id="text_1">
      <!-- 15 -->
      <g transform="translate(78.862855 323.6) scale(0.1 -0.1)">
       <defs>
        <path id="Poppins-Regular-31" d="M 243 4096 
L 243 4627 
L 1446 4627 
L 1446 0 
L 858 0 
L 858 4096 
L 243 4096 
z
" transform="scale(0.015625)"/>
        <path id="Poppins-Regular-35" d="M 3347 4122 
L 1101 4122 
L 1101 2662 
Q 1248 2867 1536 2998 
Q 1824 3130 2157 3130 
Q 2688 3130 3021 2909 
Q 3354 2688 3498 2339 
Q 3642 1990 3642 1600 
Q 3642 1139 3469 774 
Q 3296 410 2941 198 
Q 2586 -13 2061 -13 
Q 1389 -13 973 332 
Q 557 678 467 1254 
L 1037 1254 
Q 1120 890 1389 685 
Q 1658 480 2067 480 
Q 2573 480 2829 784 
Q 3085 1088 3085 1587 
Q 3085 2086 2829 2358 
Q 2573 2630 2074 2630 
Q 1734 2630 1481 2467 
Q 1229 2304 1114 2022 
L 563 2022 
L 563 4634 
L 3347 4634 
L 3347 4122 
z
" transform="scale(0.015625)"/>
       </defs>
       <use xlink:href="#Poppins-Regular-31"/>
       <use xlink:href="#Poppins-Regular-35" transform="translate(31.999985 0)"/>
      </g>
     </g>
    </g>
    <g id="xtick_2">
     <g id="line2d_3">
      <path d="M 158.201629 309.2 
L 158.201629 32 
" clip-path="url(#p9b0e32e367)" style="fill: none; stroke: #dad8d7; stroke-opacity: 0.5; stroke-width: 0.8; stroke-linecap: square"/>
     </g>
     <g id="line2d_4">
      <g>
       <use xlink:href="#m75ec803b9d" x="158.201629" y="309.2" style="stroke: #000000; stroke-width: 0.8"/>
      </g>
     </g>
     <g id="text_2">
      <!-- 20 -->
      <g transform="translate(152.186786 323.6) scale(0.1 -0.1)">
       <defs>
        <path id="Poppins-Regular-32" d="M 326 467 
Q 1139 1120 1600 1539 
Q 2061 1958 2377 2416 
Q 2694 2874 2694 3315 
Q 2694 3731 2492 3971 
Q 2291 4211 1843 4211 
Q 1408 4211 1168 3939 
Q 928 3667 909 3213 
L 346 3213 
Q 371 3930 780 4320 
Q 1190 4710 1837 4710 
Q 2496 4710 2883 4345 
Q 3270 3981 3270 3341 
Q 3270 2810 2953 2307 
Q 2637 1805 2233 1424 
Q 1830 1043 1203 538 
L 3405 538 
L 3405 51 
L 326 51 
L 326 467 
z
" transform="scale(0.015625)"/>
        <path id="Poppins-Regular-30" d="M 397 2362 
Q 397 3462 755 4080 
Q 1114 4698 2010 4698 
Q 2899 4698 3257 4080 
Q 3616 3462 3616 2362 
Q 3616 1242 3257 621 
Q 2899 0 2010 0 
Q 1114 0 755 621 
Q 397 1242 397 2362 
z
M 3040 2362 
Q 3040 2918 2966 3305 
Q 2893 3693 2665 3929 
Q 2438 4166 2010 4166 
Q 1574 4166 1347 3929 
Q 1120 3693 1046 3305 
Q 973 2918 973 2362 
Q 973 1786 1046 1395 
Q 1120 1005 1347 768 
Q 1574 531 2010 531 
Q 2438 531 2665 768 
Q 2893 1005 2966 1395 
Q 3040 1786 3040 2362 
z
" transform="scale(0.015625)"/>
       </defs>
       <use xlink:href="#Poppins-Regular-32"/>
       <use xlink:href="#Poppins-Regular-30" transform="translate(57.499985 0)"/>
      </g>
     </g>
    </g>
    <g id="xtick_3">
     <g id="line2d_5">
      <path d="M 232.80056 309.2 
L 232.80056 32 
" clip-path="url(#p9b0e32e367)" style="fill: none; stroke: #dad8d7; stroke-opacity: 0.5; stroke-width: 0.8; stroke-linecap: square"/>
     </g>
     <g id="line2d_6">
      <g>
       <use xlink:href="#m75ec803b9d" x="232.80056" y="309.2" style="stroke: #000000; stroke-width: 0.8"/>
      </g>
     </g>
     <g id="text_3">
      <!-- 25 -->
      <g transform="translate(226.785716 323.6) scale(0.1 -0.1)">
       <use xlink:href="#Poppins-Regular-32"/>
       <use xlink:href="#Poppins-Regular-35" transform="translate(57.499985 0)"/>
      </g>
     </g>
    </g>
    <g id="xtick_4">
     <g id="line2d_7">
      <path d="M 307.39949 309.2 
L 307.39949 32 
" clip-path="url(#p9b0e32e367)" style="fill: none; stroke: #dad8d7; stroke-opacity: 0.5; stroke-width: 0.8; stroke-linecap: square"/>
     </g>
     <g id="line2d_8">
      <g>
       <use xlink:href="#m75ec803b9d" x="307.39949" y="309.2" style="stroke: #000000; stroke-width: 0.8"/>
      </g>
     </g>
     <g id="text_4">
      <!-- 30 -->
      <g transform="translate(301.314334 323.6) scale(0.1 -0.1)">
       <defs>
        <path id="Poppins-Regular-33" d="M 384 3462 
Q 429 4051 838 4384 
Q 1248 4717 1901 4717 
Q 2336 4717 2653 4560 
Q 2970 4403 3133 4134 
Q 3296 3866 3296 3526 
Q 3296 3130 3069 2842 
Q 2842 2554 2477 2470 
L 2477 2438 
Q 2893 2336 3136 2035 
Q 3379 1734 3379 1248 
Q 3379 883 3212 592 
Q 3046 301 2713 134 
Q 2381 -32 1914 -32 
Q 1235 -32 800 323 
Q 365 678 314 1331 
L 877 1331 
Q 922 947 1190 704 
Q 1459 461 1907 461 
Q 2355 461 2588 694 
Q 2822 928 2822 1299 
Q 2822 1779 2502 1990 
Q 2182 2202 1536 2202 
L 1389 2202 
L 1389 2688 
L 1542 2688 
Q 2131 2694 2432 2883 
Q 2733 3072 2733 3469 
Q 2733 3808 2512 4013 
Q 2291 4218 1882 4218 
Q 1485 4218 1241 4013 
Q 998 3808 954 3462 
L 384 3462 
z
" transform="scale(0.015625)"/>
       </defs>
       <use xlink:href="#Poppins-Regular-33"/>
       <use xlink:href="#Poppins-Regular-30" transform="translate(58.899994 0)"/>
      </g>
     </g>
    </g>
    <g id="xtick_5">
     <g id="line2d_9">
      <path d="M 381.998421 309.2 
L 381.998421 32 
" clip-path="url(#p9b0e32e367)" style="fill: none; stroke: #dad8d7; stroke-opacity: 0.5; stroke-width: 0.8; stroke-linecap: square"/>
     </g>
     <g id="line2d_10">
      <g>
       <use xlink:href="#m75ec803b9d" x="381.998421" y="309.2" style="stroke: #000000; stroke-width: 0.8"/>
      </g>
     </g>
     <g id="text_5">
      <!-- 35 -->
      <g transform="translate(375.913265 323.6) scale(0.1 -0.1)">
       <use xlink:href="#Poppins-Regular-33"/>
       <use xlink:href="#Poppins-Regular-35" transform="translate(58.899994 0)"/>
      </g>
     </g>
    </g>
    <g id="xtick_6">
     <g id="line2d_11">
      <path d="M 456.597351 309.2 
L 456.597351 32 
" clip-path="url(#p9b0e32e367)" style="fill: none; stroke: #dad8d7; stroke-opacity: 0.5; stroke-width: 0.8; stroke-linecap: square"/>
     </g>
     <g id="line2d_12">
      <g>
       <use xlink:href="#m75ec803b9d" x="456.597351" y="309.2" style="stroke: #000000; stroke-width: 0.8"/>
      </g>
     </g>
     <g id="text_6">
      <!-- 40 -->
      <g transform="translate(450.312195 323.6) scale(0.1 -0.1)">
       <defs>
        <path id="Poppins-Regular-34" d="M 256 1030 
L 256 1472 
L 2502 4582 
L 3200 4582 
L 3200 1536 
L 3840 1536 
L 3840 1030 
L 3200 1030 
L 3200 0 
L 2624 0 
L 2624 1030 
L 256 1030 
z
M 2650 3974 
L 928 1536 
L 2650 1536 
L 2650 3974 
z
" transform="scale(0.015625)"/>
       </defs>
       <use xlink:href="#Poppins-Regular-34"/>
       <use xlink:href="#Poppins-Regular-30" transform="translate(62.899994 0)"/>
      </g>
     </g>
    </g>
    <g id="xtick_7">
     <g id="line2d_13">
      <path d="M 531.196282 309.2 
L 531.196282 32 
" clip-path="url(#p9b0e32e367)" style="fill: none; stroke: #dad8d7; stroke-opacity: 0.5; stroke-width: 0.8; stroke-linecap: square"/>
     </g>
     <g id="line2d_14">
      <g>
       <use xlink:href="#m75ec803b9d" x="531.196282" y="309.2" style="stroke: #000000; stroke-width: 0.8"/>
      </g>
     </g>
     <g id="text_7">
      <!-- 45 -->
      <g transform="translate(524.911126 323.6) scale(0.1 -0.1)">
       <use xlink:href="#Poppins-Regular-34"/>
       <use xlink:href="#Poppins-Regular-35" transform="translate(62.899994 0)"/>
      </g>
     </g>
    </g>
    <g id="xtick_8">
     <g id="line2d_15">
      <path d="M 605.795212 309.2 
L 605.795212 32 
" clip-path="url(#p9b0e32e367)" style="fill: none; stroke: #dad8d7; stroke-opacity: 0.5; stroke-width: 0.8; stroke-linecap: square"/>
     </g>
     <g id="line2d_16">
      <g>
       <use xlink:href="#m75ec803b9d" x="605.795212" y="309.2" style="stroke: #000000; stroke-width: 0.8"/>
      </g>
     </g>
     <g id="text_8">
      <!-- 50 -->
      <g transform="translate(599.515525 323.6) scale(0.1 -0.1)">
       <use xlink:href="#Poppins-Regular-35"/>
       <use xlink:href="#Poppins-Regular-30" transform="translate(62.799988 0)"/>
      </g>
     </g>
    </g>
    <g id="text_9">
     <!-- Average Number of Days Between Purchases -->
     <g transform="translate(202.299062 345.36875) scale(0.12 -0.12)">
      <defs>
       <path id="Poppins-Regular-41" d="M 3130 992 
L 1184 992 
L 826 0 
L 211 0 
L 1824 4435 
L 2496 4435 
L 4102 0 
L 3488 0 
L 3130 992 
z
M 2963 1466 
L 2157 3718 
L 1350 1466 
L 2963 1466 
z
" transform="scale(0.015625)"/>
       <path id="Poppins-Regular-76" d="M 1798 538 
L 2886 3507 
L 3507 3507 
L 2131 0 
L 1453 0 
L 77 3507 
L 704 3507 
L 1798 538 
z
" transform="scale(0.015625)"/>
       <path id="Poppins-Regular-65" d="M 3693 1888 
Q 3693 1722 3674 1536 
L 870 1536 
Q 902 1018 1225 726 
Q 1549 435 2010 435 
Q 2387 435 2640 611 
Q 2893 787 2995 1082 
L 3622 1082 
Q 3482 576 3059 259 
Q 2637 -58 2010 -58 
Q 1510 -58 1116 166 
Q 723 390 499 803 
Q 275 1216 275 1760 
Q 275 2304 492 2713 
Q 710 3123 1104 3344 
Q 1498 3565 2010 3565 
Q 2509 3565 2893 3347 
Q 3277 3130 3485 2749 
Q 3693 2368 3693 1888 
z
M 3091 2010 
Q 3091 2342 2944 2582 
Q 2797 2822 2544 2947 
Q 2291 3072 1984 3072 
Q 1542 3072 1232 2790 
Q 922 2509 877 2010 
L 3091 2010 
z
" transform="scale(0.015625)"/>
       <path id="Poppins-Regular-72" d="M 1075 2938 
Q 1229 3238 1513 3404 
Q 1798 3571 2208 3571 
L 2208 2970 
L 2054 2970 
Q 1075 2970 1075 1907 
L 1075 0 
L 493 0 
L 493 3507 
L 1075 3507 
L 1075 2938 
z
" transform="scale(0.015625)"/>
       <path id="Poppins-Regular-61" d="M 275 1766 
Q 275 2304 492 2710 
Q 710 3117 1091 3341 
Q 1472 3565 1939 3565 
Q 2400 3565 2739 3366 
Q 3078 3168 3245 2867 
L 3245 3507 
L 3834 3507 
L 3834 0 
L 3245 0 
L 3245 653 
Q 3072 346 2729 144 
Q 2387 -58 1933 -58 
Q 1466 -58 1088 172 
Q 710 403 492 819 
Q 275 1235 275 1766 
z
M 3245 1760 
Q 3245 2157 3085 2451 
Q 2925 2746 2653 2902 
Q 2381 3059 2054 3059 
Q 1728 3059 1459 2905 
Q 1190 2752 1030 2457 
Q 870 2163 870 1766 
Q 870 1363 1030 1065 
Q 1190 768 1459 611 
Q 1728 454 2054 454 
Q 2381 454 2653 611 
Q 2925 768 3085 1065 
Q 3245 1363 3245 1760 
z
" transform="scale(0.015625)"/>
       <path id="Poppins-Regular-67" d="M 1939 3565 
Q 2394 3565 2736 3366 
Q 3078 3168 3245 2867 
L 3245 3507 
L 3834 3507 
L 3834 -77 
Q 3834 -557 3629 -931 
Q 3424 -1306 3043 -1517 
Q 2662 -1728 2157 -1728 
Q 1466 -1728 1005 -1401 
Q 544 -1075 461 -512 
L 1037 -512 
Q 1133 -832 1433 -1027 
Q 1734 -1222 2157 -1222 
Q 2637 -1222 2941 -921 
Q 3245 -621 3245 -77 
L 3245 659 
Q 3072 352 2733 147 
Q 2394 -58 1939 -58 
Q 1472 -58 1091 172 
Q 710 403 492 819 
Q 275 1235 275 1766 
Q 275 2304 492 2710 
Q 710 3117 1091 3341 
Q 1472 3565 1939 3565 
z
M 3245 1760 
Q 3245 2157 3085 2451 
Q 2925 2746 2653 2902 
Q 2381 3059 2054 3059 
Q 1728 3059 1459 2905 
Q 1190 2752 1030 2457 
Q 870 2163 870 1766 
Q 870 1363 1030 1065 
Q 1190 768 1459 611 
Q 1728 454 2054 454 
Q 2381 454 2653 611 
Q 2925 768 3085 1065 
Q 3245 1363 3245 1760 
z
" transform="scale(0.015625)"/>
       <path id="Poppins-Regular-20" transform="scale(0.015625)"/>
       <path id="Poppins-Regular-4e" d="M 4000 0 
L 3418 0 
L 1075 3552 
L 1075 0 
L 493 0 
L 493 4467 
L 1075 4467 
L 3418 922 
L 3418 4467 
L 4000 4467 
L 4000 0 
z
" transform="scale(0.015625)"/>
       <path id="Poppins-Regular-75" d="M 3603 3507 
L 3603 0 
L 3021 0 
L 3021 518 
Q 2854 250 2556 99 
Q 2259 -51 1901 -51 
Q 1491 -51 1164 118 
Q 838 288 649 627 
Q 461 966 461 1453 
L 461 3507 
L 1037 3507 
L 1037 1530 
Q 1037 1011 1299 732 
Q 1562 454 2016 454 
Q 2483 454 2752 742 
Q 3021 1030 3021 1581 
L 3021 3507 
L 3603 3507 
z
" transform="scale(0.015625)"/>
       <path id="Poppins-Regular-6d" d="M 4710 3571 
Q 5120 3571 5440 3401 
Q 5760 3232 5945 2893 
Q 6131 2554 6131 2067 
L 6131 0 
L 5555 0 
L 5555 1984 
Q 5555 2509 5296 2787 
Q 5037 3066 4595 3066 
Q 4141 3066 3872 2774 
Q 3603 2483 3603 1933 
L 3603 0 
L 3027 0 
L 3027 1984 
Q 3027 2509 2768 2787 
Q 2509 3066 2067 3066 
Q 1613 3066 1344 2774 
Q 1075 2483 1075 1933 
L 1075 0 
L 493 0 
L 493 3507 
L 1075 3507 
L 1075 3002 
Q 1248 3277 1539 3424 
Q 1830 3571 2182 3571 
Q 2624 3571 2963 3372 
Q 3302 3174 3469 2790 
Q 3616 3162 3955 3366 
Q 4294 3571 4710 3571 
z
" transform="scale(0.015625)"/>
       <path id="Poppins-Regular-62" d="M 1075 2854 
Q 1254 3168 1600 3366 
Q 1946 3565 2387 3565 
Q 2861 3565 3238 3341 
Q 3616 3117 3833 2710 
Q 4051 2304 4051 1766 
Q 4051 1235 3833 819 
Q 3616 403 3235 172 
Q 2854 -58 2387 -58 
Q 1933 -58 1590 140 
Q 1248 339 1075 646 
L 1075 0 
L 493 0 
L 493 4736 
L 1075 4736 
L 1075 2854 
z
M 3456 1766 
Q 3456 2163 3296 2457 
Q 3136 2752 2864 2905 
Q 2592 3059 2266 3059 
Q 1946 3059 1674 2902 
Q 1402 2746 1238 2448 
Q 1075 2150 1075 1760 
Q 1075 1363 1238 1065 
Q 1402 768 1674 611 
Q 1946 454 2266 454 
Q 2592 454 2864 611 
Q 3136 768 3296 1065 
Q 3456 1363 3456 1766 
z
" transform="scale(0.015625)"/>
       <path id="Poppins-Regular-6f" d="M 2022 -58 
Q 1530 -58 1130 166 
Q 730 390 502 803 
Q 275 1216 275 1760 
Q 275 2298 508 2710 
Q 742 3123 1145 3344 
Q 1549 3565 2048 3565 
Q 2547 3565 2950 3344 
Q 3354 3123 3587 2713 
Q 3821 2304 3821 1760 
Q 3821 1216 3581 803 
Q 3341 390 2931 166 
Q 2522 -58 2022 -58 
z
M 2022 454 
Q 2336 454 2611 601 
Q 2886 749 3056 1043 
Q 3226 1338 3226 1760 
Q 3226 2182 3059 2476 
Q 2893 2771 2624 2915 
Q 2355 3059 2042 3059 
Q 1722 3059 1456 2915 
Q 1190 2771 1030 2476 
Q 870 2182 870 1760 
Q 870 1331 1027 1036 
Q 1184 742 1446 598 
Q 1709 454 2022 454 
z
" transform="scale(0.015625)"/>
       <path id="Poppins-Regular-66" d="M 1920 3027 
L 1184 3027 
L 1184 0 
L 602 0 
L 602 3027 
L 147 3027 
L 147 3507 
L 602 3507 
L 602 3757 
Q 602 4346 906 4618 
Q 1210 4890 1882 4890 
L 1882 4403 
Q 1498 4403 1341 4252 
Q 1184 4102 1184 3757 
L 1184 3507 
L 1920 3507 
L 1920 3027 
z
" transform="scale(0.015625)"/>
       <path id="Poppins-Regular-44" d="M 1882 4461 
Q 2611 4461 3145 4189 
Q 3680 3917 3965 3411 
Q 4250 2906 4250 2221 
Q 4250 1536 3965 1033 
Q 3680 531 3145 265 
Q 2611 0 1882 0 
L 493 0 
L 493 4461 
L 1882 4461 
z
M 1882 480 
Q 2746 480 3200 937 
Q 3654 1395 3654 2221 
Q 3654 3053 3196 3520 
Q 2739 3987 1882 3987 
L 1075 3987 
L 1075 480 
L 1882 480 
z
" transform="scale(0.015625)"/>
       <path id="Poppins-Regular-79" d="M 3514 3507 
L 1402 -1651 
L 800 -1651 
L 1491 38 
L 77 3507 
L 723 3507 
L 1824 666 
L 2912 3507 
L 3514 3507 
z
" transform="scale(0.015625)"/>
       <path id="Poppins-Regular-73" d="M 1734 -58 
Q 1331 -58 1011 80 
Q 691 218 505 464 
Q 320 710 301 1030 
L 902 1030 
Q 928 768 1149 601 
Q 1370 435 1728 435 
Q 2061 435 2253 582 
Q 2445 730 2445 954 
Q 2445 1184 2240 1296 
Q 2035 1408 1606 1517 
Q 1216 1619 969 1724 
Q 723 1830 547 2038 
Q 371 2246 371 2586 
Q 371 2854 531 3078 
Q 691 3302 985 3433 
Q 1280 3565 1658 3565 
Q 2240 3565 2598 3270 
Q 2957 2976 2982 2464 
L 2400 2464 
Q 2381 2739 2179 2905 
Q 1978 3072 1638 3072 
Q 1325 3072 1139 2937 
Q 954 2803 954 2586 
Q 954 2413 1066 2301 
Q 1178 2189 1347 2121 
Q 1517 2054 1818 1971 
Q 2195 1869 2432 1769 
Q 2669 1670 2838 1472 
Q 3008 1274 3014 954 
Q 3014 666 2854 435 
Q 2694 205 2403 73 
Q 2112 -58 1734 -58 
z
" transform="scale(0.015625)"/>
       <path id="Poppins-Regular-42" d="M 2726 2298 
Q 2970 2259 3171 2099 
Q 3373 1939 3491 1702 
Q 3610 1466 3610 1197 
Q 3610 858 3437 586 
Q 3264 314 2934 157 
Q 2605 0 2157 0 
L 493 0 
L 493 4461 
L 2093 4461 
Q 2547 4461 2867 4310 
Q 3187 4160 3347 3904 
Q 3507 3648 3507 3328 
Q 3507 2931 3292 2672 
Q 3078 2413 2726 2298 
z
M 1075 2534 
L 2054 2534 
Q 2464 2534 2688 2726 
Q 2912 2918 2912 3258 
Q 2912 3597 2688 3789 
Q 2464 3981 2042 3981 
L 1075 3981 
L 1075 2534 
z
M 2106 480 
Q 2541 480 2784 685 
Q 3027 890 3027 1254 
Q 3027 1626 2771 1840 
Q 2515 2054 2086 2054 
L 1075 2054 
L 1075 480 
L 2106 480 
z
" transform="scale(0.015625)"/>
       <path id="Poppins-Regular-74" d="M 1203 3027 
L 1203 960 
Q 1203 704 1312 598 
Q 1421 493 1690 493 
L 2118 493 
L 2118 0 
L 1594 0 
Q 1107 0 864 224 
Q 621 448 621 960 
L 621 3027 
L 166 3027 
L 166 3507 
L 621 3507 
L 621 4390 
L 1203 4390 
L 1203 3507 
L 2118 3507 
L 2118 3027 
L 1203 3027 
z
" transform="scale(0.015625)"/>
       <path id="Poppins-Regular-77" d="M 5165 3507 
L 4070 0 
L 3469 0 
L 2624 2784 
L 1779 0 
L 1178 0 
L 77 3507 
L 672 3507 
L 1478 563 
L 2349 3507 
L 2944 3507 
L 3795 557 
L 4589 3507 
L 5165 3507 
z
" transform="scale(0.015625)"/>
       <path id="Poppins-Regular-6e" d="M 2202 3571 
Q 2842 3571 3238 3184 
Q 3635 2797 3635 2067 
L 3635 0 
L 3059 0 
L 3059 1984 
Q 3059 2509 2796 2787 
Q 2534 3066 2080 3066 
Q 1619 3066 1347 2778 
Q 1075 2490 1075 1939 
L 1075 0 
L 493 0 
L 493 3507 
L 1075 3507 
L 1075 3008 
Q 1248 3277 1545 3424 
Q 1843 3571 2202 3571 
z
" transform="scale(0.015625)"/>
       <path id="Poppins-Regular-50" d="M 3475 3155 
Q 3475 2598 3094 2230 
Q 2714 1862 1933 1862 
L 1075 1862 
L 1075 0 
L 493 0 
L 493 4461 
L 1933 4461 
Q 2688 4461 3081 4096 
Q 3475 3731 3475 3155 
z
M 1933 2342 
Q 2419 2342 2649 2553 
Q 2880 2765 2880 3155 
Q 2880 3981 1933 3981 
L 1075 3981 
L 1075 2342 
L 1933 2342 
z
" transform="scale(0.015625)"/>
       <path id="Poppins-Regular-63" d="M 275 1760 
Q 275 2304 492 2710 
Q 710 3117 1097 3341 
Q 1485 3565 1984 3565 
Q 2630 3565 3049 3251 
Q 3469 2938 3603 2381 
L 2976 2381 
Q 2886 2701 2627 2886 
Q 2368 3072 1984 3072 
Q 1485 3072 1177 2729 
Q 870 2387 870 1760 
Q 870 1126 1177 780 
Q 1485 435 1984 435 
Q 2368 435 2624 614 
Q 2880 794 2976 1126 
L 3603 1126 
Q 3462 589 3040 265 
Q 2618 -58 1984 -58 
Q 1485 -58 1097 166 
Q 710 390 492 800 
Q 275 1210 275 1760 
z
" transform="scale(0.015625)"/>
       <path id="Poppins-Regular-68" d="M 2234 3571 
Q 2630 3571 2950 3401 
Q 3270 3232 3452 2893 
Q 3635 2554 3635 2067 
L 3635 0 
L 3059 0 
L 3059 1984 
Q 3059 2509 2796 2787 
Q 2534 3066 2080 3066 
Q 1619 3066 1347 2778 
Q 1075 2490 1075 1939 
L 1075 0 
L 493 0 
L 493 4736 
L 1075 4736 
L 1075 3008 
Q 1248 3277 1552 3424 
Q 1856 3571 2234 3571 
z
" transform="scale(0.015625)"/>
      </defs>
      <use xlink:href="#Poppins-Regular-41"/>
      <use xlink:href="#Poppins-Regular-76" transform="translate(67.399994 0)"/>
      <use xlink:href="#Poppins-Regular-65" transform="translate(123.499985 0)"/>
      <use xlink:href="#Poppins-Regular-72" transform="translate(185.499969 0)"/>
      <use xlink:href="#Poppins-Regular-61" transform="translate(222.799957 0)"/>
      <use xlink:href="#Poppins-Regular-67" transform="translate(290.399948 0)"/>
      <use xlink:href="#Poppins-Regular-65" transform="translate(357.999939 0)"/>
      <use xlink:href="#Poppins-Regular-20" transform="translate(419.999924 0)"/>
      <use xlink:href="#Poppins-Regular-4e" transform="translate(446.699921 0)"/>
      <use xlink:href="#Poppins-Regular-75" transform="translate(516.999908 0)"/>
      <use xlink:href="#Poppins-Regular-6d" transform="translate(580.999893 0)"/>
      <use xlink:href="#Poppins-Regular-62" transform="translate(683.999878 0)"/>
      <use xlink:href="#Poppins-Regular-65" transform="translate(751.599869 0)"/>
      <use xlink:href="#Poppins-Regular-72" transform="translate(813.599854 0)"/>
      <use xlink:href="#Poppins-Regular-20" transform="translate(850.899841 0)"/>
      <use xlink:href="#Poppins-Regular-6f" transform="translate(877.599838 0)"/>
      <use xlink:href="#Poppins-Regular-66" transform="translate(941.599823 0)"/>
      <use xlink:href="#Poppins-Regular-20" transform="translate(974.499817 0)"/>
      <use xlink:href="#Poppins-Regular-44" transform="translate(1001.199814 0)"/>
      <use xlink:href="#Poppins-Regular-61" transform="translate(1071.899796 0)"/>
      <use xlink:href="#Poppins-Regular-79" transform="translate(1139.499786 0)"/>
      <use xlink:href="#Poppins-Regular-73" transform="translate(1195.799774 0)"/>
      <use xlink:href="#Poppins-Regular-20" transform="translate(1247.999771 0)"/>
      <use xlink:href="#Poppins-Regular-42" transform="translate(1274.699768 0)"/>
      <use xlink:href="#Poppins-Regular-65" transform="translate(1335.999756 0)"/>
      <use xlink:href="#Poppins-Regular-74" transform="translate(1397.999741 0)"/>
      <use xlink:href="#Poppins-Regular-77" transform="translate(1434.399734 0)"/>
      <use xlink:href="#Poppins-Regular-65" transform="translate(1516.399719 0)"/>
      <use xlink:href="#Poppins-Regular-65" transform="translate(1578.399704 0)"/>
      <use xlink:href="#Poppins-Regular-6e" transform="translate(1640.399689 0)"/>
      <use xlink:href="#Poppins-Regular-20" transform="translate(1704.399673 0)"/>
      <use xlink:href="#Poppins-Regular-50" transform="translate(1731.09967 0)"/>
      <use xlink:href="#Poppins-Regular-75" transform="translate(1788.999664 0)"/>
      <use xlink:href="#Poppins-Regular-72" transform="translate(1852.999649 0)"/>
      <use xlink:href="#Poppins-Regular-63" transform="translate(1890.299637 0)"/>
      <use xlink:href="#Poppins-Regular-68" transform="translate(1950.999634 0)"/>
      <use xlink:href="#Poppins-Regular-61" transform="translate(2014.999619 0)"/>
      <use xlink:href="#Poppins-Regular-73" transform="translate(2082.599609 0)"/>
      <use xlink:href="#Poppins-Regular-65" transform="translate(2134.799606 0)"/>
      <use xlink:href="#Poppins-Regular-73" transform="translate(2196.799591 0)"/>
     </g>
    </g>
   </g>
   <g id="matplotlib.axis_2">
    <g id="ytick_1">
     <g id="line2d_17">
      <path d="M 58.239063 309.2 
L 616.239063 309.2 
" clip-path="url(#p9b0e32e367)" style="fill: none; stroke: #dad8d7; stroke-opacity: 0.5; stroke-width: 0.8; stroke-linecap: square"/>
     </g>
     <g id="line2d_18">
      <defs>
       <path id="m6422a42560" d="M 0 0 
L -3.5 0 
" style="stroke: #000000; stroke-width: 0.8"/>
      </defs>
      <g>
       <use xlink:href="#m6422a42560" x="58.239063" y="309.2" style="stroke: #000000; stroke-width: 0.8"/>
      </g>
     </g>
     <g id="text_10">
      <!-- 0 -->
      <g transform="translate(44.959375 312.9) scale(0.1 -0.1)">
       <use xlink:href="#Poppins-Regular-30"/>
      </g>
     </g>
    </g>
    <g id="ytick_2">
     <g id="line2d_19">
      <path d="M 58.239063 263.800172 
L 616.239063 263.800172 
" clip-path="url(#p9b0e32e367)" style="fill: none; stroke: #dad8d7; stroke-opacity: 0.5; stroke-width: 0.8; stroke-linecap: square"/>
     </g>
     <g id="line2d_20">
      <g>
       <use xlink:href="#m6422a42560" x="58.239063" y="263.800172" style="stroke: #000000; stroke-width: 0.8"/>
      </g>
     </g>
     <g id="text_11">
      <!-- 200 -->
      <g transform="translate(32.929688 267.500172) scale(0.1 -0.1)">
       <use xlink:href="#Poppins-Regular-32"/>
       <use xlink:href="#Poppins-Regular-30" transform="translate(57.499985 0)"/>
       <use xlink:href="#Poppins-Regular-30" transform="translate(120.299973 0)"/>
      </g>
     </g>
    </g>
    <g id="ytick_3">
     <g id="line2d_21">
      <path d="M 58.239063 218.400344 
L 616.239063 218.400344 
" clip-path="url(#p9b0e32e367)" style="fill: none; stroke: #dad8d7; stroke-opacity: 0.5; stroke-width: 0.8; stroke-linecap: square"/>
     </g>
     <g id="line2d_22">
      <g>
       <use xlink:href="#m6422a42560" x="58.239063" y="218.400344" style="stroke: #000000; stroke-width: 0.8"/>
      </g>
     </g>
     <g id="text_12">
      <!-- 400 -->
      <g transform="translate(32.389063 222.100344) scale(0.1 -0.1)">
       <use xlink:href="#Poppins-Regular-34"/>
       <use xlink:href="#Poppins-Regular-30" transform="translate(62.899994 0)"/>
       <use xlink:href="#Poppins-Regular-30" transform="translate(125.699982 0)"/>
      </g>
     </g>
    </g>
    <g id="ytick_4">
     <g id="line2d_23">
      <path d="M 58.239063 173.000516 
L 616.239063 173.000516 
" clip-path="url(#p9b0e32e367)" style="fill: none; stroke: #dad8d7; stroke-opacity: 0.5; stroke-width: 0.8; stroke-linecap: square"/>
     </g>
     <g id="line2d_24">
      <g>
       <use xlink:href="#m6422a42560" x="58.239063" y="173.000516" style="stroke: #000000; stroke-width: 0.8"/>
      </g>
     </g>
     <g id="text_13">
      <!-- 600 -->
      <g transform="translate(32.329688 176.700516) scale(0.1 -0.1)">
       <defs>
        <path id="Poppins-Regular-36" d="M 2976 3526 
Q 2835 4237 2099 4237 
Q 1530 4237 1248 3798 
Q 966 3360 973 2355 
Q 1120 2688 1462 2877 
Q 1805 3066 2227 3066 
Q 2886 3066 3280 2656 
Q 3674 2246 3674 1523 
Q 3674 1088 3504 742 
Q 3334 397 2992 192 
Q 2650 -13 2163 -13 
Q 1504 -13 1133 281 
Q 762 576 614 1094 
Q 467 1613 467 2374 
Q 467 4723 2106 4723 
Q 2733 4723 3091 4384 
Q 3450 4045 3514 3526 
L 2976 3526 
z
M 2106 2573 
Q 1830 2573 1587 2461 
Q 1344 2349 1193 2121 
Q 1043 1894 1043 1568 
Q 1043 1082 1324 778 
Q 1606 474 2131 474 
Q 2579 474 2844 752 
Q 3110 1030 3110 1504 
Q 3110 2003 2854 2288 
Q 2598 2573 2106 2573 
z
" transform="scale(0.015625)"/>
       </defs>
       <use xlink:href="#Poppins-Regular-36"/>
       <use xlink:href="#Poppins-Regular-30" transform="translate(63.499985 0)"/>
       <use xlink:href="#Poppins-Regular-30" transform="translate(126.299973 0)"/>
      </g>
     </g>
    </g>
    <g id="ytick_5">
     <g id="line2d_25">
      <path d="M 58.239063 127.600688 
L 616.239063 127.600688 
" clip-path="url(#p9b0e32e367)" style="fill: none; stroke: #dad8d7; stroke-opacity: 0.5; stroke-width: 0.8; stroke-linecap: square"/>
     </g>
     <g id="line2d_26">
      <g>
       <use xlink:href="#m6422a42560" x="58.239063" y="127.600688" style="stroke: #000000; stroke-width: 0.8"/>
      </g>
     </g>
     <g id="text_14">
      <!-- 800 -->
      <g transform="translate(32.370312 131.300688) scale(0.1 -0.1)">
       <defs>
        <path id="Poppins-Regular-38" d="M 1242 2406 
Q 883 2547 691 2816 
Q 499 3085 499 3469 
Q 499 3814 672 4092 
Q 845 4371 1187 4534 
Q 1530 4698 2016 4698 
Q 2502 4698 2844 4534 
Q 3187 4371 3363 4092 
Q 3539 3814 3539 3469 
Q 3539 3098 3340 2819 
Q 3142 2541 2797 2406 
Q 3194 2285 3427 1981 
Q 3661 1677 3661 1248 
Q 3661 832 3456 521 
Q 3251 211 2876 41 
Q 2502 -128 2016 -128 
Q 1530 -128 1162 41 
Q 794 211 589 521 
Q 384 832 384 1248 
Q 384 1677 614 1984 
Q 845 2291 1242 2406 
z
M 2976 3398 
Q 2976 3789 2720 4000 
Q 2464 4211 2016 4211 
Q 1574 4211 1318 4000 
Q 1062 3789 1062 3392 
Q 1062 3034 1328 2816 
Q 1594 2598 2016 2598 
Q 2445 2598 2710 2819 
Q 2976 3040 2976 3398 
z
M 2016 2150 
Q 1542 2150 1241 1929 
Q 941 1709 941 1267 
Q 941 858 1232 608 
Q 1523 358 2016 358 
Q 2509 358 2797 608 
Q 3085 858 3085 1267 
Q 3085 1696 2790 1923 
Q 2496 2150 2016 2150 
z
" transform="scale(0.015625)"/>
       </defs>
       <use xlink:href="#Poppins-Regular-38"/>
       <use xlink:href="#Poppins-Regular-30" transform="translate(63.099991 0)"/>
       <use xlink:href="#Poppins-Regular-30" transform="translate(125.899979 0)"/>
      </g>
     </g>
    </g>
    <g id="ytick_6">
     <g id="line2d_27">
      <path d="M 58.239063 82.20086 
L 616.239063 82.20086 
" clip-path="url(#p9b0e32e367)" style="fill: none; stroke: #dad8d7; stroke-opacity: 0.5; stroke-width: 0.8; stroke-linecap: square"/>
     </g>
     <g id="line2d_28">
      <g>
       <use xlink:href="#m6422a42560" x="58.239063" y="82.20086" style="stroke: #000000; stroke-width: 0.8"/>
      </g>
     </g>
     <g id="text_15">
      <!-- 1000 -->
      <g transform="translate(29.2 85.90086) scale(0.1 -0.1)">
       <use xlink:href="#Poppins-Regular-31"/>
       <use xlink:href="#Poppins-Regular-30" transform="translate(31.999985 0)"/>
       <use xlink:href="#Poppins-Regular-30" transform="translate(94.799973 0)"/>
       <use xlink:href="#Poppins-Regular-30" transform="translate(157.59996 0)"/>
      </g>
     </g>
    </g>
    <g id="ytick_7">
     <g id="line2d_29">
      <path d="M 58.239063 36.801032 
L 616.239063 36.801032 
" clip-path="url(#p9b0e32e367)" style="fill: none; stroke: #dad8d7; stroke-opacity: 0.5; stroke-width: 0.8; stroke-linecap: square"/>
     </g>
     <g id="line2d_30">
      <g>
       <use xlink:href="#m6422a42560" x="58.239063" y="36.801032" style="stroke: #000000; stroke-width: 0.8"/>
      </g>
     </g>
     <g id="text_16">
      <!-- 1200 -->
      <g transform="translate(29.729688 40.501032) scale(0.1 -0.1)">
       <use xlink:href="#Poppins-Regular-31"/>
       <use xlink:href="#Poppins-Regular-32" transform="translate(31.999985 0)"/>
       <use xlink:href="#Poppins-Regular-30" transform="translate(89.499969 0)"/>
       <use xlink:href="#Poppins-Regular-30" transform="translate(152.299957 0)"/>
      </g>
     </g>
    </g>
    <g id="text_17">
     <!-- Number of Customers -->
     <g transform="translate(16.08 236.76875) rotate(-90) scale(0.12 -0.12)">
      <defs>
       <path id="Poppins-Regular-43" d="M 275 2234 
Q 275 2886 569 3408 
Q 864 3930 1373 4224 
Q 1882 4518 2502 4518 
Q 3232 4518 3776 4166 
Q 4320 3814 4570 3168 
L 3872 3168 
Q 3686 3571 3337 3788 
Q 2989 4006 2502 4006 
Q 2035 4006 1664 3788 
Q 1293 3571 1081 3171 
Q 870 2771 870 2234 
Q 870 1702 1081 1302 
Q 1293 902 1664 684 
Q 2035 467 2502 467 
Q 2989 467 3337 681 
Q 3686 896 3872 1299 
L 4570 1299 
Q 4320 659 3776 310 
Q 3232 -38 2502 -38 
Q 1882 -38 1373 253 
Q 864 544 569 1062 
Q 275 1581 275 2234 
z
" transform="scale(0.015625)"/>
      </defs>
      <use xlink:href="#Poppins-Regular-4e"/>
      <use xlink:href="#Poppins-Regular-75" transform="translate(70.299988 0)"/>
      <use xlink:href="#Poppins-Regular-6d" transform="translate(134.299973 0)"/>
      <use xlink:href="#Poppins-Regular-62" transform="translate(237.299957 0)"/>
      <use xlink:href="#Poppins-Regular-65" transform="translate(304.899948 0)"/>
      <use xlink:href="#Poppins-Regular-72" transform="translate(366.899933 0)"/>
      <use xlink:href="#Poppins-Regular-20" transform="translate(404.199921 0)"/>
      <use xlink:href="#Poppins-Regular-6f" transform="translate(430.899918 0)"/>
      <use xlink:href="#Poppins-Regular-66" transform="translate(494.899902 0)"/>
      <use xlink:href="#Poppins-Regular-20" transform="translate(527.799896 0)"/>
      <use xlink:href="#Poppins-Regular-43" transform="translate(554.499893 0)"/>
      <use xlink:href="#Poppins-Regular-75" transform="translate(631.699875 0)"/>
      <use xlink:href="#Poppins-Regular-73" transform="translate(695.69986 0)"/>
      <use xlink:href="#Poppins-Regular-74" transform="translate(747.899857 0)"/>
      <use xlink:href="#Poppins-Regular-6f" transform="translate(784.29985 0)"/>
      <use xlink:href="#Poppins-Regular-6d" transform="translate(848.299835 0)"/>
      <use xlink:href="#Poppins-Regular-65" transform="translate(951.29982 0)"/>
      <use xlink:href="#Poppins-Regular-72" transform="translate(1013.299805 0)"/>
      <use xlink:href="#Poppins-Regular-73" transform="translate(1050.599792 0)"/>
     </g>
    </g>
   </g>
   <g id="patch_3">
    <path d="M 83.602699 309.2 
L 117.420881 309.2 
L 117.420881 308.973001 
L 83.602699 308.973001 
z
" clip-path="url(#p9b0e32e367)" style="fill: #22c55e"/>
   </g>
   <g id="patch_4">
    <path d="M 117.420881 309.2 
L 151.239062 309.2 
L 151.239062 308.065004 
L 117.420881 308.065004 
z
" clip-path="url(#p9b0e32e367)" style="fill: #22c55e"/>
   </g>
   <g id="patch_5">
    <path d="M 151.239062 309.2 
L 185.057244 309.2 
L 185.057244 305.568014 
L 151.239062 305.568014 
z
" clip-path="url(#p9b0e32e367)" style="fill: #22c55e"/>
   </g>
   <g id="patch_6">
    <path d="M 185.057244 309.2 
L 218.875426 309.2 
L 218.875426 295.580052 
L 185.057244 295.580052 
z
" clip-path="url(#p9b0e32e367)" style="fill: #22c55e"/>
   </g>
   <g id="patch_7">
    <path d="M 218.875426 309.2 
L 252.693608 309.2 
L 252.693608 280.825107 
L 218.875426 280.825107 
z
" clip-path="url(#p9b0e32e367)" style="fill: #22c55e"/>
   </g>
   <g id="patch_8">
    <path d="M 252.693608 309.2 
L 286.51179 309.2 
L 286.51179 197.743422 
L 252.693608 197.743422 
z
" clip-path="url(#p9b0e32e367)" style="fill: #22c55e"/>
   </g>
   <g id="patch_9">
    <path d="M 286.51179 309.2 
L 320.329972 309.2 
L 320.329972 49.285985 
L 286.51179 49.285985 
z
" clip-path="url(#p9b0e32e367)" style="fill: #22c55e"/>
   </g>
   <g id="patch_10">
    <path d="M 320.329972 309.2 
L 354.148153 309.2 
L 354.148153 45.2 
L 320.329972 45.2 
z
" clip-path="url(#p9b0e32e367)" style="fill: #22c55e"/>
   </g>
   <g id="patch_11">
    <path d="M 354.148153 309.2 
L 387.966335 309.2 
L 387.966335 207.050387 
L 354.148153 207.050387 
z
" clip-path="url(#p9b0e32e367)" style="fill: #22c55e"/>
   </g>
   <g id="patch_12">
    <path d="M 387.966335 309.2 
L 421.784517 309.2 
L 421.784517 271.291144 
L 387.966335 271.291144 
z
" clip-path="url(#p9b0e32e367)" style="fill: #22c55e"/>
   </g>
   <g id="patch_13">
    <path d="M 421.784517 309.2 
L 455.602699 309.2 
L 455.602699 296.261049 
L 421.784517 296.261049 
z
" clip-path="url(#p9b0e32e367)" style="fill: #22c55e"/>
   </g>
   <g id="patch_14">
    <path d="M 455.602699 309.2 
L 489.420881 309.2 
L 489.420881 305.114015 
L 455.602699 305.114015 
z
" clip-path="url(#p9b0e32e367)" style="fill: #22c55e"/>
   </g>
   <g id="patch_15">
    <path d="M 489.420881 309.2 
L 523.239063 309.2 
L 523.239063 307.384007 
L 489.420881 307.384007 
z
" clip-path="url(#p9b0e32e367)" style="fill: #22c55e"/>
   </g>
   <g id="patch_16">
    <path d="M 523.239063 309.2 
L 557.057244 309.2 
L 557.057244 308.065004 
L 523.239063 308.065004 
z
" clip-path="url(#p9b0e32e367)" style="fill: #22c55e"/>
   </g>
   <g id="patch_17">
    <path d="M 557.057244 309.2 
L 590.875426 309.2 
L 590.875426 308.065004 
L 557.057244 308.065004 
z
" clip-path="url(#p9b0e32e367)" style="fill: #22c55e"/>
   </g>
   <g id="line2d_31">
    <path d="M 320.827298 309.2 
L 320.827298 32 
" clip-path="url(#p9b0e32e367)" style="fill: none; stroke-dasharray: 7.4,3.2; stroke-dashoffset: 0; stroke: #000000; stroke-width: 2"/>
   </g>
   <g id="patch_18">
    <path d="M 58.239063 309.2 
L 58.239063 32 
" style="fill: none; stroke: #000000; stroke-width: 0.8; stroke-linejoin: miter; stroke-linecap: square"/>
   </g>
   <g id="patch_19">
    <path d="M 58.239063 309.2 
L 616.239063 309.2 
" style="fill: none; stroke: #000000; stroke-width: 0.8; stroke-linejoin: miter; stroke-linecap: square"/>
   </g>
   <g id="text_18">
    <!-- Average Days Between Customer Purchases -->
    <g transform="translate(111.410937 22) scale(0.2 -0.2)">
     <defs>
      <path id="Poppins-SemiBold-41" d="M 3181 851 
L 1402 851 
L 1107 0 
L 166 0 
L 1773 4474 
L 2816 4474 
L 4422 0 
L 3475 0 
L 3181 851 
z
M 2938 1568 
L 2291 3437 
L 1645 1568 
L 2938 1568 
z
" transform="scale(0.015625)"/>
      <path id="Poppins-SemiBold-76" d="M 1920 826 
L 2816 3546 
L 3770 3546 
L 2458 0 
L 1370 0 
L 64 3546 
L 1024 3546 
L 1920 826 
z
" transform="scale(0.015625)"/>
      <path id="Poppins-SemiBold-65" d="M 3738 1850 
Q 3738 1658 3712 1504 
L 1120 1504 
Q 1152 1120 1389 902 
Q 1626 685 1971 685 
Q 2470 685 2682 1114 
L 3648 1114 
Q 3494 602 3059 272 
Q 2624 -58 1990 -58 
Q 1478 -58 1072 169 
Q 666 397 438 813 
Q 211 1229 211 1773 
Q 211 2323 435 2739 
Q 659 3155 1062 3379 
Q 1466 3603 1990 3603 
Q 2496 3603 2896 3385 
Q 3296 3168 3517 2768 
Q 3738 2368 3738 1850 
z
M 2810 2106 
Q 2803 2451 2560 2659 
Q 2317 2867 1965 2867 
Q 1632 2867 1405 2665 
Q 1178 2464 1126 2106 
L 2810 2106 
z
" transform="scale(0.015625)"/>
      <path id="Poppins-SemiBold-72" d="M 1338 2995 
Q 1510 3277 1788 3437 
Q 2067 3597 2426 3597 
L 2426 2656 
L 2189 2656 
Q 1766 2656 1552 2457 
Q 1338 2259 1338 1766 
L 1338 0 
L 442 0 
L 442 3546 
L 1338 3546 
L 1338 2995 
z
" transform="scale(0.015625)"/>
      <path id="Poppins-SemiBold-61" d="M 211 1786 
Q 211 2323 425 2739 
Q 640 3155 1008 3379 
Q 1376 3603 1830 3603 
Q 2227 3603 2524 3443 
Q 2822 3283 3002 3040 
L 3002 3546 
L 3904 3546 
L 3904 0 
L 3002 0 
L 3002 518 
Q 2829 269 2525 105 
Q 2221 -58 1824 -58 
Q 1376 -58 1008 172 
Q 640 403 425 822 
Q 211 1242 211 1786 
z
M 3002 1773 
Q 3002 2099 2874 2332 
Q 2746 2566 2528 2691 
Q 2310 2816 2061 2816 
Q 1811 2816 1600 2694 
Q 1389 2573 1257 2339 
Q 1126 2106 1126 1786 
Q 1126 1466 1257 1226 
Q 1389 986 1603 858 
Q 1818 730 2061 730 
Q 2310 730 2528 854 
Q 2746 979 2874 1212 
Q 3002 1446 3002 1773 
z
" transform="scale(0.015625)"/>
      <path id="Poppins-SemiBold-67" d="M 1830 3603 
Q 2227 3603 2528 3446 
Q 2829 3290 3002 3040 
L 3002 3546 
L 3904 3546 
L 3904 -26 
Q 3904 -518 3705 -905 
Q 3507 -1293 3110 -1520 
Q 2714 -1747 2150 -1747 
Q 1395 -1747 912 -1395 
Q 429 -1043 365 -435 
L 1254 -435 
Q 1325 -678 1558 -822 
Q 1792 -966 2125 -966 
Q 2515 -966 2758 -732 
Q 3002 -499 3002 -26 
L 3002 525 
Q 2829 275 2525 108 
Q 2221 -58 1830 -58 
Q 1382 -58 1011 172 
Q 640 403 425 822 
Q 211 1242 211 1786 
Q 211 2323 425 2739 
Q 640 3155 1008 3379 
Q 1376 3603 1830 3603 
z
M 3002 1773 
Q 3002 2099 2874 2332 
Q 2746 2566 2528 2691 
Q 2310 2816 2061 2816 
Q 1811 2816 1600 2694 
Q 1389 2573 1257 2339 
Q 1126 2106 1126 1786 
Q 1126 1466 1257 1226 
Q 1389 986 1603 858 
Q 1818 730 2061 730 
Q 2310 730 2528 854 
Q 2746 979 2874 1212 
Q 3002 1446 3002 1773 
z
" transform="scale(0.015625)"/>
      <path id="Poppins-SemiBold-20" transform="scale(0.015625)"/>
      <path id="Poppins-SemiBold-44" d="M 2003 4467 
Q 2707 4467 3241 4192 
Q 3776 3917 4067 3408 
Q 4358 2899 4358 2227 
Q 4358 1555 4067 1052 
Q 3776 550 3241 275 
Q 2707 0 2003 0 
L 442 0 
L 442 4467 
L 2003 4467 
z
M 1971 762 
Q 2675 762 3059 1146 
Q 3443 1530 3443 2227 
Q 3443 2925 3059 3318 
Q 2675 3712 1971 3712 
L 1338 3712 
L 1338 762 
L 1971 762 
z
" transform="scale(0.015625)"/>
      <path id="Poppins-SemiBold-79" d="M 3834 3546 
L 1638 -1677 
L 685 -1677 
L 1453 90 
L 32 3546 
L 1037 3546 
L 1952 1069 
L 2880 3546 
L 3834 3546 
z
" transform="scale(0.015625)"/>
      <path id="Poppins-SemiBold-73" d="M 1798 -58 
Q 1363 -58 1017 99 
Q 672 256 470 525 
Q 269 794 250 1120 
L 1152 1120 
Q 1178 915 1354 780 
Q 1530 646 1792 646 
Q 2048 646 2192 748 
Q 2336 851 2336 1011 
Q 2336 1184 2160 1270 
Q 1984 1357 1600 1459 
Q 1203 1555 950 1657 
Q 698 1760 515 1971 
Q 333 2182 333 2541 
Q 333 2835 502 3078 
Q 672 3322 989 3462 
Q 1306 3603 1734 3603 
Q 2368 3603 2745 3286 
Q 3123 2970 3162 2432 
L 2304 2432 
Q 2285 2643 2128 2768 
Q 1971 2893 1709 2893 
Q 1466 2893 1334 2803 
Q 1203 2714 1203 2554 
Q 1203 2374 1382 2281 
Q 1562 2189 1939 2093 
Q 2323 1997 2572 1894 
Q 2822 1792 3004 1577 
Q 3187 1363 3194 1011 
Q 3194 704 3024 461 
Q 2854 218 2537 80 
Q 2221 -58 1798 -58 
z
" transform="scale(0.015625)"/>
      <path id="Poppins-SemiBold-42" d="M 2976 2291 
Q 3354 2221 3597 1913 
Q 3840 1606 3840 1210 
Q 3840 851 3664 579 
Q 3488 307 3155 153 
Q 2822 0 2368 0 
L 442 0 
L 442 4467 
L 2285 4467 
Q 2739 4467 3068 4320 
Q 3398 4173 3568 3910 
Q 3738 3648 3738 3315 
Q 3738 2925 3530 2662 
Q 3322 2400 2976 2291 
z
M 1338 2624 
L 2157 2624 
Q 2477 2624 2649 2768 
Q 2822 2912 2822 3181 
Q 2822 3450 2649 3597 
Q 2477 3744 2157 3744 
L 1338 3744 
L 1338 2624 
z
M 2240 730 
Q 2566 730 2748 883 
Q 2931 1037 2931 1318 
Q 2931 1606 2739 1769 
Q 2547 1933 2221 1933 
L 1338 1933 
L 1338 730 
L 2240 730 
z
" transform="scale(0.015625)"/>
      <path id="Poppins-SemiBold-74" d="M 1485 2810 
L 1485 1094 
Q 1485 915 1571 835 
Q 1658 755 1862 755 
L 2278 755 
L 2278 0 
L 1715 0 
Q 582 0 582 1101 
L 582 2810 
L 160 2810 
L 160 3546 
L 582 3546 
L 582 4422 
L 1485 4422 
L 1485 3546 
L 2278 3546 
L 2278 2810 
L 1485 2810 
z
" transform="scale(0.015625)"/>
      <path id="Poppins-SemiBold-77" d="M 5357 3546 
L 4320 0 
L 3354 0 
L 2707 2477 
L 2061 0 
L 1088 0 
L 45 3546 
L 954 3546 
L 1581 845 
L 2259 3546 
L 3206 3546 
L 3872 851 
L 4499 3546 
L 5357 3546 
z
" transform="scale(0.015625)"/>
      <path id="Poppins-SemiBold-6e" d="M 2406 3597 
Q 3040 3597 3430 3197 
Q 3821 2797 3821 2080 
L 3821 0 
L 2925 0 
L 2925 1958 
Q 2925 2381 2713 2608 
Q 2502 2835 2138 2835 
Q 1766 2835 1552 2608 
Q 1338 2381 1338 1958 
L 1338 0 
L 442 0 
L 442 3546 
L 1338 3546 
L 1338 3104 
Q 1517 3334 1795 3465 
Q 2074 3597 2406 3597 
z
" transform="scale(0.015625)"/>
      <path id="Poppins-SemiBold-43" d="M 224 2240 
Q 224 2899 521 3420 
Q 819 3942 1334 4233 
Q 1850 4525 2490 4525 
Q 3238 4525 3801 4141 
Q 4365 3757 4589 3078 
L 3558 3078 
Q 3405 3398 3126 3558 
Q 2848 3718 2483 3718 
Q 2093 3718 1789 3536 
Q 1485 3354 1315 3021 
Q 1146 2688 1146 2240 
Q 1146 1798 1315 1462 
Q 1485 1126 1789 944 
Q 2093 762 2483 762 
Q 2848 762 3126 925 
Q 3405 1088 3558 1408 
L 4589 1408 
Q 4365 723 3805 342 
Q 3245 -38 2490 -38 
Q 1850 -38 1334 253 
Q 819 544 521 1062 
Q 224 1581 224 2240 
z
" transform="scale(0.015625)"/>
      <path id="Poppins-SemiBold-75" d="M 3789 3546 
L 3789 0 
L 2886 0 
L 2886 448 
Q 2714 218 2435 86 
Q 2157 -45 1830 -45 
Q 1414 -45 1094 131 
Q 774 307 592 649 
Q 410 992 410 1466 
L 410 3546 
L 1306 3546 
L 1306 1594 
Q 1306 1171 1517 944 
Q 1728 717 2093 717 
Q 2464 717 2675 944 
Q 2886 1171 2886 1594 
L 2886 3546 
L 3789 3546 
z
" transform="scale(0.015625)"/>
      <path id="Poppins-SemiBold-6f" d="M 2016 -58 
Q 1504 -58 1094 169 
Q 685 397 451 813 
Q 218 1229 218 1773 
Q 218 2317 458 2733 
Q 698 3149 1114 3376 
Q 1530 3603 2042 3603 
Q 2554 3603 2970 3376 
Q 3386 3149 3626 2733 
Q 3866 2317 3866 1773 
Q 3866 1229 3619 813 
Q 3373 397 2953 169 
Q 2534 -58 2016 -58 
z
M 2016 723 
Q 2259 723 2473 841 
Q 2688 960 2816 1197 
Q 2944 1434 2944 1773 
Q 2944 2278 2678 2550 
Q 2413 2822 2029 2822 
Q 1645 2822 1385 2550 
Q 1126 2278 1126 1773 
Q 1126 1267 1379 995 
Q 1632 723 2016 723 
z
" transform="scale(0.015625)"/>
      <path id="Poppins-SemiBold-6d" d="M 4845 3597 
Q 5498 3597 5898 3197 
Q 6298 2797 6298 2080 
L 6298 0 
L 5402 0 
L 5402 1958 
Q 5402 2374 5190 2595 
Q 4979 2816 4614 2816 
Q 4250 2816 4035 2595 
Q 3821 2374 3821 1958 
L 3821 0 
L 2925 0 
L 2925 1958 
Q 2925 2374 2713 2595 
Q 2502 2816 2138 2816 
Q 1766 2816 1552 2595 
Q 1338 2374 1338 1958 
L 1338 0 
L 442 0 
L 442 3546 
L 1338 3546 
L 1338 3117 
Q 1510 3341 1782 3469 
Q 2054 3597 2381 3597 
Q 2797 3597 3123 3421 
Q 3450 3245 3629 2918 
Q 3802 3226 4131 3411 
Q 4461 3597 4845 3597 
z
" transform="scale(0.015625)"/>
      <path id="Poppins-SemiBold-50" d="M 3699 3085 
Q 3699 2726 3529 2412 
Q 3360 2099 2998 1907 
Q 2637 1715 2086 1715 
L 1338 1715 
L 1338 0 
L 442 0 
L 442 4467 
L 2086 4467 
Q 2605 4467 2969 4288 
Q 3334 4109 3516 3795 
Q 3699 3482 3699 3085 
z
M 2048 2438 
Q 2419 2438 2598 2608 
Q 2778 2778 2778 3085 
Q 2778 3738 2048 3738 
L 1338 3738 
L 1338 2438 
L 2048 2438 
z
" transform="scale(0.015625)"/>
      <path id="Poppins-SemiBold-63" d="M 211 1773 
Q 211 2323 435 2736 
Q 659 3149 1056 3376 
Q 1453 3603 1965 3603 
Q 2624 3603 3056 3273 
Q 3488 2944 3635 2349 
L 2669 2349 
Q 2592 2579 2409 2710 
Q 2227 2842 1958 2842 
Q 1574 2842 1350 2563 
Q 1126 2285 1126 1773 
Q 1126 1267 1350 988 
Q 1574 710 1958 710 
Q 2502 710 2669 1197 
L 3635 1197 
Q 3488 621 3053 281 
Q 2618 -58 1965 -58 
Q 1453 -58 1056 169 
Q 659 397 435 809 
Q 211 1222 211 1773 
z
" transform="scale(0.015625)"/>
      <path id="Poppins-SemiBold-68" d="M 2438 3597 
Q 2842 3597 3155 3421 
Q 3469 3245 3645 2902 
Q 3821 2560 3821 2080 
L 3821 0 
L 2925 0 
L 2925 1958 
Q 2925 2381 2713 2608 
Q 2502 2835 2138 2835 
Q 1766 2835 1552 2608 
Q 1338 2381 1338 1958 
L 1338 0 
L 442 0 
L 442 4736 
L 1338 4736 
L 1338 3104 
Q 1510 3334 1798 3465 
Q 2086 3597 2438 3597 
z
" transform="scale(0.015625)"/>
     </defs>
     <use xlink:href="#Poppins-SemiBold-41"/>
     <use xlink:href="#Poppins-SemiBold-76" transform="translate(71.599991 0)"/>
     <use xlink:href="#Poppins-SemiBold-65" transform="translate(131.499985 0)"/>
     <use xlink:href="#Poppins-SemiBold-72" transform="translate(193.199982 0)"/>
     <use xlink:href="#Poppins-SemiBold-61" transform="translate(233.599976 0)"/>
     <use xlink:href="#Poppins-SemiBold-67" transform="translate(301.399963 0)"/>
     <use xlink:href="#Poppins-SemiBold-65" transform="translate(369.199951 0)"/>
     <use xlink:href="#Poppins-SemiBold-20" transform="translate(430.899948 0)"/>
     <use xlink:href="#Poppins-SemiBold-44" transform="translate(454.699936 0)"/>
     <use xlink:href="#Poppins-SemiBold-61" transform="translate(526.399918 0)"/>
     <use xlink:href="#Poppins-SemiBold-79" transform="translate(594.199905 0)"/>
     <use xlink:href="#Poppins-SemiBold-73" transform="translate(654.69989 0)"/>
     <use xlink:href="#Poppins-SemiBold-20" transform="translate(709.199875 0)"/>
     <use xlink:href="#Poppins-SemiBold-42" transform="translate(732.999863 0)"/>
     <use xlink:href="#Poppins-SemiBold-65" transform="translate(797.29985 0)"/>
     <use xlink:href="#Poppins-SemiBold-74" transform="translate(858.999847 0)"/>
     <use xlink:href="#Poppins-SemiBold-77" transform="translate(897.799835 0)"/>
     <use xlink:href="#Poppins-SemiBold-65" transform="translate(982.199829 0)"/>
     <use xlink:href="#Poppins-SemiBold-65" transform="translate(1043.899826 0)"/>
     <use xlink:href="#Poppins-SemiBold-6e" transform="translate(1105.599823 0)"/>
     <use xlink:href="#Poppins-SemiBold-20" transform="translate(1171.699814 0)"/>
     <use xlink:href="#Poppins-SemiBold-43" transform="translate(1195.499802 0)"/>
     <use xlink:href="#Poppins-SemiBold-75" transform="translate(1272.299789 0)"/>
     <use xlink:href="#Poppins-SemiBold-73" transform="translate(1338.39978 0)"/>
     <use xlink:href="#Poppins-SemiBold-74" transform="translate(1392.899765 0)"/>
     <use xlink:href="#Poppins-SemiBold-6f" transform="translate(1431.699753 0)"/>
     <use xlink:href="#Poppins-SemiBold-6d" transform="translate(1495.499741 0)"/>
     <use xlink:href="#Poppins-SemiBold-65" transform="translate(1600.299728 0)"/>
     <use xlink:href="#Poppins-SemiBold-72" transform="translate(1661.999725 0)"/>
     <use xlink:href="#Poppins-SemiBold-20" transform="translate(1702.399719 0)"/>
     <use xlink:href="#Poppins-SemiBold-50" transform="translate(1726.199707 0)"/>
     <use xlink:href="#Poppins-SemiBold-75" transform="translate(1786.999695 0)"/>
     <use xlink:href="#Poppins-SemiBold-72" transform="translate(1853.099686 0)"/>
     <use xlink:href="#Poppins-SemiBold-63" transform="translate(1893.49968 0)"/>
     <use xlink:href="#Poppins-SemiBold-68" transform="translate(1953.699677 0)"/>
     <use xlink:href="#Poppins-SemiBold-61" transform="translate(2019.799667 0)"/>
     <use xlink:href="#Poppins-SemiBold-73" transform="translate(2087.599655 0)"/>
     <use xlink:href="#Poppins-SemiBold-65" transform="translate(2142.09964 0)"/>
     <use xlink:href="#Poppins-SemiBold-73" transform="translate(2203.799637 0)"/>
    </g>
   </g>
  </g>
 </g>
 <defs>
  <clipPath id="p9b0e32e367">
   <rect x="58.239063" y="32" width="558" height="277.2"/>
  </clipPath>
 </defs>
</svg>
