<?xml version="1.0" encoding="utf-8" standalone="no"?>
<!DOCTYPE svg PUBLIC "-//W3C//DTD SVG 1.1//EN"
  "http://www.w3.org/Graphics/SVG/1.1/DTD/svg11.dtd">
<svg xmlns:xlink="http://www.w3.org/1999/xlink" width="422.559062pt" height="370.552pt" viewBox="0 0 422.559062 370.552" xmlns="http://www.w3.org/2000/svg" version="1.1">
 <metadata>
  <rdf:RDF xmlns:dc="http://purl.org/dc/elements/1.1/" xmlns:cc="http://creativecommons.org/ns#" xmlns:rdf="http://www.w3.org/1999/02/22-rdf-syntax-ns#">
   <cc:Work>
    <dc:type rdf:resource="http://purl.org/dc/dcmitype/StillImage"/>
    <dc:date>2026-05-05T18:53:38.857224</dc:date>
    <dc:format>image/svg+xml</dc:format>
    <dc:creator>
     <cc:Agent>
      <dc:title>Matplotlib v3.10.8, https://matplotlib.org/</dc:title>
     </cc:Agent>
    </dc:creator>
   </cc:Work>
  </rdf:RDF>
 </metadata>
 <defs>
  <style type="text/css">*{stroke-linejoin: round; stroke-linecap: butt}</style>
 </defs>
 <g id="figure_1">
  <g id="patch_1">
   <path d="M 0 370.552
L 422.559062 370.552
L 422.559062 -0
L 0 -0
z
" style="fill: #ffffff"/>
  </g>
  <g id="axes_1">
   <g id="patch_2">
    <path d="M 58.239063 298.112
L 415.359063 298.112
L 415.359063 32
L 58.239063 32
z
" style="fill: #ffffff"/>
   </g>
   <g id="matplotlib.axis_1">
    <g id="xtick_1">
     <g id="line2d_1">
      <path d="M 99.445216 298.112
L 99.445216 32
" clip-path="url(#p180e9e8f39)" style="fill: none; stroke: #dad8d7; stroke-opacity: 0.5; stroke-width: 0.8; stroke-linecap: square"/>
     </g>
     <g id="line2d_2">
      <defs>
       <path id="m12f8bbd546" d="M 0 0
L 0 3.5
" style="stroke: #000000; stroke-width: 0.8"/>
      </defs>
      <g>
       <use xlink:href="#m12f8bbd546" x="99.445216" y="298.112" style="stroke: #000000; stroke-width: 0.8"/>
      </g>
     </g>
     <g id="text_1">
      <!-- 2 -->
      <g transform="translate(96.570216 312.512) scale(0.1 -0.1)">
       <defs>
        <path id="Poppins-Regular-32" d="M 326 467
Q 1139 1120 1600 1539
Q 2061 1958 2377 2416
Q 2694 2874 2694 3315
Q 2694 3731 2492 3971
Q 2291 4211 1843 4211
Q 1408 4211 1168 3939
Q 928 3667 909 3213
L 346 3213
Q 371 3930 780 4320
Q 1190 4710 1837 4710
Q 2496 4710 2883 4345
Q 3270 3981 3270 3341
Q 3270 2810 2953 2307
Q 2637 1805 2233 1424
Q 1830 1043 1203 538
L 3405 538
L 3405 51
L 326 51
L 326 467
z
" transform="scale(0.015625)"/>
       </defs>
       <use xlink:href="#Poppins-Regular-32"/>
      </g>
     </g>
    </g>
    <g id="xtick_2">
     <g id="line2d_3">
      <path d="M 149.392069 298.112
L 149.392069 32
" clip-path="url(#p180e9e8f39)" style="fill: none; stroke: #dad8d7; stroke-opacity: 0.5; stroke-width: 0.8; stroke-linecap: square"/>
     </g>
     <g id="line2d_4">
      <g>
       <use xlink:href="#m12f8bbd546" x="149.392069" y="298.112" style="stroke: #000000; stroke-width: 0.8"/>
      </g>
     </g>
     <g id="text_2">
      <!-- 4 -->
      <g transform="translate(146.246757 312.512) scale(0.1 -0.1)">
       <defs>
        <path id="Poppins-Regular-34" d="M 256 1030
L 256 1472
L 2502 4582
L 3200 4582
L 3200 1536
L 3840 1536
L 3840 1030
L 3200 1030
L 3200 0
L 2624 0
L 2624 1030
L 256 1030
z
M 2650 3974
L 928 1536
L 2650 1536
L 2650 3974
z
" transform="scale(0.015625)"/>
       </defs>
       <use xlink:href="#Poppins-Regular-34"/>
      </g>
     </g>
    </g>
    <g id="xtick_3">
     <g id="line2d_5">
      <path d="M 199.338923 298.112
L 199.338923 32
" clip-path="url(#p180e9e8f39)" style="fill: none; stroke: #dad8d7; stroke-opacity: 0.5; stroke-width: 0.8; stroke-linecap: square"/>
     </g>
     <g id="line2d_6">
      <g>
       <use xlink:href="#m12f8bbd546" x="199.338923" y="298.112" style="stroke: #000000; stroke-width: 0.8"/>
      </g>
     </g>
     <g id="text_3">
      <!-- 6 -->
      <g transform="translate(196.163923 312.512) scale(0.1 -0.1)">
       <defs>
        <path id="Poppins-Regular-36" d="M 2976 3526
Q 2835 4237 2099 4237
Q 1530 4237 1248 3798
Q 966 3360 973 2355
Q 1120 2688 1462 2877
Q 1805 3066 2227 3066
Q 2886 3066 3280 2656
Q 3674 2246 3674 1523
Q 3674 1088 3504 742
Q 3334 397 2992 192
Q 2650 -13 2163 -13
Q 1504 -13 1133 281
Q 762 576 614 1094
Q 467 1613 467 2374
Q 467 4723 2106 4723
Q 2733 4723 3091 4384
Q 3450 4045 3514 3526
L 2976 3526
z
M 2106 2573
Q 1830 2573 1587 2461
Q 1344 2349 1193 2121
Q 1043 1894 1043 1568
Q 1043 1082 1324 778
Q 1606 474 2131 474
Q 2579 474 2844 752
Q 3110 1030 3110 1504
Q 3110 2003 2854 2288
Q 2598 2573 2106 2573
z
" transform="scale(0.015625)"/>
       </defs>
       <use xlink:href="#Poppins-Regular-36"/>
      </g>
     </g>
    </g>
    <g id="xtick_4">
     <g id="line2d_7">
      <path d="M 249.285776 298.112
L 249.285776 32
" clip-path="url(#p180e9e8f39)" style="fill: none; stroke: #dad8d7; stroke-opacity: 0.5; stroke-width: 0.8; stroke-linecap: square"/>
     </g>
     <g id="line2d_8">
      <g>
       <use xlink:href="#m12f8bbd546" x="249.285776" y="298.112" style="stroke: #000000; stroke-width: 0.8"/>
      </g>
     </g>
     <g id="text_4">
      <!-- 8 -->
      <g transform="translate(246.131088 312.512) scale(0.1 -0.1)">
       <defs>
        <path id="Poppins-Regular-38" d="M 1242 2406
Q 883 2547 691 2816
Q 499 3085 499 3469
Q 499 3814 672 4092
Q 845 4371 1187 4534
Q 1530 4698 2016 4698
Q 2502 4698 2844 4534
Q 3187 4371 3363 4092
Q 3539 3814 3539 3469
Q 3539 3098 3340 2819
Q 3142 2541 2797 2406
Q 3194 2285 3427 1981
Q 3661 1677 3661 1248
Q 3661 832 3456 521
Q 3251 211 2876 41
Q 2502 -128 2016 -128
Q 1530 -128 1162 41
Q 794 211 589 521
Q 384 832 384 1248
Q 384 1677 614 1984
Q 845 2291 1242 2406
z
M 2976 3398
Q 2976 3789 2720 4000
Q 2464 4211 2016 4211
Q 1574 4211 1318 4000
Q 1062 3789 1062 3392
Q 1062 3034 1328 2816
Q 1594 2598 2016 2598
Q 2445 2598 2710 2819
Q 2976 3040 2976 3398
z
M 2016 2150
Q 1542 2150 1241 1929
Q 941 1709 941 1267
Q 941 858 1232 608
Q 1523 358 2016 358
Q 2509 358 2797 608
Q 3085 858 3085 1267
Q 3085 1696 2790 1923
Q 2496 2150 2016 2150
z
" transform="scale(0.015625)"/>
       </defs>
       <use xlink:href="#Poppins-Regular-38"/>
      </g>
     </g>
    </g>
    <g id="xtick_5">
     <g id="line2d_9">
      <path d="M 299.232629 298.112
L 299.232629 32
" clip-path="url(#p180e9e8f39)" style="fill: none; stroke: #dad8d7; stroke-opacity: 0.5; stroke-width: 0.8; stroke-linecap: square"/>
     </g>
     <g id="line2d_10">
      <g>
       <use xlink:href="#m12f8bbd546" x="299.232629" y="298.112" style="stroke: #000000; stroke-width: 0.8"/>
      </g>
     </g>
     <g id="text_5">
      <!-- 10 -->
      <g transform="translate(294.492785 312.512) scale(0.1 -0.1)">
       <defs>
        <path id="Poppins-Regular-31" d="M 243 4096
L 243 4627
L 1446 4627
L 1446 0
L 858 0
L 858 4096
L 243 4096
z
" transform="scale(0.015625)"/>
        <path id="Poppins-Regular-30" d="M 397 2362
Q 397 3462 755 4080
Q 1114 4698 2010 4698
Q 2899 4698 3257 4080
Q 3616 3462 3616 2362
Q 3616 1242 3257 621
Q 2899 0 2010 0
Q 1114 0 755 621
Q 397 1242 397 2362
z
M 3040 2362
Q 3040 2918 2966 3305
Q 2893 3693 2665 3929
Q 2438 4166 2010 4166
Q 1574 4166 1347 3929
Q 1120 3693 1046 3305
Q 973 2918 973 2362
Q 973 1786 1046 1395
Q 1120 1005 1347 768
Q 1574 531 2010 531
Q 2438 531 2665 768
Q 2893 1005 2966 1395
Q 3040 1786 3040 2362
z
" transform="scale(0.015625)"/>
       </defs>
       <use xlink:href="#Poppins-Regular-31"/>
       <use xlink:href="#Poppins-Regular-30" transform="translate(31.999985 0)"/>
      </g>
     </g>
    </g>
    <g id="xtick_6">
     <g id="line2d_11">
      <path d="M 349.179482 298.112
L 349.179482 32
" clip-path="url(#p180e9e8f39)" style="fill: none; stroke: #dad8d7; stroke-opacity: 0.5; stroke-width: 0.8; stroke-linecap: square"/>
     </g>
     <g id="line2d_12">
      <g>
       <use xlink:href="#m12f8bbd546" x="349.179482" y="298.112" style="stroke: #000000; stroke-width: 0.8"/>
      </g>
     </g>
     <g id="text_6">
      <!-- 12 -->
      <g transform="translate(344.704482 312.512) scale(0.1 -0.1)">
       <use xlink:href="#Poppins-Regular-31"/>
       <use xlink:href="#Poppins-Regular-32" transform="translate(31.999985 0)"/>
      </g>
     </g>
    </g>
    <g id="xtick_7">
     <g id="line2d_13">
      <path d="M 399.126335 298.112
L 399.126335 32
" clip-path="url(#p180e9e8f39)" style="fill: none; stroke: #dad8d7; stroke-opacity: 0.5; stroke-width: 0.8; stroke-linecap: square"/>
     </g>
     <g id="line2d_14">
      <g>
       <use xlink:href="#m12f8bbd546" x="399.126335" y="298.112" style="stroke: #000000; stroke-width: 0.8"/>
      </g>
     </g>
     <g id="text_7">
      <!-- 14 -->
      <g transform="translate(394.381023 312.512) scale(0.1 -0.1)">
       <use xlink:href="#Poppins-Regular-31"/>
       <use xlink:href="#Poppins-Regular-34" transform="translate(31.999985 0)"/>
      </g>
     </g>
    </g>
    <g id="text_8">
     <!-- Number of purchases -->
     <g transform="translate(171.873438 334.28075) scale(0.12 -0.12)">
      <defs>
       <path id="Poppins-Regular-4e" d="M 4000 0
L 3418 0
L 1075 3552
L 1075 0
L 493 0
L 493 4467
L 1075 4467
L 3418 922
L 3418 4467
L 4000 4467
L 4000 0
z
" transform="scale(0.015625)"/>
       <path id="Poppins-Regular-75" d="M 3603 3507
L 3603 0
L 3021 0
L 3021 518
Q 2854 250 2556 99
Q 2259 -51 1901 -51
Q 1491 -51 1164 118
Q 838 288 649 627
Q 461 966 461 1453
L 461 3507
L 1037 3507
L 1037 1530
Q 1037 1011 1299 732
Q 1562 454 2016 454
Q 2483 454 2752 742
Q 3021 1030 3021 1581
L 3021 3507
L 3603 3507
z
" transform="scale(0.015625)"/>
       <path id="Poppins-Regular-6d" d="M 4710 3571
Q 5120 3571 5440 3401
Q 5760 3232 5945 2893
Q 6131 2554 6131 2067
L 6131 0
L 5555 0
L 5555 1984
Q 5555 2509 5296 2787
Q 5037 3066 4595 3066
Q 4141 3066 3872 2774
Q 3603 2483 3603 1933
L 3603 0
L 3027 0
L 3027 1984
Q 3027 2509 2768 2787
Q 2509 3066 2067 3066
Q 1613 3066 1344 2774
Q 1075 2483 1075 1933
L 1075 0
L 493 0
L 493 3507
L 1075 3507
L 1075 3002
Q 1248 3277 1539 3424
Q 1830 3571 2182 3571
Q 2624 3571 2963 3372
Q 3302 3174 3469 2790
Q 3616 3162 3955 3366
Q 4294 3571 4710 3571
z
" transform="scale(0.015625)"/>
       <path id="Poppins-Regular-62" d="M 1075 2854
Q 1254 3168 1600 3366
Q 1946 3565 2387 3565
Q 2861 3565 3238 3341
Q 3616 3117 3833 2710
Q 4051 2304 4051 1766
Q 4051 1235 3833 819
Q 3616 403 3235 172
Q 2854 -58 2387 -58
Q 1933 -58 1590 140
Q 1248 339 1075 646
L 1075 0
L 493 0
L 493 4736
L 1075 4736
L 1075 2854
z
M 3456 1766
Q 3456 2163 3296 2457
Q 3136 2752 2864 2905
Q 2592 3059 2266 3059
Q 1946 3059 1674 2902
Q 1402 2746 1238 2448
Q 1075 2150 1075 1760
Q 1075 1363 1238 1065
Q 1402 768 1674 611
Q 1946 454 2266 454
Q 2592 454 2864 611
Q 3136 768 3296 1065
Q 3456 1363 3456 1766
z
" transform="scale(0.015625)"/>
       <path id="Poppins-Regular-65" d="M 3693 1888
Q 3693 1722 3674 1536
L 870 1536
Q 902 1018 1225 726
Q 1549 435 2010 435
Q 2387 435 2640 611
Q 2893 787 2995 1082
L 3622 1082
Q 3482 576 3059 259
Q 2637 -58 2010 -58
Q 1510 -58 1116 166
Q 723 390 499 803
Q 275 1216 275 1760
Q 275 2304 492 2713
Q 710 3123 1104 3344
Q 1498 3565 2010 3565
Q 2509 3565 2893 3347
Q 3277 3130 3485 2749
Q 3693 2368 3693 1888
z
M 3091 2010
Q 3091 2342 2944 2582
Q 2797 2822 2544 2947
Q 2291 3072 1984 3072
Q 1542 3072 1232 2790
Q 922 2509 877 2010
L 3091 2010
z
" transform="scale(0.015625)"/>
       <path id="Poppins-Regular-72" d="M 1075 2938
Q 1229 3238 1513 3404
Q 1798 3571 2208 3571
L 2208 2970
L 2054 2970
Q 1075 2970 1075 1907
L 1075 0
L 493 0
L 493 3507
L 1075 3507
L 1075 2938
z
" transform="scale(0.015625)"/>
       <path id="Poppins-Regular-20" transform="scale(0.015625)"/>
       <path id="Poppins-Regular-6f" d="M 2022 -58
Q 1530 -58 1130 166
Q 730 390 502 803
Q 275 1216 275 1760
Q 275 2298 508 2710
Q 742 3123 1145 3344
Q 1549 3565 2048 3565
Q 2547 3565 2950 3344
Q 3354 3123 3587 2713
Q 3821 2304 3821 1760
Q 3821 1216 3581 803
Q 3341 390 2931 166
Q 2522 -58 2022 -58
z
M 2022 454
Q 2336 454 2611 601
Q 2886 749 3056 1043
Q 3226 1338 3226 1760
Q 3226 2182 3059 2476
Q 2893 2771 2624 2915
Q 2355 3059 2042 3059
Q 1722 3059 1456 2915
Q 1190 2771 1030 2476
Q 870 2182 870 1760
Q 870 1331 1027 1036
Q 1184 742 1446 598
Q 1709 454 2022 454
z
" transform="scale(0.015625)"/>
       <path id="Poppins-Regular-66" d="M 1920 3027
L 1184 3027
L 1184 0
L 602 0
L 602 3027
L 147 3027
L 147 3507
L 602 3507
L 602 3757
Q 602 4346 906 4618
Q 1210 4890 1882 4890
L 1882 4403
Q 1498 4403 1341 4252
Q 1184 4102 1184 3757
L 1184 3507
L 1920 3507
L 1920 3027
z
" transform="scale(0.015625)"/>
       <path id="Poppins-Regular-70" d="M 1075 2861
Q 1248 3162 1590 3363
Q 1933 3565 2387 3565
Q 2854 3565 3235 3341
Q 3616 3117 3833 2710
Q 4051 2304 4051 1766
Q 4051 1235 3833 819
Q 3616 403 3235 172
Q 2854 -58 2387 -58
Q 1939 -58 1596 144
Q 1254 346 1075 646
L 1075 -1664
L 493 -1664
L 493 3507
L 1075 3507
L 1075 2861
z
M 3456 1766
Q 3456 2163 3296 2457
Q 3136 2752 2864 2905
Q 2592 3059 2266 3059
Q 1946 3059 1674 2902
Q 1402 2746 1238 2448
Q 1075 2150 1075 1760
Q 1075 1363 1238 1065
Q 1402 768 1674 611
Q 1946 454 2266 454
Q 2592 454 2864 611
Q 3136 768 3296 1065
Q 3456 1363 3456 1766
z
" transform="scale(0.015625)"/>
       <path id="Poppins-Regular-63" d="M 275 1760
Q 275 2304 492 2710
Q 710 3117 1097 3341
Q 1485 3565 1984 3565
Q 2630 3565 3049 3251
Q 3469 2938 3603 2381
L 2976 2381
Q 2886 2701 2627 2886
Q 2368 3072 1984 3072
Q 1485 3072 1177 2729
Q 870 2387 870 1760
Q 870 1126 1177 780
Q 1485 435 1984 435
Q 2368 435 2624 614
Q 2880 794 2976 1126
L 3603 1126
Q 3462 589 3040 265
Q 2618 -58 1984 -58
Q 1485 -58 1097 166
Q 710 390 492 800
Q 275 1210 275 1760
z
" transform="scale(0.015625)"/>
       <path id="Poppins-Regular-68" d="M 2234 3571
Q 2630 3571 2950 3401
Q 3270 3232 3452 2893
Q 3635 2554 3635 2067
L 3635 0
L 3059 0
L 3059 1984
Q 3059 2509 2796 2787
Q 2534 3066 2080 3066
Q 1619 3066 1347 2778
Q 1075 2490 1075 1939
L 1075 0
L 493 0
L 493 4736
L 1075 4736
L 1075 3008
Q 1248 3277 1552 3424
Q 1856 3571 2234 3571
z
" transform="scale(0.015625)"/>
       <path id="Poppins-Regular-61" d="M 275 1766
Q 275 2304 492 2710
Q 710 3117 1091 3341
Q 1472 3565 1939 3565
Q 2400 3565 2739 3366
Q 3078 3168 3245 2867
L 3245 3507
L 3834 3507
L 3834 0
L 3245 0
L 3245 653
Q 3072 346 2729 144
Q 2387 -58 1933 -58
Q 1466 -58 1088 172
Q 710 403 492 819
Q 275 1235 275 1766
z
M 3245 1760
Q 3245 2157 3085 2451
Q 2925 2746 2653 2902
Q 2381 3059 2054 3059
Q 1728 3059 1459 2905
Q 1190 2752 1030 2457
Q 870 2163 870 1766
Q 870 1363 1030 1065
Q 1190 768 1459 611
Q 1728 454 2054 454
Q 2381 454 2653 611
Q 2925 768 3085 1065
Q 3245 1363 3245 1760
z
" transform="scale(0.015625)"/>
       <path id="Poppins-Regular-73" d="M 1734 -58
Q 1331 -58 1011 80
Q 691 218 505 464
Q 320 710 301 1030
L 902 1030
Q 928 768 1149 601
Q 1370 435 1728 435
Q 2061 435 2253 582
Q 2445 730 2445 954
Q 2445 1184 2240 1296
Q 2035 1408 1606 1517
Q 1216 1619 969 1724
Q 723 1830 547 2038
Q 371 2246 371 2586
Q 371 2854 531 3078
Q 691 3302 985 3433
Q 1280 3565 1658 3565
Q 2240 3565 2598 3270
Q 2957 2976 2982 2464
L 2400 2464
Q 2381 2739 2179 2905
Q 1978 3072 1638 3072
Q 1325 3072 1139 2937
Q 954 2803 954 2586
Q 954 2413 1066 2301
Q 1178 2189 1347 2121
Q 1517 2054 1818 1971
Q 2195 1869 2432 1769
Q 2669 1670 2838 1472
Q 3008 1274 3014 954
Q 3014 666 2854 435
Q 2694 205 2403 73
Q 2112 -58 1734 -58
z
" transform="scale(0.015625)"/>
      </defs>
      <use xlink:href="#Poppins-Regular-4e"/>
      <use xlink:href="#Poppins-Regular-75" transform="translate(70.299988 0)"/>
      <use xlink:href="#Poppins-Regular-6d" transform="translate(134.299973 0)"/>
      <use xlink:href="#Poppins-Regular-62" transform="translate(237.299957 0)"/>
      <use xlink:href="#Poppins-Regular-65" transform="translate(304.899948 0)"/>
      <use xlink:href="#Poppins-Regular-72" transform="translate(366.899933 0)"/>
      <use xlink:href="#Poppins-Regular-20" transform="translate(404.199921 0)"/>
      <use xlink:href="#Poppins-Regular-6f" transform="translate(430.899918 0)"/>
      <use xlink:href="#Poppins-Regular-66" transform="translate(494.899902 0)"/>
      <use xlink:href="#Poppins-Regular-20" transform="translate(527.799896 0)"/>
      <use xlink:href="#Poppins-Regular-70" transform="translate(554.499893 0)"/>
      <use xlink:href="#Poppins-Regular-75" transform="translate(622.099884 0)"/>
      <use xlink:href="#Poppins-Regular-72" transform="translate(686.099869 0)"/>
      <use xlink:href="#Poppins-Regular-63" transform="translate(723.399857 0)"/>
      <use xlink:href="#Poppins-Regular-68" transform="translate(784.099854 0)"/>
      <use xlink:href="#Poppins-Regular-61" transform="translate(848.099838 0)"/>
      <use xlink:href="#Poppins-Regular-73" transform="translate(915.699829 0)"/>
      <use xlink:href="#Poppins-Regular-65" transform="translate(967.899826 0)"/>
      <use xlink:href="#Poppins-Regular-73" transform="translate(1029.899811 0)"/>
     </g>
    </g>
   </g>
   <g id="matplotlib.axis_2">
    <g id="ytick_1">
     <g id="line2d_15">
      <path d="M 58.239063 298.112
L 415.359063 298.112
" clip-path="url(#p180e9e8f39)" style="fill: none; stroke: #dad8d7; stroke-opacity: 0.5; stroke-width: 0.8; stroke-linecap: square"/>
     </g>
     <g id="line2d_16">
      <defs>
       <path id="m7a57355d6d" d="M 0 0
L -3.5 0
" style="stroke: #000000; stroke-width: 0.8"/>
      </defs>
      <g>
       <use xlink:href="#m7a57355d6d" x="58.239063" y="298.112" style="stroke: #000000; stroke-width: 0.8"/>
      </g>
     </g>
     <g id="text_9">
      <!-- 0 -->
      <g transform="translate(44.959375 301.812) scale(0.1 -0.1)">
       <use xlink:href="#Poppins-Regular-30"/>
      </g>
     </g>
    </g>
    <g id="ytick_2">
     <g id="line2d_17">
      <path d="M 58.239063 249.27963
L 415.359063 249.27963
" clip-path="url(#p180e9e8f39)" style="fill: none; stroke: #dad8d7; stroke-opacity: 0.5; stroke-width: 0.8; stroke-linecap: square"/>
     </g>
     <g id="line2d_18">
      <g>
       <use xlink:href="#m7a57355d6d" x="58.239063" y="249.27963" style="stroke: #000000; stroke-width: 0.8"/>
      </g>
     </g>
     <g id="text_10">
      <!-- 200 -->
      <g transform="translate(32.929688 252.97963) scale(0.1 -0.1)">
       <use xlink:href="#Poppins-Regular-32"/>
       <use xlink:href="#Poppins-Regular-30" transform="translate(57.499985 0)"/>
       <use xlink:href="#Poppins-Regular-30" transform="translate(120.299973 0)"/>
      </g>
     </g>
    </g>
    <g id="ytick_3">
     <g id="line2d_19">
      <path d="M 58.239063 200.44726
L 415.359063 200.44726
" clip-path="url(#p180e9e8f39)" style="fill: none; stroke: #dad8d7; stroke-opacity: 0.5; stroke-width: 0.8; stroke-linecap: square"/>
     </g>
     <g id="line2d_20">
      <g>
       <use xlink:href="#m7a57355d6d" x="58.239063" y="200.44726" style="stroke: #000000; stroke-width: 0.8"/>
      </g>
     </g>
     <g id="text_11">
      <!-- 400 -->
      <g transform="translate(32.389063 204.14726) scale(0.1 -0.1)">
       <use xlink:href="#Poppins-Regular-34"/>
       <use xlink:href="#Poppins-Regular-30" transform="translate(62.899994 0)"/>
       <use xlink:href="#Poppins-Regular-30" transform="translate(125.699982 0)"/>
      </g>
     </g>
    </g>
    <g id="ytick_4">
     <g id="line2d_21">
      <path d="M 58.239063 151.61489
L 415.359063 151.61489
" clip-path="url(#p180e9e8f39)" style="fill: none; stroke: #dad8d7; stroke-opacity: 0.5; stroke-width: 0.8; stroke-linecap: square"/>
     </g>
     <g id="line2d_22">
      <g>
       <use xlink:href="#m7a57355d6d" x="58.239063" y="151.61489" style="stroke: #000000; stroke-width: 0.8"/>
      </g>
     </g>
     <g id="text_12">
      <!-- 600 -->
      <g transform="translate(32.329688 155.31489) scale(0.1 -0.1)">
       <use xlink:href="#Poppins-Regular-36"/>
       <use xlink:href="#Poppins-Regular-30" transform="translate(63.499985 0)"/>
       <use xlink:href="#Poppins-Regular-30" transform="translate(126.299973 0)"/>
      </g>
     </g>
    </g>
    <g id="ytick_5">
     <g id="line2d_23">
      <path d="M 58.239063 102.78252
L 415.359063 102.78252
" clip-path="url(#p180e9e8f39)" style="fill: none; stroke: #dad8d7; stroke-opacity: 0.5; stroke-width: 0.8; stroke-linecap: square"/>
     </g>
     <g id="line2d_24">
      <g>
       <use xlink:href="#m7a57355d6d" x="58.239063" y="102.78252" style="stroke: #000000; stroke-width: 0.8"/>
      </g>
     </g>
     <g id="text_13">
      <!-- 800 -->
      <g transform="translate(32.370312 106.48252) scale(0.1 -0.1)">
       <use xlink:href="#Poppins-Regular-38"/>
       <use xlink:href="#Poppins-Regular-30" transform="translate(63.099991 0)"/>
       <use xlink:href="#Poppins-Regular-30" transform="translate(125.899979 0)"/>
      </g>
     </g>
    </g>
    <g id="ytick_6">
     <g id="line2d_25">
      <path d="M 58.239063 53.95015
L 415.359063 53.95015
" clip-path="url(#p180e9e8f39)" style="fill: none; stroke: #dad8d7; stroke-opacity: 0.5; stroke-width: 0.8; stroke-linecap: square"/>
     </g>
     <g id="line2d_26">
      <g>
       <use xlink:href="#m7a57355d6d" x="58.239063" y="53.95015" style="stroke: #000000; stroke-width: 0.8"/>
      </g>
     </g>
     <g id="text_14">
      <!-- 1000 -->
      <g transform="translate(29.2 57.65015) scale(0.1 -0.1)">
       <use xlink:href="#Poppins-Regular-31"/>
       <use xlink:href="#Poppins-Regular-30" transform="translate(31.999985 0)"/>
       <use xlink:href="#Poppins-Regular-30" transform="translate(94.799973 0)"/>
       <use xlink:href="#Poppins-Regular-30" transform="translate(157.59996 0)"/>
      </g>
     </g>
    </g>
    <g id="text_15">
     <!-- Number of customers -->
     <g transform="translate(16.08 230.23475) rotate(-90) scale(0.12 -0.12)">
      <defs>
       <path id="Poppins-Regular-74" d="M 1203 3027
L 1203 960
Q 1203 704 1312 598
Q 1421 493 1690 493
L 2118 493
L 2118 0
L 1594 0
Q 1107 0 864 224
Q 621 448 621 960
L 621 3027
L 166 3027
L 166 3507
L 621 3507
L 621 4390
L 1203 4390
L 1203 3507
L 2118 3507
L 2118 3027
L 1203 3027
z
" transform="scale(0.015625)"/>
      </defs>
      <use xlink:href="#Poppins-Regular-4e"/>
      <use xlink:href="#Poppins-Regular-75" transform="translate(70.299988 0)"/>
      <use xlink:href="#Poppins-Regular-6d" transform="translate(134.299973 0)"/>
      <use xlink:href="#Poppins-Regular-62" transform="translate(237.299957 0)"/>
      <use xlink:href="#Poppins-Regular-65" transform="translate(304.899948 0)"/>
      <use xlink:href="#Poppins-Regular-72" transform="translate(366.899933 0)"/>
      <use xlink:href="#Poppins-Regular-20" transform="translate(404.199921 0)"/>
      <use xlink:href="#Poppins-Regular-6f" transform="translate(430.899918 0)"/>
      <use xlink:href="#Poppins-Regular-66" transform="translate(494.899902 0)"/>
      <use xlink:href="#Poppins-Regular-20" transform="translate(527.799896 0)"/>
      <use xlink:href="#Poppins-Regular-63" transform="translate(554.499893 0)"/>
      <use xlink:href="#Poppins-Regular-75" transform="translate(615.19989 0)"/>
      <use xlink:href="#Poppins-Regular-73" transform="translate(679.199875 0)"/>
      <use xlink:href="#Poppins-Regular-74" transform="translate(731.399872 0)"/>
      <use xlink:href="#Poppins-Regular-6f" transform="translate(767.799866 0)"/>
      <use xlink:href="#Poppins-Regular-6d" transform="translate(831.79985 0)"/>
      <use xlink:href="#Poppins-Regular-65" transform="translate(934.799835 0)"/>
      <use xlink:href="#Poppins-Regular-72" transform="translate(996.79982 0)"/>
      <use xlink:href="#Poppins-Regular-73" transform="translate(1034.099808 0)"/>
     </g>
    </g>
   </g>
   <g id="patch_3">
    <path d="M 74.47179 298.112
L 106.937244 298.112
L 106.937244 44.672
L 74.47179 44.672
z
" clip-path="url(#p180e9e8f39)" style="fill: #22c55e"/>
   </g>
   <g id="patch_4">
    <path d="M 106.937244 298.112
L 139.402699 298.112
L 139.402699 192.389919
L 106.937244 192.389919
z
" clip-path="url(#p180e9e8f39)" style="fill: #22c55e"/>
   </g>
   <g id="patch_5">
    <path d="M 139.402699 298.112
L 171.868153 298.112
L 171.868153 202.888879
L 139.402699 202.888879
z
" clip-path="url(#p180e9e8f39)" style="fill: #22c55e"/>
   </g>
   <g id="patch_6">
    <path d="M 171.868153 298.112
L 204.333608 298.112
L 204.333608 138.43015
L 171.868153 138.43015
z
" clip-path="url(#p180e9e8f39)" style="fill: #22c55e"/>
   </g>
   <g id="patch_7">
    <path d="M 204.333608 298.112
L 236.799063 298.112
L 236.799063 240.00148
L 204.333608 240.00148
z
" clip-path="url(#p180e9e8f39)" style="fill: #22c55e"/>
   </g>
   <g id="patch_8">
    <path d="M 236.799063 298.112
L 269.264517 298.112
L 269.264517 243.908069
L 236.799063 243.908069
z
" clip-path="url(#p180e9e8f39)" style="fill: #22c55e"/>
   </g>
   <g id="patch_9">
    <path d="M 269.264517 298.112
L 301.729972 298.112
L 301.729972 205.330497
L 269.264517 205.330497
z
" clip-path="url(#p180e9e8f39)" style="fill: #22c55e"/>
   </g>
   <g id="patch_10">
    <path d="M 301.729972 298.112
L 334.195426 298.112
L 334.195426 208.748763
L 301.729972 208.748763
z
" clip-path="url(#p180e9e8f39)" style="fill: #22c55e"/>
   </g>
   <g id="patch_11">
    <path d="M 334.195426 298.112
L 366.660881 298.112
L 366.660881 189.704139
L 334.195426 189.704139
z
" clip-path="url(#p180e9e8f39)" style="fill: #22c55e"/>
   </g>
   <g id="patch_12">
    <path d="M 366.660881 298.112
L 399.126335 298.112
L 399.126335 277.358243
L 366.660881 277.358243
z
" clip-path="url(#p180e9e8f39)" style="fill: #22c55e"/>
   </g>
   <g id="line2d_27">
    <path d="M 324.206056 298.112
L 324.206056 32
" clip-path="url(#p180e9e8f39)" style="fill: none; stroke-dasharray: 7.4,3.2; stroke-dashoffset: 0; stroke: #000000; stroke-width: 2"/>
   </g>
   <g id="patch_13">
    <path d="M 58.239063 298.112
L 58.239063 32
" style="fill: none; stroke: #000000; stroke-width: 0.8; stroke-linejoin: miter; stroke-linecap: square"/>
   </g>
   <g id="patch_14">
    <path d="M 58.239063 298.112
L 415.359063 298.112
" style="fill: none; stroke: #000000; stroke-width: 0.8; stroke-linejoin: miter; stroke-linecap: square"/>
   </g>
   <g id="text_16">
    <!-- Purchases per Customer -->
    <g transform="translate(111.150625 22) scale(0.2 -0.2)">
     <defs>
      <path id="Poppins-SemiBold-50" d="M 3699 3085
Q 3699 2726 3529 2412
Q 3360 2099 2998 1907
Q 2637 1715 2086 1715
L 1338 1715
L 1338 0
L 442 0
L 442 4467
L 2086 4467
Q 2605 4467 2969 4288
Q 3334 4109 3516 3795
Q 3699 3482 3699 3085
z
M 2048 2438
Q 2419 2438 2598 2608
Q 2778 2778 2778 3085
Q 2778 3738 2048 3738
L 1338 3738
L 1338 2438
L 2048 2438
z
" transform="scale(0.015625)"/>
      <path id="Poppins-SemiBold-75" d="M 3789 3546
L 3789 0
L 2886 0
L 2886 448
Q 2714 218 2435 86
Q 2157 -45 1830 -45
Q 1414 -45 1094 131
Q 774 307 592 649
Q 410 992 410 1466
L 410 3546
L 1306 3546
L 1306 1594
Q 1306 1171 1517 944
Q 1728 717 2093 717
Q 2464 717 2675 944
Q 2886 1171 2886 1594
L 2886 3546
L 3789 3546
z
" transform="scale(0.015625)"/>
      <path id="Poppins-SemiBold-72" d="M 1338 2995
Q 1510 3277 1788 3437
Q 2067 3597 2426 3597
L 2426 2656
L 2189 2656
Q 1766 2656 1552 2457
Q 1338 2259 1338 1766
L 1338 0
L 442 0
L 442 3546
L 1338 3546
L 1338 2995
z
" transform="scale(0.015625)"/>
      <path id="Poppins-SemiBold-63" d="M 211 1773
Q 211 2323 435 2736
Q 659 3149 1056 3376
Q 1453 3603 1965 3603
Q 2624 3603 3056 3273
Q 3488 2944 3635 2349
L 2669 2349
Q 2592 2579 2409 2710
Q 2227 2842 1958 2842
Q 1574 2842 1350 2563
Q 1126 2285 1126 1773
Q 1126 1267 1350 988
Q 1574 710 1958 710
Q 2502 710 2669 1197
L 3635 1197
Q 3488 621 3053 281
Q 2618 -58 1965 -58
Q 1453 -58 1056 169
Q 659 397 435 809
Q 211 1222 211 1773
z
" transform="scale(0.015625)"/>
      <path id="Poppins-SemiBold-68" d="M 2438 3597
Q 2842 3597 3155 3421
Q 3469 3245 3645 2902
Q 3821 2560 3821 2080
L 3821 0
L 2925 0
L 2925 1958
Q 2925 2381 2713 2608
Q 2502 2835 2138 2835
Q 1766 2835 1552 2608
Q 1338 2381 1338 1958
L 1338 0
L 442 0
L 442 4736
L 1338 4736
L 1338 3104
Q 1510 3334 1798 3465
Q 2086 3597 2438 3597
z
" transform="scale(0.015625)"/>
      <path id="Poppins-SemiBold-61" d="M 211 1786
Q 211 2323 425 2739
Q 640 3155 1008 3379
Q 1376 3603 1830 3603
Q 2227 3603 2524 3443
Q 2822 3283 3002 3040
L 3002 3546
L 3904 3546
L 3904 0
L 3002 0
L 3002 518
Q 2829 269 2525 105
Q 2221 -58 1824 -58
Q 1376 -58 1008 172
Q 640 403 425 822
Q 211 1242 211 1786
z
M 3002 1773
Q 3002 2099 2874 2332
Q 2746 2566 2528 2691
Q 2310 2816 2061 2816
Q 1811 2816 1600 2694
Q 1389 2573 1257 2339
Q 1126 2106 1126 1786
Q 1126 1466 1257 1226
Q 1389 986 1603 858
Q 1818 730 2061 730
Q 2310 730 2528 854
Q 2746 979 2874 1212
Q 3002 1446 3002 1773
z
" transform="scale(0.015625)"/>
      <path id="Poppins-SemiBold-73" d="M 1798 -58
Q 1363 -58 1017 99
Q 672 256 470 525
Q 269 794 250 1120
L 1152 1120
Q 1178 915 1354 780
Q 1530 646 1792 646
Q 2048 646 2192 748
Q 2336 851 2336 1011
Q 2336 1184 2160 1270
Q 1984 1357 1600 1459
Q 1203 1555 950 1657
Q 698 1760 515 1971
Q 333 2182 333 2541
Q 333 2835 502 3078
Q 672 3322 989 3462
Q 1306 3603 1734 3603
Q 2368 3603 2745 3286
Q 3123 2970 3162 2432
L 2304 2432
Q 2285 2643 2128 2768
Q 1971 2893 1709 2893
Q 1466 2893 1334 2803
Q 1203 2714 1203 2554
Q 1203 2374 1382 2281
Q 1562 2189 1939 2093
Q 2323 1997 2572 1894
Q 2822 1792 3004 1577
Q 3187 1363 3194 1011
Q 3194 704 3024 461
Q 2854 218 2537 80
Q 2221 -58 1798 -58
z
" transform="scale(0.015625)"/>
      <path id="Poppins-SemiBold-65" d="M 3738 1850
Q 3738 1658 3712 1504
L 1120 1504
Q 1152 1120 1389 902
Q 1626 685 1971 685
Q 2470 685 2682 1114
L 3648 1114
Q 3494 602 3059 272
Q 2624 -58 1990 -58
Q 1478 -58 1072 169
Q 666 397 438 813
Q 211 1229 211 1773
Q 211 2323 435 2739
Q 659 3155 1062 3379
Q 1466 3603 1990 3603
Q 2496 3603 2896 3385
Q 3296 3168 3517 2768
Q 3738 2368 3738 1850
z
M 2810 2106
Q 2803 2451 2560 2659
Q 2317 2867 1965 2867
Q 1632 2867 1405 2665
Q 1178 2464 1126 2106
L 2810 2106
z
" transform="scale(0.015625)"/>
      <path id="Poppins-SemiBold-20" transform="scale(0.015625)"/>
      <path id="Poppins-SemiBold-70" d="M 1338 3034
Q 1510 3277 1814 3440
Q 2118 3603 2509 3603
Q 2963 3603 3331 3379
Q 3699 3155 3913 2742
Q 4128 2330 4128 1786
Q 4128 1242 3913 822
Q 3699 403 3331 172
Q 2963 -58 2509 -58
Q 2118 -58 1820 102
Q 1523 262 1338 506
L 1338 -1690
L 442 -1690
L 442 3546
L 1338 3546
L 1338 3034
z
M 3213 1786
Q 3213 2106 3081 2339
Q 2950 2573 2736 2694
Q 2522 2816 2272 2816
Q 2029 2816 1814 2691
Q 1600 2566 1469 2329
Q 1338 2093 1338 1773
Q 1338 1453 1469 1216
Q 1600 979 1814 854
Q 2029 730 2272 730
Q 2522 730 2736 858
Q 2950 986 3081 1222
Q 3213 1459 3213 1786
z
" transform="scale(0.015625)"/>
      <path id="Poppins-SemiBold-43" d="M 224 2240
Q 224 2899 521 3420
Q 819 3942 1334 4233
Q 1850 4525 2490 4525
Q 3238 4525 3801 4141
Q 4365 3757 4589 3078
L 3558 3078
Q 3405 3398 3126 3558
Q 2848 3718 2483 3718
Q 2093 3718 1789 3536
Q 1485 3354 1315 3021
Q 1146 2688 1146 2240
Q 1146 1798 1315 1462
Q 1485 1126 1789 944
Q 2093 762 2483 762
Q 2848 762 3126 925
Q 3405 1088 3558 1408
L 4589 1408
Q 4365 723 3805 342
Q 3245 -38 2490 -38
Q 1850 -38 1334 253
Q 819 544 521 1062
Q 224 1581 224 2240
z
" transform="scale(0.015625)"/>
      <path id="Poppins-SemiBold-74" d="M 1485 2810
L 1485 1094
Q 1485 915 1571 835
Q 1658 755 1862 755
L 2278 755
L 2278 0
L 1715 0
Q 582 0 582 1101
L 582 2810
L 160 2810
L 160 3546
L 582 3546
L 582 4422
L 1485 4422
L 1485 3546
L 2278 3546
L 2278 2810
L 1485 2810
z
" transform="scale(0.015625)"/>
      <path id="Poppins-SemiBold-6f" d="M 2016 -58
Q 1504 -58 1094 169
Q 685 397 451 813
Q 218 1229 218 1773
Q 218 2317 458 2733
Q 698 3149 1114 3376
Q 1530 3603 2042 3603
Q 2554 3603 2970 3376
Q 3386 3149 3626 2733
Q 3866 2317 3866 1773
Q 3866 1229 3619 813
Q 3373 397 2953 169
Q 2534 -58 2016 -58
z
M 2016 723
Q 2259 723 2473 841
Q 2688 960 2816 1197
Q 2944 1434 2944 1773
Q 2944 2278 2678 2550
Q 2413 2822 2029 2822
Q 1645 2822 1385 2550
Q 1126 2278 1126 1773
Q 1126 1267 1379 995
Q 1632 723 2016 723
z
" transform="scale(0.015625)"/>
      <path id="Poppins-SemiBold-6d" d="M 4845 3597
Q 5498 3597 5898 3197
Q 6298 2797 6298 2080
L 6298 0
L 5402 0
L 5402 1958
Q 5402 2374 5190 2595
Q 4979 2816 4614 2816
Q 4250 2816 4035 2595
Q 3821 2374 3821 1958
L 3821 0
L 2925 0
L 2925 1958
Q 2925 2374 2713 2595
Q 2502 2816 2138 2816
Q 1766 2816 1552 2595
Q 1338 2374 1338 1958
L 1338 0
L 442 0
L 442 3546
L 1338 3546
L 1338 3117
Q 1510 3341 1782 3469
Q 2054 3597 2381 3597
Q 2797 3597 3123 3421
Q 3450 3245 3629 2918
Q 3802 3226 4131 3411
Q 4461 3597 4845 3597
z
" transform="scale(0.015625)"/>
     </defs>
     <use xlink:href="#Poppins-SemiBold-50"/>
     <use xlink:href="#Poppins-SemiBold-75" transform="translate(60.799988 0)"/>
     <use xlink:href="#Poppins-SemiBold-72" transform="translate(126.899979 0)"/>
     <use xlink:href="#Poppins-SemiBold-63" transform="translate(167.299973 0)"/>
     <use xlink:href="#Poppins-SemiBold-68" transform="translate(227.499969 0)"/>
     <use xlink:href="#Poppins-SemiBold-61" transform="translate(293.59996 0)"/>
     <use xlink:href="#Poppins-SemiBold-73" transform="translate(361.399948 0)"/>
     <use xlink:href="#Poppins-SemiBold-65" transform="translate(415.899933 0)"/>
     <use xlink:href="#Poppins-SemiBold-73" transform="translate(477.59993 0)"/>
     <use xlink:href="#Poppins-SemiBold-20" transform="translate(532.099915 0)"/>
     <use xlink:href="#Poppins-SemiBold-70" transform="translate(555.899902 0)"/>
     <use xlink:href="#Poppins-SemiBold-65" transform="translate(623.69989 0)"/>
     <use xlink:href="#Poppins-SemiBold-72" transform="translate(685.399887 0)"/>
     <use xlink:href="#Poppins-SemiBold-20" transform="translate(725.799881 0)"/>
     <use xlink:href="#Poppins-SemiBold-43" transform="translate(749.599869 0)"/>
     <use xlink:href="#Poppins-SemiBold-75" transform="translate(826.399857 0)"/>
     <use xlink:href="#Poppins-SemiBold-73" transform="translate(892.499847 0)"/>
     <use xlink:href="#Poppins-SemiBold-74" transform="translate(946.999832 0)"/>
     <use xlink:href="#Poppins-SemiBold-6f" transform="translate(985.79982 0)"/>
     <use xlink:href="#Poppins-SemiBold-6d" transform="translate(1049.599808 0)"/>
     <use xlink:href="#Poppins-SemiBold-65" transform="translate(1154.399796 0)"/>
     <use xlink:href="#Poppins-SemiBold-72" transform="translate(1216.099792 0)"/>
    </g>
   </g>
  </g>
  <g id="text_17">
   <!-- Source: OpenRetailScience -->
   <g style="fill: #696969" transform="translate(7.579062 360.772312) scale(0.1 -0.1)">
    <defs>
     <path id="Poppins-LightItalic-53" d="M 1619 -45
Q 1216 -45 912 89
Q 608 224 441 467
Q 275 710 275 1024
Q 275 1107 282 1152
L 723 1152
Q 710 947 796 758
Q 883 570 1097 445
Q 1312 320 1651 320
Q 2125 320 2406 557
Q 2688 794 2688 1197
Q 2688 1440 2557 1603
Q 2426 1766 2234 1872
Q 2042 1978 1709 2112
Q 1318 2266 1088 2397
Q 858 2528 707 2758
Q 557 2989 582 3347
Q 595 3693 790 3958
Q 986 4224 1322 4374
Q 1658 4525 2086 4525
Q 2509 4525 2813 4381
Q 3117 4237 3267 3987
Q 3418 3738 3398 3437
L 2931 3437
Q 2944 3610 2851 3776
Q 2758 3942 2556 4048
Q 2355 4154 2061 4154
Q 1606 4154 1318 3933
Q 1030 3712 1030 3334
Q 1030 3110 1158 2956
Q 1286 2803 1472 2700
Q 1658 2598 1984 2464
Q 2362 2310 2595 2176
Q 2829 2042 2992 1818
Q 3155 1594 3155 1254
Q 3155 1171 3149 1126
Q 3123 800 2931 531
Q 2739 262 2403 108
Q 2067 -45 1619 -45
z
" transform="scale(0.015625)"/>
     <path id="Poppins-LightItalic-6f" d="M 1728 -51
Q 1293 -51 960 125
Q 627 301 444 624
Q 262 947 262 1382
Q 262 1971 531 2467
Q 800 2963 1280 3254
Q 1760 3546 2349 3546
Q 2784 3546 3117 3370
Q 3450 3194 3635 2870
Q 3821 2547 3821 2112
Q 3821 1517 3545 1024
Q 3270 531 2793 240
Q 2317 -51 1728 -51
z
M 1779 326
Q 2234 326 2595 569
Q 2957 813 3158 1216
Q 3360 1619 3360 2086
Q 3360 2611 3056 2886
Q 2752 3162 2285 3162
Q 1830 3162 1475 2918
Q 1120 2675 921 2272
Q 723 1869 723 1402
Q 723 883 1024 604
Q 1325 326 1779 326
z
" transform="scale(0.015625)"/>
     <path id="Poppins-LightItalic-75" d="M 3834 3494
L 3219 0
L 2771 0
L 2880 614
Q 2662 288 2316 115
Q 1971 -58 1574 -58
Q 1037 -58 710 233
Q 384 525 384 1082
Q 384 1286 416 1453
L 774 3494
L 1216 3494
L 864 1504
Q 838 1357 838 1197
Q 838 774 1072 553
Q 1306 333 1722 333
Q 2208 333 2560 630
Q 2912 928 3034 1504
L 3386 3494
L 3834 3494
z
" transform="scale(0.015625)"/>
     <path id="Poppins-LightItalic-72" d="M 1133 2797
Q 1344 3162 1683 3360
Q 2022 3558 2470 3558
L 2387 3091
L 2259 3091
Q 1798 3091 1465 2854
Q 1133 2618 1005 2074
L 640 0
L 192 0
L 806 3494
L 1254 3494
L 1133 2797
z
" transform="scale(0.015625)"/>
     <path id="Poppins-LightItalic-63" d="M 294 1747
Q 390 2291 681 2697
Q 973 3104 1395 3325
Q 1818 3546 2310 3546
Q 2957 3546 3318 3226
Q 3680 2906 3706 2355
L 3226 2355
Q 3206 2733 2947 2947
Q 2688 3162 2246 3162
Q 1702 3162 1289 2794
Q 877 2426 755 1747
Q 723 1587 723 1382
Q 723 870 1001 598
Q 1280 326 1741 326
Q 2189 326 2521 540
Q 2854 755 3014 1139
L 3494 1139
Q 3277 602 2797 275
Q 2317 -51 1677 -51
Q 1030 -51 643 320
Q 256 691 256 1338
Q 256 1536 294 1747
z
" transform="scale(0.015625)"/>
     <path id="Poppins-LightItalic-65" d="M 2330 3546
Q 2771 3546 3084 3376
Q 3398 3206 3561 2912
Q 3725 2618 3725 2240
Q 3725 2067 3699 1933
Q 3661 1741 3622 1587
L 723 1587
Q 704 1466 704 1357
Q 704 864 1001 595
Q 1299 326 1760 326
Q 2202 326 2534 537
Q 2867 749 3021 1107
L 3501 1107
Q 3283 595 2806 272
Q 2330 -51 1696 -51
Q 1043 -51 649 323
Q 256 698 256 1344
Q 256 1536 294 1747
Q 390 2291 681 2700
Q 973 3110 1401 3328
Q 1830 3546 2330 3546
z
M 3238 1920
Q 3270 2099 3270 2221
Q 3270 2675 2982 2918
Q 2694 3162 2246 3162
Q 1920 3162 1619 3021
Q 1318 2880 1094 2598
Q 870 2317 787 1920
L 3238 1920
z
" transform="scale(0.015625)"/>
     <path id="Poppins-LightItalic-3a" d="M 262 -32
Q 141 -32 64 45
Q -13 122 -13 243
Q -13 397 105 512
Q 224 627 378 627
Q 499 627 576 553
Q 653 480 653 358
Q 653 205 534 86
Q 416 -32 262 -32
z
M 262 2784
Q 141 2784 64 2861
Q -13 2938 -13 3059
Q -13 3213 105 3328
Q 224 3443 378 3443
Q 499 3443 576 3369
Q 653 3296 653 3174
Q 653 3021 534 2902
Q 416 2784 262 2784
z
" transform="scale(0.015625)"/>
     <path id="Poppins-LightItalic-20" transform="scale(0.015625)"/>
     <path id="Poppins-LightItalic-4f" d="M 2208 -45
Q 1658 -45 1238 185
Q 819 416 588 835
Q 358 1254 358 1792
Q 358 2541 704 3168
Q 1050 3795 1651 4160
Q 2253 4525 2989 4525
Q 3539 4525 3958 4294
Q 4378 4064 4605 3645
Q 4832 3226 4832 2682
Q 4832 1933 4489 1309
Q 4147 685 3545 320
Q 2944 -45 2208 -45
z
M 2272 358
Q 2874 358 3354 672
Q 3834 986 4102 1514
Q 4371 2042 4371 2656
Q 4371 3334 3977 3724
Q 3584 4115 2918 4115
Q 2317 4115 1840 3801
Q 1363 3488 1094 2960
Q 826 2432 826 1824
Q 826 1146 1219 752
Q 1613 358 2272 358
z
" transform="scale(0.015625)"/>
     <path id="Poppins-LightItalic-70" d="M 1120 2726
Q 1338 3078 1744 3312
Q 2150 3546 2643 3546
Q 3277 3546 3657 3171
Q 4038 2797 4038 2150
Q 4038 1965 4000 1754
Q 3904 1216 3616 806
Q 3328 397 2909 173
Q 2490 -51 2010 -51
Q 1517 -51 1197 182
Q 877 416 768 768
L 346 -1651
L -102 -1651
L 806 3494
L 1254 3494
L 1120 2726
z
M 3546 1754
Q 3578 1946 3578 2080
Q 3578 2586 3280 2870
Q 2982 3155 2496 3155
Q 2138 3155 1811 2982
Q 1485 2810 1254 2490
Q 1024 2170 947 1747
Q 915 1568 915 1427
Q 915 928 1216 633
Q 1517 339 1997 339
Q 2368 339 2691 508
Q 3014 678 3241 1001
Q 3469 1325 3546 1754
z
" transform="scale(0.015625)"/>
     <path id="Poppins-LightItalic-6e" d="M 2464 3558
Q 3002 3558 3325 3267
Q 3648 2976 3648 2419
Q 3648 2214 3616 2048
L 3251 0
L 2810 0
L 3162 1997
Q 3187 2144 3187 2310
Q 3187 2733 2956 2950
Q 2726 3168 2310 3168
Q 1805 3168 1446 2848
Q 1088 2528 979 1907
L 979 1926
L 640 0
L 192 0
L 806 3494
L 1254 3494
L 1146 2893
Q 1370 3213 1715 3385
Q 2061 3558 2464 3558
z
" transform="scale(0.015625)"/>
     <path id="Poppins-LightItalic-52" d="M 2330 4474
Q 2989 4474 3318 4192
Q 3648 3910 3648 3437
Q 3648 3354 3622 3174
Q 3539 2688 3200 2345
Q 2861 2003 2298 1901
L 3110 0
L 2573 0
L 1798 1869
L 966 1869
L 640 0
L 192 0
L 979 4474
L 2330 4474
z
M 3155 3174
Q 3174 3302 3174 3405
Q 3174 3744 2950 3929
Q 2726 4115 2259 4115
L 1363 4115
L 1030 2227
L 1933 2227
Q 2464 2227 2771 2483
Q 3078 2739 3155 3174
z
" transform="scale(0.015625)"/>
     <path id="Poppins-LightItalic-74" d="M 934 947
Q 915 832 915 749
Q 915 544 1027 464
Q 1139 384 1395 384
L 1805 384
L 1734 0
L 1254 0
Q 858 0 659 153
Q 461 307 461 659
Q 461 800 486 947
L 870 3117
L 384 3117
L 454 3494
L 941 3494
L 1094 4371
L 1542 4371
L 1389 3494
L 2355 3494
L 2285 3117
L 1318 3117
L 934 947
z
" transform="scale(0.015625)"/>
     <path id="Poppins-LightItalic-61" d="M 294 1754
Q 390 2291 678 2697
Q 966 3104 1385 3325
Q 1805 3546 2285 3546
Q 2784 3546 3104 3315
Q 3424 3085 3520 2726
L 3654 3494
L 4102 3494
L 3488 0
L 3040 0
L 3174 774
Q 2957 416 2550 182
Q 2144 -51 1645 -51
Q 1229 -51 915 121
Q 602 294 429 611
Q 256 928 256 1357
Q 256 1542 294 1754
z
M 3347 1747
Q 3379 1926 3379 2067
Q 3379 2566 3078 2860
Q 2778 3155 2298 3155
Q 1926 3155 1603 2988
Q 1280 2822 1056 2505
Q 832 2189 755 1754
Q 723 1562 723 1427
Q 723 922 1020 630
Q 1318 339 1798 339
Q 2157 339 2486 512
Q 2816 685 3043 1005
Q 3270 1325 3347 1747
z
" transform="scale(0.015625)"/>
     <path id="Poppins-LightItalic-69" d="M 1152 4154
Q 1030 4154 953 4227
Q 877 4301 877 4422
Q 877 4589 992 4701
Q 1107 4813 1267 4813
Q 1389 4813 1462 4742
Q 1536 4672 1536 4557
Q 1536 4390 1421 4272
Q 1306 4154 1152 4154
z
M 1254 3494
L 640 0
L 192 0
L 806 3494
L 1254 3494
z
" transform="scale(0.015625)"/>
     <path id="Poppins-LightItalic-6c" d="M 1478 4736
L 640 0
L 192 0
L 1030 4736
L 1478 4736
z
" transform="scale(0.015625)"/>
    </defs>
    <use xlink:href="#Poppins-LightItalic-53"/>
    <use xlink:href="#Poppins-LightItalic-6f" transform="translate(56.599991 0)"/>
    <use xlink:href="#Poppins-LightItalic-75" transform="translate(120.799988 0)"/>
    <use xlink:href="#Poppins-LightItalic-72" transform="translate(184.099976 0)"/>
    <use xlink:href="#Poppins-LightItalic-63" transform="translate(220.299973 0)"/>
    <use xlink:href="#Poppins-LightItalic-65" transform="translate(281.59996 0)"/>
    <use xlink:href="#Poppins-LightItalic-3a" transform="translate(343.799957 0)"/>
    <use xlink:href="#Poppins-LightItalic-20" transform="translate(362.299942 0)"/>
    <use xlink:href="#Poppins-LightItalic-4f" transform="translate(391.799927 0)"/>
    <use xlink:href="#Poppins-LightItalic-70" transform="translate(470.599915 0)"/>
    <use xlink:href="#Poppins-LightItalic-65" transform="translate(538.099899 0)"/>
    <use xlink:href="#Poppins-LightItalic-6e" transform="translate(600.299896 0)"/>
    <use xlink:href="#Poppins-LightItalic-52" transform="translate(663.599884 0)"/>
    <use xlink:href="#Poppins-LightItalic-65" transform="translate(722.299881 0)"/>
    <use xlink:href="#Poppins-LightItalic-74" transform="translate(784.499878 0)"/>
    <use xlink:href="#Poppins-LightItalic-61" transform="translate(820.099869 0)"/>
    <use xlink:href="#Poppins-LightItalic-69" transform="translate(887.599854 0)"/>
    <use xlink:href="#Poppins-LightItalic-6c" transform="translate(910.499847 0)"/>
    <use xlink:href="#Poppins-LightItalic-53" transform="translate(933.399841 0)"/>
    <use xlink:href="#Poppins-LightItalic-63" transform="translate(989.999832 0)"/>
    <use xlink:href="#Poppins-LightItalic-69" transform="translate(1051.29982 0)"/>
    <use xlink:href="#Poppins-LightItalic-65" transform="translate(1074.199814 0)"/>
    <use xlink:href="#Poppins-LightItalic-6e" transform="translate(1136.399811 0)"/>
    <use xlink:href="#Poppins-LightItalic-63" transform="translate(1199.699799 0)"/>
    <use xlink:href="#Poppins-LightItalic-65" transform="translate(1260.999786 0)"/>
   </g>
  </g>
 </g>
 <defs>
  <clipPath id="p180e9e8f39">
   <rect x="58.239063" y="32" width="357.12" height="266.112"/>
  </clipPath>
 </defs>
</svg>
