<?xml version="1.0" encoding="utf-8" standalone="no"?>
<!DOCTYPE svg PUBLIC "-//W3C//DTD SVG 1.1//EN"
  "http://www.w3.org/Graphics/SVG/1.1/DTD/svg11.dtd">
<svg xmlns:xlink="http://www.w3.org/1999/xlink" width="767.7pt" height="668.592pt" viewBox="0 0 767.7 668.592" xmlns="http://www.w3.org/2000/svg" version="1.1">
 <metadata>
  <rdf:RDF xmlns:dc="http://purl.org/dc/elements/1.1/" xmlns:cc="http://creativecommons.org/ns#" xmlns:rdf="http://www.w3.org/1999/02/22-rdf-syntax-ns#">
   <cc:Work>
    <dc:type rdf:resource="http://purl.org/dc/dcmitype/StillImage"/>
    <dc:date>2025-10-27T10:59:40.860241</dc:date>
    <dc:format>image/svg+xml</dc:format>
    <dc:creator>
     <cc:Agent>
      <dc:title>Matplotlib v3.9.1.post1, https://matplotlib.org/</dc:title>
     </cc:Agent>
    </dc:creator>
   </cc:Work>
  </rdf:RDF>
 </metadata>
 <defs>
  <style type="text/css">*{stroke-linejoin: round; stroke-linecap: butt}</style>
 </defs>
 <g id="figure_1">
  <g id="patch_1">
   <path d="M 0 668.592
L 767.7 668.592
L 767.7 0
L 0 0
L 0 668.592
z
" style="fill: none"/>
  </g>
  <g id="axes_1">
   <g id="patch_2">
    <path d="M 146.7 41.85
L 342 41.85
L 342 15.516
L 341.872841 14.071942
L 341.495227 12.67176
L 340.878633 11.358
L 340.041792 10.170578
L 339.010132 9.145574
L 337.815 8.314133
L 336.492709 7.701516
L 335.083435 7.326339
L 333.63 7.2
L 155.07 7.2
L 153.616565 7.326339
L 152.207291 7.701516
L 150.885 8.314133
L 149.689868 9.145574
L 148.658208 10.170578
L 147.821367 11.358
L 147.204773 12.67176
L 146.827159 14.071942
L 146.7 15.516
z
" clip-path="url(#p4795c63ffa)" style="fill: #22c55e; stroke: #22c55e; stroke-linejoin: miter"/>
   </g>
   <g id="patch_3">
    <path d="M 146.7 137.484
L 146.827159 138.928058
L 147.204773 140.32824
L 147.821367 141.642
L 148.658208 142.829422
L 149.689868 143.854426
L 150.885 144.685867
L 152.207291 145.298484
L 153.616565 145.673661
L 155.07 145.8
L 333.63 145.8
L 335.083435 145.673661
L 336.492709 145.298484
L 337.815 144.685867
L 339.010132 143.854426
L 340.041792 142.829422
L 340.878633 141.642
L 341.495227 140.32824
L 341.872841 138.928058
L 342 137.484
L 342 41.85
L 146.7 41.85
z
" clip-path="url(#p4795c63ffa)" style="fill: #ffffff; stroke: #e5e7eb; stroke-linejoin: miter"/>
   </g>
   <g id="patch_4">
    <path d="M 7.2 213.714
L 202.5 213.714
L 202.5 187.38
L 202.372841 185.935942
L 201.995227 184.53576
L 201.378633 183.222
L 200.541792 182.034578
L 199.510132 181.009574
L 198.315 180.178133
L 196.992709 179.565516
L 195.583435 179.190339
L 194.13 179.064
L 15.57 179.064
L 14.116565 179.190339
L 12.707291 179.565516
L 11.385 180.178133
L 10.189868 181.009574
L 9.158208 182.034578
L 8.321367 183.222
L 7.704773 184.53576
L 7.327159 185.935942
L 7.2 187.38
z
" clip-path="url(#p4795c63ffa)" style="fill: #ef4444; stroke: #ef4444; stroke-linejoin: miter"/>
   </g>
   <g id="patch_5">
    <path d="M 7.2 309.348
L 7.327159 310.792058
L 7.704773 312.19224
L 8.321367 313.506
L 9.158208 314.693422
L 10.189868 315.718426
L 11.385 316.549867
L 12.707291 317.162484
L 14.116565 317.537661
L 15.57 317.664
L 194.13 317.664
L 195.583435 317.537661
L 196.992709 317.162484
L 198.315 316.549867
L 199.510132 315.718426
L 200.541792 314.693422
L 201.378633 313.506
L 201.995227 312.19224
L 202.372841 310.792058
L 202.5 309.348
L 202.5 213.714
L 7.2 213.714
z
" clip-path="url(#p4795c63ffa)" style="fill: #ffffff; stroke: #e5e7eb; stroke-linejoin: miter"/>
   </g>
   <g id="patch_6">
    <path d="M 286.2 213.714
L 481.5 213.714
L 481.5 187.38
L 481.372841 185.935942
L 480.995227 184.53576
L 480.378633 183.222
L 479.541792 182.034578
L 478.510132 181.009574
L 477.315 180.178133
L 475.992709 179.565516
L 474.583435 179.190339
L 473.13 179.064
L 294.57 179.064
L 293.116565 179.190339
L 291.707291 179.565516
L 290.385 180.178133
L 289.189868 181.009574
L 288.158208 182.034578
L 287.321367 183.222
L 286.704773 184.53576
L 286.327159 185.935942
L 286.2 187.38
z
" clip-path="url(#p4795c63ffa)" style="fill: #22c55e; stroke: #22c55e; stroke-linejoin: miter"/>
   </g>
   <g id="patch_7">
    <path d="M 286.2 309.348
L 286.327159 310.792058
L 286.704773 312.19224
L 287.321367 313.506
L 288.158208 314.693422
L 289.189868 315.718426
L 290.385 316.549867
L 291.707291 317.162484
L 293.116565 317.537661
L 294.57 317.664
L 473.13 317.664
L 474.583435 317.537661
L 475.992709 317.162484
L 477.315 316.549867
L 478.510132 315.718426
L 479.541792 314.693422
L 480.378633 313.506
L 480.995227 312.19224
L 481.372841 310.792058
L 481.5 309.348
L 481.5 213.714
L 286.2 213.714
z
" clip-path="url(#p4795c63ffa)" style="fill: #ffffff; stroke: #e5e7eb; stroke-linejoin: miter"/>
   </g>
   <g id="patch_8">
    <path d="M 146.7 385.578
L 342 385.578
L 342 359.244
L 341.872841 357.799942
L 341.495227 356.39976
L 340.878633 355.086
L 340.041792 353.898578
L 339.010132 352.873574
L 337.815 352.042133
L 336.492709 351.429516
L 335.083435 351.054339
L 333.63 350.928
L 155.07 350.928
L 153.616565 351.054339
L 152.207291 351.429516
L 150.885 352.042133
L 149.689868 352.873574
L 148.658208 353.898578
L 147.821367 355.086
L 147.204773 356.39976
L 146.827159 357.799942
L 146.7 359.244
z
" clip-path="url(#p4795c63ffa)" style="fill: #22c55e; stroke: #22c55e; stroke-linejoin: miter"/>
   </g>
   <g id="patch_9">
    <path d="M 146.7 481.212
L 146.827159 482.656058
L 147.204773 484.05624
L 147.821367 485.37
L 148.658208 486.557422
L 149.689868 487.582426
L 150.885 488.413867
L 152.207291 489.026484
L 153.616565 489.401661
L 155.07 489.528
L 333.63 489.528
L 335.083435 489.401661
L 336.492709 489.026484
L 337.815 488.413867
L 339.010132 487.582426
L 340.041792 486.557422
L 340.878633 485.37
L 341.495227 484.05624
L 341.872841 482.656058
L 342 481.212
L 342 385.578
L 146.7 385.578
z
" clip-path="url(#p4795c63ffa)" style="fill: #ffffff; stroke: #e5e7eb; stroke-linejoin: miter"/>
   </g>
   <g id="patch_10">
    <path d="M 425.7 385.578
L 621 385.578
L 621 359.244
L 620.872841 357.799942
L 620.495227 356.39976
L 619.878633 355.086
L 619.041792 353.898578
L 618.010132 352.873574
L 616.815 352.042133
L 615.492709 351.429516
L 614.083435 351.054339
L 612.63 350.928
L 434.07 350.928
L 432.616565 351.054339
L 431.207291 351.429516
L 429.885 352.042133
L 428.689868 352.873574
L 427.658208 353.898578
L 426.821367 355.086
L 426.204773 356.39976
L 425.827159 357.799942
L 425.7 359.244
z
" clip-path="url(#p4795c63ffa)" style="fill: #ef4444; stroke: #ef4444; stroke-linejoin: miter"/>
   </g>
   <g id="patch_11">
    <path d="M 425.7 481.212
L 425.827159 482.656058
L 426.204773 484.05624
L 426.821367 485.37
L 427.658208 486.557422
L 428.689868 487.582426
L 429.885 488.413867
L 431.207291 489.026484
L 432.616565 489.401661
L 434.07 489.528
L 612.63 489.528
L 614.083435 489.401661
L 615.492709 489.026484
L 616.815 488.413867
L 618.010132 487.582426
L 619.041792 486.557422
L 619.878633 485.37
L 620.495227 484.05624
L 620.872841 482.656058
L 621 481.212
L 621 385.578
L 425.7 385.578
z
" clip-path="url(#p4795c63ffa)" style="fill: #ffffff; stroke: #e5e7eb; stroke-linejoin: miter"/>
   </g>
   <g id="patch_12">
    <path d="M 286.2 557.442
L 481.5 557.442
L 481.5 531.108
L 481.372841 529.663942
L 480.995227 528.26376
L 480.378633 526.95
L 479.541792 525.762578
L 478.510132 524.737574
L 477.315 523.906133
L 475.992709 523.293516
L 474.583435 522.918339
L 473.13 522.792
L 294.57 522.792
L 293.116565 522.918339
L 291.707291 523.293516
L 290.385 523.906133
L 289.189868 524.737574
L 288.158208 525.762578
L 287.321367 526.95
L 286.704773 528.26376
L 286.327159 529.663942
L 286.2 531.108
z
" clip-path="url(#p4795c63ffa)" style="fill: #6b7280; stroke: #6b7280; stroke-linejoin: miter"/>
   </g>
   <g id="patch_13">
    <path d="M 286.2 653.076
L 286.327159 654.520058
L 286.704773 655.92024
L 287.321367 657.234
L 288.158208 658.421422
L 289.189868 659.446426
L 290.385 660.277867
L 291.707291 660.890484
L 293.116565 661.265661
L 294.57 661.392
L 473.13 661.392
L 474.583435 661.265661
L 475.992709 660.890484
L 477.315 660.277867
L 478.510132 659.446426
L 479.541792 658.421422
L 480.378633 657.234
L 480.995227 655.92024
L 481.372841 654.520058
L 481.5 653.076
L 481.5 557.442
L 286.2 557.442
z
" clip-path="url(#p4795c63ffa)" style="fill: #ffffff; stroke: #e5e7eb; stroke-linejoin: miter"/>
   </g>
   <g id="patch_14">
    <path d="M 565.2 557.442
L 760.5 557.442
L 760.5 531.108
L 760.372841 529.663942
L 759.995227 528.26376
L 759.378633 526.95
L 758.541792 525.762578
L 757.510132 524.737574
L 756.315 523.906133
L 754.992709 523.293516
L 753.583435 522.918339
L 752.13 522.792
L 573.57 522.792
L 572.116565 522.918339
L 570.707291 523.293516
L 569.385 523.906133
L 568.189868 524.737574
L 567.158208 525.762578
L 566.321367 526.95
L 565.704773 528.26376
L 565.327159 529.663942
L 565.2 531.108
z
" clip-path="url(#p4795c63ffa)" style="fill: #ef4444; stroke: #ef4444; stroke-linejoin: miter"/>
   </g>
   <g id="patch_15">
    <path d="M 565.2 653.076
L 565.327159 654.520058
L 565.704773 655.92024
L 566.321367 657.234
L 567.158208 658.421422
L 568.189868 659.446426
L 569.385 660.277867
L 570.707291 660.890484
L 572.116565 661.265661
L 573.57 661.392
L 752.13 661.392
L 753.583435 661.265661
L 754.992709 660.890484
L 756.315 660.277867
L 757.510132 659.446426
L 758.541792 658.421422
L 759.378633 657.234
L 759.995227 655.92024
L 760.372841 654.520058
L 760.5 653.076
L 760.5 557.442
L 565.2 557.442
z
" clip-path="url(#p4795c63ffa)" style="fill: #ffffff; stroke: #e5e7eb; stroke-linejoin: miter"/>
   </g>
   <g id="patch_16">
    <path d="M 244.35 145.8
L 244.35 154.116
Q 244.35 162.432 235.98 162.432
L 113.22 162.432
Q 104.85 162.432 104.85 170.748
L 104.85 179.064
" clip-path="url(#p4795c63ffa)" style="fill: none; stroke: #000000; stroke-width: 2; stroke-linejoin: miter"/>
   </g>
   <g id="patch_17">
    <path d="M 244.35 145.8
L 244.35 154.116
Q 244.35 162.432 252.72 162.432
L 375.48 162.432
Q 383.85 162.432 383.85 170.748
L 383.85 179.064
" clip-path="url(#p4795c63ffa)" style="fill: none; stroke: #000000; stroke-width: 2; stroke-linejoin: miter"/>
   </g>
   <g id="patch_18">
    <path d="M 383.85 317.664
L 383.85 325.98
Q 383.85 334.296 375.48 334.296
L 252.72 334.296
Q 244.35 334.296 244.35 342.612
L 244.35 350.928
" clip-path="url(#p4795c63ffa)" style="fill: none; stroke: #000000; stroke-width: 2; stroke-linejoin: miter"/>
   </g>
   <g id="patch_19">
    <path d="M 383.85 317.664
L 383.85 325.98
Q 383.85 334.296 392.22 334.296
L 514.98 334.296
Q 523.35 334.296 523.35 342.612
L 523.35 350.928
" clip-path="url(#p4795c63ffa)" style="fill: none; stroke: #000000; stroke-width: 2; stroke-linejoin: miter"/>
   </g>
   <g id="patch_20">
    <path d="M 523.35 489.528
L 523.35 497.844
Q 523.35 506.16 514.98 506.16
L 392.22 506.16
Q 383.85 506.16 383.85 514.476
L 383.85 522.792
" clip-path="url(#p4795c63ffa)" style="fill: none; stroke: #000000; stroke-width: 2; stroke-linejoin: miter"/>
   </g>
   <g id="patch_21">
    <path d="M 523.35 489.528
L 523.35 497.844
Q 523.35 506.16 531.72 506.16
L 654.48 506.16
Q 662.85 506.16 662.85 514.476
L 662.85 522.792
" clip-path="url(#p4795c63ffa)" style="fill: none; stroke: #000000; stroke-width: 2; stroke-linejoin: miter"/>
   </g>
   <g id="text_1">
    <!-- Revenue -->
    <g style="fill: #ffffff" transform="translate(157.86 27.380625) scale(0.12 -0.12)">
     <defs>
      <path id="Poppins-SemiBold-52" d="M 2746 0
L 1760 1741
L 1338 1741
L 1338 0
L 442 0
L 442 4467
L 2118 4467
Q 2637 4467 3001 4284
Q 3366 4102 3548 3792
Q 3731 3482 3731 3098
Q 3731 2656 3475 2301
Q 3219 1946 2714 1811
L 3782 0
L 2746 0
z
M 1338 2413
L 2086 2413
Q 2451 2413 2630 2589
Q 2810 2765 2810 3078
Q 2810 3386 2630 3555
Q 2451 3725 2086 3725
L 1338 3725
L 1338 2413
z
" transform="scale(0.015625)"/>
      <path id="Poppins-SemiBold-65" d="M 3738 1850
Q 3738 1658 3712 1504
L 1120 1504
Q 1152 1120 1389 902
Q 1626 685 1971 685
Q 2470 685 2682 1114
L 3648 1114
Q 3494 602 3059 272
Q 2624 -58 1990 -58
Q 1478 -58 1072 169
Q 666 397 438 813
Q 211 1229 211 1773
Q 211 2323 435 2739
Q 659 3155 1062 3379
Q 1466 3603 1990 3603
Q 2496 3603 2896 3385
Q 3296 3168 3517 2768
Q 3738 2368 3738 1850
z
M 2810 2106
Q 2803 2451 2560 2659
Q 2317 2867 1965 2867
Q 1632 2867 1405 2665
Q 1178 2464 1126 2106
L 2810 2106
z
" transform="scale(0.015625)"/>
      <path id="Poppins-SemiBold-76" d="M 1920 826
L 2816 3546
L 3770 3546
L 2458 0
L 1370 0
L 64 3546
L 1024 3546
L 1920 826
z
" transform="scale(0.015625)"/>
      <path id="Poppins-SemiBold-6e" d="M 2406 3597
Q 3040 3597 3430 3197
Q 3821 2797 3821 2080
L 3821 0
L 2925 0
L 2925 1958
Q 2925 2381 2713 2608
Q 2502 2835 2138 2835
Q 1766 2835 1552 2608
Q 1338 2381 1338 1958
L 1338 0
L 442 0
L 442 3546
L 1338 3546
L 1338 3104
Q 1517 3334 1795 3465
Q 2074 3597 2406 3597
z
" transform="scale(0.015625)"/>
      <path id="Poppins-SemiBold-75" d="M 3789 3546
L 3789 0
L 2886 0
L 2886 448
Q 2714 218 2435 86
Q 2157 -45 1830 -45
Q 1414 -45 1094 131
Q 774 307 592 649
Q 410 992 410 1466
L 410 3546
L 1306 3546
L 1306 1594
Q 1306 1171 1517 944
Q 1728 717 2093 717
Q 2464 717 2675 944
Q 2886 1171 2886 1594
L 2886 3546
L 3789 3546
z
" transform="scale(0.015625)"/>
     </defs>
     <use xlink:href="#Poppins-SemiBold-52"/>
     <use xlink:href="#Poppins-SemiBold-65" x="64.099991"/>
     <use xlink:href="#Poppins-SemiBold-76" x="125.799988"/>
     <use xlink:href="#Poppins-SemiBold-65" x="185.699982"/>
     <use xlink:href="#Poppins-SemiBold-6e" x="247.399979"/>
     <use xlink:href="#Poppins-SemiBold-75" x="313.499969"/>
     <use xlink:href="#Poppins-SemiBold-65" x="379.59996"/>
    </g>
   </g>
   <g id="text_2">
    <!-- Current Period -->
    <g style="fill: #6b7280" transform="translate(157.86 55.338) scale(0.1 -0.1)">
     <defs>
      <path id="Poppins-Regular-43" d="M 275 2234
Q 275 2886 569 3408
Q 864 3930 1373 4224
Q 1882 4518 2502 4518
Q 3232 4518 3776 4166
Q 4320 3814 4570 3168
L 3872 3168
Q 3686 3571 3337 3788
Q 2989 4006 2502 4006
Q 2035 4006 1664 3788
Q 1293 3571 1081 3171
Q 870 2771 870 2234
Q 870 1702 1081 1302
Q 1293 902 1664 684
Q 2035 467 2502 467
Q 2989 467 3337 681
Q 3686 896 3872 1299
L 4570 1299
Q 4320 659 3776 310
Q 3232 -38 2502 -38
Q 1882 -38 1373 253
Q 864 544 569 1062
Q 275 1581 275 2234
z
" transform="scale(0.015625)"/>
      <path id="Poppins-Regular-75" d="M 3603 3507
L 3603 0
L 3021 0
L 3021 518
Q 2854 250 2556 99
Q 2259 -51 1901 -51
Q 1491 -51 1164 118
Q 838 288 649 627
Q 461 966 461 1453
L 461 3507
L 1037 3507
L 1037 1530
Q 1037 1011 1299 732
Q 1562 454 2016 454
Q 2483 454 2752 742
Q 3021 1030 3021 1581
L 3021 3507
L 3603 3507
z
" transform="scale(0.015625)"/>
      <path id="Poppins-Regular-72" d="M 1075 2938
Q 1229 3238 1513 3404
Q 1798 3571 2208 3571
L 2208 2970
L 2054 2970
Q 1075 2970 1075 1907
L 1075 0
L 493 0
L 493 3507
L 1075 3507
L 1075 2938
z
" transform="scale(0.015625)"/>
      <path id="Poppins-Regular-65" d="M 3693 1888
Q 3693 1722 3674 1536
L 870 1536
Q 902 1018 1225 726
Q 1549 435 2010 435
Q 2387 435 2640 611
Q 2893 787 2995 1082
L 3622 1082
Q 3482 576 3059 259
Q 2637 -58 2010 -58
Q 1510 -58 1116 166
Q 723 390 499 803
Q 275 1216 275 1760
Q 275 2304 492 2713
Q 710 3123 1104 3344
Q 1498 3565 2010 3565
Q 2509 3565 2893 3347
Q 3277 3130 3485 2749
Q 3693 2368 3693 1888
z
M 3091 2010
Q 3091 2342 2944 2582
Q 2797 2822 2544 2947
Q 2291 3072 1984 3072
Q 1542 3072 1232 2790
Q 922 2509 877 2010
L 3091 2010
z
" transform="scale(0.015625)"/>
      <path id="Poppins-Regular-6e" d="M 2202 3571
Q 2842 3571 3238 3184
Q 3635 2797 3635 2067
L 3635 0
L 3059 0
L 3059 1984
Q 3059 2509 2796 2787
Q 2534 3066 2080 3066
Q 1619 3066 1347 2778
Q 1075 2490 1075 1939
L 1075 0
L 493 0
L 493 3507
L 1075 3507
L 1075 3008
Q 1248 3277 1545 3424
Q 1843 3571 2202 3571
z
" transform="scale(0.015625)"/>
      <path id="Poppins-Regular-74" d="M 1203 3027
L 1203 960
Q 1203 704 1312 598
Q 1421 493 1690 493
L 2118 493
L 2118 0
L 1594 0
Q 1107 0 864 224
Q 621 448 621 960
L 621 3027
L 166 3027
L 166 3507
L 621 3507
L 621 4390
L 1203 4390
L 1203 3507
L 2118 3507
L 2118 3027
L 1203 3027
z
" transform="scale(0.015625)"/>
      <path id="Poppins-Regular-20" transform="scale(0.015625)"/>
      <path id="Poppins-Regular-50" d="M 3475 3155
Q 3475 2598 3094 2230
Q 2714 1862 1933 1862
L 1075 1862
L 1075 0
L 493 0
L 493 4461
L 1933 4461
Q 2688 4461 3081 4096
Q 3475 3731 3475 3155
z
M 1933 2342
Q 2419 2342 2649 2553
Q 2880 2765 2880 3155
Q 2880 3981 1933 3981
L 1075 3981
L 1075 2342
L 1933 2342
z
" transform="scale(0.015625)"/>
      <path id="Poppins-Regular-69" d="M 794 4077
Q 627 4077 512 4192
Q 397 4307 397 4474
Q 397 4640 512 4755
Q 627 4870 794 4870
Q 954 4870 1066 4755
Q 1178 4640 1178 4474
Q 1178 4307 1066 4192
Q 954 4077 794 4077
z
M 1075 3507
L 1075 0
L 493 0
L 493 3507
L 1075 3507
z
" transform="scale(0.015625)"/>
      <path id="Poppins-Regular-6f" d="M 2022 -58
Q 1530 -58 1130 166
Q 730 390 502 803
Q 275 1216 275 1760
Q 275 2298 508 2710
Q 742 3123 1145 3344
Q 1549 3565 2048 3565
Q 2547 3565 2950 3344
Q 3354 3123 3587 2713
Q 3821 2304 3821 1760
Q 3821 1216 3581 803
Q 3341 390 2931 166
Q 2522 -58 2022 -58
z
M 2022 454
Q 2336 454 2611 601
Q 2886 749 3056 1043
Q 3226 1338 3226 1760
Q 3226 2182 3059 2476
Q 2893 2771 2624 2915
Q 2355 3059 2042 3059
Q 1722 3059 1456 2915
Q 1190 2771 1030 2476
Q 870 2182 870 1760
Q 870 1331 1027 1036
Q 1184 742 1446 598
Q 1709 454 2022 454
z
" transform="scale(0.015625)"/>
      <path id="Poppins-Regular-64" d="M 275 1766
Q 275 2304 492 2710
Q 710 3117 1091 3341
Q 1472 3565 1946 3565
Q 2355 3565 2707 3376
Q 3059 3187 3245 2880
L 3245 4736
L 3834 4736
L 3834 0
L 3245 0
L 3245 659
Q 3072 346 2733 144
Q 2394 -58 1939 -58
Q 1472 -58 1091 172
Q 710 403 492 819
Q 275 1235 275 1766
z
M 3245 1760
Q 3245 2157 3085 2451
Q 2925 2746 2653 2902
Q 2381 3059 2054 3059
Q 1728 3059 1459 2905
Q 1190 2752 1030 2457
Q 870 2163 870 1766
Q 870 1363 1030 1065
Q 1190 768 1459 611
Q 1728 454 2054 454
Q 2381 454 2653 611
Q 2925 768 3085 1065
Q 3245 1363 3245 1760
z
" transform="scale(0.015625)"/>
     </defs>
     <use xlink:href="#Poppins-Regular-43"/>
     <use xlink:href="#Poppins-Regular-75" x="77.199982"/>
     <use xlink:href="#Poppins-Regular-72" x="141.199966"/>
     <use xlink:href="#Poppins-Regular-72" x="178.499954"/>
     <use xlink:href="#Poppins-Regular-65" x="215.799942"/>
     <use xlink:href="#Poppins-Regular-6e" x="277.799927"/>
     <use xlink:href="#Poppins-Regular-74" x="341.799911"/>
     <use xlink:href="#Poppins-Regular-20" x="378.199905"/>
     <use xlink:href="#Poppins-Regular-50" x="404.899902"/>
     <use xlink:href="#Poppins-Regular-65" x="462.799896"/>
     <use xlink:href="#Poppins-Regular-72" x="524.799881"/>
     <use xlink:href="#Poppins-Regular-69" x="562.099869"/>
     <use xlink:href="#Poppins-Regular-6f" x="586.69986"/>
     <use xlink:href="#Poppins-Regular-64" x="650.699844"/>
    </g>
   </g>
   <g id="text_3">
    <!-- 47.7M -->
    <g style="fill: #4b5563" transform="translate(157.86 69.653625) scale(0.12 -0.12)">
     <defs>
      <path id="Poppins-SemiBold-34" d="M 301 909
L 301 1613
L 2394 4608
L 3437 4608
L 3437 1690
L 4000 1690
L 4000 909
L 3437 909
L 3437 0
L 2541 0
L 2541 909
L 301 909
z
M 2598 3648
L 1286 1690
L 2598 1690
L 2598 3648
z
" transform="scale(0.015625)"/>
      <path id="Poppins-SemiBold-37" d="M 3309 3987
L 1606 0
L 698 0
L 2413 3885
L 224 3885
L 224 4653
L 3309 4653
L 3309 3987
z
" transform="scale(0.015625)"/>
      <path id="Poppins-SemiBold-2e" d="M 838 -45
Q 595 -45 438 105
Q 282 256 282 480
Q 282 704 438 854
Q 595 1005 838 1005
Q 1075 1005 1228 854
Q 1382 704 1382 480
Q 1382 256 1228 105
Q 1075 -45 838 -45
z
" transform="scale(0.015625)"/>
      <path id="Poppins-SemiBold-4d" d="M 5312 4467
L 5312 0
L 4416 0
L 4416 2906
L 3219 0
L 2541 0
L 1338 2906
L 1338 0
L 442 0
L 442 4467
L 1459 4467
L 2880 1146
L 4301 4467
L 5312 4467
z
" transform="scale(0.015625)"/>
     </defs>
     <use xlink:href="#Poppins-SemiBold-34"/>
     <use xlink:href="#Poppins-SemiBold-37" x="66.099991"/>
     <use xlink:href="#Poppins-SemiBold-2e" x="120.899979"/>
     <use xlink:href="#Poppins-SemiBold-37" x="146.899963"/>
     <use xlink:href="#Poppins-SemiBold-4d" x="201.699951"/>
    </g>
   </g>
   <g id="text_4">
    <!-- Previous Period -->
    <g style="fill: #6b7280" transform="translate(255.51 55.338) scale(0.1 -0.1)">
     <defs>
      <path id="Poppins-Regular-76" d="M 1798 538
L 2886 3507
L 3507 3507
L 2131 0
L 1453 0
L 77 3507
L 704 3507
L 1798 538
z
" transform="scale(0.015625)"/>
      <path id="Poppins-Regular-73" d="M 1734 -58
Q 1331 -58 1011 80
Q 691 218 505 464
Q 320 710 301 1030
L 902 1030
Q 928 768 1149 601
Q 1370 435 1728 435
Q 2061 435 2253 582
Q 2445 730 2445 954
Q 2445 1184 2240 1296
Q 2035 1408 1606 1517
Q 1216 1619 969 1724
Q 723 1830 547 2038
Q 371 2246 371 2586
Q 371 2854 531 3078
Q 691 3302 985 3433
Q 1280 3565 1658 3565
Q 2240 3565 2598 3270
Q 2957 2976 2982 2464
L 2400 2464
Q 2381 2739 2179 2905
Q 1978 3072 1638 3072
Q 1325 3072 1139 2937
Q 954 2803 954 2586
Q 954 2413 1066 2301
Q 1178 2189 1347 2121
Q 1517 2054 1818 1971
Q 2195 1869 2432 1769
Q 2669 1670 2838 1472
Q 3008 1274 3014 954
Q 3014 666 2854 435
Q 2694 205 2403 73
Q 2112 -58 1734 -58
z
" transform="scale(0.015625)"/>
     </defs>
     <use xlink:href="#Poppins-Regular-50"/>
     <use xlink:href="#Poppins-Regular-72" x="57.899994"/>
     <use xlink:href="#Poppins-Regular-65" x="95.199982"/>
     <use xlink:href="#Poppins-Regular-76" x="157.199966"/>
     <use xlink:href="#Poppins-Regular-69" x="213.299957"/>
     <use xlink:href="#Poppins-Regular-6f" x="237.899948"/>
     <use xlink:href="#Poppins-Regular-75" x="301.899933"/>
     <use xlink:href="#Poppins-Regular-73" x="365.899918"/>
     <use xlink:href="#Poppins-Regular-20" x="418.099915"/>
     <use xlink:href="#Poppins-Regular-50" x="444.799911"/>
     <use xlink:href="#Poppins-Regular-65" x="502.699905"/>
     <use xlink:href="#Poppins-Regular-72" x="564.69989"/>
     <use xlink:href="#Poppins-Regular-69" x="601.999878"/>
     <use xlink:href="#Poppins-Regular-6f" x="626.599869"/>
     <use xlink:href="#Poppins-Regular-64" x="690.599854"/>
    </g>
   </g>
   <g id="text_5">
    <!-- 41.39M -->
    <g style="fill: #4b5563" transform="translate(255.51 69.653625) scale(0.12 -0.12)">
     <defs>
      <path id="Poppins-SemiBold-31" d="M 230 3840
L 230 4666
L 1773 4666
L 1773 0
L 851 0
L 851 3840
L 230 3840
z
" transform="scale(0.015625)"/>
      <path id="Poppins-SemiBold-33" d="M 352 3437
Q 384 4077 803 4425
Q 1222 4774 1907 4774
Q 2374 4774 2707 4611
Q 3040 4448 3209 4169
Q 3379 3891 3379 3539
Q 3379 3136 3171 2857
Q 2963 2579 2675 2483
L 2675 2458
Q 3046 2342 3254 2048
Q 3462 1754 3462 1293
Q 3462 909 3286 608
Q 3110 307 2768 137
Q 2426 -32 1946 -32
Q 1222 -32 768 333
Q 314 698 288 1408
L 1158 1408
Q 1171 1094 1372 905
Q 1574 717 1926 717
Q 2253 717 2429 899
Q 2605 1082 2605 1370
Q 2605 1754 2361 1920
Q 2118 2086 1606 2086
L 1421 2086
L 1421 2822
L 1606 2822
Q 2515 2822 2515 3430
Q 2515 3706 2352 3859
Q 2189 4013 1882 4013
Q 1581 4013 1417 3849
Q 1254 3686 1229 3437
L 352 3437
z
" transform="scale(0.015625)"/>
      <path id="Poppins-SemiBold-39" d="M 1376 1312
Q 1427 1030 1609 880
Q 1792 730 2099 730
Q 2496 730 2675 1059
Q 2854 1389 2854 2170
Q 2707 1965 2441 1849
Q 2176 1734 1869 1734
Q 1459 1734 1129 1904
Q 800 2074 608 2410
Q 416 2746 416 3226
Q 416 3936 838 4355
Q 1261 4774 1990 4774
Q 2899 4774 3273 4192
Q 3648 3610 3648 2438
Q 3648 1606 3504 1075
Q 3360 544 3011 269
Q 2662 -6 2061 -6
Q 1587 -6 1254 176
Q 922 358 746 656
Q 570 954 544 1312
L 1376 1312
z
M 2054 2464
Q 2387 2464 2579 2669
Q 2771 2874 2771 3219
Q 2771 3597 2569 3805
Q 2368 4013 2022 4013
Q 1677 4013 1475 3798
Q 1274 3584 1274 3232
Q 1274 2893 1469 2678
Q 1664 2464 2054 2464
z
" transform="scale(0.015625)"/>
     </defs>
     <use xlink:href="#Poppins-SemiBold-34"/>
     <use xlink:href="#Poppins-SemiBold-31" x="66.099991"/>
     <use xlink:href="#Poppins-SemiBold-2e" x="102.299988"/>
     <use xlink:href="#Poppins-SemiBold-33" x="128.299973"/>
     <use xlink:href="#Poppins-SemiBold-39" x="188.199966"/>
     <use xlink:href="#Poppins-SemiBold-4d" x="250.799957"/>
    </g>
   </g>
   <g id="text_6">
    <!-- Diff -->
    <g style="fill: #6b7280" transform="translate(157.86 96.5715) scale(0.1 -0.1)">
     <defs>
      <path id="Poppins-Regular-44" d="M 1882 4461
Q 2611 4461 3145 4189
Q 3680 3917 3965 3411
Q 4250 2906 4250 2221
Q 4250 1536 3965 1033
Q 3680 531 3145 265
Q 2611 0 1882 0
L 493 0
L 493 4461
L 1882 4461
z
M 1882 480
Q 2746 480 3200 937
Q 3654 1395 3654 2221
Q 3654 3053 3196 3520
Q 2739 3987 1882 3987
L 1075 3987
L 1075 480
L 1882 480
z
" transform="scale(0.015625)"/>
      <path id="Poppins-Regular-66" d="M 1920 3027
L 1184 3027
L 1184 0
L 602 0
L 602 3027
L 147 3027
L 147 3507
L 602 3507
L 602 3757
Q 602 4346 906 4618
Q 1210 4890 1882 4890
L 1882 4403
Q 1498 4403 1341 4252
Q 1184 4102 1184 3757
L 1184 3507
L 1920 3507
L 1920 3027
z
" transform="scale(0.015625)"/>
     </defs>
     <use xlink:href="#Poppins-Regular-44"/>
     <use xlink:href="#Poppins-Regular-69" x="70.699982"/>
     <use xlink:href="#Poppins-Regular-66" x="95.299973"/>
     <use xlink:href="#Poppins-Regular-66" x="128.199966"/>
    </g>
   </g>
   <g id="text_7">
    <!-- 6.3M -->
    <g style="fill: #4b5563" transform="translate(306.85875 96.551187) scale(0.1 -0.1)">
     <defs>
      <path id="Poppins-SemiBold-36" d="M 2758 3501
Q 2694 3770 2537 3904
Q 2381 4038 2086 4038
Q 1645 4038 1437 3683
Q 1229 3328 1222 2528
Q 1376 2784 1670 2928
Q 1965 3072 2310 3072
Q 2726 3072 3046 2893
Q 3366 2714 3545 2371
Q 3725 2029 3725 1549
Q 3725 1094 3542 739
Q 3360 384 3008 185
Q 2656 -13 2170 -13
Q 1504 -13 1123 281
Q 742 576 592 1104
Q 442 1632 442 2406
Q 442 3578 845 4176
Q 1248 4774 2118 4774
Q 2790 4774 3161 4409
Q 3533 4045 3590 3501
L 2758 3501
z
M 2106 2336
Q 1766 2336 1536 2137
Q 1306 1939 1306 1562
Q 1306 1184 1520 966
Q 1734 749 2125 749
Q 2470 749 2672 960
Q 2874 1171 2874 1530
Q 2874 1901 2678 2118
Q 2483 2336 2106 2336
z
" transform="scale(0.015625)"/>
     </defs>
     <use xlink:href="#Poppins-SemiBold-36"/>
     <use xlink:href="#Poppins-SemiBold-2e" x="63.999985"/>
     <use xlink:href="#Poppins-SemiBold-33" x="89.999969"/>
     <use xlink:href="#Poppins-SemiBold-4d" x="149.899963"/>
    </g>
   </g>
   <g id="text_8">
    <!-- Pct Diff -->
    <g style="fill: #6b7280" transform="translate(157.86 116.4375) scale(0.1 -0.1)">
     <defs>
      <path id="Poppins-Regular-63" d="M 275 1760
Q 275 2304 492 2710
Q 710 3117 1097 3341
Q 1485 3565 1984 3565
Q 2630 3565 3049 3251
Q 3469 2938 3603 2381
L 2976 2381
Q 2886 2701 2627 2886
Q 2368 3072 1984 3072
Q 1485 3072 1177 2729
Q 870 2387 870 1760
Q 870 1126 1177 780
Q 1485 435 1984 435
Q 2368 435 2624 614
Q 2880 794 2976 1126
L 3603 1126
Q 3462 589 3040 265
Q 2618 -58 1984 -58
Q 1485 -58 1097 166
Q 710 390 492 800
Q 275 1210 275 1760
z
" transform="scale(0.015625)"/>
     </defs>
     <use xlink:href="#Poppins-Regular-50"/>
     <use xlink:href="#Poppins-Regular-63" x="57.899994"/>
     <use xlink:href="#Poppins-Regular-74" x="118.599991"/>
     <use xlink:href="#Poppins-Regular-20" x="154.999985"/>
     <use xlink:href="#Poppins-Regular-44" x="181.699982"/>
     <use xlink:href="#Poppins-Regular-69" x="252.399963"/>
     <use xlink:href="#Poppins-Regular-66" x="276.999954"/>
     <use xlink:href="#Poppins-Regular-66" x="309.899948"/>
    </g>
   </g>
   <g id="text_9">
    <!-- 15.2% -->
    <g style="fill: #4b5563" transform="translate(304.147813 116.417187) scale(0.1 -0.1)">
     <defs>
      <path id="Poppins-SemiBold-35" d="M 3475 3891
L 1402 3891
L 1402 2797
Q 1536 2963 1785 3068
Q 2035 3174 2317 3174
Q 2829 3174 3155 2950
Q 3482 2726 3629 2377
Q 3776 2029 3776 1632
Q 3776 896 3357 448
Q 2938 0 2163 0
Q 1434 0 998 365
Q 563 730 506 1318
L 1376 1318
Q 1434 1062 1635 908
Q 1837 755 2150 755
Q 2528 755 2720 992
Q 2912 1229 2912 1619
Q 2912 2016 2717 2224
Q 2522 2432 2144 2432
Q 1875 2432 1696 2297
Q 1517 2163 1440 1939
L 582 1939
L 582 4678
L 3475 4678
L 3475 3891
z
" transform="scale(0.015625)"/>
      <path id="Poppins-SemiBold-32" d="M 621 1011
Q 1235 1523 1600 1865
Q 1965 2208 2208 2579
Q 2451 2950 2451 3309
Q 2451 3635 2297 3820
Q 2144 4006 1824 4006
Q 1504 4006 1331 3792
Q 1158 3578 1152 3206
L 282 3206
Q 307 3974 739 4371
Q 1171 4768 1837 4768
Q 2566 4768 2956 4381
Q 3347 3994 3347 3360
Q 3347 2861 3078 2406
Q 2810 1952 2464 1616
Q 2118 1280 1562 806
L 3450 806
L 3450 64
L 288 64
L 288 730
L 621 1011
z
" transform="scale(0.015625)"/>
      <path id="Poppins-SemiBold-25" d="M 237 3520
Q 237 4006 521 4281
Q 806 4557 1254 4557
Q 1702 4557 1987 4281
Q 2272 4006 2272 3520
Q 2272 3027 1987 2752
Q 1702 2477 1254 2477
Q 806 2477 521 2752
Q 237 3027 237 3520
z
M 4346 4480
L 1830 0
L 960 0
L 3469 4480
L 4346 4480
z
M 1248 4019
Q 896 4019 896 3520
Q 896 3014 1248 3014
Q 1421 3014 1517 3139
Q 1613 3264 1613 3520
Q 1613 4019 1248 4019
z
M 3046 966
Q 3046 1459 3331 1731
Q 3616 2003 4064 2003
Q 4512 2003 4790 1731
Q 5069 1459 5069 966
Q 5069 474 4790 198
Q 4512 -77 4064 -77
Q 3610 -77 3328 198
Q 3046 474 3046 966
z
M 4058 1466
Q 3693 1466 3693 966
Q 3693 461 4058 461
Q 4416 461 4416 966
Q 4416 1466 4058 1466
z
" transform="scale(0.015625)"/>
     </defs>
     <use xlink:href="#Poppins-SemiBold-31"/>
     <use xlink:href="#Poppins-SemiBold-35" x="36.199997"/>
     <use xlink:href="#Poppins-SemiBold-2e" x="100.599991"/>
     <use xlink:href="#Poppins-SemiBold-32" x="126.599976"/>
     <use xlink:href="#Poppins-SemiBold-25" x="183.999969"/>
    </g>
   </g>
   <g id="text_10">
    <!-- Customers -->
    <g style="fill: #ffffff" transform="translate(18.36 199.244625) scale(0.12 -0.12)">
     <defs>
      <path id="Poppins-SemiBold-43" d="M 224 2240
Q 224 2899 521 3420
Q 819 3942 1334 4233
Q 1850 4525 2490 4525
Q 3238 4525 3801 4141
Q 4365 3757 4589 3078
L 3558 3078
Q 3405 3398 3126 3558
Q 2848 3718 2483 3718
Q 2093 3718 1789 3536
Q 1485 3354 1315 3021
Q 1146 2688 1146 2240
Q 1146 1798 1315 1462
Q 1485 1126 1789 944
Q 2093 762 2483 762
Q 2848 762 3126 925
Q 3405 1088 3558 1408
L 4589 1408
Q 4365 723 3805 342
Q 3245 -38 2490 -38
Q 1850 -38 1334 253
Q 819 544 521 1062
Q 224 1581 224 2240
z
" transform="scale(0.015625)"/>
      <path id="Poppins-SemiBold-73" d="M 1798 -58
Q 1363 -58 1017 99
Q 672 256 470 525
Q 269 794 250 1120
L 1152 1120
Q 1178 915 1354 780
Q 1530 646 1792 646
Q 2048 646 2192 748
Q 2336 851 2336 1011
Q 2336 1184 2160 1270
Q 1984 1357 1600 1459
Q 1203 1555 950 1657
Q 698 1760 515 1971
Q 333 2182 333 2541
Q 333 2835 502 3078
Q 672 3322 989 3462
Q 1306 3603 1734 3603
Q 2368 3603 2745 3286
Q 3123 2970 3162 2432
L 2304 2432
Q 2285 2643 2128 2768
Q 1971 2893 1709 2893
Q 1466 2893 1334 2803
Q 1203 2714 1203 2554
Q 1203 2374 1382 2281
Q 1562 2189 1939 2093
Q 2323 1997 2572 1894
Q 2822 1792 3004 1577
Q 3187 1363 3194 1011
Q 3194 704 3024 461
Q 2854 218 2537 80
Q 2221 -58 1798 -58
z
" transform="scale(0.015625)"/>
      <path id="Poppins-SemiBold-74" d="M 1485 2810
L 1485 1094
Q 1485 915 1571 835
Q 1658 755 1862 755
L 2278 755
L 2278 0
L 1715 0
Q 582 0 582 1101
L 582 2810
L 160 2810
L 160 3546
L 582 3546
L 582 4422
L 1485 4422
L 1485 3546
L 2278 3546
L 2278 2810
L 1485 2810
z
" transform="scale(0.015625)"/>
      <path id="Poppins-SemiBold-6f" d="M 2016 -58
Q 1504 -58 1094 169
Q 685 397 451 813
Q 218 1229 218 1773
Q 218 2317 458 2733
Q 698 3149 1114 3376
Q 1530 3603 2042 3603
Q 2554 3603 2970 3376
Q 3386 3149 3626 2733
Q 3866 2317 3866 1773
Q 3866 1229 3619 813
Q 3373 397 2953 169
Q 2534 -58 2016 -58
z
M 2016 723
Q 2259 723 2473 841
Q 2688 960 2816 1197
Q 2944 1434 2944 1773
Q 2944 2278 2678 2550
Q 2413 2822 2029 2822
Q 1645 2822 1385 2550
Q 1126 2278 1126 1773
Q 1126 1267 1379 995
Q 1632 723 2016 723
z
" transform="scale(0.015625)"/>
      <path id="Poppins-SemiBold-6d" d="M 4845 3597
Q 5498 3597 5898 3197
Q 6298 2797 6298 2080
L 6298 0
L 5402 0
L 5402 1958
Q 5402 2374 5190 2595
Q 4979 2816 4614 2816
Q 4250 2816 4035 2595
Q 3821 2374 3821 1958
L 3821 0
L 2925 0
L 2925 1958
Q 2925 2374 2713 2595
Q 2502 2816 2138 2816
Q 1766 2816 1552 2595
Q 1338 2374 1338 1958
L 1338 0
L 442 0
L 442 3546
L 1338 3546
L 1338 3117
Q 1510 3341 1782 3469
Q 2054 3597 2381 3597
Q 2797 3597 3123 3421
Q 3450 3245 3629 2918
Q 3802 3226 4131 3411
Q 4461 3597 4845 3597
z
" transform="scale(0.015625)"/>
      <path id="Poppins-SemiBold-72" d="M 1338 2995
Q 1510 3277 1788 3437
Q 2067 3597 2426 3597
L 2426 2656
L 2189 2656
Q 1766 2656 1552 2457
Q 1338 2259 1338 1766
L 1338 0
L 442 0
L 442 3546
L 1338 3546
L 1338 2995
z
" transform="scale(0.015625)"/>
     </defs>
     <use xlink:href="#Poppins-SemiBold-43"/>
     <use xlink:href="#Poppins-SemiBold-75" x="76.799988"/>
     <use xlink:href="#Poppins-SemiBold-73" x="142.899979"/>
     <use xlink:href="#Poppins-SemiBold-74" x="197.399963"/>
     <use xlink:href="#Poppins-SemiBold-6f" x="236.199951"/>
     <use xlink:href="#Poppins-SemiBold-6d" x="299.999939"/>
     <use xlink:href="#Poppins-SemiBold-65" x="404.799927"/>
     <use xlink:href="#Poppins-SemiBold-72" x="466.499924"/>
     <use xlink:href="#Poppins-SemiBold-73" x="506.899918"/>
    </g>
   </g>
   <g id="text_11">
    <!-- Current Period -->
    <g style="fill: #6b7280" transform="translate(18.36 227.202) scale(0.1 -0.1)">
     <use xlink:href="#Poppins-Regular-43"/>
     <use xlink:href="#Poppins-Regular-75" x="77.199982"/>
     <use xlink:href="#Poppins-Regular-72" x="141.199966"/>
     <use xlink:href="#Poppins-Regular-72" x="178.499954"/>
     <use xlink:href="#Poppins-Regular-65" x="215.799942"/>
     <use xlink:href="#Poppins-Regular-6e" x="277.799927"/>
     <use xlink:href="#Poppins-Regular-74" x="341.799911"/>
     <use xlink:href="#Poppins-Regular-20" x="378.199905"/>
     <use xlink:href="#Poppins-Regular-50" x="404.899902"/>
     <use xlink:href="#Poppins-Regular-65" x="462.799896"/>
     <use xlink:href="#Poppins-Regular-72" x="524.799881"/>
     <use xlink:href="#Poppins-Regular-69" x="562.099869"/>
     <use xlink:href="#Poppins-Regular-6f" x="586.69986"/>
     <use xlink:href="#Poppins-Regular-64" x="650.699844"/>
    </g>
   </g>
   <g id="text_12">
    <!-- 3.04K -->
    <g style="fill: #4b5563" transform="translate(18.36 241.517625) scale(0.12 -0.12)">
     <defs>
      <path id="Poppins-SemiBold-30" d="M 339 2394
Q 339 3501 739 4128
Q 1139 4755 2067 4755
Q 2995 4755 3395 4128
Q 3795 3501 3795 2394
Q 3795 1280 3395 646
Q 2995 13 2067 13
Q 1139 13 739 646
Q 339 1280 339 2394
z
M 2912 2394
Q 2912 2867 2851 3190
Q 2790 3514 2608 3718
Q 2426 3923 2067 3923
Q 1709 3923 1526 3718
Q 1344 3514 1283 3190
Q 1222 2867 1222 2394
Q 1222 1907 1280 1577
Q 1338 1248 1523 1046
Q 1709 845 2067 845
Q 2426 845 2611 1046
Q 2797 1248 2854 1577
Q 2912 1907 2912 2394
z
" transform="scale(0.015625)"/>
      <path id="Poppins-SemiBold-4b" d="M 2963 0
L 1338 1990
L 1338 0
L 442 0
L 442 4467
L 1338 4467
L 1338 2464
L 2963 4467
L 4045 4467
L 2202 2253
L 4096 0
L 2963 0
z
" transform="scale(0.015625)"/>
     </defs>
     <use xlink:href="#Poppins-SemiBold-33"/>
     <use xlink:href="#Poppins-SemiBold-2e" x="59.899994"/>
     <use xlink:href="#Poppins-SemiBold-30" x="85.899979"/>
     <use xlink:href="#Poppins-SemiBold-34" x="150.499969"/>
     <use xlink:href="#Poppins-SemiBold-4b" x="216.59996"/>
    </g>
   </g>
   <g id="text_13">
    <!-- Previous Period -->
    <g style="fill: #6b7280" transform="translate(116.01 227.202) scale(0.1 -0.1)">
     <use xlink:href="#Poppins-Regular-50"/>
     <use xlink:href="#Poppins-Regular-72" x="57.899994"/>
     <use xlink:href="#Poppins-Regular-65" x="95.199982"/>
     <use xlink:href="#Poppins-Regular-76" x="157.199966"/>
     <use xlink:href="#Poppins-Regular-69" x="213.299957"/>
     <use xlink:href="#Poppins-Regular-6f" x="237.899948"/>
     <use xlink:href="#Poppins-Regular-75" x="301.899933"/>
     <use xlink:href="#Poppins-Regular-73" x="365.899918"/>
     <use xlink:href="#Poppins-Regular-20" x="418.099915"/>
     <use xlink:href="#Poppins-Regular-50" x="444.799911"/>
     <use xlink:href="#Poppins-Regular-65" x="502.699905"/>
     <use xlink:href="#Poppins-Regular-72" x="564.69989"/>
     <use xlink:href="#Poppins-Regular-69" x="601.999878"/>
     <use xlink:href="#Poppins-Regular-6f" x="626.599869"/>
     <use xlink:href="#Poppins-Regular-64" x="690.599854"/>
    </g>
   </g>
   <g id="text_14">
    <!-- 3.2K -->
    <g style="fill: #4b5563" transform="translate(116.01 241.517625) scale(0.12 -0.12)">
     <use xlink:href="#Poppins-SemiBold-33"/>
     <use xlink:href="#Poppins-SemiBold-2e" x="59.899994"/>
     <use xlink:href="#Poppins-SemiBold-32" x="85.899979"/>
     <use xlink:href="#Poppins-SemiBold-4b" x="143.299973"/>
    </g>
   </g>
   <g id="text_15">
    <!-- Diff -->
    <g style="fill: #6b7280" transform="translate(18.36 268.4355) scale(0.1 -0.1)">
     <use xlink:href="#Poppins-Regular-44"/>
     <use xlink:href="#Poppins-Regular-69" x="70.699982"/>
     <use xlink:href="#Poppins-Regular-66" x="95.299973"/>
     <use xlink:href="#Poppins-Regular-66" x="128.199966"/>
    </g>
   </g>
   <g id="text_16">
    <!-- -166 -->
    <g style="fill: #4b5563" transform="translate(169.09 268.415188) scale(0.1 -0.1)">
     <defs>
      <path id="Poppins-SemiBold-2d" d="M 3168 2662
L 3168 1907
L 454 1907
L 454 2662
L 3168 2662
z
" transform="scale(0.015625)"/>
     </defs>
     <use xlink:href="#Poppins-SemiBold-2d"/>
     <use xlink:href="#Poppins-SemiBold-31" x="58.299988"/>
     <use xlink:href="#Poppins-SemiBold-36" x="94.499985"/>
     <use xlink:href="#Poppins-SemiBold-36" x="158.499969"/>
    </g>
   </g>
   <g id="text_17">
    <!-- Pct Diff -->
    <g style="fill: #6b7280" transform="translate(18.36 288.3015) scale(0.1 -0.1)">
     <use xlink:href="#Poppins-Regular-50"/>
     <use xlink:href="#Poppins-Regular-63" x="57.899994"/>
     <use xlink:href="#Poppins-Regular-74" x="118.599991"/>
     <use xlink:href="#Poppins-Regular-20" x="154.999985"/>
     <use xlink:href="#Poppins-Regular-44" x="181.699982"/>
     <use xlink:href="#Poppins-Regular-69" x="252.399963"/>
     <use xlink:href="#Poppins-Regular-66" x="276.999954"/>
     <use xlink:href="#Poppins-Regular-66" x="309.899948"/>
    </g>
   </g>
   <g id="text_18">
    <!-- -5.2% -->
    <g style="fill: #4b5563" transform="translate(162.438438 288.281188) scale(0.1 -0.1)">
     <use xlink:href="#Poppins-SemiBold-2d"/>
     <use xlink:href="#Poppins-SemiBold-35" x="58.299988"/>
     <use xlink:href="#Poppins-SemiBold-2e" x="122.699982"/>
     <use xlink:href="#Poppins-SemiBold-32" x="148.699966"/>
     <use xlink:href="#Poppins-SemiBold-25" x="206.09996"/>
    </g>
   </g>
   <g id="text_19">
    <!-- Contribution -->
    <g style="fill: #6b7280" transform="translate(18.36 308.1675) scale(0.1 -0.1)">
     <defs>
      <path id="Poppins-Regular-62" d="M 1075 2854
Q 1254 3168 1600 3366
Q 1946 3565 2387 3565
Q 2861 3565 3238 3341
Q 3616 3117 3833 2710
Q 4051 2304 4051 1766
Q 4051 1235 3833 819
Q 3616 403 3235 172
Q 2854 -58 2387 -58
Q 1933 -58 1590 140
Q 1248 339 1075 646
L 1075 0
L 493 0
L 493 4736
L 1075 4736
L 1075 2854
z
M 3456 1766
Q 3456 2163 3296 2457
Q 3136 2752 2864 2905
Q 2592 3059 2266 3059
Q 1946 3059 1674 2902
Q 1402 2746 1238 2448
Q 1075 2150 1075 1760
Q 1075 1363 1238 1065
Q 1402 768 1674 611
Q 1946 454 2266 454
Q 2592 454 2864 611
Q 3136 768 3296 1065
Q 3456 1363 3456 1766
z
" transform="scale(0.015625)"/>
     </defs>
     <use xlink:href="#Poppins-Regular-43"/>
     <use xlink:href="#Poppins-Regular-6f" x="77.199982"/>
     <use xlink:href="#Poppins-Regular-6e" x="141.199966"/>
     <use xlink:href="#Poppins-Regular-74" x="205.199951"/>
     <use xlink:href="#Poppins-Regular-72" x="241.599945"/>
     <use xlink:href="#Poppins-Regular-69" x="278.899933"/>
     <use xlink:href="#Poppins-Regular-62" x="303.499924"/>
     <use xlink:href="#Poppins-Regular-75" x="371.099915"/>
     <use xlink:href="#Poppins-Regular-74" x="435.099899"/>
     <use xlink:href="#Poppins-Regular-69" x="471.499893"/>
     <use xlink:href="#Poppins-Regular-6f" x="496.099884"/>
     <use xlink:href="#Poppins-Regular-6e" x="560.099869"/>
    </g>
   </g>
   <g id="text_20">
    <!-- -2.38M -->
    <g style="fill: #4b5563" transform="translate(155.75875 308.147188) scale(0.1 -0.1)">
     <defs>
      <path id="Poppins-SemiBold-38" d="M 1120 2470
Q 480 2803 480 3501
Q 480 3846 656 4131
Q 832 4416 1187 4585
Q 1542 4755 2054 4755
Q 2566 4755 2921 4585
Q 3277 4416 3453 4131
Q 3629 3846 3629 3501
Q 3629 3149 3456 2883
Q 3283 2618 2995 2470
Q 3347 2317 3545 2022
Q 3744 1728 3744 1325
Q 3744 890 3523 566
Q 3302 243 2918 70
Q 2534 -102 2054 -102
Q 1574 -102 1193 70
Q 813 243 592 566
Q 371 890 371 1325
Q 371 1728 569 2025
Q 768 2323 1120 2470
z
M 2758 3373
Q 2758 3686 2569 3859
Q 2381 4032 2054 4032
Q 1734 4032 1545 3859
Q 1357 3686 1357 3366
Q 1357 3078 1552 2905
Q 1747 2733 2054 2733
Q 2362 2733 2560 2909
Q 2758 3085 2758 3373
z
M 2054 2080
Q 1690 2080 1462 1894
Q 1235 1709 1235 1363
Q 1235 1043 1456 841
Q 1677 640 2054 640
Q 2432 640 2649 845
Q 2867 1050 2867 1363
Q 2867 1702 2643 1891
Q 2419 2080 2054 2080
z
" transform="scale(0.015625)"/>
     </defs>
     <use xlink:href="#Poppins-SemiBold-2d"/>
     <use xlink:href="#Poppins-SemiBold-32" x="58.299988"/>
     <use xlink:href="#Poppins-SemiBold-2e" x="115.699982"/>
     <use xlink:href="#Poppins-SemiBold-33" x="141.699966"/>
     <use xlink:href="#Poppins-SemiBold-38" x="201.59996"/>
     <use xlink:href="#Poppins-SemiBold-4d" x="265.899948"/>
    </g>
   </g>
   <g id="text_21">
    <!-- Spend / Customer -->
    <g style="fill: #ffffff" transform="translate(297.36 200.486813) scale(0.12 -0.12)">
     <defs>
      <path id="Poppins-SemiBold-53" d="M 1984 -45
Q 1517 -45 1142 115
Q 768 275 550 576
Q 333 877 326 1286
L 1286 1286
Q 1306 1011 1482 851
Q 1658 691 1965 691
Q 2278 691 2457 841
Q 2637 992 2637 1235
Q 2637 1434 2515 1562
Q 2394 1690 2211 1763
Q 2029 1837 1709 1926
Q 1274 2054 1002 2179
Q 730 2304 534 2557
Q 339 2810 339 3232
Q 339 3629 537 3923
Q 736 4218 1094 4374
Q 1453 4531 1914 4531
Q 2605 4531 3037 4195
Q 3469 3859 3514 3258
L 2528 3258
Q 2515 3488 2332 3638
Q 2150 3789 1850 3789
Q 1587 3789 1430 3654
Q 1274 3520 1274 3264
Q 1274 3085 1392 2966
Q 1510 2848 1686 2774
Q 1862 2701 2182 2605
Q 2618 2477 2893 2349
Q 3168 2221 3366 1965
Q 3565 1709 3565 1293
Q 3565 934 3379 627
Q 3194 320 2835 137
Q 2477 -45 1984 -45
z
" transform="scale(0.015625)"/>
      <path id="Poppins-SemiBold-70" d="M 1338 3034
Q 1510 3277 1814 3440
Q 2118 3603 2509 3603
Q 2963 3603 3331 3379
Q 3699 3155 3913 2742
Q 4128 2330 4128 1786
Q 4128 1242 3913 822
Q 3699 403 3331 172
Q 2963 -58 2509 -58
Q 2118 -58 1820 102
Q 1523 262 1338 506
L 1338 -1690
L 442 -1690
L 442 3546
L 1338 3546
L 1338 3034
z
M 3213 1786
Q 3213 2106 3081 2339
Q 2950 2573 2736 2694
Q 2522 2816 2272 2816
Q 2029 2816 1814 2691
Q 1600 2566 1469 2329
Q 1338 2093 1338 1773
Q 1338 1453 1469 1216
Q 1600 979 1814 854
Q 2029 730 2272 730
Q 2522 730 2736 858
Q 2950 986 3081 1222
Q 3213 1459 3213 1786
z
" transform="scale(0.015625)"/>
      <path id="Poppins-SemiBold-64" d="M 211 1786
Q 211 2323 425 2739
Q 640 3155 1011 3379
Q 1382 3603 1837 3603
Q 2182 3603 2496 3452
Q 2810 3302 2995 3053
L 2995 4736
L 3904 4736
L 3904 0
L 2995 0
L 2995 525
Q 2829 262 2528 102
Q 2227 -58 1830 -58
Q 1382 -58 1011 172
Q 640 403 425 822
Q 211 1242 211 1786
z
M 3002 1773
Q 3002 2099 2874 2332
Q 2746 2566 2528 2691
Q 2310 2816 2061 2816
Q 1811 2816 1600 2694
Q 1389 2573 1257 2339
Q 1126 2106 1126 1786
Q 1126 1466 1257 1226
Q 1389 986 1603 858
Q 1818 730 2061 730
Q 2310 730 2528 854
Q 2746 979 2874 1212
Q 3002 1446 3002 1773
z
" transform="scale(0.015625)"/>
      <path id="Poppins-SemiBold-20" transform="scale(0.015625)"/>
      <path id="Poppins-SemiBold-2f" d="M 2842 6061
L 1114 -1158
L 237 -1158
L 1965 6061
L 2842 6061
z
" transform="scale(0.015625)"/>
     </defs>
     <use xlink:href="#Poppins-SemiBold-53"/>
     <use xlink:href="#Poppins-SemiBold-70" x="60.899994"/>
     <use xlink:href="#Poppins-SemiBold-65" x="128.699982"/>
     <use xlink:href="#Poppins-SemiBold-6e" x="190.399979"/>
     <use xlink:href="#Poppins-SemiBold-64" x="256.499969"/>
     <use xlink:href="#Poppins-SemiBold-20" x="324.299957"/>
     <use xlink:href="#Poppins-SemiBold-2f" x="348.099945"/>
     <use xlink:href="#Poppins-SemiBold-20" x="396.699936"/>
     <use xlink:href="#Poppins-SemiBold-43" x="420.499924"/>
     <use xlink:href="#Poppins-SemiBold-75" x="497.299911"/>
     <use xlink:href="#Poppins-SemiBold-73" x="563.399902"/>
     <use xlink:href="#Poppins-SemiBold-74" x="617.899887"/>
     <use xlink:href="#Poppins-SemiBold-6f" x="656.699875"/>
     <use xlink:href="#Poppins-SemiBold-6d" x="720.499863"/>
     <use xlink:href="#Poppins-SemiBold-65" x="825.29985"/>
     <use xlink:href="#Poppins-SemiBold-72" x="886.999847"/>
    </g>
   </g>
   <g id="text_22">
    <!-- Current Period -->
    <g style="fill: #6b7280" transform="translate(297.36 227.202) scale(0.1 -0.1)">
     <use xlink:href="#Poppins-Regular-43"/>
     <use xlink:href="#Poppins-Regular-75" x="77.199982"/>
     <use xlink:href="#Poppins-Regular-72" x="141.199966"/>
     <use xlink:href="#Poppins-Regular-72" x="178.499954"/>
     <use xlink:href="#Poppins-Regular-65" x="215.799942"/>
     <use xlink:href="#Poppins-Regular-6e" x="277.799927"/>
     <use xlink:href="#Poppins-Regular-74" x="341.799911"/>
     <use xlink:href="#Poppins-Regular-20" x="378.199905"/>
     <use xlink:href="#Poppins-Regular-50" x="404.899902"/>
     <use xlink:href="#Poppins-Regular-65" x="462.799896"/>
     <use xlink:href="#Poppins-Regular-72" x="524.799881"/>
     <use xlink:href="#Poppins-Regular-69" x="562.099869"/>
     <use xlink:href="#Poppins-Regular-6f" x="586.69986"/>
     <use xlink:href="#Poppins-Regular-64" x="650.699844"/>
    </g>
   </g>
   <g id="text_23">
    <!-- 15.7K -->
    <g style="fill: #4b5563" transform="translate(297.36 241.517625) scale(0.12 -0.12)">
     <use xlink:href="#Poppins-SemiBold-31"/>
     <use xlink:href="#Poppins-SemiBold-35" x="36.199997"/>
     <use xlink:href="#Poppins-SemiBold-2e" x="100.599991"/>
     <use xlink:href="#Poppins-SemiBold-37" x="126.599976"/>
     <use xlink:href="#Poppins-SemiBold-4b" x="181.399963"/>
    </g>
   </g>
   <g id="text_24">
    <!-- Previous Period -->
    <g style="fill: #6b7280" transform="translate(395.01 227.202) scale(0.1 -0.1)">
     <use xlink:href="#Poppins-Regular-50"/>
     <use xlink:href="#Poppins-Regular-72" x="57.899994"/>
     <use xlink:href="#Poppins-Regular-65" x="95.199982"/>
     <use xlink:href="#Poppins-Regular-76" x="157.199966"/>
     <use xlink:href="#Poppins-Regular-69" x="213.299957"/>
     <use xlink:href="#Poppins-Regular-6f" x="237.899948"/>
     <use xlink:href="#Poppins-Regular-75" x="301.899933"/>
     <use xlink:href="#Poppins-Regular-73" x="365.899918"/>
     <use xlink:href="#Poppins-Regular-20" x="418.099915"/>
     <use xlink:href="#Poppins-Regular-50" x="444.799911"/>
     <use xlink:href="#Poppins-Regular-65" x="502.699905"/>
     <use xlink:href="#Poppins-Regular-72" x="564.69989"/>
     <use xlink:href="#Poppins-Regular-69" x="601.999878"/>
     <use xlink:href="#Poppins-Regular-6f" x="626.599869"/>
     <use xlink:href="#Poppins-Regular-64" x="690.599854"/>
    </g>
   </g>
   <g id="text_25">
    <!-- 12.92K -->
    <g style="fill: #4b5563" transform="translate(395.01 241.517625) scale(0.12 -0.12)">
     <use xlink:href="#Poppins-SemiBold-31"/>
     <use xlink:href="#Poppins-SemiBold-32" x="36.199997"/>
     <use xlink:href="#Poppins-SemiBold-2e" x="93.599991"/>
     <use xlink:href="#Poppins-SemiBold-39" x="119.599976"/>
     <use xlink:href="#Poppins-SemiBold-32" x="182.199966"/>
     <use xlink:href="#Poppins-SemiBold-4b" x="239.59996"/>
    </g>
   </g>
   <g id="text_26">
    <!-- Diff -->
    <g style="fill: #6b7280" transform="translate(297.36 268.4355) scale(0.1 -0.1)">
     <use xlink:href="#Poppins-Regular-44"/>
     <use xlink:href="#Poppins-Regular-69" x="70.699982"/>
     <use xlink:href="#Poppins-Regular-66" x="95.299973"/>
     <use xlink:href="#Poppins-Regular-66" x="128.199966"/>
    </g>
   </g>
   <g id="text_27">
    <!-- 2.78K -->
    <g style="fill: #4b5563" transform="translate(443.460313 268.415188) scale(0.1 -0.1)">
     <use xlink:href="#Poppins-SemiBold-32"/>
     <use xlink:href="#Poppins-SemiBold-2e" x="57.399994"/>
     <use xlink:href="#Poppins-SemiBold-37" x="83.399979"/>
     <use xlink:href="#Poppins-SemiBold-38" x="138.199966"/>
     <use xlink:href="#Poppins-SemiBold-4b" x="202.499954"/>
    </g>
   </g>
   <g id="text_28">
    <!-- Pct Diff -->
    <g style="fill: #6b7280" transform="translate(297.36 288.3015) scale(0.1 -0.1)">
     <use xlink:href="#Poppins-Regular-50"/>
     <use xlink:href="#Poppins-Regular-63" x="57.899994"/>
     <use xlink:href="#Poppins-Regular-74" x="118.599991"/>
     <use xlink:href="#Poppins-Regular-20" x="154.999985"/>
     <use xlink:href="#Poppins-Regular-44" x="181.699982"/>
     <use xlink:href="#Poppins-Regular-69" x="252.399963"/>
     <use xlink:href="#Poppins-Regular-66" x="276.999954"/>
     <use xlink:href="#Poppins-Regular-66" x="309.899948"/>
    </g>
   </g>
   <g id="text_29">
    <!-- 21.5% -->
    <g style="fill: #4b5563" transform="translate(443.647813 288.281188) scale(0.1 -0.1)">
     <use xlink:href="#Poppins-SemiBold-32"/>
     <use xlink:href="#Poppins-SemiBold-31" x="57.399994"/>
     <use xlink:href="#Poppins-SemiBold-2e" x="93.599991"/>
     <use xlink:href="#Poppins-SemiBold-35" x="119.599976"/>
     <use xlink:href="#Poppins-SemiBold-25" x="183.999969"/>
    </g>
   </g>
   <g id="text_30">
    <!-- Contribution -->
    <g style="fill: #6b7280" transform="translate(297.36 308.1675) scale(0.1 -0.1)">
     <use xlink:href="#Poppins-Regular-43"/>
     <use xlink:href="#Poppins-Regular-6f" x="77.199982"/>
     <use xlink:href="#Poppins-Regular-6e" x="141.199966"/>
     <use xlink:href="#Poppins-Regular-74" x="205.199951"/>
     <use xlink:href="#Poppins-Regular-72" x="241.599945"/>
     <use xlink:href="#Poppins-Regular-69" x="278.899933"/>
     <use xlink:href="#Poppins-Regular-62" x="303.499924"/>
     <use xlink:href="#Poppins-Regular-75" x="371.099915"/>
     <use xlink:href="#Poppins-Regular-74" x="435.099899"/>
     <use xlink:href="#Poppins-Regular-69" x="471.499893"/>
     <use xlink:href="#Poppins-Regular-6f" x="496.099884"/>
     <use xlink:href="#Poppins-Regular-6e" x="560.099869"/>
    </g>
   </g>
   <g id="text_31">
    <!-- 8.68M -->
    <g style="fill: #4b5563" transform="translate(439.49 308.147188) scale(0.1 -0.1)">
     <use xlink:href="#Poppins-SemiBold-38"/>
     <use xlink:href="#Poppins-SemiBold-2e" x="64.299988"/>
     <use xlink:href="#Poppins-SemiBold-36" x="90.299973"/>
     <use xlink:href="#Poppins-SemiBold-38" x="154.299957"/>
     <use xlink:href="#Poppins-SemiBold-4d" x="218.599945"/>
    </g>
   </g>
   <g id="text_32">
    <!-- Visits / Customer -->
    <g style="fill: #ffffff" transform="translate(157.86 371.852063) scale(0.12 -0.12)">
     <defs>
      <path id="Poppins-SemiBold-56" d="M 4454 4467
L 2816 0
L 1728 0
L 90 4467
L 1050 4467
L 2278 915
L 3501 4467
L 4454 4467
z
" transform="scale(0.015625)"/>
      <path id="Poppins-SemiBold-69" d="M 896 3968
Q 659 3968 502 4118
Q 346 4269 346 4493
Q 346 4717 502 4867
Q 659 5018 896 5018
Q 1133 5018 1289 4867
Q 1446 4717 1446 4493
Q 1446 4269 1289 4118
Q 1133 3968 896 3968
z
M 1338 3546
L 1338 0
L 442 0
L 442 3546
L 1338 3546
z
" transform="scale(0.015625)"/>
     </defs>
     <use xlink:href="#Poppins-SemiBold-56"/>
     <use xlink:href="#Poppins-SemiBold-69" x="71.099991"/>
     <use xlink:href="#Poppins-SemiBold-73" x="98.899979"/>
     <use xlink:href="#Poppins-SemiBold-69" x="153.399963"/>
     <use xlink:href="#Poppins-SemiBold-74" x="181.199951"/>
     <use xlink:href="#Poppins-SemiBold-73" x="219.999939"/>
     <use xlink:href="#Poppins-SemiBold-20" x="274.499924"/>
     <use xlink:href="#Poppins-SemiBold-2f" x="298.299911"/>
     <use xlink:href="#Poppins-SemiBold-20" x="346.899902"/>
     <use xlink:href="#Poppins-SemiBold-43" x="370.69989"/>
     <use xlink:href="#Poppins-SemiBold-75" x="447.499878"/>
     <use xlink:href="#Poppins-SemiBold-73" x="513.599869"/>
     <use xlink:href="#Poppins-SemiBold-74" x="568.099854"/>
     <use xlink:href="#Poppins-SemiBold-6f" x="606.899841"/>
     <use xlink:href="#Poppins-SemiBold-6d" x="670.699829"/>
     <use xlink:href="#Poppins-SemiBold-65" x="775.499817"/>
     <use xlink:href="#Poppins-SemiBold-72" x="837.199814"/>
    </g>
   </g>
   <g id="text_33">
    <!-- Current Period -->
    <g style="fill: #6b7280" transform="translate(157.86 399.066) scale(0.1 -0.1)">
     <use xlink:href="#Poppins-Regular-43"/>
     <use xlink:href="#Poppins-Regular-75" x="77.199982"/>
     <use xlink:href="#Poppins-Regular-72" x="141.199966"/>
     <use xlink:href="#Poppins-Regular-72" x="178.499954"/>
     <use xlink:href="#Poppins-Regular-65" x="215.799942"/>
     <use xlink:href="#Poppins-Regular-6e" x="277.799927"/>
     <use xlink:href="#Poppins-Regular-74" x="341.799911"/>
     <use xlink:href="#Poppins-Regular-20" x="378.199905"/>
     <use xlink:href="#Poppins-Regular-50" x="404.899902"/>
     <use xlink:href="#Poppins-Regular-65" x="462.799896"/>
     <use xlink:href="#Poppins-Regular-72" x="524.799881"/>
     <use xlink:href="#Poppins-Regular-69" x="562.099869"/>
     <use xlink:href="#Poppins-Regular-6f" x="586.69986"/>
     <use xlink:href="#Poppins-Regular-64" x="650.699844"/>
    </g>
   </g>
   <g id="text_34">
    <!-- 4.53 -->
    <g style="fill: #4b5563" transform="translate(157.86 413.381625) scale(0.12 -0.12)">
     <use xlink:href="#Poppins-SemiBold-34"/>
     <use xlink:href="#Poppins-SemiBold-2e" x="66.099991"/>
     <use xlink:href="#Poppins-SemiBold-35" x="92.099976"/>
     <use xlink:href="#Poppins-SemiBold-33" x="156.499969"/>
    </g>
   </g>
   <g id="text_35">
    <!-- Previous Period -->
    <g style="fill: #6b7280" transform="translate(255.51 399.066) scale(0.1 -0.1)">
     <use xlink:href="#Poppins-Regular-50"/>
     <use xlink:href="#Poppins-Regular-72" x="57.899994"/>
     <use xlink:href="#Poppins-Regular-65" x="95.199982"/>
     <use xlink:href="#Poppins-Regular-76" x="157.199966"/>
     <use xlink:href="#Poppins-Regular-69" x="213.299957"/>
     <use xlink:href="#Poppins-Regular-6f" x="237.899948"/>
     <use xlink:href="#Poppins-Regular-75" x="301.899933"/>
     <use xlink:href="#Poppins-Regular-73" x="365.899918"/>
     <use xlink:href="#Poppins-Regular-20" x="418.099915"/>
     <use xlink:href="#Poppins-Regular-50" x="444.799911"/>
     <use xlink:href="#Poppins-Regular-65" x="502.699905"/>
     <use xlink:href="#Poppins-Regular-72" x="564.69989"/>
     <use xlink:href="#Poppins-Regular-69" x="601.999878"/>
     <use xlink:href="#Poppins-Regular-6f" x="626.599869"/>
     <use xlink:href="#Poppins-Regular-64" x="690.599854"/>
    </g>
   </g>
   <g id="text_36">
    <!-- 3.67 -->
    <g style="fill: #4b5563" transform="translate(255.51 413.381625) scale(0.12 -0.12)">
     <use xlink:href="#Poppins-SemiBold-33"/>
     <use xlink:href="#Poppins-SemiBold-2e" x="59.899994"/>
     <use xlink:href="#Poppins-SemiBold-36" x="85.899979"/>
     <use xlink:href="#Poppins-SemiBold-37" x="149.899963"/>
    </g>
   </g>
   <g id="text_37">
    <!-- Diff -->
    <g style="fill: #6b7280" transform="translate(157.86 440.2995) scale(0.1 -0.1)">
     <use xlink:href="#Poppins-Regular-44"/>
     <use xlink:href="#Poppins-Regular-69" x="70.699982"/>
     <use xlink:href="#Poppins-Regular-66" x="95.299973"/>
     <use xlink:href="#Poppins-Regular-66" x="128.199966"/>
    </g>
   </g>
   <g id="text_38">
    <!-- 0.86 -->
    <g style="fill: #4b5563" transform="translate(308.950938 440.279187) scale(0.1 -0.1)">
     <use xlink:href="#Poppins-SemiBold-30"/>
     <use xlink:href="#Poppins-SemiBold-2e" x="64.599991"/>
     <use xlink:href="#Poppins-SemiBold-38" x="90.599976"/>
     <use xlink:href="#Poppins-SemiBold-36" x="154.899963"/>
    </g>
   </g>
   <g id="text_39">
    <!-- Pct Diff -->
    <g style="fill: #6b7280" transform="translate(157.86 460.1655) scale(0.1 -0.1)">
     <use xlink:href="#Poppins-Regular-50"/>
     <use xlink:href="#Poppins-Regular-63" x="57.899994"/>
     <use xlink:href="#Poppins-Regular-74" x="118.599991"/>
     <use xlink:href="#Poppins-Regular-20" x="154.999985"/>
     <use xlink:href="#Poppins-Regular-44" x="181.699982"/>
     <use xlink:href="#Poppins-Regular-69" x="252.399963"/>
     <use xlink:href="#Poppins-Regular-66" x="276.999954"/>
     <use xlink:href="#Poppins-Regular-66" x="309.899948"/>
    </g>
   </g>
   <g id="text_40">
    <!-- 23.5% -->
    <g style="fill: #4b5563" transform="translate(301.7775 460.145187) scale(0.1 -0.1)">
     <use xlink:href="#Poppins-SemiBold-32"/>
     <use xlink:href="#Poppins-SemiBold-33" x="57.399994"/>
     <use xlink:href="#Poppins-SemiBold-2e" x="117.299988"/>
     <use xlink:href="#Poppins-SemiBold-35" x="143.299973"/>
     <use xlink:href="#Poppins-SemiBold-25" x="207.699966"/>
    </g>
   </g>
   <g id="text_41">
    <!-- Contribution -->
    <g style="fill: #6b7280" transform="translate(157.86 480.0315) scale(0.1 -0.1)">
     <use xlink:href="#Poppins-Regular-43"/>
     <use xlink:href="#Poppins-Regular-6f" x="77.199982"/>
     <use xlink:href="#Poppins-Regular-6e" x="141.199966"/>
     <use xlink:href="#Poppins-Regular-74" x="205.199951"/>
     <use xlink:href="#Poppins-Regular-72" x="241.599945"/>
     <use xlink:href="#Poppins-Regular-69" x="278.899933"/>
     <use xlink:href="#Poppins-Regular-62" x="303.499924"/>
     <use xlink:href="#Poppins-Regular-75" x="371.099915"/>
     <use xlink:href="#Poppins-Regular-74" x="435.099899"/>
     <use xlink:href="#Poppins-Regular-69" x="471.499893"/>
     <use xlink:href="#Poppins-Regular-6f" x="496.099884"/>
     <use xlink:href="#Poppins-Regular-6e" x="560.099869"/>
    </g>
   </g>
   <g id="text_42">
    <!-- 9.28M -->
    <g style="fill: #4b5563" transform="translate(300.819688 480.011188) scale(0.1 -0.1)">
     <use xlink:href="#Poppins-SemiBold-39"/>
     <use xlink:href="#Poppins-SemiBold-2e" x="62.599991"/>
     <use xlink:href="#Poppins-SemiBold-32" x="88.599976"/>
     <use xlink:href="#Poppins-SemiBold-38" x="145.999969"/>
     <use xlink:href="#Poppins-SemiBold-4d" x="210.299957"/>
    </g>
   </g>
   <g id="text_43">
    <!-- Spend / Visit -->
    <g style="fill: #ffffff" transform="translate(436.86 372.350813) scale(0.12 -0.12)">
     <use xlink:href="#Poppins-SemiBold-53"/>
     <use xlink:href="#Poppins-SemiBold-70" x="60.899994"/>
     <use xlink:href="#Poppins-SemiBold-65" x="128.699982"/>
     <use xlink:href="#Poppins-SemiBold-6e" x="190.399979"/>
     <use xlink:href="#Poppins-SemiBold-64" x="256.499969"/>
     <use xlink:href="#Poppins-SemiBold-20" x="324.299957"/>
     <use xlink:href="#Poppins-SemiBold-2f" x="348.099945"/>
     <use xlink:href="#Poppins-SemiBold-20" x="396.699936"/>
     <use xlink:href="#Poppins-SemiBold-56" x="420.499924"/>
     <use xlink:href="#Poppins-SemiBold-69" x="491.599915"/>
     <use xlink:href="#Poppins-SemiBold-73" x="519.399902"/>
     <use xlink:href="#Poppins-SemiBold-69" x="573.899887"/>
     <use xlink:href="#Poppins-SemiBold-74" x="601.699875"/>
    </g>
   </g>
   <g id="text_44">
    <!-- Current Period -->
    <g style="fill: #6b7280" transform="translate(436.86 399.066) scale(0.1 -0.1)">
     <use xlink:href="#Poppins-Regular-43"/>
     <use xlink:href="#Poppins-Regular-75" x="77.199982"/>
     <use xlink:href="#Poppins-Regular-72" x="141.199966"/>
     <use xlink:href="#Poppins-Regular-72" x="178.499954"/>
     <use xlink:href="#Poppins-Regular-65" x="215.799942"/>
     <use xlink:href="#Poppins-Regular-6e" x="277.799927"/>
     <use xlink:href="#Poppins-Regular-74" x="341.799911"/>
     <use xlink:href="#Poppins-Regular-20" x="378.199905"/>
     <use xlink:href="#Poppins-Regular-50" x="404.899902"/>
     <use xlink:href="#Poppins-Regular-65" x="462.799896"/>
     <use xlink:href="#Poppins-Regular-72" x="524.799881"/>
     <use xlink:href="#Poppins-Regular-69" x="562.099869"/>
     <use xlink:href="#Poppins-Regular-6f" x="586.69986"/>
     <use xlink:href="#Poppins-Regular-64" x="650.699844"/>
    </g>
   </g>
   <g id="text_45">
    <!-- 3.47K -->
    <g style="fill: #4b5563" transform="translate(436.86 413.381625) scale(0.12 -0.12)">
     <use xlink:href="#Poppins-SemiBold-33"/>
     <use xlink:href="#Poppins-SemiBold-2e" x="59.899994"/>
     <use xlink:href="#Poppins-SemiBold-34" x="85.899979"/>
     <use xlink:href="#Poppins-SemiBold-37" x="151.999969"/>
     <use xlink:href="#Poppins-SemiBold-4b" x="206.799957"/>
    </g>
   </g>
   <g id="text_46">
    <!-- Previous Period -->
    <g style="fill: #6b7280" transform="translate(534.51 399.066) scale(0.1 -0.1)">
     <use xlink:href="#Poppins-Regular-50"/>
     <use xlink:href="#Poppins-Regular-72" x="57.899994"/>
     <use xlink:href="#Poppins-Regular-65" x="95.199982"/>
     <use xlink:href="#Poppins-Regular-76" x="157.199966"/>
     <use xlink:href="#Poppins-Regular-69" x="213.299957"/>
     <use xlink:href="#Poppins-Regular-6f" x="237.899948"/>
     <use xlink:href="#Poppins-Regular-75" x="301.899933"/>
     <use xlink:href="#Poppins-Regular-73" x="365.899918"/>
     <use xlink:href="#Poppins-Regular-20" x="418.099915"/>
     <use xlink:href="#Poppins-Regular-50" x="444.799911"/>
     <use xlink:href="#Poppins-Regular-65" x="502.699905"/>
     <use xlink:href="#Poppins-Regular-72" x="564.69989"/>
     <use xlink:href="#Poppins-Regular-69" x="601.999878"/>
     <use xlink:href="#Poppins-Regular-6f" x="626.599869"/>
     <use xlink:href="#Poppins-Regular-64" x="690.599854"/>
    </g>
   </g>
   <g id="text_47">
    <!-- 3.53K -->
    <g style="fill: #4b5563" transform="translate(534.51 413.381625) scale(0.12 -0.12)">
     <use xlink:href="#Poppins-SemiBold-33"/>
     <use xlink:href="#Poppins-SemiBold-2e" x="59.899994"/>
     <use xlink:href="#Poppins-SemiBold-35" x="85.899979"/>
     <use xlink:href="#Poppins-SemiBold-33" x="150.299973"/>
     <use xlink:href="#Poppins-SemiBold-4b" x="210.199966"/>
    </g>
   </g>
   <g id="text_48">
    <!-- Diff -->
    <g style="fill: #6b7280" transform="translate(436.86 440.2995) scale(0.1 -0.1)">
     <use xlink:href="#Poppins-Regular-44"/>
     <use xlink:href="#Poppins-Regular-69" x="70.699982"/>
     <use xlink:href="#Poppins-Regular-66" x="95.299973"/>
     <use xlink:href="#Poppins-Regular-66" x="128.199966"/>
    </g>
   </g>
   <g id="text_49">
    <!-- -57.48 -->
    <g style="fill: #4b5563" transform="translate(576.450938 440.279187) scale(0.1 -0.1)">
     <use xlink:href="#Poppins-SemiBold-2d"/>
     <use xlink:href="#Poppins-SemiBold-35" x="58.299988"/>
     <use xlink:href="#Poppins-SemiBold-37" x="122.699982"/>
     <use xlink:href="#Poppins-SemiBold-2e" x="177.499969"/>
     <use xlink:href="#Poppins-SemiBold-34" x="203.499954"/>
     <use xlink:href="#Poppins-SemiBold-38" x="269.599945"/>
    </g>
   </g>
   <g id="text_50">
    <!-- Pct Diff -->
    <g style="fill: #6b7280" transform="translate(436.86 460.1655) scale(0.1 -0.1)">
     <use xlink:href="#Poppins-Regular-50"/>
     <use xlink:href="#Poppins-Regular-63" x="57.899994"/>
     <use xlink:href="#Poppins-Regular-74" x="118.599991"/>
     <use xlink:href="#Poppins-Regular-20" x="154.999985"/>
     <use xlink:href="#Poppins-Regular-44" x="181.699982"/>
     <use xlink:href="#Poppins-Regular-69" x="252.399963"/>
     <use xlink:href="#Poppins-Regular-66" x="276.999954"/>
     <use xlink:href="#Poppins-Regular-66" x="309.899948"/>
    </g>
   </g>
   <g id="text_51">
    <!-- -1.6% -->
    <g style="fill: #4b5563" transform="translate(583.099375 460.145187) scale(0.1 -0.1)">
     <use xlink:href="#Poppins-SemiBold-2d"/>
     <use xlink:href="#Poppins-SemiBold-31" x="58.299988"/>
     <use xlink:href="#Poppins-SemiBold-2e" x="94.499985"/>
     <use xlink:href="#Poppins-SemiBold-36" x="120.499969"/>
     <use xlink:href="#Poppins-SemiBold-25" x="184.499954"/>
    </g>
   </g>
   <g id="text_52">
    <!-- Contribution -->
    <g style="fill: #6b7280" transform="translate(436.86 480.0315) scale(0.1 -0.1)">
     <use xlink:href="#Poppins-Regular-43"/>
     <use xlink:href="#Poppins-Regular-6f" x="77.199982"/>
     <use xlink:href="#Poppins-Regular-6e" x="141.199966"/>
     <use xlink:href="#Poppins-Regular-74" x="205.199951"/>
     <use xlink:href="#Poppins-Regular-72" x="241.599945"/>
     <use xlink:href="#Poppins-Regular-69" x="278.899933"/>
     <use xlink:href="#Poppins-Regular-62" x="303.499924"/>
     <use xlink:href="#Poppins-Regular-75" x="371.099915"/>
     <use xlink:href="#Poppins-Regular-74" x="435.099899"/>
     <use xlink:href="#Poppins-Regular-69" x="471.499893"/>
     <use xlink:href="#Poppins-Regular-6f" x="496.099884"/>
     <use xlink:href="#Poppins-Regular-6e" x="560.099869"/>
    </g>
   </g>
   <g id="text_53">
    <!-- -599.63K -->
    <g style="fill: #4b5563" transform="translate(563.430625 480.011188) scale(0.1 -0.1)">
     <use xlink:href="#Poppins-SemiBold-2d"/>
     <use xlink:href="#Poppins-SemiBold-35" x="58.299988"/>
     <use xlink:href="#Poppins-SemiBold-39" x="122.699982"/>
     <use xlink:href="#Poppins-SemiBold-39" x="185.299973"/>
     <use xlink:href="#Poppins-SemiBold-2e" x="247.899963"/>
     <use xlink:href="#Poppins-SemiBold-36" x="273.899948"/>
     <use xlink:href="#Poppins-SemiBold-33" x="337.899933"/>
     <use xlink:href="#Poppins-SemiBold-4b" x="397.799927"/>
    </g>
   </g>
   <g id="text_54">
    <!-- Units / Visit -->
    <g style="fill: #ffffff" transform="translate(297.36 543.716063) scale(0.12 -0.12)">
     <defs>
      <path id="Poppins-SemiBold-55" d="M 1325 4467
L 1325 1702
Q 1325 1248 1561 1008
Q 1798 768 2227 768
Q 2662 768 2899 1008
Q 3136 1248 3136 1702
L 3136 4467
L 4038 4467
L 4038 1709
Q 4038 1139 3792 745
Q 3546 352 3133 153
Q 2720 -45 2214 -45
Q 1715 -45 1308 153
Q 902 352 665 745
Q 429 1139 429 1709
L 429 4467
L 1325 4467
z
" transform="scale(0.015625)"/>
     </defs>
     <use xlink:href="#Poppins-SemiBold-55"/>
     <use xlink:href="#Poppins-SemiBold-6e" x="69.699982"/>
     <use xlink:href="#Poppins-SemiBold-69" x="135.799973"/>
     <use xlink:href="#Poppins-SemiBold-74" x="163.59996"/>
     <use xlink:href="#Poppins-SemiBold-73" x="202.399948"/>
     <use xlink:href="#Poppins-SemiBold-20" x="256.899933"/>
     <use xlink:href="#Poppins-SemiBold-2f" x="280.699921"/>
     <use xlink:href="#Poppins-SemiBold-20" x="329.299911"/>
     <use xlink:href="#Poppins-SemiBold-56" x="353.099899"/>
     <use xlink:href="#Poppins-SemiBold-69" x="424.19989"/>
     <use xlink:href="#Poppins-SemiBold-73" x="451.999878"/>
     <use xlink:href="#Poppins-SemiBold-69" x="506.499863"/>
     <use xlink:href="#Poppins-SemiBold-74" x="534.29985"/>
    </g>
   </g>
   <g id="text_55">
    <!-- Current Period -->
    <g style="fill: #6b7280" transform="translate(297.36 570.93) scale(0.1 -0.1)">
     <use xlink:href="#Poppins-Regular-43"/>
     <use xlink:href="#Poppins-Regular-75" x="77.199982"/>
     <use xlink:href="#Poppins-Regular-72" x="141.199966"/>
     <use xlink:href="#Poppins-Regular-72" x="178.499954"/>
     <use xlink:href="#Poppins-Regular-65" x="215.799942"/>
     <use xlink:href="#Poppins-Regular-6e" x="277.799927"/>
     <use xlink:href="#Poppins-Regular-74" x="341.799911"/>
     <use xlink:href="#Poppins-Regular-20" x="378.199905"/>
     <use xlink:href="#Poppins-Regular-50" x="404.899902"/>
     <use xlink:href="#Poppins-Regular-65" x="462.799896"/>
     <use xlink:href="#Poppins-Regular-72" x="524.799881"/>
     <use xlink:href="#Poppins-Regular-69" x="562.099869"/>
     <use xlink:href="#Poppins-Regular-6f" x="586.69986"/>
     <use xlink:href="#Poppins-Regular-64" x="650.699844"/>
    </g>
   </g>
   <g id="text_56">
    <!-- 8.79 -->
    <g style="fill: #4b5563" transform="translate(297.36 585.245625) scale(0.12 -0.12)">
     <use xlink:href="#Poppins-SemiBold-38"/>
     <use xlink:href="#Poppins-SemiBold-2e" x="64.299988"/>
     <use xlink:href="#Poppins-SemiBold-37" x="90.299973"/>
     <use xlink:href="#Poppins-SemiBold-39" x="145.09996"/>
    </g>
   </g>
   <g id="text_57">
    <!-- Previous Period -->
    <g style="fill: #6b7280" transform="translate(395.01 570.93) scale(0.1 -0.1)">
     <use xlink:href="#Poppins-Regular-50"/>
     <use xlink:href="#Poppins-Regular-72" x="57.899994"/>
     <use xlink:href="#Poppins-Regular-65" x="95.199982"/>
     <use xlink:href="#Poppins-Regular-76" x="157.199966"/>
     <use xlink:href="#Poppins-Regular-69" x="213.299957"/>
     <use xlink:href="#Poppins-Regular-6f" x="237.899948"/>
     <use xlink:href="#Poppins-Regular-75" x="301.899933"/>
     <use xlink:href="#Poppins-Regular-73" x="365.899918"/>
     <use xlink:href="#Poppins-Regular-20" x="418.099915"/>
     <use xlink:href="#Poppins-Regular-50" x="444.799911"/>
     <use xlink:href="#Poppins-Regular-65" x="502.699905"/>
     <use xlink:href="#Poppins-Regular-72" x="564.69989"/>
     <use xlink:href="#Poppins-Regular-69" x="601.999878"/>
     <use xlink:href="#Poppins-Regular-6f" x="626.599869"/>
     <use xlink:href="#Poppins-Regular-64" x="690.599854"/>
    </g>
   </g>
   <g id="text_58">
    <!-- 8.78 -->
    <g style="fill: #4b5563" transform="translate(395.01 585.245625) scale(0.12 -0.12)">
     <use xlink:href="#Poppins-SemiBold-38"/>
     <use xlink:href="#Poppins-SemiBold-2e" x="64.299988"/>
     <use xlink:href="#Poppins-SemiBold-37" x="90.299973"/>
     <use xlink:href="#Poppins-SemiBold-38" x="145.09996"/>
    </g>
   </g>
   <g id="text_59">
    <!-- Diff -->
    <g style="fill: #6b7280" transform="translate(297.36 612.1635) scale(0.1 -0.1)">
     <use xlink:href="#Poppins-Regular-44"/>
     <use xlink:href="#Poppins-Regular-69" x="70.699982"/>
     <use xlink:href="#Poppins-Regular-66" x="95.299973"/>
     <use xlink:href="#Poppins-Regular-66" x="128.199966"/>
    </g>
   </g>
   <g id="text_60">
    <!-- 0 -->
    <g style="fill: #4b5563" transform="translate(463.880625 612.143187) scale(0.1 -0.1)">
     <use xlink:href="#Poppins-SemiBold-30"/>
    </g>
   </g>
   <g id="text_61">
    <!-- Pct Diff -->
    <g style="fill: #6b7280" transform="translate(297.36 632.0295) scale(0.1 -0.1)">
     <use xlink:href="#Poppins-Regular-50"/>
     <use xlink:href="#Poppins-Regular-63" x="57.899994"/>
     <use xlink:href="#Poppins-Regular-74" x="118.599991"/>
     <use xlink:href="#Poppins-Regular-20" x="154.999985"/>
     <use xlink:href="#Poppins-Regular-44" x="181.699982"/>
     <use xlink:href="#Poppins-Regular-69" x="252.399963"/>
     <use xlink:href="#Poppins-Regular-66" x="276.999954"/>
     <use xlink:href="#Poppins-Regular-66" x="309.899948"/>
    </g>
   </g>
   <g id="text_62">
    <!-- 0.0% -->
    <g style="fill: #4b5563" transform="translate(446.530625 632.009187) scale(0.1 -0.1)">
     <use xlink:href="#Poppins-SemiBold-30"/>
     <use xlink:href="#Poppins-SemiBold-2e" x="64.599991"/>
     <use xlink:href="#Poppins-SemiBold-30" x="90.599976"/>
     <use xlink:href="#Poppins-SemiBold-25" x="155.199966"/>
    </g>
   </g>
   <g id="text_63">
    <!-- Contribution -->
    <g style="fill: #6b7280" transform="translate(297.36 651.8955) scale(0.1 -0.1)">
     <use xlink:href="#Poppins-Regular-43"/>
     <use xlink:href="#Poppins-Regular-6f" x="77.199982"/>
     <use xlink:href="#Poppins-Regular-6e" x="141.199966"/>
     <use xlink:href="#Poppins-Regular-74" x="205.199951"/>
     <use xlink:href="#Poppins-Regular-72" x="241.599945"/>
     <use xlink:href="#Poppins-Regular-69" x="278.899933"/>
     <use xlink:href="#Poppins-Regular-62" x="303.499924"/>
     <use xlink:href="#Poppins-Regular-75" x="371.099915"/>
     <use xlink:href="#Poppins-Regular-74" x="435.099899"/>
     <use xlink:href="#Poppins-Regular-69" x="471.499893"/>
     <use xlink:href="#Poppins-Regular-6f" x="496.099884"/>
     <use xlink:href="#Poppins-Regular-6e" x="560.099869"/>
    </g>
   </g>
   <g id="text_64">
    <!-- 108.77K -->
    <g style="fill: #4b5563" transform="translate(433.641563 651.875188) scale(0.1 -0.1)">
     <use xlink:href="#Poppins-SemiBold-31"/>
     <use xlink:href="#Poppins-SemiBold-30" x="36.199997"/>
     <use xlink:href="#Poppins-SemiBold-38" x="100.799988"/>
     <use xlink:href="#Poppins-SemiBold-2e" x="165.099976"/>
     <use xlink:href="#Poppins-SemiBold-37" x="191.09996"/>
     <use xlink:href="#Poppins-SemiBold-37" x="245.899948"/>
     <use xlink:href="#Poppins-SemiBold-4b" x="300.699936"/>
    </g>
   </g>
   <g id="text_65">
    <!-- Price / Unit -->
    <g style="fill: #ffffff" transform="translate(576.36 543.716063) scale(0.12 -0.12)">
     <defs>
      <path id="Poppins-SemiBold-50" d="M 3699 3085
Q 3699 2726 3529 2412
Q 3360 2099 2998 1907
Q 2637 1715 2086 1715
L 1338 1715
L 1338 0
L 442 0
L 442 4467
L 2086 4467
Q 2605 4467 2969 4288
Q 3334 4109 3516 3795
Q 3699 3482 3699 3085
z
M 2048 2438
Q 2419 2438 2598 2608
Q 2778 2778 2778 3085
Q 2778 3738 2048 3738
L 1338 3738
L 1338 2438
L 2048 2438
z
" transform="scale(0.015625)"/>
      <path id="Poppins-SemiBold-63" d="M 211 1773
Q 211 2323 435 2736
Q 659 3149 1056 3376
Q 1453 3603 1965 3603
Q 2624 3603 3056 3273
Q 3488 2944 3635 2349
L 2669 2349
Q 2592 2579 2409 2710
Q 2227 2842 1958 2842
Q 1574 2842 1350 2563
Q 1126 2285 1126 1773
Q 1126 1267 1350 988
Q 1574 710 1958 710
Q 2502 710 2669 1197
L 3635 1197
Q 3488 621 3053 281
Q 2618 -58 1965 -58
Q 1453 -58 1056 169
Q 659 397 435 809
Q 211 1222 211 1773
z
" transform="scale(0.015625)"/>
     </defs>
     <use xlink:href="#Poppins-SemiBold-50"/>
     <use xlink:href="#Poppins-SemiBold-72" x="60.799988"/>
     <use xlink:href="#Poppins-SemiBold-69" x="101.199982"/>
     <use xlink:href="#Poppins-SemiBold-63" x="128.999969"/>
     <use xlink:href="#Poppins-SemiBold-65" x="189.199966"/>
     <use xlink:href="#Poppins-SemiBold-20" x="250.899963"/>
     <use xlink:href="#Poppins-SemiBold-2f" x="274.699951"/>
     <use xlink:href="#Poppins-SemiBold-20" x="323.299942"/>
     <use xlink:href="#Poppins-SemiBold-55" x="347.09993"/>
     <use xlink:href="#Poppins-SemiBold-6e" x="416.799911"/>
     <use xlink:href="#Poppins-SemiBold-69" x="482.899902"/>
     <use xlink:href="#Poppins-SemiBold-74" x="510.69989"/>
    </g>
   </g>
   <g id="text_66">
    <!-- Current Period -->
    <g style="fill: #6b7280" transform="translate(576.36 570.93) scale(0.1 -0.1)">
     <use xlink:href="#Poppins-Regular-43"/>
     <use xlink:href="#Poppins-Regular-75" x="77.199982"/>
     <use xlink:href="#Poppins-Regular-72" x="141.199966"/>
     <use xlink:href="#Poppins-Regular-72" x="178.499954"/>
     <use xlink:href="#Poppins-Regular-65" x="215.799942"/>
     <use xlink:href="#Poppins-Regular-6e" x="277.799927"/>
     <use xlink:href="#Poppins-Regular-74" x="341.799911"/>
     <use xlink:href="#Poppins-Regular-20" x="378.199905"/>
     <use xlink:href="#Poppins-Regular-50" x="404.899902"/>
     <use xlink:href="#Poppins-Regular-65" x="462.799896"/>
     <use xlink:href="#Poppins-Regular-72" x="524.799881"/>
     <use xlink:href="#Poppins-Regular-69" x="562.099869"/>
     <use xlink:href="#Poppins-Regular-6f" x="586.69986"/>
     <use xlink:href="#Poppins-Regular-64" x="650.699844"/>
    </g>
   </g>
   <g id="text_67">
    <!-- 394.74 -->
    <g style="fill: #4b5563" transform="translate(576.36 585.245625) scale(0.12 -0.12)">
     <use xlink:href="#Poppins-SemiBold-33"/>
     <use xlink:href="#Poppins-SemiBold-39" x="59.899994"/>
     <use xlink:href="#Poppins-SemiBold-34" x="122.499985"/>
     <use xlink:href="#Poppins-SemiBold-2e" x="188.599976"/>
     <use xlink:href="#Poppins-SemiBold-37" x="214.59996"/>
     <use xlink:href="#Poppins-SemiBold-34" x="269.399948"/>
    </g>
   </g>
   <g id="text_68">
    <!-- Previous Period -->
    <g style="fill: #6b7280" transform="translate(674.01 570.93) scale(0.1 -0.1)">
     <use xlink:href="#Poppins-Regular-50"/>
     <use xlink:href="#Poppins-Regular-72" x="57.899994"/>
     <use xlink:href="#Poppins-Regular-65" x="95.199982"/>
     <use xlink:href="#Poppins-Regular-76" x="157.199966"/>
     <use xlink:href="#Poppins-Regular-69" x="213.299957"/>
     <use xlink:href="#Poppins-Regular-6f" x="237.899948"/>
     <use xlink:href="#Poppins-Regular-75" x="301.899933"/>
     <use xlink:href="#Poppins-Regular-73" x="365.899918"/>
     <use xlink:href="#Poppins-Regular-20" x="418.099915"/>
     <use xlink:href="#Poppins-Regular-50" x="444.799911"/>
     <use xlink:href="#Poppins-Regular-65" x="502.699905"/>
     <use xlink:href="#Poppins-Regular-72" x="564.69989"/>
     <use xlink:href="#Poppins-Regular-69" x="601.999878"/>
     <use xlink:href="#Poppins-Regular-6f" x="626.599869"/>
     <use xlink:href="#Poppins-Regular-64" x="690.599854"/>
    </g>
   </g>
   <g id="text_69">
    <!-- 401.39 -->
    <g style="fill: #4b5563" transform="translate(674.01 585.245625) scale(0.12 -0.12)">
     <use xlink:href="#Poppins-SemiBold-34"/>
     <use xlink:href="#Poppins-SemiBold-30" x="66.099991"/>
     <use xlink:href="#Poppins-SemiBold-31" x="130.699982"/>
     <use xlink:href="#Poppins-SemiBold-2e" x="166.899979"/>
     <use xlink:href="#Poppins-SemiBold-33" x="192.899963"/>
     <use xlink:href="#Poppins-SemiBold-39" x="252.799957"/>
    </g>
   </g>
   <g id="text_70">
    <!-- Diff -->
    <g style="fill: #6b7280" transform="translate(576.36 612.1635) scale(0.1 -0.1)">
     <use xlink:href="#Poppins-Regular-44"/>
     <use xlink:href="#Poppins-Regular-69" x="70.699982"/>
     <use xlink:href="#Poppins-Regular-66" x="95.299973"/>
     <use xlink:href="#Poppins-Regular-66" x="128.199966"/>
    </g>
   </g>
   <g id="text_71">
    <!-- -6.65 -->
    <g style="fill: #4b5563" transform="translate(721.669688 612.143187) scale(0.1 -0.1)">
     <use xlink:href="#Poppins-SemiBold-2d"/>
     <use xlink:href="#Poppins-SemiBold-36" x="58.299988"/>
     <use xlink:href="#Poppins-SemiBold-2e" x="122.299973"/>
     <use xlink:href="#Poppins-SemiBold-36" x="148.299957"/>
     <use xlink:href="#Poppins-SemiBold-35" x="212.299942"/>
    </g>
   </g>
   <g id="text_72">
    <!-- Pct Diff -->
    <g style="fill: #6b7280" transform="translate(576.36 632.0295) scale(0.1 -0.1)">
     <use xlink:href="#Poppins-Regular-50"/>
     <use xlink:href="#Poppins-Regular-63" x="57.899994"/>
     <use xlink:href="#Poppins-Regular-74" x="118.599991"/>
     <use xlink:href="#Poppins-Regular-20" x="154.999985"/>
     <use xlink:href="#Poppins-Regular-44" x="181.699982"/>
     <use xlink:href="#Poppins-Regular-69" x="252.399963"/>
     <use xlink:href="#Poppins-Regular-66" x="276.999954"/>
     <use xlink:href="#Poppins-Regular-66" x="309.899948"/>
    </g>
   </g>
   <g id="text_73">
    <!-- -1.7% -->
    <g style="fill: #4b5563" transform="translate(723.519688 632.009187) scale(0.1 -0.1)">
     <use xlink:href="#Poppins-SemiBold-2d"/>
     <use xlink:href="#Poppins-SemiBold-31" x="58.299988"/>
     <use xlink:href="#Poppins-SemiBold-2e" x="94.499985"/>
     <use xlink:href="#Poppins-SemiBold-37" x="120.499969"/>
     <use xlink:href="#Poppins-SemiBold-25" x="175.299957"/>
    </g>
   </g>
   <g id="text_74">
    <!-- Contribution -->
    <g style="fill: #6b7280" transform="translate(576.36 651.8955) scale(0.1 -0.1)">
     <use xlink:href="#Poppins-Regular-43"/>
     <use xlink:href="#Poppins-Regular-6f" x="77.199982"/>
     <use xlink:href="#Poppins-Regular-6e" x="141.199966"/>
     <use xlink:href="#Poppins-Regular-74" x="205.199951"/>
     <use xlink:href="#Poppins-Regular-72" x="241.599945"/>
     <use xlink:href="#Poppins-Regular-69" x="278.899933"/>
     <use xlink:href="#Poppins-Regular-62" x="303.499924"/>
     <use xlink:href="#Poppins-Regular-75" x="371.099915"/>
     <use xlink:href="#Poppins-Regular-74" x="435.099899"/>
     <use xlink:href="#Poppins-Regular-69" x="471.499893"/>
     <use xlink:href="#Poppins-Regular-6f" x="496.099884"/>
     <use xlink:href="#Poppins-Regular-6e" x="560.099869"/>
    </g>
   </g>
   <g id="text_75">
    <!-- -708.4K -->
    <g style="fill: #4b5563" transform="translate(709.3025 651.875188) scale(0.1 -0.1)">
     <use xlink:href="#Poppins-SemiBold-2d"/>
     <use xlink:href="#Poppins-SemiBold-37" x="58.299988"/>
     <use xlink:href="#Poppins-SemiBold-30" x="113.099976"/>
     <use xlink:href="#Poppins-SemiBold-38" x="177.699966"/>
     <use xlink:href="#Poppins-SemiBold-2e" x="241.999954"/>
     <use xlink:href="#Poppins-SemiBold-34" x="267.999939"/>
     <use xlink:href="#Poppins-SemiBold-4b" x="334.09993"/>
    </g>
   </g>
   <g id="line2d_1">
    <path d="M 146.7 41.85
L 342 41.85
" clip-path="url(#p4795c63ffa)" style="fill: none; stroke: #e5e7eb; stroke-width: 1.5; stroke-linecap: square"/>
   </g>
   <g id="line2d_2">
    <path d="M 157.86 79.272
L 330.84 79.272
" clip-path="url(#p4795c63ffa)" style="fill: none; stroke: #e5e7eb; stroke-linecap: square"/>
   </g>
   <g id="line2d_3">
    <path d="M 7.2 213.714
L 202.5 213.714
" clip-path="url(#p4795c63ffa)" style="fill: none; stroke: #e5e7eb; stroke-width: 1.5; stroke-linecap: square"/>
   </g>
   <g id="line2d_4">
    <path d="M 18.36 251.136
L 191.34 251.136
" clip-path="url(#p4795c63ffa)" style="fill: none; stroke: #e5e7eb; stroke-linecap: square"/>
   </g>
   <g id="line2d_5">
    <path d="M 286.2 213.714
L 481.5 213.714
" clip-path="url(#p4795c63ffa)" style="fill: none; stroke: #e5e7eb; stroke-width: 1.5; stroke-linecap: square"/>
   </g>
   <g id="line2d_6">
    <path d="M 297.36 251.136
L 470.34 251.136
" clip-path="url(#p4795c63ffa)" style="fill: none; stroke: #e5e7eb; stroke-linecap: square"/>
   </g>
   <g id="line2d_7">
    <path d="M 146.7 385.578
L 342 385.578
" clip-path="url(#p4795c63ffa)" style="fill: none; stroke: #e5e7eb; stroke-width: 1.5; stroke-linecap: square"/>
   </g>
   <g id="line2d_8">
    <path d="M 157.86 423
L 330.84 423
" clip-path="url(#p4795c63ffa)" style="fill: none; stroke: #e5e7eb; stroke-linecap: square"/>
   </g>
   <g id="line2d_9">
    <path d="M 425.7 385.578
L 621 385.578
" clip-path="url(#p4795c63ffa)" style="fill: none; stroke: #e5e7eb; stroke-width: 1.5; stroke-linecap: square"/>
   </g>
   <g id="line2d_10">
    <path d="M 436.86 423
L 609.84 423
" clip-path="url(#p4795c63ffa)" style="fill: none; stroke: #e5e7eb; stroke-linecap: square"/>
   </g>
   <g id="line2d_11">
    <path d="M 286.2 557.442
L 481.5 557.442
" clip-path="url(#p4795c63ffa)" style="fill: none; stroke: #e5e7eb; stroke-width: 1.5; stroke-linecap: square"/>
   </g>
   <g id="line2d_12">
    <path d="M 297.36 594.864
L 470.34 594.864
" clip-path="url(#p4795c63ffa)" style="fill: none; stroke: #e5e7eb; stroke-linecap: square"/>
   </g>
   <g id="line2d_13">
    <path d="M 565.2 557.442
L 760.5 557.442
" clip-path="url(#p4795c63ffa)" style="fill: none; stroke: #e5e7eb; stroke-width: 1.5; stroke-linecap: square"/>
   </g>
   <g id="line2d_14">
    <path d="M 576.36 594.864
L 749.34 594.864
" clip-path="url(#p4795c63ffa)" style="fill: none; stroke: #e5e7eb; stroke-linecap: square"/>
   </g>
  </g>
 </g>
 <defs>
  <clipPath id="p4795c63ffa">
   <rect x="7.2" y="7.2" width="753.3" height="654.192"/>
  </clipPath>
 </defs>
</svg>
