<svg xmlns:xlink="http://www.w3.org/1999/xlink" width="611.987" height="514.347" viewBox="0 0 458.99 385.76" xmlns="http://www.w3.org/2000/svg"><defs><style>*{stroke-linejoin:round;stroke-linecap:butt}</style></defs><g id="prefix__figure_1"><path d="M0 385.76h458.99V0H0z" fill="#fff" id="prefix__patch_1"/><g id="prefix__axes_1"><path d="M61.19 334.2h390.6V57H61.19z" fill="#fff" id="prefix__patch_2"/><path d="M61.19 334.2h390.6" clip-path="url(#prefix__padd77d2c1e)" fill="none" stroke="#000" stroke-linecap="square" id="prefix__line2d_1"/><path d="M83.9 334.2h72.67V164.8H83.9z" clip-path="url(#prefix__padd77d2c1e)" fill="#22c55e" id="prefix__patch_3"/><path d="M174.737 164.8h72.67V57h-72.67z" clip-path="url(#prefix__padd77d2c1e)" fill="#22c55e" id="prefix__patch_4"/><path d="M265.574 57h72.67v98.047h-72.67z" clip-path="url(#prefix__padd77d2c1e)" fill="#ef4444" id="prefix__patch_5"/><path d="M356.41 334.2h72.67V155.047h-72.67z" clip-path="url(#prefix__padd77d2c1e)" fill="#3b82f6" id="prefix__patch_6"/><g id="prefix__matplotlib_axis_1"><g id="prefix__xtick_1"><path d="M120.234 334.2V57" clip-path="url(#prefix__padd77d2c1e)" fill="none" stroke="#dad8d7" stroke-opacity=".5" stroke-width=".8" stroke-linecap="square" id="prefix__line2d_2"/><g id="prefix__line2d_3"><defs><path id="prefix__m68877d610e" d="M0 0v3.5" stroke="#000" stroke-width=".8"/></defs><use xlink:href="#prefix__m68877d610e" x="120.234" y="334.2" stroke="#000" stroke-width=".8"/></g><g transform="matrix(.1 0 0 -.1 109.52 348.6)" id="prefix__text_1"><defs><path id="prefix__Poppins-Regular-4e" d="M4000 0h-582L1075 3552V0H493v4467h582L3418 922v3545h582V0z" transform="scale(.01563)"/><path id="prefix__Poppins-Regular-65" d="M3693 1888q0-166-19-352H870q32-518 355-810 324-291 785-291 377 0 630 176t355 471h627q-140-506-563-823Q2637-58 2010-58q-500 0-894 224-393 224-617 637t-224 957q0 544 217 953 218 410 612 631t906 221q499 0 883-218 384-217 592-598t208-861zm-602 122q0 332-147 572t-400 365q-253 125-560 125-442 0-752-282-310-281-355-780h2214z" transform="scale(.01563)"/><path id="prefix__Poppins-Regular-77" d="M5165 3507L4070 0h-601l-845 2784L1779 0h-601L77 3507h595l806-2944 871 2944h595l851-2950 794 2950h576z" transform="scale(.01563)"/></defs><use xlink:href="#prefix__Poppins-Regular-4e"/><use xlink:href="#prefix__Poppins-Regular-65" x="70.3"/><use xlink:href="#prefix__Poppins-Regular-77" x="132.3"/></g></g><g id="prefix__xtick_2"><path d="M211.071 334.2V57" clip-path="url(#prefix__padd77d2c1e)" fill="none" stroke="#dad8d7" stroke-opacity=".5" stroke-width=".8" stroke-linecap="square" id="prefix__line2d_4"/><use xlink:href="#prefix__m68877d610e" x="211.071" y="334.2" stroke="#000" stroke-width=".8" id="prefix__line2d_5"/><g transform="matrix(.1 0 0 -.1 180.352 348.81)" id="prefix__text_2"><defs><path id="prefix__Poppins-Regular-43" d="M275 2234q0 652 294 1174 295 522 804 816t1129 294q730 0 1274-352t794-998h-698q-186 403-535 620-348 218-835 218-467 0-838-218-371-217-583-617-211-400-211-937 0-532 211-932 212-400 583-618 371-217 838-217 487 0 835 214 349 215 535 618h698q-250-640-794-989Q3232-38 2502-38q-620 0-1129 291t-804 809q-294 519-294 1172z" transform="scale(.01563)"/><path id="prefix__Poppins-Regular-6f" d="M2022-58q-492 0-892 224T502 803q-227 413-227 957 0 538 233 950 234 413 637 634 404 221 903 221t902-221q404-221 637-631 234-409 234-953t-240-957q-240-413-650-637-409-224-909-224zm0 512q314 0 589 147 275 148 445 442 170 295 170 717t-167 716q-166 295-435 439t-582 144q-320 0-586-144t-426-439q-160-294-160-716 0-429 157-724 157-294 419-438 263-144 576-144z" transform="scale(.01563)"/><path id="prefix__Poppins-Regular-6e" d="M2202 3571q640 0 1036-387 397-387 397-1117V0h-576v1984q0 525-263 803-262 279-716 279-461 0-733-288t-272-839V0H493v3507h582v-499q173 269 470 416 298 147 657 147z" transform="scale(.01563)"/><path id="prefix__Poppins-Regular-74" d="M1203 3027V960q0-256 109-362 109-105 378-105h428V0h-524q-487 0-730 224T621 960v2067H166v480h455v883h582v-883h915v-480h-915z" transform="scale(.01563)"/><path id="prefix__Poppins-Regular-69" d="M794 4077q-167 0-282 115t-115 282q0 166 115 281t282 115q160 0 272-115t112-281q0-167-112-282t-272-115zm281-570V0H493v3507h582z" transform="scale(.01563)"/><path id="prefix__Poppins-Regular-75" d="M3603 3507V0h-582v518q-167-268-465-419-297-150-655-150-410 0-737 169-326 170-515 509-188 339-188 826v2054h576V1530q0-519 262-798 263-278 717-278 467 0 736 288t269 839v1926h582z" transform="scale(.01563)"/><path id="prefix__Poppins-Regular-67" d="M1939 3565q455 0 797-199 342-198 509-499v640h589V-77q0-480-205-854-205-375-586-586t-886-211q-691 0-1152 327-461 326-544 889h576q96-320 396-515 301-195 724-195 480 0 784 301 304 300 304 844v736q-173-307-512-512T1939-58q-467 0-848 230-381 231-599 647-217 416-217 947 0 538 217 944 218 407 599 631t848 224zm1306-1805q0 397-160 691-160 295-432 451-272 157-599 157-326 0-595-154-269-153-429-448-160-294-160-691 0-403 160-701 160-297 429-454t595-157q327 0 599 157t432 454q160 298 160 695z" transform="scale(.01563)"/></defs><use xlink:href="#prefix__Poppins-Regular-43"/><use xlink:href="#prefix__Poppins-Regular-6f" x="77.2"/><use xlink:href="#prefix__Poppins-Regular-6e" x="141.2"/><use xlink:href="#prefix__Poppins-Regular-74" x="205.2"/><use xlink:href="#prefix__Poppins-Regular-69" x="241.6"/><use xlink:href="#prefix__Poppins-Regular-6e" x="266.2"/><use xlink:href="#prefix__Poppins-Regular-75" x="330.2"/><use xlink:href="#prefix__Poppins-Regular-6e" x="394.2"/><use xlink:href="#prefix__Poppins-Regular-69" x="458.2"/><use xlink:href="#prefix__Poppins-Regular-6e" x="482.8"/><use xlink:href="#prefix__Poppins-Regular-67" x="546.8"/></g></g><g id="prefix__xtick_3"><path d="M301.909 334.2V57" clip-path="url(#prefix__padd77d2c1e)" fill="none" stroke="#dad8d7" stroke-opacity=".5" stroke-width=".8" stroke-linecap="square" id="prefix__line2d_6"/><use xlink:href="#prefix__m68877d610e" x="301.909" y="334.2" stroke="#000" stroke-width=".8" id="prefix__line2d_7"/><g transform="matrix(.1 0 0 -.1 280.104 348.6)" id="prefix__text_3"><defs><path id="prefix__Poppins-Regular-68" d="M2234 3571q396 0 716-170 320-169 502-508 183-339 183-826V0h-576v1984q0 525-263 803-262 279-716 279-461 0-733-288t-272-839V0H493v4736h582V3008q173 269 477 416t682 147z" transform="scale(.01563)"/><path id="prefix__Poppins-Regular-72" d="M1075 2938q154 300 438 466 285 167 695 167v-601h-154q-979 0-979-1063V0H493v3507h582v-569z" transform="scale(.01563)"/><path id="prefix__Poppins-Regular-64" d="M275 1766q0 538 217 944 218 407 599 631t855 224q409 0 761-189t538-496v1856h589V0h-589v659q-173-313-512-515T1939-58q-467 0-848 230-381 231-599 647-217 416-217 947zm2970-6q0 397-160 691-160 295-432 451-272 157-599 157-326 0-595-154-269-153-429-448-160-294-160-691 0-403 160-701 160-297 429-454t595-157q327 0 599 157t432 454q160 298 160 695z" transform="scale(.01563)"/></defs><use xlink:href="#prefix__Poppins-Regular-43"/><use xlink:href="#prefix__Poppins-Regular-68" x="77.2"/><use xlink:href="#prefix__Poppins-Regular-75" x="141.2"/><use xlink:href="#prefix__Poppins-Regular-72" x="205.2"/><use xlink:href="#prefix__Poppins-Regular-6e" x="242.5"/><use xlink:href="#prefix__Poppins-Regular-65" x="306.5"/><use xlink:href="#prefix__Poppins-Regular-64" x="368.5"/></g></g><g id="prefix__xtick_4"><path d="M392.746 334.2V57" clip-path="url(#prefix__padd77d2c1e)" fill="none" stroke="#dad8d7" stroke-opacity=".5" stroke-width=".8" stroke-linecap="square" id="prefix__line2d_8"/><use xlink:href="#prefix__m68877d610e" x="392.746" y="334.2" stroke="#000" stroke-width=".8" id="prefix__line2d_9"/><g transform="matrix(.1 0 0 -.1 384.31 348.6)" id="prefix__text_4"><use xlink:href="#prefix__Poppins-Regular-4e"/><use xlink:href="#prefix__Poppins-Regular-65" x="70.3"/><use xlink:href="#prefix__Poppins-Regular-74" x="132.3"/></g></g></g><g id="prefix__matplotlib_axis_2"><g id="prefix__ytick_1"><path d="M61.19 334.2h390.6" clip-path="url(#prefix__padd77d2c1e)" fill="none" stroke="#dad8d7" stroke-opacity=".5" stroke-width=".8" stroke-linecap="square" id="prefix__line2d_10"/><g id="prefix__line2d_11"><defs><path id="prefix__m71042191c1" d="M0 0h-3.5" stroke="#000" stroke-width=".8"/></defs><use xlink:href="#prefix__m71042191c1" x="61.19" y="334.2" stroke="#000" stroke-width=".8"/></g><g transform="matrix(.1 0 0 -.1 47.91 337.9)" id="prefix__text_5"><defs><path id="prefix__Poppins-Regular-30" d="M397 2362q0 1100 358 1718 359 618 1255 618 889 0 1247-618 359-618 359-1718 0-1120-359-1741Q2899 0 2010 0 1114 0 755 621q-358 621-358 1741zm2643 0q0 556-74 943-73 388-301 624-227 237-655 237-436 0-663-237-227-236-301-624-73-387-73-943 0-576 73-967 74-390 301-627t663-237q428 0 655 237 228 237 301 627 74 391 74 967z" transform="scale(.01563)"/></defs><use xlink:href="#prefix__Poppins-Regular-30"/></g></g><g id="prefix__ytick_2"><path d="M61.19 282.867h390.6" clip-path="url(#prefix__padd77d2c1e)" fill="none" stroke="#dad8d7" stroke-opacity=".5" stroke-width=".8" stroke-linecap="square" id="prefix__line2d_12"/><use xlink:href="#prefix__m71042191c1" x="61.19" y="282.867" stroke="#000" stroke-width=".8" id="prefix__line2d_13"/><g transform="matrix(.1 0 0 -.1 29.89 286.567)" id="prefix__text_6"><defs><path id="prefix__Poppins-Regular-32" d="M326 467q813 653 1274 1072t777 877q317 458 317 899 0 416-202 656-201 240-649 240-435 0-675-272t-259-726H346q25 717 434 1107 410 390 1057 390 659 0 1046-365 387-364 387-1004 0-531-317-1034-316-502-720-883-403-381-1030-886h2202V51H326v416z" transform="scale(.01563)"/><path id="prefix__Poppins-Regular-4b" d="M2912 0L1075 2035V0H493v4461h582V2394l1843 2067h736L1632 2227 3674 0h-762z" transform="scale(.01563)"/></defs><use xlink:href="#prefix__Poppins-Regular-32"/><use xlink:href="#prefix__Poppins-Regular-30" x="57.5"/><use xlink:href="#prefix__Poppins-Regular-30" x="120.3"/><use xlink:href="#prefix__Poppins-Regular-4b" x="183.1"/></g></g><g id="prefix__ytick_3"><path d="M61.19 231.533h390.6" clip-path="url(#prefix__padd77d2c1e)" fill="none" stroke="#dad8d7" stroke-opacity=".5" stroke-width=".8" stroke-linecap="square" id="prefix__line2d_14"/><use xlink:href="#prefix__m71042191c1" x="61.19" y="231.533" stroke="#000" stroke-width=".8" id="prefix__line2d_15"/><g transform="matrix(.1 0 0 -.1 29.35 235.233)" id="prefix__text_7"><defs><path id="prefix__Poppins-Regular-34" d="M256 1030v442l2246 3110h698V1536h640v-506h-640V0h-576v1030H256zm2394 2944L928 1536h1722v2438z" transform="scale(.01563)"/></defs><use xlink:href="#prefix__Poppins-Regular-34"/><use xlink:href="#prefix__Poppins-Regular-30" x="62.9"/><use xlink:href="#prefix__Poppins-Regular-30" x="125.7"/><use xlink:href="#prefix__Poppins-Regular-4b" x="188.5"/></g></g><g id="prefix__ytick_4"><path d="M61.19 180.2h390.6" clip-path="url(#prefix__padd77d2c1e)" fill="none" stroke="#dad8d7" stroke-opacity=".5" stroke-width=".8" stroke-linecap="square" id="prefix__line2d_16"/><use xlink:href="#prefix__m71042191c1" x="61.19" y="180.2" stroke="#000" stroke-width=".8" id="prefix__line2d_17"/><g transform="matrix(.1 0 0 -.1 29.29 183.9)" id="prefix__text_8"><defs><path id="prefix__Poppins-Regular-36" d="M2976 3526q-141 711-877 711-569 0-851-439-282-438-275-1443 147 333 489 522 343 189 765 189 659 0 1053-410t394-1133q0-435-170-781-170-345-512-550T2163-13q-659 0-1030 294-371 295-519 813-147 519-147 1280 0 2349 1639 2349 627 0 985-339 359-339 423-858h-538zm-870-953q-276 0-519-112t-394-340q-150-227-150-553 0-486 281-790 282-304 807-304 448 0 713 278 266 278 266 752 0 499-256 784t-748 285z" transform="scale(.01563)"/></defs><use xlink:href="#prefix__Poppins-Regular-36"/><use xlink:href="#prefix__Poppins-Regular-30" x="63.5"/><use xlink:href="#prefix__Poppins-Regular-30" x="126.3"/><use xlink:href="#prefix__Poppins-Regular-4b" x="189.1"/></g></g><g id="prefix__ytick_5"><path d="M61.19 128.867h390.6" clip-path="url(#prefix__padd77d2c1e)" fill="none" stroke="#dad8d7" stroke-opacity=".5" stroke-width=".8" stroke-linecap="square" id="prefix__line2d_18"/><use xlink:href="#prefix__m71042191c1" x="61.19" y="128.867" stroke="#000" stroke-width=".8" id="prefix__line2d_19"/><g transform="matrix(.1 0 0 -.1 29.33 132.567)" id="prefix__text_9"><defs><path id="prefix__Poppins-Regular-38" d="M1242 2406q-359 141-551 410t-192 653q0 345 173 623 173 279 515 442 343 164 829 164t828-164q343-163 519-442 176-278 176-623 0-371-199-650-198-278-543-413 397-121 630-425 234-304 234-733 0-416-205-727-205-310-580-480-374-169-860-169T1162 41Q794 211 589 521q-205 311-205 727 0 429 230 736 231 307 628 422zm1734 992q0 391-256 602t-704 211q-442 0-698-211t-256-608q0-358 266-576t688-218q429 0 694 221 266 221 266 579zm-960-1248q-474 0-775-221-300-220-300-662 0-409 291-659t784-250q493 0 781 250t288 659q0 429-295 656-294 227-774 227z" transform="scale(.01563)"/></defs><use xlink:href="#prefix__Poppins-Regular-38"/><use xlink:href="#prefix__Poppins-Regular-30" x="63.1"/><use xlink:href="#prefix__Poppins-Regular-30" x="125.9"/><use xlink:href="#prefix__Poppins-Regular-4b" x="188.7"/></g></g><g id="prefix__ytick_6"><path d="M61.19 77.533h390.6" clip-path="url(#prefix__padd77d2c1e)" fill="none" stroke="#dad8d7" stroke-opacity=".5" stroke-width=".8" stroke-linecap="square" id="prefix__line2d_20"/><use xlink:href="#prefix__m71042191c1" x="61.19" y="77.533" stroke="#000" stroke-width=".8" id="prefix__line2d_21"/><g transform="matrix(.1 0 0 -.1 42.38 81.233)" id="prefix__text_10"><defs><path id="prefix__Poppins-Regular-31" d="M243 4096v531h1203V0H858v4096H243z" transform="scale(.01563)"/><path id="prefix__Poppins-Regular-4d" d="M5018 4429V0h-583v3302L2963 0h-409L1075 3309V0H493v4429h627L2758 768l1639 3661h621z" transform="scale(.01563)"/></defs><use xlink:href="#prefix__Poppins-Regular-31"/><use xlink:href="#prefix__Poppins-Regular-4d" x="32"/></g></g><g transform="matrix(0 -.12 -.12 0 16.17 222.66)" id="prefix__text_11"><defs><path id="prefix__Poppins-Regular-41" d="M3130 992H1184L826 0H211l1613 4435h672L4102 0h-614l-358 992zm-167 474l-806 2252-807-2252h1613z" transform="scale(.01563)"/><path id="prefix__Poppins-Regular-6d" d="M4710 3571q410 0 730-170 320-169 505-508 186-339 186-826V0h-576v1984q0 525-259 803-259 279-701 279-454 0-723-292-269-291-269-841V0h-576v1984q0 525-259 803-259 279-701 279-454 0-723-292-269-291-269-841V0H493v3507h582v-505q173 275 464 422t643 147q442 0 781-199 339-198 506-582 147 372 486 576 339 205 755 205z" transform="scale(.01563)"/><path id="prefix__Poppins-Regular-73" d="M1734-58q-403 0-723 138T505 464q-185 246-204 566h601q26-262 247-429 221-166 579-166 333 0 525 147 192 148 192 372 0 230-205 342t-634 221q-390 102-637 207-246 106-422 314t-176 548q0 268 160 492t454 355q295 132 673 132 582 0 940-295 359-294 384-806h-582q-19 275-221 441-201 167-541 167-313 0-499-135-185-134-185-351 0-173 112-285t281-180q170-67 471-150 377-102 614-202 237-99 406-297 170-198 176-518 0-288-160-519-160-230-451-362-291-131-669-131z" transform="scale(.01563)"/></defs><use xlink:href="#prefix__Poppins-Regular-41"/><use xlink:href="#prefix__Poppins-Regular-6d" x="67.4"/><use xlink:href="#prefix__Poppins-Regular-6f" x="170.4"/><use xlink:href="#prefix__Poppins-Regular-75" x="234.4"/><use xlink:href="#prefix__Poppins-Regular-6e" x="298.4"/><use xlink:href="#prefix__Poppins-Regular-74" x="362.4"/><use xlink:href="#prefix__Poppins-Regular-73" x="398.8"/></g></g><path d="M61.19 334.2V57" fill="none" stroke="#000" stroke-width=".8" stroke-linecap="square" id="prefix__patch_7"/><path d="M61.19 334.2h390.6" fill="none" stroke="#000" stroke-width=".8" stroke-linecap="square" id="prefix__patch_8"/><g transform="matrix(.11 0 0 -.11 101.892 156.94)" id="prefix__text_12"><defs><path id="prefix__Poppins-Regular-2e" d="M678-38Q512-38 397 77T282 358q0 167 115 282t281 115q160 0 272-115t112-282q0-166-112-281T678-38z" transform="scale(.01563)"/></defs><use xlink:href="#prefix__Poppins-Regular-36"/><use xlink:href="#prefix__Poppins-Regular-36" x="63.5"/><use xlink:href="#prefix__Poppins-Regular-30" x="127"/><use xlink:href="#prefix__Poppins-Regular-2e" x="189.8"/><use xlink:href="#prefix__Poppins-Regular-30" x="210.8"/><use xlink:href="#prefix__Poppins-Regular-4b" x="273.6"/></g><g transform="matrix(.11 0 0 -.11 193.092 49.14)" id="prefix__text_13"><use xlink:href="#prefix__Poppins-Regular-34"/><use xlink:href="#prefix__Poppins-Regular-32" x="62.9"/><use xlink:href="#prefix__Poppins-Regular-30" x="120.4"/><use xlink:href="#prefix__Poppins-Regular-2e" x="183.2"/><use xlink:href="#prefix__Poppins-Regular-30" x="204.2"/><use xlink:href="#prefix__Poppins-Regular-4b" x="267"/></g><g transform="matrix(.11 0 0 -.11 281.102 168.187)" id="prefix__text_14"><defs><path id="prefix__Poppins-Regular-2d" d="M2925 2592v-493H371v493h2554z" transform="scale(.01563)"/><path id="prefix__Poppins-Regular-33" d="M384 3462q45 589 454 922 410 333 1063 333 435 0 752-157t480-426q163-268 163-608 0-396-227-684t-592-372v-32q416-102 659-403t243-787q0-365-167-656-166-291-499-458-332-166-799-166-679 0-1114 355T314 1331h563q45-384 313-627 269-243 717-243t681 233q234 234 234 605 0 480-320 691-320 212-966 212h-147v486h153q589 6 890 195t301 586q0 339-221 544t-630 205q-397 0-641-205-243-205-287-551H384z" transform="scale(.01563)"/></defs><use xlink:href="#prefix__Poppins-Regular-2d"/><use xlink:href="#prefix__Poppins-Regular-33" x="55.1"/><use xlink:href="#prefix__Poppins-Regular-38" x="114"/><use xlink:href="#prefix__Poppins-Regular-32" x="177.1"/><use xlink:href="#prefix__Poppins-Regular-2e" x="234.6"/><use xlink:href="#prefix__Poppins-Regular-30" x="255.6"/><use xlink:href="#prefix__Poppins-Regular-4b" x="318.4"/></g><g transform="matrix(.11 0 0 -.11 374.414 147.187)" id="prefix__text_15"><defs><path id="prefix__Poppins-Regular-39" d="M1146 1242q64-365 297-564 234-198 631-198 531 0 783 416 253 416 241 1402-135-288-449-452-313-163-697-163-429 0-765 176t-528 515q-192 340-192 820 0 684 397 1103 397 420 1126 420 896 0 1258-583 362-582 362-1734 0-806-144-1331t-487-800Q2637-6 2042-6q-653 0-1018 352t-416 896h538zm902 934q429 0 704 265 275 266 275 721 0 480-269 774-268 294-755 294-448 0-714-282-265-281-265-742 0-467 262-749 263-281 762-281z" transform="scale(.01563)"/></defs><use xlink:href="#prefix__Poppins-Regular-36"/><use xlink:href="#prefix__Poppins-Regular-39" x="63.5"/><use xlink:href="#prefix__Poppins-Regular-38" x="126.5"/><use xlink:href="#prefix__Poppins-Regular-2e" x="189.6"/><use xlink:href="#prefix__Poppins-Regular-30" x="210.6"/><use xlink:href="#prefix__Poppins-Regular-4b" x="273.4"/></g><g transform="matrix(.2 0 0 -.2 84.142 22)" id="prefix__text_16"><defs><path id="prefix__Poppins-SemiBold-57" d="M6413 4467L5165 0H4109l-839 3181L2394 0 1344-6 141 4467h960l787-3469 909 3469h998l858-3449 793 3449h967z" transform="scale(.01563)"/><path id="prefix__Poppins-SemiBold-68" d="M2438 3597q404 0 717-176 314-176 490-519 176-342 176-822V0h-896v1958q0 423-212 650-211 227-575 227-372 0-586-227t-214-650V0H442v4736h896V3104q172 230 460 361 288 132 640 132z" transform="scale(.01563)"/><path id="prefix__Poppins-SemiBold-65" d="M3738 1850q0-192-26-346H1120q32-384 269-602 237-217 582-217 499 0 711 429h966q-154-512-589-842T1990-58q-512 0-918 227-406 228-634 644-227 416-227 960 0 550 224 966t627 640q404 224 928 224 506 0 906-218 400-217 621-617t221-918zm-928 256q-7 345-250 553t-595 208q-333 0-560-202-227-201-279-559h1684z" transform="scale(.01563)"/><path id="prefix__Poppins-SemiBold-72" d="M1338 2995q172 282 450 442 279 160 638 160v-941h-237q-423 0-637-199-214-198-214-691V0H442v3546h896v-551z" transform="scale(.01563)"/><path id="prefix__Poppins-SemiBold-64" d="M211 1786q0 537 214 953 215 416 586 640t826 224q345 0 659-151 314-150 499-399v1683h909V0h-909v525q-166-263-467-423T1830-58q-448 0-819 230-371 231-586 650-214 420-214 964zm2791-13q0 326-128 559-128 234-346 359t-467 125q-250 0-461-122-211-121-343-355-131-233-131-553t131-560q132-240 346-368 215-128 458-128 249 0 467 124 218 125 346 358 128 234 128 561z" transform="scale(.01563)"/><path id="prefix__Poppins-SemiBold-69" d="M896 3968q-237 0-394 150-156 151-156 375t156 374q157 151 394 151t393-151q157-150 157-374t-157-375q-156-150-393-150zm442-422V0H442v3546h896z" transform="scale(.01563)"/><path id="prefix__Poppins-SemiBold-63" d="M211 1773q0 550 224 963t621 640q397 227 909 227 659 0 1091-330 432-329 579-924h-966q-77 230-260 361-182 132-451 132-384 0-608-279-224-278-224-790 0-506 224-785 224-278 608-278 544 0 711 487h966q-147-576-582-916Q2618-58 1965-58q-512 0-909 227-397 228-621 640-224 413-224 964z" transform="scale(.01563)"/><path id="prefix__Poppins-SemiBold-75" d="M3789 3546V0h-903v448q-172-230-451-362-278-131-605-131-416 0-736 176T592 649q-182 343-182 817v2080h896V1594q0-423 211-650t576-227q371 0 582 227t211 650v1952h903z" transform="scale(.01563)"/><path id="prefix__Poppins-SemiBold-73" d="M1798-58q-435 0-781 157-345 157-547 426-201 269-220 595h902q26-205 202-340 176-134 438-134 256 0 400 102 144 103 144 263 0 173-176 259-176 87-560 189-397 96-650 198-252 103-435 314-182 211-182 570 0 294 169 537 170 244 487 384 317 141 745 141 634 0 1011-317 378-316 417-854h-858q-19 211-176 336t-419 125q-243 0-375-90-131-89-131-249 0-180 179-273 180-92 557-188 384-96 633-199 250-102 432-317 183-214 190-566 0-307-170-550T2537 80Q2221-58 1798-58z" transform="scale(.01563)"/><path id="prefix__Poppins-SemiBold-74" d="M1485 2810V1094q0-179 86-259 87-80 291-80h416V0h-563Q582 0 582 1101v1709H160v736h422v876h903v-876h793v-736h-793z" transform="scale(.01563)"/><path id="prefix__Poppins-SemiBold-6f" d="M2016-58q-512 0-922 227-409 228-643 644-233 416-233 960t240 960q240 416 656 643t928 227q512 0 928-227t656-643q240-416 240-960t-247-960q-246-416-666-644-419-227-937-227zm0 781q243 0 457 118 215 119 343 356t128 576q0 505-266 777-265 272-649 272t-644-272q-259-272-259-777 0-506 253-778t637-272z" transform="scale(.01563)"/><path id="prefix__Poppins-SemiBold-6d" d="M4845 3597q653 0 1053-400t400-1117V0h-896v1958q0 416-212 637-211 221-576 221-364 0-579-221-214-221-214-637V0h-896v1958q0 416-212 637-211 221-575 221-372 0-586-221t-214-637V0H442v3546h896v-429q172 224 444 352t599 128q416 0 742-176 327-176 506-503 173 308 502 493 330 186 714 186z" transform="scale(.01563)"/><path id="prefix__Poppins-SemiBold-66" d="M2067 2810h-621V0H538v2810H134v736h404v179q0 653 371 960t1120 288v-755q-327 6-455-109t-128-416v-147h621v-736z" transform="scale(.01563)"/><path id="prefix__Poppins-SemiBold-3f" d="M1690 4621q665 0 1071-362 407-361 407-995 0-627-403-957-403-329-1069-329l-26-493H883l-32 1088h288q557 0 858 147t301 538q0 281-164 447-163 167-444 167-295 0-458-160t-163-442H224q-6 391 166 698 173 307 509 480t791 173zM1274-45q-244 0-401 150-156 151-156 375t156 374q157 151 401 151 236 0 390-151 154-150 154-374t-154-375Q1510-45 1274-45z" transform="scale(.01563)"/></defs><use xlink:href="#prefix__Poppins-SemiBold-57"/><use xlink:href="#prefix__Poppins-SemiBold-68" x="102.4"/><use xlink:href="#prefix__Poppins-SemiBold-65" x="168.5"/><use xlink:href="#prefix__Poppins-SemiBold-72" x="230.2"/><use xlink:href="#prefix__Poppins-SemiBold-65" x="270.6"/><use xlink:href="#prefix__Poppins-SemiBold-20" x="332.3"/><use xlink:href="#prefix__Poppins-SemiBold-64" x="356.1"/><use xlink:href="#prefix__Poppins-SemiBold-69" x="423.9"/><use xlink:href="#prefix__Poppins-SemiBold-64" x="451.7"/><use xlink:href="#prefix__Poppins-SemiBold-20" x="519.5"/><use xlink:href="#prefix__Poppins-SemiBold-63" x="543.3"/><use xlink:href="#prefix__Poppins-SemiBold-75" x="603.5"/><use xlink:href="#prefix__Poppins-SemiBold-73" x="669.6"/><use xlink:href="#prefix__Poppins-SemiBold-74" x="724.1"/><use xlink:href="#prefix__Poppins-SemiBold-6f" x="762.9"/><use xlink:href="#prefix__Poppins-SemiBold-6d" x="826.7"/><use xlink:href="#prefix__Poppins-SemiBold-65" x="931.5"/><use xlink:href="#prefix__Poppins-SemiBold-72" x="993.2"/><use xlink:href="#prefix__Poppins-SemiBold-73" x="1033.6"/><use xlink:href="#prefix__Poppins-SemiBold-20" x="1088.1"/><use xlink:href="#prefix__Poppins-SemiBold-63" x="1111.9"/><use xlink:href="#prefix__Poppins-SemiBold-6f" x="1172.1"/><use xlink:href="#prefix__Poppins-SemiBold-6d" x="1235.9"/><use xlink:href="#prefix__Poppins-SemiBold-65" x="1340.7"/><use xlink:href="#prefix__Poppins-SemiBold-20" x="1402.4"/><use xlink:href="#prefix__Poppins-SemiBold-66" x="1426.2"/><use xlink:href="#prefix__Poppins-SemiBold-72" x="1460.7"/><use xlink:href="#prefix__Poppins-SemiBold-6f" x="1501.1"/><use xlink:href="#prefix__Poppins-SemiBold-6d" x="1564.9"/><use xlink:href="#prefix__Poppins-SemiBold-3f" x="1669.7"/></g></g><g transform="matrix(.1 0 0 -.1 7.2 375.98)" fill="#696969" id="prefix__text_17"><defs><path id="prefix__Poppins-LightItalic-53" d="M1619-45q-403 0-707 134-304 135-471 378-166 243-166 557 0 83 7 128h441q-13-205 73-394 87-188 301-313 215-125 554-125 474 0 755 237 282 237 282 640 0 243-131 406t-323 269q-192 106-525 240-391 154-621 285t-381 361q-150 231-125 589 13 346 208 611 196 266 532 416 336 151 764 151 423 0 727-144t454-394q151-249 131-550h-467q13 173-80 339t-295 272q-201 106-495 106-455 0-743-221t-288-599q0-224 128-378 128-153 314-256 186-102 512-236 378-154 611-288 234-134 397-358t163-564q0-83-6-128-26-326-218-595t-528-423Q2067-45 1619-45z" transform="scale(.01563)"/><path id="prefix__Poppins-LightItalic-6f" d="M1728-51q-435 0-768 176T444 624q-182 323-182 758 0 589 269 1085t749 787q480 292 1069 292 435 0 768-176t518-500q186-323 186-758 0-595-276-1088-275-493-752-784Q2317-51 1728-51zm51 377q455 0 816 243 362 244 563 647 202 403 202 870 0 525-304 800-304 276-771 276-455 0-810-244-355-243-554-646-198-403-198-870 0-519 301-798 301-278 755-278z" transform="scale(.01563)"/><path id="prefix__Poppins-LightItalic-75" d="M3834 3494L3219 0h-448l109 614q-218-326-564-499-345-173-742-173-537 0-864 291-326 292-326 849 0 204 32 371l358 2041h442L864 1504q-26-147-26-307 0-423 234-644 234-220 650-220 486 0 838 297 352 298 474 874l352 1990h448z" transform="scale(.01563)"/><path id="prefix__Poppins-LightItalic-72" d="M1133 2797q211 365 550 563t787 198l-83-467h-128q-461 0-794-237-332-236-460-780L640 0H192l614 3494h448l-121-697z" transform="scale(.01563)"/><path id="prefix__Poppins-LightItalic-63" d="M294 1747q96 544 387 950 292 407 714 628 423 221 915 221 647 0 1008-320 362-320 388-871h-480q-20 378-279 592-259 215-701 215-544 0-957-368-412-368-534-1047-32-160-32-365 0-512 278-784 279-272 740-272 448 0 780 214 333 215 493 599h480q-217-537-697-864Q2317-51 1677-51q-647 0-1034 371T256 1338q0 198 38 409z" transform="scale(.01563)"/><path id="prefix__Poppins-LightItalic-65" d="M2330 3546q441 0 754-170 314-170 477-464 164-294 164-672 0-173-26-307-38-192-77-346H723q-19-121-19-230 0-493 297-762 298-269 759-269 442 0 774 211 333 212 487 570h480q-218-512-695-835Q2330-51 1696-51q-653 0-1047 374-393 375-393 1021 0 192 38 403 96 544 387 953 292 410 720 628 429 218 929 218zm908-1626q32 179 32 301 0 454-288 697-288 244-736 244-326 0-627-141t-525-423q-224-281-307-678h2451z" transform="scale(.01563)"/><path id="prefix__Poppins-LightItalic-3a" d="M262-32Q141-32 64 45t-77 198q0 154 118 269 119 115 273 115 121 0 198-74 77-73 77-195 0-153-119-272Q416-32 262-32zm0 2816q-121 0-198 77t-77 198q0 154 118 269 119 115 273 115 121 0 198-74 77-73 77-195 0-153-119-272-118-118-272-118z" transform="scale(.01563)"/><path id="prefix__Poppins-LightItalic-50" d="M3616 3187q-102-576-544-928t-1197-352H973L640 0H192l787 4474h1351q659 0 985-276 327-275 327-742 0-147-26-269zm-1670-909q1049 0 1209 909 26 167 26 237 0 691-915 691h-903l-320-1837h903z" transform="scale(.01563)"/><path id="prefix__Poppins-LightItalic-79" d="M890 3494l659-2963 1670 2963h467L710-1645H237L1210 26 390 3494h500z" transform="scale(.01563)"/><path id="prefix__Poppins-LightItalic-52" d="M2330 4474q659 0 988-282 330-282 330-755 0-83-26-263-83-486-422-829-339-342-902-444L3110 0h-537l-775 1869H966L640 0H192l787 4474h1351zm825-1300q19 128 19 231 0 339-224 524-224 186-691 186h-896l-333-1888h903q531 0 838 256t384 691z" transform="scale(.01563)"/><path id="prefix__Poppins-LightItalic-74" d="M934 947q-19-115-19-198 0-205 112-285t368-80h410L1734 0h-480Q858 0 659 153 461 307 461 659q0 141 25 288l384 2170H384l70 377h487l153 877h448l-153-877h966l-70-377h-967L934 947z" transform="scale(.01563)"/><path id="prefix__Poppins-LightItalic-61" d="M294 1754q96 537 384 943 288 407 707 628 420 221 900 221 499 0 819-231 320-230 416-589l134 768h448L3488 0h-448l134 774q-217-358-624-592-406-233-905-233-416 0-730 172-313 173-486 490t-173 746q0 185 38 397zm3053-7q32 179 32 320 0 499-301 793-300 295-780 295-372 0-695-167-323-166-547-483-224-316-301-751-32-192-32-327 0-505 297-797 298-291 778-291 359 0 688 173 330 173 557 493t304 742z" transform="scale(.01563)"/><path id="prefix__Poppins-LightItalic-69" d="M1152 4154q-122 0-199 73-76 74-76 195 0 167 115 279t275 112q122 0 195-71 74-70 74-185 0-167-115-285t-269-118zm102-660L640 0H192l614 3494h448z" transform="scale(.01563)"/><path id="prefix__Poppins-LightItalic-6c" d="M1478 4736L640 0H192l838 4736h448z" transform="scale(.01563)"/><path id="prefix__Poppins-LightItalic-6e" d="M2464 3558q538 0 861-291t323-848q0-205-32-371L3251 0h-441l352 1997q25 147 25 313 0 423-231 640-230 218-646 218-505 0-864-320-358-320-467-941v19L640 0H192l614 3494h448l-108-601q224 320 569 492 346 173 749 173z" transform="scale(.01563)"/><path id="prefix__Poppins-LightItalic-2d" d="M2816 2560l-64-378H262l64 378h2490z" transform="scale(.01563)"/><path id="prefix__Poppins-LightItalic-73" d="M1357-51q-531 0-864 246-333 247-333 675 0 77 6 116h436q-26-308 179-494 205-185 601-185 404 0 647 169 243 170 243 452 0 166-103 281-102 116-253 189-150 74-418 170-333 122-535 227-201 106-345 294-144 189-144 477t166 512q166 224 457 346 292 122 663 122 518 0 848-256t330-679q0-89-7-134h-422q6 25 6 83 0 282-221 454-220 173-566 173t-573-163q-227-163-227-438 0-186 109-311t269-202q160-76 428-179 320-121 515-224 196-102 330-281 135-179 135-448 0-455-378-724-378-268-979-268z" transform="scale(.01563)"/><path id="prefix__Poppins-LightItalic-46" d="M3405 4474l-64-359H1363l-294-1689h1664l-64-352H1005L640 0H192l787 4474h2426z" transform="scale(.01563)"/><path id="prefix__Poppins-LightItalic-59" d="M3942 4474L2022 1741 1715 0h-448l307 1741-960 2733h506l749-2324 1568 2324h505z" transform="scale(.01563)"/><path id="prefix__Poppins-LightItalic-32" d="M64 352q1338 877 2106 1577 768 701 883 1361 25 166 25 249 0 320-189 512-188 192-611 192-486 0-806-304t-435-803H602q160 710 630 1100 470 391 1117 391 544 0 860-266 317-265 317-758 0-160-25-294-135-762-903-1482T768 410h2362l-64-378H6l58 320z" transform="scale(.01563)"/><path id="prefix__Poppins-LightItalic-30" d="M506 2304q192 1094 636 1702 445 608 1322 608 666 0 957-365 291-364 291-1023 0-378-96-922-192-1094-640-1706Q2528-13 1651-13q-665 0-953 361-288 362-288 1022 0 377 96 934zm2668 0q96 531 96 883 0 487-202 752-201 266-674 266-461 0-749-247-288-246-442-656-153-409-256-998-102-582-102-902 0-480 198-743 199-262 679-262 460 0 748 246 288 247 442 656 154 410 262 1005z" transform="scale(.01563)"/><path id="prefix__Poppins-LightItalic-34" d="M90 1088l57 339 2887 3136h531l-544-3085h685l-71-390h-685L2758 0h-441l192 1088H90zm2963 2982L678 1478h1920l455 2592z" transform="scale(.01563)"/><path id="prefix__Poppins-LightItalic-76" d="M1517 454l1709 3040h486L1690 0h-519L390 3494h480l647-3040z" transform="scale(.01563)"/><path id="prefix__Poppins-LightItalic-33" d="M678 3418q154 582 618 918t1110 336q564 0 864-263 301-262 301-684 0-109-19-224-70-403-355-698-285-294-733-365l-6-32q377-76 591-316 215-240 215-624 0-71-26-250-102-550-531-899T1587-32q-633 0-995 310-362 311-362 893 0 90 7 135h435q-19-423 233-692 253-268 740-268 493 0 797 252 304 253 374 656 19 109 19 199 0 774-1254 774h-135l71 378h141q1305 0 1459 851 13 58 13 166 0 308-205 484t-602 176q-429 0-755-228-326-227-454-636H678z" transform="scale(.01563)"/></defs><use xlink:href="#prefix__Poppins-LightItalic-53"/><use xlink:href="#prefix__Poppins-LightItalic-6f" x="56.6"/><use xlink:href="#prefix__Poppins-LightItalic-75" x="120.8"/><use xlink:href="#prefix__Poppins-LightItalic-72" x="184.1"/><use xlink:href="#prefix__Poppins-LightItalic-63" x="220.3"/><use xlink:href="#prefix__Poppins-LightItalic-65" x="281.6"/><use xlink:href="#prefix__Poppins-LightItalic-3a" x="343.8"/><use xlink:href="#prefix__Poppins-LightItalic-20" x="362.3"/><use xlink:href="#prefix__Poppins-LightItalic-50" x="391.8"/><use xlink:href="#prefix__Poppins-LightItalic-79" x="448.2"/><use xlink:href="#prefix__Poppins-LightItalic-52" x="502.7"/><use xlink:href="#prefix__Poppins-LightItalic-65" x="561.4"/><use xlink:href="#prefix__Poppins-LightItalic-74" x="623.6"/><use xlink:href="#prefix__Poppins-LightItalic-61" x="659.2"/><use xlink:href="#prefix__Poppins-LightItalic-69" x="726.7"/><use xlink:href="#prefix__Poppins-LightItalic-6c" x="749.6"/><use xlink:href="#prefix__Poppins-LightItalic-53" x="772.5"/><use xlink:href="#prefix__Poppins-LightItalic-63" x="829.1"/><use xlink:href="#prefix__Poppins-LightItalic-69" x="890.4"/><use xlink:href="#prefix__Poppins-LightItalic-65" x="913.3"/><use xlink:href="#prefix__Poppins-LightItalic-6e" x="975.5"/><use xlink:href="#prefix__Poppins-LightItalic-63" x="1038.8"/><use xlink:href="#prefix__Poppins-LightItalic-65" x="1100.1"/><use xlink:href="#prefix__Poppins-LightItalic-20" x="1162.3"/><use xlink:href="#prefix__Poppins-LightItalic-2d" x="1191.8"/><use xlink:href="#prefix__Poppins-LightItalic-20" x="1243.7"/><use xlink:href="#prefix__Poppins-LightItalic-53" x="1273.2"/><use xlink:href="#prefix__Poppins-LightItalic-61" x="1329.8"/><use xlink:href="#prefix__Poppins-LightItalic-6c" x="1397.3"/><use xlink:href="#prefix__Poppins-LightItalic-65" x="1420.2"/><use xlink:href="#prefix__Poppins-LightItalic-73" x="1482.4"/><use xlink:href="#prefix__Poppins-LightItalic-20" x="1533.4"/><use xlink:href="#prefix__Poppins-LightItalic-46" x="1562.9"/><use xlink:href="#prefix__Poppins-LightItalic-59" x="1612.2"/><use xlink:href="#prefix__Poppins-LightItalic-32" x="1668.6"/><use xlink:href="#prefix__Poppins-LightItalic-30" x="1725.8"/><use xlink:href="#prefix__Poppins-LightItalic-32" x="1787.4"/><use xlink:href="#prefix__Poppins-LightItalic-34" x="1844.6"/><use xlink:href="#prefix__Poppins-LightItalic-20" x="1905.9"/><use xlink:href="#prefix__Poppins-LightItalic-76" x="1935.4"/><use xlink:href="#prefix__Poppins-LightItalic-73" x="1990.1"/><use xlink:href="#prefix__Poppins-LightItalic-20" x="2041.1"/><use xlink:href="#prefix__Poppins-LightItalic-46" x="2070.6"/><use xlink:href="#prefix__Poppins-LightItalic-59" x="2119.9"/><use xlink:href="#prefix__Poppins-LightItalic-32" x="2176.3"/><use xlink:href="#prefix__Poppins-LightItalic-30" x="2233.5"/><use xlink:href="#prefix__Poppins-LightItalic-32" x="2295.1"/><use xlink:href="#prefix__Poppins-LightItalic-33" x="2352.3"/></g></g><defs><clipPath id="prefix__padd77d2c1e"><path d="M61.19 57h390.6v277.2H61.19z"/></clipPath></defs></svg>
