<?xml version="1.0" encoding="UTF-8" standalone="no"?>
<!DOCTYPE svg PUBLIC "-//W3C//DTD SVG 1.1//EN"
 "http://www.w3.org/Graphics/SVG/1.1/DTD/svg11.dtd">
<!-- Generated by graphviz version 2.43.0 (0)
 -->
<!-- Title: %3 Pages: 1 -->
<svg width="1010pt" height="674pt"
 viewBox="0.00 0.00 1010.00 674.00" xmlns="http://www.w3.org/2000/svg" xmlns:xlink="http://www.w3.org/1999/xlink">
<g id="graph0" class="graph" transform="scale(1 1) rotate(0) translate(4 670)">
<title>%3</title>
<!-- agg_unit_spend -->
<g id="node1" class="node">
<title>agg_unit_spend</title>
<path fill="#22c55e" stroke="#22c55e" d="M480,-666C480,-666 182,-666 182,-666 176,-666 170,-660 170,-654 170,-654 170,-552 170,-552 170,-546 176,-540 182,-540 182,-540 480,-540 480,-540 486,-540 492,-546 492,-552 492,-552 492,-654 492,-654 492,-660 486,-666 480,-666"/>
<text text-anchor="start" x="293.5" y="-641.6" font-family="arial" font-weight="bold" font-size="18.00" fill="white">Revenue</text>
<text text-anchor="start" x="207.5" y="-618.8" font-family="arial" font-weight="bold" font-size="14.00" fill="white">Current Period</text>
<text text-anchor="start" x="355.5" y="-618.8" font-family="arial" font-weight="bold" font-size="14.00" fill="white">Previous Period</text>
<polygon fill="white" stroke="transparent" points="180,-591 180,-610 330,-610 330,-591 180,-591"/>
<text text-anchor="start" x="211.5" y="-596.8" font-family="arial" font-size="14.00">47,696,082.55</text>
<polygon fill="white" stroke="transparent" points="332,-591 332,-610 482,-610 482,-591 332,-591"/>
<text text-anchor="start" x="363.5" y="-596.8" font-family="arial" font-size="14.00">41,392,098.84</text>
<text text-anchor="start" x="301" y="-576.8" font-family="arial" font-weight="bold" font-size="14.00" fill="white">Diff </text>
<polygon fill="white" stroke="transparent" points="332,-570 332,-589 482,-589 482,-570 332,-570"/>
<text text-anchor="start" x="367.5" y="-575.8" font-family="arial" font-size="14.00" fill="darkgreen">6,303,983.71</text>
<text text-anchor="start" x="276" y="-555.8" font-family="arial" font-weight="bold" font-size="14.00" fill="white">Pct Diff </text>
<polygon fill="white" stroke="transparent" points="332,-549 332,-568 482,-568 482,-549 332,-549"/>
<text text-anchor="start" x="387" y="-554.8" font-family="arial" font-size="14.00" fill="darkgreen">15.2%</text>
</g>
<!-- agg_customer_id -->
<g id="node2" class="node">
<title>agg_customer_id</title>
<path fill="#22c55e" stroke="#22c55e" d="M310,-504C310,-504 12,-504 12,-504 6,-504 0,-498 0,-492 0,-492 0,-372 0,-372 0,-366 6,-360 12,-360 12,-360 310,-360 310,-360 316,-360 322,-366 322,-372 322,-372 322,-492 322,-492 322,-498 316,-504 310,-504"/>
<text text-anchor="start" x="114" y="-480.6" font-family="arial" font-weight="bold" font-size="18.00" fill="white">Customers</text>
<text text-anchor="start" x="37.5" y="-457.8" font-family="arial" font-weight="bold" font-size="14.00" fill="white">Current Period</text>
<text text-anchor="start" x="185.5" y="-457.8" font-family="arial" font-weight="bold" font-size="14.00" fill="white">Previous Period</text>
<polygon fill="white" stroke="transparent" points="10,-430 10,-449 160,-449 160,-430 10,-430"/>
<text text-anchor="start" x="68" y="-435.8" font-family="arial" font-size="14.00">3,037</text>
<polygon fill="white" stroke="transparent" points="162,-430 162,-449 312,-449 312,-430 162,-430"/>
<text text-anchor="start" x="220" y="-435.8" font-family="arial" font-size="14.00">3,203</text>
<text text-anchor="start" x="131" y="-415.8" font-family="arial" font-weight="bold" font-size="14.00" fill="white">Diff </text>
<polygon fill="white" stroke="transparent" points="162,-409 162,-428 312,-428 312,-409 162,-409"/>
<text text-anchor="start" x="223" y="-414.8" font-family="arial" font-size="14.00" fill="red">&#45;166</text>
<text text-anchor="start" x="106" y="-394.8" font-family="arial" font-weight="bold" font-size="14.00" fill="white">Pct Diff </text>
<polygon fill="white" stroke="transparent" points="162,-388 162,-407 312,-407 312,-388 162,-388"/>
<text text-anchor="start" x="218.5" y="-393.8" font-family="arial" font-size="14.00" fill="red">&#45;5.2%</text>
<text text-anchor="start" x="73" y="-373.8" font-family="arial" font-weight="bold" font-size="14.00" fill="white">Contribution </text>
<polygon fill="white" stroke="transparent" points="162,-367 162,-386 312,-386 312,-367 162,-367"/>
<text text-anchor="start" x="215.5" y="-372.8" font-family="arial" font-size="14.00" fill="red">&#45;2.38M</text>
</g>
<!-- agg_unit_spend&#45;&gt;agg_customer_id -->
<g id="edge2" class="edge">
<title>agg_unit_spend&#45;&gt;agg_customer_id</title>
<path fill="none" stroke="black" d="M268.18,-539.55C258.91,-530.33 249.26,-520.74 239.72,-511.26"/>
<polygon fill="black" stroke="black" points="242.01,-508.6 232.45,-504.03 237.07,-513.56 242.01,-508.6"/>
</g>
<!-- calc_spend_per_customer -->
<g id="node3" class="node">
<title>calc_spend_per_customer</title>
<path fill="#22c55e" stroke="#22c55e" d="M650,-504C650,-504 352,-504 352,-504 346,-504 340,-498 340,-492 340,-492 340,-372 340,-372 340,-366 346,-360 352,-360 352,-360 650,-360 650,-360 656,-360 662,-366 662,-372 662,-372 662,-492 662,-492 662,-498 656,-504 650,-504"/>
<text text-anchor="start" x="423.5" y="-480.6" font-family="arial" font-weight="bold" font-size="18.00" fill="white">Spend / Customer</text>
<text text-anchor="start" x="377.5" y="-457.8" font-family="arial" font-weight="bold" font-size="14.00" fill="white">Current Period</text>
<text text-anchor="start" x="525.5" y="-457.8" font-family="arial" font-weight="bold" font-size="14.00" fill="white">Previous Period</text>
<polygon fill="white" stroke="transparent" points="350,-430 350,-449 500,-449 500,-430 350,-430"/>
<text text-anchor="start" x="394.5" y="-435.8" font-family="arial" font-size="14.00">15,705.00</text>
<polygon fill="white" stroke="transparent" points="502,-430 502,-449 652,-449 652,-430 502,-430"/>
<text text-anchor="start" x="546.5" y="-435.8" font-family="arial" font-size="14.00">12,922.92</text>
<text text-anchor="start" x="471" y="-415.8" font-family="arial" font-weight="bold" font-size="14.00" fill="white">Diff </text>
<polygon fill="white" stroke="transparent" points="502,-409 502,-428 652,-428 652,-409 502,-409"/>
<text text-anchor="start" x="550.5" y="-414.8" font-family="arial" font-size="14.00" fill="darkgreen">2,782.08</text>
<text text-anchor="start" x="446" y="-394.8" font-family="arial" font-weight="bold" font-size="14.00" fill="white">Pct Diff </text>
<polygon fill="white" stroke="transparent" points="502,-388 502,-407 652,-407 652,-388 502,-388"/>
<text text-anchor="start" x="557" y="-393.8" font-family="arial" font-size="14.00" fill="darkgreen">21.5%</text>
<text text-anchor="start" x="413" y="-373.8" font-family="arial" font-weight="bold" font-size="14.00" fill="white">Contribution </text>
<polygon fill="white" stroke="transparent" points="502,-367 502,-386 652,-386 652,-367 502,-367"/>
<text text-anchor="start" x="557.5" y="-372.8" font-family="arial" font-size="14.00" fill="darkgreen">8.68M</text>
</g>
<!-- agg_unit_spend&#45;&gt;calc_spend_per_customer -->
<g id="edge1" class="edge">
<title>agg_unit_spend&#45;&gt;calc_spend_per_customer</title>
<path fill="none" stroke="black" d="M393.82,-539.55C403.09,-530.33 412.74,-520.74 422.28,-511.26"/>
<polygon fill="black" stroke="black" points="424.93,-513.56 429.55,-504.03 419.99,-508.6 424.93,-513.56"/>
</g>
<!-- calc_transactions_per_customer -->
<g id="node4" class="node">
<title>calc_transactions_per_customer</title>
<path fill="#22c55e" stroke="#22c55e" d="M480,-324C480,-324 182,-324 182,-324 176,-324 170,-318 170,-312 170,-312 170,-192 170,-192 170,-186 176,-180 182,-180 182,-180 480,-180 480,-180 486,-180 492,-186 492,-192 492,-192 492,-312 492,-312 492,-318 486,-324 480,-324"/>
<text text-anchor="start" x="257" y="-300.6" font-family="arial" font-weight="bold" font-size="18.00" fill="white">Visits / Customer</text>
<text text-anchor="start" x="207.5" y="-277.8" font-family="arial" font-weight="bold" font-size="14.00" fill="white">Current Period</text>
<text text-anchor="start" x="355.5" y="-277.8" font-family="arial" font-weight="bold" font-size="14.00" fill="white">Previous Period</text>
<polygon fill="white" stroke="transparent" points="180,-250 180,-269 330,-269 330,-250 180,-250"/>
<text text-anchor="start" x="241.5" y="-255.8" font-family="arial" font-size="14.00">4.53</text>
<polygon fill="white" stroke="transparent" points="332,-250 332,-269 482,-269 482,-250 332,-250"/>
<text text-anchor="start" x="393.5" y="-255.8" font-family="arial" font-size="14.00">3.67</text>
<text text-anchor="start" x="301" y="-235.8" font-family="arial" font-weight="bold" font-size="14.00" fill="white">Diff </text>
<polygon fill="white" stroke="transparent" points="332,-229 332,-248 482,-248 482,-229 332,-229"/>
<text text-anchor="start" x="393.5" y="-234.8" font-family="arial" font-size="14.00" fill="darkgreen">0.86</text>
<text text-anchor="start" x="276" y="-214.8" font-family="arial" font-weight="bold" font-size="14.00" fill="white">Pct Diff </text>
<polygon fill="white" stroke="transparent" points="332,-208 332,-227 482,-227 482,-208 332,-208"/>
<text text-anchor="start" x="387" y="-213.8" font-family="arial" font-size="14.00" fill="darkgreen">23.5%</text>
<text text-anchor="start" x="243" y="-193.8" font-family="arial" font-weight="bold" font-size="14.00" fill="white">Contribution </text>
<polygon fill="white" stroke="transparent" points="332,-187 332,-206 482,-206 482,-187 332,-187"/>
<text text-anchor="start" x="387.5" y="-192.8" font-family="arial" font-size="14.00" fill="darkgreen">9.28M</text>
</g>
<!-- calc_spend_per_customer&#45;&gt;calc_transactions_per_customer -->
<g id="edge3" class="edge">
<title>calc_spend_per_customer&#45;&gt;calc_transactions_per_customer</title>
<path fill="none" stroke="black" d="M433.08,-359.88C424.09,-350.47 414.83,-340.78 405.73,-331.25"/>
<polygon fill="black" stroke="black" points="408.25,-328.82 398.81,-324 403.19,-333.65 408.25,-328.82"/>
</g>
<!-- calc_spend_per_transaction -->
<g id="node5" class="node">
<title>calc_spend_per_transaction</title>
<path fill="#22c55e" stroke="#22c55e" d="M820,-324C820,-324 522,-324 522,-324 516,-324 510,-318 510,-312 510,-312 510,-192 510,-192 510,-186 516,-180 522,-180 522,-180 820,-180 820,-180 826,-180 832,-186 832,-192 832,-192 832,-312 832,-312 832,-318 826,-324 820,-324"/>
<text text-anchor="start" x="616" y="-300.6" font-family="arial" font-weight="bold" font-size="18.00" fill="white">Spend / Visit</text>
<text text-anchor="start" x="547.5" y="-277.8" font-family="arial" font-weight="bold" font-size="14.00" fill="white">Current Period</text>
<text text-anchor="start" x="695.5" y="-277.8" font-family="arial" font-weight="bold" font-size="14.00" fill="white">Previous Period</text>
<polygon fill="white" stroke="transparent" points="520,-250 520,-269 670,-269 670,-250 520,-250"/>
<text text-anchor="start" x="568.5" y="-255.8" font-family="arial" font-size="14.00">3,468.55</text>
<polygon fill="white" stroke="transparent" points="672,-250 672,-269 822,-269 822,-250 672,-250"/>
<text text-anchor="start" x="720.5" y="-255.8" font-family="arial" font-size="14.00">3,526.03</text>
<text text-anchor="start" x="641" y="-235.8" font-family="arial" font-weight="bold" font-size="14.00" fill="white">Diff </text>
<polygon fill="white" stroke="transparent" points="672,-229 672,-248 822,-248 822,-229 672,-229"/>
<text text-anchor="start" x="727.5" y="-234.8" font-family="arial" font-size="14.00" fill="red">&#45;57.48</text>
<text text-anchor="start" x="616" y="-214.8" font-family="arial" font-weight="bold" font-size="14.00" fill="white">Pct Diff </text>
<polygon fill="white" stroke="transparent" points="672,-208 672,-227 822,-227 822,-208 672,-208"/>
<text text-anchor="start" x="728.5" y="-213.8" font-family="arial" font-size="14.00" fill="red">&#45;1.6%</text>
<text text-anchor="start" x="583" y="-193.8" font-family="arial" font-weight="bold" font-size="14.00" fill="white">Contribution </text>
<polygon fill="white" stroke="transparent" points="672,-187 672,-206 822,-206 822,-187 672,-187"/>
<text text-anchor="start" x="719.5" y="-192.8" font-family="arial" font-size="14.00" fill="red">&#45;599.63K</text>
</g>
<!-- calc_spend_per_customer&#45;&gt;calc_spend_per_transaction -->
<g id="edge4" class="edge">
<title>calc_spend_per_customer&#45;&gt;calc_spend_per_transaction</title>
<path fill="none" stroke="black" d="M568.92,-359.88C577.91,-350.47 587.17,-340.78 596.27,-331.25"/>
<polygon fill="black" stroke="black" points="598.81,-333.65 603.19,-324 593.75,-328.82 598.81,-333.65"/>
</g>
<!-- calc_units_per_transaction -->
<g id="node6" class="node">
<title>calc_units_per_transaction</title>
<path fill="#22c55e" stroke="#22c55e" d="M650,-144C650,-144 352,-144 352,-144 346,-144 340,-138 340,-132 340,-132 340,-12 340,-12 340,-6 346,0 352,0 352,0 650,0 650,0 656,0 662,-6 662,-12 662,-12 662,-132 662,-132 662,-138 656,-144 650,-144"/>
<text text-anchor="start" x="451" y="-120.6" font-family="arial" font-weight="bold" font-size="18.00" fill="white">Units / Visit</text>
<text text-anchor="start" x="377.5" y="-97.8" font-family="arial" font-weight="bold" font-size="14.00" fill="white">Current Period</text>
<text text-anchor="start" x="525.5" y="-97.8" font-family="arial" font-weight="bold" font-size="14.00" fill="white">Previous Period</text>
<polygon fill="white" stroke="transparent" points="350,-70 350,-89 500,-89 500,-70 350,-70"/>
<text text-anchor="start" x="411.5" y="-75.8" font-family="arial" font-size="14.00">8.79</text>
<polygon fill="white" stroke="transparent" points="502,-70 502,-89 652,-89 652,-70 502,-70"/>
<text text-anchor="start" x="563.5" y="-75.8" font-family="arial" font-size="14.00">8.78</text>
<text text-anchor="start" x="471" y="-55.8" font-family="arial" font-weight="bold" font-size="14.00" fill="white">Diff </text>
<polygon fill="white" stroke="transparent" points="502,-49 502,-68 652,-68 652,-49 502,-49"/>
<text text-anchor="start" x="563.5" y="-54.8" font-family="arial" font-size="14.00" fill="darkgreen">0.00</text>
<text text-anchor="start" x="446" y="-34.8" font-family="arial" font-weight="bold" font-size="14.00" fill="white">Pct Diff </text>
<polygon fill="white" stroke="transparent" points="502,-28 502,-47 652,-47 652,-28 502,-28"/>
<text text-anchor="start" x="561" y="-33.8" font-family="arial" font-size="14.00" fill="darkgreen">0.0%</text>
<text text-anchor="start" x="413" y="-13.8" font-family="arial" font-weight="bold" font-size="14.00" fill="white">Contribution </text>
<polygon fill="white" stroke="transparent" points="502,-7 502,-26 652,-26 652,-7 502,-7"/>
<text text-anchor="start" x="551.5" y="-12.8" font-family="arial" font-size="14.00" fill="darkgreen">108.77K</text>
</g>
<!-- calc_spend_per_transaction&#45;&gt;calc_units_per_transaction -->
<g id="edge5" class="edge">
<title>calc_spend_per_transaction&#45;&gt;calc_units_per_transaction</title>
<path fill="none" stroke="black" d="M603.08,-179.88C594.09,-170.47 584.83,-160.78 575.73,-151.25"/>
<polygon fill="black" stroke="black" points="578.25,-148.82 568.81,-144 573.19,-153.65 578.25,-148.82"/>
</g>
<!-- calc_price_per_unit -->
<g id="node7" class="node">
<title>calc_price_per_unit</title>
<path fill="#22c55e" stroke="#22c55e" d="M990,-144C990,-144 692,-144 692,-144 686,-144 680,-138 680,-132 680,-132 680,-12 680,-12 680,-6 686,0 692,0 692,0 990,0 990,0 996,0 1002,-6 1002,-12 1002,-12 1002,-132 1002,-132 1002,-138 996,-144 990,-144"/>
<text text-anchor="start" x="793.5" y="-120.6" font-family="arial" font-weight="bold" font-size="18.00" fill="white">Price / Unit</text>
<text text-anchor="start" x="717.5" y="-97.8" font-family="arial" font-weight="bold" font-size="14.00" fill="white">Current Period</text>
<text text-anchor="start" x="865.5" y="-97.8" font-family="arial" font-weight="bold" font-size="14.00" fill="white">Previous Period</text>
<polygon fill="white" stroke="transparent" points="690,-70 690,-89 840,-89 840,-70 690,-70"/>
<text text-anchor="start" x="744" y="-75.8" font-family="arial" font-size="14.00">394.74</text>
<polygon fill="white" stroke="transparent" points="842,-70 842,-89 992,-89 992,-70 842,-70"/>
<text text-anchor="start" x="896" y="-75.8" font-family="arial" font-size="14.00">401.39</text>
<text text-anchor="start" x="811" y="-55.8" font-family="arial" font-weight="bold" font-size="14.00" fill="white">Diff </text>
<polygon fill="white" stroke="transparent" points="842,-49 842,-68 992,-68 992,-49 842,-49"/>
<text text-anchor="start" x="901.5" y="-54.8" font-family="arial" font-size="14.00" fill="red">&#45;6.65</text>
<text text-anchor="start" x="786" y="-34.8" font-family="arial" font-weight="bold" font-size="14.00" fill="white">Pct Diff </text>
<polygon fill="white" stroke="transparent" points="842,-28 842,-47 992,-47 992,-28 842,-28"/>
<text text-anchor="start" x="898.5" y="-33.8" font-family="arial" font-size="14.00" fill="red">&#45;1.7%</text>
<text text-anchor="start" x="753" y="-13.8" font-family="arial" font-weight="bold" font-size="14.00" fill="white">Contribution </text>
<polygon fill="white" stroke="transparent" points="842,-7 842,-26 992,-26 992,-7 842,-7"/>
<text text-anchor="start" x="893" y="-12.8" font-family="arial" font-size="14.00" fill="red">&#45;708.4K</text>
</g>
<!-- calc_spend_per_transaction&#45;&gt;calc_price_per_unit -->
<g id="edge6" class="edge">
<title>calc_spend_per_transaction&#45;&gt;calc_price_per_unit</title>
<path fill="none" stroke="black" d="M738.92,-179.88C747.91,-170.47 757.17,-160.78 766.27,-151.25"/>
<polygon fill="black" stroke="black" points="768.81,-153.65 773.19,-144 763.75,-148.82 768.81,-153.65"/>
</g>
</g>
</svg>
