<svg xmlns="http://www.w3.org/2000/svg" viewBox="0 0 512 512" width="512" height="512">
  <defs>
    <radialGradient id="lightGreenGrad" cx="35%" cy="35%" r="70%">
      <stop offset="0%" stop-color="#34d16e"/>
      <stop offset="100%" stop-color="#1bb854"/>
    </radialGradient>

    <linearGradient id="darkGreenGrad" x1="0%" y1="0%" x2="100%" y2="100%">
      <stop offset="0%" stop-color="#1a8c42"/>
      <stop offset="100%" stop-color="#127035"/>
    </linearGradient>

    <style>
      .light-green { fill: url(#lightGreenGrad); }
      .dark-green  { fill: url(#darkGreenGrad); }
      .white-stroke { stroke: #fff; stroke-width: 4px; }
    </style>
  </defs>

  <g transform="translate(256 256)">
    <path d="M0-192A192 192 0 1 1-192 0A192 192 0 0 1 0-192M0-144A144 144 0 1 0 144 0A144 144 0 0 0 0-144" class="light-green white-stroke"/>
    <path d="M136.95-44.50A144 144 0 0 0 44.50-136.95L59.33-182.60A192 192 0 0 1 182.60-59.33Z" class="dark-green white-stroke"/>

    <path d="M0-144A144 144 0 1 1-144 0A144 144 0 0 1 0-144M0-96A96 96 0 1 0 96 0A96 96 0 0 0 0-96" class="light-green white-stroke"/>
    <path d="M91.30-29.67A96 96 0 0 0 29.67-91.30L44.50-136.95A144 144 0 0 1 136.95-44.50Z" class="dark-green white-stroke"/>
  </g>
</svg>
