<?xml version="1.0" encoding="utf-8" standalone="no"?>
<!DOCTYPE svg PUBLIC "-//W3C//DTD SVG 1.1//EN"
  "http://www.w3.org/Graphics/SVG/1.1/DTD/svg11.dtd">
<svg xmlns:xlink="http://www.w3.org/1999/xlink" width="538.489125pt" height="379.232625pt" viewBox="0 0 538.489125 379.232625" xmlns="http://www.w3.org/2000/svg" version="1.1">
 <metadata>
  <rdf:RDF xmlns:dc="http://purl.org/dc/elements/1.1/" xmlns:cc="http://creativecommons.org/ns#" xmlns:rdf="http://www.w3.org/1999/02/22-rdf-syntax-ns#">
   <cc:Work>
    <dc:type rdf:resource="http://purl.org/dc/dcmitype/StillImage"/>
    <dc:date>2024-10-02T22:42:48.390157</dc:date>
    <dc:format>image/svg+xml</dc:format>
    <dc:creator>
     <cc:Agent>
      <dc:title>Matplotlib v3.9.1.post1, https://matplotlib.org/</dc:title>
     </cc:Agent>
    </dc:creator>
   </cc:Work>
  </rdf:RDF>
 </metadata>
 <defs>
  <style type="text/css">*{stroke-linejoin: round; stroke-linecap: butt}</style>
 </defs>
 <g id="figure_1">
  <g id="patch_1">
   <path d="M 0 379.232625
L 538.489125 379.232625
L 538.489125 0
L 0 0
z
" style="fill: #ffffff"/>
  </g>
  <g id="axes_1">
   <g id="patch_2">
    <path d="M 67.31 301.752625
L 424.43 301.752625
L 424.43 35.640625
L 67.31 35.640625
z
" style="fill: #ffffff"/>
   </g>
   <g id="matplotlib.axis_1">
    <g id="xtick_1">
     <g id="line2d_1">
      <path d="M 89.604907 301.752625
L 89.604907 35.640625
" clip-path="url(#p3af53a868d)" style="fill: none; stroke: #dad8d7; stroke-opacity: 0.5; stroke-width: 0.8; stroke-linecap: square"/>
     </g>
     <g id="line2d_2">
      <defs>
       <path id="m4e295ad51b" d="M 0 0
L 0 3.5
" style="stroke: #000000; stroke-width: 0.8"/>
      </defs>
      <g>
       <use xlink:href="#m4e295ad51b" x="89.604907" y="301.752625" style="stroke: #000000; stroke-width: 0.8"/>
      </g>
     </g>
     <g id="text_1">
      <!-- 20 -->
      <g transform="translate(83.590063 316.152625) scale(0.1 -0.1)">
       <defs>
        <path id="Poppins-Regular-32" d="M 326 467
Q 1139 1120 1600 1539
Q 2061 1958 2377 2416
Q 2694 2874 2694 3315
Q 2694 3731 2492 3971
Q 2291 4211 1843 4211
Q 1408 4211 1168 3939
Q 928 3667 909 3213
L 346 3213
Q 371 3930 780 4320
Q 1190 4710 1837 4710
Q 2496 4710 2883 4345
Q 3270 3981 3270 3341
Q 3270 2810 2953 2307
Q 2637 1805 2233 1424
Q 1830 1043 1203 538
L 3405 538
L 3405 51
L 326 51
L 326 467
z
" transform="scale(0.015625)"/>
        <path id="Poppins-Regular-30" d="M 397 2362
Q 397 3462 755 4080
Q 1114 4698 2010 4698
Q 2899 4698 3257 4080
Q 3616 3462 3616 2362
Q 3616 1242 3257 621
Q 2899 0 2010 0
Q 1114 0 755 621
Q 397 1242 397 2362
z
M 3040 2362
Q 3040 2918 2966 3305
Q 2893 3693 2665 3929
Q 2438 4166 2010 4166
Q 1574 4166 1347 3929
Q 1120 3693 1046 3305
Q 973 2918 973 2362
Q 973 1786 1046 1395
Q 1120 1005 1347 768
Q 1574 531 2010 531
Q 2438 531 2665 768
Q 2893 1005 2966 1395
Q 3040 1786 3040 2362
z
" transform="scale(0.015625)"/>
       </defs>
       <use xlink:href="#Poppins-Regular-32"/>
       <use xlink:href="#Poppins-Regular-30" x="57.499985"/>
      </g>
     </g>
    </g>
    <g id="xtick_2">
     <g id="line2d_3">
      <path d="M 135.240883 301.752625
L 135.240883 35.640625
" clip-path="url(#p3af53a868d)" style="fill: none; stroke: #dad8d7; stroke-opacity: 0.5; stroke-width: 0.8; stroke-linecap: square"/>
     </g>
     <g id="line2d_4">
      <g>
       <use xlink:href="#m4e295ad51b" x="135.240883" y="301.752625" style="stroke: #000000; stroke-width: 0.8"/>
      </g>
     </g>
     <g id="text_2">
      <!-- 40 -->
      <g transform="translate(128.955727 316.152625) scale(0.1 -0.1)">
       <defs>
        <path id="Poppins-Regular-34" d="M 256 1030
L 256 1472
L 2502 4582
L 3200 4582
L 3200 1536
L 3840 1536
L 3840 1030
L 3200 1030
L 3200 0
L 2624 0
L 2624 1030
L 256 1030
z
M 2650 3974
L 928 1536
L 2650 1536
L 2650 3974
z
" transform="scale(0.015625)"/>
       </defs>
       <use xlink:href="#Poppins-Regular-34"/>
       <use xlink:href="#Poppins-Regular-30" x="62.899994"/>
      </g>
     </g>
    </g>
    <g id="xtick_3">
     <g id="line2d_5">
      <path d="M 180.876858 301.752625
L 180.876858 35.640625
" clip-path="url(#p3af53a868d)" style="fill: none; stroke: #dad8d7; stroke-opacity: 0.5; stroke-width: 0.8; stroke-linecap: square"/>
     </g>
     <g id="line2d_6">
      <g>
       <use xlink:href="#m4e295ad51b" x="180.876858" y="301.752625" style="stroke: #000000; stroke-width: 0.8"/>
      </g>
     </g>
     <g id="text_3">
      <!-- 60 -->
      <g transform="translate(174.562015 316.152625) scale(0.1 -0.1)">
       <defs>
        <path id="Poppins-Regular-34" d="M 256 1030
L 256 1472
L 2502 4582
L 3200 4582
L 3200 1536
L 3840 1536
L 3840 1030
L 3200 1030
L 3200 0
L 2624 0
L 2624 1030
L 256 1030
z
M 2650 3974
L 928 1536
L 2650 1536
L 2650 3974
z
" transform="scale(0.015625)"/>
       </defs>
       <use xlink:href="#Poppins-Regular-34"/>
       <use xlink:href="#Poppins-Regular-30" x="62.899994"/>
      </g>
     </g>
    </g>
    <g id="xtick_4">
     <g id="line2d_7">
      <path d="M 226.512834 301.752625
L 226.512834 35.640625
" clip-path="url(#p3af53a868d)" style="fill: none; stroke: #dad8d7; stroke-opacity: 0.5; stroke-width: 0.8; stroke-linecap: square"/>
     </g>
     <g id="line2d_6">
      <g>
       <use xlink:href="#m4e295ad51b" x="226.512834" y="301.752625" style="stroke: #000000; stroke-width: 0.8"/>
      </g>
     </g>
     <g id="text_3">
      <!-- 80 -->
      <g transform="translate(220.218303 316.152625) scale(0.1 -0.1)">
       <defs>
        <path id="Poppins-Regular-36" d="M 2976 3526
Q 2835 4237 2099 4237
Q 1530 4237 1248 3798
Q 966 3360 973 2355
Q 1120 2688 1462 2877
Q 1805 3066 2227 3066
Q 2886 3066 3280 2656
Q 3674 2246 3674 1523
Q 3674 1088 3504 742
Q 3334 397 2992 192
Q 2650 -13 2163 -13
Q 1504 -13 1133 281
Q 762 576 614 1094
Q 467 1613 467 2374
Q 467 4723 2106 4723
Q 2733 4723 3091 4384
Q 3450 4045 3514 3526
L 2976 3526
z
M 2106 2573
Q 1830 2573 1587 2461
Q 1344 2349 1193 2121
Q 1043 1894 1043 1568
Q 1043 1082 1324 778
Q 1606 474 2131 474
Q 2579 474 2844 752
Q 3110 1030 3110 1504
Q 3110 2003 2854 2288
Q 2598 2573 2106 2573
z
" transform="scale(0.015625)"/>
       </defs>
       <use xlink:href="#Poppins-Regular-36"/>
       <use xlink:href="#Poppins-Regular-30" x="63.499985"/>
      </g>
     </g>
    </g>
    <g id="xtick_5">
     <g id="line2d_9">
      <path d="M 272.14881 301.752625
L 272.14881 35.640625
" clip-path="url(#p3af53a868d)" style="fill: none; stroke: #dad8d7; stroke-opacity: 0.5; stroke-width: 0.8; stroke-linecap: square"/>
     </g>
     <g id="line2d_8">
      <g>
       <use xlink:href="#m4e295ad51b" x="272.14881" y="301.752625" style="stroke: #000000; stroke-width: 0.8"/>
      </g>
     </g>
     <g id="text_4">
      <!-- 100 -->
      <g transform="translate(264.269122 316.152625) scale(0.1 -0.1)">
       <defs>
        <path id="Poppins-Regular-38" d="M 1242 2406
Q 883 2547 691 2816
Q 499 3085 499 3469
Q 499 3814 672 4092
Q 845 4371 1187 4534
Q 1530 4698 2016 4698
Q 2502 4698 2844 4534
Q 3187 4371 3363 4092
Q 3539 3814 3539 3469
Q 3539 3098 3340 2819
Q 3142 2541 2797 2406
Q 3194 2285 3427 1981
Q 3661 1677 3661 1248
Q 3661 832 3456 521
Q 3251 211 2876 41
Q 2502 -128 2016 -128
Q 1530 -128 1162 41
Q 794 211 589 521
Q 384 832 384 1248
Q 384 1677 614 1984
Q 845 2291 1242 2406
z
M 2976 3398
Q 2976 3789 2720 4000
Q 2464 4211 2016 4211
Q 1574 4211 1318 4000
Q 1062 3789 1062 3392
Q 1062 3034 1328 2816
Q 1594 2598 2016 2598
Q 2445 2598 2710 2819
Q 2976 3040 2976 3398
z
M 2016 2150
Q 1542 2150 1241 1929
Q 941 1709 941 1267
Q 941 858 1232 608
Q 1523 358 2016 358
Q 2509 358 2797 608
Q 3085 858 3085 1267
Q 3085 1696 2790 1923
Q 2496 2150 2016 2150
z
" transform="scale(0.015625)"/>
       </defs>
       <use xlink:href="#Poppins-Regular-38"/>
       <use xlink:href="#Poppins-Regular-30" x="63.099991"/>
      </g>
     </g>
    </g>
    <g id="xtick_6">
     <g id="line2d_11">
      <path d="M 317.784786 301.752625
L 317.784786 35.640625
" clip-path="url(#p3af53a868d)" style="fill: none; stroke: #dad8d7; stroke-opacity: 0.5; stroke-width: 0.8; stroke-linecap: square"/>
     </g>
     <g id="line2d_10">
      <g>
       <use xlink:href="#m4e295ad51b" x="317.784786" y="301.752625" style="stroke: #000000; stroke-width: 0.8"/>
      </g>
     </g>
     <g id="text_5">
      <!-- 120 -->
      <g transform="translate(310.169942 316.152625) scale(0.1 -0.1)">
       <use xlink:href="#Poppins-Regular-31"/>
       <use xlink:href="#Poppins-Regular-30" x="31.999985"/>
       <use xlink:href="#Poppins-Regular-30" x="94.799973"/>
      </g>
     </g>
    </g>
    <g id="xtick_7">
     <g id="line2d_13">
      <path d="M 363.420761 301.752625
L 363.420761 35.640625
" clip-path="url(#p3af53a868d)" style="fill: none; stroke: #dad8d7; stroke-opacity: 0.5; stroke-width: 0.8; stroke-linecap: square"/>
     </g>
     <g id="line2d_12">
      <g>
       <use xlink:href="#m4e295ad51b" x="363.420761" y="301.752625" style="stroke: #000000; stroke-width: 0.8"/>
      </g>
     </g>
     <g id="text_6">
      <!-- 120 -->
      <g transform="translate(310.169942 316.152625) scale(0.1 -0.1)">
       <use xlink:href="#Poppins-Regular-31"/>
       <use xlink:href="#Poppins-Regular-32" x="31.999985"/>
       <use xlink:href="#Poppins-Regular-30" x="89.499969"/>
      </g>
     </g>
    </g>
    <g id="xtick_7">
     <g id="line2d_13">
      <path d="M 363.420761 301.752625
L 363.420761 35.640625
" clip-path="url(#p3af53a868d)" style="fill: none; stroke: #dad8d7; stroke-opacity: 0.5; stroke-width: 0.8; stroke-linecap: square"/>
     </g>
     <g id="line2d_14">
      <g>
       <use xlink:href="#m4e295ad51b" x="363.420761" y="301.752625" style="stroke: #000000; stroke-width: 0.8"/>
      </g>
     </g>
     <g id="text_7">
      <!-- 140 -->
      <g transform="translate(355.535605 316.152625) scale(0.1 -0.1)">
       <use xlink:href="#Poppins-Regular-31"/>
       <use xlink:href="#Poppins-Regular-34" x="31.999985"/>
       <use xlink:href="#Poppins-Regular-30" x="94.899979"/>
      </g>
     </g>
    </g>
    <g id="xtick_8">
     <g id="line2d_15">
      <path d="M 409.056737 301.752625
L 409.056737 35.640625
" clip-path="url(#p3af53a868d)" style="fill: none; stroke: #dad8d7; stroke-opacity: 0.5; stroke-width: 0.8; stroke-linecap: square"/>
     </g>
     <g id="line2d_16">
      <g>
       <use xlink:href="#m4e295ad51b" x="409.056737" y="301.752625" style="stroke: #000000; stroke-width: 0.8"/>
      </g>
     </g>
     <g id="text_8">
      <!-- 160 -->
      <g transform="translate(401.141893 316.152625) scale(0.1 -0.1)">
       <use xlink:href="#Poppins-Regular-31"/>
       <use xlink:href="#Poppins-Regular-36" x="31.999985"/>
       <use xlink:href="#Poppins-Regular-30" x="95.499969"/>
      </g>
     </g>
    </g>
    <g id="text_9">
     <!-- Revenue (£) -->
     <g transform="translate(209.245625 339.072625) scale(0.12 -0.12)">
      <defs>
       <path id="Poppins-Regular-52" d="M 2842 0
L 1779 1824
L 1075 1824
L 1075 0
L 493 0
L 493 4461
L 1933 4461
Q 2438 4461 2787 4288
Q 3136 4115 3309 3820
Q 3482 3526 3482 3149
Q 3482 2688 3216 2336
Q 2950 1984 2419 1869
L 3539 0
L 2842 0
z
M 1075 2291
L 1933 2291
Q 2406 2291 2643 2524
Q 2880 2758 2880 3149
Q 2880 3546 2646 3763
Q 2413 3981 1933 3981
L 1075 3981
L 1075 2291
z
" transform="scale(0.015625)"/>
       <path id="Poppins-Regular-65" d="M 3693 1888
Q 3693 1722 3674 1536
L 870 1536
Q 902 1018 1225 726
Q 1549 435 2010 435
Q 2387 435 2640 611
Q 2893 787 2995 1082
L 3622 1082
Q 3482 576 3059 259
Q 2637 -58 2010 -58
Q 1510 -58 1116 166
Q 723 390 499 803
Q 275 1216 275 1760
Q 275 2304 492 2713
Q 710 3123 1104 3344
Q 1498 3565 2010 3565
Q 2509 3565 2893 3347
Q 3277 3130 3485 2749
Q 3693 2368 3693 1888
z
M 3091 2010
Q 3091 2342 2944 2582
Q 2797 2822 2544 2947
Q 2291 3072 1984 3072
Q 1542 3072 1232 2790
Q 922 2509 877 2010
L 3091 2010
z
" transform="scale(0.015625)"/>
       <path id="Poppins-Regular-76" d="M 1798 538
L 2886 3507
L 3507 3507
L 2131 0
L 1453 0
L 77 3507
L 704 3507
L 1798 538
z
" transform="scale(0.015625)"/>
       <path id="Poppins-Regular-6e" d="M 2202 3571
Q 2842 3571 3238 3184
Q 3635 2797 3635 2067
L 3635 0
L 3059 0
L 3059 1984
Q 3059 2509 2796 2787
Q 2534 3066 2080 3066
Q 1619 3066 1347 2778
Q 1075 2490 1075 1939
L 1075 0
L 493 0
L 493 3507
L 1075 3507
L 1075 3008
Q 1248 3277 1545 3424
Q 1843 3571 2202 3571
z
" transform="scale(0.015625)"/>
       <path id="Poppins-Regular-75" d="M 3603 3507
L 3603 0
L 3021 0
L 3021 518
Q 2854 250 2556 99
Q 2259 -51 1901 -51
Q 1491 -51 1164 118
Q 838 288 649 627
Q 461 966 461 1453
L 461 3507
L 1037 3507
L 1037 1530
Q 1037 1011 1299 732
Q 1562 454 2016 454
Q 2483 454 2752 742
Q 3021 1030 3021 1581
L 3021 3507
L 3603 3507
z
" transform="scale(0.015625)"/>
       <path id="Poppins-Regular-20" transform="scale(0.015625)"/>
       <path id="Poppins-Regular-28" d="M 1990 -1190
Q 1376 -589 1033 339
Q 691 1267 691 2342
Q 691 3443 1052 4400
Q 1414 5357 2086 5978
L 2694 5978
L 2694 5920
Q 1978 5248 1616 4304
Q 1254 3360 1254 2342
Q 1254 1350 1596 448
Q 1939 -454 2598 -1133
L 2598 -1190
L 1990 -1190
z
" transform="scale(0.015625)"/>
       <path id="Poppins-Regular-a3" d="M 3488 474
L 3488 -13
L 634 -13
L 531 320
Q 800 621 931 896
Q 1062 1171 1062 1574
Q 1062 1741 1005 1971
L 282 1971
L 282 2381
L 864 2381
Q 781 2605 736 2806
Q 691 3008 691 3251
Q 691 3661 867 3965
Q 1043 4269 1360 4435
Q 1677 4602 2086 4602
Q 2739 4602 3091 4224
Q 3443 3846 3469 3270
L 2931 3270
Q 2918 3648 2704 3878
Q 2490 4109 2086 4109
Q 1715 4109 1481 3891
Q 1248 3674 1248 3226
Q 1248 3014 1293 2825
Q 1338 2637 1427 2381
L 2669 2381
L 2669 1971
L 1555 1971
Q 1613 1741 1613 1574
Q 1613 966 1158 474
L 3488 474
z
" transform="scale(0.015625)"/>
       <path id="Poppins-Regular-29" d="M 307 -1190
L 307 -1133
Q 966 -454 1308 448
Q 1651 1350 1651 2342
Q 1651 3360 1289 4304
Q 928 5248 211 5920
L 211 5978
L 819 5978
Q 1491 5357 1852 4400
Q 2214 3443 2214 2342
Q 2214 1267 1872 339
Q 1530 -589 915 -1190
L 307 -1190
z
" transform="scale(0.015625)"/>
      </defs>
      <use xlink:href="#Poppins-Regular-52"/>
      <use xlink:href="#Poppins-Regular-65" x="60.799988"/>
      <use xlink:href="#Poppins-Regular-76" x="122.799973"/>
      <use xlink:href="#Poppins-Regular-65" x="178.899963"/>
      <use xlink:href="#Poppins-Regular-6e" x="240.899948"/>
      <use xlink:href="#Poppins-Regular-75" x="304.899933"/>
      <use xlink:href="#Poppins-Regular-65" x="368.899918"/>
      <use xlink:href="#Poppins-Regular-20" x="430.899902"/>
      <use xlink:href="#Poppins-Regular-28" x="457.599899"/>
      <use xlink:href="#Poppins-Regular-a3" x="502.999893"/>
      <use xlink:href="#Poppins-Regular-29" x="564.999878"/>
     </g>
    </g>
   </g>
   <g id="matplotlib.axis_2">
    <g id="ytick_1">
     <g id="line2d_17">
      <path d="M 67.31 301.752625
L 424.43 301.752625
" clip-path="url(#p3af53a868d)" style="fill: none; stroke: #dad8d7; stroke-opacity: 0.5; stroke-width: 0.8; stroke-linecap: square"/>
     </g>
     <g id="line2d_18">
      <defs>
       <path id="mbb82659f6e" d="M 0 0
L -3.5 0
" style="stroke: #000000; stroke-width: 0.8"/>
      </defs>
      <g>
       <use xlink:href="#mbb82659f6e" x="67.31" y="301.752625" style="stroke: #000000; stroke-width: 0.8"/>
      </g>
     </g>
     <g id="text_10">
      <!-- 0 -->
      <g transform="translate(54.030313 305.452625) scale(0.1 -0.1)">
       <use xlink:href="#Poppins-Regular-30"/>
      </g>
     </g>
    </g>
    <g id="ytick_2">
     <g id="line2d_19">
      <path d="M 67.31 251.33687
L 424.43 251.33687
" clip-path="url(#p3af53a868d)" style="fill: none; stroke: #dad8d7; stroke-opacity: 0.5; stroke-width: 0.8; stroke-linecap: square"/>
     </g>
     <g id="line2d_18">
      <g>
       <use xlink:href="#mbb82659f6e" x="67.31" y="251.33687" style="stroke: #000000; stroke-width: 0.8"/>
      </g>
     </g>
     <g id="text_11">
      <!-- 5000 -->
      <g transform="translate(35.19125 255.03687) scale(0.1 -0.1)">
       <defs>
        <path id="Poppins-Regular-35" d="M 3347 4122
L 1101 4122
L 1101 2662
Q 1248 2867 1536 2998
Q 1824 3130 2157 3130
Q 2688 3130 3021 2909
Q 3354 2688 3498 2339
Q 3642 1990 3642 1600
Q 3642 1139 3469 774
Q 3296 410 2941 198
Q 2586 -13 2061 -13
Q 1389 -13 973 332
Q 557 678 467 1254
L 1037 1254
Q 1120 890 1389 685
Q 1658 480 2067 480
Q 2573 480 2829 784
Q 3085 1088 3085 1587
Q 3085 2086 2829 2358
Q 2573 2630 2074 2630
Q 1734 2630 1481 2467
Q 1229 2304 1114 2022
L 563 2022
L 563 4634
L 3347 4634
L 3347 4122
z
" transform="scale(0.015625)"/>
       </defs>
       <use xlink:href="#Poppins-Regular-32"/>
       <use xlink:href="#Poppins-Regular-35" x="57.499985"/>
       <use xlink:href="#Poppins-Regular-30" x="120.299973"/>
       <use xlink:href="#Poppins-Regular-30" x="183.09996"/>
      </g>
     </g>
    </g>
    <g id="ytick_3">
     <g id="line2d_19">
      <path d="M 67.31 251.33687
L 424.43 251.33687
" clip-path="url(#p3af53a868d)" style="fill: none; stroke: #dad8d7; stroke-opacity: 0.5; stroke-width: 0.8; stroke-linecap: square"/>
     </g>
     <g id="line2d_20">
      <g>
       <use xlink:href="#mbb82659f6e" x="67.31" y="251.33687" style="stroke: #000000; stroke-width: 0.8"/>
      </g>
     </g>
     <g id="text_11">
      <!-- 5000 -->
      <g transform="translate(35.19125 255.03687) scale(0.1 -0.1)">
       <defs>
        <path id="Poppins-Regular-35" d="M 3347 4122
L 1101 4122
L 1101 2662
Q 1248 2867 1536 2998
Q 1824 3130 2157 3130
Q 2688 3130 3021 2909
Q 3354 2688 3498 2339
Q 3642 1990 3642 1600
Q 3642 1139 3469 774
Q 3296 410 2941 198
Q 2586 -13 2061 -13
Q 1389 -13 973 332
Q 557 678 467 1254
L 1037 1254
Q 1120 890 1389 685
Q 1658 480 2067 480
Q 2573 480 2829 784
Q 3085 1088 3085 1587
Q 3085 2086 2829 2358
Q 2573 2630 2074 2630
Q 1734 2630 1481 2467
Q 1229 2304 1114 2022
L 563 2022
L 563 4634
L 3347 4634
L 3347 4122
z
" transform="scale(0.015625)"/>
       </defs>
       <use xlink:href="#Poppins-Regular-35"/>
       <use xlink:href="#Poppins-Regular-30" x="62.799988"/>
       <use xlink:href="#Poppins-Regular-30" x="125.599976"/>
       <use xlink:href="#Poppins-Regular-30" x="188.399963"/>
      </g>
     </g>
    </g>
    <g id="ytick_3">
     <g id="line2d_21">
      <path d="M 67.31 200.921115
L 424.43 200.921115
" clip-path="url(#p3af53a868d)" style="fill: none; stroke: #dad8d7; stroke-opacity: 0.5; stroke-width: 0.8; stroke-linecap: square"/>
     </g>
     <g id="line2d_22">
      <g>
       <use xlink:href="#mbb82659f6e" x="67.31" y="200.921115" style="stroke: #000000; stroke-width: 0.8"/>
      </g>
     </g>
     <g id="text_12">
      <!-- 10000 -->
      <g transform="translate(31.99125 204.621115) scale(0.1 -0.1)">
       <use xlink:href="#Poppins-Regular-31"/>
       <use xlink:href="#Poppins-Regular-30" x="31.999985"/>
       <use xlink:href="#Poppins-Regular-30" x="94.799973"/>
       <use xlink:href="#Poppins-Regular-30" x="157.59996"/>
       <use xlink:href="#Poppins-Regular-30" x="220.399948"/>
      </g>
     </g>
    </g>
    <g id="ytick_4">
     <g id="line2d_23">
      <path d="M 67.31 150.50536
L 424.43 150.50536
" clip-path="url(#p3af53a868d)" style="fill: none; stroke: #dad8d7; stroke-opacity: 0.5; stroke-width: 0.8; stroke-linecap: square"/>
     </g>
     <g id="line2d_24">
      <g>
       <use xlink:href="#mbb82659f6e" x="67.31" y="150.50536" style="stroke: #000000; stroke-width: 0.8"/>
      </g>
     </g>
     <g id="text_13">
      <!-- 15000 -->
      <g transform="translate(31.99125 154.20536) scale(0.1 -0.1)">
       <use xlink:href="#Poppins-Regular-31"/>
       <use xlink:href="#Poppins-Regular-35" x="31.999985"/>
       <use xlink:href="#Poppins-Regular-30" x="94.799973"/>
       <use xlink:href="#Poppins-Regular-30" x="157.59996"/>
       <use xlink:href="#Poppins-Regular-30" x="220.399948"/>
      </g>
     </g>
    </g>
    <g id="ytick_5">
     <g id="line2d_25">
      <path d="M 67.31 100.089605
L 424.43 100.089605
" clip-path="url(#p3af53a868d)" style="fill: none; stroke: #dad8d7; stroke-opacity: 0.5; stroke-width: 0.8; stroke-linecap: square"/>
     </g>
     <g id="line2d_26">
      <g>
       <use xlink:href="#mbb82659f6e" x="67.31" y="100.089605" style="stroke: #000000; stroke-width: 0.8"/>
      </g>
     </g>
     <g id="text_14">
      <!-- 20000 -->
      <g transform="translate(29.44125 103.789605) scale(0.1 -0.1)">
       <use xlink:href="#Poppins-Regular-32"/>
       <use xlink:href="#Poppins-Regular-30" x="57.499985"/>
       <use xlink:href="#Poppins-Regular-30" x="120.299973"/>
       <use xlink:href="#Poppins-Regular-30" x="183.09996"/>
       <use xlink:href="#Poppins-Regular-30" x="245.899948"/>
      </g>
     </g>
    </g>
    <g id="ytick_6">
     <g id="line2d_27">
      <path d="M 67.31 49.67385
L 424.43 49.67385
" clip-path="url(#p3af53a868d)" style="fill: none; stroke: #dad8d7; stroke-opacity: 0.5; stroke-width: 0.8; stroke-linecap: square"/>
     </g>
     <g id="line2d_28">
      <g>
       <use xlink:href="#mbb82659f6e" x="67.31" y="49.67385" style="stroke: #000000; stroke-width: 0.8"/>
      </g>
     </g>
     <g id="text_15">
      <!-- 25000 -->
      <g transform="translate(29.44125 53.37385) scale(0.1 -0.1)">
       <use xlink:href="#Poppins-Regular-32"/>
       <use xlink:href="#Poppins-Regular-35" x="57.499985"/>
       <use xlink:href="#Poppins-Regular-30" x="120.299973"/>
       <use xlink:href="#Poppins-Regular-30" x="183.09996"/>
       <use xlink:href="#Poppins-Regular-30" x="245.899948"/>
      </g>
     </g>
    </g>
    <g id="text_16">
     <!-- Number of Customers -->
     <g transform="translate(16.32125 234.865375) rotate(-90) scale(0.12 -0.12)">
      <defs>
       <path id="Poppins-Regular-4e" d="M 4000 0
L 3418 0
L 1075 3552
L 1075 0
L 493 0
L 493 4467
L 1075 4467
L 3418 922
L 3418 4467
L 4000 4467
L 4000 0
z
" transform="scale(0.015625)"/>
       <path id="Poppins-Regular-6d" d="M 4710 3571
Q 5120 3571 5440 3401
Q 5760 3232 5945 2893
Q 6131 2554 6131 2067
L 6131 0
L 5555 0
L 5555 1984
Q 5555 2509 5296 2787
Q 5037 3066 4595 3066
Q 4141 3066 3872 2774
Q 3603 2483 3603 1933
L 3603 0
L 3027 0
L 3027 1984
Q 3027 2509 2768 2787
Q 2509 3066 2067 3066
Q 1613 3066 1344 2774
Q 1075 2483 1075 1933
L 1075 0
L 493 0
L 493 3507
L 1075 3507
L 1075 3002
Q 1248 3277 1539 3424
Q 1830 3571 2182 3571
Q 2624 3571 2963 3372
Q 3302 3174 3469 2790
Q 3616 3162 3955 3366
Q 4294 3571 4710 3571
z
" transform="scale(0.015625)"/>
       <path id="Poppins-Regular-62" d="M 1075 2854
Q 1254 3168 1600 3366
Q 1946 3565 2387 3565
Q 2861 3565 3238 3341
Q 3616 3117 3833 2710
Q 4051 2304 4051 1766
Q 4051 1235 3833 819
Q 3616 403 3235 172
Q 2854 -58 2387 -58
Q 1933 -58 1590 140
Q 1248 339 1075 646
L 1075 0
L 493 0
L 493 4736
L 1075 4736
L 1075 2854
z
M 3456 1766
Q 3456 2163 3296 2457
Q 3136 2752 2864 2905
Q 2592 3059 2266 3059
Q 1946 3059 1674 2902
Q 1402 2746 1238 2448
Q 1075 2150 1075 1760
Q 1075 1363 1238 1065
Q 1402 768 1674 611
Q 1946 454 2266 454
Q 2592 454 2864 611
Q 3136 768 3296 1065
Q 3456 1363 3456 1766
z
" transform="scale(0.015625)"/>
       <path id="Poppins-Regular-72" d="M 1075 2938
Q 1229 3238 1513 3404
Q 1798 3571 2208 3571
L 2208 2970
L 2054 2970
Q 1075 2970 1075 1907
L 1075 0
L 493 0
L 493 3507
L 1075 3507
L 1075 2938
z
" transform="scale(0.015625)"/>
       <path id="Poppins-Regular-6f" d="M 2022 -58
Q 1530 -58 1130 166
Q 730 390 502 803
Q 275 1216 275 1760
Q 275 2298 508 2710
Q 742 3123 1145 3344
Q 1549 3565 2048 3565
Q 2547 3565 2950 3344
Q 3354 3123 3587 2713
Q 3821 2304 3821 1760
Q 3821 1216 3581 803
Q 3341 390 2931 166
Q 2522 -58 2022 -58
z
M 2022 454
Q 2336 454 2611 601
Q 2886 749 3056 1043
Q 3226 1338 3226 1760
Q 3226 2182 3059 2476
Q 2893 2771 2624 2915
Q 2355 3059 2042 3059
Q 1722 3059 1456 2915
Q 1190 2771 1030 2476
Q 870 2182 870 1760
Q 870 1331 1027 1036
Q 1184 742 1446 598
Q 1709 454 2022 454
z
" transform="scale(0.015625)"/>
       <path id="Poppins-Regular-66" d="M 1920 3027
L 1184 3027
L 1184 0
L 602 0
L 602 3027
L 147 3027
L 147 3507
L 602 3507
L 602 3757
Q 602 4346 906 4618
Q 1210 4890 1882 4890
L 1882 4403
Q 1498 4403 1341 4252
Q 1184 4102 1184 3757
L 1184 3507
L 1920 3507
L 1920 3027
z
" transform="scale(0.015625)"/>
       <path id="Poppins-Regular-43" d="M 275 2234
Q 275 2886 569 3408
Q 864 3930 1373 4224
Q 1882 4518 2502 4518
Q 3232 4518 3776 4166
Q 4320 3814 4570 3168
L 3872 3168
Q 3686 3571 3337 3788
Q 2989 4006 2502 4006
Q 2035 4006 1664 3788
Q 1293 3571 1081 3171
Q 870 2771 870 2234
Q 870 1702 1081 1302
Q 1293 902 1664 684
Q 2035 467 2502 467
Q 2989 467 3337 681
Q 3686 896 3872 1299
L 4570 1299
Q 4320 659 3776 310
Q 3232 -38 2502 -38
Q 1882 -38 1373 253
Q 864 544 569 1062
Q 275 1581 275 2234
z
" transform="scale(0.015625)"/>
       <path id="Poppins-Regular-73" d="M 1734 -58
Q 1331 -58 1011 80
Q 691 218 505 464
Q 320 710 301 1030
L 902 1030
Q 928 768 1149 601
Q 1370 435 1728 435
Q 2061 435 2253 582
Q 2445 730 2445 954
Q 2445 1184 2240 1296
Q 2035 1408 1606 1517
Q 1216 1619 969 1724
Q 723 1830 547 2038
Q 371 2246 371 2586
Q 371 2854 531 3078
Q 691 3302 985 3433
Q 1280 3565 1658 3565
Q 2240 3565 2598 3270
Q 2957 2976 2982 2464
L 2400 2464
Q 2381 2739 2179 2905
Q 1978 3072 1638 3072
Q 1325 3072 1139 2937
Q 954 2803 954 2586
Q 954 2413 1066 2301
Q 1178 2189 1347 2121
Q 1517 2054 1818 1971
Q 2195 1869 2432 1769
Q 2669 1670 2838 1472
Q 3008 1274 3014 954
Q 3014 666 2854 435
Q 2694 205 2403 73
Q 2112 -58 1734 -58
z
" transform="scale(0.015625)"/>
       <path id="Poppins-Regular-74" d="M 1203 3027
L 1203 960
Q 1203 704 1312 598
Q 1421 493 1690 493
L 2118 493
L 2118 0
L 1594 0
Q 1107 0 864 224
Q 621 448 621 960
L 621 3027
L 166 3027
L 166 3507
L 621 3507
L 621 4390
L 1203 4390
L 1203 3507
L 2118 3507
L 2118 3027
L 1203 3027
z
" transform="scale(0.015625)"/>
      </defs>
      <use xlink:href="#Poppins-Regular-4e"/>
      <use xlink:href="#Poppins-Regular-75" x="70.299988"/>
      <use xlink:href="#Poppins-Regular-6d" x="134.299973"/>
      <use xlink:href="#Poppins-Regular-62" x="237.299957"/>
      <use xlink:href="#Poppins-Regular-65" x="304.899948"/>
      <use xlink:href="#Poppins-Regular-72" x="366.899933"/>
      <use xlink:href="#Poppins-Regular-20" x="404.199921"/>
      <use xlink:href="#Poppins-Regular-6f" x="430.899918"/>
      <use xlink:href="#Poppins-Regular-66" x="494.899902"/>
      <use xlink:href="#Poppins-Regular-20" x="527.799896"/>
      <use xlink:href="#Poppins-Regular-43" x="554.499893"/>
      <use xlink:href="#Poppins-Regular-75" x="631.699875"/>
      <use xlink:href="#Poppins-Regular-73" x="695.69986"/>
      <use xlink:href="#Poppins-Regular-74" x="747.899857"/>
      <use xlink:href="#Poppins-Regular-6f" x="784.29985"/>
      <use xlink:href="#Poppins-Regular-6d" x="848.299835"/>
      <use xlink:href="#Poppins-Regular-65" x="951.29982"/>
      <use xlink:href="#Poppins-Regular-72" x="1013.299805"/>
      <use xlink:href="#Poppins-Regular-73" x="1050.599792"/>
     </g>
    </g>
   </g>
   <g id="patch_3">
    <path d="M 83.542727 301.752625
L 116.008182 301.752625
L 116.008182 301.732459
L 83.542727 301.732459
z
" clip-path="url(#p3af53a868d)" style="fill: url(#h23ee112b98); opacity: 0.7"/>
   </g>
   <g id="patch_4">
    <path d="M 116.008182 301.752625
L 148.473636 301.752625
L 148.473636 297.860529
L 116.008182 297.860529
z
" clip-path="url(#p3af53a868d)" style="fill: url(#h23ee112b98); opacity: 0.7"/>
   </g>
   <g id="patch_5">
    <path d="M 148.473636 301.752625
L 180.939091 301.752625
L 180.939091 224.203111
L 148.473636 224.203111
z
" clip-path="url(#p3af53a868d)" style="fill: url(#h23ee112b98); opacity: 0.7"/>
   </g>
   <g id="patch_6">
    <path d="M 180.939091 301.752625
L 213.404545 301.752625
L 213.404545 48.312625
L 180.939091 48.312625
z
" clip-path="url(#p3af53a868d)" style="fill: url(#h23ee112b98); opacity: 0.7"/>
   </g>
   <g id="patch_7">
    <path d="M 213.404545 301.752625
L 245.87 301.752625
L 245.87 148.781141
L 213.404545 148.781141
z
" clip-path="url(#p3af53a868d)" style="fill: url(#h23ee112b98); opacity: 0.7"/>
   </g>
   <g id="patch_8">
    <path d="M 245.87 301.752625
L 278.335455 301.752625
L 278.335455 285.770831
L 245.87 285.770831
z
" clip-path="url(#p3af53a868d)" style="fill: url(#h23ee112b98); opacity: 0.7"/>
   </g>
   <g id="patch_9">
    <path d="M 278.335455 301.752625
L 310.800909 301.752625
L 310.800909 301.45013
L 278.335455 301.45013
z
" clip-path="url(#p3af53a868d)" style="fill: url(#h23ee112b98); opacity: 0.7"/>
   </g>
   <g id="patch_10">
    <path d="M 310.800909 301.752625
L 343.266364 301.752625
L 343.266364 301.752625
L 310.800909 301.752625
z
" clip-path="url(#p3af53a868d)" style="fill: url(#h23ee112b98); opacity: 0.7"/>
   </g>
   <g id="patch_11">
    <path d="M 343.266364 301.752625
L 375.731818 301.752625
L 375.731818 301.752625
L 343.266364 301.752625
z
" clip-path="url(#p3af53a868d)" style="fill: url(#h23ee112b98); opacity: 0.7"/>
   </g>
   <g id="patch_12">
    <path d="M 375.731818 301.752625
L 408.197273 301.752625
L 408.197273 301.752625
L 375.731818 301.752625
z
" clip-path="url(#p3af53a868d)" style="fill: url(#h23ee112b98); opacity: 0.7"/>
   </g>
   <g id="patch_13">
    <path d="M 83.542727 301.752625
L 116.008182 301.752625
L 116.008182 301.722376
L 83.542727 301.722376
z
" clip-path="url(#p3af53a868d)" style="fill: url(#h65ba0bb49f); opacity: 0.7"/>
   </g>
   <g id="patch_14">
    <path d="M 116.008182 301.752625
L 148.473636 301.752625
L 148.473636 300.996389
L 116.008182 300.996389
z
" clip-path="url(#p3af53a868d)" style="fill: url(#h65ba0bb49f); opacity: 0.7"/>
   </g>
   <g id="patch_15">
    <path d="M 148.473636 301.752625
L 180.939091 301.752625
L 180.939091 290.580494
L 148.473636 290.580494
z
" clip-path="url(#p3af53a868d)" style="fill: url(#h65ba0bb49f); opacity: 0.7"/>
   </g>
   <g id="patch_16">
    <path d="M 180.939091 301.752625
L 213.404545 301.752625
L 213.404545 240.880643
L 180.939091 240.880643
z
" clip-path="url(#p3af53a868d)" style="fill: url(#h65ba0bb49f); opacity: 0.7"/>
   </g>
   <g id="patch_17">
    <path d="M 213.404545 301.752625
L 245.87 301.752625
L 245.87 144.979793
L 213.404545 144.979793
z
" clip-path="url(#p3af53a868d)" style="fill: url(#h65ba0bb49f); opacity: 0.7"/>
   </g>
   <g id="patch_18">
    <path d="M 245.87 301.752625
L 278.335455 301.752625
L 278.335455 127.031785
L 245.87 127.031785
z
" clip-path="url(#p3af53a868d)" style="fill: url(#h65ba0bb49f); opacity: 0.7"/>
   </g>
   <g id="patch_19">
    <path d="M 278.335455 301.752625
L 310.800909 301.752625
L 310.800909 219.665693
L 278.335455 219.665693
z
" clip-path="url(#p3af53a868d)" style="fill: url(#h65ba0bb49f); opacity: 0.7"/>
   </g>
   <g id="patch_20">
    <path d="M 310.800909 301.752625
L 343.266364 301.752625
L 343.266364 285.6095
L 310.800909 285.6095
z
" clip-path="url(#p3af53a868d)" style="fill: url(#h65ba0bb49f); opacity: 0.7"/>
   </g>
   <g id="patch_21">
    <path d="M 343.266364 301.752625
L 375.731818 301.752625
L 375.731818 300.230069
L 343.266364 300.230069
z
" clip-path="url(#p3af53a868d)" style="fill: url(#h65ba0bb49f); opacity: 0.7"/>
   </g>
   <g id="patch_22">
    <path d="M 375.731818 301.752625
L 408.197273 301.752625
L 408.197273 301.67196
L 375.731818 301.67196
z
" clip-path="url(#p3af53a868d)" style="fill: url(#h65ba0bb49f); opacity: 0.7"/>
   </g>
   <g id="patch_23">
    <path d="M 67.31 301.752625
L 67.31 35.640625
" style="fill: none; stroke: #000000; stroke-width: 0.8; stroke-linejoin: miter; stroke-linecap: square"/>
   </g>
   <g id="patch_24">
    <path d="M 67.31 301.752625
L 424.43 301.752625
" style="fill: none; stroke: #000000; stroke-width: 0.8; stroke-linejoin: miter; stroke-linecap: square"/>
   </g>
   <g id="text_17">
    <!-- First Purchase Revenue by Product (£) -->
    <g transform="translate(51.773125 25.640625) scale(0.2 -0.2)">
     <defs>
      <path id="Poppins-SemiBold-46" d="M 3200 4467
L 3200 3744
L 1338 3744
L 1338 2598
L 2765 2598
L 2765 1888
L 1338 1888
L 1338 0
L 442 0
L 442 4467
L 3200 4467
z
" transform="scale(0.015625)"/>
      <path id="Poppins-SemiBold-69" d="M 896 3968
Q 659 3968 502 4118
Q 346 4269 346 4493
Q 346 4717 502 4867
Q 659 5018 896 5018
Q 1133 5018 1289 4867
Q 1446 4717 1446 4493
Q 1446 4269 1289 4118
Q 1133 3968 896 3968
z
M 1338 3546
L 1338 0
L 442 0
L 442 3546
L 1338 3546
z
" transform="scale(0.015625)"/>
      <path id="Poppins-SemiBold-72" d="M 1338 2995
Q 1510 3277 1788 3437
Q 2067 3597 2426 3597
L 2426 2656
L 2189 2656
Q 1766 2656 1552 2457
Q 1338 2259 1338 1766
L 1338 0
L 442 0
L 442 3546
L 1338 3546
L 1338 2995
z
" transform="scale(0.015625)"/>
      <path id="Poppins-SemiBold-73" d="M 1798 -58
Q 1363 -58 1017 99
Q 672 256 470 525
Q 269 794 250 1120
L 1152 1120
Q 1178 915 1354 780
Q 1530 646 1792 646
Q 2048 646 2192 748
Q 2336 851 2336 1011
Q 2336 1184 2160 1270
Q 1984 1357 1600 1459
Q 1203 1555 950 1657
Q 698 1760 515 1971
Q 333 2182 333 2541
Q 333 2835 502 3078
Q 672 3322 989 3462
Q 1306 3603 1734 3603
Q 2368 3603 2745 3286
Q 3123 2970 3162 2432
L 2304 2432
Q 2285 2643 2128 2768
Q 1971 2893 1709 2893
Q 1466 2893 1334 2803
Q 1203 2714 1203 2554
Q 1203 2374 1382 2281
Q 1562 2189 1939 2093
Q 2323 1997 2572 1894
Q 2822 1792 3004 1577
Q 3187 1363 3194 1011
Q 3194 704 3024 461
Q 2854 218 2537 80
Q 2221 -58 1798 -58
z
" transform="scale(0.015625)"/>
      <path id="Poppins-SemiBold-74" d="M 1485 2810
L 1485 1094
Q 1485 915 1571 835
Q 1658 755 1862 755
L 2278 755
L 2278 0
L 1715 0
Q 582 0 582 1101
L 582 2810
L 160 2810
L 160 3546
L 582 3546
L 582 4422
L 1485 4422
L 1485 3546
L 2278 3546
L 2278 2810
L 1485 2810
z
" transform="scale(0.015625)"/>
      <path id="Poppins-SemiBold-20" transform="scale(0.015625)"/>
      <path id="Poppins-SemiBold-50" d="M 3699 3085
Q 3699 2726 3529 2412
Q 3360 2099 2998 1907
Q 2637 1715 2086 1715
L 1338 1715
L 1338 0
L 442 0
L 442 4467
L 2086 4467
Q 2605 4467 2969 4288
Q 3334 4109 3516 3795
Q 3699 3482 3699 3085
z
M 2048 2438
Q 2419 2438 2598 2608
Q 2778 2778 2778 3085
Q 2778 3738 2048 3738
L 1338 3738
L 1338 2438
L 2048 2438
z
" transform="scale(0.015625)"/>
      <path id="Poppins-SemiBold-75" d="M 3789 3546
L 3789 0
L 2886 0
L 2886 448
Q 2714 218 2435 86
Q 2157 -45 1830 -45
Q 1414 -45 1094 131
Q 774 307 592 649
Q 410 992 410 1466
L 410 3546
L 1306 3546
L 1306 1594
Q 1306 1171 1517 944
Q 1728 717 2093 717
Q 2464 717 2675 944
Q 2886 1171 2886 1594
L 2886 3546
L 3789 3546
z
" transform="scale(0.015625)"/>
      <path id="Poppins-SemiBold-63" d="M 211 1773
Q 211 2323 435 2736
Q 659 3149 1056 3376
Q 1453 3603 1965 3603
Q 2624 3603 3056 3273
Q 3488 2944 3635 2349
L 2669 2349
Q 2592 2579 2409 2710
Q 2227 2842 1958 2842
Q 1574 2842 1350 2563
Q 1126 2285 1126 1773
Q 1126 1267 1350 988
Q 1574 710 1958 710
Q 2502 710 2669 1197
L 3635 1197
Q 3488 621 3053 281
Q 2618 -58 1965 -58
Q 1453 -58 1056 169
Q 659 397 435 809
Q 211 1222 211 1773
z
" transform="scale(0.015625)"/>
      <path id="Poppins-SemiBold-68" d="M 2438 3597
Q 2842 3597 3155 3421
Q 3469 3245 3645 2902
Q 3821 2560 3821 2080
L 3821 0
L 2925 0
L 2925 1958
Q 2925 2381 2713 2608
Q 2502 2835 2138 2835
Q 1766 2835 1552 2608
Q 1338 2381 1338 1958
L 1338 0
L 442 0
L 442 4736
L 1338 4736
L 1338 3104
Q 1510 3334 1798 3465
Q 2086 3597 2438 3597
z
" transform="scale(0.015625)"/>
      <path id="Poppins-SemiBold-61" d="M 211 1786
Q 211 2323 425 2739
Q 640 3155 1008 3379
Q 1376 3603 1830 3603
Q 2227 3603 2524 3443
Q 2822 3283 3002 3040
L 3002 3546
L 3904 3546
L 3904 0
L 3002 0
L 3002 518
Q 2829 269 2525 105
Q 2221 -58 1824 -58
Q 1376 -58 1008 172
Q 640 403 425 822
Q 211 1242 211 1786
z
M 3002 1773
Q 3002 2099 2874 2332
Q 2746 2566 2528 2691
Q 2310 2816 2061 2816
Q 1811 2816 1600 2694
Q 1389 2573 1257 2339
Q 1126 2106 1126 1786
Q 1126 1466 1257 1226
Q 1389 986 1603 858
Q 1818 730 2061 730
Q 2310 730 2528 854
Q 2746 979 2874 1212
Q 3002 1446 3002 1773
z
" transform="scale(0.015625)"/>
      <path id="Poppins-SemiBold-65" d="M 3738 1850
Q 3738 1658 3712 1504
L 1120 1504
Q 1152 1120 1389 902
Q 1626 685 1971 685
Q 2470 685 2682 1114
L 3648 1114
Q 3494 602 3059 272
Q 2624 -58 1990 -58
Q 1478 -58 1072 169
Q 666 397 438 813
Q 211 1229 211 1773
Q 211 2323 435 2739
Q 659 3155 1062 3379
Q 1466 3603 1990 3603
Q 2496 3603 2896 3385
Q 3296 3168 3517 2768
Q 3738 2368 3738 1850
z
M 2810 2106
Q 2803 2451 2560 2659
Q 2317 2867 1965 2867
Q 1632 2867 1405 2665
Q 1178 2464 1126 2106
L 2810 2106
z
" transform="scale(0.015625)"/>
      <path id="Poppins-SemiBold-52" d="M 2746 0
L 1760 1741
L 1338 1741
L 1338 0
L 442 0
L 442 4467
L 2118 4467
Q 2637 4467 3001 4284
Q 3366 4102 3548 3792
Q 3731 3482 3731 3098
Q 3731 2656 3475 2301
Q 3219 1946 2714 1811
L 3782 0
L 2746 0
z
M 1338 2413
L 2086 2413
Q 2451 2413 2630 2589
Q 2810 2765 2810 3078
Q 2810 3386 2630 3555
Q 2451 3725 2086 3725
L 1338 3725
L 1338 2413
z
" transform="scale(0.015625)"/>
      <path id="Poppins-SemiBold-76" d="M 1920 826
L 2816 3546
L 3770 3546
L 2458 0
L 1370 0
L 64 3546
L 1024 3546
L 1920 826
z
" transform="scale(0.015625)"/>
      <path id="Poppins-SemiBold-6e" d="M 2406 3597
Q 3040 3597 3430 3197
Q 3821 2797 3821 2080
L 3821 0
L 2925 0
L 2925 1958
Q 2925 2381 2713 2608
Q 2502 2835 2138 2835
Q 1766 2835 1552 2608
Q 1338 2381 1338 1958
L 1338 0
L 442 0
L 442 3546
L 1338 3546
L 1338 3104
Q 1517 3334 1795 3465
Q 2074 3597 2406 3597
z
" transform="scale(0.015625)"/>
      <path id="Poppins-SemiBold-62" d="M 1338 3027
Q 1510 3283 1814 3443
Q 2118 3603 2509 3603
Q 2963 3603 3331 3379
Q 3699 3155 3913 2742
Q 4128 2330 4128 1786
Q 4128 1242 3913 822
Q 3699 403 3331 172
Q 2963 -58 2509 -58
Q 2112 -58 1814 99
Q 1517 256 1338 506
L 1338 0
L 442 0
L 442 4736
L 1338 4736
L 1338 3027
z
M 3213 1786
Q 3213 2106 3081 2339
Q 2950 2573 2736 2694
Q 2522 2816 2272 2816
Q 2029 2816 1814 2691
Q 1600 2566 1469 2329
Q 1338 2093 1338 1773
Q 1338 1453 1469 1216
Q 1600 979 1814 854
Q 2029 730 2272 730
Q 2522 730 2736 858
Q 2950 986 3081 1222
Q 3213 1459 3213 1786
z
" transform="scale(0.015625)"/>
      <path id="Poppins-SemiBold-79" d="M 3834 3546
L 1638 -1677
L 685 -1677
L 1453 90
L 32 3546
L 1037 3546
L 1952 1069
L 2880 3546
L 3834 3546
z
" transform="scale(0.015625)"/>
      <path id="Poppins-SemiBold-6f" d="M 2016 -58
Q 1504 -58 1094 169
Q 685 397 451 813
Q 218 1229 218 1773
Q 218 2317 458 2733
Q 698 3149 1114 3376
Q 1530 3603 2042 3603
Q 2554 3603 2970 3376
Q 3386 3149 3626 2733
Q 3866 2317 3866 1773
Q 3866 1229 3619 813
Q 3373 397 2953 169
Q 2534 -58 2016 -58
z
M 2016 723
Q 2259 723 2473 841
Q 2688 960 2816 1197
Q 2944 1434 2944 1773
Q 2944 2278 2678 2550
Q 2413 2822 2029 2822
Q 1645 2822 1385 2550
Q 1126 2278 1126 1773
Q 1126 1267 1379 995
Q 1632 723 2016 723
z
" transform="scale(0.015625)"/>
      <path id="Poppins-SemiBold-64" d="M 211 1786
Q 211 2323 425 2739
Q 640 3155 1011 3379
Q 1382 3603 1837 3603
Q 2182 3603 2496 3452
Q 2810 3302 2995 3053
L 2995 4736
L 3904 4736
L 3904 0
L 2995 0
L 2995 525
Q 2829 262 2528 102
Q 2227 -58 1830 -58
Q 1382 -58 1011 172
Q 640 403 425 822
Q 211 1242 211 1786
z
M 3002 1773
Q 3002 2099 2874 2332
Q 2746 2566 2528 2691
Q 2310 2816 2061 2816
Q 1811 2816 1600 2694
Q 1389 2573 1257 2339
Q 1126 2106 1126 1786
Q 1126 1466 1257 1226
Q 1389 986 1603 858
Q 1818 730 2061 730
Q 2310 730 2528 854
Q 2746 979 2874 1212
Q 3002 1446 3002 1773
z
" transform="scale(0.015625)"/>
      <path id="Poppins-SemiBold-28" d="M 1990 -1261
Q 1370 -659 1027 275
Q 685 1210 685 2278
Q 685 3373 1043 4336
Q 1402 5299 2086 5914
L 2989 5914
L 2989 5830
Q 2285 5158 1917 4217
Q 1549 3277 1549 2278
Q 1549 1306 1897 400
Q 2246 -506 2893 -1171
L 2893 -1261
L 1990 -1261
z
" transform="scale(0.015625)"/>
      <path id="Poppins-SemiBold-a3" d="M 3661 698
L 3661 -19
L 557 -19
L 416 442
Q 704 723 838 1014
Q 973 1306 973 1741
Q 973 1786 960 1888
L 250 1888
L 250 2502
L 781 2502
Q 653 2938 653 3290
Q 653 3725 841 4041
Q 1030 4358 1369 4524
Q 1709 4691 2150 4691
Q 2861 4691 3235 4297
Q 3610 3904 3629 3290
L 2803 3290
Q 2797 3597 2643 3773
Q 2490 3949 2163 3949
Q 1862 3949 1686 3769
Q 1510 3590 1510 3219
Q 1510 3053 1545 2889
Q 1581 2726 1651 2502
L 2854 2502
L 2854 1888
L 1811 1888
Q 1824 1786 1824 1734
Q 1824 1459 1718 1187
Q 1613 915 1395 698
L 3661 698
z
" transform="scale(0.015625)"/>
      <path id="Poppins-SemiBold-29" d="M 211 -1261
L 211 -1171
Q 858 -506 1206 400
Q 1555 1306 1555 2278
Q 1555 3277 1187 4217
Q 819 5158 115 5830
L 115 5914
L 1018 5914
Q 1702 5299 2060 4336
Q 2419 3373 2419 2278
Q 2419 1210 2076 275
Q 1734 -659 1114 -1261
L 211 -1261
z
" transform="scale(0.015625)"/>
     </defs>
     <use xlink:href="#Poppins-SemiBold-46"/>
     <use xlink:href="#Poppins-SemiBold-69" x="52.999985"/>
     <use xlink:href="#Poppins-SemiBold-72" x="80.799973"/>
     <use xlink:href="#Poppins-SemiBold-73" x="121.199966"/>
     <use xlink:href="#Poppins-SemiBold-74" x="175.699951"/>
     <use xlink:href="#Poppins-SemiBold-20" x="214.499939"/>
     <use xlink:href="#Poppins-SemiBold-50" x="238.299927"/>
     <use xlink:href="#Poppins-SemiBold-75" x="299.099915"/>
     <use xlink:href="#Poppins-SemiBold-72" x="365.199905"/>
     <use xlink:href="#Poppins-SemiBold-63" x="405.599899"/>
     <use xlink:href="#Poppins-SemiBold-68" x="465.799896"/>
     <use xlink:href="#Poppins-SemiBold-61" x="531.899887"/>
     <use xlink:href="#Poppins-SemiBold-73" x="599.699875"/>
     <use xlink:href="#Poppins-SemiBold-65" x="654.19986"/>
     <use xlink:href="#Poppins-SemiBold-20" x="715.899857"/>
     <use xlink:href="#Poppins-SemiBold-52" x="739.699844"/>
     <use xlink:href="#Poppins-SemiBold-65" x="803.799835"/>
     <use xlink:href="#Poppins-SemiBold-76" x="865.499832"/>
     <use xlink:href="#Poppins-SemiBold-65" x="925.399826"/>
     <use xlink:href="#Poppins-SemiBold-6e" x="987.099823"/>
     <use xlink:href="#Poppins-SemiBold-75" x="1053.199814"/>
     <use xlink:href="#Poppins-SemiBold-65" x="1119.299805"/>
     <use xlink:href="#Poppins-SemiBold-20" x="1180.999802"/>
     <use xlink:href="#Poppins-SemiBold-62" x="1204.799789"/>
     <use xlink:href="#Poppins-SemiBold-79" x="1272.599777"/>
     <use xlink:href="#Poppins-SemiBold-20" x="1333.099762"/>
     <use xlink:href="#Poppins-SemiBold-50" x="1356.89975"/>
     <use xlink:href="#Poppins-SemiBold-72" x="1417.699738"/>
     <use xlink:href="#Poppins-SemiBold-6f" x="1458.099731"/>
     <use xlink:href="#Poppins-SemiBold-64" x="1521.899719"/>
     <use xlink:href="#Poppins-SemiBold-75" x="1589.699707"/>
     <use xlink:href="#Poppins-SemiBold-63" x="1655.799698"/>
     <use xlink:href="#Poppins-SemiBold-74" x="1715.999695"/>
     <use xlink:href="#Poppins-SemiBold-20" x="1754.799683"/>
     <use xlink:href="#Poppins-SemiBold-28" x="1778.59967"/>
     <use xlink:href="#Poppins-SemiBold-a3" x="1827.099655"/>
     <use xlink:href="#Poppins-SemiBold-29" x="1892.499649"/>
    </g>
   </g>
   <g id="legend_1">
    <g id="patch_25">
     <path d="M 451.286 52.239062
L 471.286 52.239062
L 471.286 45.239062
L 451.286 45.239062
z
" style="fill: url(#h23ee112b98); opacity: 0.7"/>
    </g>
    <g id="text_18">
     <!-- Product A -->
     <g transform="translate(479.286 52.239062) scale(0.1 -0.1)">
      <defs>
       <path id="DejaVuSans-50" d="M 1259 4147
L 1259 2394
L 2053 2394
Q 2494 2394 2734 2622
Q 2975 2850 2975 3272
Q 2975 3691 2734 3919
Q 2494 4147 2053 4147
L 1259 4147
z
M 628 4666
L 2053 4666
Q 2838 4666 3239 4311
Q 3641 3956 3641 3272
Q 3641 2581 3239 2228
Q 2838 1875 2053 1875
L 1259 1875
L 1259 0
L 628 0
L 628 4666
z
" transform="scale(0.015625)"/>
       <path id="DejaVuSans-72" d="M 2631 2963
Q 2534 3019 2420 3045
Q 2306 3072 2169 3072
Q 1681 3072 1420 2755
Q 1159 2438 1159 1844
L 1159 0
L 581 0
L 581 3500
L 1159 3500
L 1159 2956
Q 1341 3275 1631 3429
Q 1922 3584 2338 3584
Q 2397 3584 2469 3576
Q 2541 3569 2628 3553
L 2631 2963
z
" transform="scale(0.015625)"/>
       <path id="DejaVuSans-6f" d="M 1959 3097
Q 1497 3097 1228 2736
Q 959 2375 959 1747
Q 959 1119 1226 758
Q 1494 397 1959 397
Q 2419 397 2687 759
Q 2956 1122 2956 1747
Q 2956 2369 2687 2733
Q 2419 3097 1959 3097
z
M 1959 3584
Q 2709 3584 3137 3096
Q 3566 2609 3566 1747
Q 3566 888 3137 398
Q 2709 -91 1959 -91
Q 1206 -91 779 398
Q 353 888 353 1747
Q 353 2609 779 3096
Q 1206 3584 1959 3584
z
" transform="scale(0.015625)"/>
       <path id="DejaVuSans-64" d="M 2906 2969
L 2906 4863
L 3481 4863
L 3481 0
L 2906 0
L 2906 525
Q 2725 213 2448 61
Q 2172 -91 1784 -91
Q 1150 -91 751 415
Q 353 922 353 1747
Q 353 2572 751 3078
Q 1150 3584 1784 3584
Q 2172 3584 2448 3432
Q 2725 3281 2906 2969
z
M 947 1747
Q 947 1113 1208 752
Q 1469 391 1925 391
Q 2381 391 2643 752
Q 2906 1113 2906 1747
Q 2906 2381 2643 2742
Q 2381 3103 1925 3103
Q 1469 3103 1208 2742
Q 947 2381 947 1747
z
" transform="scale(0.015625)"/>
       <path id="DejaVuSans-75" d="M 544 1381
L 544 3500
L 1119 3500
L 1119 1403
Q 1119 906 1312 657
Q 1506 409 1894 409
Q 2359 409 2629 706
Q 2900 1003 2900 1516
L 2900 3500
L 3475 3500
L 3475 0
L 2900 0
L 2900 538
Q 2691 219 2414 64
Q 2138 -91 1772 -91
Q 1169 -91 856 284
Q 544 659 544 1381
z
M 1991 3584
L 1991 3584
z
" transform="scale(0.015625)"/>
       <path id="DejaVuSans-63" d="M 3122 3366
L 3122 2828
Q 2878 2963 2633 3030
Q 2388 3097 2138 3097
Q 1578 3097 1268 2742
Q 959 2388 959 1747
Q 959 1106 1268 751
Q 1578 397 2138 397
Q 2388 397 2633 464
Q 2878 531 3122 666
L 3122 134
Q 2881 22 2623 -34
Q 2366 -91 2075 -91
Q 1284 -91 818 406
Q 353 903 353 1747
Q 353 2603 823 3093
Q 1294 3584 2113 3584
Q 2378 3584 2631 3529
Q 2884 3475 3122 3366
z
" transform="scale(0.015625)"/>
       <path id="DejaVuSans-74" d="M 1172 4494
L 1172 3500
L 2356 3500
L 2356 3053
L 1172 3053
L 1172 1153
Q 1172 725 1289 603
Q 1406 481 1766 481
L 2356 481
L 2356 0
L 1766 0
Q 1100 0 847 248
Q 594 497 594 1153
L 594 3053
L 172 3053
L 172 3500
L 594 3500
L 594 4494
L 1172 4494
z
" transform="scale(0.015625)"/>
       <path id="DejaVuSans-20" transform="scale(0.015625)"/>
       <path id="DejaVuSans-41" d="M 2188 4044
L 1331 1722
L 3047 1722
L 2188 4044
z
M 1831 4666
L 2547 4666
L 4325 0
L 3669 0
L 3244 1197
L 1141 1197
L 716 0
L 50 0
L 1831 4666
z
" transform="scale(0.015625)"/>
      </defs>
      <use xlink:href="#DejaVuSans-50"/>
      <use xlink:href="#DejaVuSans-72" x="58.552734"/>
      <use xlink:href="#DejaVuSans-6f" x="97.416016"/>
      <use xlink:href="#DejaVuSans-64" x="158.597656"/>
      <use xlink:href="#DejaVuSans-75" x="222.074219"/>
      <use xlink:href="#DejaVuSans-63" x="285.453125"/>
      <use xlink:href="#DejaVuSans-74" x="340.433594"/>
      <use xlink:href="#DejaVuSans-20" x="379.642578"/>
      <use xlink:href="#DejaVuSans-41" x="411.429688"/>
     </g>
    </g>
    <g id="patch_26">
     <path d="M 451.286 66.917187
L 471.286 66.917187
L 471.286 59.917187
L 451.286 59.917187
z
" style="fill: url(#h65ba0bb49f); opacity: 0.7"/>
    </g>
    <g id="text_19">
     <!-- Product B -->
     <g transform="translate(479.286 66.917187) scale(0.1 -0.1)">
      <defs>
       <path id="DejaVuSans-42" d="M 1259 2228
L 1259 519
L 2272 519
Q 2781 519 3026 730
Q 3272 941 3272 1375
Q 3272 1813 3026 2020
Q 2781 2228 2272 2228
L 1259 2228
z
M 1259 4147
L 1259 2741
L 2194 2741
Q 2656 2741 2882 2914
Q 3109 3088 3109 3444
Q 3109 3797 2882 3972
Q 2656 4147 2194 4147
L 1259 4147
z
M 628 4666
L 2241 4666
Q 2963 4666 3353 4366
Q 3744 4066 3744 3513
Q 3744 3084 3544 2831
Q 3344 2578 2956 2516
Q 3422 2416 3680 2098
Q 3938 1781 3938 1306
Q 3938 681 3513 340
Q 3088 0 2303 0
L 628 0
L 628 4666
z
" transform="scale(0.015625)"/>
      </defs>
      <use xlink:href="#DejaVuSans-50"/>
      <use xlink:href="#DejaVuSans-72" x="58.552734"/>
      <use xlink:href="#DejaVuSans-6f" x="97.416016"/>
      <use xlink:href="#DejaVuSans-64" x="158.597656"/>
      <use xlink:href="#DejaVuSans-75" x="222.074219"/>
      <use xlink:href="#DejaVuSans-63" x="285.453125"/>
      <use xlink:href="#DejaVuSans-74" x="340.433594"/>
      <use xlink:href="#DejaVuSans-20" x="379.642578"/>
      <use xlink:href="#DejaVuSans-42" x="411.429688"/>
     </g>
    </g>
   </g>
  </g>
  <g id="text_20">
   <!-- Source: PyRetailScience - 2024 -->
   <g style="fill: #696969" transform="translate(7.2 369.452937) scale(0.1 -0.1)">
    <defs>
     <path id="Poppins-LightItalic-53" d="M 1619 -45
Q 1216 -45 912 89
Q 608 224 441 467
Q 275 710 275 1024
Q 275 1107 282 1152
L 723 1152
Q 710 947 796 758
Q 883 570 1097 445
Q 1312 320 1651 320
Q 2125 320 2406 557
Q 2688 794 2688 1197
Q 2688 1440 2557 1603
Q 2426 1766 2234 1872
Q 2042 1978 1709 2112
Q 1318 2266 1088 2397
Q 858 2528 707 2758
Q 557 2989 582 3347
Q 595 3693 790 3958
Q 986 4224 1322 4374
Q 1658 4525 2086 4525
Q 2509 4525 2813 4381
Q 3117 4237 3267 3987
Q 3418 3738 3398 3437
L 2931 3437
Q 2944 3610 2851 3776
Q 2758 3942 2556 4048
Q 2355 4154 2061 4154
Q 1606 4154 1318 3933
Q 1030 3712 1030 3334
Q 1030 3110 1158 2956
Q 1286 2803 1472 2700
Q 1658 2598 1984 2464
Q 2362 2310 2595 2176
Q 2829 2042 2992 1818
Q 3155 1594 3155 1254
Q 3155 1171 3149 1126
Q 3123 800 2931 531
Q 2739 262 2403 108
Q 2067 -45 1619 -45
z
" transform="scale(0.015625)"/>
     <path id="Poppins-LightItalic-6f" d="M 1728 -51
Q 1293 -51 960 125
Q 627 301 444 624
Q 262 947 262 1382
Q 262 1971 531 2467
Q 800 2963 1280 3254
Q 1760 3546 2349 3546
Q 2784 3546 3117 3370
Q 3450 3194 3635 2870
Q 3821 2547 3821 2112
Q 3821 1517 3545 1024
Q 3270 531 2793 240
Q 2317 -51 1728 -51
z
M 1779 326
Q 2234 326 2595 569
Q 2957 813 3158 1216
Q 3360 1619 3360 2086
Q 3360 2611 3056 2886
Q 2752 3162 2285 3162
Q 1830 3162 1475 2918
Q 1120 2675 921 2272
Q 723 1869 723 1402
Q 723 883 1024 604
Q 1325 326 1779 326
z
" transform="scale(0.015625)"/>
     <path id="Poppins-LightItalic-75" d="M 3834 3494
L 3219 0
L 2771 0
L 2880 614
Q 2662 288 2316 115
Q 1971 -58 1574 -58
Q 1037 -58 710 233
Q 384 525 384 1082
Q 384 1286 416 1453
L 774 3494
L 1216 3494
L 864 1504
Q 838 1357 838 1197
Q 838 774 1072 553
Q 1306 333 1722 333
Q 2208 333 2560 630
Q 2912 928 3034 1504
L 3386 3494
L 3834 3494
z
" transform="scale(0.015625)"/>
     <path id="Poppins-LightItalic-72" d="M 1133 2797
Q 1344 3162 1683 3360
Q 2022 3558 2470 3558
L 2387 3091
L 2259 3091
Q 1798 3091 1465 2854
Q 1133 2618 1005 2074
L 640 0
L 192 0
L 806 3494
L 1254 3494
L 1133 2797
z
" transform="scale(0.015625)"/>
     <path id="Poppins-LightItalic-63" d="M 294 1747
Q 390 2291 681 2697
Q 973 3104 1395 3325
Q 1818 3546 2310 3546
Q 2957 3546 3318 3226
Q 3680 2906 3706 2355
L 3226 2355
Q 3206 2733 2947 2947
Q 2688 3162 2246 3162
Q 1702 3162 1289 2794
Q 877 2426 755 1747
Q 723 1587 723 1382
Q 723 870 1001 598
Q 1280 326 1741 326
Q 2189 326 2521 540
Q 2854 755 3014 1139
L 3494 1139
Q 3277 602 2797 275
Q 2317 -51 1677 -51
Q 1030 -51 643 320
Q 256 691 256 1338
Q 256 1536 294 1747
z
" transform="scale(0.015625)"/>
     <path id="Poppins-LightItalic-65" d="M 2330 3546
Q 2771 3546 3084 3376
Q 3398 3206 3561 2912
Q 3725 2618 3725 2240
Q 3725 2067 3699 1933
Q 3661 1741 3622 1587
L 723 1587
Q 704 1466 704 1357
Q 704 864 1001 595
Q 1299 326 1760 326
Q 2202 326 2534 537
Q 2867 749 3021 1107
L 3501 1107
Q 3283 595 2806 272
Q 2330 -51 1696 -51
Q 1043 -51 649 323
Q 256 698 256 1344
Q 256 1536 294 1747
Q 390 2291 681 2700
Q 973 3110 1401 3328
Q 1830 3546 2330 3546
z
M 3238 1920
Q 3270 2099 3270 2221
Q 3270 2675 2982 2918
Q 2694 3162 2246 3162
Q 1920 3162 1619 3021
Q 1318 2880 1094 2598
Q 870 2317 787 1920
L 3238 1920
z
" transform="scale(0.015625)"/>
     <path id="Poppins-LightItalic-3a" d="M 262 -32
Q 141 -32 64 45
Q -13 122 -13 243
Q -13 397 105 512
Q 224 627 378 627
Q 499 627 576 553
Q 653 480 653 358
Q 653 205 534 86
Q 416 -32 262 -32
z
M 262 2784
Q 141 2784 64 2861
Q -13 2938 -13 3059
Q -13 3213 105 3328
Q 224 3443 378 3443
Q 499 3443 576 3369
Q 653 3296 653 3174
Q 653 3021 534 2902
Q 416 2784 262 2784
z
" transform="scale(0.015625)"/>
     <path id="Poppins-LightItalic-20" transform="scale(0.015625)"/>
     <path id="Poppins-LightItalic-50" d="M 3616 3187
Q 3514 2611 3072 2259
Q 2630 1907 1875 1907
L 973 1907
L 640 0
L 192 0
L 979 4474
L 2330 4474
Q 2989 4474 3315 4198
Q 3642 3923 3642 3456
Q 3642 3309 3616 3187
z
M 1946 2278
Q 2995 2278 3155 3187
Q 3181 3354 3181 3424
Q 3181 4115 2266 4115
L 1363 4115
L 1043 2278
L 1946 2278
z
" transform="scale(0.015625)"/>
     <path id="Poppins-LightItalic-79" d="M 890 3494
L 1549 531
L 3219 3494
L 3686 3494
L 710 -1645
L 237 -1645
L 1210 26
L 390 3494
L 890 3494
z
" transform="scale(0.015625)"/>
     <path id="Poppins-LightItalic-52" d="M 2330 4474
Q 2989 4474 3318 4192
Q 3648 3910 3648 3437
Q 3648 3354 3622 3174
Q 3539 2688 3200 2345
Q 2861 2003 2298 1901
L 3110 0
L 2573 0
L 1798 1869
L 966 1869
L 640 0
L 192 0
L 979 4474
L 2330 4474
z
M 3155 3174
Q 3174 3302 3174 3405
Q 3174 3744 2950 3929
Q 2726 4115 2259 4115
L 1363 4115
L 1030 2227
L 1933 2227
Q 2464 2227 2771 2483
Q 3078 2739 3155 3174
z
" transform="scale(0.015625)"/>
     <path id="Poppins-LightItalic-74" d="M 934 947
Q 915 832 915 749
Q 915 544 1027 464
Q 1139 384 1395 384
L 1805 384
L 1734 0
L 1254 0
Q 858 0 659 153
Q 461 307 461 659
Q 461 800 486 947
L 870 3117
L 384 3117
L 454 3494
L 941 3494
L 1094 4371
L 1542 4371
L 1389 3494
L 2355 3494
L 2285 3117
L 1318 3117
L 934 947
z
" transform="scale(0.015625)"/>
     <path id="Poppins-LightItalic-61" d="M 294 1754
Q 390 2291 678 2697
Q 966 3104 1385 3325
Q 1805 3546 2285 3546
Q 2784 3546 3104 3315
Q 3424 3085 3520 2726
L 3654 3494
L 4102 3494
L 3488 0
L 3040 0
L 3174 774
Q 2957 416 2550 182
Q 2144 -51 1645 -51
Q 1229 -51 915 121
Q 602 294 429 611
Q 256 928 256 1357
Q 256 1542 294 1754
z
M 3347 1747
Q 3379 1926 3379 2067
Q 3379 2566 3078 2860
Q 2778 3155 2298 3155
Q 1926 3155 1603 2988
Q 1280 2822 1056 2505
Q 832 2189 755 1754
Q 723 1562 723 1427
Q 723 922 1020 630
Q 1318 339 1798 339
Q 2157 339 2486 512
Q 2816 685 3043 1005
Q 3270 1325 3347 1747
z
" transform="scale(0.015625)"/>
     <path id="Poppins-LightItalic-69" d="M 1152 4154
Q 1030 4154 953 4227
Q 877 4301 877 4422
Q 877 4589 992 4701
Q 1107 4813 1267 4813
Q 1389 4813 1462 4742
Q 1536 4672 1536 4557
Q 1536 4390 1421 4272
Q 1306 4154 1152 4154
z
M 1254 3494
L 640 0
L 192 0
L 806 3494
L 1254 3494
z
" transform="scale(0.015625)"/>
     <path id="Poppins-LightItalic-6c" d="M 1478 4736
L 640 0
L 192 0
L 1030 4736
L 1478 4736
z
" transform="scale(0.015625)"/>
     <path id="Poppins-LightItalic-6e" d="M 2464 3558
Q 3002 3558 3325 3267
Q 3648 2976 3648 2419
Q 3648 2214 3616 2048
L 3251 0
L 2810 0
L 3162 1997
Q 3187 2144 3187 2310
Q 3187 2733 2956 2950
Q 2726 3168 2310 3168
Q 1805 3168 1446 2848
Q 1088 2528 979 1907
L 979 1926
L 640 0
L 192 0
L 806 3494
L 1254 3494
L 1146 2893
Q 1370 3213 1715 3385
Q 2061 3558 2464 3558
z
" transform="scale(0.015625)"/>
     <path id="Poppins-LightItalic-2d" d="M 2816 2560
L 2752 2182
L 262 2182
L 326 2560
L 2816 2560
z
" transform="scale(0.015625)"/>
     <path id="Poppins-LightItalic-32" d="M 64 352
Q 1402 1229 2170 1929
Q 2938 2630 3053 3290
Q 3078 3456 3078 3539
Q 3078 3859 2889 4051
Q 2701 4243 2278 4243
Q 1792 4243 1472 3939
Q 1152 3635 1037 3136
L 602 3136
Q 762 3846 1232 4236
Q 1702 4627 2349 4627
Q 2893 4627 3209 4361
Q 3526 4096 3526 3603
Q 3526 3443 3501 3309
Q 3366 2547 2598 1827
Q 1830 1107 768 410
L 3130 410
L 3066 32
L 6 32
L 64 352
z
" transform="scale(0.015625)"/>
     <path id="Poppins-LightItalic-30" d="M 506 2304
Q 698 3398 1142 4006
Q 1587 4614 2464 4614
Q 3130 4614 3421 4249
Q 3712 3885 3712 3226
Q 3712 2848 3616 2304
Q 3424 1210 2976 598
Q 2528 -13 1651 -13
Q 986 -13 698 348
Q 410 710 410 1370
Q 410 1747 506 2304
z
M 3174 2304
Q 3270 2835 3270 3187
Q 3270 3674 3068 3939
Q 2867 4205 2394 4205
Q 1933 4205 1645 3958
Q 1357 3712 1203 3302
Q 1050 2893 947 2304
Q 845 1722 845 1402
Q 845 922 1043 659
Q 1242 397 1722 397
Q 2182 397 2470 643
Q 2758 890 2912 1299
Q 3066 1709 3174 2304
z
" transform="scale(0.015625)"/>
     <path id="Poppins-LightItalic-34" d="M 90 1088
L 147 1427
L 3034 4563
L 3565 4563
L 3021 1478
L 3706 1478
L 3635 1088
L 2950 1088
L 2758 0
L 2317 0
L 2509 1088
L 90 1088
z
M 3053 4070
L 678 1478
L 2598 1478
L 3053 4070
z
" transform="scale(0.015625)"/>
    </defs>
    <use xlink:href="#Poppins-LightItalic-53"/>
    <use xlink:href="#Poppins-LightItalic-6f" x="56.599991"/>
    <use xlink:href="#Poppins-LightItalic-75" x="120.799988"/>
    <use xlink:href="#Poppins-LightItalic-72" x="184.099976"/>
    <use xlink:href="#Poppins-LightItalic-63" x="220.299973"/>
    <use xlink:href="#Poppins-LightItalic-65" x="281.59996"/>
    <use xlink:href="#Poppins-LightItalic-3a" x="343.799957"/>
    <use xlink:href="#Poppins-LightItalic-20" x="362.299942"/>
    <use xlink:href="#Poppins-LightItalic-50" x="391.799927"/>
    <use xlink:href="#Poppins-LightItalic-79" x="448.199921"/>
    <use xlink:href="#Poppins-LightItalic-52" x="502.699905"/>
    <use xlink:href="#Poppins-LightItalic-65" x="561.399902"/>
    <use xlink:href="#Poppins-LightItalic-74" x="623.599899"/>
    <use xlink:href="#Poppins-LightItalic-61" x="659.19989"/>
    <use xlink:href="#Poppins-LightItalic-69" x="726.699875"/>
    <use xlink:href="#Poppins-LightItalic-6c" x="749.599869"/>
    <use xlink:href="#Poppins-LightItalic-53" x="772.499863"/>
    <use xlink:href="#Poppins-LightItalic-63" x="829.099854"/>
    <use xlink:href="#Poppins-LightItalic-69" x="890.399841"/>
    <use xlink:href="#Poppins-LightItalic-65" x="913.299835"/>
    <use xlink:href="#Poppins-LightItalic-6e" x="975.499832"/>
    <use xlink:href="#Poppins-LightItalic-63" x="1038.79982"/>
    <use xlink:href="#Poppins-LightItalic-65" x="1100.099808"/>
    <use xlink:href="#Poppins-LightItalic-20" x="1162.299805"/>
    <use xlink:href="#Poppins-LightItalic-2d" x="1191.799789"/>
    <use xlink:href="#Poppins-LightItalic-20" x="1243.699783"/>
    <use xlink:href="#Poppins-LightItalic-32" x="1273.199768"/>
    <use xlink:href="#Poppins-LightItalic-30" x="1330.399765"/>
    <use xlink:href="#Poppins-LightItalic-32" x="1391.999756"/>
    <use xlink:href="#Poppins-LightItalic-34" x="1449.199753"/>
   </g>
  </g>
 </g>
 <defs>
  <clipPath id="p3af53a868d">
   <rect x="67.31" y="35.640625" width="357.12" height="266.112"/>
  </clipPath>
 </defs>
 <defs>
  <pattern id="h23ee112b98" patternUnits="userSpaceOnUse" x="0" y="0" width="72" height="72">
   <rect x="0" y="0" width="73" height="73" fill="#22c55e"/>
   <path d="M -36 36
L 36 -36
M -24 48
L 48 -24
M -12 60
L 60 -12
M 0 72
L 72 0
M 12 84
L 84 12
M 24 96
L 96 24
M 36 108
L 108 36
" style="fill: #000000; stroke: #000000; stroke-width: 1.0; stroke-linecap: butt; stroke-linejoin: miter"/>
  </pattern>
  <pattern id="h65ba0bb49f" patternUnits="userSpaceOnUse" x="0" y="0" width="72" height="72">
   <rect x="0" y="0" width="73" height="73" fill="#3b82f6"/>
   <path d="M -36 36
L 36 108
M -24 24
L 48 96
M -12 12
L 60 84
M 0 0
L 72 72
M 12 -12
L 84 60
M 24 -24
L 96 48
M 36 -36
L 108 36
" style="fill: #000000; stroke: #000000; stroke-width: 1.0; stroke-linecap: butt; stroke-linejoin: miter"/>
  </pattern>
 </defs>
</svg>
