<?xml version="1.0" encoding="utf-8" standalone="no"?>
<!DOCTYPE svg PUBLIC "-//W3C//DTD SVG 1.1//EN"
  "http://www.w3.org/Graphics/SVG/1.1/DTD/svg11.dtd">
<svg xmlns:xlink="http://www.w3.org/1999/xlink" width="609.842562pt" height="373.552625pt" viewBox="0 0 609.842562 373.552625" xmlns="http://www.w3.org/2000/svg" version="1.1">
 <metadata>
  <rdf:RDF xmlns:dc="http://purl.org/dc/elements/1.1/" xmlns:cc="http://creativecommons.org/ns#" xmlns:rdf="http://www.w3.org/1999/02/22-rdf-syntax-ns#">
   <cc:Work>
    <dc:type rdf:resource="http://purl.org/dc/dcmitype/StillImage"/>
    <dc:date>2025-04-15T12:33:27.137567</dc:date>
    <dc:format>image/svg+xml</dc:format>
    <dc:creator>
     <cc:Agent>
      <dc:title>Matplotlib v3.9.1.post1, https://matplotlib.org/</dc:title>
     </cc:Agent>
    </dc:creator>
   </cc:Work>
  </rdf:RDF>
 </metadata>
 <defs>
  <style type="text/css">*{stroke-linejoin: round; stroke-linecap: butt}</style>
 </defs>
 <g id="figure_1">
  <g id="patch_1">
   <path d="M 0 373.552625
L 609.842562 373.552625
L 609.842562 -0
L 0 -0
z
" style="fill: #ffffff"/>
  </g>
  <g id="axes_1">
   <g id="patch_2">
    <path d="M 82.6525 298.952625
L 439.7725 298.952625
L 439.7725 32.840625
L 82.6525 32.840625
z
" style="fill: #ffffff"/>
   </g>
   <g id="matplotlib.axis_1">
    <g id="xtick_1">
     <g id="line2d_1">
      <path d="M 108.92609 298.952625
L 108.92609 32.840625
" clip-path="url(#p9ff2d4da1d)" style="fill: none; stroke-dasharray: 2.96,1.28; stroke-dashoffset: 0; stroke: #dad8d7; stroke-opacity: 0.7; stroke-width: 0.8"/>
     </g>
     <g id="line2d_2">
      <defs>
       <path id="ma1006f637c" d="M 0 0
L 0 3.5
" style="stroke: #000000; stroke-width: 0.8"/>
      </defs>
      <g>
       <use xlink:href="#ma1006f637c" x="108.92609" y="298.952625" style="stroke: #000000; stroke-width: 0.8"/>
      </g>
     </g>
     <g id="text_1">
      <!-- -200 -->
      <g transform="translate(97.016715 313.352625) scale(0.1 -0.1)">
       <defs>
        <path id="Poppins-Regular-2d" d="M 2925 2592
L 2925 2099
L 371 2099
L 371 2592
L 2925 2592
z
" transform="scale(0.015625)"/>
        <path id="Poppins-Regular-32" d="M 326 467
Q 1139 1120 1600 1539
Q 2061 1958 2377 2416
Q 2694 2874 2694 3315
Q 2694 3731 2492 3971
Q 2291 4211 1843 4211
Q 1408 4211 1168 3939
Q 928 3667 909 3213
L 346 3213
Q 371 3930 780 4320
Q 1190 4710 1837 4710
Q 2496 4710 2883 4345
Q 3270 3981 3270 3341
Q 3270 2810 2953 2307
Q 2637 1805 2233 1424
Q 1830 1043 1203 538
L 3405 538
L 3405 51
L 326 51
L 326 467
z
" transform="scale(0.015625)"/>
        <path id="Poppins-Regular-30" d="M 397 2362
Q 397 3462 755 4080
Q 1114 4698 2010 4698
Q 2899 4698 3257 4080
Q 3616 3462 3616 2362
Q 3616 1242 3257 621
Q 2899 0 2010 0
Q 1114 0 755 621
Q 397 1242 397 2362
z
M 3040 2362
Q 3040 2918 2966 3305
Q 2893 3693 2665 3929
Q 2438 4166 2010 4166
Q 1574 4166 1347 3929
Q 1120 3693 1046 3305
Q 973 2918 973 2362
Q 973 1786 1046 1395
Q 1120 1005 1347 768
Q 1574 531 2010 531
Q 2438 531 2665 768
Q 2893 1005 2966 1395
Q 3040 1786 3040 2362
z
" transform="scale(0.015625)"/>
       </defs>
       <use xlink:href="#Poppins-Regular-2d"/>
       <use xlink:href="#Poppins-Regular-32" x="55.099991"/>
       <use xlink:href="#Poppins-Regular-30" x="112.599976"/>
       <use xlink:href="#Poppins-Regular-30" x="175.399963"/>
      </g>
     </g>
    </g>
    <g id="xtick_2">
     <g id="line2d_3">
      <path d="M 175.865171 298.952625
L 175.865171 32.840625
" clip-path="url(#p9ff2d4da1d)" style="fill: none; stroke-dasharray: 2.96,1.28; stroke-dashoffset: 0; stroke: #dad8d7; stroke-opacity: 0.7; stroke-width: 0.8"/>
     </g>
     <g id="line2d_4">
      <g>
       <use xlink:href="#ma1006f637c" x="175.865171" y="298.952625" style="stroke: #000000; stroke-width: 0.8"/>
      </g>
     </g>
     <g id="text_2">
      <!-- 0 -->
      <g transform="translate(172.725327 313.352625) scale(0.1 -0.1)">
       <use xlink:href="#Poppins-Regular-30"/>
      </g>
     </g>
    </g>
    <g id="xtick_3">
     <g id="line2d_5">
      <path d="M 242.804253 298.952625
L 242.804253 32.840625
" clip-path="url(#p9ff2d4da1d)" style="fill: none; stroke-dasharray: 2.96,1.28; stroke-dashoffset: 0; stroke: #dad8d7; stroke-opacity: 0.7; stroke-width: 0.8"/>
     </g>
     <g id="line2d_6">
      <g>
       <use xlink:href="#ma1006f637c" x="242.804253" y="298.952625" style="stroke: #000000; stroke-width: 0.8"/>
      </g>
     </g>
     <g id="text_3">
      <!-- 200 -->
      <g transform="translate(233.649565 313.352625) scale(0.1 -0.1)">
       <use xlink:href="#Poppins-Regular-32"/>
       <use xlink:href="#Poppins-Regular-30" x="57.499985"/>
       <use xlink:href="#Poppins-Regular-30" x="120.299973"/>
      </g>
     </g>
    </g>
    <g id="xtick_4">
     <g id="line2d_7">
      <path d="M 309.743334 298.952625
L 309.743334 32.840625
" clip-path="url(#p9ff2d4da1d)" style="fill: none; stroke-dasharray: 2.96,1.28; stroke-dashoffset: 0; stroke: #dad8d7; stroke-opacity: 0.7; stroke-width: 0.8"/>
     </g>
     <g id="line2d_8">
      <g>
       <use xlink:href="#ma1006f637c" x="309.743334" y="298.952625" style="stroke: #000000; stroke-width: 0.8"/>
      </g>
     </g>
     <g id="text_4">
      <!-- 400 -->
      <g transform="translate(300.318334 313.352625) scale(0.1 -0.1)">
       <defs>
        <path id="Poppins-Regular-34" d="M 256 1030
L 256 1472
L 2502 4582
L 3200 4582
L 3200 1536
L 3840 1536
L 3840 1030
L 3200 1030
L 3200 0
L 2624 0
L 2624 1030
L 256 1030
z
M 2650 3974
L 928 1536
L 2650 1536
L 2650 3974
z
" transform="scale(0.015625)"/>
       </defs>
       <use xlink:href="#Poppins-Regular-34"/>
       <use xlink:href="#Poppins-Regular-30" x="62.899994"/>
       <use xlink:href="#Poppins-Regular-30" x="125.699982"/>
      </g>
     </g>
    </g>
    <g id="xtick_5">
     <g id="line2d_9">
      <path d="M 376.682416 298.952625
L 376.682416 32.840625
" clip-path="url(#p9ff2d4da1d)" style="fill: none; stroke-dasharray: 2.96,1.28; stroke-dashoffset: 0; stroke: #dad8d7; stroke-opacity: 0.7; stroke-width: 0.8"/>
     </g>
     <g id="line2d_10">
      <g>
       <use xlink:href="#ma1006f637c" x="376.682416" y="298.952625" style="stroke: #000000; stroke-width: 0.8"/>
      </g>
     </g>
     <g id="text_5">
      <!-- 600 -->
      <g transform="translate(367.227728 313.352625) scale(0.1 -0.1)">
       <defs>
        <path id="Poppins-Regular-36" d="M 2976 3526
Q 2835 4237 2099 4237
Q 1530 4237 1248 3798
Q 966 3360 973 2355
Q 1120 2688 1462 2877
Q 1805 3066 2227 3066
Q 2886 3066 3280 2656
Q 3674 2246 3674 1523
Q 3674 1088 3504 742
Q 3334 397 2992 192
Q 2650 -13 2163 -13
Q 1504 -13 1133 281
Q 762 576 614 1094
Q 467 1613 467 2374
Q 467 4723 2106 4723
Q 2733 4723 3091 4384
Q 3450 4045 3514 3526
L 2976 3526
z
M 2106 2573
Q 1830 2573 1587 2461
Q 1344 2349 1193 2121
Q 1043 1894 1043 1568
Q 1043 1082 1324 778
Q 1606 474 2131 474
Q 2579 474 2844 752
Q 3110 1030 3110 1504
Q 3110 2003 2854 2288
Q 2598 2573 2106 2573
z
" transform="scale(0.015625)"/>
       </defs>
       <use xlink:href="#Poppins-Regular-36"/>
       <use xlink:href="#Poppins-Regular-30" x="63.499985"/>
       <use xlink:href="#Poppins-Regular-30" x="126.299973"/>
      </g>
     </g>
    </g>
    <g id="text_6">
     <!-- Revenue Change -->
     <g transform="translate(209.613438 334.832625) scale(0.12 -0.12)">
      <defs>
       <path id="Poppins-Regular-52" d="M 2842 0
L 1779 1824
L 1075 1824
L 1075 0
L 493 0
L 493 4461
L 1933 4461
Q 2438 4461 2787 4288
Q 3136 4115 3309 3820
Q 3482 3526 3482 3149
Q 3482 2688 3216 2336
Q 2950 1984 2419 1869
L 3539 0
L 2842 0
z
M 1075 2291
L 1933 2291
Q 2406 2291 2643 2524
Q 2880 2758 2880 3149
Q 2880 3546 2646 3763
Q 2413 3981 1933 3981
L 1075 3981
L 1075 2291
z
" transform="scale(0.015625)"/>
       <path id="Poppins-Regular-65" d="M 3693 1888
Q 3693 1722 3674 1536
L 870 1536
Q 902 1018 1225 726
Q 1549 435 2010 435
Q 2387 435 2640 611
Q 2893 787 2995 1082
L 3622 1082
Q 3482 576 3059 259
Q 2637 -58 2010 -58
Q 1510 -58 1116 166
Q 723 390 499 803
Q 275 1216 275 1760
Q 275 2304 492 2713
Q 710 3123 1104 3344
Q 1498 3565 2010 3565
Q 2509 3565 2893 3347
Q 3277 3130 3485 2749
Q 3693 2368 3693 1888
z
M 3091 2010
Q 3091 2342 2944 2582
Q 2797 2822 2544 2947
Q 2291 3072 1984 3072
Q 1542 3072 1232 2790
Q 922 2509 877 2010
L 3091 2010
z
" transform="scale(0.015625)"/>
       <path id="Poppins-Regular-76" d="M 1798 538
L 2886 3507
L 3507 3507
L 2131 0
L 1453 0
L 77 3507
L 704 3507
L 1798 538
z
" transform="scale(0.015625)"/>
       <path id="Poppins-Regular-6e" d="M 2202 3571
Q 2842 3571 3238 3184
Q 3635 2797 3635 2067
L 3635 0
L 3059 0
L 3059 1984
Q 3059 2509 2796 2787
Q 2534 3066 2080 3066
Q 1619 3066 1347 2778
Q 1075 2490 1075 1939
L 1075 0
L 493 0
L 493 3507
L 1075 3507
L 1075 3008
Q 1248 3277 1545 3424
Q 1843 3571 2202 3571
z
" transform="scale(0.015625)"/>
       <path id="Poppins-Regular-75" d="M 3603 3507
L 3603 0
L 3021 0
L 3021 518
Q 2854 250 2556 99
Q 2259 -51 1901 -51
Q 1491 -51 1164 118
Q 838 288 649 627
Q 461 966 461 1453
L 461 3507
L 1037 3507
L 1037 1530
Q 1037 1011 1299 732
Q 1562 454 2016 454
Q 2483 454 2752 742
Q 3021 1030 3021 1581
L 3021 3507
L 3603 3507
z
" transform="scale(0.015625)"/>
       <path id="Poppins-Regular-20" transform="scale(0.015625)"/>
       <path id="Poppins-Regular-43" d="M 275 2234
Q 275 2886 569 3408
Q 864 3930 1373 4224
Q 1882 4518 2502 4518
Q 3232 4518 3776 4166
Q 4320 3814 4570 3168
L 3872 3168
Q 3686 3571 3337 3788
Q 2989 4006 2502 4006
Q 2035 4006 1664 3788
Q 1293 3571 1081 3171
Q 870 2771 870 2234
Q 870 1702 1081 1302
Q 1293 902 1664 684
Q 2035 467 2502 467
Q 2989 467 3337 681
Q 3686 896 3872 1299
L 4570 1299
Q 4320 659 3776 310
Q 3232 -38 2502 -38
Q 1882 -38 1373 253
Q 864 544 569 1062
Q 275 1581 275 2234
z
" transform="scale(0.015625)"/>
       <path id="Poppins-Regular-68" d="M 2234 3571
Q 2630 3571 2950 3401
Q 3270 3232 3452 2893
Q 3635 2554 3635 2067
L 3635 0
L 3059 0
L 3059 1984
Q 3059 2509 2796 2787
Q 2534 3066 2080 3066
Q 1619 3066 1347 2778
Q 1075 2490 1075 1939
L 1075 0
L 493 0
L 493 4736
L 1075 4736
L 1075 3008
Q 1248 3277 1552 3424
Q 1856 3571 2234 3571
z
" transform="scale(0.015625)"/>
       <path id="Poppins-Regular-61" d="M 275 1766
Q 275 2304 492 2710
Q 710 3117 1091 3341
Q 1472 3565 1939 3565
Q 2400 3565 2739 3366
Q 3078 3168 3245 2867
L 3245 3507
L 3834 3507
L 3834 0
L 3245 0
L 3245 653
Q 3072 346 2729 144
Q 2387 -58 1933 -58
Q 1466 -58 1088 172
Q 710 403 492 819
Q 275 1235 275 1766
z
M 3245 1760
Q 3245 2157 3085 2451
Q 2925 2746 2653 2902
Q 2381 3059 2054 3059
Q 1728 3059 1459 2905
Q 1190 2752 1030 2457
Q 870 2163 870 1766
Q 870 1363 1030 1065
Q 1190 768 1459 611
Q 1728 454 2054 454
Q 2381 454 2653 611
Q 2925 768 3085 1065
Q 3245 1363 3245 1760
z
" transform="scale(0.015625)"/>
       <path id="Poppins-Regular-67" d="M 1939 3565
Q 2394 3565 2736 3366
Q 3078 3168 3245 2867
L 3245 3507
L 3834 3507
L 3834 -77
Q 3834 -557 3629 -931
Q 3424 -1306 3043 -1517
Q 2662 -1728 2157 -1728
Q 1466 -1728 1005 -1401
Q 544 -1075 461 -512
L 1037 -512
Q 1133 -832 1433 -1027
Q 1734 -1222 2157 -1222
Q 2637 -1222 2941 -921
Q 3245 -621 3245 -77
L 3245 659
Q 3072 352 2733 147
Q 2394 -58 1939 -58
Q 1472 -58 1091 172
Q 710 403 492 819
Q 275 1235 275 1766
Q 275 2304 492 2710
Q 710 3117 1091 3341
Q 1472 3565 1939 3565
z
M 3245 1760
Q 3245 2157 3085 2451
Q 2925 2746 2653 2902
Q 2381 3059 2054 3059
Q 1728 3059 1459 2905
Q 1190 2752 1030 2457
Q 870 2163 870 1766
Q 870 1363 1030 1065
Q 1190 768 1459 611
Q 1728 454 2054 454
Q 2381 454 2653 611
Q 2925 768 3085 1065
Q 3245 1363 3245 1760
z
" transform="scale(0.015625)"/>
      </defs>
      <use xlink:href="#Poppins-Regular-52"/>
      <use xlink:href="#Poppins-Regular-65" x="60.799988"/>
      <use xlink:href="#Poppins-Regular-76" x="122.799973"/>
      <use xlink:href="#Poppins-Regular-65" x="178.899963"/>
      <use xlink:href="#Poppins-Regular-6e" x="240.899948"/>
      <use xlink:href="#Poppins-Regular-75" x="304.899933"/>
      <use xlink:href="#Poppins-Regular-65" x="368.899918"/>
      <use xlink:href="#Poppins-Regular-20" x="430.899902"/>
      <use xlink:href="#Poppins-Regular-43" x="457.599899"/>
      <use xlink:href="#Poppins-Regular-68" x="534.799881"/>
      <use xlink:href="#Poppins-Regular-61" x="598.799866"/>
      <use xlink:href="#Poppins-Regular-6e" x="666.399857"/>
      <use xlink:href="#Poppins-Regular-67" x="730.399841"/>
      <use xlink:href="#Poppins-Regular-65" x="797.999832"/>
     </g>
    </g>
   </g>
   <g id="matplotlib.axis_2">
    <g id="ytick_1">
     <g id="line2d_11">
      <path d="M 82.6525 165.896625
L 439.7725 165.896625
" clip-path="url(#p9ff2d4da1d)" style="fill: none; stroke: #dad8d7; stroke-opacity: 0.5; stroke-width: 0.8; stroke-linecap: square"/>
     </g>
     <g id="line2d_12">
      <defs>
       <path id="mc6f0fd13ad" d="M 0 0
L -3.5 0
" style="stroke: #000000; stroke-width: 0.8"/>
      </defs>
      <g>
       <use xlink:href="#mc6f0fd13ad" x="82.6525" y="165.896625" style="stroke: #000000; stroke-width: 0.8"/>
      </g>
     </g>
    </g>
    <g id="text_7">
     <!-- Brand A -->
     <g transform="translate(62.5325 189.410062) rotate(-90) scale(0.12 -0.12)">
      <defs>
       <path id="Poppins-Regular-42" d="M 2726 2298
Q 2970 2259 3171 2099
Q 3373 1939 3491 1702
Q 3610 1466 3610 1197
Q 3610 858 3437 586
Q 3264 314 2934 157
Q 2605 0 2157 0
L 493 0
L 493 4461
L 2093 4461
Q 2547 4461 2867 4310
Q 3187 4160 3347 3904
Q 3507 3648 3507 3328
Q 3507 2931 3292 2672
Q 3078 2413 2726 2298
z
M 1075 2534
L 2054 2534
Q 2464 2534 2688 2726
Q 2912 2918 2912 3258
Q 2912 3597 2688 3789
Q 2464 3981 2042 3981
L 1075 3981
L 1075 2534
z
M 2106 480
Q 2541 480 2784 685
Q 3027 890 3027 1254
Q 3027 1626 2771 1840
Q 2515 2054 2086 2054
L 1075 2054
L 1075 480
L 2106 480
z
" transform="scale(0.015625)"/>
       <path id="Poppins-Regular-72" d="M 1075 2938
Q 1229 3238 1513 3404
Q 1798 3571 2208 3571
L 2208 2970
L 2054 2970
Q 1075 2970 1075 1907
L 1075 0
L 493 0
L 493 3507
L 1075 3507
L 1075 2938
z
" transform="scale(0.015625)"/>
       <path id="Poppins-Regular-64" d="M 275 1766
Q 275 2304 492 2710
Q 710 3117 1091 3341
Q 1472 3565 1946 3565
Q 2355 3565 2707 3376
Q 3059 3187 3245 2880
L 3245 4736
L 3834 4736
L 3834 0
L 3245 0
L 3245 659
Q 3072 346 2733 144
Q 2394 -58 1939 -58
Q 1472 -58 1091 172
Q 710 403 492 819
Q 275 1235 275 1766
z
M 3245 1760
Q 3245 2157 3085 2451
Q 2925 2746 2653 2902
Q 2381 3059 2054 3059
Q 1728 3059 1459 2905
Q 1190 2752 1030 2457
Q 870 2163 870 1766
Q 870 1363 1030 1065
Q 1190 768 1459 611
Q 1728 454 2054 454
Q 2381 454 2653 611
Q 2925 768 3085 1065
Q 3245 1363 3245 1760
z
" transform="scale(0.015625)"/>
       <path id="Poppins-Regular-41" d="M 3130 992
L 1184 992
L 826 0
L 211 0
L 1824 4435
L 2496 4435
L 4102 0
L 3488 0
L 3130 992
z
M 2963 1466
L 2157 3718
L 1350 1466
L 2963 1466
z
" transform="scale(0.015625)"/>
      </defs>
      <use xlink:href="#Poppins-Regular-42"/>
      <use xlink:href="#Poppins-Regular-72" x="61.299988"/>
      <use xlink:href="#Poppins-Regular-61" x="98.599976"/>
      <use xlink:href="#Poppins-Regular-6e" x="166.199966"/>
      <use xlink:href="#Poppins-Regular-64" x="230.199951"/>
      <use xlink:href="#Poppins-Regular-20" x="297.799942"/>
      <use xlink:href="#Poppins-Regular-41" x="324.499939"/>
     </g>
    </g>
   </g>
   <g id="patch_3">
    <path d="M 175.865171 247.77724
L 175.865171 247.77724
L 175.865171 84.01601
L 175.865171 84.01601
z
" clip-path="url(#p9ff2d4da1d)" style="fill: #15803d; stroke: #15803d; stroke-linejoin: miter"/>
   </g>
   <g id="patch_4">
    <path d="M 175.865171 247.77724
L 254.853287 247.77724
L 254.853287 84.01601
L 175.865171 84.01601
z
" clip-path="url(#p9ff2d4da1d)" style="fill: #22c55e; stroke: #22c55e; stroke-linejoin: miter"/>
   </g>
   <g id="patch_5">
    <path d="M 254.853287 247.77724
L 423.539773 247.77724
L 423.539773 84.01601
L 254.853287 84.01601
z
" clip-path="url(#p9ff2d4da1d)" style="fill: #86efac; stroke: #86efac; stroke-linejoin: miter"/>
   </g>
   <g id="patch_6">
    <path d="M 175.865171 247.77724
L 175.865171 247.77724
L 175.865171 84.01601
L 175.865171 84.01601
z
" clip-path="url(#p9ff2d4da1d)" style="fill: #b91c1c; stroke: #b91c1c; stroke-linejoin: miter"/>
   </g>
   <g id="patch_7">
    <path d="M 175.865171 247.77724
L 155.448751 247.77724
L 155.448751 84.01601
L 175.865171 84.01601
z
" clip-path="url(#p9ff2d4da1d)" style="fill: #ef4444; stroke: #ef4444; stroke-linejoin: miter"/>
   </g>
   <g id="patch_8">
    <path d="M 155.448751 247.77724
L 98.885227 247.77724
L 98.885227 84.01601
L 155.448751 84.01601
z
" clip-path="url(#p9ff2d4da1d)" style="fill: #fca5a5; stroke: #fca5a5; stroke-linejoin: miter"/>
   </g>
   <g id="line2d_13">
    <path d="M 175.865171 298.952625
L 175.865171 32.840625
" clip-path="url(#p9ff2d4da1d)" style="fill: none; stroke: #000000; stroke-width: 0.5; stroke-linecap: square"/>
   </g>
   <g id="patch_9">
    <path d="M 82.6525 298.952625
L 82.6525 32.840625
" style="fill: none; stroke: #000000; stroke-width: 0.8; stroke-linejoin: miter; stroke-linecap: square"/>
   </g>
   <g id="patch_10">
    <path d="M 82.6525 298.952625
L 439.7725 298.952625
" style="fill: none; stroke: #000000; stroke-width: 0.8; stroke-linejoin: miter; stroke-linecap: square"/>
   </g>
   <g id="text_8">
    <!-- Brand A vs Brand B: Customer Movement Analysis -->
    <g transform="translate(7.2 22.840625) scale(0.2 -0.2)">
     <defs>
      <path id="Poppins-SemiBold-42" d="M 2976 2291
Q 3354 2221 3597 1913
Q 3840 1606 3840 1210
Q 3840 851 3664 579
Q 3488 307 3155 153
Q 2822 0 2368 0
L 442 0
L 442 4467
L 2285 4467
Q 2739 4467 3068 4320
Q 3398 4173 3568 3910
Q 3738 3648 3738 3315
Q 3738 2925 3530 2662
Q 3322 2400 2976 2291
z
M 1338 2624
L 2157 2624
Q 2477 2624 2649 2768
Q 2822 2912 2822 3181
Q 2822 3450 2649 3597
Q 2477 3744 2157 3744
L 1338 3744
L 1338 2624
z
M 2240 730
Q 2566 730 2748 883
Q 2931 1037 2931 1318
Q 2931 1606 2739 1769
Q 2547 1933 2221 1933
L 1338 1933
L 1338 730
L 2240 730
z
" transform="scale(0.015625)"/>
      <path id="Poppins-SemiBold-72" d="M 1338 2995
Q 1510 3277 1788 3437
Q 2067 3597 2426 3597
L 2426 2656
L 2189 2656
Q 1766 2656 1552 2457
Q 1338 2259 1338 1766
L 1338 0
L 442 0
L 442 3546
L 1338 3546
L 1338 2995
z
" transform="scale(0.015625)"/>
      <path id="Poppins-SemiBold-61" d="M 211 1786
Q 211 2323 425 2739
Q 640 3155 1008 3379
Q 1376 3603 1830 3603
Q 2227 3603 2524 3443
Q 2822 3283 3002 3040
L 3002 3546
L 3904 3546
L 3904 0
L 3002 0
L 3002 518
Q 2829 269 2525 105
Q 2221 -58 1824 -58
Q 1376 -58 1008 172
Q 640 403 425 822
Q 211 1242 211 1786
z
M 3002 1773
Q 3002 2099 2874 2332
Q 2746 2566 2528 2691
Q 2310 2816 2061 2816
Q 1811 2816 1600 2694
Q 1389 2573 1257 2339
Q 1126 2106 1126 1786
Q 1126 1466 1257 1226
Q 1389 986 1603 858
Q 1818 730 2061 730
Q 2310 730 2528 854
Q 2746 979 2874 1212
Q 3002 1446 3002 1773
z
" transform="scale(0.015625)"/>
      <path id="Poppins-SemiBold-6e" d="M 2406 3597
Q 3040 3597 3430 3197
Q 3821 2797 3821 2080
L 3821 0
L 2925 0
L 2925 1958
Q 2925 2381 2713 2608
Q 2502 2835 2138 2835
Q 1766 2835 1552 2608
Q 1338 2381 1338 1958
L 1338 0
L 442 0
L 442 3546
L 1338 3546
L 1338 3104
Q 1517 3334 1795 3465
Q 2074 3597 2406 3597
z
" transform="scale(0.015625)"/>
      <path id="Poppins-SemiBold-64" d="M 211 1786
Q 211 2323 425 2739
Q 640 3155 1011 3379
Q 1382 3603 1837 3603
Q 2182 3603 2496 3452
Q 2810 3302 2995 3053
L 2995 4736
L 3904 4736
L 3904 0
L 2995 0
L 2995 525
Q 2829 262 2528 102
Q 2227 -58 1830 -58
Q 1382 -58 1011 172
Q 640 403 425 822
Q 211 1242 211 1786
z
M 3002 1773
Q 3002 2099 2874 2332
Q 2746 2566 2528 2691
Q 2310 2816 2061 2816
Q 1811 2816 1600 2694
Q 1389 2573 1257 2339
Q 1126 2106 1126 1786
Q 1126 1466 1257 1226
Q 1389 986 1603 858
Q 1818 730 2061 730
Q 2310 730 2528 854
Q 2746 979 2874 1212
Q 3002 1446 3002 1773
z
" transform="scale(0.015625)"/>
      <path id="Poppins-SemiBold-20" transform="scale(0.015625)"/>
      <path id="Poppins-SemiBold-41" d="M 3181 851
L 1402 851
L 1107 0
L 166 0
L 1773 4474
L 2816 4474
L 4422 0
L 3475 0
L 3181 851
z
M 2938 1568
L 2291 3437
L 1645 1568
L 2938 1568
z
" transform="scale(0.015625)"/>
      <path id="Poppins-SemiBold-76" d="M 1920 826
L 2816 3546
L 3770 3546
L 2458 0
L 1370 0
L 64 3546
L 1024 3546
L 1920 826
z
" transform="scale(0.015625)"/>
      <path id="Poppins-SemiBold-73" d="M 1798 -58
Q 1363 -58 1017 99
Q 672 256 470 525
Q 269 794 250 1120
L 1152 1120
Q 1178 915 1354 780
Q 1530 646 1792 646
Q 2048 646 2192 748
Q 2336 851 2336 1011
Q 2336 1184 2160 1270
Q 1984 1357 1600 1459
Q 1203 1555 950 1657
Q 698 1760 515 1971
Q 333 2182 333 2541
Q 333 2835 502 3078
Q 672 3322 989 3462
Q 1306 3603 1734 3603
Q 2368 3603 2745 3286
Q 3123 2970 3162 2432
L 2304 2432
Q 2285 2643 2128 2768
Q 1971 2893 1709 2893
Q 1466 2893 1334 2803
Q 1203 2714 1203 2554
Q 1203 2374 1382 2281
Q 1562 2189 1939 2093
Q 2323 1997 2572 1894
Q 2822 1792 3004 1577
Q 3187 1363 3194 1011
Q 3194 704 3024 461
Q 2854 218 2537 80
Q 2221 -58 1798 -58
z
" transform="scale(0.015625)"/>
      <path id="Poppins-SemiBold-3a" d="M 838 -45
Q 595 -45 438 105
Q 282 256 282 480
Q 282 704 438 854
Q 595 1005 838 1005
Q 1075 1005 1228 854
Q 1382 704 1382 480
Q 1382 256 1228 105
Q 1075 -45 838 -45
z
M 838 2579
Q 595 2579 438 2729
Q 282 2880 282 3104
Q 282 3328 438 3478
Q 595 3629 838 3629
Q 1075 3629 1228 3478
Q 1382 3328 1382 3104
Q 1382 2880 1228 2729
Q 1075 2579 838 2579
z
" transform="scale(0.015625)"/>
      <path id="Poppins-SemiBold-43" d="M 224 2240
Q 224 2899 521 3420
Q 819 3942 1334 4233
Q 1850 4525 2490 4525
Q 3238 4525 3801 4141
Q 4365 3757 4589 3078
L 3558 3078
Q 3405 3398 3126 3558
Q 2848 3718 2483 3718
Q 2093 3718 1789 3536
Q 1485 3354 1315 3021
Q 1146 2688 1146 2240
Q 1146 1798 1315 1462
Q 1485 1126 1789 944
Q 2093 762 2483 762
Q 2848 762 3126 925
Q 3405 1088 3558 1408
L 4589 1408
Q 4365 723 3805 342
Q 3245 -38 2490 -38
Q 1850 -38 1334 253
Q 819 544 521 1062
Q 224 1581 224 2240
z
" transform="scale(0.015625)"/>
      <path id="Poppins-SemiBold-75" d="M 3789 3546
L 3789 0
L 2886 0
L 2886 448
Q 2714 218 2435 86
Q 2157 -45 1830 -45
Q 1414 -45 1094 131
Q 774 307 592 649
Q 410 992 410 1466
L 410 3546
L 1306 3546
L 1306 1594
Q 1306 1171 1517 944
Q 1728 717 2093 717
Q 2464 717 2675 944
Q 2886 1171 2886 1594
L 2886 3546
L 3789 3546
z
" transform="scale(0.015625)"/>
      <path id="Poppins-SemiBold-74" d="M 1485 2810
L 1485 1094
Q 1485 915 1571 835
Q 1658 755 1862 755
L 2278 755
L 2278 0
L 1715 0
Q 582 0 582 1101
L 582 2810
L 160 2810
L 160 3546
L 582 3546
L 582 4422
L 1485 4422
L 1485 3546
L 2278 3546
L 2278 2810
L 1485 2810
z
" transform="scale(0.015625)"/>
      <path id="Poppins-SemiBold-6f" d="M 2016 -58
Q 1504 -58 1094 169
Q 685 397 451 813
Q 218 1229 218 1773
Q 218 2317 458 2733
Q 698 3149 1114 3376
Q 1530 3603 2042 3603
Q 2554 3603 2970 3376
Q 3386 3149 3626 2733
Q 3866 2317 3866 1773
Q 3866 1229 3619 813
Q 3373 397 2953 169
Q 2534 -58 2016 -58
z
M 2016 723
Q 2259 723 2473 841
Q 2688 960 2816 1197
Q 2944 1434 2944 1773
Q 2944 2278 2678 2550
Q 2413 2822 2029 2822
Q 1645 2822 1385 2550
Q 1126 2278 1126 1773
Q 1126 1267 1379 995
Q 1632 723 2016 723
z
" transform="scale(0.015625)"/>
      <path id="Poppins-SemiBold-6d" d="M 4845 3597
Q 5498 3597 5898 3197
Q 6298 2797 6298 2080
L 6298 0
L 5402 0
L 5402 1958
Q 5402 2374 5190 2595
Q 4979 2816 4614 2816
Q 4250 2816 4035 2595
Q 3821 2374 3821 1958
L 3821 0
L 2925 0
L 2925 1958
Q 2925 2374 2713 2595
Q 2502 2816 2138 2816
Q 1766 2816 1552 2595
Q 1338 2374 1338 1958
L 1338 0
L 442 0
L 442 3546
L 1338 3546
L 1338 3117
Q 1510 3341 1782 3469
Q 2054 3597 2381 3597
Q 2797 3597 3123 3421
Q 3450 3245 3629 2918
Q 3802 3226 4131 3411
Q 4461 3597 4845 3597
z
" transform="scale(0.015625)"/>
      <path id="Poppins-SemiBold-65" d="M 3738 1850
Q 3738 1658 3712 1504
L 1120 1504
Q 1152 1120 1389 902
Q 1626 685 1971 685
Q 2470 685 2682 1114
L 3648 1114
Q 3494 602 3059 272
Q 2624 -58 1990 -58
Q 1478 -58 1072 169
Q 666 397 438 813
Q 211 1229 211 1773
Q 211 2323 435 2739
Q 659 3155 1062 3379
Q 1466 3603 1990 3603
Q 2496 3603 2896 3385
Q 3296 3168 3517 2768
Q 3738 2368 3738 1850
z
M 2810 2106
Q 2803 2451 2560 2659
Q 2317 2867 1965 2867
Q 1632 2867 1405 2665
Q 1178 2464 1126 2106
L 2810 2106
z
" transform="scale(0.015625)"/>
      <path id="Poppins-SemiBold-4d" d="M 5312 4467
L 5312 0
L 4416 0
L 4416 2906
L 3219 0
L 2541 0
L 1338 2906
L 1338 0
L 442 0
L 442 4467
L 1459 4467
L 2880 1146
L 4301 4467
L 5312 4467
z
" transform="scale(0.015625)"/>
      <path id="Poppins-SemiBold-6c" d="M 1338 4736
L 1338 0
L 442 0
L 442 4736
L 1338 4736
z
" transform="scale(0.015625)"/>
      <path id="Poppins-SemiBold-79" d="M 3834 3546
L 1638 -1677
L 685 -1677
L 1453 90
L 32 3546
L 1037 3546
L 1952 1069
L 2880 3546
L 3834 3546
z
" transform="scale(0.015625)"/>
      <path id="Poppins-SemiBold-69" d="M 896 3968
Q 659 3968 502 4118
Q 346 4269 346 4493
Q 346 4717 502 4867
Q 659 5018 896 5018
Q 1133 5018 1289 4867
Q 1446 4717 1446 4493
Q 1446 4269 1289 4118
Q 1133 3968 896 3968
z
M 1338 3546
L 1338 0
L 442 0
L 442 3546
L 1338 3546
z
" transform="scale(0.015625)"/>
     </defs>
     <use xlink:href="#Poppins-SemiBold-42"/>
     <use xlink:href="#Poppins-SemiBold-72" x="64.299988"/>
     <use xlink:href="#Poppins-SemiBold-61" x="104.699982"/>
     <use xlink:href="#Poppins-SemiBold-6e" x="172.499969"/>
     <use xlink:href="#Poppins-SemiBold-64" x="238.59996"/>
     <use xlink:href="#Poppins-SemiBold-20" x="306.399948"/>
     <use xlink:href="#Poppins-SemiBold-41" x="330.199936"/>
     <use xlink:href="#Poppins-SemiBold-20" x="401.799927"/>
     <use xlink:href="#Poppins-SemiBold-76" x="425.599915"/>
     <use xlink:href="#Poppins-SemiBold-73" x="485.499908"/>
     <use xlink:href="#Poppins-SemiBold-20" x="539.999893"/>
     <use xlink:href="#Poppins-SemiBold-42" x="563.799881"/>
     <use xlink:href="#Poppins-SemiBold-72" x="628.099869"/>
     <use xlink:href="#Poppins-SemiBold-61" x="668.499863"/>
     <use xlink:href="#Poppins-SemiBold-6e" x="736.29985"/>
     <use xlink:href="#Poppins-SemiBold-64" x="802.399841"/>
     <use xlink:href="#Poppins-SemiBold-20" x="870.199829"/>
     <use xlink:href="#Poppins-SemiBold-42" x="893.999817"/>
     <use xlink:href="#Poppins-SemiBold-3a" x="958.299805"/>
     <use xlink:href="#Poppins-SemiBold-20" x="984.599792"/>
     <use xlink:href="#Poppins-SemiBold-43" x="1008.39978"/>
     <use xlink:href="#Poppins-SemiBold-75" x="1085.199768"/>
     <use xlink:href="#Poppins-SemiBold-73" x="1151.299759"/>
     <use xlink:href="#Poppins-SemiBold-74" x="1205.799744"/>
     <use xlink:href="#Poppins-SemiBold-6f" x="1244.599731"/>
     <use xlink:href="#Poppins-SemiBold-6d" x="1308.399719"/>
     <use xlink:href="#Poppins-SemiBold-65" x="1413.199707"/>
     <use xlink:href="#Poppins-SemiBold-72" x="1474.899704"/>
     <use xlink:href="#Poppins-SemiBold-20" x="1515.299698"/>
     <use xlink:href="#Poppins-SemiBold-4d" x="1539.099686"/>
     <use xlink:href="#Poppins-SemiBold-6f" x="1628.99968"/>
     <use xlink:href="#Poppins-SemiBold-76" x="1692.799667"/>
     <use xlink:href="#Poppins-SemiBold-65" x="1752.699661"/>
     <use xlink:href="#Poppins-SemiBold-6d" x="1814.399658"/>
     <use xlink:href="#Poppins-SemiBold-65" x="1919.199646"/>
     <use xlink:href="#Poppins-SemiBold-6e" x="1980.899643"/>
     <use xlink:href="#Poppins-SemiBold-74" x="2046.999634"/>
     <use xlink:href="#Poppins-SemiBold-20" x="2085.799622"/>
     <use xlink:href="#Poppins-SemiBold-41" x="2109.599609"/>
     <use xlink:href="#Poppins-SemiBold-6e" x="2181.1996"/>
     <use xlink:href="#Poppins-SemiBold-61" x="2247.299591"/>
     <use xlink:href="#Poppins-SemiBold-6c" x="2315.099579"/>
     <use xlink:href="#Poppins-SemiBold-79" x="2342.899567"/>
     <use xlink:href="#Poppins-SemiBold-73" x="2403.399551"/>
     <use xlink:href="#Poppins-SemiBold-69" x="2457.899536"/>
     <use xlink:href="#Poppins-SemiBold-73" x="2485.699524"/>
    </g>
   </g>
   <g id="legend_1">
    <g id="patch_11">
     <path d="M 464.6285 128.909375
L 600.642563 128.909375
Q 602.642563 128.909375 602.642563 126.909375
L 602.642563 39.840625
Q 602.642563 37.840625 600.642563 37.840625
L 464.6285 37.840625
Q 462.6285 37.840625 462.6285 39.840625
L 462.6285 126.909375
Q 462.6285 128.909375 464.6285 128.909375
z
" style="fill: #ffffff; opacity: 0.8; stroke: #ffffff; stroke-linejoin: miter"/>
    </g>
    <g id="patch_12">
     <path d="M 466.6285 49.439062
L 486.6285 49.439062
L 486.6285 42.439062
L 466.6285 42.439062
z
" style="fill: #15803d; stroke: #15803d; stroke-linejoin: miter"/>
    </g>
    <g id="text_9">
     <!-- New -->
     <g transform="translate(494.6285 49.439062) scale(0.1 -0.1)">
      <defs>
       <path id="DejaVuSans-4e" d="M 628 4666
L 1478 4666
L 3547 763
L 3547 4666
L 4159 4666
L 4159 0
L 3309 0
L 1241 3903
L 1241 0
L 628 0
L 628 4666
z
" transform="scale(0.015625)"/>
       <path id="DejaVuSans-65" d="M 3597 1894
L 3597 1613
L 953 1613
Q 991 1019 1311 708
Q 1631 397 2203 397
Q 2534 397 2845 478
Q 3156 559 3463 722
L 3463 178
Q 3153 47 2828 -22
Q 2503 -91 2169 -91
Q 1331 -91 842 396
Q 353 884 353 1716
Q 353 2575 817 3079
Q 1281 3584 2069 3584
Q 2775 3584 3186 3129
Q 3597 2675 3597 1894
z
M 3022 2063
Q 3016 2534 2758 2815
Q 2500 3097 2075 3097
Q 1594 3097 1305 2825
Q 1016 2553 972 2059
L 3022 2063
z
" transform="scale(0.015625)"/>
       <path id="DejaVuSans-77" d="M 269 3500
L 844 3500
L 1563 769
L 2278 3500
L 2956 3500
L 3675 769
L 4391 3500
L 4966 3500
L 4050 0
L 3372 0
L 2619 2869
L 1863 0
L 1184 0
L 269 3500
z
" transform="scale(0.015625)"/>
      </defs>
      <use xlink:href="#DejaVuSans-4e"/>
      <use xlink:href="#DejaVuSans-65" x="74.804688"/>
      <use xlink:href="#DejaVuSans-77" x="136.328125"/>
     </g>
    </g>
    <g id="patch_13">
     <path d="M 466.6285 64.117187
L 486.6285 64.117187
L 486.6285 57.117187
L 466.6285 57.117187
z
" style="fill: #22c55e; stroke: #22c55e; stroke-linejoin: miter"/>
    </g>
    <g id="text_10">
     <!-- Increased Brand A -->
     <g transform="translate(494.6285 64.117187) scale(0.1 -0.1)">
      <defs>
       <path id="DejaVuSans-49" d="M 628 4666
L 1259 4666
L 1259 0
L 628 0
L 628 4666
z
" transform="scale(0.015625)"/>
       <path id="DejaVuSans-6e" d="M 3513 2113
L 3513 0
L 2938 0
L 2938 2094
Q 2938 2591 2744 2837
Q 2550 3084 2163 3084
Q 1697 3084 1428 2787
Q 1159 2491 1159 1978
L 1159 0
L 581 0
L 581 3500
L 1159 3500
L 1159 2956
Q 1366 3272 1645 3428
Q 1925 3584 2291 3584
Q 2894 3584 3203 3211
Q 3513 2838 3513 2113
z
" transform="scale(0.015625)"/>
       <path id="DejaVuSans-63" d="M 3122 3366
L 3122 2828
Q 2878 2963 2633 3030
Q 2388 3097 2138 3097
Q 1578 3097 1268 2742
Q 959 2388 959 1747
Q 959 1106 1268 751
Q 1578 397 2138 397
Q 2388 397 2633 464
Q 2878 531 3122 666
L 3122 134
Q 2881 22 2623 -34
Q 2366 -91 2075 -91
Q 1284 -91 818 406
Q 353 903 353 1747
Q 353 2603 823 3093
Q 1294 3584 2113 3584
Q 2378 3584 2631 3529
Q 2884 3475 3122 3366
z
" transform="scale(0.015625)"/>
       <path id="DejaVuSans-72" d="M 2631 2963
Q 2534 3019 2420 3045
Q 2306 3072 2169 3072
Q 1681 3072 1420 2755
Q 1159 2438 1159 1844
L 1159 0
L 581 0
L 581 3500
L 1159 3500
L 1159 2956
Q 1341 3275 1631 3429
Q 1922 3584 2338 3584
Q 2397 3584 2469 3576
Q 2541 3569 2628 3553
L 2631 2963
z
" transform="scale(0.015625)"/>
       <path id="DejaVuSans-61" d="M 2194 1759
Q 1497 1759 1228 1600
Q 959 1441 959 1056
Q 959 750 1161 570
Q 1363 391 1709 391
Q 2188 391 2477 730
Q 2766 1069 2766 1631
L 2766 1759
L 2194 1759
z
M 3341 1997
L 3341 0
L 2766 0
L 2766 531
Q 2569 213 2275 61
Q 1981 -91 1556 -91
Q 1019 -91 701 211
Q 384 513 384 1019
Q 384 1609 779 1909
Q 1175 2209 1959 2209
L 2766 2209
L 2766 2266
Q 2766 2663 2505 2880
Q 2244 3097 1772 3097
Q 1472 3097 1187 3025
Q 903 2953 641 2809
L 641 3341
Q 956 3463 1253 3523
Q 1550 3584 1831 3584
Q 2591 3584 2966 3190
Q 3341 2797 3341 1997
z
" transform="scale(0.015625)"/>
       <path id="DejaVuSans-73" d="M 2834 3397
L 2834 2853
Q 2591 2978 2328 3040
Q 2066 3103 1784 3103
Q 1356 3103 1142 2972
Q 928 2841 928 2578
Q 928 2378 1081 2264
Q 1234 2150 1697 2047
L 1894 2003
Q 2506 1872 2764 1633
Q 3022 1394 3022 966
Q 3022 478 2636 193
Q 2250 -91 1575 -91
Q 1294 -91 989 -36
Q 684 19 347 128
L 347 722
Q 666 556 975 473
Q 1284 391 1588 391
Q 1994 391 2212 530
Q 2431 669 2431 922
Q 2431 1156 2273 1281
Q 2116 1406 1581 1522
L 1381 1569
Q 847 1681 609 1914
Q 372 2147 372 2553
Q 372 3047 722 3315
Q 1072 3584 1716 3584
Q 2034 3584 2315 3537
Q 2597 3491 2834 3397
z
" transform="scale(0.015625)"/>
       <path id="DejaVuSans-64" d="M 2906 2969
L 2906 4863
L 3481 4863
L 3481 0
L 2906 0
L 2906 525
Q 2725 213 2448 61
Q 2172 -91 1784 -91
Q 1150 -91 751 415
Q 353 922 353 1747
Q 353 2572 751 3078
Q 1150 3584 1784 3584
Q 2172 3584 2448 3432
Q 2725 3281 2906 2969
z
M 947 1747
Q 947 1113 1208 752
Q 1469 391 1925 391
Q 2381 391 2643 752
Q 2906 1113 2906 1747
Q 2906 2381 2643 2742
Q 2381 3103 1925 3103
Q 1469 3103 1208 2742
Q 947 2381 947 1747
z
" transform="scale(0.015625)"/>
       <path id="DejaVuSans-20" transform="scale(0.015625)"/>
       <path id="DejaVuSans-42" d="M 1259 2228
L 1259 519
L 2272 519
Q 2781 519 3026 730
Q 3272 941 3272 1375
Q 3272 1813 3026 2020
Q 2781 2228 2272 2228
L 1259 2228
z
M 1259 4147
L 1259 2741
L 2194 2741
Q 2656 2741 2882 2914
Q 3109 3088 3109 3444
Q 3109 3797 2882 3972
Q 2656 4147 2194 4147
L 1259 4147
z
M 628 4666
L 2241 4666
Q 2963 4666 3353 4366
Q 3744 4066 3744 3513
Q 3744 3084 3544 2831
Q 3344 2578 2956 2516
Q 3422 2416 3680 2098
Q 3938 1781 3938 1306
Q 3938 681 3513 340
Q 3088 0 2303 0
L 628 0
L 628 4666
z
" transform="scale(0.015625)"/>
       <path id="DejaVuSans-41" d="M 2188 4044
L 1331 1722
L 3047 1722
L 2188 4044
z
M 1831 4666
L 2547 4666
L 4325 0
L 3669 0
L 3244 1197
L 1141 1197
L 716 0
L 50 0
L 1831 4666
z
" transform="scale(0.015625)"/>
      </defs>
      <use xlink:href="#DejaVuSans-49"/>
      <use xlink:href="#DejaVuSans-6e" x="29.492188"/>
      <use xlink:href="#DejaVuSans-63" x="92.871094"/>
      <use xlink:href="#DejaVuSans-72" x="147.851562"/>
      <use xlink:href="#DejaVuSans-65" x="186.714844"/>
      <use xlink:href="#DejaVuSans-61" x="248.238281"/>
      <use xlink:href="#DejaVuSans-73" x="309.517578"/>
      <use xlink:href="#DejaVuSans-65" x="361.617188"/>
      <use xlink:href="#DejaVuSans-64" x="423.140625"/>
      <use xlink:href="#DejaVuSans-20" x="486.617188"/>
      <use xlink:href="#DejaVuSans-42" x="518.404297"/>
      <use xlink:href="#DejaVuSans-72" x="587.007812"/>
      <use xlink:href="#DejaVuSans-61" x="628.121094"/>
      <use xlink:href="#DejaVuSans-6e" x="689.400391"/>
      <use xlink:href="#DejaVuSans-64" x="752.779297"/>
      <use xlink:href="#DejaVuSans-20" x="816.255859"/>
      <use xlink:href="#DejaVuSans-41" x="848.042969"/>
     </g>
    </g>
    <g id="patch_14">
     <path d="M 466.6285 78.795312
L 486.6285 78.795312
L 486.6285 71.795312
L 466.6285 71.795312
z
" style="fill: #86efac; stroke: #86efac; stroke-linejoin: miter"/>
    </g>
    <g id="text_11">
     <!-- Switch From Brand B -->
     <g transform="translate(494.6285 78.795312) scale(0.1 -0.1)">
      <defs>
       <path id="DejaVuSans-53" d="M 3425 4513
L 3425 3897
Q 3066 4069 2747 4153
Q 2428 4238 2131 4238
Q 1616 4238 1336 4038
Q 1056 3838 1056 3469
Q 1056 3159 1242 3001
Q 1428 2844 1947 2747
L 2328 2669
Q 3034 2534 3370 2195
Q 3706 1856 3706 1288
Q 3706 609 3251 259
Q 2797 -91 1919 -91
Q 1588 -91 1214 -16
Q 841 59 441 206
L 441 856
Q 825 641 1194 531
Q 1563 422 1919 422
Q 2459 422 2753 634
Q 3047 847 3047 1241
Q 3047 1584 2836 1778
Q 2625 1972 2144 2069
L 1759 2144
Q 1053 2284 737 2584
Q 422 2884 422 3419
Q 422 4038 858 4394
Q 1294 4750 2059 4750
Q 2388 4750 2728 4690
Q 3069 4631 3425 4513
z
" transform="scale(0.015625)"/>
       <path id="DejaVuSans-69" d="M 603 3500
L 1178 3500
L 1178 0
L 603 0
L 603 3500
z
M 603 4863
L 1178 4863
L 1178 4134
L 603 4134
L 603 4863
z
" transform="scale(0.015625)"/>
       <path id="DejaVuSans-74" d="M 1172 4494
L 1172 3500
L 2356 3500
L 2356 3053
L 1172 3053
L 1172 1153
Q 1172 725 1289 603
Q 1406 481 1766 481
L 2356 481
L 2356 0
L 1766 0
Q 1100 0 847 248
Q 594 497 594 1153
L 594 3053
L 172 3053
L 172 3500
L 594 3500
L 594 4494
L 1172 4494
z
" transform="scale(0.015625)"/>
       <path id="DejaVuSans-68" d="M 3513 2113
L 3513 0
L 2938 0
L 2938 2094
Q 2938 2591 2744 2837
Q 2550 3084 2163 3084
Q 1697 3084 1428 2787
Q 1159 2491 1159 1978
L 1159 0
L 581 0
L 581 4863
L 1159 4863
L 1159 2956
Q 1366 3272 1645 3428
Q 1925 3584 2291 3584
Q 2894 3584 3203 3211
Q 3513 2838 3513 2113
z
" transform="scale(0.015625)"/>
       <path id="DejaVuSans-46" d="M 628 4666
L 3309 4666
L 3309 4134
L 1259 4134
L 1259 2759
L 3109 2759
L 3109 2228
L 1259 2228
L 1259 0
L 628 0
L 628 4666
z
" transform="scale(0.015625)"/>
       <path id="DejaVuSans-6f" d="M 1959 3097
Q 1497 3097 1228 2736
Q 959 2375 959 1747
Q 959 1119 1226 758
Q 1494 397 1959 397
Q 2419 397 2687 759
Q 2956 1122 2956 1747
Q 2956 2369 2687 2733
Q 2419 3097 1959 3097
z
M 1959 3584
Q 2709 3584 3137 3096
Q 3566 2609 3566 1747
Q 3566 888 3137 398
Q 2709 -91 1959 -91
Q 1206 -91 779 398
Q 353 888 353 1747
Q 353 2609 779 3096
Q 1206 3584 1959 3584
z
" transform="scale(0.015625)"/>
       <path id="DejaVuSans-6d" d="M 3328 2828
Q 3544 3216 3844 3400
Q 4144 3584 4550 3584
Q 5097 3584 5394 3201
Q 5691 2819 5691 2113
L 5691 0
L 5113 0
L 5113 2094
Q 5113 2597 4934 2840
Q 4756 3084 4391 3084
Q 3944 3084 3684 2787
Q 3425 2491 3425 1978
L 3425 0
L 2847 0
L 2847 2094
Q 2847 2600 2669 2842
Q 2491 3084 2119 3084
Q 1678 3084 1418 2786
Q 1159 2488 1159 1978
L 1159 0
L 581 0
L 581 3500
L 1159 3500
L 1159 2956
Q 1356 3278 1631 3431
Q 1906 3584 2284 3584
Q 2666 3584 2933 3390
Q 3200 3197 3328 2828
z
" transform="scale(0.015625)"/>
      </defs>
      <use xlink:href="#DejaVuSans-53"/>
      <use xlink:href="#DejaVuSans-77" x="63.476562"/>
      <use xlink:href="#DejaVuSans-69" x="145.263672"/>
      <use xlink:href="#DejaVuSans-74" x="173.046875"/>
      <use xlink:href="#DejaVuSans-63" x="212.255859"/>
      <use xlink:href="#DejaVuSans-68" x="267.236328"/>
      <use xlink:href="#DejaVuSans-20" x="330.615234"/>
      <use xlink:href="#DejaVuSans-46" x="362.402344"/>
      <use xlink:href="#DejaVuSans-72" x="412.671875"/>
      <use xlink:href="#DejaVuSans-6f" x="451.535156"/>
      <use xlink:href="#DejaVuSans-6d" x="512.716797"/>
      <use xlink:href="#DejaVuSans-20" x="610.128906"/>
      <use xlink:href="#DejaVuSans-42" x="641.916016"/>
      <use xlink:href="#DejaVuSans-72" x="710.519531"/>
      <use xlink:href="#DejaVuSans-61" x="751.632812"/>
      <use xlink:href="#DejaVuSans-6e" x="812.912109"/>
      <use xlink:href="#DejaVuSans-64" x="876.291016"/>
      <use xlink:href="#DejaVuSans-20" x="939.767578"/>
      <use xlink:href="#DejaVuSans-42" x="971.554688"/>
     </g>
    </g>
    <g id="patch_15">
     <path d="M 466.6285 93.473437
L 486.6285 93.473437
L 486.6285 86.473437
L 466.6285 86.473437
z
" style="fill: #b91c1c; stroke: #b91c1c; stroke-linejoin: miter"/>
    </g>
    <g id="text_12">
     <!-- Lost -->
     <g transform="translate(494.6285 93.473437) scale(0.1 -0.1)">
      <defs>
       <path id="DejaVuSans-4c" d="M 628 4666
L 1259 4666
L 1259 531
L 3531 531
L 3531 0
L 628 0
L 628 4666
z
" transform="scale(0.015625)"/>
      </defs>
      <use xlink:href="#DejaVuSans-4c"/>
      <use xlink:href="#DejaVuSans-6f" x="53.962891"/>
      <use xlink:href="#DejaVuSans-73" x="115.144531"/>
      <use xlink:href="#DejaVuSans-74" x="167.244141"/>
     </g>
    </g>
    <g id="patch_16">
     <path d="M 466.6285 108.151562
L 486.6285 108.151562
L 486.6285 101.151562
L 466.6285 101.151562
z
" style="fill: #ef4444; stroke: #ef4444; stroke-linejoin: miter"/>
    </g>
    <g id="text_13">
     <!-- Decreased Brand A -->
     <g transform="translate(494.6285 108.151562) scale(0.1 -0.1)">
      <defs>
       <path id="DejaVuSans-44" d="M 1259 4147
L 1259 519
L 2022 519
Q 2988 519 3436 956
Q 3884 1394 3884 2338
Q 3884 3275 3436 3711
Q 2988 4147 2022 4147
L 1259 4147
z
M 628 4666
L 1925 4666
Q 3281 4666 3915 4102
Q 4550 3538 4550 2338
Q 4550 1131 3912 565
Q 3275 0 1925 0
L 628 0
L 628 4666
z
" transform="scale(0.015625)"/>
      </defs>
      <use xlink:href="#DejaVuSans-44"/>
      <use xlink:href="#DejaVuSans-65" x="77.001953"/>
      <use xlink:href="#DejaVuSans-63" x="138.525391"/>
      <use xlink:href="#DejaVuSans-72" x="193.505859"/>
      <use xlink:href="#DejaVuSans-65" x="232.369141"/>
      <use xlink:href="#DejaVuSans-61" x="293.892578"/>
      <use xlink:href="#DejaVuSans-73" x="355.171875"/>
      <use xlink:href="#DejaVuSans-65" x="407.271484"/>
      <use xlink:href="#DejaVuSans-64" x="468.794922"/>
      <use xlink:href="#DejaVuSans-20" x="532.271484"/>
      <use xlink:href="#DejaVuSans-42" x="564.058594"/>
      <use xlink:href="#DejaVuSans-72" x="632.662109"/>
      <use xlink:href="#DejaVuSans-61" x="673.775391"/>
      <use xlink:href="#DejaVuSans-6e" x="735.054688"/>
      <use xlink:href="#DejaVuSans-64" x="798.433594"/>
      <use xlink:href="#DejaVuSans-20" x="861.910156"/>
      <use xlink:href="#DejaVuSans-41" x="893.697266"/>
     </g>
    </g>
    <g id="patch_17">
     <path d="M 466.6285 122.829687
L 486.6285 122.829687
L 486.6285 115.829687
L 466.6285 115.829687
z
" style="fill: #fca5a5; stroke: #fca5a5; stroke-linejoin: miter"/>
    </g>
    <g id="text_14">
     <!-- Switch To Brand B -->
     <g transform="translate(494.6285 122.829687) scale(0.1 -0.1)">
      <defs>
       <path id="DejaVuSans-54" d="M -19 4666
L 3928 4666
L 3928 4134
L 2272 4134
L 2272 0
L 1638 0
L 1638 4134
L -19 4134
L -19 4666
z
" transform="scale(0.015625)"/>
      </defs>
      <use xlink:href="#DejaVuSans-53"/>
      <use xlink:href="#DejaVuSans-77" x="63.476562"/>
      <use xlink:href="#DejaVuSans-69" x="145.263672"/>
      <use xlink:href="#DejaVuSans-74" x="173.046875"/>
      <use xlink:href="#DejaVuSans-63" x="212.255859"/>
      <use xlink:href="#DejaVuSans-68" x="267.236328"/>
      <use xlink:href="#DejaVuSans-20" x="330.615234"/>
      <use xlink:href="#DejaVuSans-54" x="362.402344"/>
      <use xlink:href="#DejaVuSans-6f" x="406.486328"/>
      <use xlink:href="#DejaVuSans-20" x="467.667969"/>
      <use xlink:href="#DejaVuSans-42" x="499.455078"/>
      <use xlink:href="#DejaVuSans-72" x="568.058594"/>
      <use xlink:href="#DejaVuSans-61" x="609.171875"/>
      <use xlink:href="#DejaVuSans-6e" x="670.451172"/>
      <use xlink:href="#DejaVuSans-64" x="733.830078"/>
      <use xlink:href="#DejaVuSans-20" x="797.306641"/>
      <use xlink:href="#DejaVuSans-42" x="829.09375"/>
     </g>
    </g>
   </g>
  </g>
  <g id="text_15">
   <!-- Source: PyRetailScience -->
   <g style="fill: #696969" transform="translate(7.7275 363.772937) scale(0.1 -0.1)">
    <defs>
     <path id="Poppins-LightItalic-53" d="M 1619 -45
Q 1216 -45 912 89
Q 608 224 441 467
Q 275 710 275 1024
Q 275 1107 282 1152
L 723 1152
Q 710 947 796 758
Q 883 570 1097 445
Q 1312 320 1651 320
Q 2125 320 2406 557
Q 2688 794 2688 1197
Q 2688 1440 2557 1603
Q 2426 1766 2234 1872
Q 2042 1978 1709 2112
Q 1318 2266 1088 2397
Q 858 2528 707 2758
Q 557 2989 582 3347
Q 595 3693 790 3958
Q 986 4224 1322 4374
Q 1658 4525 2086 4525
Q 2509 4525 2813 4381
Q 3117 4237 3267 3987
Q 3418 3738 3398 3437
L 2931 3437
Q 2944 3610 2851 3776
Q 2758 3942 2556 4048
Q 2355 4154 2061 4154
Q 1606 4154 1318 3933
Q 1030 3712 1030 3334
Q 1030 3110 1158 2956
Q 1286 2803 1472 2700
Q 1658 2598 1984 2464
Q 2362 2310 2595 2176
Q 2829 2042 2992 1818
Q 3155 1594 3155 1254
Q 3155 1171 3149 1126
Q 3123 800 2931 531
Q 2739 262 2403 108
Q 2067 -45 1619 -45
z
" transform="scale(0.015625)"/>
     <path id="Poppins-LightItalic-6f" d="M 1728 -51
Q 1293 -51 960 125
Q 627 301 444 624
Q 262 947 262 1382
Q 262 1971 531 2467
Q 800 2963 1280 3254
Q 1760 3546 2349 3546
Q 2784 3546 3117 3370
Q 3450 3194 3635 2870
Q 3821 2547 3821 2112
Q 3821 1517 3545 1024
Q 3270 531 2793 240
Q 2317 -51 1728 -51
z
M 1779 326
Q 2234 326 2595 569
Q 2957 813 3158 1216
Q 3360 1619 3360 2086
Q 3360 2611 3056 2886
Q 2752 3162 2285 3162
Q 1830 3162 1475 2918
Q 1120 2675 921 2272
Q 723 1869 723 1402
Q 723 883 1024 604
Q 1325 326 1779 326
z
" transform="scale(0.015625)"/>
     <path id="Poppins-LightItalic-75" d="M 3834 3494
L 3219 0
L 2771 0
L 2880 614
Q 2662 288 2316 115
Q 1971 -58 1574 -58
Q 1037 -58 710 233
Q 384 525 384 1082
Q 384 1286 416 1453
L 774 3494
L 1216 3494
L 864 1504
Q 838 1357 838 1197
Q 838 774 1072 553
Q 1306 333 1722 333
Q 2208 333 2560 630
Q 2912 928 3034 1504
L 3386 3494
L 3834 3494
z
" transform="scale(0.015625)"/>
     <path id="Poppins-LightItalic-72" d="M 1133 2797
Q 1344 3162 1683 3360
Q 2022 3558 2470 3558
L 2387 3091
L 2259 3091
Q 1798 3091 1465 2854
Q 1133 2618 1005 2074
L 640 0
L 192 0
L 806 3494
L 1254 3494
L 1133 2797
z
" transform="scale(0.015625)"/>
     <path id="Poppins-LightItalic-63" d="M 294 1747
Q 390 2291 681 2697
Q 973 3104 1395 3325
Q 1818 3546 2310 3546
Q 2957 3546 3318 3226
Q 3680 2906 3706 2355
L 3226 2355
Q 3206 2733 2947 2947
Q 2688 3162 2246 3162
Q 1702 3162 1289 2794
Q 877 2426 755 1747
Q 723 1587 723 1382
Q 723 870 1001 598
Q 1280 326 1741 326
Q 2189 326 2521 540
Q 2854 755 3014 1139
L 3494 1139
Q 3277 602 2797 275
Q 2317 -51 1677 -51
Q 1030 -51 643 320
Q 256 691 256 1338
Q 256 1536 294 1747
z
" transform="scale(0.015625)"/>
     <path id="Poppins-LightItalic-65" d="M 2330 3546
Q 2771 3546 3084 3376
Q 3398 3206 3561 2912
Q 3725 2618 3725 2240
Q 3725 2067 3699 1933
Q 3661 1741 3622 1587
L 723 1587
Q 704 1466 704 1357
Q 704 864 1001 595
Q 1299 326 1760 326
Q 2202 326 2534 537
Q 2867 749 3021 1107
L 3501 1107
Q 3283 595 2806 272
Q 2330 -51 1696 -51
Q 1043 -51 649 323
Q 256 698 256 1344
Q 256 1536 294 1747
Q 390 2291 681 2700
Q 973 3110 1401 3328
Q 1830 3546 2330 3546
z
M 3238 1920
Q 3270 2099 3270 2221
Q 3270 2675 2982 2918
Q 2694 3162 2246 3162
Q 1920 3162 1619 3021
Q 1318 2880 1094 2598
Q 870 2317 787 1920
L 3238 1920
z
" transform="scale(0.015625)"/>
     <path id="Poppins-LightItalic-3a" d="M 262 -32
Q 141 -32 64 45
Q -13 122 -13 243
Q -13 397 105 512
Q 224 627 378 627
Q 499 627 576 553
Q 653 480 653 358
Q 653 205 534 86
Q 416 -32 262 -32
z
M 262 2784
Q 141 2784 64 2861
Q -13 2938 -13 3059
Q -13 3213 105 3328
Q 224 3443 378 3443
Q 499 3443 576 3369
Q 653 3296 653 3174
Q 653 3021 534 2902
Q 416 2784 262 2784
z
" transform="scale(0.015625)"/>
     <path id="Poppins-LightItalic-20" transform="scale(0.015625)"/>
     <path id="Poppins-LightItalic-50" d="M 3616 3187
Q 3514 2611 3072 2259
Q 2630 1907 1875 1907
L 973 1907
L 640 0
L 192 0
L 979 4474
L 2330 4474
Q 2989 4474 3315 4198
Q 3642 3923 3642 3456
Q 3642 3309 3616 3187
z
M 1946 2278
Q 2995 2278 3155 3187
Q 3181 3354 3181 3424
Q 3181 4115 2266 4115
L 1363 4115
L 1043 2278
L 1946 2278
z
" transform="scale(0.015625)"/>
     <path id="Poppins-LightItalic-79" d="M 890 3494
L 1549 531
L 3219 3494
L 3686 3494
L 710 -1645
L 237 -1645
L 1210 26
L 390 3494
L 890 3494
z
" transform="scale(0.015625)"/>
     <path id="Poppins-LightItalic-52" d="M 2330 4474
Q 2989 4474 3318 4192
Q 3648 3910 3648 3437
Q 3648 3354 3622 3174
Q 3539 2688 3200 2345
Q 2861 2003 2298 1901
L 3110 0
L 2573 0
L 1798 1869
L 966 1869
L 640 0
L 192 0
L 979 4474
L 2330 4474
z
M 3155 3174
Q 3174 3302 3174 3405
Q 3174 3744 2950 3929
Q 2726 4115 2259 4115
L 1363 4115
L 1030 2227
L 1933 2227
Q 2464 2227 2771 2483
Q 3078 2739 3155 3174
z
" transform="scale(0.015625)"/>
     <path id="Poppins-LightItalic-74" d="M 934 947
Q 915 832 915 749
Q 915 544 1027 464
Q 1139 384 1395 384
L 1805 384
L 1734 0
L 1254 0
Q 858 0 659 153
Q 461 307 461 659
Q 461 800 486 947
L 870 3117
L 384 3117
L 454 3494
L 941 3494
L 1094 4371
L 1542 4371
L 1389 3494
L 2355 3494
L 2285 3117
L 1318 3117
L 934 947
z
" transform="scale(0.015625)"/>
     <path id="Poppins-LightItalic-61" d="M 294 1754
Q 390 2291 678 2697
Q 966 3104 1385 3325
Q 1805 3546 2285 3546
Q 2784 3546 3104 3315
Q 3424 3085 3520 2726
L 3654 3494
L 4102 3494
L 3488 0
L 3040 0
L 3174 774
Q 2957 416 2550 182
Q 2144 -51 1645 -51
Q 1229 -51 915 121
Q 602 294 429 611
Q 256 928 256 1357
Q 256 1542 294 1754
z
M 3347 1747
Q 3379 1926 3379 2067
Q 3379 2566 3078 2860
Q 2778 3155 2298 3155
Q 1926 3155 1603 2988
Q 1280 2822 1056 2505
Q 832 2189 755 1754
Q 723 1562 723 1427
Q 723 922 1020 630
Q 1318 339 1798 339
Q 2157 339 2486 512
Q 2816 685 3043 1005
Q 3270 1325 3347 1747
z
" transform="scale(0.015625)"/>
     <path id="Poppins-LightItalic-69" d="M 1152 4154
Q 1030 4154 953 4227
Q 877 4301 877 4422
Q 877 4589 992 4701
Q 1107 4813 1267 4813
Q 1389 4813 1462 4742
Q 1536 4672 1536 4557
Q 1536 4390 1421 4272
Q 1306 4154 1152 4154
z
M 1254 3494
L 640 0
L 192 0
L 806 3494
L 1254 3494
z
" transform="scale(0.015625)"/>
     <path id="Poppins-LightItalic-6c" d="M 1478 4736
L 640 0
L 192 0
L 1030 4736
L 1478 4736
z
" transform="scale(0.015625)"/>
     <path id="Poppins-LightItalic-6e" d="M 2464 3558
Q 3002 3558 3325 3267
Q 3648 2976 3648 2419
Q 3648 2214 3616 2048
L 3251 0
L 2810 0
L 3162 1997
Q 3187 2144 3187 2310
Q 3187 2733 2956 2950
Q 2726 3168 2310 3168
Q 1805 3168 1446 2848
Q 1088 2528 979 1907
L 979 1926
L 640 0
L 192 0
L 806 3494
L 1254 3494
L 1146 2893
Q 1370 3213 1715 3385
Q 2061 3558 2464 3558
z
" transform="scale(0.015625)"/>
    </defs>
    <use xlink:href="#Poppins-LightItalic-53"/>
    <use xlink:href="#Poppins-LightItalic-6f" x="56.599991"/>
    <use xlink:href="#Poppins-LightItalic-75" x="120.799988"/>
    <use xlink:href="#Poppins-LightItalic-72" x="184.099976"/>
    <use xlink:href="#Poppins-LightItalic-63" x="220.299973"/>
    <use xlink:href="#Poppins-LightItalic-65" x="281.59996"/>
    <use xlink:href="#Poppins-LightItalic-3a" x="343.799957"/>
    <use xlink:href="#Poppins-LightItalic-20" x="362.299942"/>
    <use xlink:href="#Poppins-LightItalic-50" x="391.799927"/>
    <use xlink:href="#Poppins-LightItalic-79" x="448.199921"/>
    <use xlink:href="#Poppins-LightItalic-52" x="502.699905"/>
    <use xlink:href="#Poppins-LightItalic-65" x="561.399902"/>
    <use xlink:href="#Poppins-LightItalic-74" x="623.599899"/>
    <use xlink:href="#Poppins-LightItalic-61" x="659.19989"/>
    <use xlink:href="#Poppins-LightItalic-69" x="726.699875"/>
    <use xlink:href="#Poppins-LightItalic-6c" x="749.599869"/>
    <use xlink:href="#Poppins-LightItalic-53" x="772.499863"/>
    <use xlink:href="#Poppins-LightItalic-63" x="829.099854"/>
    <use xlink:href="#Poppins-LightItalic-69" x="890.399841"/>
    <use xlink:href="#Poppins-LightItalic-65" x="913.299835"/>
    <use xlink:href="#Poppins-LightItalic-6e" x="975.499832"/>
    <use xlink:href="#Poppins-LightItalic-63" x="1038.79982"/>
    <use xlink:href="#Poppins-LightItalic-65" x="1100.099808"/>
   </g>
  </g>
 </g>
 <defs>
  <clipPath id="p9ff2d4da1d">
   <rect x="82.6525" y="32.840625" width="357.12" height="266.112"/>
  </clipPath>
 </defs>
</svg>
