<svg xmlns:xlink="http://www.w3.org/1999/xlink" width="756.547" height="496.565" viewBox="0 0 567.411 372.424" xmlns="http://www.w3.org/2000/svg"><defs><style>*{stroke-linejoin:round;stroke-linecap:butt}</style></defs><g id="prefix__figure_1"><path d="M0 372.424h567.41V0H0z" fill="#fff" id="prefix__patch_1"/><g id="prefix__axes_1"><path d="M54.89 309.2h390.6V32H54.89z" fill="#fff" id="prefix__patch_2"/><g id="prefix__matplotlib_axis_1"><g id="prefix__xtick_1"><path d="M54.89 309.2V32" clip-path="url(#prefix__pa739800b38)" fill="none" stroke="#dad8d7" stroke-opacity=".5" stroke-width=".8" stroke-linecap="square" id="prefix__line2d_1"/><g id="prefix__line2d_2"><defs><path id="prefix__mf2fda3ec4b" d="M0 0v3.5" stroke="#000" stroke-width=".8"/></defs><use xlink:href="#prefix__mf2fda3ec4b" x="54.89" y="309.2" stroke="#000" stroke-width=".8"/></g><g id="prefix__text_1"><g transform="matrix(.1 0 0 -.1 45.66 323.6)"><defs><path id="prefix__Poppins-Regular-4a" d="M2739 4461V1165q0-551-339-881-339-329-896-329-563 0-903 336-339 336-339 919h583q6-327 169-532 164-204 490-204t486 195q160 195 160 496v3296h589z" transform="scale(.01563)"/><path id="prefix__Poppins-Regular-61" d="M275 1766q0 538 217 944 218 407 599 631t848 224q461 0 800-199 339-198 506-499v640h589V0h-589v653q-173-307-516-509-342-202-796-202-467 0-845 230-378 231-596 647-217 416-217 947zm2970-6q0 397-160 691-160 295-432 451-272 157-599 157-326 0-595-154-269-153-429-448-160-294-160-691 0-403 160-701 160-297 429-454t595-157q327 0 599 157t432 454q160 298 160 695z" transform="scale(.01563)"/><path id="prefix__Poppins-Regular-6e" d="M2202 3571q640 0 1036-387 397-387 397-1117V0h-576v1984q0 525-263 803-262 279-716 279-461 0-733-288t-272-839V0H493v3507h582v-499q173 269 470 416 298 147 657 147z" transform="scale(.01563)"/></defs><use xlink:href="#prefix__Poppins-Regular-4a"/><use xlink:href="#prefix__Poppins-Regular-61" x="53"/><use xlink:href="#prefix__Poppins-Regular-6e" x="120.6"/></g><g transform="matrix(.1 0 0 -.1 43.125 335.08)"><defs><path id="prefix__Poppins-Regular-32" d="M326 467q813 653 1274 1072t777 877q317 458 317 899 0 416-202 656-201 240-649 240-435 0-675-272t-259-726H346q25 717 434 1107 410 390 1057 390 659 0 1046-365 387-364 387-1004 0-531-317-1034-316-502-720-883-403-381-1030-886h2202V51H326v416z" transform="scale(.01563)"/><path id="prefix__Poppins-Regular-30" d="M397 2362q0 1100 358 1718 359 618 1255 618 889 0 1247-618 359-618 359-1718 0-1120-359-1741Q2899 0 2010 0 1114 0 755 621q-358 621-358 1741zm2643 0q0 556-74 943-73 388-301 624-227 237-655 237-436 0-663-237-227-236-301-624-73-387-73-943 0-576 73-967 74-390 301-627t663-237q428 0 655 237 228 237 301 627 74 391 74 967z" transform="scale(.01563)"/></defs><use xlink:href="#prefix__Poppins-Regular-32"/><use xlink:href="#prefix__Poppins-Regular-30" x="57.5"/><use xlink:href="#prefix__Poppins-Regular-32" x="120.3"/><use xlink:href="#prefix__Poppins-Regular-32" x="177.8"/></g></g></g><g id="prefix__xtick_2"><g id="prefix__line2d_3"><defs><path id="prefix__ma69acf2754" d="M0 0v2" stroke="#000" stroke-width=".6"/></defs><use xlink:href="#prefix__ma69acf2754" x="119.99" y="309.2" stroke="#000" stroke-width=".6"/></g><g transform="matrix(.1 0 0 -.1 111.138 322.198)" id="prefix__text_2"><defs><path id="prefix__DejaVuSans-46" d="M628 4666h2681v-532H1259V2759h1850v-531H1259V0H628v4666z" transform="scale(.01563)"/><path id="prefix__DejaVuSans-65" d="M3597 1894v-281H953q38-594 358-905t892-311q331 0 642 81t618 244V178Q3153 47 2828-22t-659-69q-838 0-1327 487-489 488-489 1320 0 859 464 1363 464 505 1252 505 706 0 1117-455 411-454 411-1235zm-575 169q-6 471-264 752-258 282-683 282-481 0-770-272t-333-766l2050 4z" transform="scale(.01563)"/><path id="prefix__DejaVuSans-62" d="M3116 1747q0 634-261 995t-717 361q-457 0-718-361t-261-995q0-634 261-995t718-361q456 0 717 361t261 995zM1159 2969q182 312 458 463 277 152 661 152 638 0 1036-506 399-506 399-1331T3314 415Q2916-91 2278-91q-384 0-661 152-276 152-458 464V0H581v4863h578V2969z" transform="scale(.01563)"/></defs><use xlink:href="#prefix__DejaVuSans-46"/><use xlink:href="#prefix__DejaVuSans-65" x="52.02"/><use xlink:href="#prefix__DejaVuSans-62" x="113.543"/></g></g><g id="prefix__xtick_3"><use xlink:href="#prefix__ma69acf2754" x="185.09" y="309.2" stroke="#000" stroke-width=".6" id="prefix__line2d_4"/><g transform="matrix(.1 0 0 -.1 175.656 322.198)" id="prefix__text_3"><defs><path id="prefix__DejaVuSans-4d" d="M628 4666h941l1190-3175 1197 3175h941V0h-616v4097L3078 897h-634L1241 4097V0H628v4666z" transform="scale(.01563)"/><path id="prefix__DejaVuSans-61" d="M2194 1759q-697 0-966-159t-269-544q0-306 202-486 202-179 548-179 479 0 768 339t289 901v128h-572zm1147 238V0h-575v531q-197-318-491-470T1556-91q-537 0-855 302-317 302-317 808 0 590 395 890 396 300 1180 300h807v57q0 397-261 614t-733 217q-300 0-585-72-284-72-546-216v532q315 122 612 182 297 61 578 61 760 0 1135-394 375-393 375-1193z" transform="scale(.01563)"/><path id="prefix__DejaVuSans-72" d="M2631 2963q-97 56-211 82-114 27-251 27-488 0-749-317t-261-911V0H581v3500h578v-544q182 319 472 473 291 155 707 155 59 0 131-8 72-7 159-23l3-590z" transform="scale(.01563)"/></defs><use xlink:href="#prefix__DejaVuSans-4d"/><use xlink:href="#prefix__DejaVuSans-61" x="86.279"/><use xlink:href="#prefix__DejaVuSans-72" x="147.559"/></g></g><g id="prefix__xtick_4"><use xlink:href="#prefix__ma69acf2754" x="250.19" y="309.2" stroke="#000" stroke-width=".6" id="prefix__line2d_5"/><g transform="matrix(.1 0 0 -.1 241.54 322.198)" id="prefix__text_4"><defs><path id="prefix__DejaVuSans-41" d="M2188 4044l-857-2322h1716l-859 2322zm-357 622h716L4325 0h-656l-425 1197H1141L716 0H50l1781 4666z" transform="scale(.01563)"/><path id="prefix__DejaVuSans-70" d="M1159 525v-1856H581v4831h578v-531q182 312 458 463 277 152 661 152 638 0 1036-506 399-506 399-1331T3314 415Q2916-91 2278-91q-384 0-661 152-276 152-458 464zm1957 1222q0 634-261 995t-717 361q-457 0-718-361t-261-995q0-634 261-995t718-361q456 0 717 361t261 995z" transform="scale(.01563)"/></defs><use xlink:href="#prefix__DejaVuSans-41"/><use xlink:href="#prefix__DejaVuSans-70" x="68.408"/><use xlink:href="#prefix__DejaVuSans-72" x="131.885"/></g></g><g id="prefix__xtick_5"><use xlink:href="#prefix__ma69acf2754" x="315.29" y="309.2" stroke="#000" stroke-width=".6" id="prefix__line2d_6"/><g transform="matrix(.1 0 0 -.1 304.952 322.198)" id="prefix__text_5"><defs><path id="prefix__DejaVuSans-79" d="M2059-325q-243-625-475-815-231-191-618-191H506v481h338q237 0 368 113 132 112 291 531l103 262L191 3500h609L1894 763l1094 2737h609L2059-325z" transform="scale(.01563)"/></defs><use xlink:href="#prefix__DejaVuSans-4d"/><use xlink:href="#prefix__DejaVuSans-61" x="86.279"/><use xlink:href="#prefix__DejaVuSans-79" x="147.559"/></g></g><g id="prefix__xtick_6"><use xlink:href="#prefix__ma69acf2754" x="380.39" y="309.2" stroke="#000" stroke-width=".6" id="prefix__line2d_7"/><g transform="matrix(.1 0 0 -.1 372.577 322.198)" id="prefix__text_6"><defs><path id="prefix__DejaVuSans-4a" d="M628 4666h631V325q0-844-320-1225T-91-1281h-240v531h197q418 0 590 235 172 234 172 840v4341z" transform="scale(.01563)"/><path id="prefix__DejaVuSans-75" d="M544 1381v2119h575V1403q0-497 193-746 194-248 582-248 465 0 735 297 271 297 271 810v1984h575V0h-575v538q-209-319-486-474-276-155-642-155-603 0-916 375-312 375-312 1097zm1447 2203z" transform="scale(.01563)"/><path id="prefix__DejaVuSans-6e" d="M3513 2113V0h-575v2094q0 497-194 743-194 247-581 247-466 0-735-297-269-296-269-809V0H581v3500h578v-544q207 316 486 472 280 156 646 156 603 0 912-373 310-373 310-1098z" transform="scale(.01563)"/></defs><use xlink:href="#prefix__DejaVuSans-4a"/><use xlink:href="#prefix__DejaVuSans-75" x="29.492"/><use xlink:href="#prefix__DejaVuSans-6e" x="92.871"/></g></g><g id="prefix__xtick_7"><use xlink:href="#prefix__ma69acf2754" x="445.49" y="309.2" stroke="#000" stroke-width=".6" id="prefix__line2d_8"/><g transform="matrix(.1 0 0 -.1 439.457 322.198)" id="prefix__text_7"><defs><path id="prefix__DejaVuSans-6c" d="M603 4863h575V0H603v4863z" transform="scale(.01563)"/></defs><use xlink:href="#prefix__DejaVuSans-4a"/><use xlink:href="#prefix__DejaVuSans-75" x="29.492"/><use xlink:href="#prefix__DejaVuSans-6c" x="92.871"/></g></g></g><g id="prefix__matplotlib_axis_2"><g id="prefix__ytick_1"><path d="M54.89 287.387h390.6" clip-path="url(#prefix__pa739800b38)" fill="none" stroke="#dad8d7" stroke-opacity=".5" stroke-width=".8" stroke-linecap="square" id="prefix__line2d_9"/><g id="prefix__line2d_10"><defs><path id="prefix__m9c4cc330c9" d="M0 0h-3.5" stroke="#000" stroke-width=".8"/></defs><use xlink:href="#prefix__m9c4cc330c9" x="54.89" y="287.387" stroke="#000" stroke-width=".8"/></g><g transform="matrix(.1 0 0 -.1 32.42 291.087)" id="prefix__text_8"><defs><path id="prefix__Poppins-Regular-31" d="M243 4096v531h1203V0H858v4096H243z" transform="scale(.01563)"/><path id="prefix__Poppins-Regular-4b" d="M2912 0L1075 2035V0H493v4461h582V2394l1843 2067h736L1632 2227 3674 0h-762z" transform="scale(.01563)"/></defs><use xlink:href="#prefix__Poppins-Regular-31"/><use xlink:href="#prefix__Poppins-Regular-30" x="32"/><use xlink:href="#prefix__Poppins-Regular-4b" x="94.8"/></g></g><g id="prefix__ytick_2"><path d="M54.89 227.251h390.6" clip-path="url(#prefix__pa739800b38)" fill="none" stroke="#dad8d7" stroke-opacity=".5" stroke-width=".8" stroke-linecap="square" id="prefix__line2d_11"/><use xlink:href="#prefix__m9c4cc330c9" x="54.89" y="227.251" stroke="#000" stroke-width=".8" id="prefix__line2d_12"/><g transform="matrix(.1 0 0 -.1 29.87 230.951)" id="prefix__text_9"><use xlink:href="#prefix__Poppins-Regular-32"/><use xlink:href="#prefix__Poppins-Regular-30" x="57.5"/><use xlink:href="#prefix__Poppins-Regular-4b" x="120.3"/></g></g><g id="prefix__ytick_3"><path d="M54.89 167.115h390.6" clip-path="url(#prefix__pa739800b38)" fill="none" stroke="#dad8d7" stroke-opacity=".5" stroke-width=".8" stroke-linecap="square" id="prefix__line2d_13"/><use xlink:href="#prefix__m9c4cc330c9" x="54.89" y="167.115" stroke="#000" stroke-width=".8" id="prefix__line2d_14"/><g transform="matrix(.1 0 0 -.1 29.73 170.815)" id="prefix__text_10"><defs><path id="prefix__Poppins-Regular-33" d="M384 3462q45 589 454 922 410 333 1063 333 435 0 752-157t480-426q163-268 163-608 0-396-227-684t-592-372v-32q416-102 659-403t243-787q0-365-167-656-166-291-499-458-332-166-799-166-679 0-1114 355T314 1331h563q45-384 313-627 269-243 717-243t681 233q234 234 234 605 0 480-320 691-320 212-966 212h-147v486h153q589 6 890 195t301 586q0 339-221 544t-630 205q-397 0-641-205-243-205-287-551H384z" transform="scale(.01563)"/></defs><use xlink:href="#prefix__Poppins-Regular-33"/><use xlink:href="#prefix__Poppins-Regular-30" x="58.9"/><use xlink:href="#prefix__Poppins-Regular-4b" x="121.7"/></g></g><g id="prefix__ytick_4"><path d="M54.89 106.98h390.6" clip-path="url(#prefix__pa739800b38)" fill="none" stroke="#dad8d7" stroke-opacity=".5" stroke-width=".8" stroke-linecap="square" id="prefix__line2d_15"/><use xlink:href="#prefix__m9c4cc330c9" x="54.89" y="106.979" stroke="#000" stroke-width=".8" id="prefix__line2d_16"/><g transform="matrix(.1 0 0 -.1 29.33 110.68)" id="prefix__text_11"><defs><path id="prefix__Poppins-Regular-34" d="M256 1030v442l2246 3110h698V1536h640v-506h-640V0h-576v1030H256zm2394 2944L928 1536h1722v2438z" transform="scale(.01563)"/></defs><use xlink:href="#prefix__Poppins-Regular-34"/><use xlink:href="#prefix__Poppins-Regular-30" x="62.9"/><use xlink:href="#prefix__Poppins-Regular-4b" x="125.7"/></g></g><g id="prefix__ytick_5"><path d="M54.89 46.843h390.6" clip-path="url(#prefix__pa739800b38)" fill="none" stroke="#dad8d7" stroke-opacity=".5" stroke-width=".8" stroke-linecap="square" id="prefix__line2d_17"/><use xlink:href="#prefix__m9c4cc330c9" x="54.89" y="46.843" stroke="#000" stroke-width=".8" id="prefix__line2d_18"/><g transform="matrix(.1 0 0 -.1 29.34 50.543)" id="prefix__text_12"><defs><path id="prefix__Poppins-Regular-35" d="M3347 4122H1101V2662q147 205 435 336 288 132 621 132 531 0 864-221t477-570q144-349 144-739 0-461-173-826-173-364-528-576-355-211-880-211-672 0-1088 345-416 346-506 922h570q83-364 352-569t678-205q506 0 762 304t256 803q0 499-256 771t-755 272q-340 0-593-163-252-163-367-445H563v2612h2784v-512z" transform="scale(.01563)"/></defs><use xlink:href="#prefix__Poppins-Regular-35"/><use xlink:href="#prefix__Poppins-Regular-30" x="62.8"/><use xlink:href="#prefix__Poppins-Regular-4b" x="125.6"/></g></g><g transform="matrix(0 -.12 -.12 0 16.21 186.506)" id="prefix__text_13"><defs><path id="prefix__Poppins-Regular-53" d="M1907-45q-441 0-790 157T569 547q-198 279-204 643h621q32-313 259-528 227-214 662-214 416 0 656 208t240 534q0 256-141 416-140 160-352 243-211 84-569 180-442 115-708 230-265 115-454 361-189 247-189 663 0 365 186 646 186 282 522 435 336 154 771 154 627 0 1027-314 400-313 451-831h-640q-32 256-269 451-236 195-627 195-365 0-595-189-230-188-230-528 0-243 137-397 138-153 339-233 202-80 567-182 441-122 710-241 269-118 461-365 192-246 192-668 0-326-173-614t-512-468Q2368-45 1907-45z" transform="scale(.01563)"/><path id="prefix__Poppins-Regular-6c" d="M1075 4736V0H493v4736h582z" transform="scale(.01563)"/><path id="prefix__Poppins-Regular-65" d="M3693 1888q0-166-19-352H870q32-518 355-810 324-291 785-291 377 0 630 176t355 471h627q-140-506-563-823Q2637-58 2010-58q-500 0-894 224-393 224-617 637t-224 957q0 544 217 953 218 410 612 631t906 221q499 0 883-218 384-217 592-598t208-861zm-602 122q0 332-147 572t-400 365q-253 125-560 125-442 0-752-282-310-281-355-780h2214z" transform="scale(.01563)"/><path id="prefix__Poppins-Regular-73" d="M1734-58q-403 0-723 138T505 464q-185 246-204 566h601q26-262 247-429 221-166 579-166 333 0 525 147 192 148 192 372 0 230-205 342t-634 221q-390 102-637 207-246 106-422 314t-176 548q0 268 160 492t454 355q295 132 673 132 582 0 940-295 359-294 384-806h-582q-19 275-221 441-201 167-541 167-313 0-499-135-185-134-185-351 0-173 112-285t281-180q170-67 471-150 377-102 614-202 237-99 406-297 170-198 176-518 0-288-160-519-160-230-451-362-291-131-669-131z" transform="scale(.01563)"/></defs><use xlink:href="#prefix__Poppins-Regular-53"/><use xlink:href="#prefix__Poppins-Regular-61" x="58.7"/><use xlink:href="#prefix__Poppins-Regular-6c" x="126.3"/><use xlink:href="#prefix__Poppins-Regular-65" x="150.9"/><use xlink:href="#prefix__Poppins-Regular-73" x="212.9"/></g></g><path d="M54.89 246.326l65.1 16.965 65.1-14.908 65.1 8.389 65.1-3.825 65.1 3.284 65.1 40.369" clip-path="url(#prefix__pa739800b38)" fill="none" stroke="#a0f3be" stroke-width="3" stroke-linecap="square" id="prefix__line2d_19"/><path d="M54.89 157.373l65.1 45.595 65.1-37.308 65.1 2.838 65.1-12.532 65.1 16.152 65.1 72.645" clip-path="url(#prefix__pa739800b38)" fill="none" stroke="#22c45e" stroke-width="3" stroke-linecap="square" id="prefix__line2d_20"/><path d="M54.89 75.504l65.1 9.453 65.1-18.546 65.1-21.811 65.1 65.416 65.1-32.582 65.1 63.323" clip-path="url(#prefix__pa739800b38)" fill="none" stroke="#167238" stroke-width="3" stroke-linecap="square" id="prefix__line2d_21"/><path d="M54.89 309.2V32" fill="none" stroke="#000" stroke-width=".8" stroke-linecap="square" id="prefix__patch_3"/><path d="M54.89 309.2h390.6" fill="none" stroke="#000" stroke-width=".8" stroke-linecap="square" id="prefix__patch_4"/><g transform="matrix(.2 0 0 -.2 77.095 22)" id="prefix__text_14"><defs><path id="prefix__Poppins-SemiBold-4d" d="M5312 4467V0h-896v2906L3219 0h-678L1338 2906V0H442v4467h1017l1421-3321 1421 3321h1011z" transform="scale(.01563)"/><path id="prefix__Poppins-SemiBold-6f" d="M2016-58q-512 0-922 227-409 228-643 644-233 416-233 960t240 960q240 416 656 643t928 227q512 0 928-227t656-643q240-416 240-960t-247-960q-246-416-666-644-419-227-937-227zm0 781q243 0 457 118 215 119 343 356t128 576q0 505-266 777-265 272-649 272t-644-272q-259-272-259-777 0-506 253-778t637-272z" transform="scale(.01563)"/><path id="prefix__Poppins-SemiBold-6e" d="M2406 3597q634 0 1024-400 391-400 391-1117V0h-896v1958q0 423-212 650-211 227-575 227-372 0-586-227t-214-650V0H442v3546h896v-442q179 230 457 361 279 132 611 132z" transform="scale(.01563)"/><path id="prefix__Poppins-SemiBold-74" d="M1485 2810V1094q0-179 86-259 87-80 291-80h416V0h-563Q582 0 582 1101v1709H160v736h422v876h903v-876h793v-736h-793z" transform="scale(.01563)"/><path id="prefix__Poppins-SemiBold-68" d="M2438 3597q404 0 717-176 314-176 490-519 176-342 176-822V0h-896v1958q0 423-212 650-211 227-575 227-372 0-586-227t-214-650V0H442v4736h896V3104q172 230 460 361 288 132 640 132z" transform="scale(.01563)"/><path id="prefix__Poppins-SemiBold-6c" d="M1338 4736V0H442v4736h896z" transform="scale(.01563)"/><path id="prefix__Poppins-SemiBold-79" d="M3834 3546L1638-1677H685L1453 90 32 3546h1005l915-2477 928 2477h954z" transform="scale(.01563)"/><path id="prefix__Poppins-SemiBold-53" d="M1984-45q-467 0-842 160-374 160-592 461-217 301-224 710h960q20-275 196-435t483-160q313 0 492 150 180 151 180 394 0 199-122 327-121 128-304 201-182 74-502 163-435 128-707 253t-468 378q-195 253-195 675 0 397 198 691 199 295 557 451 359 157 820 157 691 0 1123-336t477-937h-986q-13 230-196 380-182 151-482 151-263 0-420-135-156-134-156-390 0-179 118-298 118-118 294-192 176-73 496-169 436-128 711-256t473-384q199-256 199-672 0-359-186-666-185-307-544-490-358-182-851-182z" transform="scale(.01563)"/><path id="prefix__Poppins-SemiBold-61" d="M211 1786q0 537 214 953 215 416 583 640t822 224q397 0 694-160 298-160 478-403v506h902V0h-902v518q-173-249-477-413-304-163-701-163-448 0-816 230-368 231-583 650-214 420-214 964zm2791-13q0 326-128 559-128 234-346 359t-467 125q-250 0-461-122-211-121-343-355-131-233-131-553t131-560q132-240 346-368 215-128 458-128 249 0 467 124 218 125 346 358 128 234 128 561z" transform="scale(.01563)"/><path id="prefix__Poppins-SemiBold-65" d="M3738 1850q0-192-26-346H1120q32-384 269-602 237-217 582-217 499 0 711 429h966q-154-512-589-842T1990-58q-512 0-918 227-406 228-634 644-227 416-227 960 0 550 224 966t627 640q404 224 928 224 506 0 906-218 400-217 621-617t221-918zm-928 256q-7 345-250 553t-595 208q-333 0-560-202-227-201-279-559h1684z" transform="scale(.01563)"/><path id="prefix__Poppins-SemiBold-73" d="M1798-58q-435 0-781 157-345 157-547 426-201 269-220 595h902q26-205 202-340 176-134 438-134 256 0 400 102 144 103 144 263 0 173-176 259-176 87-560 189-397 96-650 198-252 103-435 314-182 211-182 570 0 294 169 537 170 244 487 384 317 141 745 141 634 0 1011-317 378-316 417-854h-858q-19 211-176 336t-419 125q-243 0-375-90-131-89-131-249 0-180 179-273 180-92 557-188 384-96 633-199 250-102 432-317 183-214 190-566 0-307-170-550T2537 80Q2221-58 1798-58z" transform="scale(.01563)"/><path id="prefix__Poppins-SemiBold-62" d="M1338 3027q172 256 476 416t695 160q454 0 822-224t582-637q215-412 215-956t-215-964q-214-419-582-650-368-230-822-230-397 0-695 157-297 157-476 407V0H442v4736h896V3027zm1875-1241q0 320-132 553-131 234-345 355-214 122-464 122-243 0-458-125-214-125-345-362-131-236-131-556t131-557q131-237 345-362 215-124 458-124 250 0 464 128t345 364q132 237 132 564z" transform="scale(.01563)"/><path id="prefix__Poppins-SemiBold-43" d="M224 2240q0 659 297 1180 298 522 813 813 516 292 1156 292 748 0 1311-384 564-384 788-1063H3558q-153 320-432 480-278 160-643 160-390 0-694-182t-474-515q-169-333-169-781 0-442 169-778 170-336 474-518t694-182q365 0 643 163 279 163 432 483h1031q-224-685-784-1066Q3245-38 2490-38q-640 0-1156 291-515 291-813 809-297 519-297 1178z" transform="scale(.01563)"/><path id="prefix__Poppins-SemiBold-75" d="M3789 3546V0h-903v448q-172-230-451-362-278-131-605-131-416 0-736 176T592 649q-182 343-182 817v2080h896V1594q0-423 211-650t576-227q371 0 582 227t211 650v1952h903z" transform="scale(.01563)"/><path id="prefix__Poppins-SemiBold-6d" d="M4845 3597q653 0 1053-400t400-1117V0h-896v1958q0 416-212 637-211 221-576 221-364 0-579-221-214-221-214-637V0h-896v1958q0 416-212 637-211 221-575 221-372 0-586-221t-214-637V0H442v3546h896v-429q172 224 444 352t599 128q416 0 742-176 327-176 506-503 173 308 502 493 330 186 714 186z" transform="scale(.01563)"/><path id="prefix__Poppins-SemiBold-72" d="M1338 2995q172 282 450 442 279 160 638 160v-941h-237q-423 0-637-199-214-198-214-691V0H442v3546h896v-551z" transform="scale(.01563)"/><path id="prefix__Poppins-SemiBold-47" d="M3552 3123q-154 282-423 429-268 147-627 147-396 0-704-179-307-179-480-512-172-333-172-768 0-448 176-781t489-512q314-179 730-179 512 0 838 272 327 272 429 758H2272v685h2419v-781q-89-467-384-864-294-396-758-636T2509-38q-647 0-1169 291-521 291-819 809-297 519-297 1178t297 1180q298 522 819 813 522 292 1162 292 756 0 1312-368 557-368 768-1034H3552z" transform="scale(.01563)"/><path id="prefix__Poppins-SemiBold-70" d="M1338 3034q172 243 476 406t695 163q454 0 822-224t582-637q215-412 215-956t-215-964q-214-419-582-650-368-230-822-230-391 0-689 160-297 160-482 404v-2196H442v5236h896v-512zm1875-1248q0 320-132 553-131 234-345 355-214 122-464 122-243 0-458-125-214-125-345-362-131-236-131-556t131-557q131-237 345-362 215-124 458-124 250 0 464 128t345 364q132 237 132 564z" transform="scale(.01563)"/></defs><use xlink:href="#prefix__Poppins-SemiBold-4d"/><use xlink:href="#prefix__Poppins-SemiBold-6f" x="89.9"/><use xlink:href="#prefix__Poppins-SemiBold-6e" x="153.7"/><use xlink:href="#prefix__Poppins-SemiBold-74" x="219.8"/><use xlink:href="#prefix__Poppins-SemiBold-68" x="258.6"/><use xlink:href="#prefix__Poppins-SemiBold-6c" x="324.7"/><use xlink:href="#prefix__Poppins-SemiBold-79" x="352.5"/><use xlink:href="#prefix__Poppins-SemiBold-20" x="413"/><use xlink:href="#prefix__Poppins-SemiBold-53" x="436.8"/><use xlink:href="#prefix__Poppins-SemiBold-61" x="497.7"/><use xlink:href="#prefix__Poppins-SemiBold-6c" x="565.5"/><use xlink:href="#prefix__Poppins-SemiBold-65" x="593.3"/><use xlink:href="#prefix__Poppins-SemiBold-73" x="655"/><use xlink:href="#prefix__Poppins-SemiBold-20" x="709.5"/><use xlink:href="#prefix__Poppins-SemiBold-62" x="733.3"/><use xlink:href="#prefix__Poppins-SemiBold-79" x="801.1"/><use xlink:href="#prefix__Poppins-SemiBold-20" x="861.6"/><use xlink:href="#prefix__Poppins-SemiBold-43" x="885.4"/><use xlink:href="#prefix__Poppins-SemiBold-75" x="962.2"/><use xlink:href="#prefix__Poppins-SemiBold-73" x="1028.3"/><use xlink:href="#prefix__Poppins-SemiBold-74" x="1082.8"/><use xlink:href="#prefix__Poppins-SemiBold-6f" x="1121.6"/><use xlink:href="#prefix__Poppins-SemiBold-6d" x="1185.4"/><use xlink:href="#prefix__Poppins-SemiBold-65" x="1290.2"/><use xlink:href="#prefix__Poppins-SemiBold-72" x="1351.9"/><use xlink:href="#prefix__Poppins-SemiBold-20" x="1392.3"/><use xlink:href="#prefix__Poppins-SemiBold-47" x="1416.1"/><use xlink:href="#prefix__Poppins-SemiBold-72" x="1492.9"/><use xlink:href="#prefix__Poppins-SemiBold-6f" x="1533.3"/><use xlink:href="#prefix__Poppins-SemiBold-75" x="1597.1"/><use xlink:href="#prefix__Poppins-SemiBold-70" x="1663.2"/></g><g id="prefix__legend_1"><path d="M472.02 98.713h86.19q2 0 2-2V39q0-2-2-2h-86.19q-2 0-2 2v57.713q0 2 2 2z" fill="#fff" opacity=".8" stroke="#fff" id="prefix__patch_5"/><g transform="matrix(.1 0 0 -.1 474.02 48.598)" id="prefix__text_15"><defs><path id="prefix__DejaVuSans-43" d="M4122 4306v-665q-319 297-680 443-361 147-767 147-800 0-1225-489t-425-1414q0-922 425-1411t1225-489q406 0 767 147t680 444V359q-331-225-702-338-370-112-782-112-1060 0-1670 648-609 649-609 1771 0 1125 609 1773 610 649 1670 649 418 0 788-111 371-111 696-333z" transform="scale(.01563)"/><path id="prefix__DejaVuSans-73" d="M2834 3397v-544q-243 125-506 187-262 63-544 63-428 0-642-131t-214-394q0-200 153-314t616-217l197-44q612-131 870-370t258-667q0-488-386-773Q2250-91 1575-91q-281 0-586 55T347 128v594q319-166 628-249 309-82 613-82 406 0 624 139 219 139 219 392 0 234-158 359-157 125-692 241l-200 47q-534 112-772 345-237 233-237 639 0 494 350 762 350 269 994 269 318 0 599-47 282-46 519-140z" transform="scale(.01563)"/><path id="prefix__DejaVuSans-74" d="M1172 4494v-994h1184v-447H1172V1153q0-428 117-550t477-122h590V0h-590q-666 0-919 248-253 249-253 905v1900H172v447h422v994h578z" transform="scale(.01563)"/><path id="prefix__DejaVuSans-6f" d="M1959 3097q-462 0-731-361t-269-989q0-628 267-989 268-361 733-361 460 0 728 362 269 363 269 988 0 622-269 986-268 364-728 364zm0 487q750 0 1178-488 429-487 429-1349 0-859-429-1349Q2709-91 1959-91q-753 0-1180 489-426 490-426 1349 0 862 426 1349 427 488 1180 488z" transform="scale(.01563)"/><path id="prefix__DejaVuSans-6d" d="M3328 2828q216 388 516 572t706 184q547 0 844-383 297-382 297-1088V0h-578v2094q0 503-179 746-178 244-543 244-447 0-707-297-259-296-259-809V0h-578v2094q0 506-178 748t-550 242q-441 0-701-298-259-298-259-808V0H581v3500h578v-544q197 322 472 475t653 153q382 0 649-194 267-193 395-562z" transform="scale(.01563)"/><path id="prefix__DejaVuSans-47" d="M3809 666v1253H2778v519h1656V434q-365-259-806-392-440-133-940-133-1094 0-1712 639-617 640-617 1780 0 1144 617 1783 618 639 1712 639 456 0 867-113 411-112 758-331v-672q-350 297-744 447t-828 150q-857 0-1287-478-429-478-429-1425 0-944 429-1422 430-478 1287-478 334 0 596 58 263 58 472 180z" transform="scale(.01563)"/></defs><use xlink:href="#prefix__DejaVuSans-43"/><use xlink:href="#prefix__DejaVuSans-75" x="69.824"/><use xlink:href="#prefix__DejaVuSans-73" x="133.203"/><use xlink:href="#prefix__DejaVuSans-74" x="185.303"/><use xlink:href="#prefix__DejaVuSans-6f" x="224.512"/><use xlink:href="#prefix__DejaVuSans-6d" x="285.693"/><use xlink:href="#prefix__DejaVuSans-65" x="383.105"/><use xlink:href="#prefix__DejaVuSans-72" x="444.629"/><use xlink:href="#prefix__DejaVuSans-20" x="485.742"/><use xlink:href="#prefix__DejaVuSans-47" x="517.529"/><use xlink:href="#prefix__DejaVuSans-72" x="595.02"/><use xlink:href="#prefix__DejaVuSans-6f" x="633.883"/><use xlink:href="#prefix__DejaVuSans-75" x="695.064"/><use xlink:href="#prefix__DejaVuSans-70" x="758.443"/></g><path d="M480.815 59.777h20" fill="none" stroke="#a0f3be" stroke-width="3" stroke-linecap="square" id="prefix__line2d_22"/><g transform="matrix(.1 0 0 -.1 508.815 63.277)" id="prefix__text_16"><use xlink:href="#prefix__DejaVuSans-47"/><use xlink:href="#prefix__DejaVuSans-72" x="77.49"/><use xlink:href="#prefix__DejaVuSans-6f" x="116.354"/><use xlink:href="#prefix__DejaVuSans-75" x="177.535"/><use xlink:href="#prefix__DejaVuSans-70" x="240.914"/><use xlink:href="#prefix__DejaVuSans-20" x="304.391"/><use xlink:href="#prefix__DejaVuSans-41" x="336.178"/></g><path d="M480.815 74.455h20" fill="none" stroke="#22c45e" stroke-width="3" stroke-linecap="square" id="prefix__line2d_23"/><g transform="matrix(.1 0 0 -.1 508.815 77.955)" id="prefix__text_17"><defs><path id="prefix__DejaVuSans-42" d="M1259 2228V519h1013q509 0 754 211 246 211 246 645 0 438-246 645-245 208-754 208H1259zm0 1919V2741h935q462 0 688 173 227 174 227 530 0 353-227 528-226 175-688 175h-935zm-631 519h1613q722 0 1112-300 391-300 391-853 0-429-200-682t-588-315q466-100 724-418 258-317 258-792 0-625-425-966Q3088 0 2303 0H628v4666z" transform="scale(.01563)"/></defs><use xlink:href="#prefix__DejaVuSans-47"/><use xlink:href="#prefix__DejaVuSans-72" x="77.49"/><use xlink:href="#prefix__DejaVuSans-6f" x="116.354"/><use xlink:href="#prefix__DejaVuSans-75" x="177.535"/><use xlink:href="#prefix__DejaVuSans-70" x="240.914"/><use xlink:href="#prefix__DejaVuSans-20" x="304.391"/><use xlink:href="#prefix__DejaVuSans-42" x="336.178"/></g><path d="M480.815 89.133h20" fill="none" stroke="#167238" stroke-width="3" stroke-linecap="square" id="prefix__line2d_24"/><g transform="matrix(.1 0 0 -.1 508.815 92.633)" id="prefix__text_18"><use xlink:href="#prefix__DejaVuSans-47"/><use xlink:href="#prefix__DejaVuSans-72" x="77.49"/><use xlink:href="#prefix__DejaVuSans-6f" x="116.354"/><use xlink:href="#prefix__DejaVuSans-75" x="177.535"/><use xlink:href="#prefix__DejaVuSans-70" x="240.914"/><use xlink:href="#prefix__DejaVuSans-20" x="304.391"/><use xlink:href="#prefix__DejaVuSans-43" x="336.178"/></g></g></g><g transform="matrix(.1 0 0 -.1 7.2 362.644)" fill="#696969" id="prefix__text_19"><defs><path id="prefix__Poppins-LightItalic-53" d="M1619-45q-403 0-707 134-304 135-471 378-166 243-166 557 0 83 7 128h441q-13-205 73-394 87-188 301-313 215-125 554-125 474 0 755 237 282 237 282 640 0 243-131 406t-323 269q-192 106-525 240-391 154-621 285t-381 361q-150 231-125 589 13 346 208 611 196 266 532 416 336 151 764 151 423 0 727-144t454-394q151-249 131-550h-467q13 173-80 339t-295 272q-201 106-495 106-455 0-743-221t-288-599q0-224 128-378 128-153 314-256 186-102 512-236 378-154 611-288 234-134 397-358t163-564q0-83-6-128-26-326-218-595t-528-423Q2067-45 1619-45z" transform="scale(.01563)"/><path id="prefix__Poppins-LightItalic-6f" d="M1728-51q-435 0-768 176T444 624q-182 323-182 758 0 589 269 1085t749 787q480 292 1069 292 435 0 768-176t518-500q186-323 186-758 0-595-276-1088-275-493-752-784Q2317-51 1728-51zm51 377q455 0 816 243 362 244 563 647 202 403 202 870 0 525-304 800-304 276-771 276-455 0-810-244-355-243-554-646-198-403-198-870 0-519 301-798 301-278 755-278z" transform="scale(.01563)"/><path id="prefix__Poppins-LightItalic-75" d="M3834 3494L3219 0h-448l109 614q-218-326-564-499-345-173-742-173-537 0-864 291-326 292-326 849 0 204 32 371l358 2041h442L864 1504q-26-147-26-307 0-423 234-644 234-220 650-220 486 0 838 297 352 298 474 874l352 1990h448z" transform="scale(.01563)"/><path id="prefix__Poppins-LightItalic-72" d="M1133 2797q211 365 550 563t787 198l-83-467h-128q-461 0-794-237-332-236-460-780L640 0H192l614 3494h448l-121-697z" transform="scale(.01563)"/><path id="prefix__Poppins-LightItalic-63" d="M294 1747q96 544 387 950 292 407 714 628 423 221 915 221 647 0 1008-320 362-320 388-871h-480q-20 378-279 592-259 215-701 215-544 0-957-368-412-368-534-1047-32-160-32-365 0-512 278-784 279-272 740-272 448 0 780 214 333 215 493 599h480q-217-537-697-864Q2317-51 1677-51q-647 0-1034 371T256 1338q0 198 38 409z" transform="scale(.01563)"/><path id="prefix__Poppins-LightItalic-65" d="M2330 3546q441 0 754-170 314-170 477-464 164-294 164-672 0-173-26-307-38-192-77-346H723q-19-121-19-230 0-493 297-762 298-269 759-269 442 0 774 211 333 212 487 570h480q-218-512-695-835Q2330-51 1696-51q-653 0-1047 374-393 375-393 1021 0 192 38 403 96 544 387 953 292 410 720 628 429 218 929 218zm908-1626q32 179 32 301 0 454-288 697-288 244-736 244-326 0-627-141t-525-423q-224-281-307-678h2451z" transform="scale(.01563)"/><path id="prefix__Poppins-LightItalic-3a" d="M262-32Q141-32 64 45t-77 198q0 154 118 269 119 115 273 115 121 0 198-74 77-73 77-195 0-153-119-272Q416-32 262-32zm0 2816q-121 0-198 77t-77 198q0 154 118 269 119 115 273 115 121 0 198-74 77-73 77-195 0-153-119-272-118-118-272-118z" transform="scale(.01563)"/><path id="prefix__Poppins-LightItalic-50" d="M3616 3187q-102-576-544-928t-1197-352H973L640 0H192l787 4474h1351q659 0 985-276 327-275 327-742 0-147-26-269zm-1670-909q1049 0 1209 909 26 167 26 237 0 691-915 691h-903l-320-1837h903z" transform="scale(.01563)"/><path id="prefix__Poppins-LightItalic-79" d="M890 3494l659-2963 1670 2963h467L710-1645H237L1210 26 390 3494h500z" transform="scale(.01563)"/><path id="prefix__Poppins-LightItalic-52" d="M2330 4474q659 0 988-282 330-282 330-755 0-83-26-263-83-486-422-829-339-342-902-444L3110 0h-537l-775 1869H966L640 0H192l787 4474h1351zm825-1300q19 128 19 231 0 339-224 524-224 186-691 186h-896l-333-1888h903q531 0 838 256t384 691z" transform="scale(.01563)"/><path id="prefix__Poppins-LightItalic-74" d="M934 947q-19-115-19-198 0-205 112-285t368-80h410L1734 0h-480Q858 0 659 153 461 307 461 659q0 141 25 288l384 2170H384l70 377h487l153 877h448l-153-877h966l-70-377h-967L934 947z" transform="scale(.01563)"/><path id="prefix__Poppins-LightItalic-61" d="M294 1754q96 537 384 943 288 407 707 628 420 221 900 221 499 0 819-231 320-230 416-589l134 768h448L3488 0h-448l134 774q-217-358-624-592-406-233-905-233-416 0-730 172-313 173-486 490t-173 746q0 185 38 397zm3053-7q32 179 32 320 0 499-301 793-300 295-780 295-372 0-695-167-323-166-547-483-224-316-301-751-32-192-32-327 0-505 297-797 298-291 778-291 359 0 688 173 330 173 557 493t304 742z" transform="scale(.01563)"/><path id="prefix__Poppins-LightItalic-69" d="M1152 4154q-122 0-199 73-76 74-76 195 0 167 115 279t275 112q122 0 195-71 74-70 74-185 0-167-115-285t-269-118zm102-660L640 0H192l614 3494h448z" transform="scale(.01563)"/><path id="prefix__Poppins-LightItalic-6c" d="M1478 4736L640 0H192l838 4736h448z" transform="scale(.01563)"/><path id="prefix__Poppins-LightItalic-6e" d="M2464 3558q538 0 861-291t323-848q0-205-32-371L3251 0h-441l352 1997q25 147 25 313 0 423-231 640-230 218-646 218-505 0-864-320-358-320-467-941v19L640 0H192l614 3494h448l-108-601q224 320 569 492 346 173 749 173z" transform="scale(.01563)"/><path id="prefix__Poppins-LightItalic-2d" d="M2816 2560l-64-378H262l64 378h2490z" transform="scale(.01563)"/><path id="prefix__Poppins-LightItalic-73" d="M1357-51q-531 0-864 246-333 247-333 675 0 77 6 116h436q-26-308 179-494 205-185 601-185 404 0 647 169 243 170 243 452 0 166-103 281-102 116-253 189-150 74-418 170-333 122-535 227-201 106-345 294-144 189-144 477t166 512q166 224 457 346 292 122 663 122 518 0 848-256t330-679q0-89-7-134h-422q6 25 6 83 0 282-221 454-220 173-566 173t-573-163q-227-163-227-438 0-186 109-311t269-202q160-76 428-179 320-121 515-224 196-102 330-281 135-179 135-448 0-455-378-724-378-268-979-268z" transform="scale(.01563)"/><path id="prefix__Poppins-LightItalic-46" d="M3405 4474l-64-359H1363l-294-1689h1664l-64-352H1005L640 0H192l787 4474h2426z" transform="scale(.01563)"/><path id="prefix__Poppins-LightItalic-59" d="M3942 4474L2022 1741 1715 0h-448l307 1741-960 2733h506l749-2324 1568 2324h505z" transform="scale(.01563)"/><path id="prefix__Poppins-LightItalic-32" d="M64 352q1338 877 2106 1577 768 701 883 1361 25 166 25 249 0 320-189 512-188 192-611 192-486 0-806-304t-435-803H602q160 710 630 1100 470 391 1117 391 544 0 860-266 317-265 317-758 0-160-25-294-135-762-903-1482T768 410h2362l-64-378H6l58 320z" transform="scale(.01563)"/><path id="prefix__Poppins-LightItalic-30" d="M506 2304q192 1094 636 1702 445 608 1322 608 666 0 957-365 291-364 291-1023 0-378-96-922-192-1094-640-1706Q2528-13 1651-13q-665 0-953 361-288 362-288 1022 0 377 96 934zm2668 0q96 531 96 883 0 487-202 752-201 266-674 266-461 0-749-247-288-246-442-656-153-409-256-998-102-582-102-902 0-480 198-743 199-262 679-262 460 0 748 246 288 247 442 656 154 410 262 1005z" transform="scale(.01563)"/><path id="prefix__Poppins-LightItalic-34" d="M90 1088l57 339 2887 3136h531l-544-3085h685l-71-390h-685L2758 0h-441l192 1088H90zm2963 2982L678 1478h1920l455 2592z" transform="scale(.01563)"/></defs><use xlink:href="#prefix__Poppins-LightItalic-53"/><use xlink:href="#prefix__Poppins-LightItalic-6f" x="56.6"/><use xlink:href="#prefix__Poppins-LightItalic-75" x="120.8"/><use xlink:href="#prefix__Poppins-LightItalic-72" x="184.1"/><use xlink:href="#prefix__Poppins-LightItalic-63" x="220.3"/><use xlink:href="#prefix__Poppins-LightItalic-65" x="281.6"/><use xlink:href="#prefix__Poppins-LightItalic-3a" x="343.8"/><use xlink:href="#prefix__Poppins-LightItalic-20" x="362.3"/><use xlink:href="#prefix__Poppins-LightItalic-50" x="391.8"/><use xlink:href="#prefix__Poppins-LightItalic-79" x="448.2"/><use xlink:href="#prefix__Poppins-LightItalic-52" x="502.7"/><use xlink:href="#prefix__Poppins-LightItalic-65" x="561.4"/><use xlink:href="#prefix__Poppins-LightItalic-74" x="623.6"/><use xlink:href="#prefix__Poppins-LightItalic-61" x="659.2"/><use xlink:href="#prefix__Poppins-LightItalic-69" x="726.7"/><use xlink:href="#prefix__Poppins-LightItalic-6c" x="749.6"/><use xlink:href="#prefix__Poppins-LightItalic-53" x="772.5"/><use xlink:href="#prefix__Poppins-LightItalic-63" x="829.1"/><use xlink:href="#prefix__Poppins-LightItalic-69" x="890.4"/><use xlink:href="#prefix__Poppins-LightItalic-65" x="913.3"/><use xlink:href="#prefix__Poppins-LightItalic-6e" x="975.5"/><use xlink:href="#prefix__Poppins-LightItalic-63" x="1038.8"/><use xlink:href="#prefix__Poppins-LightItalic-65" x="1100.1"/><use xlink:href="#prefix__Poppins-LightItalic-20" x="1162.3"/><use xlink:href="#prefix__Poppins-LightItalic-2d" x="1191.8"/><use xlink:href="#prefix__Poppins-LightItalic-20" x="1243.7"/><use xlink:href="#prefix__Poppins-LightItalic-53" x="1273.2"/><use xlink:href="#prefix__Poppins-LightItalic-61" x="1329.8"/><use xlink:href="#prefix__Poppins-LightItalic-6c" x="1397.3"/><use xlink:href="#prefix__Poppins-LightItalic-65" x="1420.2"/><use xlink:href="#prefix__Poppins-LightItalic-73" x="1482.4"/><use xlink:href="#prefix__Poppins-LightItalic-20" x="1533.4"/><use xlink:href="#prefix__Poppins-LightItalic-46" x="1562.9"/><use xlink:href="#prefix__Poppins-LightItalic-59" x="1612.2"/><use xlink:href="#prefix__Poppins-LightItalic-32" x="1668.6"/><use xlink:href="#prefix__Poppins-LightItalic-30" x="1725.8"/><use xlink:href="#prefix__Poppins-LightItalic-32" x="1787.4"/><use xlink:href="#prefix__Poppins-LightItalic-34" x="1844.6"/></g></g><defs><clipPath id="prefix__pa739800b38"><path d="M54.89 32h390.6v277.2H54.89z"/></clipPath></defs></svg>
