<svg xmlns="http://www.w3.org/2000/svg" viewBox="0 0 720 160" width="720" height="160" role="img" aria-labelledby="banner-title">
  <title id="banner-title">OpenRetailScience</title>
  <defs>
    <radialGradient id="lightGreenGrad" cx="35%" cy="35%" r="70%">
      <stop offset="0%" stop-color="#34d16e"/>
      <stop offset="100%" stop-color="#1bb854"/>
    </radialGradient>
    <linearGradient id="darkGreenGrad" x1="0%" y1="0%" x2="100%" y2="100%">
      <stop offset="0%" stop-color="#1a8c42"/>
      <stop offset="100%" stop-color="#127035"/>
    </linearGradient>
  </defs>

  <!-- Logo icon scaled to fit -->
  <g transform="translate(80 80) scale(0.35)">
    <path d="M0-192A192 192 0 1 1-192 0A192 192 0 0 1 0-192M0-144A144 144 0 1 0 144 0A144 144 0 0 0 0-144" style="fill: url(#lightGreenGrad); stroke: #fff; stroke-width: 4;"/>
    <path d="M136.95-44.50A144 144 0 0 0 44.50-136.95L59.33-182.60A192 192 0 0 1 182.60-59.33Z" style="fill: url(#darkGreenGrad); stroke: #fff; stroke-width: 4;"/>
    <path d="M0-144A144 144 0 1 1-144 0A144 144 0 0 1 0-144M0-96A96 96 0 1 0 96 0A96 96 0 0 0 0-96" style="fill: url(#lightGreenGrad); stroke: #fff; stroke-width: 4;"/>
    <path d="M91.30-29.67A96 96 0 0 0 29.67-91.30L44.50-136.95A144 144 0 0 1 136.95-44.50Z" style="fill: url(#darkGreenGrad); stroke: #fff; stroke-width: 4;"/>
  </g>

  <!-- "OpenRetailScience" text -->
  <text x="160" y="95" font-family="Arial, Helvetica, sans-serif" font-weight="bold" font-size="52" fill="#1a1a1a">
    OpenRetailScience
  </text>
</svg>
