<svg xmlns="http://www.w3.org/2000/svg" xmlns:xlink="http://www.w3.org/1999/xlink" viewBox="0 0 880 150" width="880" height="150" role="img" aria-labelledby="banner-title">
  <title id="banner-title">OpenRetailScience</title>
  <defs>
    <style>
      @import url('https://fonts.googleapis.com/css2?family=Poppins:wght@800&amp;display=swap');
    </style>
    <radialGradient id="lightGreenGrad" cx="35%" cy="35%" r="70%">
      <stop offset="0%" stop-color="#34d16e"/>
      <stop offset="100%" stop-color="#1bb854"/>
    </radialGradient>
    <linearGradient id="darkGreenGrad" x1="0%" y1="0%" x2="100%" y2="100%">
      <stop offset="0%" stop-color="#1a8c42"/>
      <stop offset="100%" stop-color="#127035"/>
    </linearGradient>
  </defs>

  <!-- Logo icon scaled to fit -->
  <g transform="translate(75 75) scale(0.33)">
    <path d="M0-192A192 192 0 1 1-192 0A192 192 0 0 1 0-192M0-144A144 144 0 1 0 144 0A144 144 0 0 0 0-144" style="fill: url(#lightGreenGrad); stroke: #fff; stroke-width: 4;"/>
    <path d="M136.95-44.50A144 144 0 0 0 44.50-136.95L59.33-182.60A192 192 0 0 1 182.60-59.33Z" style="fill: url(#darkGreenGrad); stroke: #fff; stroke-width: 4;"/>
    <path d="M0-144A144 144 0 1 1-144 0A144 144 0 0 1 0-144M0-96A96 96 0 1 0 96 0A96 96 0 0 0 0-96" style="fill: url(#lightGreenGrad); stroke: #fff; stroke-width: 4;"/>
    <path d="M91.30-29.67A96 96 0 0 0 29.67-91.30L44.50-136.95A144 144 0 0 1 136.95-44.50Z" style="fill: url(#darkGreenGrad); stroke: #fff; stroke-width: 4;"/>
  </g>

  <!-- "OpenRetailScience" text -->
  <text x="155" y="105" font-family="'Poppins', sans-serif" font-weight="800" font-size="80" fill="#1a1a1a">OpenRetailScience</text>
</svg>
