<?xml version="1.0" encoding="utf-8" standalone="no"?>
<!DOCTYPE svg PUBLIC "-//W3C//DTD SVG 1.1//EN"
  "http://www.w3.org/Graphics/SVG/1.1/DTD/svg11.dtd">
<svg xmlns:xlink="http://www.w3.org/1999/xlink" width="440.919187pt" height="357.29725pt" viewBox="0 0 440.919187 357.29725" xmlns="http://www.w3.org/2000/svg" version="1.1">
 <metadata>
  <rdf:RDF xmlns:dc="http://purl.org/dc/elements/1.1/" xmlns:cc="http://creativecommons.org/ns#" xmlns:rdf="http://www.w3.org/1999/02/22-rdf-syntax-ns#">
   <cc:Work>
    <dc:type rdf:resource="http://purl.org/dc/dcmitype/StillImage"/>
    <dc:date>2025-03-04T18:52:41.265600</dc:date>
    <dc:format>image/svg+xml</dc:format>
    <dc:creator>
     <cc:Agent>
      <dc:title>Matplotlib v3.9.1.post1, https://matplotlib.org/</dc:title>
     </cc:Agent>
    </dc:creator>
   </cc:Work>
  </rdf:RDF>
 </metadata>
 <defs>
  <style type="text/css">*{stroke-linejoin: round; stroke-linecap: butt}</style>
 </defs>
 <g id="figure_1">
  <g id="patch_1">
   <path d="M 0 357.29725
L 440.919187 357.29725
L 440.919187 0
L 0 0
z
" style="fill: #ffffff"/>
  </g>
  <g id="axes_1">
   <g id="patch_2">
    <path d="M 353.989251 153.394761
L 352.82974 161.211551
L 350.909633 168.877049
L 348.247421 176.317432
L 344.868744 183.461045
L 343.451256 185.82598
L 340.939524 181.635409
L 336.232118 175.288206
L 330.925244 169.432973
L 325.07001 164.126099
L 318.722807 159.418692
L 311.944761 155.356087
L 304.801148 151.97741
L 297.360765 149.315198
L 289.695267 147.395091
L 281.878477 146.23558
L 273.985676 145.847831
L 273.328774 145.880103
L 270.472173 141.114152
L 265.764767 134.766949
L 260.457893 128.911716
L 254.602659 123.604841
L 248.255456 118.897435
L 241.47741 114.83483
L 234.333797 111.456153
L 226.893414 108.793941
L 219.227916 106.873834
L 211.411126 105.714323
L 204.145761 105.357398
L 206.898442 100.764828
L 211.605848 94.417625
L 216.912722 88.562391
L 222.767956 83.255517
L 229.115159 78.54811
L 235.893205 74.485506
L 243.036818 71.106829
L 250.477201 68.444617
L 258.142699 66.52451
L 265.959489 65.364998
L 273.85229 64.97725
L 281.745092 65.364998
L 289.561882 66.52451
L 297.22738 68.444617
L 304.667763 71.106829
L 311.811376 74.485506
L 318.589422 78.54811
L 324.936625 83.255517
L 330.791858 88.562391
L 336.098732 94.417625
L 340.806139 100.764828
L 344.868744 107.542874
L 348.247421 114.686487
L 350.909633 122.12687
L 352.82974 129.792368
L 353.989251 137.609158
L 354.377 145.501959
z
" clip-path="url(#p19a714099f)" style="fill: #bbf7d0; stroke: #bbf7d0; stroke-linejoin: miter"/>
   </g>
   <g id="patch_3">
    <path d="M 354.122636 234.265342
L 352.963125 242.082132
L 351.043018 249.74763
L 348.380806 257.188013
L 345.002129 264.331626
L 340.939524 271.109672
L 336.232118 277.456875
L 330.925244 283.312109
L 325.07001 288.618983
L 318.722807 293.32639
L 311.944761 297.388994
L 304.801148 300.767671
L 297.360765 303.429883
L 289.695267 305.34999
L 281.878477 306.509502
L 273.985676 306.89725
L 266.092874 306.509502
L 258.276084 305.34999
L 250.610586 303.429883
L 243.170203 300.767671
L 236.02659 297.388994
L 229.248544 293.32639
L 222.901341 288.618983
L 217.046107 283.312109
L 211.739233 277.456875
L 207.031827 271.109672
L 204.175226 266.343721
L 211.411126 265.988244
L 219.227916 264.828733
L 226.893414 262.908626
L 234.333797 260.246414
L 241.47741 256.867737
L 248.255456 252.805132
L 254.602659 248.097726
L 260.457893 242.790852
L 265.764767 236.935618
L 270.472173 230.588415
L 273.224854 225.995845
L 273.85229 226.026669
L 281.745092 225.63892
L 289.561882 224.479409
L 297.22738 222.559302
L 304.667763 219.89709
L 311.811376 216.518413
L 318.589422 212.455808
L 324.936625 207.748401
L 330.791858 202.441527
L 336.098732 196.586294
L 340.806139 190.239091
L 343.451256 185.82598
L 345.002129 188.413455
L 348.380806 195.557068
L 351.043018 202.997451
L 352.963125 210.662949
L 354.122636 218.479739
L 354.510385 226.372541
z
" clip-path="url(#p19a714099f)" style="fill: #166534; stroke: #166534; stroke-linejoin: miter"/>
   </g>
   <g id="patch_4">
    <path d="M 273.985676 145.847831
L 281.878477 146.23558
L 289.695267 147.395091
L 297.360765 149.315198
L 304.801148 151.97741
L 311.944761 155.356087
L 318.722807 159.418692
L 325.07001 164.126099
L 330.925244 169.432973
L 336.232118 175.288206
L 340.939524 181.635409
L 343.451256 185.82598
L 340.806139 190.239091
L 336.098732 196.586294
L 330.791858 202.441527
L 324.936625 207.748401
L 318.589422 212.455808
L 311.811376 216.518413
L 304.667763 219.89709
L 297.22738 222.559302
L 289.561882 224.479409
L 281.745092 225.63892
L 273.85229 226.026669
L 273.224854 225.995845
L 274.534778 223.810369
L 277.913455 216.666756
L 280.575667 209.226373
L 282.495774 201.560875
L 283.655285 193.744085
L 284.043034 185.851284
L 283.655285 177.958482
L 282.495774 170.141692
L 280.575667 162.476194
L 277.913455 155.035811
L 274.534778 147.892198
L 273.328774 145.880103
z
" clip-path="url(#p19a714099f)" style="fill: #89bf9b; stroke: #89bf9b; stroke-linejoin: miter"/>
   </g>
   <g id="patch_5">
    <path d="M 203.518324 266.375993
L 195.625523 265.988244
L 187.808733 264.828733
L 180.143235 262.908626
L 172.702852 260.246414
L 165.559239 256.867737
L 158.781193 252.805132
L 152.43399 248.097726
L 146.578756 242.790852
L 141.271882 236.935618
L 136.564476 230.588415
L 132.501871 223.810369
L 129.123194 216.666756
L 126.460982 209.226373
L 124.540875 201.560875
L 123.381364 193.744085
L 122.993615 185.851284
L 123.381364 177.958482
L 124.540875 170.141692
L 126.460982 162.476194
L 129.123194 155.035811
L 132.501871 147.892198
L 136.564476 141.114152
L 141.271882 134.766949
L 146.578756 128.911716
L 152.43399 123.604841
L 158.781193 118.897435
L 165.559239 114.83483
L 172.702852 111.456153
L 180.143235 108.793941
L 187.808733 106.873834
L 195.625523 105.714323
L 203.518324 105.326574
L 204.145761 105.357398
L 202.835837 107.542874
L 199.45716 114.686487
L 196.794948 122.12687
L 194.874841 129.792368
L 193.71533 137.609158
L 193.327581 145.501959
L 193.71533 153.394761
L 194.874841 161.211551
L 196.794948 168.877049
L 199.45716 176.317432
L 202.835837 183.461045
L 204.38671 186.04852
L 202.969222 188.413455
L 199.590545 195.557068
L 196.928333 202.997451
L 195.008226 210.662949
L 193.848715 218.479739
L 193.460966 226.372541
L 193.848715 234.265342
L 195.008226 242.082132
L 196.928333 249.74763
L 199.590545 257.188013
L 202.969222 264.331626
L 204.175226 266.343721
z
" clip-path="url(#p19a714099f)" style="fill: #22c55e; stroke: #22c55e; stroke-linejoin: miter"/>
   </g>
   <g id="patch_6">
    <path d="M 202.835837 183.461045
L 199.45716 176.317432
L 196.794948 168.877049
L 194.874841 161.211551
L 193.71533 153.394761
L 193.327581 145.501959
L 193.71533 137.609158
L 194.874841 129.792368
L 196.794948 122.12687
L 199.45716 114.686487
L 202.835837 107.542874
L 204.145761 105.357398
L 211.411126 105.714323
L 219.227916 106.873834
L 226.893414 108.793941
L 234.333797 111.456153
L 241.47741 114.83483
L 248.255456 118.897435
L 254.602659 123.604841
L 260.457893 128.911716
L 265.764767 134.766949
L 270.472173 141.114152
L 273.328774 145.880103
L 266.092874 146.23558
L 258.276084 147.395091
L 250.610586 149.315198
L 243.170203 151.97741
L 236.02659 155.356087
L 229.248544 159.418692
L 222.901341 164.126099
L 217.046107 169.432973
L 211.739233 175.288206
L 207.031827 181.635409
L 204.38671 186.04852
z
" clip-path="url(#p19a714099f)" style="fill: #8ae0a3; stroke: #8ae0a3; stroke-linejoin: miter"/>
   </g>
   <g id="patch_7">
    <path d="M 270.472173 230.588415
L 265.764767 236.935618
L 260.457893 242.790852
L 254.602659 248.097726
L 248.255456 252.805132
L 241.47741 256.867737
L 234.333797 260.246414
L 226.893414 262.908626
L 219.227916 264.828733
L 211.411126 265.988244
L 204.175226 266.343721
L 202.969222 264.331626
L 199.590545 257.188013
L 196.928333 249.74763
L 195.008226 242.082132
L 193.848715 234.265342
L 193.460966 226.372541
L 193.848715 218.479739
L 195.008226 210.662949
L 196.928333 202.997451
L 199.590545 195.557068
L 202.969222 188.413455
L 204.38671 186.04852
L 206.898442 190.239091
L 211.605848 196.586294
L 216.912722 202.441527
L 222.767956 207.748401
L 229.115159 212.455808
L 235.893205 216.518413
L 243.036818 219.89709
L 250.477201 222.559302
L 258.142699 224.479409
L 265.959489 225.63892
L 273.224854 225.995845
z
" clip-path="url(#p19a714099f)" style="fill: #1d9e4d; stroke: #1d9e4d; stroke-linejoin: miter"/>
   </g>
   <g id="patch_8">
    <path d="M 282.495774 201.560875
L 280.575667 209.226373
L 277.913455 216.666756
L 274.534778 223.810369
L 273.224854 225.995845
L 265.959489 225.63892
L 258.142699 224.479409
L 250.477201 222.559302
L 243.036818 219.89709
L 235.893205 216.518413
L 229.115159 212.455808
L 222.767956 207.748401
L 216.912722 202.441527
L 211.605848 196.586294
L 206.898442 190.239091
L 204.38671 186.04852
L 207.031827 181.635409
L 211.739233 175.288206
L 217.046107 169.432973
L 222.901341 164.126099
L 229.248544 159.418692
L 236.02659 155.356087
L 243.170203 151.97741
L 250.610586 149.315198
L 258.276084 147.395091
L 266.092874 146.23558
L 273.328774 145.880103
L 274.534778 147.892198
L 277.913455 155.035811
L 280.575667 162.476194
L 282.495774 170.141692
L 283.655285 177.958482
L 284.043034 185.851284
L 283.655285 193.744085
z
" clip-path="url(#p19a714099f)" style="fill: #73c18a; stroke: #73c18a; stroke-linejoin: miter"/>
   </g>
   <g id="text_1">
    <!-- 11.9% -->
    <g transform="translate(152.49485 188.251284) scale(0.1 -0.1)">
     <defs>
      <path id="Poppins-Regular-31" d="M 243 4096
L 243 4627
L 1446 4627
L 1446 0
L 858 0
L 858 4096
L 243 4096
z
" transform="scale(0.015625)"/>
      <path id="Poppins-Regular-2e" d="M 678 -38
Q 512 -38 397 77
Q 282 192 282 358
Q 282 525 397 640
Q 512 755 678 755
Q 838 755 950 640
Q 1062 525 1062 358
Q 1062 192 950 77
Q 838 -38 678 -38
z
" transform="scale(0.015625)"/>
      <path id="Poppins-Regular-39" d="M 1146 1242
Q 1210 877 1443 678
Q 1677 480 2074 480
Q 2605 480 2857 896
Q 3110 1312 3098 2298
Q 2963 2010 2649 1846
Q 2336 1683 1952 1683
Q 1523 1683 1187 1859
Q 851 2035 659 2374
Q 467 2714 467 3194
Q 467 3878 864 4297
Q 1261 4717 1990 4717
Q 2886 4717 3248 4134
Q 3610 3552 3610 2400
Q 3610 1594 3466 1069
Q 3322 544 2979 269
Q 2637 -6 2042 -6
Q 1389 -6 1024 346
Q 659 698 608 1242
L 1146 1242
z
M 2048 2176
Q 2477 2176 2752 2441
Q 3027 2707 3027 3162
Q 3027 3642 2758 3936
Q 2490 4230 2003 4230
Q 1555 4230 1289 3948
Q 1024 3667 1024 3206
Q 1024 2739 1286 2457
Q 1549 2176 2048 2176
z
" transform="scale(0.015625)"/>
      <path id="Poppins-Regular-25" d="M 269 3584
Q 269 4019 531 4278
Q 794 4538 1203 4538
Q 1613 4538 1875 4278
Q 2138 4019 2138 3584
Q 2138 3142 1875 2883
Q 1613 2624 1203 2624
Q 794 2624 531 2883
Q 269 3142 269 3584
z
M 4006 4467
L 1414 0
L 838 0
L 3430 4467
L 4006 4467
z
M 1203 4179
Q 986 4179 861 4028
Q 736 3878 736 3584
Q 736 3290 861 3136
Q 986 2982 1203 2982
Q 1421 2982 1549 3139
Q 1677 3296 1677 3584
Q 1677 3878 1549 4028
Q 1421 4179 1203 4179
z
M 2720 883
Q 2720 1325 2982 1584
Q 3245 1843 3654 1843
Q 4064 1843 4323 1584
Q 4582 1325 4582 883
Q 4582 448 4323 185
Q 4064 -77 3654 -77
Q 3245 -77 2982 182
Q 2720 442 2720 883
z
M 3648 1478
Q 3430 1478 3302 1328
Q 3174 1178 3174 883
Q 3174 595 3302 444
Q 3430 294 3648 294
Q 3866 294 3994 444
Q 4122 595 4122 883
Q 4122 1178 3994 1328
Q 3866 1478 3648 1478
z
" transform="scale(0.015625)"/>
     </defs>
     <use xlink:href="#Poppins-Regular-31"/>
     <use xlink:href="#Poppins-Regular-31" x="31.999985"/>
     <use xlink:href="#Poppins-Regular-2e" x="63.999969"/>
     <use xlink:href="#Poppins-Regular-39" x="84.999954"/>
     <use xlink:href="#Poppins-Regular-25" x="147.999939"/>
    </g>
   </g>
   <g id="text_2">
    <!-- 9.0% -->
    <g style="fill: #ffffff" transform="translate(281.676882 261.482461) scale(0.1 -0.1)">
     <defs>
      <path id="Poppins-Regular-30" d="M 397 2362
Q 397 3462 755 4080
Q 1114 4698 2010 4698
Q 2899 4698 3257 4080
Q 3616 3462 3616 2362
Q 3616 1242 3257 621
Q 2899 0 2010 0
Q 1114 0 755 621
Q 397 1242 397 2362
z
M 3040 2362
Q 3040 2918 2966 3305
Q 2893 3693 2665 3929
Q 2438 4166 2010 4166
Q 1574 4166 1347 3929
Q 1120 3693 1046 3305
Q 973 2918 973 2362
Q 973 1786 1046 1395
Q 1120 1005 1347 768
Q 1574 531 2010 531
Q 2438 531 2665 768
Q 2893 1005 2966 1395
Q 3040 1786 3040 2362
z
" transform="scale(0.015625)"/>
     </defs>
     <use xlink:href="#Poppins-Regular-39"/>
     <use xlink:href="#Poppins-Regular-2e" x="62.999985"/>
     <use xlink:href="#Poppins-Regular-30" x="83.999969"/>
     <use xlink:href="#Poppins-Regular-25" x="146.799957"/>
    </g>
   </g>
   <g id="text_3">
    <!-- 23.9% -->
    <g transform="translate(278.921689 115.115742) scale(0.1 -0.1)">
     <defs>
      <path id="Poppins-Regular-32" d="M 326 467
Q 1139 1120 1600 1539
Q 2061 1958 2377 2416
Q 2694 2874 2694 3315
Q 2694 3731 2492 3971
Q 2291 4211 1843 4211
Q 1408 4211 1168 3939
Q 928 3667 909 3213
L 346 3213
Q 371 3930 780 4320
Q 1190 4710 1837 4710
Q 2496 4710 2883 4345
Q 3270 3981 3270 3341
Q 3270 2810 2953 2307
Q 2637 1805 2233 1424
Q 1830 1043 1203 538
L 3405 538
L 3405 51
L 326 51
L 326 467
z
" transform="scale(0.015625)"/>
      <path id="Poppins-Regular-33" d="M 384 3462
Q 429 4051 838 4384
Q 1248 4717 1901 4717
Q 2336 4717 2653 4560
Q 2970 4403 3133 4134
Q 3296 3866 3296 3526
Q 3296 3130 3069 2842
Q 2842 2554 2477 2470
L 2477 2438
Q 2893 2336 3136 2035
Q 3379 1734 3379 1248
Q 3379 883 3212 592
Q 3046 301 2713 134
Q 2381 -32 1914 -32
Q 1235 -32 800 323
Q 365 678 314 1331
L 877 1331
Q 922 947 1190 704
Q 1459 461 1907 461
Q 2355 461 2588 694
Q 2822 928 2822 1299
Q 2822 1779 2502 1990
Q 2182 2202 1536 2202
L 1389 2202
L 1389 2688
L 1542 2688
Q 2131 2694 2432 2883
Q 2733 3072 2733 3469
Q 2733 3808 2512 4013
Q 2291 4218 1882 4218
Q 1485 4218 1241 4013
Q 998 3808 954 3462
L 384 3462
z
" transform="scale(0.015625)"/>
     </defs>
     <use xlink:href="#Poppins-Regular-32"/>
     <use xlink:href="#Poppins-Regular-33" x="57.499985"/>
     <use xlink:href="#Poppins-Regular-2e" x="116.399979"/>
     <use xlink:href="#Poppins-Regular-39" x="137.399963"/>
     <use xlink:href="#Poppins-Regular-25" x="200.399948"/>
    </g>
   </g>
   <g id="text_4">
    <!-- 20.9% -->
    <g style="fill: #ffffff" transform="translate(209.257852 235.364434) scale(0.1 -0.1)">
     <use xlink:href="#Poppins-Regular-32"/>
     <use xlink:href="#Poppins-Regular-30" x="57.499985"/>
     <use xlink:href="#Poppins-Regular-2e" x="120.299973"/>
     <use xlink:href="#Poppins-Regular-39" x="141.299957"/>
     <use xlink:href="#Poppins-Regular-25" x="204.299942"/>
    </g>
   </g>
   <g id="text_5">
    <!-- 13.4% -->
    <g transform="translate(210.705052 141.298402) scale(0.1 -0.1)">
     <defs>
      <path id="Poppins-Regular-34" d="M 256 1030
L 256 1472
L 2502 4582
L 3200 4582
L 3200 1536
L 3840 1536
L 3840 1030
L 3200 1030
L 3200 0
L 2624 0
L 2624 1030
L 256 1030
z
M 2650 3974
L 928 1536
L 2650 1536
L 2650 3974
z
" transform="scale(0.015625)"/>
     </defs>
     <use xlink:href="#Poppins-Regular-31"/>
     <use xlink:href="#Poppins-Regular-33" x="31.999985"/>
     <use xlink:href="#Poppins-Regular-2e" x="90.899979"/>
     <use xlink:href="#Poppins-Regular-34" x="111.899963"/>
     <use xlink:href="#Poppins-Regular-25" x="174.799957"/>
    </g>
   </g>
   <g id="text_6">
    <!-- 20.9% -->
    <g transform="translate(294.327899 188.33725) scale(0.1 -0.1)">
     <use xlink:href="#Poppins-Regular-32"/>
     <use xlink:href="#Poppins-Regular-30" x="57.499985"/>
     <use xlink:href="#Poppins-Regular-2e" x="120.299973"/>
     <use xlink:href="#Poppins-Regular-39" x="141.299957"/>
     <use xlink:href="#Poppins-Regular-25" x="204.299942"/>
    </g>
   </g>
   <g id="text_7">
    <!-- 10.4% -->
    <g transform="translate(237.647503 188.350014) scale(0.1 -0.1)">
     <use xlink:href="#Poppins-Regular-31"/>
     <use xlink:href="#Poppins-Regular-30" x="31.999985"/>
     <use xlink:href="#Poppins-Regular-2e" x="94.799973"/>
     <use xlink:href="#Poppins-Regular-34" x="115.799957"/>
     <use xlink:href="#Poppins-Regular-25" x="178.699951"/>
    </g>
   </g>
   <g id="text_8">
    <!-- Frequent Buyers -->
    <g transform="translate(9.319799 191.046124) scale(0.12 -0.12)">
     <defs>
      <path id="Poppins-Regular-46" d="M 3014 4461
L 3014 3987
L 1075 3987
L 1075 2483
L 2650 2483
L 2650 2010
L 1075 2010
L 1075 0
L 493 0
L 493 4461
L 3014 4461
z
" transform="scale(0.015625)"/>
      <path id="Poppins-Regular-72" d="M 1075 2938
Q 1229 3238 1513 3404
Q 1798 3571 2208 3571
L 2208 2970
L 2054 2970
Q 1075 2970 1075 1907
L 1075 0
L 493 0
L 493 3507
L 1075 3507
L 1075 2938
z
" transform="scale(0.015625)"/>
      <path id="Poppins-Regular-65" d="M 3693 1888
Q 3693 1722 3674 1536
L 870 1536
Q 902 1018 1225 726
Q 1549 435 2010 435
Q 2387 435 2640 611
Q 2893 787 2995 1082
L 3622 1082
Q 3482 576 3059 259
Q 2637 -58 2010 -58
Q 1510 -58 1116 166
Q 723 390 499 803
Q 275 1216 275 1760
Q 275 2304 492 2713
Q 710 3123 1104 3344
Q 1498 3565 2010 3565
Q 2509 3565 2893 3347
Q 3277 3130 3485 2749
Q 3693 2368 3693 1888
z
M 3091 2010
Q 3091 2342 2944 2582
Q 2797 2822 2544 2947
Q 2291 3072 1984 3072
Q 1542 3072 1232 2790
Q 922 2509 877 2010
L 3091 2010
z
" transform="scale(0.015625)"/>
      <path id="Poppins-Regular-71" d="M 275 1766
Q 275 2304 492 2710
Q 710 3117 1091 3341
Q 1472 3565 1946 3565
Q 2400 3565 2742 3363
Q 3085 3162 3245 2867
L 3245 3507
L 3834 3507
L 3834 -1664
L 3245 -1664
L 3245 646
Q 3078 352 2732 147
Q 2387 -58 1926 -58
Q 1466 -58 1088 172
Q 710 403 492 819
Q 275 1235 275 1766
z
M 3245 1760
Q 3245 2157 3085 2451
Q 2925 2746 2653 2902
Q 2381 3059 2054 3059
Q 1728 3059 1459 2905
Q 1190 2752 1030 2457
Q 870 2163 870 1766
Q 870 1363 1030 1065
Q 1190 768 1459 611
Q 1728 454 2054 454
Q 2381 454 2653 611
Q 2925 768 3085 1065
Q 3245 1363 3245 1760
z
" transform="scale(0.015625)"/>
      <path id="Poppins-Regular-75" d="M 3603 3507
L 3603 0
L 3021 0
L 3021 518
Q 2854 250 2556 99
Q 2259 -51 1901 -51
Q 1491 -51 1164 118
Q 838 288 649 627
Q 461 966 461 1453
L 461 3507
L 1037 3507
L 1037 1530
Q 1037 1011 1299 732
Q 1562 454 2016 454
Q 2483 454 2752 742
Q 3021 1030 3021 1581
L 3021 3507
L 3603 3507
z
" transform="scale(0.015625)"/>
      <path id="Poppins-Regular-6e" d="M 2202 3571
Q 2842 3571 3238 3184
Q 3635 2797 3635 2067
L 3635 0
L 3059 0
L 3059 1984
Q 3059 2509 2796 2787
Q 2534 3066 2080 3066
Q 1619 3066 1347 2778
Q 1075 2490 1075 1939
L 1075 0
L 493 0
L 493 3507
L 1075 3507
L 1075 3008
Q 1248 3277 1545 3424
Q 1843 3571 2202 3571
z
" transform="scale(0.015625)"/>
      <path id="Poppins-Regular-74" d="M 1203 3027
L 1203 960
Q 1203 704 1312 598
Q 1421 493 1690 493
L 2118 493
L 2118 0
L 1594 0
Q 1107 0 864 224
Q 621 448 621 960
L 621 3027
L 166 3027
L 166 3507
L 621 3507
L 621 4390
L 1203 4390
L 1203 3507
L 2118 3507
L 2118 3027
L 1203 3027
z
" transform="scale(0.015625)"/>
      <path id="Poppins-Regular-20" transform="scale(0.015625)"/>
      <path id="Poppins-Regular-42" d="M 2726 2298
Q 2970 2259 3171 2099
Q 3373 1939 3491 1702
Q 3610 1466 3610 1197
Q 3610 858 3437 586
Q 3264 314 2934 157
Q 2605 0 2157 0
L 493 0
L 493 4461
L 2093 4461
Q 2547 4461 2867 4310
Q 3187 4160 3347 3904
Q 3507 3648 3507 3328
Q 3507 2931 3292 2672
Q 3078 2413 2726 2298
z
M 1075 2534
L 2054 2534
Q 2464 2534 2688 2726
Q 2912 2918 2912 3258
Q 2912 3597 2688 3789
Q 2464 3981 2042 3981
L 1075 3981
L 1075 2534
z
M 2106 480
Q 2541 480 2784 685
Q 3027 890 3027 1254
Q 3027 1626 2771 1840
Q 2515 2054 2086 2054
L 1075 2054
L 1075 480
L 2106 480
z
" transform="scale(0.015625)"/>
      <path id="Poppins-Regular-79" d="M 3514 3507
L 1402 -1651
L 800 -1651
L 1491 38
L 77 3507
L 723 3507
L 1824 666
L 2912 3507
L 3514 3507
z
" transform="scale(0.015625)"/>
      <path id="Poppins-Regular-73" d="M 1734 -58
Q 1331 -58 1011 80
Q 691 218 505 464
Q 320 710 301 1030
L 902 1030
Q 928 768 1149 601
Q 1370 435 1728 435
Q 2061 435 2253 582
Q 2445 730 2445 954
Q 2445 1184 2240 1296
Q 2035 1408 1606 1517
Q 1216 1619 969 1724
Q 723 1830 547 2038
Q 371 2246 371 2586
Q 371 2854 531 3078
Q 691 3302 985 3433
Q 1280 3565 1658 3565
Q 2240 3565 2598 3270
Q 2957 2976 2982 2464
L 2400 2464
Q 2381 2739 2179 2905
Q 1978 3072 1638 3072
Q 1325 3072 1139 2937
Q 954 2803 954 2586
Q 954 2413 1066 2301
Q 1178 2189 1347 2121
Q 1517 2054 1818 1971
Q 2195 1869 2432 1769
Q 2669 1670 2838 1472
Q 3008 1274 3014 954
Q 3014 666 2854 435
Q 2694 205 2403 73
Q 2112 -58 1734 -58
z
" transform="scale(0.015625)"/>
     </defs>
     <use xlink:href="#Poppins-Regular-46"/>
     <use xlink:href="#Poppins-Regular-72" x="50.399994"/>
     <use xlink:href="#Poppins-Regular-65" x="87.699982"/>
     <use xlink:href="#Poppins-Regular-71" x="149.699966"/>
     <use xlink:href="#Poppins-Regular-75" x="217.299957"/>
     <use xlink:href="#Poppins-Regular-65" x="281.299942"/>
     <use xlink:href="#Poppins-Regular-6e" x="343.299927"/>
     <use xlink:href="#Poppins-Regular-74" x="407.299911"/>
     <use xlink:href="#Poppins-Regular-20" x="443.699905"/>
     <use xlink:href="#Poppins-Regular-42" x="470.399902"/>
     <use xlink:href="#Poppins-Regular-75" x="531.69989"/>
     <use xlink:href="#Poppins-Regular-79" x="595.699875"/>
     <use xlink:href="#Poppins-Regular-65" x="651.999863"/>
     <use xlink:href="#Poppins-Regular-72" x="713.999847"/>
     <use xlink:href="#Poppins-Regular-73" x="751.299835"/>
    </g>
   </g>
   <g id="text_9">
    <!-- High-Spenders -->
    <g transform="translate(274.556823 321.517942) scale(0.12 -0.12)">
     <defs>
      <path id="Poppins-Regular-48" d="M 3930 4461
L 3930 0
L 3347 0
L 3347 2022
L 1075 2022
L 1075 0
L 493 0
L 493 4461
L 1075 4461
L 1075 2502
L 3347 2502
L 3347 4461
L 3930 4461
z
" transform="scale(0.015625)"/>
      <path id="Poppins-Regular-69" d="M 794 4077
Q 627 4077 512 4192
Q 397 4307 397 4474
Q 397 4640 512 4755
Q 627 4870 794 4870
Q 954 4870 1066 4755
Q 1178 4640 1178 4474
Q 1178 4307 1066 4192
Q 954 4077 794 4077
z
M 1075 3507
L 1075 0
L 493 0
L 493 3507
L 1075 3507
z
" transform="scale(0.015625)"/>
      <path id="Poppins-Regular-67" d="M 1939 3565
Q 2394 3565 2736 3366
Q 3078 3168 3245 2867
L 3245 3507
L 3834 3507
L 3834 -77
Q 3834 -557 3629 -931
Q 3424 -1306 3043 -1517
Q 2662 -1728 2157 -1728
Q 1466 -1728 1005 -1401
Q 544 -1075 461 -512
L 1037 -512
Q 1133 -832 1433 -1027
Q 1734 -1222 2157 -1222
Q 2637 -1222 2941 -921
Q 3245 -621 3245 -77
L 3245 659
Q 3072 352 2733 147
Q 2394 -58 1939 -58
Q 1472 -58 1091 172
Q 710 403 492 819
Q 275 1235 275 1766
Q 275 2304 492 2710
Q 710 3117 1091 3341
Q 1472 3565 1939 3565
z
M 3245 1760
Q 3245 2157 3085 2451
Q 2925 2746 2653 2902
Q 2381 3059 2054 3059
Q 1728 3059 1459 2905
Q 1190 2752 1030 2457
Q 870 2163 870 1766
Q 870 1363 1030 1065
Q 1190 768 1459 611
Q 1728 454 2054 454
Q 2381 454 2653 611
Q 2925 768 3085 1065
Q 3245 1363 3245 1760
z
" transform="scale(0.015625)"/>
      <path id="Poppins-Regular-68" d="M 2234 3571
Q 2630 3571 2950 3401
Q 3270 3232 3452 2893
Q 3635 2554 3635 2067
L 3635 0
L 3059 0
L 3059 1984
Q 3059 2509 2796 2787
Q 2534 3066 2080 3066
Q 1619 3066 1347 2778
Q 1075 2490 1075 1939
L 1075 0
L 493 0
L 493 4736
L 1075 4736
L 1075 3008
Q 1248 3277 1552 3424
Q 1856 3571 2234 3571
z
" transform="scale(0.015625)"/>
      <path id="Poppins-Regular-2d" d="M 2925 2592
L 2925 2099
L 371 2099
L 371 2592
L 2925 2592
z
" transform="scale(0.015625)"/>
      <path id="Poppins-Regular-53" d="M 1907 -45
Q 1466 -45 1117 112
Q 768 269 569 547
Q 371 826 365 1190
L 986 1190
Q 1018 877 1245 662
Q 1472 448 1907 448
Q 2323 448 2563 656
Q 2803 864 2803 1190
Q 2803 1446 2662 1606
Q 2522 1766 2310 1849
Q 2099 1933 1741 2029
Q 1299 2144 1033 2259
Q 768 2374 579 2620
Q 390 2867 390 3283
Q 390 3648 576 3929
Q 762 4211 1098 4364
Q 1434 4518 1869 4518
Q 2496 4518 2896 4204
Q 3296 3891 3347 3373
L 2707 3373
Q 2675 3629 2438 3824
Q 2202 4019 1811 4019
Q 1446 4019 1216 3830
Q 986 3642 986 3302
Q 986 3059 1123 2905
Q 1261 2752 1462 2672
Q 1664 2592 2029 2490
Q 2470 2368 2739 2249
Q 3008 2131 3200 1884
Q 3392 1638 3392 1216
Q 3392 890 3219 602
Q 3046 314 2707 134
Q 2368 -45 1907 -45
z
" transform="scale(0.015625)"/>
      <path id="Poppins-Regular-70" d="M 1075 2861
Q 1248 3162 1590 3363
Q 1933 3565 2387 3565
Q 2854 3565 3235 3341
Q 3616 3117 3833 2710
Q 4051 2304 4051 1766
Q 4051 1235 3833 819
Q 3616 403 3235 172
Q 2854 -58 2387 -58
Q 1939 -58 1596 144
Q 1254 346 1075 646
L 1075 -1664
L 493 -1664
L 493 3507
L 1075 3507
L 1075 2861
z
M 3456 1766
Q 3456 2163 3296 2457
Q 3136 2752 2864 2905
Q 2592 3059 2266 3059
Q 1946 3059 1674 2902
Q 1402 2746 1238 2448
Q 1075 2150 1075 1760
Q 1075 1363 1238 1065
Q 1402 768 1674 611
Q 1946 454 2266 454
Q 2592 454 2864 611
Q 3136 768 3296 1065
Q 3456 1363 3456 1766
z
" transform="scale(0.015625)"/>
      <path id="Poppins-Regular-64" d="M 275 1766
Q 275 2304 492 2710
Q 710 3117 1091 3341
Q 1472 3565 1946 3565
Q 2355 3565 2707 3376
Q 3059 3187 3245 2880
L 3245 4736
L 3834 4736
L 3834 0
L 3245 0
L 3245 659
Q 3072 346 2733 144
Q 2394 -58 1939 -58
Q 1472 -58 1091 172
Q 710 403 492 819
Q 275 1235 275 1766
z
M 3245 1760
Q 3245 2157 3085 2451
Q 2925 2746 2653 2902
Q 2381 3059 2054 3059
Q 1728 3059 1459 2905
Q 1190 2752 1030 2457
Q 870 2163 870 1766
Q 870 1363 1030 1065
Q 1190 768 1459 611
Q 1728 454 2054 454
Q 2381 454 2653 611
Q 2925 768 3085 1065
Q 3245 1363 3245 1760
z
" transform="scale(0.015625)"/>
     </defs>
     <use xlink:href="#Poppins-Regular-48"/>
     <use xlink:href="#Poppins-Regular-69" x="69.199982"/>
     <use xlink:href="#Poppins-Regular-67" x="93.799973"/>
     <use xlink:href="#Poppins-Regular-68" x="161.399963"/>
     <use xlink:href="#Poppins-Regular-2d" x="225.399948"/>
     <use xlink:href="#Poppins-Regular-53" x="280.499939"/>
     <use xlink:href="#Poppins-Regular-70" x="339.199936"/>
     <use xlink:href="#Poppins-Regular-65" x="406.799927"/>
     <use xlink:href="#Poppins-Regular-6e" x="468.799911"/>
     <use xlink:href="#Poppins-Regular-64" x="532.799896"/>
     <use xlink:href="#Poppins-Regular-65" x="600.399887"/>
     <use xlink:href="#Poppins-Regular-72" x="662.399872"/>
     <use xlink:href="#Poppins-Regular-73" x="699.69986"/>
    </g>
   </g>
   <g id="text_10">
    <!-- Loyal Members -->
    <g transform="translate(275.739021 56.592343) scale(0.12 -0.12)">
     <defs>
      <path id="Poppins-Regular-4c" d="M 1075 474
L 2637 474
L 2637 0
L 493 0
L 493 4461
L 1075 4461
L 1075 474
z
" transform="scale(0.015625)"/>
      <path id="Poppins-Regular-6f" d="M 2022 -58
Q 1530 -58 1130 166
Q 730 390 502 803
Q 275 1216 275 1760
Q 275 2298 508 2710
Q 742 3123 1145 3344
Q 1549 3565 2048 3565
Q 2547 3565 2950 3344
Q 3354 3123 3587 2713
Q 3821 2304 3821 1760
Q 3821 1216 3581 803
Q 3341 390 2931 166
Q 2522 -58 2022 -58
z
M 2022 454
Q 2336 454 2611 601
Q 2886 749 3056 1043
Q 3226 1338 3226 1760
Q 3226 2182 3059 2476
Q 2893 2771 2624 2915
Q 2355 3059 2042 3059
Q 1722 3059 1456 2915
Q 1190 2771 1030 2476
Q 870 2182 870 1760
Q 870 1331 1027 1036
Q 1184 742 1446 598
Q 1709 454 2022 454
z
" transform="scale(0.015625)"/>
      <path id="Poppins-Regular-61" d="M 275 1766
Q 275 2304 492 2710
Q 710 3117 1091 3341
Q 1472 3565 1939 3565
Q 2400 3565 2739 3366
Q 3078 3168 3245 2867
L 3245 3507
L 3834 3507
L 3834 0
L 3245 0
L 3245 653
Q 3072 346 2729 144
Q 2387 -58 1933 -58
Q 1466 -58 1088 172
Q 710 403 492 819
Q 275 1235 275 1766
z
M 3245 1760
Q 3245 2157 3085 2451
Q 2925 2746 2653 2902
Q 2381 3059 2054 3059
Q 1728 3059 1459 2905
Q 1190 2752 1030 2457
Q 870 2163 870 1766
Q 870 1363 1030 1065
Q 1190 768 1459 611
Q 1728 454 2054 454
Q 2381 454 2653 611
Q 2925 768 3085 1065
Q 3245 1363 3245 1760
z
" transform="scale(0.015625)"/>
      <path id="Poppins-Regular-6c" d="M 1075 4736
L 1075 0
L 493 0
L 493 4736
L 1075 4736
z
" transform="scale(0.015625)"/>
      <path id="Poppins-Regular-4d" d="M 5018 4429
L 5018 0
L 4435 0
L 4435 3302
L 2963 0
L 2554 0
L 1075 3309
L 1075 0
L 493 0
L 493 4429
L 1120 4429
L 2758 768
L 4397 4429
L 5018 4429
z
" transform="scale(0.015625)"/>
      <path id="Poppins-Regular-6d" d="M 4710 3571
Q 5120 3571 5440 3401
Q 5760 3232 5945 2893
Q 6131 2554 6131 2067
L 6131 0
L 5555 0
L 5555 1984
Q 5555 2509 5296 2787
Q 5037 3066 4595 3066
Q 4141 3066 3872 2774
Q 3603 2483 3603 1933
L 3603 0
L 3027 0
L 3027 1984
Q 3027 2509 2768 2787
Q 2509 3066 2067 3066
Q 1613 3066 1344 2774
Q 1075 2483 1075 1933
L 1075 0
L 493 0
L 493 3507
L 1075 3507
L 1075 3002
Q 1248 3277 1539 3424
Q 1830 3571 2182 3571
Q 2624 3571 2963 3372
Q 3302 3174 3469 2790
Q 3616 3162 3955 3366
Q 4294 3571 4710 3571
z
" transform="scale(0.015625)"/>
      <path id="Poppins-Regular-62" d="M 1075 2854
Q 1254 3168 1600 3366
Q 1946 3565 2387 3565
Q 2861 3565 3238 3341
Q 3616 3117 3833 2710
Q 4051 2304 4051 1766
Q 4051 1235 3833 819
Q 3616 403 3235 172
Q 2854 -58 2387 -58
Q 1933 -58 1590 140
Q 1248 339 1075 646
L 1075 0
L 493 0
L 493 4736
L 1075 4736
L 1075 2854
z
M 3456 1766
Q 3456 2163 3296 2457
Q 3136 2752 2864 2905
Q 2592 3059 2266 3059
Q 1946 3059 1674 2902
Q 1402 2746 1238 2448
Q 1075 2150 1075 1760
Q 1075 1363 1238 1065
Q 1402 768 1674 611
Q 1946 454 2266 454
Q 2592 454 2864 611
Q 3136 768 3296 1065
Q 3456 1363 3456 1766
z
" transform="scale(0.015625)"/>
     </defs>
     <use xlink:href="#Poppins-Regular-4c"/>
     <use xlink:href="#Poppins-Regular-6f" x="43.199997"/>
     <use xlink:href="#Poppins-Regular-79" x="107.199982"/>
     <use xlink:href="#Poppins-Regular-61" x="163.499969"/>
     <use xlink:href="#Poppins-Regular-6c" x="231.09996"/>
     <use xlink:href="#Poppins-Regular-20" x="255.699951"/>
     <use xlink:href="#Poppins-Regular-4d" x="282.399948"/>
     <use xlink:href="#Poppins-Regular-65" x="368.499939"/>
     <use xlink:href="#Poppins-Regular-6d" x="430.499924"/>
     <use xlink:href="#Poppins-Regular-62" x="533.499908"/>
     <use xlink:href="#Poppins-Regular-65" x="601.099899"/>
     <use xlink:href="#Poppins-Regular-72" x="663.099884"/>
     <use xlink:href="#Poppins-Regular-73" x="700.399872"/>
    </g>
   </g>
   <g id="text_11">
    <!-- E-commerce Customer Segmentation -->
    <g transform="translate(43.784812 22.88125) scale(0.2 -0.2)">
     <defs>
      <path id="Poppins-SemiBold-45" d="M 1338 3744
L 1338 2624
L 2842 2624
L 2842 1914
L 1338 1914
L 1338 730
L 3034 730
L 3034 0
L 442 0
L 442 4474
L 3034 4474
L 3034 3744
L 1338 3744
z
" transform="scale(0.015625)"/>
      <path id="Poppins-SemiBold-2d" d="M 3168 2662
L 3168 1907
L 454 1907
L 454 2662
L 3168 2662
z
" transform="scale(0.015625)"/>
      <path id="Poppins-SemiBold-63" d="M 211 1773
Q 211 2323 435 2736
Q 659 3149 1056 3376
Q 1453 3603 1965 3603
Q 2624 3603 3056 3273
Q 3488 2944 3635 2349
L 2669 2349
Q 2592 2579 2409 2710
Q 2227 2842 1958 2842
Q 1574 2842 1350 2563
Q 1126 2285 1126 1773
Q 1126 1267 1350 988
Q 1574 710 1958 710
Q 2502 710 2669 1197
L 3635 1197
Q 3488 621 3053 281
Q 2618 -58 1965 -58
Q 1453 -58 1056 169
Q 659 397 435 809
Q 211 1222 211 1773
z
" transform="scale(0.015625)"/>
      <path id="Poppins-SemiBold-6f" d="M 2016 -58
Q 1504 -58 1094 169
Q 685 397 451 813
Q 218 1229 218 1773
Q 218 2317 458 2733
Q 698 3149 1114 3376
Q 1530 3603 2042 3603
Q 2554 3603 2970 3376
Q 3386 3149 3626 2733
Q 3866 2317 3866 1773
Q 3866 1229 3619 813
Q 3373 397 2953 169
Q 2534 -58 2016 -58
z
M 2016 723
Q 2259 723 2473 841
Q 2688 960 2816 1197
Q 2944 1434 2944 1773
Q 2944 2278 2678 2550
Q 2413 2822 2029 2822
Q 1645 2822 1385 2550
Q 1126 2278 1126 1773
Q 1126 1267 1379 995
Q 1632 723 2016 723
z
" transform="scale(0.015625)"/>
      <path id="Poppins-SemiBold-6d" d="M 4845 3597
Q 5498 3597 5898 3197
Q 6298 2797 6298 2080
L 6298 0
L 5402 0
L 5402 1958
Q 5402 2374 5190 2595
Q 4979 2816 4614 2816
Q 4250 2816 4035 2595
Q 3821 2374 3821 1958
L 3821 0
L 2925 0
L 2925 1958
Q 2925 2374 2713 2595
Q 2502 2816 2138 2816
Q 1766 2816 1552 2595
Q 1338 2374 1338 1958
L 1338 0
L 442 0
L 442 3546
L 1338 3546
L 1338 3117
Q 1510 3341 1782 3469
Q 2054 3597 2381 3597
Q 2797 3597 3123 3421
Q 3450 3245 3629 2918
Q 3802 3226 4131 3411
Q 4461 3597 4845 3597
z
" transform="scale(0.015625)"/>
      <path id="Poppins-SemiBold-65" d="M 3738 1850
Q 3738 1658 3712 1504
L 1120 1504
Q 1152 1120 1389 902
Q 1626 685 1971 685
Q 2470 685 2682 1114
L 3648 1114
Q 3494 602 3059 272
Q 2624 -58 1990 -58
Q 1478 -58 1072 169
Q 666 397 438 813
Q 211 1229 211 1773
Q 211 2323 435 2739
Q 659 3155 1062 3379
Q 1466 3603 1990 3603
Q 2496 3603 2896 3385
Q 3296 3168 3517 2768
Q 3738 2368 3738 1850
z
M 2810 2106
Q 2803 2451 2560 2659
Q 2317 2867 1965 2867
Q 1632 2867 1405 2665
Q 1178 2464 1126 2106
L 2810 2106
z
" transform="scale(0.015625)"/>
      <path id="Poppins-SemiBold-72" d="M 1338 2995
Q 1510 3277 1788 3437
Q 2067 3597 2426 3597
L 2426 2656
L 2189 2656
Q 1766 2656 1552 2457
Q 1338 2259 1338 1766
L 1338 0
L 442 0
L 442 3546
L 1338 3546
L 1338 2995
z
" transform="scale(0.015625)"/>
      <path id="Poppins-SemiBold-20" transform="scale(0.015625)"/>
      <path id="Poppins-SemiBold-43" d="M 224 2240
Q 224 2899 521 3420
Q 819 3942 1334 4233
Q 1850 4525 2490 4525
Q 3238 4525 3801 4141
Q 4365 3757 4589 3078
L 3558 3078
Q 3405 3398 3126 3558
Q 2848 3718 2483 3718
Q 2093 3718 1789 3536
Q 1485 3354 1315 3021
Q 1146 2688 1146 2240
Q 1146 1798 1315 1462
Q 1485 1126 1789 944
Q 2093 762 2483 762
Q 2848 762 3126 925
Q 3405 1088 3558 1408
L 4589 1408
Q 4365 723 3805 342
Q 3245 -38 2490 -38
Q 1850 -38 1334 253
Q 819 544 521 1062
Q 224 1581 224 2240
z
" transform="scale(0.015625)"/>
      <path id="Poppins-SemiBold-75" d="M 3789 3546
L 3789 0
L 2886 0
L 2886 448
Q 2714 218 2435 86
Q 2157 -45 1830 -45
Q 1414 -45 1094 131
Q 774 307 592 649
Q 410 992 410 1466
L 410 3546
L 1306 3546
L 1306 1594
Q 1306 1171 1517 944
Q 1728 717 2093 717
Q 2464 717 2675 944
Q 2886 1171 2886 1594
L 2886 3546
L 3789 3546
z
" transform="scale(0.015625)"/>
      <path id="Poppins-SemiBold-73" d="M 1798 -58
Q 1363 -58 1017 99
Q 672 256 470 525
Q 269 794 250 1120
L 1152 1120
Q 1178 915 1354 780
Q 1530 646 1792 646
Q 2048 646 2192 748
Q 2336 851 2336 1011
Q 2336 1184 2160 1270
Q 1984 1357 1600 1459
Q 1203 1555 950 1657
Q 698 1760 515 1971
Q 333 2182 333 2541
Q 333 2835 502 3078
Q 672 3322 989 3462
Q 1306 3603 1734 3603
Q 2368 3603 2745 3286
Q 3123 2970 3162 2432
L 2304 2432
Q 2285 2643 2128 2768
Q 1971 2893 1709 2893
Q 1466 2893 1334 2803
Q 1203 2714 1203 2554
Q 1203 2374 1382 2281
Q 1562 2189 1939 2093
Q 2323 1997 2572 1894
Q 2822 1792 3004 1577
Q 3187 1363 3194 1011
Q 3194 704 3024 461
Q 2854 218 2537 80
Q 2221 -58 1798 -58
z
" transform="scale(0.015625)"/>
      <path id="Poppins-SemiBold-74" d="M 1485 2810
L 1485 1094
Q 1485 915 1571 835
Q 1658 755 1862 755
L 2278 755
L 2278 0
L 1715 0
Q 582 0 582 1101
L 582 2810
L 160 2810
L 160 3546
L 582 3546
L 582 4422
L 1485 4422
L 1485 3546
L 2278 3546
L 2278 2810
L 1485 2810
z
" transform="scale(0.015625)"/>
      <path id="Poppins-SemiBold-53" d="M 1984 -45
Q 1517 -45 1142 115
Q 768 275 550 576
Q 333 877 326 1286
L 1286 1286
Q 1306 1011 1482 851
Q 1658 691 1965 691
Q 2278 691 2457 841
Q 2637 992 2637 1235
Q 2637 1434 2515 1562
Q 2394 1690 2211 1763
Q 2029 1837 1709 1926
Q 1274 2054 1002 2179
Q 730 2304 534 2557
Q 339 2810 339 3232
Q 339 3629 537 3923
Q 736 4218 1094 4374
Q 1453 4531 1914 4531
Q 2605 4531 3037 4195
Q 3469 3859 3514 3258
L 2528 3258
Q 2515 3488 2332 3638
Q 2150 3789 1850 3789
Q 1587 3789 1430 3654
Q 1274 3520 1274 3264
Q 1274 3085 1392 2966
Q 1510 2848 1686 2774
Q 1862 2701 2182 2605
Q 2618 2477 2893 2349
Q 3168 2221 3366 1965
Q 3565 1709 3565 1293
Q 3565 934 3379 627
Q 3194 320 2835 137
Q 2477 -45 1984 -45
z
" transform="scale(0.015625)"/>
      <path id="Poppins-SemiBold-67" d="M 1830 3603
Q 2227 3603 2528 3446
Q 2829 3290 3002 3040
L 3002 3546
L 3904 3546
L 3904 -26
Q 3904 -518 3705 -905
Q 3507 -1293 3110 -1520
Q 2714 -1747 2150 -1747
Q 1395 -1747 912 -1395
Q 429 -1043 365 -435
L 1254 -435
Q 1325 -678 1558 -822
Q 1792 -966 2125 -966
Q 2515 -966 2758 -732
Q 3002 -499 3002 -26
L 3002 525
Q 2829 275 2525 108
Q 2221 -58 1830 -58
Q 1382 -58 1011 172
Q 640 403 425 822
Q 211 1242 211 1786
Q 211 2323 425 2739
Q 640 3155 1008 3379
Q 1376 3603 1830 3603
z
M 3002 1773
Q 3002 2099 2874 2332
Q 2746 2566 2528 2691
Q 2310 2816 2061 2816
Q 1811 2816 1600 2694
Q 1389 2573 1257 2339
Q 1126 2106 1126 1786
Q 1126 1466 1257 1226
Q 1389 986 1603 858
Q 1818 730 2061 730
Q 2310 730 2528 854
Q 2746 979 2874 1212
Q 3002 1446 3002 1773
z
" transform="scale(0.015625)"/>
      <path id="Poppins-SemiBold-6e" d="M 2406 3597
Q 3040 3597 3430 3197
Q 3821 2797 3821 2080
L 3821 0
L 2925 0
L 2925 1958
Q 2925 2381 2713 2608
Q 2502 2835 2138 2835
Q 1766 2835 1552 2608
Q 1338 2381 1338 1958
L 1338 0
L 442 0
L 442 3546
L 1338 3546
L 1338 3104
Q 1517 3334 1795 3465
Q 2074 3597 2406 3597
z
" transform="scale(0.015625)"/>
      <path id="Poppins-SemiBold-61" d="M 211 1786
Q 211 2323 425 2739
Q 640 3155 1008 3379
Q 1376 3603 1830 3603
Q 2227 3603 2524 3443
Q 2822 3283 3002 3040
L 3002 3546
L 3904 3546
L 3904 0
L 3002 0
L 3002 518
Q 2829 269 2525 105
Q 2221 -58 1824 -58
Q 1376 -58 1008 172
Q 640 403 425 822
Q 211 1242 211 1786
z
M 3002 1773
Q 3002 2099 2874 2332
Q 2746 2566 2528 2691
Q 2310 2816 2061 2816
Q 1811 2816 1600 2694
Q 1389 2573 1257 2339
Q 1126 2106 1126 1786
Q 1126 1466 1257 1226
Q 1389 986 1603 858
Q 1818 730 2061 730
Q 2310 730 2528 854
Q 2746 979 2874 1212
Q 3002 1446 3002 1773
z
" transform="scale(0.015625)"/>
      <path id="Poppins-SemiBold-69" d="M 896 3968
Q 659 3968 502 4118
Q 346 4269 346 4493
Q 346 4717 502 4867
Q 659 5018 896 5018
Q 1133 5018 1289 4867
Q 1446 4717 1446 4493
Q 1446 4269 1289 4118
Q 1133 3968 896 3968
z
M 1338 3546
L 1338 0
L 442 0
L 442 3546
L 1338 3546
z
" transform="scale(0.015625)"/>
     </defs>
     <use xlink:href="#Poppins-SemiBold-45"/>
     <use xlink:href="#Poppins-SemiBold-2d" x="53.199997"/>
     <use xlink:href="#Poppins-SemiBold-63" x="111.499985"/>
     <use xlink:href="#Poppins-SemiBold-6f" x="171.699982"/>
     <use xlink:href="#Poppins-SemiBold-6d" x="235.499969"/>
     <use xlink:href="#Poppins-SemiBold-6d" x="340.299957"/>
     <use xlink:href="#Poppins-SemiBold-65" x="445.099945"/>
     <use xlink:href="#Poppins-SemiBold-72" x="506.799942"/>
     <use xlink:href="#Poppins-SemiBold-63" x="547.199936"/>
     <use xlink:href="#Poppins-SemiBold-65" x="607.399933"/>
     <use xlink:href="#Poppins-SemiBold-20" x="669.09993"/>
     <use xlink:href="#Poppins-SemiBold-43" x="692.899918"/>
     <use xlink:href="#Poppins-SemiBold-75" x="769.699905"/>
     <use xlink:href="#Poppins-SemiBold-73" x="835.799896"/>
     <use xlink:href="#Poppins-SemiBold-74" x="890.299881"/>
     <use xlink:href="#Poppins-SemiBold-6f" x="929.099869"/>
     <use xlink:href="#Poppins-SemiBold-6d" x="992.899857"/>
     <use xlink:href="#Poppins-SemiBold-65" x="1097.699844"/>
     <use xlink:href="#Poppins-SemiBold-72" x="1159.399841"/>
     <use xlink:href="#Poppins-SemiBold-20" x="1199.799835"/>
     <use xlink:href="#Poppins-SemiBold-53" x="1223.599823"/>
     <use xlink:href="#Poppins-SemiBold-65" x="1284.499817"/>
     <use xlink:href="#Poppins-SemiBold-67" x="1346.199814"/>
     <use xlink:href="#Poppins-SemiBold-6d" x="1413.999802"/>
     <use xlink:href="#Poppins-SemiBold-65" x="1518.799789"/>
     <use xlink:href="#Poppins-SemiBold-6e" x="1580.499786"/>
     <use xlink:href="#Poppins-SemiBold-74" x="1646.599777"/>
     <use xlink:href="#Poppins-SemiBold-61" x="1685.399765"/>
     <use xlink:href="#Poppins-SemiBold-74" x="1753.199753"/>
     <use xlink:href="#Poppins-SemiBold-69" x="1791.999741"/>
     <use xlink:href="#Poppins-SemiBold-6f" x="1819.799728"/>
     <use xlink:href="#Poppins-SemiBold-6e" x="1883.599716"/>
    </g>
   </g>
  </g>
  <g id="text_12">
   <!-- Source: PyRetailScience - 2024 -->
   <g style="fill: #696969" transform="translate(7.2 347.517562) scale(0.1 -0.1)">
    <defs>
     <path id="Poppins-LightItalic-53" d="M 1619 -45
Q 1216 -45 912 89
Q 608 224 441 467
Q 275 710 275 1024
Q 275 1107 282 1152
L 723 1152
Q 710 947 796 758
Q 883 570 1097 445
Q 1312 320 1651 320
Q 2125 320 2406 557
Q 2688 794 2688 1197
Q 2688 1440 2557 1603
Q 2426 1766 2234 1872
Q 2042 1978 1709 2112
Q 1318 2266 1088 2397
Q 858 2528 707 2758
Q 557 2989 582 3347
Q 595 3693 790 3958
Q 986 4224 1322 4374
Q 1658 4525 2086 4525
Q 2509 4525 2813 4381
Q 3117 4237 3267 3987
Q 3418 3738 3398 3437
L 2931 3437
Q 2944 3610 2851 3776
Q 2758 3942 2556 4048
Q 2355 4154 2061 4154
Q 1606 4154 1318 3933
Q 1030 3712 1030 3334
Q 1030 3110 1158 2956
Q 1286 2803 1472 2700
Q 1658 2598 1984 2464
Q 2362 2310 2595 2176
Q 2829 2042 2992 1818
Q 3155 1594 3155 1254
Q 3155 1171 3149 1126
Q 3123 800 2931 531
Q 2739 262 2403 108
Q 2067 -45 1619 -45
z
" transform="scale(0.015625)"/>
     <path id="Poppins-LightItalic-6f" d="M 1728 -51
Q 1293 -51 960 125
Q 627 301 444 624
Q 262 947 262 1382
Q 262 1971 531 2467
Q 800 2963 1280 3254
Q 1760 3546 2349 3546
Q 2784 3546 3117 3370
Q 3450 3194 3635 2870
Q 3821 2547 3821 2112
Q 3821 1517 3545 1024
Q 3270 531 2793 240
Q 2317 -51 1728 -51
z
M 1779 326
Q 2234 326 2595 569
Q 2957 813 3158 1216
Q 3360 1619 3360 2086
Q 3360 2611 3056 2886
Q 2752 3162 2285 3162
Q 1830 3162 1475 2918
Q 1120 2675 921 2272
Q 723 1869 723 1402
Q 723 883 1024 604
Q 1325 326 1779 326
z
" transform="scale(0.015625)"/>
     <path id="Poppins-LightItalic-75" d="M 3834 3494
L 3219 0
L 2771 0
L 2880 614
Q 2662 288 2316 115
Q 1971 -58 1574 -58
Q 1037 -58 710 233
Q 384 525 384 1082
Q 384 1286 416 1453
L 774 3494
L 1216 3494
L 864 1504
Q 838 1357 838 1197
Q 838 774 1072 553
Q 1306 333 1722 333
Q 2208 333 2560 630
Q 2912 928 3034 1504
L 3386 3494
L 3834 3494
z
" transform="scale(0.015625)"/>
     <path id="Poppins-LightItalic-72" d="M 1133 2797
Q 1344 3162 1683 3360
Q 2022 3558 2470 3558
L 2387 3091
L 2259 3091
Q 1798 3091 1465 2854
Q 1133 2618 1005 2074
L 640 0
L 192 0
L 806 3494
L 1254 3494
L 1133 2797
z
" transform="scale(0.015625)"/>
     <path id="Poppins-LightItalic-63" d="M 294 1747
Q 390 2291 681 2697
Q 973 3104 1395 3325
Q 1818 3546 2310 3546
Q 2957 3546 3318 3226
Q 3680 2906 3706 2355
L 3226 2355
Q 3206 2733 2947 2947
Q 2688 3162 2246 3162
Q 1702 3162 1289 2794
Q 877 2426 755 1747
Q 723 1587 723 1382
Q 723 870 1001 598
Q 1280 326 1741 326
Q 2189 326 2521 540
Q 2854 755 3014 1139
L 3494 1139
Q 3277 602 2797 275
Q 2317 -51 1677 -51
Q 1030 -51 643 320
Q 256 691 256 1338
Q 256 1536 294 1747
z
" transform="scale(0.015625)"/>
     <path id="Poppins-LightItalic-65" d="M 2330 3546
Q 2771 3546 3084 3376
Q 3398 3206 3561 2912
Q 3725 2618 3725 2240
Q 3725 2067 3699 1933
Q 3661 1741 3622 1587
L 723 1587
Q 704 1466 704 1357
Q 704 864 1001 595
Q 1299 326 1760 326
Q 2202 326 2534 537
Q 2867 749 3021 1107
L 3501 1107
Q 3283 595 2806 272
Q 2330 -51 1696 -51
Q 1043 -51 649 323
Q 256 698 256 1344
Q 256 1536 294 1747
Q 390 2291 681 2700
Q 973 3110 1401 3328
Q 1830 3546 2330 3546
z
M 3238 1920
Q 3270 2099 3270 2221
Q 3270 2675 2982 2918
Q 2694 3162 2246 3162
Q 1920 3162 1619 3021
Q 1318 2880 1094 2598
Q 870 2317 787 1920
L 3238 1920
z
" transform="scale(0.015625)"/>
     <path id="Poppins-LightItalic-3a" d="M 262 -32
Q 141 -32 64 45
Q -13 122 -13 243
Q -13 397 105 512
Q 224 627 378 627
Q 499 627 576 553
Q 653 480 653 358
Q 653 205 534 86
Q 416 -32 262 -32
z
M 262 2784
Q 141 2784 64 2861
Q -13 2938 -13 3059
Q -13 3213 105 3328
Q 224 3443 378 3443
Q 499 3443 576 3369
Q 653 3296 653 3174
Q 653 3021 534 2902
Q 416 2784 262 2784
z
" transform="scale(0.015625)"/>
     <path id="Poppins-LightItalic-20" transform="scale(0.015625)"/>
     <path id="Poppins-LightItalic-50" d="M 3616 3187
Q 3514 2611 3072 2259
Q 2630 1907 1875 1907
L 973 1907
L 640 0
L 192 0
L 979 4474
L 2330 4474
Q 2989 4474 3315 4198
Q 3642 3923 3642 3456
Q 3642 3309 3616 3187
z
M 1946 2278
Q 2995 2278 3155 3187
Q 3181 3354 3181 3424
Q 3181 4115 2266 4115
L 1363 4115
L 1043 2278
L 1946 2278
z
" transform="scale(0.015625)"/>
     <path id="Poppins-LightItalic-79" d="M 890 3494
L 1549 531
L 3219 3494
L 3686 3494
L 710 -1645
L 237 -1645
L 1210 26
L 390 3494
L 890 3494
z
" transform="scale(0.015625)"/>
     <path id="Poppins-LightItalic-52" d="M 2330 4474
Q 2989 4474 3318 4192
Q 3648 3910 3648 3437
Q 3648 3354 3622 3174
Q 3539 2688 3200 2345
Q 2861 2003 2298 1901
L 3110 0
L 2573 0
L 1798 1869
L 966 1869
L 640 0
L 192 0
L 979 4474
L 2330 4474
z
M 3155 3174
Q 3174 3302 3174 3405
Q 3174 3744 2950 3929
Q 2726 4115 2259 4115
L 1363 4115
L 1030 2227
L 1933 2227
Q 2464 2227 2771 2483
Q 3078 2739 3155 3174
z
" transform="scale(0.015625)"/>
     <path id="Poppins-LightItalic-74" d="M 934 947
Q 915 832 915 749
Q 915 544 1027 464
Q 1139 384 1395 384
L 1805 384
L 1734 0
L 1254 0
Q 858 0 659 153
Q 461 307 461 659
Q 461 800 486 947
L 870 3117
L 384 3117
L 454 3494
L 941 3494
L 1094 4371
L 1542 4371
L 1389 3494
L 2355 3494
L 2285 3117
L 1318 3117
L 934 947
z
" transform="scale(0.015625)"/>
     <path id="Poppins-LightItalic-61" d="M 294 1754
Q 390 2291 678 2697
Q 966 3104 1385 3325
Q 1805 3546 2285 3546
Q 2784 3546 3104 3315
Q 3424 3085 3520 2726
L 3654 3494
L 4102 3494
L 3488 0
L 3040 0
L 3174 774
Q 2957 416 2550 182
Q 2144 -51 1645 -51
Q 1229 -51 915 121
Q 602 294 429 611
Q 256 928 256 1357
Q 256 1542 294 1754
z
M 3347 1747
Q 3379 1926 3379 2067
Q 3379 2566 3078 2860
Q 2778 3155 2298 3155
Q 1926 3155 1603 2988
Q 1280 2822 1056 2505
Q 832 2189 755 1754
Q 723 1562 723 1427
Q 723 922 1020 630
Q 1318 339 1798 339
Q 2157 339 2486 512
Q 2816 685 3043 1005
Q 3270 1325 3347 1747
z
" transform="scale(0.015625)"/>
     <path id="Poppins-LightItalic-69" d="M 1152 4154
Q 1030 4154 953 4227
Q 877 4301 877 4422
Q 877 4589 992 4701
Q 1107 4813 1267 4813
Q 1389 4813 1462 4742
Q 1536 4672 1536 4557
Q 1536 4390 1421 4272
Q 1306 4154 1152 4154
z
M 1254 3494
L 640 0
L 192 0
L 806 3494
L 1254 3494
z
" transform="scale(0.015625)"/>
     <path id="Poppins-LightItalic-6c" d="M 1478 4736
L 640 0
L 192 0
L 1030 4736
L 1478 4736
z
" transform="scale(0.015625)"/>
     <path id="Poppins-LightItalic-6e" d="M 2464 3558
Q 3002 3558 3325 3267
Q 3648 2976 3648 2419
Q 3648 2214 3616 2048
L 3251 0
L 2810 0
L 3162 1997
Q 3187 2144 3187 2310
Q 3187 2733 2956 2950
Q 2726 3168 2310 3168
Q 1805 3168 1446 2848
Q 1088 2528 979 1907
L 979 1926
L 640 0
L 192 0
L 806 3494
L 1254 3494
L 1146 2893
Q 1370 3213 1715 3385
Q 2061 3558 2464 3558
z
" transform="scale(0.015625)"/>
     <path id="Poppins-LightItalic-2d" d="M 2816 2560
L 2752 2182
L 262 2182
L 326 2560
L 2816 2560
z
" transform="scale(0.015625)"/>
     <path id="Poppins-LightItalic-32" d="M 64 352
Q 1402 1229 2170 1929
Q 2938 2630 3053 3290
Q 3078 3456 3078 3539
Q 3078 3859 2889 4051
Q 2701 4243 2278 4243
Q 1792 4243 1472 3939
Q 1152 3635 1037 3136
L 602 3136
Q 762 3846 1232 4236
Q 1702 4627 2349 4627
Q 2893 4627 3209 4361
Q 3526 4096 3526 3603
Q 3526 3443 3501 3309
Q 3366 2547 2598 1827
Q 1830 1107 768 410
L 3130 410
L 3066 32
L 6 32
L 64 352
z
" transform="scale(0.015625)"/>
     <path id="Poppins-LightItalic-30" d="M 506 2304
Q 698 3398 1142 4006
Q 1587 4614 2464 4614
Q 3130 4614 3421 4249
Q 3712 3885 3712 3226
Q 3712 2848 3616 2304
Q 3424 1210 2976 598
Q 2528 -13 1651 -13
Q 986 -13 698 348
Q 410 710 410 1370
Q 410 1747 506 2304
z
M 3174 2304
Q 3270 2835 3270 3187
Q 3270 3674 3068 3939
Q 2867 4205 2394 4205
Q 1933 4205 1645 3958
Q 1357 3712 1203 3302
Q 1050 2893 947 2304
Q 845 1722 845 1402
Q 845 922 1043 659
Q 1242 397 1722 397
Q 2182 397 2470 643
Q 2758 890 2912 1299
Q 3066 1709 3174 2304
z
" transform="scale(0.015625)"/>
     <path id="Poppins-LightItalic-34" d="M 90 1088
L 147 1427
L 3034 4563
L 3565 4563
L 3021 1478
L 3706 1478
L 3635 1088
L 2950 1088
L 2758 0
L 2317 0
L 2509 1088
L 90 1088
z
M 3053 4070
L 678 1478
L 2598 1478
L 3053 4070
z
" transform="scale(0.015625)"/>
    </defs>
    <use xlink:href="#Poppins-LightItalic-53"/>
    <use xlink:href="#Poppins-LightItalic-6f" x="56.599991"/>
    <use xlink:href="#Poppins-LightItalic-75" x="120.799988"/>
    <use xlink:href="#Poppins-LightItalic-72" x="184.099976"/>
    <use xlink:href="#Poppins-LightItalic-63" x="220.299973"/>
    <use xlink:href="#Poppins-LightItalic-65" x="281.59996"/>
    <use xlink:href="#Poppins-LightItalic-3a" x="343.799957"/>
    <use xlink:href="#Poppins-LightItalic-20" x="362.299942"/>
    <use xlink:href="#Poppins-LightItalic-50" x="391.799927"/>
    <use xlink:href="#Poppins-LightItalic-79" x="448.199921"/>
    <use xlink:href="#Poppins-LightItalic-52" x="502.699905"/>
    <use xlink:href="#Poppins-LightItalic-65" x="561.399902"/>
    <use xlink:href="#Poppins-LightItalic-74" x="623.599899"/>
    <use xlink:href="#Poppins-LightItalic-61" x="659.19989"/>
    <use xlink:href="#Poppins-LightItalic-69" x="726.699875"/>
    <use xlink:href="#Poppins-LightItalic-6c" x="749.599869"/>
    <use xlink:href="#Poppins-LightItalic-53" x="772.499863"/>
    <use xlink:href="#Poppins-LightItalic-63" x="829.099854"/>
    <use xlink:href="#Poppins-LightItalic-69" x="890.399841"/>
    <use xlink:href="#Poppins-LightItalic-65" x="913.299835"/>
    <use xlink:href="#Poppins-LightItalic-6e" x="975.499832"/>
    <use xlink:href="#Poppins-LightItalic-63" x="1038.79982"/>
    <use xlink:href="#Poppins-LightItalic-65" x="1100.099808"/>
    <use xlink:href="#Poppins-LightItalic-20" x="1162.299805"/>
    <use xlink:href="#Poppins-LightItalic-2d" x="1191.799789"/>
    <use xlink:href="#Poppins-LightItalic-20" x="1243.699783"/>
    <use xlink:href="#Poppins-LightItalic-32" x="1273.199768"/>
    <use xlink:href="#Poppins-LightItalic-30" x="1330.399765"/>
    <use xlink:href="#Poppins-LightItalic-32" x="1391.999756"/>
    <use xlink:href="#Poppins-LightItalic-34" x="1449.199753"/>
   </g>
  </g>
 </g>
 <defs>
  <clipPath id="p19a714099f">
   <rect x="111.417777" y="52.88125" width="254.668447" height="266.112"/>
  </clipPath>
 </defs>
</svg>
