<?xml version="1.0" encoding="utf-8" standalone="no"?>
<!DOCTYPE svg PUBLIC "-//W3C//DTD SVG 1.1//EN"
  "http://www.w3.org/Graphics/SVG/1.1/DTD/svg11.dtd">
<svg xmlns:xlink="http://www.w3.org/1999/xlink" width="531.8135pt" height="350.55325pt" viewBox="0 0 531.8135 350.55325" xmlns="http://www.w3.org/2000/svg" version="1.1">
 <metadata>
  <rdf:RDF xmlns:dc="http://purl.org/dc/elements/1.1/" xmlns:cc="http://creativecommons.org/ns#" xmlns:rdf="http://www.w3.org/1999/02/22-rdf-syntax-ns#">
   <cc:Work>
    <dc:type rdf:resource="http://purl.org/dc/dcmitype/StillImage"/>
    <dc:date>2025-02-28T18:00:31.934818</dc:date>
    <dc:format>image/svg+xml</dc:format>
    <dc:creator>
     <cc:Agent>
      <dc:title>Matplotlib v3.9.1.post1, https://matplotlib.org/</dc:title>
     </cc:Agent>
    </dc:creator>
   </cc:Work>
  </rdf:RDF>
 </metadata>
 <defs>
  <style type="text/css">*{stroke-linejoin: round; stroke-linecap: butt}</style>
 </defs>
 <g id="figure_1">
  <g id="patch_1">
   <path d="M -0 350.55325
L 531.8135 350.55325
L 531.8135 -0
L -0 -0
z
" style="fill: #ffffff"/>
  </g>
  <g id="axes_1">
   <g id="patch_2">
    <path d="M 61.329688 298.99325
L 418.449687 298.99325
L 418.449687 32.88125
L 61.329688 32.88125
z
" style="fill: #ffffff"/>
   </g>
   <g id="matplotlib.axis_1">
    <g id="xtick_1">
     <g id="line2d_1">
      <path d="M 77.562415 298.99325
L 77.562415 32.88125
" clip-path="url(#p7e115ec4b3)" style="fill: none; stroke: #dad8d7; stroke-opacity: 0.5; stroke-width: 0.8; stroke-linecap: square"/>
     </g>
     <g id="line2d_2">
      <defs>
       <path id="mc325fe2b78" d="M 0 0
L 0 3.5
" style="stroke: #000000; stroke-width: 0.8"/>
      </defs>
      <g>
       <use xlink:href="#mc325fe2b78" x="77.562415" y="298.99325" style="stroke: #000000; stroke-width: 0.8"/>
      </g>
     </g>
     <g id="text_1">
      <!-- Jan -->
      <g transform="translate(68.332727 313.39325) scale(0.1 -0.1)">
       <defs>
        <path id="Poppins-Regular-4a" d="M 2739 4461
L 2739 1165
Q 2739 614 2400 284
Q 2061 -45 1504 -45
Q 941 -45 601 291
Q 262 627 262 1210
L 845 1210
Q 851 883 1014 678
Q 1178 474 1504 474
Q 1830 474 1990 669
Q 2150 864 2150 1165
L 2150 4461
L 2739 4461
z
" transform="scale(0.015625)"/>
        <path id="Poppins-Regular-61" d="M 275 1766
Q 275 2304 492 2710
Q 710 3117 1091 3341
Q 1472 3565 1939 3565
Q 2400 3565 2739 3366
Q 3078 3168 3245 2867
L 3245 3507
L 3834 3507
L 3834 0
L 3245 0
L 3245 653
Q 3072 346 2729 144
Q 2387 -58 1933 -58
Q 1466 -58 1088 172
Q 710 403 492 819
Q 275 1235 275 1766
z
M 3245 1760
Q 3245 2157 3085 2451
Q 2925 2746 2653 2902
Q 2381 3059 2054 3059
Q 1728 3059 1459 2905
Q 1190 2752 1030 2457
Q 870 2163 870 1766
Q 870 1363 1030 1065
Q 1190 768 1459 611
Q 1728 454 2054 454
Q 2381 454 2653 611
Q 2925 768 3085 1065
Q 3245 1363 3245 1760
z
" transform="scale(0.015625)"/>
        <path id="Poppins-Regular-6e" d="M 2202 3571
Q 2842 3571 3238 3184
Q 3635 2797 3635 2067
L 3635 0
L 3059 0
L 3059 1984
Q 3059 2509 2796 2787
Q 2534 3066 2080 3066
Q 1619 3066 1347 2778
Q 1075 2490 1075 1939
L 1075 0
L 493 0
L 493 3507
L 1075 3507
L 1075 3008
Q 1248 3277 1545 3424
Q 1843 3571 2202 3571
z
" transform="scale(0.015625)"/>
       </defs>
       <use xlink:href="#Poppins-Regular-4a"/>
       <use xlink:href="#Poppins-Regular-61" x="52.999985"/>
       <use xlink:href="#Poppins-Regular-6e" x="120.599976"/>
      </g>
     </g>
    </g>
    <g id="xtick_2">
     <g id="line2d_3">
      <path d="M 107.076464 298.99325
L 107.076464 32.88125
" clip-path="url(#p7e115ec4b3)" style="fill: none; stroke: #dad8d7; stroke-opacity: 0.5; stroke-width: 0.8; stroke-linecap: square"/>
     </g>
     <g id="line2d_4">
      <g>
       <use xlink:href="#mc325fe2b78" x="107.076464" y="298.99325" style="stroke: #000000; stroke-width: 0.8"/>
      </g>
     </g>
     <g id="text_2">
      <!-- Feb -->
      <g transform="translate(98.076464 313.39325) scale(0.1 -0.1)">
       <defs>
        <path id="Poppins-Regular-46" d="M 3014 4461
L 3014 3987
L 1075 3987
L 1075 2483
L 2650 2483
L 2650 2010
L 1075 2010
L 1075 0
L 493 0
L 493 4461
L 3014 4461
z
" transform="scale(0.015625)"/>
        <path id="Poppins-Regular-65" d="M 3693 1888
Q 3693 1722 3674 1536
L 870 1536
Q 902 1018 1225 726
Q 1549 435 2010 435
Q 2387 435 2640 611
Q 2893 787 2995 1082
L 3622 1082
Q 3482 576 3059 259
Q 2637 -58 2010 -58
Q 1510 -58 1116 166
Q 723 390 499 803
Q 275 1216 275 1760
Q 275 2304 492 2713
Q 710 3123 1104 3344
Q 1498 3565 2010 3565
Q 2509 3565 2893 3347
Q 3277 3130 3485 2749
Q 3693 2368 3693 1888
z
M 3091 2010
Q 3091 2342 2944 2582
Q 2797 2822 2544 2947
Q 2291 3072 1984 3072
Q 1542 3072 1232 2790
Q 922 2509 877 2010
L 3091 2010
z
" transform="scale(0.015625)"/>
        <path id="Poppins-Regular-62" d="M 1075 2854
Q 1254 3168 1600 3366
Q 1946 3565 2387 3565
Q 2861 3565 3238 3341
Q 3616 3117 3833 2710
Q 4051 2304 4051 1766
Q 4051 1235 3833 819
Q 3616 403 3235 172
Q 2854 -58 2387 -58
Q 1933 -58 1590 140
Q 1248 339 1075 646
L 1075 0
L 493 0
L 493 4736
L 1075 4736
L 1075 2854
z
M 3456 1766
Q 3456 2163 3296 2457
Q 3136 2752 2864 2905
Q 2592 3059 2266 3059
Q 1946 3059 1674 2902
Q 1402 2746 1238 2448
Q 1075 2150 1075 1760
Q 1075 1363 1238 1065
Q 1402 768 1674 611
Q 1946 454 2266 454
Q 2592 454 2864 611
Q 3136 768 3296 1065
Q 3456 1363 3456 1766
z
" transform="scale(0.015625)"/>
       </defs>
       <use xlink:href="#Poppins-Regular-46"/>
       <use xlink:href="#Poppins-Regular-65" x="50.399994"/>
       <use xlink:href="#Poppins-Regular-62" x="112.399979"/>
      </g>
     </g>
    </g>
    <g id="xtick_3">
     <g id="line2d_5">
      <path d="M 136.590514 298.99325
L 136.590514 32.88125
" clip-path="url(#p7e115ec4b3)" style="fill: none; stroke: #dad8d7; stroke-opacity: 0.5; stroke-width: 0.8; stroke-linecap: square"/>
     </g>
     <g id="line2d_6">
      <g>
       <use xlink:href="#mc325fe2b78" x="136.590514" y="298.99325" style="stroke: #000000; stroke-width: 0.8"/>
      </g>
     </g>
     <g id="text_3">
      <!-- Mar -->
      <g transform="translate(127.041295 313.39325) scale(0.1 -0.1)">
       <defs>
        <path id="Poppins-Regular-4d" d="M 5018 4429
L 5018 0
L 4435 0
L 4435 3302
L 2963 0
L 2554 0
L 1075 3309
L 1075 0
L 493 0
L 493 4429
L 1120 4429
L 2758 768
L 4397 4429
L 5018 4429
z
" transform="scale(0.015625)"/>
        <path id="Poppins-Regular-72" d="M 1075 2938
Q 1229 3238 1513 3404
Q 1798 3571 2208 3571
L 2208 2970
L 2054 2970
Q 1075 2970 1075 1907
L 1075 0
L 493 0
L 493 3507
L 1075 3507
L 1075 2938
z
" transform="scale(0.015625)"/>
       </defs>
       <use xlink:href="#Poppins-Regular-4d"/>
       <use xlink:href="#Poppins-Regular-61" x="86.099991"/>
       <use xlink:href="#Poppins-Regular-72" x="153.699982"/>
      </g>
     </g>
    </g>
    <g id="xtick_4">
     <g id="line2d_7">
      <path d="M 166.104564 298.99325
L 166.104564 32.88125
" clip-path="url(#p7e115ec4b3)" style="fill: none; stroke: #dad8d7; stroke-opacity: 0.5; stroke-width: 0.8; stroke-linecap: square"/>
     </g>
     <g id="line2d_8">
      <g>
       <use xlink:href="#mc325fe2b78" x="166.104564" y="298.99325" style="stroke: #000000; stroke-width: 0.8"/>
      </g>
     </g>
     <g id="text_4">
      <!-- Apr -->
      <g transform="translate(157.48972 313.39325) scale(0.1 -0.1)">
       <defs>
        <path id="Poppins-Regular-41" d="M 3130 992
L 1184 992
L 826 0
L 211 0
L 1824 4435
L 2496 4435
L 4102 0
L 3488 0
L 3130 992
z
M 2963 1466
L 2157 3718
L 1350 1466
L 2963 1466
z
" transform="scale(0.015625)"/>
        <path id="Poppins-Regular-70" d="M 1075 2861
Q 1248 3162 1590 3363
Q 1933 3565 2387 3565
Q 2854 3565 3235 3341
Q 3616 3117 3833 2710
Q 4051 2304 4051 1766
Q 4051 1235 3833 819
Q 3616 403 3235 172
Q 2854 -58 2387 -58
Q 1939 -58 1596 144
Q 1254 346 1075 646
L 1075 -1664
L 493 -1664
L 493 3507
L 1075 3507
L 1075 2861
z
M 3456 1766
Q 3456 2163 3296 2457
Q 3136 2752 2864 2905
Q 2592 3059 2266 3059
Q 1946 3059 1674 2902
Q 1402 2746 1238 2448
Q 1075 2150 1075 1760
Q 1075 1363 1238 1065
Q 1402 768 1674 611
Q 1946 454 2266 454
Q 2592 454 2864 611
Q 3136 768 3296 1065
Q 3456 1363 3456 1766
z
" transform="scale(0.015625)"/>
       </defs>
       <use xlink:href="#Poppins-Regular-41"/>
       <use xlink:href="#Poppins-Regular-70" x="67.399994"/>
       <use xlink:href="#Poppins-Regular-72" x="134.999985"/>
      </g>
     </g>
    </g>
    <g id="xtick_5">
     <g id="line2d_9">
      <path d="M 195.618613 298.99325
L 195.618613 32.88125
" clip-path="url(#p7e115ec4b3)" style="fill: none; stroke: #dad8d7; stroke-opacity: 0.5; stroke-width: 0.8; stroke-linecap: square"/>
     </g>
     <g id="line2d_10">
      <g>
       <use xlink:href="#mc325fe2b78" x="195.618613" y="298.99325" style="stroke: #000000; stroke-width: 0.8"/>
      </g>
     </g>
     <g id="text_5">
      <!-- May -->
      <g transform="translate(185.119394 313.39325) scale(0.1 -0.1)">
       <defs>
        <path id="Poppins-Regular-79" d="M 3514 3507
L 1402 -1651
L 800 -1651
L 1491 38
L 77 3507
L 723 3507
L 1824 666
L 2912 3507
L 3514 3507
z
" transform="scale(0.015625)"/>
       </defs>
       <use xlink:href="#Poppins-Regular-4d"/>
       <use xlink:href="#Poppins-Regular-61" x="86.099991"/>
       <use xlink:href="#Poppins-Regular-79" x="153.699982"/>
      </g>
     </g>
    </g>
    <g id="xtick_6">
     <g id="line2d_11">
      <path d="M 225.132663 298.99325
L 225.132663 32.88125
" clip-path="url(#p7e115ec4b3)" style="fill: none; stroke: #dad8d7; stroke-opacity: 0.5; stroke-width: 0.8; stroke-linecap: square"/>
     </g>
     <g id="line2d_12">
      <g>
       <use xlink:href="#mc325fe2b78" x="225.132663" y="298.99325" style="stroke: #000000; stroke-width: 0.8"/>
      </g>
     </g>
     <g id="text_6">
      <!-- Jun -->
      <g transform="translate(216.082663 313.39325) scale(0.1 -0.1)">
       <defs>
        <path id="Poppins-Regular-75" d="M 3603 3507
L 3603 0
L 3021 0
L 3021 518
Q 2854 250 2556 99
Q 2259 -51 1901 -51
Q 1491 -51 1164 118
Q 838 288 649 627
Q 461 966 461 1453
L 461 3507
L 1037 3507
L 1037 1530
Q 1037 1011 1299 732
Q 1562 454 2016 454
Q 2483 454 2752 742
Q 3021 1030 3021 1581
L 3021 3507
L 3603 3507
z
" transform="scale(0.015625)"/>
       </defs>
       <use xlink:href="#Poppins-Regular-4a"/>
       <use xlink:href="#Poppins-Regular-75" x="52.999985"/>
       <use xlink:href="#Poppins-Regular-6e" x="116.999969"/>
      </g>
     </g>
    </g>
    <g id="xtick_7">
     <g id="line2d_13">
      <path d="M 254.646712 298.99325
L 254.646712 32.88125
" clip-path="url(#p7e115ec4b3)" style="fill: none; stroke: #dad8d7; stroke-opacity: 0.5; stroke-width: 0.8; stroke-linecap: square"/>
     </g>
     <g id="line2d_14">
      <g>
       <use xlink:href="#mc325fe2b78" x="254.646712" y="298.99325" style="stroke: #000000; stroke-width: 0.8"/>
      </g>
     </g>
     <g id="text_7">
      <!-- Jul -->
      <g transform="translate(247.567025 313.39325) scale(0.1 -0.1)">
       <defs>
        <path id="Poppins-Regular-6c" d="M 1075 4736
L 1075 0
L 493 0
L 493 4736
L 1075 4736
z
" transform="scale(0.015625)"/>
       </defs>
       <use xlink:href="#Poppins-Regular-4a"/>
       <use xlink:href="#Poppins-Regular-75" x="52.999985"/>
       <use xlink:href="#Poppins-Regular-6c" x="116.999969"/>
      </g>
     </g>
    </g>
    <g id="xtick_8">
     <g id="line2d_15">
      <path d="M 284.160762 298.99325
L 284.160762 32.88125
" clip-path="url(#p7e115ec4b3)" style="fill: none; stroke: #dad8d7; stroke-opacity: 0.5; stroke-width: 0.8; stroke-linecap: square"/>
     </g>
     <g id="line2d_16">
      <g>
       <use xlink:href="#mc325fe2b78" x="284.160762" y="298.99325" style="stroke: #000000; stroke-width: 0.8"/>
      </g>
     </g>
     <g id="text_8">
      <!-- Aug -->
      <g transform="translate(274.210762 313.29325) scale(0.1 -0.1)">
       <defs>
        <path id="Poppins-Regular-67" d="M 1939 3565
Q 2394 3565 2736 3366
Q 3078 3168 3245 2867
L 3245 3507
L 3834 3507
L 3834 -77
Q 3834 -557 3629 -931
Q 3424 -1306 3043 -1517
Q 2662 -1728 2157 -1728
Q 1466 -1728 1005 -1401
Q 544 -1075 461 -512
L 1037 -512
Q 1133 -832 1433 -1027
Q 1734 -1222 2157 -1222
Q 2637 -1222 2941 -921
Q 3245 -621 3245 -77
L 3245 659
Q 3072 352 2733 147
Q 2394 -58 1939 -58
Q 1472 -58 1091 172
Q 710 403 492 819
Q 275 1235 275 1766
Q 275 2304 492 2710
Q 710 3117 1091 3341
Q 1472 3565 1939 3565
z
M 3245 1760
Q 3245 2157 3085 2451
Q 2925 2746 2653 2902
Q 2381 3059 2054 3059
Q 1728 3059 1459 2905
Q 1190 2752 1030 2457
Q 870 2163 870 1766
Q 870 1363 1030 1065
Q 1190 768 1459 611
Q 1728 454 2054 454
Q 2381 454 2653 611
Q 2925 768 3085 1065
Q 3245 1363 3245 1760
z
" transform="scale(0.015625)"/>
       </defs>
       <use xlink:href="#Poppins-Regular-41"/>
       <use xlink:href="#Poppins-Regular-75" x="67.399994"/>
       <use xlink:href="#Poppins-Regular-67" x="131.399979"/>
      </g>
     </g>
    </g>
    <g id="xtick_9">
     <g id="line2d_17">
      <path d="M 313.674811 298.99325
L 313.674811 32.88125
" clip-path="url(#p7e115ec4b3)" style="fill: none; stroke: #dad8d7; stroke-opacity: 0.5; stroke-width: 0.8; stroke-linecap: square"/>
     </g>
     <g id="line2d_18">
      <g>
       <use xlink:href="#mc325fe2b78" x="313.674811" y="298.99325" style="stroke: #000000; stroke-width: 0.8"/>
      </g>
     </g>
     <g id="text_9">
      <!-- Sep -->
      <g transform="translate(304.259968 313.39325) scale(0.1 -0.1)">
       <defs>
        <path id="Poppins-Regular-53" d="M 1907 -45
Q 1466 -45 1117 112
Q 768 269 569 547
Q 371 826 365 1190
L 986 1190
Q 1018 877 1245 662
Q 1472 448 1907 448
Q 2323 448 2563 656
Q 2803 864 2803 1190
Q 2803 1446 2662 1606
Q 2522 1766 2310 1849
Q 2099 1933 1741 2029
Q 1299 2144 1033 2259
Q 768 2374 579 2620
Q 390 2867 390 3283
Q 390 3648 576 3929
Q 762 4211 1098 4364
Q 1434 4518 1869 4518
Q 2496 4518 2896 4204
Q 3296 3891 3347 3373
L 2707 3373
Q 2675 3629 2438 3824
Q 2202 4019 1811 4019
Q 1446 4019 1216 3830
Q 986 3642 986 3302
Q 986 3059 1123 2905
Q 1261 2752 1462 2672
Q 1664 2592 2029 2490
Q 2470 2368 2739 2249
Q 3008 2131 3200 1884
Q 3392 1638 3392 1216
Q 3392 890 3219 602
Q 3046 314 2707 134
Q 2368 -45 1907 -45
z
" transform="scale(0.015625)"/>
       </defs>
       <use xlink:href="#Poppins-Regular-53"/>
       <use xlink:href="#Poppins-Regular-65" x="58.699997"/>
       <use xlink:href="#Poppins-Regular-70" x="120.699982"/>
      </g>
     </g>
    </g>
    <g id="xtick_10">
     <g id="line2d_19">
      <path d="M 343.188861 298.99325
L 343.188861 32.88125
" clip-path="url(#p7e115ec4b3)" style="fill: none; stroke: #dad8d7; stroke-opacity: 0.5; stroke-width: 0.8; stroke-linecap: square"/>
     </g>
     <g id="line2d_20">
      <g>
       <use xlink:href="#mc325fe2b78" x="343.188861" y="298.99325" style="stroke: #000000; stroke-width: 0.8"/>
      </g>
     </g>
     <g id="text_10">
      <!-- Oct -->
      <g transform="translate(334.403705 313.39325) scale(0.1 -0.1)">
       <defs>
        <path id="Poppins-Regular-4f" d="M 2515 -45
Q 1894 -45 1382 246
Q 870 538 572 1059
Q 275 1581 275 2234
Q 275 2886 572 3408
Q 870 3930 1382 4221
Q 1894 4512 2515 4512
Q 3142 4512 3654 4221
Q 4166 3930 4460 3411
Q 4755 2893 4755 2234
Q 4755 1574 4460 1056
Q 4166 538 3654 246
Q 3142 -45 2515 -45
z
M 2515 461
Q 2982 461 3356 678
Q 3731 896 3945 1299
Q 4160 1702 4160 2234
Q 4160 2771 3945 3171
Q 3731 3571 3360 3788
Q 2989 4006 2515 4006
Q 2042 4006 1670 3788
Q 1299 3571 1084 3171
Q 870 2771 870 2234
Q 870 1702 1084 1299
Q 1299 896 1673 678
Q 2048 461 2515 461
z
" transform="scale(0.015625)"/>
        <path id="Poppins-Regular-63" d="M 275 1760
Q 275 2304 492 2710
Q 710 3117 1097 3341
Q 1485 3565 1984 3565
Q 2630 3565 3049 3251
Q 3469 2938 3603 2381
L 2976 2381
Q 2886 2701 2627 2886
Q 2368 3072 1984 3072
Q 1485 3072 1177 2729
Q 870 2387 870 1760
Q 870 1126 1177 780
Q 1485 435 1984 435
Q 2368 435 2624 614
Q 2880 794 2976 1126
L 3603 1126
Q 3462 589 3040 265
Q 2618 -58 1984 -58
Q 1485 -58 1097 166
Q 710 390 492 800
Q 275 1210 275 1760
z
" transform="scale(0.015625)"/>
        <path id="Poppins-Regular-74" d="M 1203 3027
L 1203 960
Q 1203 704 1312 598
Q 1421 493 1690 493
L 2118 493
L 2118 0
L 1594 0
Q 1107 0 864 224
Q 621 448 621 960
L 621 3027
L 166 3027
L 166 3507
L 621 3507
L 621 4390
L 1203 4390
L 1203 3507
L 2118 3507
L 2118 3027
L 1203 3027
z
" transform="scale(0.015625)"/>
       </defs>
       <use xlink:href="#Poppins-Regular-4f"/>
       <use xlink:href="#Poppins-Regular-63" x="78.599991"/>
       <use xlink:href="#Poppins-Regular-74" x="139.299988"/>
      </g>
     </g>
    </g>
    <g id="xtick_11">
     <g id="line2d_21">
      <path d="M 372.702911 298.99325
L 372.702911 32.88125
" clip-path="url(#p7e115ec4b3)" style="fill: none; stroke: #dad8d7; stroke-opacity: 0.5; stroke-width: 0.8; stroke-linecap: square"/>
     </g>
     <g id="line2d_22">
      <g>
       <use xlink:href="#mc325fe2b78" x="372.702911" y="298.99325" style="stroke: #000000; stroke-width: 0.8"/>
      </g>
     </g>
     <g id="text_11">
      <!-- Nov -->
      <g transform="translate(363.183379 313.39325) scale(0.1 -0.1)">
       <defs>
        <path id="Poppins-Regular-4e" d="M 4000 0
L 3418 0
L 1075 3552
L 1075 0
L 493 0
L 493 4467
L 1075 4467
L 3418 922
L 3418 4467
L 4000 4467
L 4000 0
z
" transform="scale(0.015625)"/>
        <path id="Poppins-Regular-6f" d="M 2022 -58
Q 1530 -58 1130 166
Q 730 390 502 803
Q 275 1216 275 1760
Q 275 2298 508 2710
Q 742 3123 1145 3344
Q 1549 3565 2048 3565
Q 2547 3565 2950 3344
Q 3354 3123 3587 2713
Q 3821 2304 3821 1760
Q 3821 1216 3581 803
Q 3341 390 2931 166
Q 2522 -58 2022 -58
z
M 2022 454
Q 2336 454 2611 601
Q 2886 749 3056 1043
Q 3226 1338 3226 1760
Q 3226 2182 3059 2476
Q 2893 2771 2624 2915
Q 2355 3059 2042 3059
Q 1722 3059 1456 2915
Q 1190 2771 1030 2476
Q 870 2182 870 1760
Q 870 1331 1027 1036
Q 1184 742 1446 598
Q 1709 454 2022 454
z
" transform="scale(0.015625)"/>
        <path id="Poppins-Regular-76" d="M 1798 538
L 2886 3507
L 3507 3507
L 2131 0
L 1453 0
L 77 3507
L 704 3507
L 1798 538
z
" transform="scale(0.015625)"/>
       </defs>
       <use xlink:href="#Poppins-Regular-4e"/>
       <use xlink:href="#Poppins-Regular-6f" x="70.299988"/>
       <use xlink:href="#Poppins-Regular-76" x="134.299973"/>
      </g>
     </g>
    </g>
    <g id="xtick_12">
     <g id="line2d_23">
      <path d="M 402.21696 298.99325
L 402.21696 32.88125
" clip-path="url(#p7e115ec4b3)" style="fill: none; stroke: #dad8d7; stroke-opacity: 0.5; stroke-width: 0.8; stroke-linecap: square"/>
     </g>
     <g id="line2d_24">
      <g>
       <use xlink:href="#mc325fe2b78" x="402.21696" y="298.99325" style="stroke: #000000; stroke-width: 0.8"/>
      </g>
     </g>
     <g id="text_12">
      <!-- Dec -->
      <g transform="translate(392.546648 313.39325) scale(0.1 -0.1)">
       <defs>
        <path id="Poppins-Regular-44" d="M 1882 4461
Q 2611 4461 3145 4189
Q 3680 3917 3965 3411
Q 4250 2906 4250 2221
Q 4250 1536 3965 1033
Q 3680 531 3145 265
Q 2611 0 1882 0
L 493 0
L 493 4461
L 1882 4461
z
M 1882 480
Q 2746 480 3200 937
Q 3654 1395 3654 2221
Q 3654 3053 3196 3520
Q 2739 3987 1882 3987
L 1075 3987
L 1075 480
L 1882 480
z
" transform="scale(0.015625)"/>
       </defs>
       <use xlink:href="#Poppins-Regular-44"/>
       <use xlink:href="#Poppins-Regular-65" x="70.699982"/>
       <use xlink:href="#Poppins-Regular-63" x="132.699966"/>
      </g>
     </g>
    </g>
   </g>
   <g id="matplotlib.axis_2">
    <g id="ytick_1">
     <g id="line2d_25">
      <path d="M 61.329688 292.926409
L 418.449687 292.926409
" clip-path="url(#p7e115ec4b3)" style="fill: none; stroke: #dad8d7; stroke-opacity: 0.5; stroke-width: 0.8; stroke-linecap: square"/>
     </g>
     <g id="line2d_26">
      <defs>
       <path id="m643d5cfa9c" d="M 0 0
L -3.5 0
" style="stroke: #000000; stroke-width: 0.8"/>
      </defs>
      <g>
       <use xlink:href="#m643d5cfa9c" x="61.329688" y="292.926409" style="stroke: #000000; stroke-width: 0.8"/>
      </g>
     </g>
     <g id="text_13">
      <!-- 0 -->
      <g transform="translate(48.05 296.626409) scale(0.1 -0.1)">
       <defs>
        <path id="Poppins-Regular-30" d="M 397 2362
Q 397 3462 755 4080
Q 1114 4698 2010 4698
Q 2899 4698 3257 4080
Q 3616 3462 3616 2362
Q 3616 1242 3257 621
Q 2899 0 2010 0
Q 1114 0 755 621
Q 397 1242 397 2362
z
M 3040 2362
Q 3040 2918 2966 3305
Q 2893 3693 2665 3929
Q 2438 4166 2010 4166
Q 1574 4166 1347 3929
Q 1120 3693 1046 3305
Q 973 2918 973 2362
Q 973 1786 1046 1395
Q 1120 1005 1347 768
Q 1574 531 2010 531
Q 2438 531 2665 768
Q 2893 1005 2966 1395
Q 3040 1786 3040 2362
z
" transform="scale(0.015625)"/>
       </defs>
       <use xlink:href="#Poppins-Regular-30"/>
      </g>
     </g>
    </g>
    <g id="ytick_2">
     <g id="line2d_27">
      <path d="M 61.329688 242.683418
L 418.449687 242.683418
" clip-path="url(#p7e115ec4b3)" style="fill: none; stroke: #dad8d7; stroke-opacity: 0.5; stroke-width: 0.8; stroke-linecap: square"/>
     </g>
     <g id="line2d_28">
      <g>
       <use xlink:href="#m643d5cfa9c" x="61.329688" y="242.683418" style="stroke: #000000; stroke-width: 0.8"/>
      </g>
     </g>
     <g id="text_14">
      <!-- 1000 -->
      <g transform="translate(32.290625 246.383418) scale(0.1 -0.1)">
       <defs>
        <path id="Poppins-Regular-31" d="M 243 4096
L 243 4627
L 1446 4627
L 1446 0
L 858 0
L 858 4096
L 243 4096
z
" transform="scale(0.015625)"/>
       </defs>
       <use xlink:href="#Poppins-Regular-31"/>
       <use xlink:href="#Poppins-Regular-30" x="31.999985"/>
       <use xlink:href="#Poppins-Regular-30" x="94.799973"/>
       <use xlink:href="#Poppins-Regular-30" x="157.59996"/>
      </g>
     </g>
    </g>
    <g id="ytick_3">
     <g id="line2d_29">
      <path d="M 61.329688 192.440428
L 418.449687 192.440428
" clip-path="url(#p7e115ec4b3)" style="fill: none; stroke: #dad8d7; stroke-opacity: 0.5; stroke-width: 0.8; stroke-linecap: square"/>
     </g>
     <g id="line2d_30">
      <g>
       <use xlink:href="#m643d5cfa9c" x="61.329688" y="192.440428" style="stroke: #000000; stroke-width: 0.8"/>
      </g>
     </g>
     <g id="text_15">
      <!-- 2000 -->
      <g transform="translate(29.740625 196.140428) scale(0.1 -0.1)">
       <defs>
        <path id="Poppins-Regular-32" d="M 326 467
Q 1139 1120 1600 1539
Q 2061 1958 2377 2416
Q 2694 2874 2694 3315
Q 2694 3731 2492 3971
Q 2291 4211 1843 4211
Q 1408 4211 1168 3939
Q 928 3667 909 3213
L 346 3213
Q 371 3930 780 4320
Q 1190 4710 1837 4710
Q 2496 4710 2883 4345
Q 3270 3981 3270 3341
Q 3270 2810 2953 2307
Q 2637 1805 2233 1424
Q 1830 1043 1203 538
L 3405 538
L 3405 51
L 326 51
L 326 467
z
" transform="scale(0.015625)"/>
       </defs>
       <use xlink:href="#Poppins-Regular-32"/>
       <use xlink:href="#Poppins-Regular-30" x="57.499985"/>
       <use xlink:href="#Poppins-Regular-30" x="120.299973"/>
       <use xlink:href="#Poppins-Regular-30" x="183.09996"/>
      </g>
     </g>
    </g>
    <g id="ytick_4">
     <g id="line2d_31">
      <path d="M 61.329688 142.197437
L 418.449687 142.197437
" clip-path="url(#p7e115ec4b3)" style="fill: none; stroke: #dad8d7; stroke-opacity: 0.5; stroke-width: 0.8; stroke-linecap: square"/>
     </g>
     <g id="line2d_32">
      <g>
       <use xlink:href="#m643d5cfa9c" x="61.329688" y="142.197437" style="stroke: #000000; stroke-width: 0.8"/>
      </g>
     </g>
     <g id="text_16">
      <!-- 3000 -->
      <g transform="translate(29.6 145.897437) scale(0.1 -0.1)">
       <defs>
        <path id="Poppins-Regular-33" d="M 384 3462
Q 429 4051 838 4384
Q 1248 4717 1901 4717
Q 2336 4717 2653 4560
Q 2970 4403 3133 4134
Q 3296 3866 3296 3526
Q 3296 3130 3069 2842
Q 2842 2554 2477 2470
L 2477 2438
Q 2893 2336 3136 2035
Q 3379 1734 3379 1248
Q 3379 883 3212 592
Q 3046 301 2713 134
Q 2381 -32 1914 -32
Q 1235 -32 800 323
Q 365 678 314 1331
L 877 1331
Q 922 947 1190 704
Q 1459 461 1907 461
Q 2355 461 2588 694
Q 2822 928 2822 1299
Q 2822 1779 2502 1990
Q 2182 2202 1536 2202
L 1389 2202
L 1389 2688
L 1542 2688
Q 2131 2694 2432 2883
Q 2733 3072 2733 3469
Q 2733 3808 2512 4013
Q 2291 4218 1882 4218
Q 1485 4218 1241 4013
Q 998 3808 954 3462
L 384 3462
z
" transform="scale(0.015625)"/>
       </defs>
       <use xlink:href="#Poppins-Regular-33"/>
       <use xlink:href="#Poppins-Regular-30" x="58.899994"/>
       <use xlink:href="#Poppins-Regular-30" x="121.699982"/>
       <use xlink:href="#Poppins-Regular-30" x="184.499969"/>
      </g>
     </g>
    </g>
    <g id="ytick_5">
     <g id="line2d_33">
      <path d="M 61.329688 91.954446
L 418.449687 91.954446
" clip-path="url(#p7e115ec4b3)" style="fill: none; stroke: #dad8d7; stroke-opacity: 0.5; stroke-width: 0.8; stroke-linecap: square"/>
     </g>
     <g id="line2d_34">
      <g>
       <use xlink:href="#m643d5cfa9c" x="61.329688" y="91.954446" style="stroke: #000000; stroke-width: 0.8"/>
      </g>
     </g>
     <g id="text_17">
      <!-- 4000 -->
      <g transform="translate(29.2 95.654446) scale(0.1 -0.1)">
       <defs>
        <path id="Poppins-Regular-34" d="M 256 1030
L 256 1472
L 2502 4582
L 3200 4582
L 3200 1536
L 3840 1536
L 3840 1030
L 3200 1030
L 3200 0
L 2624 0
L 2624 1030
L 256 1030
z
M 2650 3974
L 928 1536
L 2650 1536
L 2650 3974
z
" transform="scale(0.015625)"/>
       </defs>
       <use xlink:href="#Poppins-Regular-34"/>
       <use xlink:href="#Poppins-Regular-30" x="62.899994"/>
       <use xlink:href="#Poppins-Regular-30" x="125.699982"/>
       <use xlink:href="#Poppins-Regular-30" x="188.499969"/>
      </g>
     </g>
    </g>
    <g id="ytick_6">
     <g id="line2d_35">
      <path d="M 61.329688 41.711456
L 418.449687 41.711456
" clip-path="url(#p7e115ec4b3)" style="fill: none; stroke: #dad8d7; stroke-opacity: 0.5; stroke-width: 0.8; stroke-linecap: square"/>
     </g>
     <g id="line2d_36">
      <g>
       <use xlink:href="#m643d5cfa9c" x="61.329688" y="41.711456" style="stroke: #000000; stroke-width: 0.8"/>
      </g>
     </g>
     <g id="text_18">
      <!-- 5000 -->
      <g transform="translate(29.210938 45.411456) scale(0.1 -0.1)">
       <defs>
        <path id="Poppins-Regular-35" d="M 3347 4122
L 1101 4122
L 1101 2662
Q 1248 2867 1536 2998
Q 1824 3130 2157 3130
Q 2688 3130 3021 2909
Q 3354 2688 3498 2339
Q 3642 1990 3642 1600
Q 3642 1139 3469 774
Q 3296 410 2941 198
Q 2586 -13 2061 -13
Q 1389 -13 973 332
Q 557 678 467 1254
L 1037 1254
Q 1120 890 1389 685
Q 1658 480 2067 480
Q 2573 480 2829 784
Q 3085 1088 3085 1587
Q 3085 2086 2829 2358
Q 2573 2630 2074 2630
Q 1734 2630 1481 2467
Q 1229 2304 1114 2022
L 563 2022
L 563 4634
L 3347 4634
L 3347 4122
z
" transform="scale(0.015625)"/>
       </defs>
       <use xlink:href="#Poppins-Regular-35"/>
       <use xlink:href="#Poppins-Regular-30" x="62.799988"/>
       <use xlink:href="#Poppins-Regular-30" x="125.599976"/>
       <use xlink:href="#Poppins-Regular-30" x="188.399963"/>
      </g>
     </g>
    </g>
    <g id="text_19">
     <!-- Sales -->
     <g transform="translate(16.08 181.842875) rotate(-90) scale(0.12 -0.12)">
      <defs>
       <path id="Poppins-Regular-73" d="M 1734 -58
Q 1331 -58 1011 80
Q 691 218 505 464
Q 320 710 301 1030
L 902 1030
Q 928 768 1149 601
Q 1370 435 1728 435
Q 2061 435 2253 582
Q 2445 730 2445 954
Q 2445 1184 2240 1296
Q 2035 1408 1606 1517
Q 1216 1619 969 1724
Q 723 1830 547 2038
Q 371 2246 371 2586
Q 371 2854 531 3078
Q 691 3302 985 3433
Q 1280 3565 1658 3565
Q 2240 3565 2598 3270
Q 2957 2976 2982 2464
L 2400 2464
Q 2381 2739 2179 2905
Q 1978 3072 1638 3072
Q 1325 3072 1139 2937
Q 954 2803 954 2586
Q 954 2413 1066 2301
Q 1178 2189 1347 2121
Q 1517 2054 1818 1971
Q 2195 1869 2432 1769
Q 2669 1670 2838 1472
Q 3008 1274 3014 954
Q 3014 666 2854 435
Q 2694 205 2403 73
Q 2112 -58 1734 -58
z
" transform="scale(0.015625)"/>
      </defs>
      <use xlink:href="#Poppins-Regular-53"/>
      <use xlink:href="#Poppins-Regular-61" x="58.699997"/>
      <use xlink:href="#Poppins-Regular-6c" x="126.299988"/>
      <use xlink:href="#Poppins-Regular-65" x="150.899979"/>
      <use xlink:href="#Poppins-Regular-73" x="212.899963"/>
     </g>
    </g>
   </g>
   <g id="PathCollection_1">
    <defs>
     <path id="m15c149cd55" d="M 0 3
C 0.795609 3 1.55874 2.683901 2.12132 2.12132
C 2.683901 1.55874 3 0.795609 3 0
C 3 -0.795609 2.683901 -1.55874 2.12132 -2.12132
C 1.55874 -2.683901 0.795609 -3 0 -3
C -0.795609 -3 -1.55874 -2.683901 -2.12132 -2.12132
C -2.683901 -1.55874 -3 -0.795609 -3 0
C -3 0.795609 -2.683901 1.55874 -2.12132 2.12132
C -1.55874 2.683901 -0.795609 3 0 3
z
" style="stroke: #22c55e; stroke-opacity: 0.8"/>
    </defs>
    <g clip-path="url(#p7e115ec4b3)">
     <use xlink:href="#m15c149cd55" x="77.562415" y="44.97725" style="fill: #22c55e; fill-opacity: 0.8; stroke: #22c55e; stroke-opacity: 0.8"/>
     <use xlink:href="#m15c149cd55" x="107.076464" y="256.098297" style="fill: #22c55e; fill-opacity: 0.8; stroke: #22c55e; stroke-opacity: 0.8"/>
     <use xlink:href="#m15c149cd55" x="136.590514" y="116.573512" style="fill: #22c55e; fill-opacity: 0.8; stroke: #22c55e; stroke-opacity: 0.8"/>
     <use xlink:href="#m15c149cd55" x="166.104564" y="188.973661" style="fill: #22c55e; fill-opacity: 0.8; stroke: #22c55e; stroke-opacity: 0.8"/>
     <use xlink:href="#m15c149cd55" x="195.618613" y="153.703082" style="fill: #22c55e; fill-opacity: 0.8; stroke: #22c55e; stroke-opacity: 0.8"/>
     <use xlink:href="#m15c149cd55" x="225.132663" y="218.667269" style="fill: #22c55e; fill-opacity: 0.8; stroke: #22c55e; stroke-opacity: 0.8"/>
     <use xlink:href="#m15c149cd55" x="254.646712" y="236.151829" style="fill: #22c55e; fill-opacity: 0.8; stroke: #22c55e; stroke-opacity: 0.8"/>
     <use xlink:href="#m15c149cd55" x="284.160762" y="193.545773" style="fill: #22c55e; fill-opacity: 0.8; stroke: #22c55e; stroke-opacity: 0.8"/>
     <use xlink:href="#m15c149cd55" x="313.674811" y="156.064502" style="fill: #22c55e; fill-opacity: 0.8; stroke: #22c55e; stroke-opacity: 0.8"/>
     <use xlink:href="#m15c149cd55" x="343.188861" y="226.75639" style="fill: #22c55e; fill-opacity: 0.8; stroke: #22c55e; stroke-opacity: 0.8"/>
     <use xlink:href="#m15c149cd55" x="372.702911" y="57.990185" style="fill: #22c55e; fill-opacity: 0.8; stroke: #22c55e; stroke-opacity: 0.8"/>
     <use xlink:href="#m15c149cd55" x="402.21696" y="239.367381" style="fill: #22c55e; fill-opacity: 0.8; stroke: #22c55e; stroke-opacity: 0.8"/>
     <use xlink:href="#m15c149cd55" x="77.562415" y="151.743605" style="fill: #22c55e; fill-opacity: 0.8; stroke: #22c55e; stroke-opacity: 0.8"/>
     <use xlink:href="#m15c149cd55" x="107.076464" y="189.526334" style="fill: #22c55e; fill-opacity: 0.8; stroke: #22c55e; stroke-opacity: 0.8"/>
     <use xlink:href="#m15c149cd55" x="136.590514" y="85.422857" style="fill: #22c55e; fill-opacity: 0.8; stroke: #22c55e; stroke-opacity: 0.8"/>
     <use xlink:href="#m15c149cd55" x="166.104564" y="246.853586" style="fill: #22c55e; fill-opacity: 0.8; stroke: #22c55e; stroke-opacity: 0.8"/>
     <use xlink:href="#m15c149cd55" x="195.618613" y="230.022185" style="fill: #22c55e; fill-opacity: 0.8; stroke: #22c55e; stroke-opacity: 0.8"/>
     <use xlink:href="#m15c149cd55" x="225.132663" y="182.492315" style="fill: #22c55e; fill-opacity: 0.8; stroke: #22c55e; stroke-opacity: 0.8"/>
     <use xlink:href="#m15c149cd55" x="254.646712" y="69.194371" style="fill: #22c55e; fill-opacity: 0.8; stroke: #22c55e; stroke-opacity: 0.8"/>
     <use xlink:href="#m15c149cd55" x="284.160762" y="149.030484" style="fill: #22c55e; fill-opacity: 0.8; stroke: #22c55e; stroke-opacity: 0.8"/>
     <use xlink:href="#m15c149cd55" x="313.674811" y="225.500315" style="fill: #22c55e; fill-opacity: 0.8; stroke: #22c55e; stroke-opacity: 0.8"/>
     <use xlink:href="#m15c149cd55" x="343.188861" y="132.550783" style="fill: #22c55e; fill-opacity: 0.8; stroke: #22c55e; stroke-opacity: 0.8"/>
     <use xlink:href="#m15c149cd55" x="372.702911" y="210.980091" style="fill: #22c55e; fill-opacity: 0.8; stroke: #22c55e; stroke-opacity: 0.8"/>
     <use xlink:href="#m15c149cd55" x="402.21696" y="173.247605" style="fill: #22c55e; fill-opacity: 0.8; stroke: #22c55e; stroke-opacity: 0.8"/>
     <use xlink:href="#m15c149cd55" x="77.562415" y="146.669063" style="fill: #22c55e; fill-opacity: 0.8; stroke: #22c55e; stroke-opacity: 0.8"/>
     <use xlink:href="#m15c149cd55" x="107.076464" y="67.536353" style="fill: #22c55e; fill-opacity: 0.8; stroke: #22c55e; stroke-opacity: 0.8"/>
     <use xlink:href="#m15c149cd55" x="136.590514" y="68.089026" style="fill: #22c55e; fill-opacity: 0.8; stroke: #22c55e; stroke-opacity: 0.8"/>
     <use xlink:href="#m15c149cd55" x="166.104564" y="179.87968" style="fill: #22c55e; fill-opacity: 0.8; stroke: #22c55e; stroke-opacity: 0.8"/>
     <use xlink:href="#m15c149cd55" x="195.618613" y="202.639755" style="fill: #22c55e; fill-opacity: 0.8; stroke: #22c55e; stroke-opacity: 0.8"/>
     <use xlink:href="#m15c149cd55" x="225.132663" y="213.291269" style="fill: #22c55e; fill-opacity: 0.8; stroke: #22c55e; stroke-opacity: 0.8"/>
     <use xlink:href="#m15c149cd55" x="254.646712" y="260.720652" style="fill: #22c55e; fill-opacity: 0.8; stroke: #22c55e; stroke-opacity: 0.8"/>
     <use xlink:href="#m15c149cd55" x="284.160762" y="67.536353" style="fill: #22c55e; fill-opacity: 0.8; stroke: #22c55e; stroke-opacity: 0.8"/>
     <use xlink:href="#m15c149cd55" x="313.674811" y="173.599306" style="fill: #22c55e; fill-opacity: 0.8; stroke: #22c55e; stroke-opacity: 0.8"/>
     <use xlink:href="#m15c149cd55" x="343.188861" y="232.13239" style="fill: #22c55e; fill-opacity: 0.8; stroke: #22c55e; stroke-opacity: 0.8"/>
     <use xlink:href="#m15c149cd55" x="372.702911" y="239.51811" style="fill: #22c55e; fill-opacity: 0.8; stroke: #22c55e; stroke-opacity: 0.8"/>
     <use xlink:href="#m15c149cd55" x="402.21696" y="144.357886" style="fill: #22c55e; fill-opacity: 0.8; stroke: #22c55e; stroke-opacity: 0.8"/>
     <use xlink:href="#m15c149cd55" x="77.562415" y="158.224951" style="fill: #22c55e; fill-opacity: 0.8; stroke: #22c55e; stroke-opacity: 0.8"/>
     <use xlink:href="#m15c149cd55" x="107.076464" y="91.602745" style="fill: #22c55e; fill-opacity: 0.8; stroke: #22c55e; stroke-opacity: 0.8"/>
     <use xlink:href="#m15c149cd55" x="136.590514" y="168.474521" style="fill: #22c55e; fill-opacity: 0.8; stroke: #22c55e; stroke-opacity: 0.8"/>
     <use xlink:href="#m15c149cd55" x="166.104564" y="229.569998" style="fill: #22c55e; fill-opacity: 0.8; stroke: #22c55e; stroke-opacity: 0.8"/>
     <use xlink:href="#m15c149cd55" x="195.618613" y="253.937848" style="fill: #22c55e; fill-opacity: 0.8; stroke: #22c55e; stroke-opacity: 0.8"/>
     <use xlink:href="#m15c149cd55" x="225.132663" y="178.020689" style="fill: #22c55e; fill-opacity: 0.8; stroke: #22c55e; stroke-opacity: 0.8"/>
     <use xlink:href="#m15c149cd55" x="254.646712" y="58.492614" style="fill: #22c55e; fill-opacity: 0.8; stroke: #22c55e; stroke-opacity: 0.8"/>
     <use xlink:href="#m15c149cd55" x="284.160762" y="185.707867" style="fill: #22c55e; fill-opacity: 0.8; stroke: #22c55e; stroke-opacity: 0.8"/>
     <use xlink:href="#m15c149cd55" x="313.674811" y="129.084016" style="fill: #22c55e; fill-opacity: 0.8; stroke: #22c55e; stroke-opacity: 0.8"/>
     <use xlink:href="#m15c149cd55" x="343.188861" y="254.289549" style="fill: #22c55e; fill-opacity: 0.8; stroke: #22c55e; stroke-opacity: 0.8"/>
     <use xlink:href="#m15c149cd55" x="372.702911" y="211.934708" style="fill: #22c55e; fill-opacity: 0.8; stroke: #22c55e; stroke-opacity: 0.8"/>
     <use xlink:href="#m15c149cd55" x="402.21696" y="100.947942" style="fill: #22c55e; fill-opacity: 0.8; stroke: #22c55e; stroke-opacity: 0.8"/>
     <use xlink:href="#m15c149cd55" x="77.562415" y="219.270185" style="fill: #22c55e; fill-opacity: 0.8; stroke: #22c55e; stroke-opacity: 0.8"/>
     <use xlink:href="#m15c149cd55" x="107.076464" y="201.785624" style="fill: #22c55e; fill-opacity: 0.8; stroke: #22c55e; stroke-opacity: 0.8"/>
     <use xlink:href="#m15c149cd55" x="136.590514" y="259.916764" style="fill: #22c55e; fill-opacity: 0.8; stroke: #22c55e; stroke-opacity: 0.8"/>
     <use xlink:href="#m15c149cd55" x="166.104564" y="246.300914" style="fill: #22c55e; fill-opacity: 0.8; stroke: #22c55e; stroke-opacity: 0.8"/>
     <use xlink:href="#m15c149cd55" x="195.618613" y="102.304502" style="fill: #22c55e; fill-opacity: 0.8; stroke: #22c55e; stroke-opacity: 0.8"/>
     <use xlink:href="#m15c149cd55" x="225.132663" y="226.555418" style="fill: #22c55e; fill-opacity: 0.8; stroke: #22c55e; stroke-opacity: 0.8"/>
     <use xlink:href="#m15c149cd55" x="254.646712" y="83.161923" style="fill: #22c55e; fill-opacity: 0.8; stroke: #22c55e; stroke-opacity: 0.8"/>
     <use xlink:href="#m15c149cd55" x="284.160762" y="185.25568" style="fill: #22c55e; fill-opacity: 0.8; stroke: #22c55e; stroke-opacity: 0.8"/>
     <use xlink:href="#m15c149cd55" x="313.674811" y="220.476016" style="fill: #22c55e; fill-opacity: 0.8; stroke: #22c55e; stroke-opacity: 0.8"/>
     <use xlink:href="#m15c149cd55" x="343.188861" y="154.054783" style="fill: #22c55e; fill-opacity: 0.8; stroke: #22c55e; stroke-opacity: 0.8"/>
     <use xlink:href="#m15c149cd55" x="372.702911" y="173.549063" style="fill: #22c55e; fill-opacity: 0.8; stroke: #22c55e; stroke-opacity: 0.8"/>
     <use xlink:href="#m15c149cd55" x="402.21696" y="66.179792" style="fill: #22c55e; fill-opacity: 0.8; stroke: #22c55e; stroke-opacity: 0.8"/>
    </g>
   </g>
   <g id="PathCollection_2">
    <defs>
     <path id="m8c19d7eb77" d="M 0 3
C 0.795609 3 1.55874 2.683901 2.12132 2.12132
C 2.683901 1.55874 3 0.795609 3 0
C 3 -0.795609 2.683901 -1.55874 2.12132 -2.12132
C 1.55874 -2.683901 0.795609 -3 0 -3
C -0.795609 -3 -1.55874 -2.683901 -2.12132 -2.12132
C -2.683901 -1.55874 -3 -0.795609 -3 0
C -3 0.795609 -2.683901 1.55874 -2.12132 2.12132
C -1.55874 2.683901 -0.795609 3 0 3
z
" style="stroke: #3b82f6; stroke-opacity: 0.8"/>
    </defs>
    <g clip-path="url(#p7e115ec4b3)">
     <use xlink:href="#m8c19d7eb77" x="77.562415" y="208.719157" style="fill: #3b82f6; fill-opacity: 0.8; stroke: #3b82f6; stroke-opacity: 0.8"/>
     <use xlink:href="#m8c19d7eb77" x="107.076464" y="270.869736" style="fill: #3b82f6; fill-opacity: 0.8; stroke: #3b82f6; stroke-opacity: 0.8"/>
     <use xlink:href="#m8c19d7eb77" x="136.590514" y="204.950932" style="fill: #3b82f6; fill-opacity: 0.8; stroke: #3b82f6; stroke-opacity: 0.8"/>
     <use xlink:href="#m8c19d7eb77" x="166.104564" y="213.944428" style="fill: #3b82f6; fill-opacity: 0.8; stroke: #3b82f6; stroke-opacity: 0.8"/>
     <use xlink:href="#m8c19d7eb77" x="195.618613" y="195.756465" style="fill: #3b82f6; fill-opacity: 0.8; stroke: #3b82f6; stroke-opacity: 0.8"/>
     <use xlink:href="#m8c19d7eb77" x="225.132663" y="285.188988" style="fill: #3b82f6; fill-opacity: 0.8; stroke: #3b82f6; stroke-opacity: 0.8"/>
     <use xlink:href="#m8c19d7eb77" x="254.646712" y="238.262035" style="fill: #3b82f6; fill-opacity: 0.8; stroke: #3b82f6; stroke-opacity: 0.8"/>
     <use xlink:href="#m8c19d7eb77" x="284.160762" y="258.359231" style="fill: #3b82f6; fill-opacity: 0.8; stroke: #3b82f6; stroke-opacity: 0.8"/>
     <use xlink:href="#m8c19d7eb77" x="313.674811" y="196.51011" style="fill: #3b82f6; fill-opacity: 0.8; stroke: #3b82f6; stroke-opacity: 0.8"/>
     <use xlink:href="#m8c19d7eb77" x="343.188861" y="223.440353" style="fill: #3b82f6; fill-opacity: 0.8; stroke: #3b82f6; stroke-opacity: 0.8"/>
     <use xlink:href="#m8c19d7eb77" x="372.702911" y="193.294558" style="fill: #3b82f6; fill-opacity: 0.8; stroke: #3b82f6; stroke-opacity: 0.8"/>
     <use xlink:href="#m8c19d7eb77" x="402.21696" y="284.284614" style="fill: #3b82f6; fill-opacity: 0.8; stroke: #3b82f6; stroke-opacity: 0.8"/>
     <use xlink:href="#m8c19d7eb77" x="77.562415" y="201.433923" style="fill: #3b82f6; fill-opacity: 0.8; stroke: #3b82f6; stroke-opacity: 0.8"/>
     <use xlink:href="#m8c19d7eb77" x="107.076464" y="240.673699" style="fill: #3b82f6; fill-opacity: 0.8; stroke: #3b82f6; stroke-opacity: 0.8"/>
     <use xlink:href="#m8c19d7eb77" x="136.590514" y="269.010745" style="fill: #3b82f6; fill-opacity: 0.8; stroke: #3b82f6; stroke-opacity: 0.8"/>
     <use xlink:href="#m8c19d7eb77" x="166.104564" y="233.388465" style="fill: #3b82f6; fill-opacity: 0.8; stroke: #3b82f6; stroke-opacity: 0.8"/>
     <use xlink:href="#m8c19d7eb77" x="195.618613" y="209.62353" style="fill: #3b82f6; fill-opacity: 0.8; stroke: #3b82f6; stroke-opacity: 0.8"/>
     <use xlink:href="#m8c19d7eb77" x="225.132663" y="236.754745" style="fill: #3b82f6; fill-opacity: 0.8; stroke: #3b82f6; stroke-opacity: 0.8"/>
     <use xlink:href="#m8c19d7eb77" x="254.646712" y="280.968577" style="fill: #3b82f6; fill-opacity: 0.8; stroke: #3b82f6; stroke-opacity: 0.8"/>
     <use xlink:href="#m8c19d7eb77" x="284.160762" y="222.535979" style="fill: #3b82f6; fill-opacity: 0.8; stroke: #3b82f6; stroke-opacity: 0.8"/>
     <use xlink:href="#m8c19d7eb77" x="313.674811" y="246.351157" style="fill: #3b82f6; fill-opacity: 0.8; stroke: #3b82f6; stroke-opacity: 0.8"/>
     <use xlink:href="#m8c19d7eb77" x="343.188861" y="277.65254" style="fill: #3b82f6; fill-opacity: 0.8; stroke: #3b82f6; stroke-opacity: 0.8"/>
     <use xlink:href="#m8c19d7eb77" x="372.702911" y="213.241026" style="fill: #3b82f6; fill-opacity: 0.8; stroke: #3b82f6; stroke-opacity: 0.8"/>
     <use xlink:href="#m8c19d7eb77" x="402.21696" y="219.370671" style="fill: #3b82f6; fill-opacity: 0.8; stroke: #3b82f6; stroke-opacity: 0.8"/>
     <use xlink:href="#m8c19d7eb77" x="77.562415" y="222.485736" style="fill: #3b82f6; fill-opacity: 0.8; stroke: #3b82f6; stroke-opacity: 0.8"/>
     <use xlink:href="#m8c19d7eb77" x="107.076464" y="219.772614" style="fill: #3b82f6; fill-opacity: 0.8; stroke: #3b82f6; stroke-opacity: 0.8"/>
     <use xlink:href="#m8c19d7eb77" x="136.590514" y="238.563493" style="fill: #3b82f6; fill-opacity: 0.8; stroke: #3b82f6; stroke-opacity: 0.8"/>
     <use xlink:href="#m8c19d7eb77" x="166.104564" y="275.190633" style="fill: #3b82f6; fill-opacity: 0.8; stroke: #3b82f6; stroke-opacity: 0.8"/>
     <use xlink:href="#m8c19d7eb77" x="195.618613" y="272.979942" style="fill: #3b82f6; fill-opacity: 0.8; stroke: #3b82f6; stroke-opacity: 0.8"/>
     <use xlink:href="#m8c19d7eb77" x="225.132663" y="286.89725" style="fill: #3b82f6; fill-opacity: 0.8; stroke: #3b82f6; stroke-opacity: 0.8"/>
     <use xlink:href="#m8c19d7eb77" x="254.646712" y="284.184129" style="fill: #3b82f6; fill-opacity: 0.8; stroke: #3b82f6; stroke-opacity: 0.8"/>
     <use xlink:href="#m8c19d7eb77" x="284.160762" y="249.868166" style="fill: #3b82f6; fill-opacity: 0.8; stroke: #3b82f6; stroke-opacity: 0.8"/>
     <use xlink:href="#m8c19d7eb77" x="313.674811" y="271.723867" style="fill: #3b82f6; fill-opacity: 0.8; stroke: #3b82f6; stroke-opacity: 0.8"/>
     <use xlink:href="#m8c19d7eb77" x="343.188861" y="198.469586" style="fill: #3b82f6; fill-opacity: 0.8; stroke: #3b82f6; stroke-opacity: 0.8"/>
     <use xlink:href="#m8c19d7eb77" x="372.702911" y="218.918484" style="fill: #3b82f6; fill-opacity: 0.8; stroke: #3b82f6; stroke-opacity: 0.8"/>
     <use xlink:href="#m8c19d7eb77" x="402.21696" y="280.315418" style="fill: #3b82f6; fill-opacity: 0.8; stroke: #3b82f6; stroke-opacity: 0.8"/>
     <use xlink:href="#m8c19d7eb77" x="77.562415" y="233.941138" style="fill: #3b82f6; fill-opacity: 0.8; stroke: #3b82f6; stroke-opacity: 0.8"/>
     <use xlink:href="#m8c19d7eb77" x="107.076464" y="256.65097" style="fill: #3b82f6; fill-opacity: 0.8; stroke: #3b82f6; stroke-opacity: 0.8"/>
     <use xlink:href="#m8c19d7eb77" x="136.590514" y="203.343157" style="fill: #3b82f6; fill-opacity: 0.8; stroke: #3b82f6; stroke-opacity: 0.8"/>
     <use xlink:href="#m8c19d7eb77" x="166.104564" y="234.242596" style="fill: #3b82f6; fill-opacity: 0.8; stroke: #3b82f6; stroke-opacity: 0.8"/>
     <use xlink:href="#m8c19d7eb77" x="195.618613" y="286.193848" style="fill: #3b82f6; fill-opacity: 0.8; stroke: #3b82f6; stroke-opacity: 0.8"/>
     <use xlink:href="#m8c19d7eb77" x="225.132663" y="220.827717" style="fill: #3b82f6; fill-opacity: 0.8; stroke: #3b82f6; stroke-opacity: 0.8"/>
     <use xlink:href="#m8c19d7eb77" x="254.646712" y="239.166409" style="fill: #3b82f6; fill-opacity: 0.8; stroke: #3b82f6; stroke-opacity: 0.8"/>
     <use xlink:href="#m8c19d7eb77" x="284.160762" y="278.607157" style="fill: #3b82f6; fill-opacity: 0.8; stroke: #3b82f6; stroke-opacity: 0.8"/>
     <use xlink:href="#m8c19d7eb77" x="313.674811" y="202.137325" style="fill: #3b82f6; fill-opacity: 0.8; stroke: #3b82f6; stroke-opacity: 0.8"/>
     <use xlink:href="#m8c19d7eb77" x="343.188861" y="269.211717" style="fill: #3b82f6; fill-opacity: 0.8; stroke: #3b82f6; stroke-opacity: 0.8"/>
     <use xlink:href="#m8c19d7eb77" x="372.702911" y="282.978297" style="fill: #3b82f6; fill-opacity: 0.8; stroke: #3b82f6; stroke-opacity: 0.8"/>
     <use xlink:href="#m8c19d7eb77" x="402.21696" y="284.88753" style="fill: #3b82f6; fill-opacity: 0.8; stroke: #3b82f6; stroke-opacity: 0.8"/>
     <use xlink:href="#m8c19d7eb77" x="77.562415" y="271.975082" style="fill: #3b82f6; fill-opacity: 0.8; stroke: #3b82f6; stroke-opacity: 0.8"/>
     <use xlink:href="#m8c19d7eb77" x="107.076464" y="266.699568" style="fill: #3b82f6; fill-opacity: 0.8; stroke: #3b82f6; stroke-opacity: 0.8"/>
     <use xlink:href="#m8c19d7eb77" x="136.590514" y="218.315568" style="fill: #3b82f6; fill-opacity: 0.8; stroke: #3b82f6; stroke-opacity: 0.8"/>
     <use xlink:href="#m8c19d7eb77" x="166.104564" y="259.967007" style="fill: #3b82f6; fill-opacity: 0.8; stroke: #3b82f6; stroke-opacity: 0.8"/>
     <use xlink:href="#m8c19d7eb77" x="195.618613" y="283.832428" style="fill: #3b82f6; fill-opacity: 0.8; stroke: #3b82f6; stroke-opacity: 0.8"/>
     <use xlink:href="#m8c19d7eb77" x="225.132663" y="249.365736" style="fill: #3b82f6; fill-opacity: 0.8; stroke: #3b82f6; stroke-opacity: 0.8"/>
     <use xlink:href="#m8c19d7eb77" x="254.646712" y="281.671979" style="fill: #3b82f6; fill-opacity: 0.8; stroke: #3b82f6; stroke-opacity: 0.8"/>
     <use xlink:href="#m8c19d7eb77" x="284.160762" y="231.428988" style="fill: #3b82f6; fill-opacity: 0.8; stroke: #3b82f6; stroke-opacity: 0.8"/>
     <use xlink:href="#m8c19d7eb77" x="313.674811" y="263.684988" style="fill: #3b82f6; fill-opacity: 0.8; stroke: #3b82f6; stroke-opacity: 0.8"/>
     <use xlink:href="#m8c19d7eb77" x="343.188861" y="207.26211" style="fill: #3b82f6; fill-opacity: 0.8; stroke: #3b82f6; stroke-opacity: 0.8"/>
     <use xlink:href="#m8c19d7eb77" x="372.702911" y="208.015755" style="fill: #3b82f6; fill-opacity: 0.8; stroke: #3b82f6; stroke-opacity: 0.8"/>
     <use xlink:href="#m8c19d7eb77" x="402.21696" y="262.479157" style="fill: #3b82f6; fill-opacity: 0.8; stroke: #3b82f6; stroke-opacity: 0.8"/>
    </g>
   </g>
   <g id="PathCollection_3">
    <defs>
     <path id="me5b0ba0321" d="M 0 3
C 0.795609 3 1.55874 2.683901 2.12132 2.12132
C 2.683901 1.55874 3 0.795609 3 0
C 3 -0.795609 2.683901 -1.55874 2.12132 -2.12132
C 1.55874 -2.683901 0.795609 -3 0 -3
C -0.795609 -3 -1.55874 -2.683901 -2.12132 -2.12132
C -2.683901 -1.55874 -3 -0.795609 -3 0
C -3 0.795609 -2.683901 1.55874 -2.12132 2.12132
C -1.55874 2.683901 -0.795609 3 0 3
z
" style="stroke: #ef4444; stroke-opacity: 0.8"/>
    </defs>
    <g clip-path="url(#p7e115ec4b3)">
     <use xlink:href="#me5b0ba0321" x="77.562415" y="127.827942" style="fill: #ef4444; fill-opacity: 0.8; stroke: #ef4444; stroke-opacity: 0.8"/>
     <use xlink:href="#me5b0ba0321" x="107.076464" y="186.913699" style="fill: #ef4444; fill-opacity: 0.8; stroke: #ef4444; stroke-opacity: 0.8"/>
     <use xlink:href="#me5b0ba0321" x="136.590514" y="151.241175" style="fill: #ef4444; fill-opacity: 0.8; stroke: #ef4444; stroke-opacity: 0.8"/>
     <use xlink:href="#me5b0ba0321" x="166.104564" y="204.850446" style="fill: #ef4444; fill-opacity: 0.8; stroke: #ef4444; stroke-opacity: 0.8"/>
     <use xlink:href="#me5b0ba0321" x="195.618613" y="150.035343" style="fill: #ef4444; fill-opacity: 0.8; stroke: #ef4444; stroke-opacity: 0.8"/>
     <use xlink:href="#me5b0ba0321" x="225.132663" y="225.148614" style="fill: #ef4444; fill-opacity: 0.8; stroke: #ef4444; stroke-opacity: 0.8"/>
     <use xlink:href="#me5b0ba0321" x="254.646712" y="205.553848" style="fill: #ef4444; fill-opacity: 0.8; stroke: #ef4444; stroke-opacity: 0.8"/>
     <use xlink:href="#me5b0ba0321" x="284.160762" y="271.522895" style="fill: #ef4444; fill-opacity: 0.8; stroke: #ef4444; stroke-opacity: 0.8"/>
     <use xlink:href="#me5b0ba0321" x="313.674811" y="96.325586" style="fill: #ef4444; fill-opacity: 0.8; stroke: #ef4444; stroke-opacity: 0.8"/>
     <use xlink:href="#me5b0ba0321" x="343.188861" y="181.8894" style="fill: #ef4444; fill-opacity: 0.8; stroke: #ef4444; stroke-opacity: 0.8"/>
     <use xlink:href="#me5b0ba0321" x="372.702911" y="143.553998" style="fill: #ef4444; fill-opacity: 0.8; stroke: #ef4444; stroke-opacity: 0.8"/>
     <use xlink:href="#me5b0ba0321" x="402.21696" y="92.758334" style="fill: #ef4444; fill-opacity: 0.8; stroke: #ef4444; stroke-opacity: 0.8"/>
     <use xlink:href="#me5b0ba0321" x="77.562415" y="148.377325" style="fill: #ef4444; fill-opacity: 0.8; stroke: #ef4444; stroke-opacity: 0.8"/>
     <use xlink:href="#me5b0ba0321" x="107.076464" y="153.401624" style="fill: #ef4444; fill-opacity: 0.8; stroke: #ef4444; stroke-opacity: 0.8"/>
     <use xlink:href="#me5b0ba0321" x="136.590514" y="112.805287" style="fill: #ef4444; fill-opacity: 0.8; stroke: #ef4444; stroke-opacity: 0.8"/>
     <use xlink:href="#me5b0ba0321" x="166.104564" y="133.00297" style="fill: #ef4444; fill-opacity: 0.8; stroke: #ef4444; stroke-opacity: 0.8"/>
     <use xlink:href="#me5b0ba0321" x="195.618613" y="184.803493" style="fill: #ef4444; fill-opacity: 0.8; stroke: #ef4444; stroke-opacity: 0.8"/>
     <use xlink:href="#me5b0ba0321" x="225.132663" y="235.096727" style="fill: #ef4444; fill-opacity: 0.8; stroke: #ef4444; stroke-opacity: 0.8"/>
     <use xlink:href="#me5b0ba0321" x="254.646712" y="246.049699" style="fill: #ef4444; fill-opacity: 0.8; stroke: #ef4444; stroke-opacity: 0.8"/>
     <use xlink:href="#me5b0ba0321" x="284.160762" y="168.072577" style="fill: #ef4444; fill-opacity: 0.8; stroke: #ef4444; stroke-opacity: 0.8"/>
     <use xlink:href="#me5b0ba0321" x="313.674811" y="186.361026" style="fill: #ef4444; fill-opacity: 0.8; stroke: #ef4444; stroke-opacity: 0.8"/>
     <use xlink:href="#me5b0ba0321" x="343.188861" y="246.451643" style="fill: #ef4444; fill-opacity: 0.8; stroke: #ef4444; stroke-opacity: 0.8"/>
     <use xlink:href="#me5b0ba0321" x="372.702911" y="235.699643" style="fill: #ef4444; fill-opacity: 0.8; stroke: #ef4444; stroke-opacity: 0.8"/>
     <use xlink:href="#me5b0ba0321" x="402.21696" y="222.787194" style="fill: #ef4444; fill-opacity: 0.8; stroke: #ef4444; stroke-opacity: 0.8"/>
     <use xlink:href="#me5b0ba0321" x="77.562415" y="126.873325" style="fill: #ef4444; fill-opacity: 0.8; stroke: #ef4444; stroke-opacity: 0.8"/>
     <use xlink:href="#me5b0ba0321" x="107.076464" y="158.677138" style="fill: #ef4444; fill-opacity: 0.8; stroke: #ef4444; stroke-opacity: 0.8"/>
     <use xlink:href="#me5b0ba0321" x="136.590514" y="121.597811" style="fill: #ef4444; fill-opacity: 0.8; stroke: #ef4444; stroke-opacity: 0.8"/>
     <use xlink:href="#me5b0ba0321" x="166.104564" y="92.205661" style="fill: #ef4444; fill-opacity: 0.8; stroke: #ef4444; stroke-opacity: 0.8"/>
     <use xlink:href="#me5b0ba0321" x="195.618613" y="214.245886" style="fill: #ef4444; fill-opacity: 0.8; stroke: #ef4444; stroke-opacity: 0.8"/>
     <use xlink:href="#me5b0ba0321" x="225.132663" y="155.260614" style="fill: #ef4444; fill-opacity: 0.8; stroke: #ef4444; stroke-opacity: 0.8"/>
     <use xlink:href="#me5b0ba0321" x="254.646712" y="148.075867" style="fill: #ef4444; fill-opacity: 0.8; stroke: #ef4444; stroke-opacity: 0.8"/>
     <use xlink:href="#me5b0ba0321" x="284.160762" y="219.119456" style="fill: #ef4444; fill-opacity: 0.8; stroke: #ef4444; stroke-opacity: 0.8"/>
     <use xlink:href="#me5b0ba0321" x="313.674811" y="140.941362" style="fill: #ef4444; fill-opacity: 0.8; stroke: #ef4444; stroke-opacity: 0.8"/>
     <use xlink:href="#me5b0ba0321" x="343.188861" y="245.798484" style="fill: #ef4444; fill-opacity: 0.8; stroke: #ef4444; stroke-opacity: 0.8"/>
     <use xlink:href="#me5b0ba0321" x="372.702911" y="97.73239" style="fill: #ef4444; fill-opacity: 0.8; stroke: #ef4444; stroke-opacity: 0.8"/>
     <use xlink:href="#me5b0ba0321" x="402.21696" y="182.592801" style="fill: #ef4444; fill-opacity: 0.8; stroke: #ef4444; stroke-opacity: 0.8"/>
     <use xlink:href="#me5b0ba0321" x="77.562415" y="161.189287" style="fill: #ef4444; fill-opacity: 0.8; stroke: #ef4444; stroke-opacity: 0.8"/>
     <use xlink:href="#me5b0ba0321" x="107.076464" y="129.385474" style="fill: #ef4444; fill-opacity: 0.8; stroke: #ef4444; stroke-opacity: 0.8"/>
     <use xlink:href="#me5b0ba0321" x="136.590514" y="199.976876" style="fill: #ef4444; fill-opacity: 0.8; stroke: #ef4444; stroke-opacity: 0.8"/>
     <use xlink:href="#me5b0ba0321" x="166.104564" y="247.406259" style="fill: #ef4444; fill-opacity: 0.8; stroke: #ef4444; stroke-opacity: 0.8"/>
     <use xlink:href="#me5b0ba0321" x="195.618613" y="220.174558" style="fill: #ef4444; fill-opacity: 0.8; stroke: #ef4444; stroke-opacity: 0.8"/>
     <use xlink:href="#me5b0ba0321" x="225.132663" y="208.065998" style="fill: #ef4444; fill-opacity: 0.8; stroke: #ef4444; stroke-opacity: 0.8"/>
     <use xlink:href="#me5b0ba0321" x="254.646712" y="104.61568" style="fill: #ef4444; fill-opacity: 0.8; stroke: #ef4444; stroke-opacity: 0.8"/>
     <use xlink:href="#me5b0ba0321" x="284.160762" y="273.180914" style="fill: #ef4444; fill-opacity: 0.8; stroke: #ef4444; stroke-opacity: 0.8"/>
     <use xlink:href="#me5b0ba0321" x="313.674811" y="271.171194" style="fill: #ef4444; fill-opacity: 0.8; stroke: #ef4444; stroke-opacity: 0.8"/>
     <use xlink:href="#me5b0ba0321" x="343.188861" y="122.049998" style="fill: #ef4444; fill-opacity: 0.8; stroke: #ef4444; stroke-opacity: 0.8"/>
     <use xlink:href="#me5b0ba0321" x="372.702911" y="223.038409" style="fill: #ef4444; fill-opacity: 0.8; stroke: #ef4444; stroke-opacity: 0.8"/>
     <use xlink:href="#me5b0ba0321" x="402.21696" y="150.48753" style="fill: #ef4444; fill-opacity: 0.8; stroke: #ef4444; stroke-opacity: 0.8"/>
     <use xlink:href="#me5b0ba0321" x="77.562415" y="247.556988" style="fill: #ef4444; fill-opacity: 0.8; stroke: #ef4444; stroke-opacity: 0.8"/>
     <use xlink:href="#me5b0ba0321" x="107.076464" y="245.39654" style="fill: #ef4444; fill-opacity: 0.8; stroke: #ef4444; stroke-opacity: 0.8"/>
     <use xlink:href="#me5b0ba0321" x="136.590514" y="123.808502" style="fill: #ef4444; fill-opacity: 0.8; stroke: #ef4444; stroke-opacity: 0.8"/>
     <use xlink:href="#me5b0ba0321" x="166.104564" y="105.721026" style="fill: #ef4444; fill-opacity: 0.8; stroke: #ef4444; stroke-opacity: 0.8"/>
     <use xlink:href="#me5b0ba0321" x="195.618613" y="250.219867" style="fill: #ef4444; fill-opacity: 0.8; stroke: #ef4444; stroke-opacity: 0.8"/>
     <use xlink:href="#me5b0ba0321" x="225.132663" y="103.058147" style="fill: #ef4444; fill-opacity: 0.8; stroke: #ef4444; stroke-opacity: 0.8"/>
     <use xlink:href="#me5b0ba0321" x="254.646712" y="182.190857" style="fill: #ef4444; fill-opacity: 0.8; stroke: #ef4444; stroke-opacity: 0.8"/>
     <use xlink:href="#me5b0ba0321" x="284.160762" y="178.975306" style="fill: #ef4444; fill-opacity: 0.8; stroke: #ef4444; stroke-opacity: 0.8"/>
     <use xlink:href="#me5b0ba0321" x="313.674811" y="109.639979" style="fill: #ef4444; fill-opacity: 0.8; stroke: #ef4444; stroke-opacity: 0.8"/>
     <use xlink:href="#me5b0ba0321" x="343.188861" y="166.515044" style="fill: #ef4444; fill-opacity: 0.8; stroke: #ef4444; stroke-opacity: 0.8"/>
     <use xlink:href="#me5b0ba0321" x="372.702911" y="262.981586" style="fill: #ef4444; fill-opacity: 0.8; stroke: #ef4444; stroke-opacity: 0.8"/>
     <use xlink:href="#me5b0ba0321" x="402.21696" y="263.232801" style="fill: #ef4444; fill-opacity: 0.8; stroke: #ef4444; stroke-opacity: 0.8"/>
    </g>
   </g>
   <g id="patch_3">
    <path d="M 61.329688 298.99325
L 61.329688 32.88125
" style="fill: none; stroke: #000000; stroke-width: 0.8; stroke-linejoin: miter; stroke-linecap: square"/>
   </g>
   <g id="patch_4">
    <path d="M 61.329688 298.99325
L 418.449687 298.99325
" style="fill: none; stroke: #000000; stroke-width: 0.8; stroke-linejoin: miter; stroke-linecap: square"/>
   </g>
   <g id="text_20">
    <!-- Sales, Profit &amp; Expenses Scatter Plot -->
    <g transform="translate(60.461562 22.88125) scale(0.2 -0.2)">
     <defs>
      <path id="Poppins-SemiBold-53" d="M 1984 -45
Q 1517 -45 1142 115
Q 768 275 550 576
Q 333 877 326 1286
L 1286 1286
Q 1306 1011 1482 851
Q 1658 691 1965 691
Q 2278 691 2457 841
Q 2637 992 2637 1235
Q 2637 1434 2515 1562
Q 2394 1690 2211 1763
Q 2029 1837 1709 1926
Q 1274 2054 1002 2179
Q 730 2304 534 2557
Q 339 2810 339 3232
Q 339 3629 537 3923
Q 736 4218 1094 4374
Q 1453 4531 1914 4531
Q 2605 4531 3037 4195
Q 3469 3859 3514 3258
L 2528 3258
Q 2515 3488 2332 3638
Q 2150 3789 1850 3789
Q 1587 3789 1430 3654
Q 1274 3520 1274 3264
Q 1274 3085 1392 2966
Q 1510 2848 1686 2774
Q 1862 2701 2182 2605
Q 2618 2477 2893 2349
Q 3168 2221 3366 1965
Q 3565 1709 3565 1293
Q 3565 934 3379 627
Q 3194 320 2835 137
Q 2477 -45 1984 -45
z
" transform="scale(0.015625)"/>
      <path id="Poppins-SemiBold-61" d="M 211 1786
Q 211 2323 425 2739
Q 640 3155 1008 3379
Q 1376 3603 1830 3603
Q 2227 3603 2524 3443
Q 2822 3283 3002 3040
L 3002 3546
L 3904 3546
L 3904 0
L 3002 0
L 3002 518
Q 2829 269 2525 105
Q 2221 -58 1824 -58
Q 1376 -58 1008 172
Q 640 403 425 822
Q 211 1242 211 1786
z
M 3002 1773
Q 3002 2099 2874 2332
Q 2746 2566 2528 2691
Q 2310 2816 2061 2816
Q 1811 2816 1600 2694
Q 1389 2573 1257 2339
Q 1126 2106 1126 1786
Q 1126 1466 1257 1226
Q 1389 986 1603 858
Q 1818 730 2061 730
Q 2310 730 2528 854
Q 2746 979 2874 1212
Q 3002 1446 3002 1773
z
" transform="scale(0.015625)"/>
      <path id="Poppins-SemiBold-6c" d="M 1338 4736
L 1338 0
L 442 0
L 442 4736
L 1338 4736
z
" transform="scale(0.015625)"/>
      <path id="Poppins-SemiBold-65" d="M 3738 1850
Q 3738 1658 3712 1504
L 1120 1504
Q 1152 1120 1389 902
Q 1626 685 1971 685
Q 2470 685 2682 1114
L 3648 1114
Q 3494 602 3059 272
Q 2624 -58 1990 -58
Q 1478 -58 1072 169
Q 666 397 438 813
Q 211 1229 211 1773
Q 211 2323 435 2739
Q 659 3155 1062 3379
Q 1466 3603 1990 3603
Q 2496 3603 2896 3385
Q 3296 3168 3517 2768
Q 3738 2368 3738 1850
z
M 2810 2106
Q 2803 2451 2560 2659
Q 2317 2867 1965 2867
Q 1632 2867 1405 2665
Q 1178 2464 1126 2106
L 2810 2106
z
" transform="scale(0.015625)"/>
      <path id="Poppins-SemiBold-73" d="M 1798 -58
Q 1363 -58 1017 99
Q 672 256 470 525
Q 269 794 250 1120
L 1152 1120
Q 1178 915 1354 780
Q 1530 646 1792 646
Q 2048 646 2192 748
Q 2336 851 2336 1011
Q 2336 1184 2160 1270
Q 1984 1357 1600 1459
Q 1203 1555 950 1657
Q 698 1760 515 1971
Q 333 2182 333 2541
Q 333 2835 502 3078
Q 672 3322 989 3462
Q 1306 3603 1734 3603
Q 2368 3603 2745 3286
Q 3123 2970 3162 2432
L 2304 2432
Q 2285 2643 2128 2768
Q 1971 2893 1709 2893
Q 1466 2893 1334 2803
Q 1203 2714 1203 2554
Q 1203 2374 1382 2281
Q 1562 2189 1939 2093
Q 2323 1997 2572 1894
Q 2822 1792 3004 1577
Q 3187 1363 3194 1011
Q 3194 704 3024 461
Q 2854 218 2537 80
Q 2221 -58 1798 -58
z
" transform="scale(0.015625)"/>
      <path id="Poppins-SemiBold-2c" d="M 1421 941
L 672 -858
L 96 -858
L 512 941
L 1421 941
z
" transform="scale(0.015625)"/>
      <path id="Poppins-SemiBold-20" transform="scale(0.015625)"/>
      <path id="Poppins-SemiBold-50" d="M 3699 3085
Q 3699 2726 3529 2412
Q 3360 2099 2998 1907
Q 2637 1715 2086 1715
L 1338 1715
L 1338 0
L 442 0
L 442 4467
L 2086 4467
Q 2605 4467 2969 4288
Q 3334 4109 3516 3795
Q 3699 3482 3699 3085
z
M 2048 2438
Q 2419 2438 2598 2608
Q 2778 2778 2778 3085
Q 2778 3738 2048 3738
L 1338 3738
L 1338 2438
L 2048 2438
z
" transform="scale(0.015625)"/>
      <path id="Poppins-SemiBold-72" d="M 1338 2995
Q 1510 3277 1788 3437
Q 2067 3597 2426 3597
L 2426 2656
L 2189 2656
Q 1766 2656 1552 2457
Q 1338 2259 1338 1766
L 1338 0
L 442 0
L 442 3546
L 1338 3546
L 1338 2995
z
" transform="scale(0.015625)"/>
      <path id="Poppins-SemiBold-6f" d="M 2016 -58
Q 1504 -58 1094 169
Q 685 397 451 813
Q 218 1229 218 1773
Q 218 2317 458 2733
Q 698 3149 1114 3376
Q 1530 3603 2042 3603
Q 2554 3603 2970 3376
Q 3386 3149 3626 2733
Q 3866 2317 3866 1773
Q 3866 1229 3619 813
Q 3373 397 2953 169
Q 2534 -58 2016 -58
z
M 2016 723
Q 2259 723 2473 841
Q 2688 960 2816 1197
Q 2944 1434 2944 1773
Q 2944 2278 2678 2550
Q 2413 2822 2029 2822
Q 1645 2822 1385 2550
Q 1126 2278 1126 1773
Q 1126 1267 1379 995
Q 1632 723 2016 723
z
" transform="scale(0.015625)"/>
      <path id="Poppins-SemiBold-66" d="M 2067 2810
L 1446 2810
L 1446 0
L 538 0
L 538 2810
L 134 2810
L 134 3546
L 538 3546
L 538 3725
Q 538 4378 909 4685
Q 1280 4992 2029 4973
L 2029 4218
Q 1702 4224 1574 4109
Q 1446 3994 1446 3693
L 1446 3546
L 2067 3546
L 2067 2810
z
" transform="scale(0.015625)"/>
      <path id="Poppins-SemiBold-69" d="M 896 3968
Q 659 3968 502 4118
Q 346 4269 346 4493
Q 346 4717 502 4867
Q 659 5018 896 5018
Q 1133 5018 1289 4867
Q 1446 4717 1446 4493
Q 1446 4269 1289 4118
Q 1133 3968 896 3968
z
M 1338 3546
L 1338 0
L 442 0
L 442 3546
L 1338 3546
z
" transform="scale(0.015625)"/>
      <path id="Poppins-SemiBold-74" d="M 1485 2810
L 1485 1094
Q 1485 915 1571 835
Q 1658 755 1862 755
L 2278 755
L 2278 0
L 1715 0
Q 582 0 582 1101
L 582 2810
L 160 2810
L 160 3546
L 582 3546
L 582 4422
L 1485 4422
L 1485 3546
L 2278 3546
L 2278 2810
L 1485 2810
z
" transform="scale(0.015625)"/>
      <path id="Poppins-SemiBold-26" d="M 3878 0
L 3392 480
Q 2771 -77 1875 -77
Q 1382 -77 1008 92
Q 634 262 429 572
Q 224 883 224 1293
Q 224 1734 473 2086
Q 723 2438 1210 2656
Q 1037 2867 960 3062
Q 883 3258 883 3482
Q 883 3789 1043 4035
Q 1203 4282 1500 4422
Q 1798 4563 2195 4563
Q 2598 4563 2886 4409
Q 3174 4256 3315 4000
Q 3456 3744 3437 3430
L 2566 3430
Q 2573 3642 2464 3754
Q 2355 3866 2170 3866
Q 1990 3866 1872 3760
Q 1754 3654 1754 3488
Q 1754 3328 1850 3171
Q 1946 3014 2163 2784
L 3290 1670
Q 3302 1683 3308 1696
Q 3315 1709 3322 1722
L 3686 2330
L 4621 2330
L 4173 1542
Q 4045 1293 3898 1069
L 4979 0
L 3878 0
z
M 1901 666
Q 2426 666 2829 1037
L 1728 2125
Q 1107 1850 1107 1344
Q 1107 1056 1324 861
Q 1542 666 1901 666
z
" transform="scale(0.015625)"/>
      <path id="Poppins-SemiBold-45" d="M 1338 3744
L 1338 2624
L 2842 2624
L 2842 1914
L 1338 1914
L 1338 730
L 3034 730
L 3034 0
L 442 0
L 442 4474
L 3034 4474
L 3034 3744
L 1338 3744
z
" transform="scale(0.015625)"/>
      <path id="Poppins-SemiBold-78" d="M 2400 0
L 1670 1101
L 1024 0
L 64 0
L 1222 1779
L 51 3546
L 1062 3546
L 1786 2451
L 2438 3546
L 3398 3546
L 2234 1779
L 3411 0
L 2400 0
z
" transform="scale(0.015625)"/>
      <path id="Poppins-SemiBold-70" d="M 1338 3034
Q 1510 3277 1814 3440
Q 2118 3603 2509 3603
Q 2963 3603 3331 3379
Q 3699 3155 3913 2742
Q 4128 2330 4128 1786
Q 4128 1242 3913 822
Q 3699 403 3331 172
Q 2963 -58 2509 -58
Q 2118 -58 1820 102
Q 1523 262 1338 506
L 1338 -1690
L 442 -1690
L 442 3546
L 1338 3546
L 1338 3034
z
M 3213 1786
Q 3213 2106 3081 2339
Q 2950 2573 2736 2694
Q 2522 2816 2272 2816
Q 2029 2816 1814 2691
Q 1600 2566 1469 2329
Q 1338 2093 1338 1773
Q 1338 1453 1469 1216
Q 1600 979 1814 854
Q 2029 730 2272 730
Q 2522 730 2736 858
Q 2950 986 3081 1222
Q 3213 1459 3213 1786
z
" transform="scale(0.015625)"/>
      <path id="Poppins-SemiBold-6e" d="M 2406 3597
Q 3040 3597 3430 3197
Q 3821 2797 3821 2080
L 3821 0
L 2925 0
L 2925 1958
Q 2925 2381 2713 2608
Q 2502 2835 2138 2835
Q 1766 2835 1552 2608
Q 1338 2381 1338 1958
L 1338 0
L 442 0
L 442 3546
L 1338 3546
L 1338 3104
Q 1517 3334 1795 3465
Q 2074 3597 2406 3597
z
" transform="scale(0.015625)"/>
      <path id="Poppins-SemiBold-63" d="M 211 1773
Q 211 2323 435 2736
Q 659 3149 1056 3376
Q 1453 3603 1965 3603
Q 2624 3603 3056 3273
Q 3488 2944 3635 2349
L 2669 2349
Q 2592 2579 2409 2710
Q 2227 2842 1958 2842
Q 1574 2842 1350 2563
Q 1126 2285 1126 1773
Q 1126 1267 1350 988
Q 1574 710 1958 710
Q 2502 710 2669 1197
L 3635 1197
Q 3488 621 3053 281
Q 2618 -58 1965 -58
Q 1453 -58 1056 169
Q 659 397 435 809
Q 211 1222 211 1773
z
" transform="scale(0.015625)"/>
     </defs>
     <use xlink:href="#Poppins-SemiBold-53"/>
     <use xlink:href="#Poppins-SemiBold-61" x="60.899994"/>
     <use xlink:href="#Poppins-SemiBold-6c" x="128.699982"/>
     <use xlink:href="#Poppins-SemiBold-65" x="156.499969"/>
     <use xlink:href="#Poppins-SemiBold-73" x="218.199966"/>
     <use xlink:href="#Poppins-SemiBold-2c" x="272.699951"/>
     <use xlink:href="#Poppins-SemiBold-20" x="298.099945"/>
     <use xlink:href="#Poppins-SemiBold-50" x="321.899933"/>
     <use xlink:href="#Poppins-SemiBold-72" x="382.699921"/>
     <use xlink:href="#Poppins-SemiBold-6f" x="423.099915"/>
     <use xlink:href="#Poppins-SemiBold-66" x="486.899902"/>
     <use xlink:href="#Poppins-SemiBold-69" x="521.399887"/>
     <use xlink:href="#Poppins-SemiBold-74" x="549.199875"/>
     <use xlink:href="#Poppins-SemiBold-20" x="587.999863"/>
     <use xlink:href="#Poppins-SemiBold-26" x="611.79985"/>
     <use xlink:href="#Poppins-SemiBold-20" x="689.599838"/>
     <use xlink:href="#Poppins-SemiBold-45" x="713.399826"/>
     <use xlink:href="#Poppins-SemiBold-78" x="766.599823"/>
     <use xlink:href="#Poppins-SemiBold-70" x="820.599808"/>
     <use xlink:href="#Poppins-SemiBold-65" x="888.399796"/>
     <use xlink:href="#Poppins-SemiBold-6e" x="950.099792"/>
     <use xlink:href="#Poppins-SemiBold-73" x="1016.199783"/>
     <use xlink:href="#Poppins-SemiBold-65" x="1070.699768"/>
     <use xlink:href="#Poppins-SemiBold-73" x="1132.399765"/>
     <use xlink:href="#Poppins-SemiBold-20" x="1186.89975"/>
     <use xlink:href="#Poppins-SemiBold-53" x="1210.699738"/>
     <use xlink:href="#Poppins-SemiBold-63" x="1271.599731"/>
     <use xlink:href="#Poppins-SemiBold-61" x="1331.799728"/>
     <use xlink:href="#Poppins-SemiBold-74" x="1399.599716"/>
     <use xlink:href="#Poppins-SemiBold-74" x="1438.399704"/>
     <use xlink:href="#Poppins-SemiBold-65" x="1477.199692"/>
     <use xlink:href="#Poppins-SemiBold-72" x="1538.899689"/>
     <use xlink:href="#Poppins-SemiBold-20" x="1579.299683"/>
     <use xlink:href="#Poppins-SemiBold-50" x="1603.09967"/>
     <use xlink:href="#Poppins-SemiBold-6c" x="1663.899658"/>
     <use xlink:href="#Poppins-SemiBold-6f" x="1691.699646"/>
     <use xlink:href="#Poppins-SemiBold-74" x="1755.499634"/>
    </g>
   </g>
   <g id="legend_1">
    <g id="PathCollection_4">
     <g>
      <use xlink:href="#m15c149cd55" x="455.305687" y="46.854687" style="fill: #22c55e; fill-opacity: 0.8; stroke: #22c55e; stroke-opacity: 0.8"/>
     </g>
    </g>
    <g id="text_21">
     <!-- sales -->
     <g transform="translate(473.305687 49.479687) scale(0.1 -0.1)">
      <defs>
       <path id="DejaVuSans-73" d="M 2834 3397
L 2834 2853
Q 2591 2978 2328 3040
Q 2066 3103 1784 3103
Q 1356 3103 1142 2972
Q 928 2841 928 2578
Q 928 2378 1081 2264
Q 1234 2150 1697 2047
L 1894 2003
Q 2506 1872 2764 1633
Q 3022 1394 3022 966
Q 3022 478 2636 193
Q 2250 -91 1575 -91
Q 1294 -91 989 -36
Q 684 19 347 128
L 347 722
Q 666 556 975 473
Q 1284 391 1588 391
Q 1994 391 2212 530
Q 2431 669 2431 922
Q 2431 1156 2273 1281
Q 2116 1406 1581 1522
L 1381 1569
Q 847 1681 609 1914
Q 372 2147 372 2553
Q 372 3047 722 3315
Q 1072 3584 1716 3584
Q 2034 3584 2315 3537
Q 2597 3491 2834 3397
z
" transform="scale(0.015625)"/>
       <path id="DejaVuSans-61" d="M 2194 1759
Q 1497 1759 1228 1600
Q 959 1441 959 1056
Q 959 750 1161 570
Q 1363 391 1709 391
Q 2188 391 2477 730
Q 2766 1069 2766 1631
L 2766 1759
L 2194 1759
z
M 3341 1997
L 3341 0
L 2766 0
L 2766 531
Q 2569 213 2275 61
Q 1981 -91 1556 -91
Q 1019 -91 701 211
Q 384 513 384 1019
Q 384 1609 779 1909
Q 1175 2209 1959 2209
L 2766 2209
L 2766 2266
Q 2766 2663 2505 2880
Q 2244 3097 1772 3097
Q 1472 3097 1187 3025
Q 903 2953 641 2809
L 641 3341
Q 956 3463 1253 3523
Q 1550 3584 1831 3584
Q 2591 3584 2966 3190
Q 3341 2797 3341 1997
z
" transform="scale(0.015625)"/>
       <path id="DejaVuSans-6c" d="M 603 4863
L 1178 4863
L 1178 0
L 603 0
L 603 4863
z
" transform="scale(0.015625)"/>
       <path id="DejaVuSans-65" d="M 3597 1894
L 3597 1613
L 953 1613
Q 991 1019 1311 708
Q 1631 397 2203 397
Q 2534 397 2845 478
Q 3156 559 3463 722
L 3463 178
Q 3153 47 2828 -22
Q 2503 -91 2169 -91
Q 1331 -91 842 396
Q 353 884 353 1716
Q 353 2575 817 3079
Q 1281 3584 2069 3584
Q 2775 3584 3186 3129
Q 3597 2675 3597 1894
z
M 3022 2063
Q 3016 2534 2758 2815
Q 2500 3097 2075 3097
Q 1594 3097 1305 2825
Q 1016 2553 972 2059
L 3022 2063
z
" transform="scale(0.015625)"/>
      </defs>
      <use xlink:href="#DejaVuSans-73"/>
      <use xlink:href="#DejaVuSans-61" x="52.099609"/>
      <use xlink:href="#DejaVuSans-6c" x="113.378906"/>
      <use xlink:href="#DejaVuSans-65" x="141.162109"/>
      <use xlink:href="#DejaVuSans-73" x="202.685547"/>
     </g>
    </g>
    <g id="PathCollection_5">
     <g>
      <use xlink:href="#m8c19d7eb77" x="455.305687" y="61.532812" style="fill: #3b82f6; fill-opacity: 0.8; stroke: #3b82f6; stroke-opacity: 0.8"/>
     </g>
    </g>
    <g id="text_22">
     <!-- profit -->
     <g transform="translate(473.305687 64.157812) scale(0.1 -0.1)">
      <defs>
       <path id="DejaVuSans-70" d="M 1159 525
L 1159 -1331
L 581 -1331
L 581 3500
L 1159 3500
L 1159 2969
Q 1341 3281 1617 3432
Q 1894 3584 2278 3584
Q 2916 3584 3314 3078
Q 3713 2572 3713 1747
Q 3713 922 3314 415
Q 2916 -91 2278 -91
Q 1894 -91 1617 61
Q 1341 213 1159 525
z
M 3116 1747
Q 3116 2381 2855 2742
Q 2594 3103 2138 3103
Q 1681 3103 1420 2742
Q 1159 2381 1159 1747
Q 1159 1113 1420 752
Q 1681 391 2138 391
Q 2594 391 2855 752
Q 3116 1113 3116 1747
z
" transform="scale(0.015625)"/>
       <path id="DejaVuSans-72" d="M 2631 2963
Q 2534 3019 2420 3045
Q 2306 3072 2169 3072
Q 1681 3072 1420 2755
Q 1159 2438 1159 1844
L 1159 0
L 581 0
L 581 3500
L 1159 3500
L 1159 2956
Q 1341 3275 1631 3429
Q 1922 3584 2338 3584
Q 2397 3584 2469 3576
Q 2541 3569 2628 3553
L 2631 2963
z
" transform="scale(0.015625)"/>
       <path id="DejaVuSans-6f" d="M 1959 3097
Q 1497 3097 1228 2736
Q 959 2375 959 1747
Q 959 1119 1226 758
Q 1494 397 1959 397
Q 2419 397 2687 759
Q 2956 1122 2956 1747
Q 2956 2369 2687 2733
Q 2419 3097 1959 3097
z
M 1959 3584
Q 2709 3584 3137 3096
Q 3566 2609 3566 1747
Q 3566 888 3137 398
Q 2709 -91 1959 -91
Q 1206 -91 779 398
Q 353 888 353 1747
Q 353 2609 779 3096
Q 1206 3584 1959 3584
z
" transform="scale(0.015625)"/>
       <path id="DejaVuSans-66" d="M 2375 4863
L 2375 4384
L 1825 4384
Q 1516 4384 1395 4259
Q 1275 4134 1275 3809
L 1275 3500
L 2222 3500
L 2222 3053
L 1275 3053
L 1275 0
L 697 0
L 697 3053
L 147 3053
L 147 3500
L 697 3500
L 697 3744
Q 697 4328 969 4595
Q 1241 4863 1831 4863
L 2375 4863
z
" transform="scale(0.015625)"/>
       <path id="DejaVuSans-69" d="M 603 3500
L 1178 3500
L 1178 0
L 603 0
L 603 3500
z
M 603 4863
L 1178 4863
L 1178 4134
L 603 4134
L 603 4863
z
" transform="scale(0.015625)"/>
       <path id="DejaVuSans-74" d="M 1172 4494
L 1172 3500
L 2356 3500
L 2356 3053
L 1172 3053
L 1172 1153
Q 1172 725 1289 603
Q 1406 481 1766 481
L 2356 481
L 2356 0
L 1766 0
Q 1100 0 847 248
Q 594 497 594 1153
L 594 3053
L 172 3053
L 172 3500
L 594 3500
L 594 4494
L 1172 4494
z
" transform="scale(0.015625)"/>
      </defs>
      <use xlink:href="#DejaVuSans-70"/>
      <use xlink:href="#DejaVuSans-72" x="63.476562"/>
      <use xlink:href="#DejaVuSans-6f" x="102.339844"/>
      <use xlink:href="#DejaVuSans-66" x="163.521484"/>
      <use xlink:href="#DejaVuSans-69" x="198.726562"/>
      <use xlink:href="#DejaVuSans-74" x="226.509766"/>
     </g>
    </g>
    <g id="PathCollection_6">
     <g>
      <use xlink:href="#me5b0ba0321" x="455.305687" y="76.210937" style="fill: #ef4444; fill-opacity: 0.8; stroke: #ef4444; stroke-opacity: 0.8"/>
     </g>
    </g>
    <g id="text_23">
     <!-- expenses -->
     <g transform="translate(473.305687 78.835937) scale(0.1 -0.1)">
      <defs>
       <path id="DejaVuSans-78" d="M 3513 3500
L 2247 1797
L 3578 0
L 2900 0
L 1881 1375
L 863 0
L 184 0
L 1544 1831
L 300 3500
L 978 3500
L 1906 2253
L 2834 3500
L 3513 3500
z
" transform="scale(0.015625)"/>
       <path id="DejaVuSans-6e" d="M 3513 2113
L 3513 0
L 2938 0
L 2938 2094
Q 2938 2591 2744 2837
Q 2550 3084 2163 3084
Q 1697 3084 1428 2787
Q 1159 2491 1159 1978
L 1159 0
L 581 0
L 581 3500
L 1159 3500
L 1159 2956
Q 1366 3272 1645 3428
Q 1925 3584 2291 3584
Q 2894 3584 3203 3211
Q 3513 2838 3513 2113
z
" transform="scale(0.015625)"/>
      </defs>
      <use xlink:href="#DejaVuSans-65"/>
      <use xlink:href="#DejaVuSans-78" x="59.773438"/>
      <use xlink:href="#DejaVuSans-70" x="118.953125"/>
      <use xlink:href="#DejaVuSans-65" x="182.429688"/>
      <use xlink:href="#DejaVuSans-6e" x="243.953125"/>
      <use xlink:href="#DejaVuSans-73" x="307.332031"/>
      <use xlink:href="#DejaVuSans-65" x="359.431641"/>
      <use xlink:href="#DejaVuSans-73" x="420.955078"/>
     </g>
    </g>
   </g>
  </g>
  <g id="text_24">
   <!-- Source: PyRetailScience - 2024 -->
   <g style="fill: #696969" transform="translate(7.519687 340.773562) scale(0.1 -0.1)">
    <defs>
     <path id="Poppins-LightItalic-53" d="M 1619 -45
Q 1216 -45 912 89
Q 608 224 441 467
Q 275 710 275 1024
Q 275 1107 282 1152
L 723 1152
Q 710 947 796 758
Q 883 570 1097 445
Q 1312 320 1651 320
Q 2125 320 2406 557
Q 2688 794 2688 1197
Q 2688 1440 2557 1603
Q 2426 1766 2234 1872
Q 2042 1978 1709 2112
Q 1318 2266 1088 2397
Q 858 2528 707 2758
Q 557 2989 582 3347
Q 595 3693 790 3958
Q 986 4224 1322 4374
Q 1658 4525 2086 4525
Q 2509 4525 2813 4381
Q 3117 4237 3267 3987
Q 3418 3738 3398 3437
L 2931 3437
Q 2944 3610 2851 3776
Q 2758 3942 2556 4048
Q 2355 4154 2061 4154
Q 1606 4154 1318 3933
Q 1030 3712 1030 3334
Q 1030 3110 1158 2956
Q 1286 2803 1472 2700
Q 1658 2598 1984 2464
Q 2362 2310 2595 2176
Q 2829 2042 2992 1818
Q 3155 1594 3155 1254
Q 3155 1171 3149 1126
Q 3123 800 2931 531
Q 2739 262 2403 108
Q 2067 -45 1619 -45
z
" transform="scale(0.015625)"/>
     <path id="Poppins-LightItalic-6f" d="M 1728 -51
Q 1293 -51 960 125
Q 627 301 444 624
Q 262 947 262 1382
Q 262 1971 531 2467
Q 800 2963 1280 3254
Q 1760 3546 2349 3546
Q 2784 3546 3117 3370
Q 3450 3194 3635 2870
Q 3821 2547 3821 2112
Q 3821 1517 3545 1024
Q 3270 531 2793 240
Q 2317 -51 1728 -51
z
M 1779 326
Q 2234 326 2595 569
Q 2957 813 3158 1216
Q 3360 1619 3360 2086
Q 3360 2611 3056 2886
Q 2752 3162 2285 3162
Q 1830 3162 1475 2918
Q 1120 2675 921 2272
Q 723 1869 723 1402
Q 723 883 1024 604
Q 1325 326 1779 326
z
" transform="scale(0.015625)"/>
     <path id="Poppins-LightItalic-75" d="M 3834 3494
L 3219 0
L 2771 0
L 2880 614
Q 2662 288 2316 115
Q 1971 -58 1574 -58
Q 1037 -58 710 233
Q 384 525 384 1082
Q 384 1286 416 1453
L 774 3494
L 1216 3494
L 864 1504
Q 838 1357 838 1197
Q 838 774 1072 553
Q 1306 333 1722 333
Q 2208 333 2560 630
Q 2912 928 3034 1504
L 3386 3494
L 3834 3494
z
" transform="scale(0.015625)"/>
     <path id="Poppins-LightItalic-72" d="M 1133 2797
Q 1344 3162 1683 3360
Q 2022 3558 2470 3558
L 2387 3091
L 2259 3091
Q 1798 3091 1465 2854
Q 1133 2618 1005 2074
L 640 0
L 192 0
L 806 3494
L 1254 3494
L 1133 2797
z
" transform="scale(0.015625)"/>
     <path id="Poppins-LightItalic-63" d="M 294 1747
Q 390 2291 681 2697
Q 973 3104 1395 3325
Q 1818 3546 2310 3546
Q 2957 3546 3318 3226
Q 3680 2906 3706 2355
L 3226 2355
Q 3206 2733 2947 2947
Q 2688 3162 2246 3162
Q 1702 3162 1289 2794
Q 877 2426 755 1747
Q 723 1587 723 1382
Q 723 870 1001 598
Q 1280 326 1741 326
Q 2189 326 2521 540
Q 2854 755 3014 1139
L 3494 1139
Q 3277 602 2797 275
Q 2317 -51 1677 -51
Q 1030 -51 643 320
Q 256 691 256 1338
Q 256 1536 294 1747
z
" transform="scale(0.015625)"/>
     <path id="Poppins-LightItalic-65" d="M 2330 3546
Q 2771 3546 3084 3376
Q 3398 3206 3561 2912
Q 3725 2618 3725 2240
Q 3725 2067 3699 1933
Q 3661 1741 3622 1587
L 723 1587
Q 704 1466 704 1357
Q 704 864 1001 595
Q 1299 326 1760 326
Q 2202 326 2534 537
Q 2867 749 3021 1107
L 3501 1107
Q 3283 595 2806 272
Q 2330 -51 1696 -51
Q 1043 -51 649 323
Q 256 698 256 1344
Q 256 1536 294 1747
Q 390 2291 681 2700
Q 973 3110 1401 3328
Q 1830 3546 2330 3546
z
M 3238 1920
Q 3270 2099 3270 2221
Q 3270 2675 2982 2918
Q 2694 3162 2246 3162
Q 1920 3162 1619 3021
Q 1318 2880 1094 2598
Q 870 2317 787 1920
L 3238 1920
z
" transform="scale(0.015625)"/>
     <path id="Poppins-LightItalic-3a" d="M 262 -32
Q 141 -32 64 45
Q -13 122 -13 243
Q -13 397 105 512
Q 224 627 378 627
Q 499 627 576 553
Q 653 480 653 358
Q 653 205 534 86
Q 416 -32 262 -32
z
M 262 2784
Q 141 2784 64 2861
Q -13 2938 -13 3059
Q -13 3213 105 3328
Q 224 3443 378 3443
Q 499 3443 576 3369
Q 653 3296 653 3174
Q 653 3021 534 2902
Q 416 2784 262 2784
z
" transform="scale(0.015625)"/>
     <path id="Poppins-LightItalic-20" transform="scale(0.015625)"/>
     <path id="Poppins-LightItalic-50" d="M 3616 3187
Q 3514 2611 3072 2259
Q 2630 1907 1875 1907
L 973 1907
L 640 0
L 192 0
L 979 4474
L 2330 4474
Q 2989 4474 3315 4198
Q 3642 3923 3642 3456
Q 3642 3309 3616 3187
z
M 1946 2278
Q 2995 2278 3155 3187
Q 3181 3354 3181 3424
Q 3181 4115 2266 4115
L 1363 4115
L 1043 2278
L 1946 2278
z
" transform="scale(0.015625)"/>
     <path id="Poppins-LightItalic-79" d="M 890 3494
L 1549 531
L 3219 3494
L 3686 3494
L 710 -1645
L 237 -1645
L 1210 26
L 390 3494
L 890 3494
z
" transform="scale(0.015625)"/>
     <path id="Poppins-LightItalic-52" d="M 2330 4474
Q 2989 4474 3318 4192
Q 3648 3910 3648 3437
Q 3648 3354 3622 3174
Q 3539 2688 3200 2345
Q 2861 2003 2298 1901
L 3110 0
L 2573 0
L 1798 1869
L 966 1869
L 640 0
L 192 0
L 979 4474
L 2330 4474
z
M 3155 3174
Q 3174 3302 3174 3405
Q 3174 3744 2950 3929
Q 2726 4115 2259 4115
L 1363 4115
L 1030 2227
L 1933 2227
Q 2464 2227 2771 2483
Q 3078 2739 3155 3174
z
" transform="scale(0.015625)"/>
     <path id="Poppins-LightItalic-74" d="M 934 947
Q 915 832 915 749
Q 915 544 1027 464
Q 1139 384 1395 384
L 1805 384
L 1734 0
L 1254 0
Q 858 0 659 153
Q 461 307 461 659
Q 461 800 486 947
L 870 3117
L 384 3117
L 454 3494
L 941 3494
L 1094 4371
L 1542 4371
L 1389 3494
L 2355 3494
L 2285 3117
L 1318 3117
L 934 947
z
" transform="scale(0.015625)"/>
     <path id="Poppins-LightItalic-61" d="M 294 1754
Q 390 2291 678 2697
Q 966 3104 1385 3325
Q 1805 3546 2285 3546
Q 2784 3546 3104 3315
Q 3424 3085 3520 2726
L 3654 3494
L 4102 3494
L 3488 0
L 3040 0
L 3174 774
Q 2957 416 2550 182
Q 2144 -51 1645 -51
Q 1229 -51 915 121
Q 602 294 429 611
Q 256 928 256 1357
Q 256 1542 294 1754
z
M 3347 1747
Q 3379 1926 3379 2067
Q 3379 2566 3078 2860
Q 2778 3155 2298 3155
Q 1926 3155 1603 2988
Q 1280 2822 1056 2505
Q 832 2189 755 1754
Q 723 1562 723 1427
Q 723 922 1020 630
Q 1318 339 1798 339
Q 2157 339 2486 512
Q 2816 685 3043 1005
Q 3270 1325 3347 1747
z
" transform="scale(0.015625)"/>
     <path id="Poppins-LightItalic-69" d="M 1152 4154
Q 1030 4154 953 4227
Q 877 4301 877 4422
Q 877 4589 992 4701
Q 1107 4813 1267 4813
Q 1389 4813 1462 4742
Q 1536 4672 1536 4557
Q 1536 4390 1421 4272
Q 1306 4154 1152 4154
z
M 1254 3494
L 640 0
L 192 0
L 806 3494
L 1254 3494
z
" transform="scale(0.015625)"/>
     <path id="Poppins-LightItalic-6c" d="M 1478 4736
L 640 0
L 192 0
L 1030 4736
L 1478 4736
z
" transform="scale(0.015625)"/>
     <path id="Poppins-LightItalic-6e" d="M 2464 3558
Q 3002 3558 3325 3267
Q 3648 2976 3648 2419
Q 3648 2214 3616 2048
L 3251 0
L 2810 0
L 3162 1997
Q 3187 2144 3187 2310
Q 3187 2733 2956 2950
Q 2726 3168 2310 3168
Q 1805 3168 1446 2848
Q 1088 2528 979 1907
L 979 1926
L 640 0
L 192 0
L 806 3494
L 1254 3494
L 1146 2893
Q 1370 3213 1715 3385
Q 2061 3558 2464 3558
z
" transform="scale(0.015625)"/>
     <path id="Poppins-LightItalic-2d" d="M 2816 2560
L 2752 2182
L 262 2182
L 326 2560
L 2816 2560
z
" transform="scale(0.015625)"/>
     <path id="Poppins-LightItalic-32" d="M 64 352
Q 1402 1229 2170 1929
Q 2938 2630 3053 3290
Q 3078 3456 3078 3539
Q 3078 3859 2889 4051
Q 2701 4243 2278 4243
Q 1792 4243 1472 3939
Q 1152 3635 1037 3136
L 602 3136
Q 762 3846 1232 4236
Q 1702 4627 2349 4627
Q 2893 4627 3209 4361
Q 3526 4096 3526 3603
Q 3526 3443 3501 3309
Q 3366 2547 2598 1827
Q 1830 1107 768 410
L 3130 410
L 3066 32
L 6 32
L 64 352
z
" transform="scale(0.015625)"/>
     <path id="Poppins-LightItalic-30" d="M 506 2304
Q 698 3398 1142 4006
Q 1587 4614 2464 4614
Q 3130 4614 3421 4249
Q 3712 3885 3712 3226
Q 3712 2848 3616 2304
Q 3424 1210 2976 598
Q 2528 -13 1651 -13
Q 986 -13 698 348
Q 410 710 410 1370
Q 410 1747 506 2304
z
M 3174 2304
Q 3270 2835 3270 3187
Q 3270 3674 3068 3939
Q 2867 4205 2394 4205
Q 1933 4205 1645 3958
Q 1357 3712 1203 3302
Q 1050 2893 947 2304
Q 845 1722 845 1402
Q 845 922 1043 659
Q 1242 397 1722 397
Q 2182 397 2470 643
Q 2758 890 2912 1299
Q 3066 1709 3174 2304
z
" transform="scale(0.015625)"/>
     <path id="Poppins-LightItalic-34" d="M 90 1088
L 147 1427
L 3034 4563
L 3565 4563
L 3021 1478
L 3706 1478
L 3635 1088
L 2950 1088
L 2758 0
L 2317 0
L 2509 1088
L 90 1088
z
M 3053 4070
L 678 1478
L 2598 1478
L 3053 4070
z
" transform="scale(0.015625)"/>
    </defs>
    <use xlink:href="#Poppins-LightItalic-53"/>
    <use xlink:href="#Poppins-LightItalic-6f" x="56.599991"/>
    <use xlink:href="#Poppins-LightItalic-75" x="120.799988"/>
    <use xlink:href="#Poppins-LightItalic-72" x="184.099976"/>
    <use xlink:href="#Poppins-LightItalic-63" x="220.299973"/>
    <use xlink:href="#Poppins-LightItalic-65" x="281.59996"/>
    <use xlink:href="#Poppins-LightItalic-3a" x="343.799957"/>
    <use xlink:href="#Poppins-LightItalic-20" x="362.299942"/>
    <use xlink:href="#Poppins-LightItalic-50" x="391.799927"/>
    <use xlink:href="#Poppins-LightItalic-79" x="448.199921"/>
    <use xlink:href="#Poppins-LightItalic-52" x="502.699905"/>
    <use xlink:href="#Poppins-LightItalic-65" x="561.399902"/>
    <use xlink:href="#Poppins-LightItalic-74" x="623.599899"/>
    <use xlink:href="#Poppins-LightItalic-61" x="659.19989"/>
    <use xlink:href="#Poppins-LightItalic-69" x="726.699875"/>
    <use xlink:href="#Poppins-LightItalic-6c" x="749.599869"/>
    <use xlink:href="#Poppins-LightItalic-53" x="772.499863"/>
    <use xlink:href="#Poppins-LightItalic-63" x="829.099854"/>
    <use xlink:href="#Poppins-LightItalic-69" x="890.399841"/>
    <use xlink:href="#Poppins-LightItalic-65" x="913.299835"/>
    <use xlink:href="#Poppins-LightItalic-6e" x="975.499832"/>
    <use xlink:href="#Poppins-LightItalic-63" x="1038.79982"/>
    <use xlink:href="#Poppins-LightItalic-65" x="1100.099808"/>
    <use xlink:href="#Poppins-LightItalic-20" x="1162.299805"/>
    <use xlink:href="#Poppins-LightItalic-2d" x="1191.799789"/>
    <use xlink:href="#Poppins-LightItalic-20" x="1243.699783"/>
    <use xlink:href="#Poppins-LightItalic-32" x="1273.199768"/>
    <use xlink:href="#Poppins-LightItalic-30" x="1330.399765"/>
    <use xlink:href="#Poppins-LightItalic-32" x="1391.999756"/>
    <use xlink:href="#Poppins-LightItalic-34" x="1449.199753"/>
   </g>
  </g>
 </g>
 <defs>
  <clipPath id="p7e115ec4b3">
   <rect x="61.329688" y="32.88125" width="357.12" height="266.112"/>
  </clipPath>
 </defs>
</svg>
